<svg width="36" height="36" viewBox="0 0 36 36" fill="none" xmlns="http://www.w3.org/2000/svg">
  <path
    d="M24.6933 0.00732563C24.4872 0.0360858 24.2966 0.144736 24.1686 0.314103L20.97 4.40446C20.7116 4.72751 20.729 5.19123 21.0109 5.49398L21.02 5.50375C21.2129 5.70118 21.209 6.01904 21.0047 6.20476C17.8129 9.10685 14.2252 9.82419 8.0008 9.82419C7.62403 9.82419 7.30064 10.0926 7.231 10.463L7.22614 10.4889C5.65832 18.5151 0.05596 34.8985 0.0543552 34.9032C0.0543058 34.9034 0.0543301 34.9033 0.0542808 34.9034L0.0447763 34.9313C-0.173342 35.5703 0.443078 36.1785 1.07868 35.9515C1.07882 35.9514 1.07875 35.9514 1.0789 35.9514C1.08365 35.9497 17.0979 30.2182 24.9432 28.6143C25.3207 28.54 25.5929 28.2067 25.5929 27.8218C25.5929 21.4504 26.2942 17.7828 29.1314 14.5174C29.3101 14.3118 29.6256 14.3078 29.816 14.5025C30.0916 14.7697 30.5189 14.8142 30.8406 14.6048L35.6384 11.3325C36.0101 11.0769 36.1132 10.5624 35.8633 10.1821C35.6134 9.80182 35.1105 9.69637 34.7388 9.95202L31.0921 12.4319C30.744 12.6686 30.2766 12.6217 29.9824 12.3208L23.202 5.38417C22.8972 5.07225 22.8706 4.58254 23.1399 4.2394L25.418 1.33669C25.6273 1.07785 25.6585 0.713552 25.4992 0.419557C25.3368 0.125562 25.0182 -0.0374123 24.6933 0.00732563ZM21.8567 7.60002C22.218 7.28514 22.7654 7.28947 23.1004 7.63217L27.762 12.4011C28.0864 12.7331 28.0904 13.2601 27.7924 13.6161C25.0098 16.9392 24.1418 20.8421 24.0287 26.4873C24.0206 26.8934 23.7374 27.243 23.3417 27.3334C18.3388 28.476 11.8258 30.5645 7.30714 32.0889C6.43685 32.3826 5.75272 31.2977 6.39487 30.6407L14.8877 21.9522C15.1597 21.6739 15.5797 21.6246 15.9511 21.7404C16.2044 21.8194 16.4705 21.8652 16.7469 21.8652C18.393 21.8652 19.7455 20.4815 19.7455 18.7974C19.7455 17.1133 18.393 15.7552 16.7469 15.7552C15.1007 15.7552 13.7482 17.1133 13.7482 18.7974C13.7482 19.1246 13.8049 19.4386 13.9038 19.7338C14.0273 20.1021 13.9857 20.5229 13.7143 20.8007L5.29677 29.4122C4.65176 30.072 3.54877 29.4032 3.83191 28.5248C5.32259 23.8999 7.3639 17.2363 8.47984 12.1196C8.56699 11.72 8.9181 11.4327 9.32678 11.424C14.8138 11.3067 18.6189 10.4224 21.8567 7.60002ZM16.7469 17.3914C17.5278 17.3914 18.1462 17.9985 18.1462 18.7974C18.1462 19.5963 17.5278 20.2291 16.7469 20.2291C16.4322 20.2291 16.1411 20.1433 15.9096 19.9717C15.867 19.9402 15.8315 19.9006 15.7941 19.8631C15.7794 19.8484 15.764 19.8342 15.7473 19.82C15.4943 19.5612 15.3475 19.1969 15.3475 18.7974C15.3475 17.9985 15.966 17.3914 16.7469 17.3914Z"
    fill="#21C580" />
</svg>