<svg width="34" height="33" viewBox="0 0 34 33" fill="none" xmlns="http://www.w3.org/2000/svg">
  <path
    d="M26.501 12.3597L17.4362 11.8081C16.7902 11.7644 16.1803 11.4826 15.7156 11.0133C15.251 10.5441 14.962 9.91789 14.9004 9.24699L14.1056 0.51946C14.0806 0.373824 14.0071 0.241959 13.8981 0.147C13.7892 0.0520411 13.6516 0 13.5095 0C13.3674 0 13.2298 0.0520411 13.1208 0.147C13.0118 0.241959 12.9384 0.373824 12.9134 0.51946L12.0996 9.24699C12.0456 9.92085 11.759 10.5515 11.2928 11.0224C10.8266 11.4932 10.2124 11.7723 9.56376 11.8081L0.498982 12.3992C0.359087 12.4252 0.23242 12.5016 0.141205 12.6151C0.0499895 12.7285 0 12.8718 0 13.0198C0 13.1677 0.0499895 13.3109 0.141205 13.4244C0.23242 13.5378 0.359087 13.6142 0.498982 13.6403L9.56376 14.1919C10.2085 14.2395 10.8164 14.5226 11.2803 14.9911C11.7442 15.4597 12.0344 16.0836 12.0996 16.7531L12.8944 25.4806C12.9194 25.6262 12.9929 25.7581 13.1019 25.8531C13.2108 25.948 13.3484 26 13.4905 26C13.6326 26 13.7702 25.948 13.8792 25.8531C13.9882 25.7581 14.0616 25.6262 14.0866 25.4806L14.8815 16.7531C14.9431 16.0822 15.232 15.456 15.6967 14.9867C16.1613 14.5174 16.7713 14.2356 17.4174 14.1919L26.501 13.6009C26.6409 13.5748 26.7676 13.4984 26.8588 13.3849C26.95 13.2715 27 13.1283 27 12.9803C27 12.8324 26.95 12.6891 26.8588 12.5757C26.7676 12.4622 26.6409 12.3858 26.501 12.3597Z"
    fill="#B57017" />
  <path
    d="M33.7597 26.7045L29.3952 26.4499C29.0842 26.4297 28.7905 26.2997 28.5668 26.0831C28.3431 25.8665 28.2039 25.5775 28.1743 25.2678L27.7916 21.2398C27.7795 21.1725 27.7442 21.1117 27.6917 21.0678C27.6392 21.024 27.573 21 27.5046 21C27.4361 21 27.3699 21.024 27.3174 21.0678C27.2649 21.1117 27.2296 21.1725 27.2175 21.2398L26.8257 25.2678C26.7997 25.5789 26.6617 25.8699 26.4373 26.0872C26.2128 26.3046 25.9171 26.4334 25.6048 26.4499L21.2403 26.7227C21.1729 26.7347 21.1119 26.77 21.068 26.8223C21.0241 26.8747 21 26.9408 21 27.0091C21 27.0774 21.0241 27.1435 21.068 27.1959C21.1119 27.2482 21.1729 27.2835 21.2403 27.2955L25.6048 27.5501C25.9152 27.5721 26.2079 27.7027 26.4312 27.919C26.6546 28.1352 26.7943 28.4232 26.8257 28.7322L27.2084 32.7603C27.2205 32.8275 27.2558 32.8884 27.3083 32.9322C27.3608 32.976 27.427 33 27.4954 33C27.5639 33 27.6301 32.976 27.6826 32.9322C27.7351 32.8884 27.7704 32.8275 27.7825 32.7603L28.1652 28.7322C28.1948 28.4225 28.3339 28.1335 28.5577 27.9169C28.7814 27.7004 29.0751 27.5703 29.3861 27.5501L33.7597 27.2773C33.8271 27.2653 33.8881 27.23 33.932 27.1777C33.9759 27.1253 34 27.0592 34 26.9909C34 26.9226 33.9759 26.8565 33.932 26.8042C33.8881 26.7518 33.8271 26.7165 33.7597 26.7045Z"
    fill="#B57017" />
</svg>