<svg width="64" height="64" viewBox="0 0 64 64" fill="none" xmlns="http://www.w3.org/2000/svg">
  <path
    d="M31.8828 2.00196C30.8427 2.03245 29.8555 2.46703 29.1305 3.21347C28.4056 3.95992 28.0001 4.95948 28 6.00001C28.0043 6.70432 28.1965 7.39472 28.5566 8.00001H28C26.6744 8.0016 25.4036 8.52889 24.4662 9.46623C23.5289 10.4036 23.0016 11.6744 23 13V15.9297L21.8086 14.7363C21.6202 14.5533 21.3673 14.4518 21.1046 14.4537C20.8419 14.4556 20.5905 14.5608 20.4048 14.7466C20.219 14.9323 20.1138 15.1837 20.1119 15.4464C20.11 15.7091 20.2115 15.962 20.3945 16.1504L23 18.7578V18.7813C21.3434 19.9126 19.9126 21.3434 18.7812 23H18.7578L16.1504 20.3945C15.962 20.2115 15.7091 20.11 15.4464 20.1119C15.1837 20.1138 14.9323 20.219 14.7466 20.4048C14.5608 20.5905 14.4556 20.8419 14.4537 21.1046C14.4518 21.3673 14.5533 21.6202 14.7363 21.8086L15.9297 23H13.0996L12.6133 22.5137C12.0528 21.9493 11.7382 21.1861 11.7382 20.3906C11.7382 19.5952 12.0528 18.832 12.6133 18.2676L15.4238 15.457L15.4395 15.4434L15.4531 15.4277L18.2617 12.6191C18.8262 12.0558 19.5912 11.7397 20.3887 11.7402C20.6538 11.7401 20.908 11.6346 21.0954 11.4471C21.2828 11.2596 21.388 11.0054 21.388 10.7402C21.388 10.4751 21.2828 10.2209 21.0954 10.0334C20.908 9.84584 20.6538 9.74041 20.3887 9.74024C19.7324 9.73903 19.0824 9.86727 18.4758 10.1176C17.8692 10.368 17.3179 10.7355 16.8535 11.1992L16.4668 11.5879C16.2919 10.9073 15.9386 10.2857 15.4434 9.78712C14.6818 9.05915 13.6688 8.65289 12.6152 8.65289C11.5617 8.65289 10.5487 9.05915 9.78711 9.78712C9.28689 10.2814 8.92667 10.8994 8.74314 11.5782C8.55962 12.257 8.55937 12.9724 8.74241 13.6513C8.92545 14.3303 9.28524 14.9486 9.7851 15.4432C10.285 15.9378 10.907 16.291 11.5879 16.4668L11.1973 16.8535C10.3337 17.7262 9.82143 18.8861 9.75804 20.1122C9.69465 21.3383 10.0846 22.5449 10.8535 23.502C10.0019 23.906 9.28193 24.5428 8.77697 25.3388C8.27201 26.1347 8.00264 27.0574 8 28V28.5566C7.39472 28.1965 6.70431 28.0043 6 28C4.93913 28 3.92172 28.4214 3.17157 29.1716C2.42143 29.9217 2 30.9391 2 32C2 33.0609 2.42143 34.0783 3.17157 34.8284C3.92172 35.5786 4.93913 36 6 36C6.70431 35.9957 7.39472 35.8035 8 35.4434V36C8.00245 36.9432 8.27194 37.8664 8.77728 38.6628C9.28261 39.4591 10.0031 40.0961 10.8555 40.5C10.087 41.4576 9.69778 42.6644 9.76189 43.8905C9.82601 45.1166 10.339 46.2762 11.2031 47.1484L11.6133 47.5606C10.9242 47.7196 10.2923 48.0656 9.78711 48.5606C9.34832 48.993 9.01538 49.5211 8.81423 50.1034C8.61308 50.6857 8.54917 51.3067 8.62749 51.9178C8.7058 52.5289 8.92422 53.1136 9.26572 53.6264C9.60721 54.1392 10.0625 54.5662 10.5962 54.8741C11.1299 55.182 11.7274 55.3624 12.3423 55.4013C12.9572 55.4403 13.5727 55.3366 14.141 55.0985C14.7092 54.8604 15.2147 54.4942 15.6182 54.0286C16.0216 53.563 16.312 53.0104 16.4668 52.4141L16.8535 52.8047C17.7973 53.7393 19.0722 54.263 20.4004 54.2617C20.5204 54.2617 20.6398 54.2551 20.7598 54.2461C21.0238 54.2271 21.2695 54.1041 21.4431 53.9042C21.6166 53.7043 21.7038 53.4438 21.6855 53.1797C21.6776 53.0481 21.6434 52.9194 21.585 52.8012C21.5265 52.683 21.4451 52.5777 21.3454 52.4914C21.2456 52.4052 21.1297 52.3397 21.0043 52.2989C20.8789 52.2581 20.7466 52.2428 20.6152 52.2539C20.1851 52.2839 19.7535 52.2217 19.3493 52.0715C18.9451 51.9213 18.5776 51.6865 18.2715 51.3828L15.4609 48.5723L15.4473 48.5566L15.4316 48.5449L12.623 45.7344C12.0622 45.1697 11.7474 44.4062 11.7474 43.6104C11.7474 42.8145 12.0622 42.051 12.623 41.4863L13.0996 41H15.9258L14.7324 42.1914C14.6373 42.2838 14.5616 42.3941 14.5095 42.516C14.4574 42.6379 14.4301 42.7689 14.4291 42.9015C14.4282 43.034 14.4536 43.1654 14.5038 43.2881C14.5541 43.4107 14.6283 43.5222 14.722 43.6159C14.8157 43.7096 14.9272 43.7838 15.0498 43.8341C15.1725 43.8843 15.3039 43.9097 15.4364 43.9088C15.569 43.9078 15.7 43.8805 15.8219 43.8284C15.9438 43.7763 16.0541 43.7006 16.1465 43.6055L18.7578 41H18.7812C19.9126 42.6566 21.3434 44.0874 23 45.2188V45.2422L20.3945 47.8496C20.2994 47.942 20.2237 48.0523 20.1716 48.1742C20.1195 48.2961 20.0922 48.4271 20.0913 48.5597C20.0903 48.6922 20.1157 48.8236 20.166 48.9463C20.2163 49.0689 20.2904 49.1803 20.3841 49.2741C20.4779 49.3678 20.5893 49.442 20.7119 49.4922C20.8346 49.5425 20.966 49.5679 21.0985 49.5669C21.2311 49.566 21.3621 49.5387 21.484 49.4866C21.6059 49.4345 21.7162 49.3588 21.8086 49.2637L23 48.0703V51C23.0016 52.3256 23.5289 53.5964 24.4662 54.5338C25.4036 55.4711 26.6744 55.9984 28 56H28.5566C28.1965 56.6053 28.0043 57.2957 28 58C28 59.0609 28.4214 60.0783 29.1716 60.8284C29.9217 61.5786 30.9391 62 32 62C33.0609 62 34.0783 61.5786 34.8284 60.8284C35.5786 60.0783 36 59.0609 36 58C35.9957 57.2957 35.8035 56.6053 35.4434 56H36C36.9432 55.9976 37.8664 55.7281 38.6628 55.2227C39.4591 54.7174 40.0961 53.9969 40.5 53.1445C41.4546 53.92 42.6629 54.3137 43.8911 54.2494C45.1193 54.1852 46.2799 53.6676 47.1484 52.7969L47.5352 52.4102C47.6929 53.0024 47.9849 53.5503 48.3884 54.0116C48.7919 54.4728 49.2962 54.835 49.8622 55.07C50.4282 55.3051 51.0407 55.4067 51.6523 55.367C52.2639 55.3273 52.8581 55.1473 53.3889 54.8411C53.9198 54.5348 54.373 54.1105 54.7136 53.6009C55.0541 53.0914 55.2727 52.5103 55.3526 51.9027C55.4324 51.295 55.3713 50.6772 55.174 50.0969C54.9768 49.5167 54.6485 48.9897 54.2148 48.5566C53.7097 48.0617 53.0778 47.7156 52.3887 47.5566L52.8008 47.1445C53.6646 46.2721 54.1773 45.1123 54.241 43.8862C54.3048 42.6601 53.9152 41.4534 53.1465 40.4961C53.9978 40.0922 54.7176 39.4557 55.2225 38.6601C55.7274 37.8645 55.997 36.9423 56 36V35.4434C56.6053 35.8035 57.2957 35.9957 58 36C59.0609 36 60.0783 35.5786 60.8284 34.8284C61.5786 34.0783 62 33.0609 62 32C62 30.9391 61.5786 29.9217 60.8284 29.1716C60.0783 28.4214 59.0609 28 58 28C57.2957 28.0043 56.6053 28.1965 56 28.5566V28C55.9976 27.0568 55.7281 26.1336 55.2227 25.3373C54.7174 24.5409 53.9969 23.9039 53.1445 23.5C53.913 22.5424 54.3022 21.3356 54.2381 20.1095C54.174 18.8834 53.661 17.7238 52.7969 16.8516L52.4102 16.4649C53.0893 16.2866 53.7092 15.9321 54.2073 15.4373C54.7054 14.9425 55.064 14.3249 55.2468 13.647C55.4295 12.9691 55.43 12.2549 55.2481 11.5768C55.0662 10.8987 54.7084 10.2806 54.2109 9.78516C53.4493 9.0572 52.4364 8.65094 51.3828 8.65094C50.3293 8.65094 49.3163 9.0572 48.5547 9.78516C48.0594 10.2837 47.7061 10.9053 47.5312 11.5859L47.1426 11.1953C46.2699 10.3318 45.11 9.81949 43.8839 9.75609C42.6578 9.6927 41.4512 10.0826 40.4941 10.8516C40.0901 10.0009 39.4538 9.28175 38.6586 8.77719C37.8634 8.27263 36.9418 8.00321 36 8.00001H35.4434C35.8035 7.39472 35.9957 6.70432 36 6.00001C36 5.46488 35.8926 4.93519 35.6841 4.44232C35.4757 3.94944 35.1705 3.5034 34.7866 3.1306C34.4027 2.7578 33.9479 2.46583 33.4491 2.27196C32.9503 2.0781 32.4177 1.98628 31.8828 2.00196ZM32.0586 4.00001C32.589 4.00778 33.0946 4.22594 33.4642 4.60651C33.8338 4.98708 34.0371 5.49887 34.0293 6.0293C34.0215 6.55974 33.8034 7.06536 33.4228 7.43494C33.0422 7.80452 32.5304 8.00778 32 8.00001C31.4696 8.00001 30.9609 7.78929 30.5858 7.41422C30.2107 7.03915 30 6.53044 30 6.00001C29.9999 5.73236 30.0535 5.46741 30.1576 5.22086C30.2618 4.97431 30.4144 4.75117 30.6063 4.56467C30.7983 4.37816 31.0258 4.23209 31.2752 4.1351C31.5247 4.0381 31.7911 3.99217 32.0586 4.00001ZM28 10H36C36.7957 10 37.5587 10.3161 38.1213 10.8787C38.6839 11.4413 39 12.2044 39 13V17.6348C38.3529 17.3148 37.6847 17.0394 37 16.8106V14C37 13.7348 36.8946 13.4804 36.7071 13.2929C36.5196 13.1054 36.2652 13 36 13C35.7348 13 35.4804 13.1054 35.2929 13.2929C35.1054 13.4804 35 13.7348 35 14V16.293C33.0189 15.9036 30.9811 15.9036 29 16.293V14C29 13.7348 28.8946 13.4804 28.7071 13.2929C28.5196 13.1054 28.2652 13 28 13C27.7348 13 27.4804 13.1054 27.2929 13.2929C27.1054 13.4804 27 13.7348 27 14V16.8106C26.3153 17.0394 25.6471 17.3148 25 17.6348V13C25 12.2044 25.3161 11.4413 25.8787 10.8787C26.4413 10.3161 27.2044 10 28 10ZM12.6992 10.6152C13.0856 10.6315 13.4589 10.7595 13.7741 10.9836C14.0892 11.2078 14.3326 11.5184 14.4748 11.8781C14.617 12.2377 14.6519 12.6308 14.5752 13.0098C14.4986 13.3889 14.3137 13.7376 14.043 14.0137L14.0137 14.043C13.6319 14.4012 13.1273 14.5995 12.6037 14.5969C12.0802 14.5944 11.5775 14.3913 11.1992 14.0293C10.9137 13.7445 10.721 13.3801 10.6463 12.9839C10.5716 12.5876 10.6184 12.178 10.7806 11.8088C10.9428 11.4397 11.2128 11.1281 11.5552 10.9151C11.8976 10.7021 12.2964 10.5976 12.6992 10.6152ZM51.4434 10.6172C51.8337 10.6285 52.2121 10.7539 52.532 10.9777C52.8519 11.2016 53.0993 11.5142 53.2437 11.8771C53.388 12.2399 53.423 12.637 53.3443 13.0195C53.2656 13.4019 53.0766 13.753 52.8008 14.0293C52.4225 14.3913 51.9198 14.5944 51.3963 14.5969C50.8727 14.5995 50.3681 14.4012 49.9863 14.043L49.957 14.0137C49.5896 13.6411 49.3839 13.1386 49.3848 12.6152C49.3849 12.3478 49.4387 12.083 49.543 11.8367C49.6473 11.5904 49.7999 11.3675 49.9918 11.1812C50.1838 10.9949 50.4111 10.849 50.6604 10.7521C50.9098 10.6552 51.176 10.6094 51.4434 10.6172ZM43.6641 11.7402C44.4408 11.7549 45.1819 12.0691 45.7324 12.6172L48.543 15.4258L48.5566 15.4414L48.5723 15.4551L51.3809 18.2637C51.9417 18.8283 52.2565 19.5919 52.2565 20.3877C52.2565 21.1835 51.9417 21.9471 51.3809 22.5117L50.9004 23H48.0703L49.2637 21.8086C49.4467 21.6202 49.5482 21.3673 49.5463 21.1046C49.5444 20.8419 49.4392 20.5905 49.2534 20.4048C49.0677 20.219 48.8163 20.1138 48.5536 20.1119C48.2909 20.11 48.038 20.2115 47.8496 20.3945L45.2422 23H45.2188C44.0874 21.3434 42.6566 19.9126 41 18.7813V18.7578L43.6055 16.1504C43.7885 15.962 43.89 15.7091 43.8881 15.4464C43.8862 15.1837 43.781 14.9323 43.5952 14.7466C43.4095 14.5608 43.1581 14.4556 42.8954 14.4537C42.6327 14.4518 42.3798 14.5533 42.1914 14.7363L41 15.9297V13.0996L41.4863 12.6133C41.7725 12.3295 42.1126 12.106 42.4867 11.956C42.8608 11.806 43.2611 11.7327 43.6641 11.7402ZM31.3438 17.9395C33.9825 17.8228 36.6007 18.453 38.8973 19.7578C41.194 21.0625 43.0759 22.9887 44.3268 25.3151C45.5777 27.6414 46.1468 30.2736 45.9688 32.9089C45.7907 35.5443 44.8728 38.0759 43.3203 40.2129C43.1718 40.4277 43.1132 40.692 43.157 40.9494C43.2008 41.2068 43.3436 41.4369 43.5548 41.5905C43.766 41.744 44.0288 41.8089 44.2872 41.7712C44.5456 41.7335 44.779 41.5962 44.9375 41.3887C45.0305 41.2617 45.1093 41.129 45.1973 41H45.2422L47.8496 43.6055C48.038 43.7885 48.2909 43.89 48.5536 43.8881C48.8163 43.8862 49.0677 43.781 49.2534 43.5952C49.4392 43.4095 49.5444 43.1581 49.5463 42.8954C49.5482 42.6327 49.4467 42.3799 49.2637 42.1914L48.0703 41H50.9004L51.3867 41.4863C51.9472 42.0508 52.2618 42.8139 52.2618 43.6094C52.2618 44.4048 51.9472 45.168 51.3867 45.7324L48.5762 48.5449L48.5605 48.5566L48.5469 48.5723L45.7344 51.3809C45.1696 51.9415 44.4061 52.2561 43.6104 52.2561C42.8146 52.2561 42.0511 51.9415 41.4863 51.3809L41 50.9004V48.0703L42.1914 49.2637C42.3798 49.4467 42.6327 49.5482 42.8954 49.5463C43.1581 49.5444 43.4095 49.4392 43.5952 49.2534C43.781 49.0677 43.8862 48.8163 43.8881 48.5536C43.89 48.2909 43.7885 48.0381 43.6055 47.8496L41 45.2422V45.2168C41.339 44.9848 41.673 44.7415 42 44.4805C42.1092 44.4008 42.2011 44.2998 42.2701 44.1836C42.3392 44.0675 42.384 43.9385 42.4018 43.8045C42.4196 43.6705 42.4101 43.5344 42.3738 43.4042C42.3375 43.274 42.2752 43.1525 42.1906 43.0471C42.106 42.9416 42.001 42.8544 41.8818 42.7907C41.7626 42.727 41.6317 42.6882 41.4971 42.6765C41.3624 42.6648 41.2268 42.6805 41.0984 42.7227C40.97 42.7648 40.8515 42.8326 40.75 42.9219C38.2739 44.9233 35.1838 46.0103 32 46C28.3265 46.0114 24.7949 44.5822 22.1632 42.0192C19.5315 39.4563 18.0094 35.9638 17.9235 32.2913C17.8376 28.6188 19.1948 25.0589 21.7038 22.3757C24.2128 19.6925 27.6737 18.0999 31.3438 17.9395ZM13 25H17.6348C17.3148 25.6471 17.0394 26.3153 16.8105 27H14C13.7348 27 13.4804 27.1054 13.2929 27.2929C13.1054 27.4804 13 27.7348 13 28C13 28.2652 13.1054 28.5196 13.2929 28.7071C13.4804 28.8947 13.7348 29 14 29H16.293C15.9036 30.9811 15.9036 33.019 16.293 35H14C13.7348 35 13.4804 35.1054 13.2929 35.2929C13.1054 35.4804 13 35.7348 13 36C13 36.2652 13.1054 36.5196 13.2929 36.7071C13.4804 36.8947 13.7348 37 14 37H16.8105C17.0394 37.6847 17.3148 38.3529 17.6348 39H13C12.2044 39 11.4413 38.6839 10.8787 38.1213C10.3161 37.5587 10 36.7957 10 36V28C10 27.2044 10.3161 26.4413 10.8787 25.8787C11.4413 25.3161 12.2044 25 13 25ZM46.3652 25H51C51.7957 25 52.5587 25.3161 53.1213 25.8787C53.6839 26.4413 54 27.2044 54 28V36C54 36.7957 53.6839 37.5587 53.1213 38.1213C52.5587 38.6839 51.7957 39 51 39H46.3691C46.6895 38.3531 46.9649 37.6848 47.1934 37H50C50.2652 37 50.5196 36.8947 50.7071 36.7071C50.8946 36.5196 51 36.2652 51 36C51 35.7348 50.8946 35.4804 50.7071 35.2929C50.5196 35.1054 50.2652 35 50 35H47.6992C48.0905 33.0191 48.0905 30.9809 47.6992 29H50C50.2652 29 50.5196 28.8947 50.7071 28.7071C50.8946 28.5196 51 28.2652 51 28C51 27.7348 50.8946 27.4804 50.7071 27.2929C50.5196 27.1054 50.2652 27 50 27H47.1895C46.9606 26.3153 46.6852 25.6471 46.3652 25ZM5.91602 30.002C6.18548 29.9906 6.45444 30.0339 6.70674 30.1292C6.95904 30.2245 7.18946 30.3699 7.38413 30.5565C7.57881 30.7432 7.73373 30.9673 7.83956 31.2153C7.9454 31.4634 7.99997 31.7303 8 32C8 32.5304 7.78929 33.0392 7.41421 33.4142C7.03914 33.7893 6.53043 34 6 34C5.47758 33.9989 4.97634 33.7934 4.60347 33.4275C4.23059 33.0616 4.01569 32.5643 4.00472 32.042C3.99375 31.5197 4.18758 31.0138 4.54475 30.6326C4.90193 30.2514 5.39411 30.025 5.91602 30.002ZM57.916 30.002C58.1855 29.9906 58.4544 30.0339 58.7067 30.1292C58.959 30.2245 59.1895 30.3699 59.3841 30.5565C59.5788 30.7432 59.7337 30.9673 59.8396 31.2153C59.9454 31.4634 60 31.7303 60 32C60 32.5304 59.7893 33.0392 59.4142 33.4142C59.0391 33.7893 58.5304 34 58 34C57.4776 33.9989 56.9763 33.7934 56.6035 33.4275C56.2306 33.0616 56.0157 32.5643 56.0047 32.042C55.9937 31.5197 56.1876 31.0138 56.5448 30.6326C56.9019 30.2514 57.3941 30.025 57.916 30.002ZM25 46.3652C25.6471 46.6852 26.3153 46.9606 27 47.1895V50C27 50.2652 27.1054 50.5196 27.2929 50.7071C27.4804 50.8947 27.7348 51 28 51C28.2652 51 28.5196 50.8947 28.7071 50.7071C28.8946 50.5196 29 50.2652 29 50V47.707C29.9885 47.8992 30.993 47.9973 32 48C33.0068 47.9975 34.0112 47.9007 35 47.7109V50C35 50.2652 35.1054 50.5196 35.2929 50.7071C35.4804 50.8947 35.7348 51 36 51C36.2652 51 36.5196 50.8947 36.7071 50.7071C36.8946 50.5196 37 50.2652 37 50V47.1992C37.6847 46.9727 38.3529 46.6993 39 46.3809V51C39 51.7957 38.6839 52.5587 38.1213 53.1213C37.5587 53.6839 36.7957 54 36 54H28C27.2044 54 26.4413 53.6839 25.8787 53.1213C25.3161 52.5587 25 51.7957 25 51V46.3652ZM51.3848 49.3809C51.7817 49.3794 52.17 49.496 52.5004 49.7159C52.8308 49.9358 53.0883 50.249 53.2402 50.6157C53.392 50.9825 53.4313 51.386 53.3531 51.7751C53.2748 52.1643 53.0826 52.5213 52.8008 52.8008C52.4199 53.1647 51.9135 53.3677 51.3867 53.3677C50.86 53.3677 50.3535 53.1647 49.9727 52.8008C49.6003 52.4284 49.3899 51.9243 49.387 51.3978C49.384 50.8712 49.5889 50.3647 49.957 49.9883L49.9883 49.957C50.3604 49.59 50.8621 49.3844 51.3848 49.3848V49.3809ZM12.6055 49.4297C13.124 49.4161 13.6275 49.6045 14.0098 49.9551L14.0449 49.9902C14.411 50.362 14.6159 50.863 14.6152 51.3848C14.616 51.6475 14.5645 51.9078 14.464 52.1505C14.3634 52.3932 14.2156 52.6136 14.0293 52.7988C13.6484 53.1627 13.142 53.3658 12.6152 53.3658C12.0885 53.3658 11.582 53.1627 11.2012 52.7988C10.9369 52.5177 10.7596 52.1662 10.6906 51.7866C10.6217 51.4071 10.6639 51.0156 10.8123 50.6595C10.9608 50.3034 11.209 49.9979 11.5272 49.7797C11.8453 49.5614 12.2198 49.4399 12.6055 49.4297ZM31.9746 56C31.9831 56 31.9915 56 32 56C32.5304 56 33.0391 56.2107 33.4142 56.5858C33.7893 56.9609 34 57.4696 34 58C34 58.3945 33.8833 58.7801 33.6646 59.1085C33.446 59.4368 33.1351 59.6931 32.7711 59.8452C32.4071 59.9973 32.0063 60.0384 31.6191 59.9632C31.2318 59.8881 30.8754 59.7001 30.5947 59.423C30.314 59.1458 30.1216 58.7918 30.0416 58.4055C29.9616 58.0192 29.9976 57.6179 30.1451 57.2521C30.2925 56.8862 30.5449 56.5721 30.8705 56.3493C31.196 56.1266 31.5802 56.005 31.9746 56Z"
    fill="#11A165" />
  <path d="M26 31L31 36C34.1242 32.8758 35.8758 31.1242 39 28" stroke="#11A165" stroke-width="2" stroke-linecap="round"
    stroke-linejoin="round" />
</svg>