<svg width="41" height="30" viewBox="0 0 41 30" fill="none" xmlns="http://www.w3.org/2000/svg">
  <path fill-rule="evenodd" clip-rule="evenodd"
    d="M25.7071 1.70711C25.3166 1.31658 25.3166 0.683417 25.7071 0.292893C26.0976 -0.0976311 26.7308 -0.0976311 27.1213 0.292893L40.5564 13.7279C40.5884 13.7599 40.6177 13.7936 40.6445 13.8286C40.8622 14.0119 41 14.2832 41 14.5858C41 14.782 40.9421 14.9651 40.842 15.1195C40.8163 15.3343 40.721 15.5423 40.5562 15.7071L27.1212 29.1421C26.7306 29.5327 26.0975 29.5327 25.707 29.1421C25.3164 28.7516 25.3164 28.1184 25.707 27.7279L37.8491 15.5858L1.025 15.5858C0.45891 15.5858 0 15.1381 0 14.5858C0 14.0335 0.45891 13.5858 1.025 13.5858L37.5858 13.5858L25.7071 1.70711Z"
    fill="#002825" />
</svg>