<svg width="222" height="248" viewBox="0 0 222 248" fill="none" xmlns="http://www.w3.org/2000/svg">
  <path
    d="M57.1671 188.366C60.0184 190.547 63.1429 192.348 66.4607 193.722L69.8685 187.83C66.5507 186.455 63.4262 184.655 60.5749 182.474L57.1671 188.366Z"
    fill="#B6792B" />
  <path
    d="M125.914 186.68L125.914 186.68L129.327 180.769C98.296 188.997 82.7808 193.111 69.875 187.756L66.4624 193.667C79.3681 199.023 94.8833 194.908 125.914 186.68Z"
    fill="#B6792B" />
  <path
    d="M57.1818 188.399C46.1414 179.939 41.9658 164.516 33.6145 133.671L37.0115 127.787C45.3628 158.632 49.5385 174.055 60.5788 182.515L57.1818 188.399Z"
    fill="#B6792B" />
  <path
    d="M125.941 186.62L125.941 186.62L129.354 180.708L129.354 180.708C160.385 172.48 175.9 168.366 184.371 157.341L180.958 163.252C172.487 174.277 156.972 178.391 125.941 186.62Z"
    fill="#B6792B" />
  <path
    d="M26.435 74.6398C21.1478 87.4293 25.3235 102.852 33.6747 133.698L37.0718 127.814C28.7205 96.968 24.5448 81.5452 29.8321 68.7557L26.435 74.6398Z"
    fill="#B6792B" />
  <path
    d="M26.4883 74.6476C27.2047 72.9175 28.0393 71.241 28.9853 69.6295L32.1284 64.1948C32.2155 64.0418 32.3037 63.8894 32.3928 63.7376L32.1284 64.1948C31.2906 65.6655 30.5447 67.1886 29.8958 68.7556L26.4883 74.6476Z"
    fill="#B6792B" />
  <path
    d="M184.096 158.565C183.171 160.189 182.133 161.749 180.991 163.234L184.399 157.341C185.434 155.996 186.382 154.589 187.239 153.129L187.504 152.672C187.417 152.825 187.329 152.978 187.239 153.129L184.096 158.565Z"
    fill="#B6792B" />
  <path
    d="M28.9991 69.6311C29.8562 68.1712 30.8047 66.7646 31.8398 65.4198L35.2479 59.5268C34.2128 60.8716 33.2643 62.2782 32.4072 63.7382L28.9991 69.6311Z"
    fill="#B6792B" />
  <path
    d="M184.11 158.566C184.948 157.095 185.694 155.572 186.343 154.005L189.75 148.113C189.101 149.68 188.355 151.203 187.518 152.674L184.11 158.566Z"
    fill="#B6792B" />
  <path
    d="M31.8668 65.4184C40.3377 54.3941 55.8529 50.2798 86.8835 42.0512L90.2961 36.1401C59.2656 44.3687 43.7504 48.483 35.2795 59.5073L31.8668 65.4184Z"
    fill="#B6792B" />
  <path
    d="M179.166 94.9475L179.166 94.9474L182.563 89.0634L182.563 89.0634C190.914 119.909 195.09 135.332 189.802 148.121L186.405 154.005C191.693 141.216 187.517 125.793 179.166 94.9475Z"
    fill="#B6792B" />
  <path
    d="M146.363 35.0039C133.457 29.6482 117.942 33.7625 86.9111 41.9911L90.3238 36.08C121.354 27.8514 136.87 23.7371 149.775 29.0928L146.363 35.0039Z"
    fill="#B6792B" />
  <path
    d="M155.659 40.2461C166.699 48.7058 170.875 64.1286 179.226 94.9741L182.623 89.0901L182.623 89.09C174.272 58.2445 170.096 42.8217 159.056 34.362L155.659 40.2461Z"
    fill="#B6792B" />
  <path
    d="M155.663 40.2867C152.812 38.1056 149.687 36.3049 146.369 34.9304L149.777 29.038C153.095 30.4125 156.22 32.2132 159.071 34.3942L155.663 40.2867Z"
    fill="#B6792B" />
  <rect width="150.32" height="150.094" rx="72" transform="matrix(0.966707 -0.255906 0.261763 0.965138 14.104 61.1299)"
    fill="#B6792B" />
  <path
    d="M37.128 127.713C28.77 96.8433 24.591 81.4083 29.907 68.6022C30.6251 66.8723 31.4614 65.1957 32.4092 63.5841C33.2676 62.1243 34.2176 60.7177 35.254 59.3728C43.7248 48.3818 59.2278 44.2707 90.2337 36.0486C121.24 27.8265 136.743 23.7155 149.631 29.0424C152.95 30.4138 156.074 32.2115 158.925 34.3894C169.999 42.8493 174.178 58.2843 182.536 89.1543C190.894 120.024 195.073 135.459 189.757 148.265C189.106 149.832 188.359 151.355 187.52 152.826C186.593 154.45 185.554 156.01 184.41 157.495C175.939 168.486 160.436 172.597 129.43 180.819C98.4242 189.041 82.9212 193.152 70.0324 187.825C66.7142 186.454 63.5897 184.656 60.7388 182.478C49.665 174.018 45.486 158.583 37.128 127.713Z"
    fill="#F6E8D7" />
  <path
    d="M37.128 127.713C28.77 96.8433 24.591 81.4083 29.907 68.6022C30.6251 66.8723 31.4614 65.1957 32.4092 63.5841C33.2676 62.1243 34.2176 60.7177 35.254 59.3728C43.7248 48.3818 59.2278 44.2707 90.2337 36.0486C121.24 27.8265 136.743 23.7155 149.631 29.0424C152.95 30.4138 156.074 32.2115 158.925 34.3894C169.999 42.8493 174.178 58.2843 182.536 89.1543C190.894 120.024 195.073 135.459 189.757 148.265C189.106 149.832 188.359 151.355 187.52 152.826C186.593 154.45 185.554 156.01 184.41 157.495C175.939 168.486 160.436 172.597 129.43 180.819C98.4242 189.041 82.9212 193.152 70.0324 187.825C66.7142 186.454 63.5897 184.656 60.7388 182.478C49.665 174.018 45.486 158.583 37.128 127.713Z"
    fill="url(#paint0_linear_641_10091)" />
  <path
    d="M37.128 127.713C28.77 96.8433 24.591 81.4083 29.907 68.6022C30.6251 66.8723 31.4614 65.1957 32.4092 63.5841C33.2676 62.1243 34.2176 60.7177 35.254 59.3728C43.7248 48.3818 59.2278 44.2707 90.2337 36.0486C121.24 27.8265 136.743 23.7155 149.631 29.0424C152.95 30.4138 156.074 32.2115 158.925 34.3894C169.999 42.8493 174.178 58.2843 182.536 89.1543C190.894 120.024 195.073 135.459 189.757 148.265C189.106 149.832 188.359 151.355 187.52 152.826C186.593 154.45 185.554 156.01 184.41 157.495C175.939 168.486 160.436 172.597 129.43 180.819C98.4242 189.041 82.9212 193.152 70.0324 187.825C66.7142 186.454 63.5897 184.656 60.7388 182.478C49.665 174.018 45.486 158.583 37.128 127.713Z"
    fill="url(#paint1_linear_641_10091)" />
  <g opacity="0.8">
    <mask id="mask0_641_10091" style="mask-type:alpha" maskUnits="userSpaceOnUse" x="0" y="15" width="210" height="197">
      <path fill-rule="evenodd" clip-rule="evenodd"
        d="M95.3302 179.839C103.556 178.62 113.779 175.917 127.471 172.295C141.163 168.674 151.386 165.969 159.127 162.965C166.857 159.966 172.046 156.692 175.709 151.97C177.684 149.425 179.302 146.624 180.521 143.643C182.782 138.113 183.025 131.986 181.759 123.797C180.492 115.597 177.725 105.399 174.017 91.7414C170.31 78.0834 167.541 67.8858 164.485 60.1592C161.433 52.4431 158.118 47.2571 153.359 43.5835C150.794 41.6035 147.973 39.9766 144.975 38.7471C139.411 36.4658 133.258 36.1913 125.044 37.4088C116.819 38.628 106.595 41.3311 92.9034 44.9525C79.2114 48.5739 68.9884 51.2787 61.2475 54.2824C53.5172 57.2821 48.3283 60.5562 44.6652 65.2779C42.6909 67.8228 41.0725 70.6237 39.8539 73.6045C37.5929 79.135 37.3496 85.2619 38.615 93.4505C39.8822 101.65 42.6496 111.848 46.3571 125.506C50.0646 139.164 52.8336 149.362 55.8898 157.089C58.9418 164.805 62.256 169.991 67.0154 173.664C69.5807 175.644 72.401 177.271 75.3999 178.501C80.9639 180.782 87.1161 181.056 95.3302 179.839ZM39.3258 73.388C34.6946 84.716 38.3987 98.3613 45.8068 125.652C53.2149 152.942 56.919 166.588 66.6677 174.112C69.2737 176.124 72.1388 177.777 75.1853 179.026C86.5821 183.698 100.261 180.08 127.62 172.844C154.979 165.608 168.658 161.99 176.161 152.319C178.167 149.733 179.811 146.888 181.049 143.86C185.68 132.532 181.976 118.886 174.568 91.5959C167.16 64.3053 163.455 50.66 153.707 43.1353C151.101 41.1239 148.236 39.4712 145.189 38.2221C133.792 33.5495 120.113 37.1675 92.7544 44.4036C65.3958 51.6397 51.7165 55.2578 44.2135 64.9292C42.2078 67.5145 40.5637 70.3599 39.3258 73.388Z"
        fill="#B6792B" />
      <path fill-rule="evenodd" clip-rule="evenodd"
        d="M202.787 162.642L-4.59761e-05 46.3699L0.283691 45.8818L203.07 162.154L202.787 162.642Z" fill="#B6792B" />
      <path fill-rule="evenodd" clip-rule="evenodd"
        d="M159.441 23.9057L60.9369 193.345L60.4395 193.06L158.943 23.6205L159.441 23.9057Z" fill="#B6792B" />
      <path fill-rule="evenodd" clip-rule="evenodd"
        d="M44.1925 39.3079L90.746 211.828L90.2002 211.974L43.6467 39.4531L44.1925 39.3079Z" fill="#B6792B" />
      <path fill-rule="evenodd" clip-rule="evenodd"
        d="M88.3117 27.5677L134.865 200.088L134.319 200.233L87.7659 27.7129L88.3117 27.5677Z" fill="#B6792B" />
      <path fill-rule="evenodd" clip-rule="evenodd"
        d="M132.431 15.8274L178.984 188.348L178.438 188.493L131.885 15.9727L132.431 15.8274Z" fill="#B6792B" />
      <path fill-rule="evenodd" clip-rule="evenodd"
        d="M35.2777 174.925L208.995 128.704L209.144 129.258L35.427 175.478L35.2777 174.925Z" fill="#B6792B" />
      <path fill-rule="evenodd" clip-rule="evenodd"
        d="M23.6039 131.658L197.321 85.4378L197.47 85.9912L23.7532 132.212L23.6039 131.658Z" fill="#B6792B" />
      <path fill-rule="evenodd" clip-rule="evenodd"
        d="M11.7821 87.844L185.499 41.6234L185.648 42.1768L11.9314 88.3974L11.7821 87.844Z" fill="#B6792B" />
      <path fill-rule="evenodd" clip-rule="evenodd"
        d="M96.11 166.111C103.217 165.178 112.113 162.827 124.044 159.671C135.975 156.515 144.871 154.161 151.498 151.461C158.111 148.766 162.389 145.756 165.144 141.331C165.451 140.838 165.742 140.334 166.016 139.821C168.474 135.225 168.944 130.018 167.973 122.949C167 115.864 164.592 106.991 161.361 95.089C158.131 83.1874 155.721 74.3143 152.975 67.6988C150.235 61.0972 147.19 56.82 142.734 54.0526C142.237 53.7438 141.73 53.4513 141.213 53.1754C136.586 50.7033 131.357 50.2074 124.265 51.1376C117.158 52.0698 108.262 54.4215 96.3305 57.5773C84.3991 60.733 75.504 63.0868 68.8769 65.7872C62.2638 68.4818 57.9859 71.4924 55.231 75.9169C54.9236 76.4106 54.6326 76.9143 54.3584 77.4272C51.9009 82.0232 51.4305 87.2301 52.4016 94.2995C53.3748 101.384 55.7824 110.258 59.0131 122.159C62.2439 134.061 64.6536 142.934 67.3993 149.549C70.1393 156.151 73.1842 160.428 77.6405 163.196C78.1377 163.504 78.6449 163.797 79.1612 164.073C83.7882 166.545 89.018 167.041 96.11 166.111ZM53.8549 77.1582C48.7827 86.6443 52.0094 98.5311 58.4629 122.305C64.9163 146.078 68.143 157.965 77.3407 163.677C77.8486 163.992 78.3665 164.291 78.8938 164.573C88.4437 169.675 100.36 166.523 124.193 160.22C148.026 153.916 159.943 150.764 165.628 141.632C165.942 141.128 166.24 140.614 166.52 140.09C171.592 130.604 168.365 118.717 161.912 94.9435C155.458 71.1699 152.232 59.283 143.034 53.5712C142.526 53.2558 142.008 52.957 141.481 52.6753C131.931 47.573 120.014 50.7248 96.1815 57.0284C72.3485 63.3319 60.4321 66.4837 54.7461 75.6158C54.4322 76.12 54.135 76.6344 53.8549 77.1582Z"
        fill="#B6792B" />
    </mask>
    <g mask="url(#mask0_641_10091)">
      <path
        d="M37.1743 127.667C28.7966 96.7777 24.6077 81.333 29.9117 68.5253C30.6282 66.7951 31.4628 65.1185 32.4089 63.5069C33.2659 62.0471 34.2144 60.6406 35.2494 59.2959C43.7081 48.3064 59.2012 44.2051 90.1873 36.0025C121.173 27.7998 136.667 23.6985 149.554 29.0373C152.872 30.4117 155.996 32.2125 158.847 34.3935C169.923 42.8653 174.112 58.31 182.489 89.1994C190.867 120.089 195.056 135.534 189.752 148.341C189.103 149.908 188.357 151.432 187.519 152.902C186.594 154.526 185.557 156.086 184.414 157.571C175.956 168.56 160.463 172.661 129.476 180.864C98.4903 189.067 82.9972 193.168 70.11 187.829C66.7922 186.455 63.6677 184.654 60.8164 182.473C49.741 174.001 45.5521 158.557 37.1743 127.667Z"
        fill="#E3BB88" />
    </g>
  </g>
  <path
    d="M145.889 62.6006L145.892 62.5999L152.493 61.2562L146.088 63.3906L146.087 63.391C145.489 63.592 144.983 63.9992 144.66 64.5396C144.338 65.0801 144.219 65.7184 144.325 66.3403L144.325 66.3407L145.405 72.636L143.159 66.6497L143.158 66.6466C142.933 66.0585 142.508 65.5674 141.957 65.2601C141.406 64.9527 140.764 64.8488 140.146 64.9667L140.146 64.9666L140.14 64.9679L133.538 66.3116L139.927 64.1818C140.53 63.9865 141.041 63.5799 141.365 63.0369C141.689 62.4943 141.805 61.8522 141.692 61.229L140.626 54.9288L142.872 60.9181L142.872 60.9185C143.095 61.5096 143.52 62.0036 144.073 62.3118C144.625 62.6201 145.269 62.7224 145.889 62.6006Z"
    fill="#D08E39" stroke="#B6792B" />
  <mask id="path-31-inside-1_641_10091" fill="white">
    <path fill-rule="evenodd" clip-rule="evenodd"
      d="M144.756 88.5473L146.119 89.0539C147.313 89.4673 148.362 90.2176 149.14 91.2134C149.538 91.7819 149.809 92.4294 149.933 93.111C150.022 93.6448 150.08 94.1833 150.105 94.7236C150.144 95.7929 150.042 96.862 149.803 97.9038C149.672 98.439 149.498 98.9624 149.28 99.4684L149.18 99.7275L149.731 100.961C149.933 101.458 150.107 101.965 150.251 102.481C150.793 104.535 150.879 106.68 150.503 108.767C150.128 110.853 149.299 112.83 148.076 114.559L147.931 114.768L147.719 114.902C145.891 116.163 143.97 117.284 141.971 118.255C139.939 119.279 137.789 120.052 135.567 120.557L135.422 120.596L135.249 120.642C130.525 120.415 125.793 120.683 121.13 121.441C120.834 121.492 120.534 121.547 120.231 121.602C119.338 121.766 118.413 121.936 117.443 122.031C116.163 122.165 114.872 122.175 113.588 122.061C111.367 121.895 109.135 122.089 106.98 122.636L106.907 122.655C106.545 123.797 106.424 125.002 106.552 126.195C106.68 127.389 107.055 128.544 107.652 129.587C108.967 132.251 110.677 134.703 112.724 136.86C115.007 139.095 117.151 141.466 119.145 143.961C120.214 145.28 121.124 146.719 121.857 148.248C122.645 149.919 123.005 151.758 122.902 153.598L122.737 155.796L120.67 154.98C120.361 154.864 120.041 154.777 119.716 154.721C119.848 155.732 119.916 156.749 119.92 157.767C119.884 159.554 119.619 161.328 119.131 163.045C115.409 153.969 108.108 153.021 100.972 152.096C97.7771 151.681 94.6151 151.271 91.8225 150.137C82.7939 146.471 80.3967 140.023 81.8962 127.226C82.3466 123.293 82.3738 119.321 81.9773 115.378C81.8765 114.49 81.8087 113.609 81.7698 112.721C81.7537 112.599 81.7464 112.477 81.7481 112.355L81.7179 111.727C81.8379 112.103 81.9513 112.48 82.0644 112.855C82.338 113.763 82.6095 114.664 82.9659 115.535C83.3682 116.744 83.9401 117.892 84.6646 118.943C84.9844 119.387 85.3869 119.764 85.8498 120.055C85.9848 120.148 86.1258 120.222 86.2907 120.309C86.4049 120.37 86.5305 120.436 86.6735 120.519C86.9238 120.687 87.1868 120.834 87.4603 120.961C88.572 121.421 89.7482 121.705 90.9463 121.804C93.4749 121.997 96.0163 121.875 98.5116 121.44C100.931 121.093 103.347 120.561 105.749 119.924L106.111 119.828C108.608 119.185 111.195 118.949 113.772 119.13C116.07 119.282 118.376 119.089 120.613 118.556C125.408 117.766 130.274 117.478 135.134 117.696C137.057 117.24 138.92 116.564 140.685 115.682C141.946 115.068 143.166 114.357 144.363 113.622C146.939 111.621 147.964 107.784 144.144 109.262C143.232 109.573 142.343 109.948 141.485 110.386C140.809 110.704 140.176 111.15 139.498 111.627C138.894 112.053 138.253 112.503 137.515 112.911C136.012 113.713 134.327 114.117 132.62 114.085C131.082 113.88 129.522 113.922 128 114.21C128.587 113.627 129.302 113.188 130.088 112.927C130.647 112.717 131.169 112.6 131.67 112.488C131.914 112.433 132.153 112.38 132.39 112.317C133.792 112.129 135.151 111.706 136.41 111.065C137.033 110.694 137.62 110.14 138.255 109.543C138.765 109.063 139.304 108.555 139.917 108.089C141.254 107.054 142.779 106.287 144.409 105.828L145.393 105.567C146.106 103.674 146.598 101.652 145.83 100.306C145.223 99.8272 144.486 99.5419 143.716 99.4869C143.511 99.4712 143.122 99.473 142.616 99.4754C140.771 99.484 137.383 99.4999 135.837 98.6932C134.656 97.9989 134.694 95.9586 138.274 94.1721C139.937 93.4064 141.701 92.8811 143.514 92.612C144.145 92.5574 144.749 92.3384 145.266 91.977L144.998 91.8466L143.687 91.3574L142.345 90.8142L137.106 88.654C136.252 88.307 135.351 87.9571 134.534 87.6931L134.132 87.5827L133.374 87.4739C132.874 87.4049 132.367 87.3069 131.855 87.1945C130.27 86.8247 128.738 86.2514 127.298 85.4891C122.094 83.0563 115.021 75.7252 113.016 73.2498C111.438 71.3558 109.222 70.1016 106.787 69.7247C107.84 69.3818 108.958 69.2839 110.056 69.4385C111.155 69.5931 112.205 69.9962 113.125 70.6168C113.572 70.822 114.519 71.6259 115.663 72.5968C117.971 74.5565 121.082 77.1966 122.493 76.9675C123.224 76.744 123.927 76.4379 124.589 76.0553C123.727 75.5792 122.908 75.0287 122.142 74.4102C121.133 73.6274 120.284 72.7677 119.463 71.9366C119.181 71.6518 118.903 71.3703 118.623 71.0964C117.654 70.047 116.572 69.1071 115.398 68.2939C115.135 68.1325 114.862 67.9873 114.582 67.8592C114.293 67.7445 113.994 67.6577 113.689 67.5999C113.014 67.4536 112.335 67.3545 111.504 67.2648C110.673 67.1752 109.937 67.0915 109.05 66.9083L106.749 66.4334L102.164 65.5413C99.1431 64.9675 96.0905 64.5812 93.0236 64.3847C89.9915 64.2078 86.9507 64.3442 83.9497 64.7915C83.2336 64.883 82.5233 65.0144 81.8223 65.1851C81.2579 65.3187 80.7343 65.5851 80.2951 65.9621C80.061 66.1491 79.826 66.3674 79.5735 66.6019C79.2621 66.8912 78.9241 67.2052 78.5283 67.5156L76.767 68.9746C74.5062 70.9845 72.424 73.1858 70.5433 75.5539C68.9843 77.2926 67.7293 79.2809 66.8304 81.4363C68.8536 80.7989 70.9814 80.5502 73.1011 80.7034C70.4813 81.3543 67.983 82.4144 65.6983 83.8445C64.5754 84.5295 63.5012 85.2908 62.4834 86.123C61.4544 86.9162 60.4932 87.7932 59.6097 88.745C58.7223 89.6296 57.9486 90.621 57.306 91.6963C57.0467 92.1482 56.8866 92.6503 56.8361 93.1694C56.7349 93.7697 56.6638 94.424 56.6072 95.0745C56.4295 97.73 56.4359 100.395 56.6262 103.052C56.9413 108.358 57.9446 113.604 59.6107 118.659C60.9386 122.745 63.1156 126.51 65.9991 129.705C67.149 126.905 68.2399 124.058 69.2651 121.198C70.5576 117.492 71.7215 113.711 72.6603 109.96C73.1506 108 73.509 105.992 73.8713 103.961C74.2028 102.104 74.5374 100.228 74.9793 98.3554C75.4032 96.3652 76.0022 94.417 76.7694 92.5334C77.1652 91.5606 77.6828 90.6422 78.3098 89.7999C78.9189 88.9375 79.7859 88.29 80.7875 87.9495C78.3322 91.716 77.9135 100.197 77.7782 109.61C77.6598 117.252 75.1697 135.271 70.9331 136.813C69.267 137.364 68.4399 136.715 66.8356 135.374L65.5423 134.322C63.247 132.443 61.2769 130.2 59.7117 127.684C58.2299 125.205 57.0231 122.573 56.1127 119.834C55.2394 117.136 54.5604 114.379 54.0808 111.585C53.6482 108.806 53.3817 106.004 53.2829 103.194C53.1692 100.38 53.2511 97.5613 53.5279 94.7596C53.6161 94.0542 53.7044 93.3489 53.8466 92.6137C53.9224 92.2029 54.0251 91.7976 54.1543 91.4006C54.3065 90.9965 54.4911 90.6054 54.7064 90.2312C55.4909 88.9479 56.4556 87.784 57.5713 86.7746C59.4226 85.09 61.5179 83.6932 63.7873 82.6308C64.0545 80.9631 64.6053 79.3545 65.4161 77.8745C66.2097 76.4347 67.1264 75.0662 68.1561 73.7845C70.0246 71.236 72.1635 68.8968 74.5358 66.8074C75.1115 66.2982 75.8743 65.6775 76.3867 65.2781C76.6374 65.0827 76.8926 64.849 77.1713 64.5938C77.4623 64.3273 77.7789 64.0373 78.1429 63.7429C78.9023 63.1055 79.7956 62.6461 80.7575 62.3985C81.5687 62.1941 82.3916 62.038 83.2218 61.9311C86.4262 61.4566 89.6727 61.3124 92.9099 61.501C96.1007 61.6987 99.2766 62.099 102.418 62.6994L107.069 63.605L109.384 64.0761C109.903 64.2005 110.54 64.2713 111.217 64.3466C111.342 64.3605 111.468 64.3745 111.594 64.389C112.411 64.4825 113.188 64.6019 114.042 64.7783C114.507 64.8749 114.963 65.0079 115.407 65.176C115.845 65.3692 116.268 65.5936 116.674 65.8473C118.11 66.7488 119.439 67.811 120.634 69.0132C120.682 69.061 120.73 69.1087 120.777 69.1564C122.977 71.3564 125.021 73.4005 127.558 74.2449L129.59 74.9306L129.641 75.1186L129.394 76.0985L127.911 76.9256C127.634 77.0991 127.436 77.3741 127.359 77.6921C127.321 77.8504 127.318 78.0151 127.35 78.175C127.418 78.4925 127.503 78.8063 127.604 79.115C127.739 79.6047 127.798 80.1119 127.779 80.6187C127.774 80.8985 127.748 81.1421 127.727 81.349C127.711 81.4991 127.697 81.63 127.695 81.7414C127.679 81.8534 127.686 81.9675 127.716 82.0768C127.746 82.1862 127.797 82.2886 127.867 82.3777C129.315 83.249 130.895 83.8774 132.544 84.2375C132.961 84.344 133.384 84.4177 133.822 84.4876L134.478 84.5617C134.812 84.6174 135.141 84.7013 135.461 84.8124C136.365 85.096 137.128 85.4045 137.922 85.7253C138.022 85.7656 138.122 85.8062 138.223 85.8469L143.466 88.0215L144.756 88.5473ZM104.598 89.3698C104.237 89.5039 103.863 89.6028 103.483 89.6653C100.954 90.1809 99.2765 88.7969 99.2081 86.9396C99.1396 85.0823 98.7369 84.5691 98.2448 84.6996C97.5538 85.1685 97.0358 85.85 96.7691 86.6409L96.6678 86.6677C96.6427 86.6793 96.6152 86.6849 96.5874 86.6841C96.5597 86.6833 96.5325 86.6762 96.508 86.6632C96.4834 86.6502 96.4622 86.6317 96.4459 86.6092C96.4297 86.5867 96.4188 86.5608 96.4142 86.5335C95.9526 82.7655 98.0372 82.0422 98.9781 81.7927C101.907 81.2446 104.883 80.9744 107.866 80.9858C107.95 80.9773 108.035 80.9944 108.109 81.0348C108.184 81.0752 108.244 81.137 108.283 81.2122C108.322 81.2873 108.337 81.3723 108.327 81.4559C108.316 81.5396 108.281 81.6181 108.225 81.6811C107.911 82.153 107.728 82.7005 107.696 83.2673C107.664 83.8341 107.784 84.3999 108.043 84.9066C108.679 86.567 107.013 88.4348 104.598 89.3698Z" />
  </mask>
  <path fill-rule="evenodd" clip-rule="evenodd"
    d="M144.756 88.5473L146.119 89.0539C147.313 89.4673 148.362 90.2176 149.14 91.2134C149.538 91.7819 149.809 92.4294 149.933 93.111C150.022 93.6448 150.08 94.1833 150.105 94.7236C150.144 95.7929 150.042 96.862 149.803 97.9038C149.672 98.439 149.498 98.9624 149.28 99.4684L149.18 99.7275L149.731 100.961C149.933 101.458 150.107 101.965 150.251 102.481C150.793 104.535 150.879 106.68 150.503 108.767C150.128 110.853 149.299 112.83 148.076 114.559L147.931 114.768L147.719 114.902C145.891 116.163 143.97 117.284 141.971 118.255C139.939 119.279 137.789 120.052 135.567 120.557L135.422 120.596L135.249 120.642C130.525 120.415 125.793 120.683 121.13 121.441C120.834 121.492 120.534 121.547 120.231 121.602C119.338 121.766 118.413 121.936 117.443 122.031C116.163 122.165 114.872 122.175 113.588 122.061C111.367 121.895 109.135 122.089 106.98 122.636L106.907 122.655C106.545 123.797 106.424 125.002 106.552 126.195C106.68 127.389 107.055 128.544 107.652 129.587C108.967 132.251 110.677 134.703 112.724 136.86C115.007 139.095 117.151 141.466 119.145 143.961C120.214 145.28 121.124 146.719 121.857 148.248C122.645 149.919 123.005 151.758 122.902 153.598L122.737 155.796L120.67 154.98C120.361 154.864 120.041 154.777 119.716 154.721C119.848 155.732 119.916 156.749 119.92 157.767C119.884 159.554 119.619 161.328 119.131 163.045C115.409 153.969 108.108 153.021 100.972 152.096C97.7771 151.681 94.6151 151.271 91.8225 150.137C82.7939 146.471 80.3967 140.023 81.8962 127.226C82.3466 123.293 82.3738 119.321 81.9773 115.378C81.8765 114.49 81.8087 113.609 81.7698 112.721C81.7537 112.599 81.7464 112.477 81.7481 112.355L81.7179 111.727C81.8379 112.103 81.9513 112.48 82.0644 112.855C82.338 113.763 82.6095 114.664 82.9659 115.535C83.3682 116.744 83.9401 117.892 84.6646 118.943C84.9844 119.387 85.3869 119.764 85.8498 120.055C85.9848 120.148 86.1258 120.222 86.2907 120.309C86.4049 120.37 86.5305 120.436 86.6735 120.519C86.9238 120.687 87.1868 120.834 87.4603 120.961C88.572 121.421 89.7482 121.705 90.9463 121.804C93.4749 121.997 96.0163 121.875 98.5116 121.44C100.931 121.093 103.347 120.561 105.749 119.924L106.111 119.828C108.608 119.185 111.195 118.949 113.772 119.13C116.07 119.282 118.376 119.089 120.613 118.556C125.408 117.766 130.274 117.478 135.134 117.696C137.057 117.24 138.92 116.564 140.685 115.682C141.946 115.068 143.166 114.357 144.363 113.622C146.939 111.621 147.964 107.784 144.144 109.262C143.232 109.573 142.343 109.948 141.485 110.386C140.809 110.704 140.176 111.15 139.498 111.627C138.894 112.053 138.253 112.503 137.515 112.911C136.012 113.713 134.327 114.117 132.62 114.085C131.082 113.88 129.522 113.922 128 114.21C128.587 113.627 129.302 113.188 130.088 112.927C130.647 112.717 131.169 112.6 131.67 112.488C131.914 112.433 132.153 112.38 132.39 112.317C133.792 112.129 135.151 111.706 136.41 111.065C137.033 110.694 137.62 110.14 138.255 109.543C138.765 109.063 139.304 108.555 139.917 108.089C141.254 107.054 142.779 106.287 144.409 105.828L145.393 105.567C146.106 103.674 146.598 101.652 145.83 100.306C145.223 99.8272 144.486 99.5419 143.716 99.4869C143.511 99.4712 143.122 99.473 142.616 99.4754C140.771 99.484 137.383 99.4999 135.837 98.6932C134.656 97.9989 134.694 95.9586 138.274 94.1721C139.937 93.4064 141.701 92.8811 143.514 92.612C144.145 92.5574 144.749 92.3384 145.266 91.977L144.998 91.8466L143.687 91.3574L142.345 90.8142L137.106 88.654C136.252 88.307 135.351 87.9571 134.534 87.6931L134.132 87.5827L133.374 87.4739C132.874 87.4049 132.367 87.3069 131.855 87.1945C130.27 86.8247 128.738 86.2514 127.298 85.4891C122.094 83.0563 115.021 75.7252 113.016 73.2498C111.438 71.3558 109.222 70.1016 106.787 69.7247C107.84 69.3818 108.958 69.2839 110.056 69.4385C111.155 69.5931 112.205 69.9962 113.125 70.6168C113.572 70.822 114.519 71.6259 115.663 72.5968C117.971 74.5565 121.082 77.1966 122.493 76.9675C123.224 76.744 123.927 76.4379 124.589 76.0553C123.727 75.5792 122.908 75.0287 122.142 74.4102C121.133 73.6274 120.284 72.7677 119.463 71.9366C119.181 71.6518 118.903 71.3703 118.623 71.0964C117.654 70.047 116.572 69.1071 115.398 68.2939C115.135 68.1325 114.862 67.9873 114.582 67.8592C114.293 67.7445 113.994 67.6577 113.689 67.5999C113.014 67.4536 112.335 67.3545 111.504 67.2648C110.673 67.1752 109.937 67.0915 109.05 66.9083L106.749 66.4334L102.164 65.5413C99.1431 64.9675 96.0905 64.5812 93.0236 64.3847C89.9915 64.2078 86.9507 64.3442 83.9497 64.7915C83.2336 64.883 82.5233 65.0144 81.8223 65.1851C81.2579 65.3187 80.7343 65.5851 80.2951 65.9621C80.061 66.1491 79.826 66.3674 79.5735 66.6019C79.2621 66.8912 78.9241 67.2052 78.5283 67.5156L76.767 68.9746C74.5062 70.9845 72.424 73.1858 70.5433 75.5539C68.9843 77.2926 67.7293 79.2809 66.8304 81.4363C68.8536 80.7989 70.9814 80.5502 73.1011 80.7034C70.4813 81.3543 67.983 82.4144 65.6983 83.8445C64.5754 84.5295 63.5012 85.2908 62.4834 86.123C61.4544 86.9162 60.4932 87.7932 59.6097 88.745C58.7223 89.6296 57.9486 90.621 57.306 91.6963C57.0467 92.1482 56.8866 92.6503 56.8361 93.1694C56.7349 93.7697 56.6638 94.424 56.6072 95.0745C56.4295 97.73 56.4359 100.395 56.6262 103.052C56.9413 108.358 57.9446 113.604 59.6107 118.659C60.9386 122.745 63.1156 126.51 65.9991 129.705C67.149 126.905 68.2399 124.058 69.2651 121.198C70.5576 117.492 71.7215 113.711 72.6603 109.96C73.1506 108 73.509 105.992 73.8713 103.961C74.2028 102.104 74.5374 100.228 74.9793 98.3554C75.4032 96.3652 76.0022 94.417 76.7694 92.5334C77.1652 91.5606 77.6828 90.6422 78.3098 89.7999C78.9189 88.9375 79.7859 88.29 80.7875 87.9495C78.3322 91.716 77.9135 100.197 77.7782 109.61C77.6598 117.252 75.1697 135.271 70.9331 136.813C69.267 137.364 68.4399 136.715 66.8356 135.374L65.5423 134.322C63.247 132.443 61.2769 130.2 59.7117 127.684C58.2299 125.205 57.0231 122.573 56.1127 119.834C55.2394 117.136 54.5604 114.379 54.0808 111.585C53.6482 108.806 53.3817 106.004 53.2829 103.194C53.1692 100.38 53.2511 97.5613 53.5279 94.7596C53.6161 94.0542 53.7044 93.3489 53.8466 92.6137C53.9224 92.2029 54.0251 91.7976 54.1543 91.4006C54.3065 90.9965 54.4911 90.6054 54.7064 90.2312C55.4909 88.9479 56.4556 87.784 57.5713 86.7746C59.4226 85.09 61.5179 83.6932 63.7873 82.6308C64.0545 80.9631 64.6053 79.3545 65.4161 77.8745C66.2097 76.4347 67.1264 75.0662 68.1561 73.7845C70.0246 71.236 72.1635 68.8968 74.5358 66.8074C75.1115 66.2982 75.8743 65.6775 76.3867 65.2781C76.6374 65.0827 76.8926 64.849 77.1713 64.5938C77.4623 64.3273 77.7789 64.0373 78.1429 63.7429C78.9023 63.1055 79.7956 62.6461 80.7575 62.3985C81.5687 62.1941 82.3916 62.038 83.2218 61.9311C86.4262 61.4566 89.6727 61.3124 92.9099 61.501C96.1007 61.6987 99.2766 62.099 102.418 62.6994L107.069 63.605L109.384 64.0761C109.903 64.2005 110.54 64.2713 111.217 64.3466C111.342 64.3605 111.468 64.3745 111.594 64.389C112.411 64.4825 113.188 64.6019 114.042 64.7783C114.507 64.8749 114.963 65.0079 115.407 65.176C115.845 65.3692 116.268 65.5936 116.674 65.8473C118.11 66.7488 119.439 67.811 120.634 69.0132C120.682 69.061 120.73 69.1087 120.777 69.1564C122.977 71.3564 125.021 73.4005 127.558 74.2449L129.59 74.9306L129.641 75.1186L129.394 76.0985L127.911 76.9256C127.634 77.0991 127.436 77.3741 127.359 77.6921C127.321 77.8504 127.318 78.0151 127.35 78.175C127.418 78.4925 127.503 78.8063 127.604 79.115C127.739 79.6047 127.798 80.1119 127.779 80.6187C127.774 80.8985 127.748 81.1421 127.727 81.349C127.711 81.4991 127.697 81.63 127.695 81.7414C127.679 81.8534 127.686 81.9675 127.716 82.0768C127.746 82.1862 127.797 82.2886 127.867 82.3777C129.315 83.249 130.895 83.8774 132.544 84.2375C132.961 84.344 133.384 84.4177 133.822 84.4876L134.478 84.5617C134.812 84.6174 135.141 84.7013 135.461 84.8124C136.365 85.096 137.128 85.4045 137.922 85.7253C138.022 85.7656 138.122 85.8062 138.223 85.8469L143.466 88.0215L144.756 88.5473ZM104.598 89.3698C104.237 89.5039 103.863 89.6028 103.483 89.6653C100.954 90.1809 99.2765 88.7969 99.2081 86.9396C99.1396 85.0823 98.7369 84.5691 98.2448 84.6996C97.5538 85.1685 97.0358 85.85 96.7691 86.6409L96.6678 86.6677C96.6427 86.6793 96.6152 86.6849 96.5874 86.6841C96.5597 86.6833 96.5325 86.6762 96.508 86.6632C96.4834 86.6502 96.4622 86.6317 96.4459 86.6092C96.4297 86.5867 96.4188 86.5608 96.4142 86.5335C95.9526 82.7655 98.0372 82.0422 98.9781 81.7927C101.907 81.2446 104.883 80.9744 107.866 80.9858C107.95 80.9773 108.035 80.9944 108.109 81.0348C108.184 81.0752 108.244 81.137 108.283 81.2122C108.322 81.2873 108.337 81.3723 108.327 81.4559C108.316 81.5396 108.281 81.6181 108.225 81.6811C107.911 82.153 107.728 82.7005 107.696 83.2673C107.664 83.8341 107.784 84.3999 108.043 84.9066C108.679 86.567 107.013 88.4348 104.598 89.3698Z"
    fill="#D08E39" />
  <path
    d="M146.119 89.0539L145.773 89.9895L145.784 89.9935L145.795 89.9972L146.119 89.0539ZM144.756 88.5473L144.381 89.4716L144.396 89.4775L144.41 89.4829L144.756 88.5473ZM149.14 91.2134L149.959 90.6437L149.945 90.6226L149.929 90.6022L149.14 91.2134ZM149.933 93.111L150.92 92.9508L150.918 92.937L149.933 93.111ZM150.105 94.7236L151.106 94.6926L151.106 94.6806L150.105 94.7236ZM149.803 97.9038L150.776 98.144L150.779 98.1306L149.803 97.9038ZM149.28 99.4684L148.36 99.0716L148.353 99.0879L148.346 99.1045L149.28 99.4684ZM149.18 99.7275L148.246 99.3636L148.096 99.7505L148.265 100.131L149.18 99.7275ZM149.731 100.961L150.658 100.589L150.652 100.573L150.645 100.558L149.731 100.961ZM150.251 102.481L151.219 102.231L151.217 102.224L151.215 102.217L150.251 102.481ZM150.503 108.767L149.518 108.586L150.503 108.767ZM148.076 114.559L147.257 113.981L147.252 113.988L148.076 114.559ZM147.931 114.768L148.469 115.613L148.64 115.505L148.755 115.339L147.931 114.768ZM147.719 114.902L147.181 114.057L147.163 114.068L147.146 114.08L147.719 114.902ZM141.971 118.255L141.53 117.356L141.523 117.36L141.516 117.363L141.971 118.255ZM135.567 120.557L135.34 119.584L135.323 119.587L135.306 119.592L135.567 120.557ZM135.249 120.642L135.205 121.639L135.36 121.647L135.51 121.607L135.249 120.642ZM121.13 121.441L120.965 120.455L120.955 120.457L121.13 121.441ZM120.231 121.602L120.417 122.585L120.417 122.585L120.231 121.602ZM117.443 122.031L117.34 121.037L117.334 121.038L117.443 122.031ZM113.588 122.061L113.672 121.066L113.659 121.065L113.588 122.061ZM106.98 122.636L106.729 121.668L106.719 121.67L106.98 122.636ZM106.907 122.655L106.646 121.69L106.118 121.83L105.953 122.349L106.907 122.655ZM106.552 126.195L105.556 126.297L105.556 126.297L106.552 126.195ZM107.652 129.587L108.55 129.149L108.536 129.122L108.521 129.095L107.652 129.587ZM112.724 136.86L111.998 137.545L112.011 137.558L112.024 137.571L112.724 136.86ZM119.145 143.961L118.363 144.581L118.368 144.587L119.145 143.961ZM121.857 148.248L122.763 147.826L122.76 147.821L121.857 148.248ZM122.902 153.597L123.901 153.677L123.902 153.667L123.902 153.657L122.902 153.597ZM122.737 155.796L122.372 156.724L123.635 157.222L123.736 155.875L122.737 155.796ZM120.67 154.98L121.035 154.051L121.027 154.048L121.02 154.045L120.67 154.98ZM119.716 154.721L119.881 153.737L118.548 153.509L118.723 154.846L119.716 154.721ZM119.92 157.767L120.921 157.792L120.921 157.78L120.921 157.768L119.92 157.767ZM119.131 163.045L118.204 163.419L119.304 166.102L120.094 163.321L119.131 163.045ZM100.972 152.096L100.848 153.086L100.972 152.096ZM91.8225 150.137L92.1965 149.212L92.1965 149.212L91.8225 150.137ZM81.8962 127.226L82.8907 127.346L82.891 127.344L81.8962 127.226ZM81.9773 115.378L82.9737 115.283L82.9722 115.27L81.9773 115.378ZM81.7698 112.721L82.7701 112.682L82.7682 112.638L82.7624 112.594L81.7698 112.721ZM81.7481 112.355L82.7493 112.373L82.7498 112.342L82.7483 112.311L81.7481 112.355ZM81.7179 111.727L82.6719 111.428L80.7177 111.771L81.7179 111.727ZM82.0644 112.855L81.1056 113.138L81.1056 113.138L82.0644 112.855ZM82.9659 115.535L83.9162 115.224L83.9055 115.192L83.8927 115.161L82.9659 115.535ZM84.6646 118.943L83.8402 119.507L83.8465 119.516L83.8529 119.525L84.6646 118.943ZM85.8498 120.055L86.4138 119.232L86.3976 119.221L86.381 119.211L85.8498 120.055ZM86.2907 120.309L86.7567 119.427L86.7567 119.427L86.2907 120.309ZM86.6735 120.519L87.2295 119.691L87.2015 119.672L87.1724 119.655L86.6735 120.519ZM87.4603 120.961L87.0421 121.867L87.0609 121.875L87.0801 121.883L87.4603 120.961ZM90.9463 121.804L90.8688 122.799L90.8741 122.799L90.9463 121.804ZM98.5116 121.44L98.3647 120.452L98.3498 120.454L98.335 120.457L98.5116 121.44ZM106.111 119.828L105.857 118.861L105.85 118.863L106.111 119.828ZM113.772 119.13L113.706 120.126L113.71 120.126L113.772 119.13ZM120.613 118.555L120.446 117.57L120.411 117.576L120.376 117.584L120.613 118.555ZM135.134 117.696L135.093 118.694L135.233 118.7L135.369 118.668L135.134 117.696ZM140.685 115.682L140.243 114.784L140.233 114.789L140.685 115.682ZM144.363 113.622L144.891 114.472L144.937 114.444L144.98 114.411L144.363 113.622ZM144.144 109.262L144.471 110.207L144.491 110.201L144.51 110.193L144.144 109.262ZM141.485 110.386L141.916 111.289L141.93 111.282L141.944 111.275L141.485 110.386ZM139.498 111.627L138.919 110.81L139.498 111.627ZM137.515 112.911L137.991 113.792L138.003 113.785L137.515 112.911ZM132.62 114.085L132.492 115.075L132.549 115.082L132.606 115.083L132.62 114.085ZM128 114.21L127.292 113.5L124.975 115.798L128.19 115.191L128 114.21ZM130.088 112.927L130.408 113.875L130.427 113.869L130.446 113.862L130.088 112.927ZM131.67 112.488L131.447 111.513L131.67 112.488ZM132.39 112.317L132.252 111.327L132.189 111.336L132.128 111.352L132.39 112.317ZM136.41 111.065L136.868 111.955L136.898 111.94L136.927 111.923L136.41 111.065ZM138.255 109.543L138.944 110.27L138.255 109.543ZM139.917 108.089L140.527 108.884L140.533 108.879L139.917 108.089ZM144.409 105.828L144.148 104.863L144.14 104.865L144.133 104.867L144.409 105.828ZM145.393 105.567L145.655 106.533L146.151 106.401L146.331 105.922L145.393 105.567ZM145.83 100.306L146.7 99.8149L146.603 99.6446L146.449 99.5231L145.83 100.306ZM143.716 99.4869L143.643 100.483L143.649 100.483L143.716 99.4869ZM142.616 99.4754L142.607 98.4767L142.616 99.4754ZM135.837 98.6932L135.332 99.553L135.354 99.5659L135.376 99.5777L135.837 98.6932ZM138.274 94.1721L137.851 93.265L137.837 93.2715L137.823 93.2785L138.274 94.1721ZM143.514 92.612L143.423 91.6171L143.393 91.6197L143.363 91.6242L143.514 92.612ZM145.266 91.977L145.843 92.7959L147.233 91.8249L145.702 91.0798L145.266 91.977ZM144.998 91.8466L145.434 90.9494L145.39 90.9283L145.345 90.9114L144.998 91.8466ZM143.687 91.3574L143.314 92.2825L143.327 92.2878L143.34 92.2926L143.687 91.3574ZM142.345 90.8142L141.966 91.7369L141.972 91.7393L142.345 90.8142ZM137.106 88.654L137.485 87.7313L137.48 87.7294L137.106 88.654ZM134.534 87.6931L134.84 86.7432L134.818 86.7362L134.796 86.7302L134.534 87.6931ZM134.132 87.5827L134.394 86.6198L134.333 86.6031L134.27 86.5942L134.132 87.5827ZM133.374 87.4739L133.512 86.4854L133.507 86.4846L133.374 87.4739ZM131.855 87.1945L131.631 88.167L131.644 88.1698L131.855 87.1945ZM127.298 85.4891L127.764 84.6075L127.742 84.5958L127.72 84.5852L127.298 85.4891ZM113.016 73.2498L113.794 72.6244L113.785 72.6136L113.016 73.2498ZM106.787 69.7247L106.472 68.7753L106.638 70.7116L106.787 69.7247ZM110.056 69.4385L110.192 68.4496L110.192 68.4496L110.056 69.4385ZM113.125 70.6168L112.567 71.4435L112.635 71.4892L112.71 71.5234L113.125 70.6168ZM115.663 72.5968L116.31 71.8374L115.663 72.5968ZM122.493 76.9675L122.658 77.9533L122.725 77.9424L122.79 77.9225L122.493 76.9675ZM124.589 76.0553L125.094 76.9197L126.619 76.0374L125.071 75.1822L124.589 76.0553ZM122.142 74.4102L122.77 73.635L122.762 73.6289L122.754 73.6229L122.142 74.4102ZM119.462 71.9365L118.751 72.6359L118.751 72.6359L119.462 71.9365ZM118.623 71.0964L117.888 71.7712L117.905 71.7901L117.924 71.808L118.623 71.0964ZM115.398 68.2939L115.966 67.4742L115.943 67.4586L115.92 67.4441L115.398 68.2939ZM114.582 67.8592L114.995 66.9514L114.972 66.941L114.949 66.9317L114.582 67.8592ZM113.689 67.5999L113.481 68.5758L113.494 68.5786L113.507 68.581L113.689 67.5999ZM109.05 66.9083L109.248 65.9303L109.248 65.9303L109.05 66.9083ZM106.749 66.4334L106.948 65.4554L106.937 65.4532L106.749 66.4334ZM102.164 65.5413L102.351 64.5611L102.347 64.5603L102.164 65.5413ZM93.0236 64.3847L93.0833 63.3881L93.0776 63.3877L93.0236 64.3847ZM83.9497 64.7915L84.0813 65.7821L84.0917 65.7808L84.102 65.7792L83.9497 64.7915ZM81.8223 65.1851L82.0576 66.1569L82.0639 66.1554L81.8223 65.1851ZM80.2951 65.9621L80.9231 66.7428L80.9369 66.7317L80.9503 66.7203L80.2951 65.9621ZM79.5735 66.6019L80.2577 67.3342L80.2577 67.3342L79.5735 66.6019ZM78.5283 67.5156L77.9072 66.7295L77.8968 66.7377L77.8866 66.7461L78.5283 67.5156ZM76.767 68.9746L76.1252 68.2051L76.1119 68.2162L76.0989 68.2278L76.767 68.9746ZM70.5433 75.5539L71.291 76.2215L71.3109 76.1994L71.3293 76.1762L70.5433 75.5539ZM66.8304 81.4363L65.9056 81.0492L65.0764 83.0376L67.1359 82.3888L66.8304 81.4363ZM73.1011 80.7034L73.3472 81.6726L73.169 79.7074L73.1011 80.7034ZM65.6983 83.8445L66.2236 84.6972L66.2333 84.6911L65.6983 83.8445ZM62.4834 86.123L63.0979 86.9143L63.1092 86.9055L63.1202 86.8965L62.4834 86.123ZM59.6096 88.745L60.3191 89.4529L60.3327 89.4393L60.3458 89.4252L59.6096 88.745ZM57.306 91.6963L56.4453 91.1822L56.4408 91.1897L56.4364 91.1974L57.306 91.6963ZM56.8361 93.1694L57.8236 93.3393L57.8293 93.3049L57.8327 93.2703L56.8361 93.1694ZM56.6072 95.0745L55.6097 94.9837L55.6088 94.9936L55.6082 95.0035L56.6072 95.0745ZM56.6262 103.052L57.6258 102.997L57.625 102.985L56.6262 103.052ZM59.6107 118.659L60.5631 118.355L60.5618 118.351L59.6107 118.659ZM65.9991 129.705L65.2561 130.372L66.3235 131.555L66.9259 130.088L65.9991 129.705ZM69.2651 121.198L70.2081 121.538L70.2109 121.53L69.2651 121.198ZM72.6603 109.96L73.6319 110.206L72.6603 109.96ZM73.8713 103.961L72.8855 103.782L73.8713 103.961ZM74.9793 98.3554L75.954 98.5884L75.9565 98.5778L75.9588 98.5672L74.9793 98.3554ZM76.7694 92.5334L77.6973 92.9128L77.6975 92.9125L76.7694 92.5334ZM78.3098 89.7999L79.1147 90.3976L79.1221 90.3877L79.1293 90.3775L78.3098 89.7999ZM80.7875 87.9495L81.6277 88.4965L83.2099 86.0692L80.4605 87.004L80.7875 87.9495ZM77.7782 109.61L78.7794 109.63L78.7794 109.629L77.7782 109.61ZM70.9331 136.813L71.2518 137.762L71.266 137.757L71.2801 137.752L70.9331 136.813ZM66.8356 135.374L67.4769 134.609L67.4663 134.601L66.8356 135.374ZM65.5423 134.322L64.9093 135.092L64.9116 135.094L65.5423 134.322ZM59.7117 127.684L58.8522 128.192L58.8568 128.2L58.8615 128.208L59.7117 127.684ZM56.1127 119.834L55.1599 120.137L55.1624 120.145L56.1127 119.834ZM54.0808 111.585L53.0914 111.734L53.0926 111.742L53.0939 111.749L54.0808 111.585ZM53.2829 103.194L54.2836 103.164L54.2833 103.159L53.2829 103.194ZM53.5279 94.7596L52.5343 94.6315L52.5327 94.6444L52.5314 94.6573L53.5279 94.7596ZM53.8466 92.6137L54.8299 92.8071L54.8315 92.7986L53.8466 92.6137ZM54.1543 91.4006L53.2167 91.0457L53.2087 91.067L53.2017 91.0886L54.1543 91.4006ZM54.7064 90.2312L53.8509 89.7085L53.844 89.7198L53.8374 89.7312L54.7064 90.2312ZM57.5713 86.7746L58.2459 87.5157L58.248 87.5137L57.5713 86.7746ZM63.7873 82.6308L64.2161 83.5352L64.6929 83.312L64.7761 82.7926L63.7873 82.6308ZM65.4161 77.8745L64.5381 77.3903L64.5369 77.3926L65.4161 77.8745ZM68.1561 73.7845L68.9386 74.4111L68.9523 74.394L68.9653 74.3764L68.1561 73.7845ZM74.5358 66.8074L75.2004 67.5573L75.2019 67.5559L74.5358 66.8074ZM76.3867 65.2781L75.768 64.4901L75.768 64.4901L76.3867 65.2781ZM77.1713 64.5938L76.4923 63.8567L76.4923 63.8567L77.1713 64.5938ZM78.1429 63.7429L78.7758 64.5197L78.7828 64.514L78.7897 64.5082L78.1429 63.7429ZM80.7575 62.3986L80.5081 61.4302L80.5033 61.4315L80.7575 62.3986ZM83.2218 61.9311L83.3544 62.9216L83.3638 62.9204L83.3732 62.919L83.2218 61.9311ZM92.9099 61.501L92.9675 60.5042L92.9637 60.5039L92.9099 61.501ZM102.418 62.6994L102.606 61.7192L102.602 61.7186L102.418 62.6994ZM107.069 63.605L107.265 62.6265L107.257 62.6248L107.069 63.605ZM109.384 64.0761L109.614 63.1051L109.597 63.1011L109.58 63.0976L109.384 64.0761ZM111.217 64.3466L111.111 65.3392L111.111 65.3392L111.217 64.3466ZM111.594 64.389L111.704 63.3968L111.704 63.3968L111.594 64.389ZM114.042 64.7783L114.242 63.8007L114.241 63.8004L114.042 64.7783ZM115.407 65.176L115.808 64.2629L115.784 64.2521L115.759 64.2427L115.407 65.176ZM116.674 65.8473L117.205 65.0028L117.203 65.0017L116.674 65.8473ZM120.634 69.0132L119.925 69.7147L119.927 69.7169L120.634 69.0132ZM120.777 69.1564L120.07 69.8601L120.07 69.8601L120.777 69.1564ZM127.558 74.2449L127.875 73.2991L127.871 73.2977L127.558 74.2449ZM129.59 74.9306L130.556 74.6743L130.416 74.1567L129.907 73.9848L129.59 74.9306ZM129.641 75.1186L130.612 75.3659L130.675 75.1138L130.607 74.8623L129.641 75.1186ZM129.394 76.0985L129.886 76.9706L130.261 76.7615L130.365 76.3458L129.394 76.0985ZM127.911 76.9256L127.42 76.0535L127.398 76.0655L127.377 76.0786L127.911 76.9256ZM127.359 77.6921L126.385 77.4544L126.385 77.4551L127.359 77.6921ZM127.35 78.175L126.368 78.3675L126.371 78.3804L127.35 78.175ZM127.604 79.115L128.57 78.8544L128.564 78.8313L128.556 78.8085L127.604 79.115ZM127.779 80.6187L126.778 80.5762L126.778 80.5861L126.778 80.5959L127.779 80.6187ZM127.727 81.349L126.731 81.2413L126.731 81.2413L127.727 81.349ZM127.695 81.7414L128.687 81.8847L128.695 81.8265L128.696 81.7677L127.695 81.7414ZM127.867 82.3777L127.081 82.9925L127.195 83.1371L127.353 83.2321L127.867 82.3777ZM132.544 84.2375L132.788 83.2701L132.771 83.2657L132.754 83.2619L132.544 84.2375ZM133.822 84.4876L133.668 85.4738L133.691 85.4774L133.714 85.48L133.822 84.4876ZM134.478 84.5616L134.639 83.5767L134.612 83.5723L134.586 83.5693L134.478 84.5616ZM135.461 84.8124L135.136 85.7555L135.15 85.7604L135.164 85.7649L135.461 84.8124ZM137.922 85.7253L138.294 84.7999L138.294 84.7999L137.922 85.7253ZM138.223 85.8469L138.604 84.9249L138.594 84.921L138.223 85.8469ZM143.466 88.0215L143.085 88.9434L143.091 88.9458L143.466 88.0215ZM103.483 89.6653L103.316 88.6799L103.297 88.683L103.278 88.6868L103.483 89.6653ZM104.598 89.3698L104.951 90.306L104.964 90.301L104.598 89.3698ZM99.2081 86.9396L100.209 86.9074L99.2081 86.9396ZM98.2448 84.6996L97.9834 83.7343L97.8193 83.7779L97.679 83.8731L98.2448 84.6996ZM96.7691 86.6409L97.0305 87.6061L97.5478 87.4689L97.7184 86.963L96.7691 86.6409ZM96.6678 86.6677L96.4065 85.7025L96.3229 85.7246L96.2445 85.7608L96.6678 86.6677ZM96.5874 86.6841L96.5633 87.6824L96.5634 87.6824L96.5874 86.6841ZM96.508 86.6632L96.0415 87.5448L96.0416 87.5448L96.508 86.6632ZM96.4459 86.6092L97.2574 86.0278L97.2574 86.0277L96.4459 86.6092ZM96.4142 86.5335L95.4203 86.6502L95.423 86.6721L95.4267 86.6939L96.4142 86.5335ZM98.9781 81.7927L98.7892 80.8111L98.7526 80.8179L98.7167 80.8275L98.9781 81.7927ZM107.866 80.9858L107.867 81.9845L107.919 81.9847L107.971 81.9795L107.866 80.9858ZM108.283 81.2122L109.173 80.7582L109.173 80.7582L108.283 81.2122ZM108.327 81.4559L107.333 81.3291L107.333 81.3292L108.327 81.4559ZM108.225 81.6811L107.474 81.0175L107.428 81.0688L107.39 81.1259L108.225 81.6811ZM107.696 83.2673L106.697 83.2068L107.696 83.2673ZM108.043 84.9066L108.979 84.554L108.959 84.5039L108.935 84.456L108.043 84.9066ZM146.465 88.1183L145.102 87.6117L144.41 89.4829L145.773 89.9895L146.465 88.1183ZM149.929 90.6022C149.032 89.4533 147.821 88.5876 146.444 88.1106L145.795 89.9972C146.805 90.347 147.693 90.9818 148.35 91.8246L149.929 90.6022ZM150.918 92.937C150.768 92.1132 150.441 91.3308 149.959 90.6437L148.32 91.7831C148.635 92.2331 148.849 92.7455 148.947 93.2851L150.918 92.937ZM151.106 94.6806C151.078 94.101 151.016 93.5234 150.92 92.9508L148.945 93.2712C149.028 93.7663 149.081 94.2656 149.105 94.7666L151.106 94.6806ZM150.779 98.1306C151.037 97.0044 151.147 95.8486 151.106 94.6926L149.105 94.7546C149.14 95.7373 149.046 96.7196 148.827 97.6769L150.779 98.1306ZM150.201 99.8651C150.44 99.3085 150.632 98.7328 150.776 98.144L148.83 97.6636C148.712 98.1453 148.555 98.6162 148.36 99.0716L150.201 99.8651ZM150.114 100.091L150.214 99.8322L148.346 99.1045L148.246 99.3636L150.114 100.091ZM150.645 100.558L150.094 99.3244L148.265 100.131L148.817 101.364L150.645 100.558ZM151.215 102.217C151.061 101.664 150.875 101.121 150.658 100.589L148.803 101.333C148.991 101.794 149.153 102.266 149.287 102.746L151.215 102.217ZM151.489 108.947C151.891 106.718 151.798 104.426 151.219 102.231L149.283 102.731C149.788 104.644 149.868 106.643 149.518 108.586L151.489 108.947ZM148.895 115.137C150.202 113.289 151.087 111.177 151.489 108.947L149.518 108.586C149.168 110.529 148.396 112.37 147.257 113.981L148.895 115.137ZM148.755 115.339L148.9 115.13L147.252 113.988L147.107 114.197L148.755 115.339ZM148.257 115.746L148.469 115.613L147.393 113.923L147.181 114.057L148.257 115.746ZM142.413 119.153C144.457 118.16 146.422 117.014 148.291 115.724L147.146 114.08C145.361 115.313 143.483 116.408 141.53 117.356L142.413 119.153ZM135.794 121.531C138.095 121.008 140.322 120.207 142.426 119.146L141.516 117.363C139.557 118.351 137.483 119.097 135.34 119.584L135.794 121.531ZM135.684 121.561L135.828 121.523L135.306 119.592L135.161 119.63L135.684 121.561ZM135.51 121.607L135.684 121.561L135.161 119.63L134.987 119.676L135.51 121.607ZM121.296 122.426C125.89 121.68 130.552 121.416 135.205 121.639L135.292 119.644C130.499 119.414 125.697 119.686 120.965 120.455L121.296 122.426ZM120.417 122.585C120.721 122.529 121.015 122.475 121.305 122.425L120.955 120.457C120.653 120.509 120.348 120.565 120.046 120.62L120.417 122.585ZM117.545 123.025C118.564 122.925 119.529 122.747 120.417 122.585L120.046 120.62C119.147 120.785 118.263 120.947 117.34 121.037L117.545 123.025ZM113.504 123.056C114.852 123.175 116.207 123.165 117.552 123.024L117.334 121.038C116.118 121.165 114.892 121.174 113.672 121.066L113.504 123.056ZM107.231 123.604C109.281 123.084 111.405 122.899 113.518 123.057L113.659 121.065C111.33 120.891 108.989 121.095 106.729 121.668L107.231 123.604ZM107.169 123.62L107.241 123.601L106.719 121.67L106.646 121.69L107.169 123.62ZM107.548 126.094C107.434 125.038 107.541 123.971 107.862 122.96L105.953 122.349C105.549 123.623 105.414 124.967 105.556 126.297L107.548 126.094ZM108.521 129.095C107.992 128.172 107.661 127.149 107.548 126.094L105.556 126.297C105.699 127.628 106.117 128.916 106.783 130.079L108.521 129.095ZM113.45 136.175C111.472 134.091 109.82 131.722 108.55 129.149L106.754 130.025C108.114 132.779 109.882 135.314 111.998 137.545L113.45 136.175ZM119.927 143.341C117.908 140.814 115.736 138.412 113.423 136.149L112.024 137.571C114.278 139.777 116.395 142.118 118.363 144.581L119.927 143.341ZM122.76 147.821C121.993 146.221 121.041 144.715 119.923 143.335L118.368 144.587C119.387 145.845 120.255 147.217 120.954 148.676L122.76 147.821ZM123.902 153.657C124.014 151.652 123.622 149.648 122.763 147.826L120.952 148.67C121.669 150.19 121.996 151.863 121.903 153.538L123.902 153.657ZM123.736 155.875L123.901 153.677L121.904 153.518L121.739 155.717L123.736 155.875ZM120.305 155.908L122.372 156.724L123.102 154.867L121.035 154.051L120.305 155.908ZM119.551 155.706C119.814 155.751 120.071 155.82 120.321 155.914L121.02 154.045C120.651 153.907 120.269 153.804 119.881 153.737L119.551 155.706ZM120.921 157.768C120.917 156.708 120.846 155.649 120.709 154.597L118.723 154.846C118.85 155.815 118.915 156.79 118.919 157.767L120.921 157.768ZM120.094 163.321C120.605 161.522 120.883 159.664 120.921 157.792L118.919 157.742C118.884 159.444 118.632 161.133 118.167 162.769L120.094 163.321ZM100.848 153.086C104.447 153.553 107.894 154.009 110.91 155.418C113.865 156.799 116.44 159.116 118.204 163.419L120.057 162.67C118.1 157.897 115.163 155.203 111.753 153.61C108.404 152.045 104.633 151.564 101.097 151.105L100.848 153.086ZM91.4486 151.062C94.3834 152.253 97.6806 152.675 100.848 153.086L101.097 151.105C97.8735 150.687 94.8467 150.288 92.1965 149.212L91.4486 151.062ZM80.9016 127.106C80.1462 133.553 80.3455 138.575 81.988 142.488C83.6572 146.464 86.7543 149.156 91.4486 151.062L92.1965 149.212C87.8622 147.452 85.2463 145.086 83.8347 141.723C82.3962 138.297 82.1467 133.696 82.8907 127.346L80.9016 127.106ZM80.981 115.473C81.3704 119.345 81.3437 123.246 80.9013 127.108L82.891 127.344C83.3496 123.34 83.3773 119.297 82.9736 115.283L80.981 115.473ZM80.7694 112.76C80.8093 113.671 80.8789 114.575 80.9823 115.486L82.9722 115.27C82.8742 114.406 82.8081 113.548 82.7701 112.682L80.7694 112.76ZM80.7469 112.336C80.7446 112.507 80.7547 112.678 80.7771 112.847L82.7624 112.594C82.7527 112.521 82.7483 112.447 82.7493 112.373L80.7469 112.336ZM80.7177 111.771L80.748 112.398L82.7483 112.311L82.718 111.684L80.7177 111.771ZM83.0232 112.571C82.9105 112.197 82.7948 111.813 82.6719 111.428L80.7638 112.026C80.881 112.393 80.9921 112.762 81.1056 113.138L83.0232 112.571ZM83.8927 115.161C83.5575 114.342 83.2992 113.487 83.0232 112.571L81.1056 113.138C81.3768 114.039 81.6615 114.986 82.0392 115.909L83.8927 115.161ZM85.4889 118.38C84.8182 117.407 84.2887 116.344 83.9162 115.224L82.0157 115.845C82.4478 117.145 83.0621 118.377 83.8402 119.507L85.4889 118.38ZM86.381 119.211C86.0277 118.989 85.7205 118.701 85.4763 118.362L83.8529 119.525C84.2483 120.072 84.746 120.539 85.3186 120.899L86.381 119.211ZM86.7567 119.427C86.5821 119.335 86.4933 119.287 86.4138 119.232L85.2858 120.878C85.4764 121.008 85.6695 121.109 85.8247 121.191L86.7567 119.427ZM87.1724 119.655C87.0112 119.562 86.8704 119.488 86.7567 119.427L85.8247 121.191C85.9394 121.252 86.0498 121.31 86.1746 121.382L87.1724 119.655ZM87.8785 120.056C87.653 119.951 87.436 119.829 87.2295 119.691L86.1174 121.347C86.4115 121.544 86.7207 121.718 87.0421 121.867L87.8785 120.056ZM91.0237 120.808C89.9298 120.719 88.8557 120.459 87.8405 120.039L87.0801 121.883C88.2884 122.383 89.5667 122.692 90.8688 122.799L91.0237 120.808ZM98.335 120.457C95.9217 120.877 93.4639 120.995 91.0185 120.808L90.8741 122.799C93.4858 122.999 96.1109 122.873 98.6883 122.424L98.335 120.457ZM105.488 118.959C103.111 119.589 100.735 120.112 98.3647 120.452L98.6585 122.429C101.126 122.075 103.582 121.533 106.011 120.889L105.488 118.959ZM105.85 118.863L105.488 118.959L106.011 120.889L106.372 120.793L105.85 118.863ZM113.837 118.133C111.153 117.946 108.458 118.191 105.857 118.861L106.365 120.795C108.758 120.179 111.237 119.953 113.706 120.126L113.837 118.133ZM120.376 117.584C118.237 118.094 116.031 118.279 113.834 118.133L113.71 120.126C116.108 120.286 118.515 120.084 120.85 119.527L120.376 117.584ZM135.174 116.699C130.245 116.477 125.309 116.769 120.446 117.57L120.78 119.541C125.507 118.763 130.303 118.479 135.093 118.694L135.174 116.699ZM140.233 114.789C138.536 115.637 136.746 116.287 134.898 116.725L135.369 118.668C137.367 118.194 139.303 117.492 141.137 116.575L140.233 114.789ZM143.834 112.771C142.649 113.5 141.461 114.191 140.243 114.784L141.127 116.58C142.431 115.945 143.683 115.215 144.891 114.472L143.834 112.771ZM144.51 110.193C144.932 110.03 145.243 109.958 145.458 109.937C145.676 109.916 145.748 109.951 145.738 109.946C145.59 109.878 145.684 109.745 145.655 110.035C145.626 110.335 145.459 110.803 145.11 111.345C144.769 111.873 144.297 112.404 143.745 112.833L144.98 114.411C145.716 113.839 146.338 113.14 146.795 112.432C147.243 111.738 147.577 110.965 147.648 110.239C147.721 109.505 147.516 108.565 146.566 108.131C145.775 107.77 144.786 107.941 143.778 108.331L144.51 110.193ZM141.944 111.275C142.76 110.86 143.604 110.503 144.471 110.207L143.817 108.317C142.859 108.643 141.927 109.037 141.026 109.496L141.944 111.275ZM140.078 112.444C140.771 111.956 141.332 111.564 141.916 111.289L141.054 109.482C140.286 109.844 139.581 110.344 138.919 110.81L140.078 112.444ZM138.003 113.785C138.795 113.348 139.478 112.866 140.078 112.444L138.919 110.81C138.309 111.239 137.711 111.659 137.027 112.037L138.003 113.785ZM132.606 115.083C134.484 115.119 136.338 114.675 137.991 113.792L137.039 112.03C135.687 112.752 134.171 113.116 132.635 113.086L132.606 115.083ZM128.19 115.191C129.608 114.923 131.06 114.884 132.492 115.075L132.748 113.095C131.104 112.876 129.437 112.921 127.809 113.228L128.19 115.191ZM129.768 111.98C128.836 112.289 127.989 112.809 127.292 113.5L128.707 114.92C129.186 114.445 129.768 114.088 130.408 113.875L129.768 111.98ZM131.447 111.513C130.95 111.624 130.364 111.754 129.73 111.993L130.446 113.862C130.931 113.679 131.387 113.576 131.894 113.462L131.447 111.513ZM132.128 111.352C131.914 111.409 131.694 111.458 131.447 111.513L131.894 113.462C132.134 113.409 132.392 113.351 132.651 113.282L132.128 111.352ZM135.952 110.175C134.793 110.764 133.542 111.154 132.252 111.327L132.528 113.307C134.042 113.104 135.509 112.647 136.868 111.955L135.952 110.175ZM137.566 108.815C136.91 109.433 136.404 109.902 135.893 110.207L136.927 111.923C137.661 111.485 138.331 110.848 138.944 110.27L137.566 108.815ZM139.308 107.294C138.647 107.796 138.071 108.34 137.566 108.815L138.944 110.27C139.458 109.786 139.962 109.314 140.526 108.884L139.308 107.294ZM144.133 104.867C142.38 105.36 140.739 106.186 139.301 107.299L140.533 108.879C141.769 107.923 143.178 107.214 144.685 106.79L144.133 104.867ZM145.132 104.602L144.148 104.863L144.67 106.794L145.655 106.533L145.132 104.602ZM144.96 100.797C145.192 101.202 145.277 101.793 145.174 102.601C145.072 103.399 144.801 104.294 144.456 105.213L146.331 105.922C146.698 104.947 147.03 103.885 147.16 102.862C147.289 101.849 147.237 100.756 146.7 99.8149L144.96 100.797ZM143.649 100.483C144.218 100.524 144.763 100.735 145.212 101.088L146.449 99.5231C145.683 98.9199 144.754 98.5601 143.783 98.4908L143.649 100.483ZM142.625 100.474C143.158 100.472 143.491 100.471 143.643 100.483L143.789 98.4912C143.532 98.4714 143.086 98.4744 142.607 98.4767L142.625 100.474ZM135.376 99.5777C136.35 100.086 137.771 100.29 139.043 100.386C140.36 100.485 141.707 100.478 142.625 100.474L142.607 98.4767C141.68 98.481 140.41 98.4865 139.185 98.3942C137.916 98.2985 136.87 98.1071 136.298 97.8088L135.376 99.5777ZM137.823 93.2785C135.933 94.2214 134.77 95.3286 134.333 96.487C134.109 97.0807 134.077 97.6945 134.267 98.2591C134.457 98.8229 134.845 99.2665 135.332 99.553L136.343 97.8335C136.24 97.7728 136.189 97.701 136.165 97.6311C136.142 97.562 136.122 97.4239 136.208 97.1975C136.389 96.7155 137.035 95.9093 138.726 95.0657L137.823 93.2785ZM143.363 91.6242C141.456 91.9072 139.6 92.4597 137.851 93.265L138.698 95.0791C140.274 94.3531 141.947 93.855 143.666 93.5999L143.363 91.6242ZM144.689 91.1581C144.315 91.4193 143.879 91.5776 143.423 91.6171L143.606 93.607C144.411 93.5371 145.182 93.2574 145.843 92.7959L144.689 91.1581ZM144.562 92.7438L144.83 92.8742L145.702 91.0798L145.434 90.9494L144.562 92.7438ZM143.34 92.2926L144.651 92.7818L145.345 90.9114L144.034 90.4222L143.34 92.2926ZM141.972 91.7393L143.314 92.2825L144.06 90.4323L142.718 89.889L141.972 91.7393ZM136.727 89.5767L141.966 91.7369L142.724 89.8915L137.485 87.7313L136.727 89.5767ZM134.229 88.6429C135.01 88.8954 135.884 89.2342 136.732 89.5787L137.48 87.7294C136.62 87.3799 135.691 87.0188 134.84 86.7432L134.229 88.6429ZM133.871 88.5455L134.273 88.6559L134.796 86.7302L134.394 86.6198L133.871 88.5455ZM133.236 88.4624L133.994 88.5712L134.27 86.5942L133.512 86.4854L133.236 88.4624ZM131.644 88.1698C132.171 88.2856 132.706 88.3893 133.241 88.4631L133.507 86.4846C133.042 86.4205 132.562 86.3283 132.067 86.2193L131.644 88.1698ZM126.832 86.3708C128.348 87.1736 129.961 87.7774 131.631 88.167L132.079 86.2221C130.578 85.8719 129.127 85.3292 127.764 84.6075L126.832 86.3708ZM112.238 73.8752C113.278 75.1596 115.584 77.6473 118.281 80.1194C120.964 82.5776 124.127 85.1079 126.876 86.3931L127.72 84.5852C125.264 83.4374 122.289 81.0858 119.633 78.6514C116.992 76.2309 114.758 73.8154 113.794 72.6244L112.238 73.8752ZM106.638 70.7116C108.831 71.051 110.826 72.1803 112.247 73.886L113.785 72.6136C112.051 70.5313 109.614 69.1522 106.936 68.7379L106.638 70.7116ZM110.192 68.4496C108.942 68.2737 107.67 68.3851 106.472 68.7753L107.102 70.6742C108.009 70.3785 108.974 70.2941 109.921 70.4274L110.192 68.4496ZM113.684 69.7902C112.636 69.0841 111.442 68.6255 110.192 68.4496L109.921 70.4274C110.868 70.5607 111.773 70.9083 112.567 71.4435L113.684 69.7902ZM116.31 71.8374C115.741 71.3552 115.206 70.9006 114.756 70.5413C114.338 70.2071 113.895 69.8729 113.541 69.7102L112.71 71.5234C112.802 71.5659 113.056 71.7363 113.509 72.098C113.93 72.4346 114.44 72.8674 115.016 73.3561L116.31 71.8374ZM122.328 75.9818C122.329 75.9817 122.313 75.9842 122.277 75.9816C122.24 75.979 122.188 75.9716 122.12 75.9551C121.98 75.9215 121.8 75.8571 121.577 75.7528C121.128 75.5431 120.59 75.2114 119.99 74.7883C118.791 73.943 117.472 72.8244 116.31 71.8374L115.016 73.3561C116.162 74.3288 117.552 75.5101 118.839 76.4175C119.482 76.8708 120.13 77.2787 120.734 77.5608C121.299 77.8249 121.993 78.0613 122.658 77.9533L122.328 75.9818ZM124.083 75.1909C123.488 75.5355 122.854 75.8112 122.196 76.0125L122.79 77.9225C123.594 77.6767 124.367 77.3403 125.094 76.9197L124.083 75.1909ZM121.514 75.1854C122.326 75.8407 123.193 76.4239 124.107 76.9284L125.071 75.1822C124.26 74.7344 123.49 74.2167 122.77 73.635L121.514 75.1854ZM118.751 72.6359C119.566 73.4614 120.46 74.3678 121.529 75.1975L122.754 73.6229C121.806 72.8868 121.001 72.0739 120.174 71.2372L118.751 72.6359ZM117.924 71.808C118.196 72.0748 118.468 72.35 118.751 72.6359L120.174 71.2372C119.894 70.9535 119.61 70.6658 119.322 70.3849L117.924 71.808ZM114.829 69.1135C115.943 69.8847 116.969 70.776 117.888 71.7712L119.358 70.4217C118.339 69.318 117.202 68.3295 115.966 67.4742L114.829 69.1135ZM114.168 68.767C114.411 68.878 114.648 69.0037 114.875 69.1436L115.92 67.4441C115.622 67.2612 115.313 67.0966 114.995 66.9514L114.168 68.767ZM113.507 68.581C113.749 68.6269 113.986 68.6957 114.215 68.7867L114.949 66.9317C114.6 66.7932 114.24 66.6885 113.872 66.6188L113.507 68.581ZM111.401 68.2577C112.211 68.3451 112.852 68.4396 113.481 68.5758L113.898 66.624C113.175 66.4676 112.459 66.3638 111.607 66.2719L111.401 68.2577ZM108.851 67.8862C109.789 68.0799 110.567 68.1678 111.401 68.2577L111.607 66.2719C110.779 66.1826 110.085 66.103 109.248 65.9303L108.851 67.8862ZM106.551 67.4113L108.851 67.8862L109.248 65.9303L106.948 65.4554L106.551 67.4113ZM101.976 66.5215L106.562 67.4136L106.937 65.4532L102.351 64.5611L101.976 66.5215ZM92.9639 65.3814C95.9894 65.5752 99.0008 65.9563 101.981 66.5224L102.347 64.5603C99.2854 63.9787 96.1916 63.5872 93.0833 63.3881L92.9639 65.3814ZM84.102 65.7792C87.0348 65.3421 90.0065 65.2089 92.9696 65.3817L93.0776 63.3877C89.9765 63.2068 86.8666 63.3462 83.7973 63.8037L84.102 65.7792ZM82.0639 66.1554C82.7287 65.9935 83.4022 65.8689 84.0813 65.7821L83.818 63.8009C83.0649 63.8971 82.3179 64.0353 81.5807 64.2149L82.0639 66.1554ZM80.9503 66.7203C81.2687 66.4469 81.6484 66.2538 82.0576 66.1569L81.587 64.2134C80.8674 64.3836 80.1999 64.7232 79.64 65.2039L80.9503 66.7203ZM80.2577 67.3342C80.5166 67.0937 80.7235 66.9022 80.9231 66.7428L79.6671 65.1814C79.3985 65.396 79.1354 65.6411 78.8893 65.8697L80.2577 67.3342ZM79.1495 68.3017C79.5823 67.9622 79.9488 67.6212 80.2577 67.3342L78.8893 65.8697C78.5754 66.1613 78.2658 66.4482 77.9072 66.7295L79.1495 68.3017ZM77.4088 69.7441L79.1701 68.285L77.8866 66.7461L76.1252 68.2051L77.4088 69.7441ZM71.3293 76.1762C73.1744 73.8529 75.2172 71.6933 77.4351 69.7215L76.0989 68.2278C73.7953 70.2757 71.6736 72.5187 69.7574 74.9316L71.3293 76.1762ZM67.7551 81.8234C68.6112 79.7707 69.8064 77.8773 71.291 76.2215L69.7957 74.8863C68.1622 76.7079 66.8474 78.791 65.9056 81.0492L67.7551 81.8234ZM73.169 79.7074C70.923 79.545 68.6686 79.8085 66.5249 80.4839L67.1359 82.3888C69.0386 81.7893 71.0397 81.5554 73.0332 81.6995L73.169 79.7074ZM66.2333 84.6911C68.4288 83.3167 70.8297 82.298 73.3472 81.6726L72.855 79.7343C70.133 80.4105 67.5371 81.512 65.1633 82.9979L66.2333 84.6911ZM63.1202 86.8965C64.1027 86.0932 65.1396 85.3583 66.2236 84.6971L65.1731 82.9919C64.0111 83.7007 62.8997 84.4884 61.8465 85.3495L63.1202 86.8965ZM60.3458 89.4252C61.1919 88.5137 62.1124 87.6739 63.0979 86.9143L61.8689 85.3318C60.7963 86.1585 59.7944 87.0726 58.8735 88.0647L60.3458 89.4252ZM58.1667 92.2104C58.7671 91.2057 59.4901 90.2795 60.3191 89.4529L58.9002 88.0371C57.9546 88.9798 57.13 90.0362 56.4453 91.1822L58.1667 92.2104ZM57.8327 93.2703C57.8696 92.8914 57.9865 92.525 58.1756 92.1952L56.4364 91.1974C56.107 91.7714 55.9036 92.4091 55.8395 93.0685L57.8327 93.2703ZM57.6048 95.1653C57.6604 94.5261 57.7287 93.9017 57.8236 93.3393L55.8486 92.9995C55.741 93.6377 55.6672 94.322 55.6097 94.9837L57.6048 95.1653ZM57.625 102.985C57.4379 100.375 57.4317 97.7551 57.6063 95.1455L55.6082 95.0035C55.4274 97.7049 55.4338 100.416 55.6275 103.118L57.625 102.985ZM60.5618 118.351C58.9227 113.378 57.9358 108.217 57.6258 102.997L55.6267 103.106C55.9469 108.499 56.9664 113.83 58.6597 118.967L60.5618 118.351ZM66.742 129.039C63.9531 125.948 61.8475 122.307 60.5631 118.355L58.6584 118.963C60.0298 123.183 62.2781 127.071 65.2561 130.372L66.742 129.039ZM68.322 120.858C67.3017 123.705 66.2162 126.538 65.0722 129.323L66.9259 130.088C68.0818 127.273 69.1781 124.412 70.2081 121.538L68.322 120.858ZM71.6888 109.714C70.7585 113.431 69.6039 117.183 68.3192 120.866L70.2109 121.53C71.5114 117.801 72.6844 113.992 73.6319 110.206L71.6888 109.714ZM72.8855 103.782C72.5221 105.818 72.1694 107.793 71.6888 109.714L73.6319 110.206C74.1319 108.208 74.4959 106.165 74.8571 104.14L72.8855 103.782ZM74.0046 98.1225C73.5554 100.026 73.2162 101.929 72.8855 103.782L74.8571 104.14C75.1893 102.279 75.5195 100.43 75.954 98.5884L74.0046 98.1225ZM75.8415 92.1539C75.0522 94.0918 74.4359 96.0962 73.9998 98.1437L75.9588 98.5672C76.3705 96.6343 76.9523 94.7422 77.6973 92.9128L75.8415 92.1539ZM77.505 89.2022C76.8278 90.1119 76.2688 91.1037 75.8414 92.1542L77.6975 92.9125C78.0616 92.0175 78.5378 91.1725 79.1147 90.3976L77.505 89.2022ZM80.4605 87.004C79.2598 87.4123 78.2205 88.1886 77.4904 89.2224L79.1293 90.3775C79.6173 89.6865 80.3119 89.1677 81.1144 88.8949L80.4605 87.004ZM78.7794 109.629C78.847 104.924 78.9853 100.494 79.4078 96.7792C79.8349 93.0232 80.5377 90.1686 81.6277 88.4965L79.9473 87.4024C78.582 89.4968 77.8477 92.7659 77.4179 96.5452C76.9834 100.366 76.8447 104.883 76.777 109.591L78.7794 109.629ZM71.2801 137.752C72.0776 137.462 72.7246 136.831 73.2518 136.102C73.7884 135.36 74.2684 134.421 74.7003 133.369C75.5649 131.261 76.2918 128.558 76.8808 125.705C78.0593 119.995 78.7192 113.518 78.7794 109.63L76.7771 109.59C76.7189 113.344 76.0745 119.697 74.9192 125.293C74.3413 128.093 73.6439 130.661 72.8464 132.605C72.4472 133.578 72.0367 134.36 71.6257 134.929C71.2054 135.51 70.8478 135.78 70.5862 135.875L71.2801 137.752ZM66.1943 136.138C66.9623 136.78 67.6911 137.39 68.4729 137.722C69.3493 138.093 70.2279 138.1 71.2518 137.762L70.6145 135.865C69.9722 136.077 69.6042 136.035 69.2494 135.884C68.8 135.694 68.3131 135.309 67.4768 134.609L66.1943 136.138ZM64.9116 135.094L66.2048 136.146L67.4663 134.601L66.1731 133.549L64.9116 135.094ZM58.8615 128.208C60.4849 130.818 62.5284 133.144 64.9093 135.092L66.1754 133.551C63.9656 131.742 62.0688 129.583 60.5619 127.16L58.8615 128.208ZM55.1624 120.145C56.0958 122.952 57.3331 125.651 58.8522 128.192L60.5712 127.175C59.1268 124.759 57.9504 122.193 57.0629 119.524L55.1624 120.145ZM53.0939 111.749C53.5815 114.59 54.2719 117.393 55.1599 120.137L57.0655 119.532C56.2068 116.878 55.5393 114.168 55.0678 111.421L53.0939 111.749ZM52.2822 103.225C52.3824 106.074 52.6527 108.915 53.0914 111.734L55.0703 111.436C54.6437 108.696 54.381 105.934 54.2835 103.164L52.2822 103.225ZM52.5314 94.6573C52.2501 97.5048 52.1669 100.369 52.2824 103.23L54.2833 103.159C54.1716 100.39 54.2521 97.6178 54.5244 94.862L52.5314 94.6573ZM52.8635 92.4202C52.714 93.1929 52.622 93.9303 52.5343 94.6315L54.5215 94.8877C54.6103 94.1781 54.6949 93.5048 54.8298 92.8071L52.8635 92.4202ZM53.2017 91.0886C53.059 91.5273 52.9455 91.975 52.8618 92.4287L54.8315 92.7986C54.8993 92.4308 54.9913 92.068 55.1068 91.7126L53.2017 91.0886ZM53.8374 89.7312C53.5954 90.1518 53.3878 90.5914 53.2167 91.0457L55.0918 91.7555C55.2251 91.4015 55.3869 91.059 55.5754 90.7312L53.8374 89.7312ZM56.8968 86.0335C55.7106 87.1067 54.6849 88.3442 53.8509 89.7085L55.562 90.7539C56.2969 89.5517 57.2007 88.4613 58.2459 87.5157L56.8968 86.0335ZM63.3586 81.7263C60.9986 82.8311 58.8197 84.2837 56.8947 86.0354L58.248 87.5137C60.0254 85.8963 62.0372 84.5552 64.2161 83.5352L63.3586 81.7263ZM64.5369 77.3926C63.6715 78.9723 63.0837 80.689 62.7986 82.4689L64.7761 82.7926C65.0253 81.2371 65.539 79.7368 66.2953 78.3564L64.5369 77.3926ZM67.3736 73.1579C66.308 74.4843 65.3594 75.9004 64.5381 77.3904L66.294 78.3586C67.06 76.9689 67.9448 75.6482 68.9386 74.4111L67.3736 73.1579ZM73.8711 66.0575C71.4451 68.1943 69.2578 70.5864 67.3469 73.1926L68.9653 74.3764C70.7915 71.8856 72.8819 69.5994 75.2004 67.5573L73.8711 66.0575ZM75.768 64.4901C75.2446 64.898 74.4651 65.5322 73.8696 66.0588L75.2019 67.5559C75.758 67.0642 76.5039 66.4569 77.0054 66.0661L75.768 64.4901ZM76.4923 63.8567C76.2062 64.1187 75.9815 64.3237 75.768 64.4901L77.0054 66.0661C77.2933 65.8417 77.5789 65.5793 77.8503 65.3308L76.4923 63.8567ZM77.5101 62.9661C77.1192 63.2823 76.7815 63.5919 76.4923 63.8567L77.8503 65.3308C78.1431 65.0627 78.4387 64.7924 78.7758 64.5197L77.5101 62.9661ZM80.5033 61.4315C79.3968 61.7162 78.3694 62.2445 77.4962 62.9776L78.7897 64.5082C79.4351 63.9664 80.1943 63.5761 81.0118 63.3656L80.5033 61.4315ZM83.0892 60.9406C82.2196 61.0526 81.3577 61.2161 80.5081 61.4302L81.007 63.3669C81.7797 63.1721 82.5635 63.0234 83.3544 62.9216L83.0892 60.9406ZM92.9637 60.5039C89.658 60.3114 86.3427 60.4586 83.0704 60.9432L83.3732 62.919C86.5097 62.4545 89.6874 62.3134 92.856 62.498L92.9637 60.5039ZM102.602 61.7186C99.4189 61.1102 96.2008 60.7045 92.9675 60.5042L92.8523 62.4977C96.0006 62.6928 99.1342 63.0878 102.234 63.6802L102.602 61.7186ZM107.257 62.6248L102.606 61.7192L102.231 63.6796L106.882 64.5852L107.257 62.6248ZM109.58 63.0976L107.265 62.6265L106.873 64.5835L109.188 65.0546L109.58 63.0976ZM111.324 63.3541C110.626 63.2765 110.059 63.2117 109.614 63.1051L109.154 65.0471C109.747 65.1892 110.453 65.266 111.111 65.3392L111.324 63.3541ZM111.704 63.3968C111.575 63.3821 111.448 63.3679 111.324 63.3541L111.111 65.3392C111.235 65.353 111.36 65.3669 111.485 65.3812L111.704 63.3968ZM114.241 63.8004C113.354 63.6173 112.547 63.4933 111.704 63.3968L111.485 65.3812C112.274 65.4716 113.022 65.5866 113.844 65.7563L114.241 63.8004ZM115.759 64.2427C115.265 64.0558 114.759 63.908 114.242 63.8007L113.842 65.756C114.255 65.8418 114.66 65.96 115.055 66.1094L115.759 64.2427ZM117.203 65.0017C116.756 64.7224 116.29 64.4755 115.808 64.2629L115.005 66.0891C115.399 66.2629 115.78 66.4647 116.145 66.6929L117.203 65.0017ZM121.344 68.3116C120.095 67.0551 118.706 65.9449 117.205 65.0028L116.144 66.6919C117.515 67.5526 118.784 68.5669 119.925 69.7147L121.344 68.3116ZM121.485 68.4528C121.437 68.4051 121.389 68.3573 121.341 68.3094L119.927 69.7169C119.975 69.7647 120.022 69.8124 120.07 69.8601L121.485 68.4528ZM127.871 73.2977C125.604 72.543 123.73 70.698 121.485 68.4528L120.07 69.8601C122.225 72.0147 124.439 74.258 127.245 75.1921L127.871 73.2977ZM129.907 73.9848L127.875 73.2991L127.241 75.1908L129.273 75.8765L129.907 73.9848ZM130.607 74.8623L130.556 74.6743L128.623 75.1869L128.674 75.3749L130.607 74.8623ZM130.365 76.3458L130.612 75.3659L128.669 74.8714L128.423 75.8512L130.365 76.3458ZM128.403 77.7978L129.886 76.9706L128.902 75.2264L127.42 76.0535L128.403 77.7978ZM128.332 77.9299C128.348 77.8645 128.389 77.8082 128.446 77.7727L127.377 76.0786C126.879 76.3899 126.523 76.8836 126.385 77.4544L128.332 77.9299ZM128.332 77.9825C128.328 77.9649 128.328 77.9467 128.333 77.9292L126.385 77.4551C126.313 77.7541 126.307 78.0654 126.368 78.3675L128.332 77.9825ZM128.556 78.8085C128.466 78.5329 128.39 78.2529 128.329 77.9696L126.371 78.3804C126.447 78.732 126.541 79.0796 126.653 79.4215L128.556 78.8085ZM128.779 80.6612C128.803 80.0523 128.732 79.4429 128.57 78.8544L126.639 79.3756C126.747 79.7666 126.794 80.1715 126.778 80.5762L128.779 80.6612ZM128.723 81.4568C128.744 81.2509 128.774 80.9688 128.78 80.6415L126.778 80.5959C126.773 80.8283 126.753 81.0333 126.731 81.2413L128.723 81.4568ZM128.696 81.7677C128.697 81.7058 128.706 81.62 128.723 81.4567L126.731 81.2413C126.717 81.3782 126.697 81.5541 126.694 81.7151L128.696 81.7677ZM128.683 81.8205C128.688 81.8413 128.69 81.8632 128.687 81.8847L126.703 81.5981C126.669 81.8436 126.685 82.0936 126.749 82.3332L128.683 81.8205ZM128.654 81.7629C128.667 81.7801 128.677 81.7997 128.683 81.8205L126.749 82.3332C126.814 82.5727 126.927 82.797 127.081 82.9925L128.654 81.7629ZM132.754 83.2619C131.212 82.9253 129.735 82.3379 128.382 81.5233L127.353 83.2321C128.894 84.1602 130.577 84.8294 132.334 85.213L132.754 83.2619ZM133.976 83.5015C133.543 83.4325 133.158 83.3646 132.788 83.2701L132.299 85.2049C132.763 85.3234 133.225 85.403 133.668 85.4738L133.976 83.5015ZM134.586 83.5693L133.93 83.4953L133.714 85.48L134.37 85.554L134.586 83.5693ZM135.786 83.8693C135.413 83.7396 135.029 83.6418 134.639 83.5767L134.317 85.5466C134.595 85.5931 134.869 85.663 135.136 85.7555L135.786 83.8693ZM138.294 84.7999C137.503 84.4802 136.705 84.1571 135.758 83.8599L135.164 85.7649C136.025 86.0349 136.753 86.3288 137.55 86.6507L138.294 84.7999ZM138.594 84.921C138.494 84.8806 138.394 84.8403 138.294 84.7999L137.55 86.6507C137.649 86.691 137.75 86.7318 137.852 86.7728L138.594 84.921ZM143.847 87.0996L138.604 84.925L137.842 86.7688L143.085 88.9434L143.847 87.0996ZM145.132 87.623L143.841 87.0972L143.091 88.9458L144.381 89.4716L145.132 87.623ZM103.65 90.6508C104.094 90.5779 104.53 90.4624 104.951 90.3059L104.244 88.4337C103.944 88.5454 103.633 88.6278 103.316 88.6799L103.65 90.6508ZM98.2074 86.9718C98.2529 88.2039 98.8406 89.3119 99.8556 90.0126C100.866 90.7103 102.209 90.9454 103.688 90.6438L103.278 88.6868C102.229 88.9008 101.468 88.7017 100.99 88.3719C100.517 88.0452 100.232 87.5326 100.209 86.9074L98.2074 86.9718ZM98.5061 85.6648C98.4269 85.6859 98.273 85.6946 98.1168 85.6096C97.9832 85.5369 97.959 85.455 97.9882 85.5139C98.0598 85.6581 98.1742 86.0712 98.2074 86.9718L100.209 86.9074C100.173 85.9508 100.052 85.1786 99.7823 84.6345C99.6408 84.3492 99.4193 84.0474 99.0697 83.8571C98.6975 83.6546 98.3087 83.6481 97.9834 83.7343L98.5061 85.6648ZM97.7184 86.963C97.9158 86.3775 98.2992 85.8731 98.8105 85.5261L97.679 83.8731C96.8084 84.4639 96.1558 85.3224 95.8199 86.3187L97.7184 86.963ZM96.9291 87.633L97.0305 87.6061L96.5078 85.6756L96.4065 85.7025L96.9291 87.633ZM96.5634 87.6824C96.7451 87.6876 96.9257 87.6509 97.0911 87.5747L96.2445 85.7608C96.3596 85.7077 96.4853 85.6822 96.6115 85.6858L96.5634 87.6824ZM96.0416 87.5448C96.2034 87.6305 96.3821 87.6772 96.5633 87.6824L96.6116 85.6858C96.7374 85.6894 96.8616 85.7218 96.9744 85.7815L96.0416 87.5448ZM95.6344 87.1906C95.7412 87.3385 95.8806 87.4596 96.0415 87.5448L96.9745 85.7816C97.0862 85.8408 97.1831 85.925 97.2574 86.0278L95.6344 87.1906ZM95.4267 86.6939C95.4567 86.8731 95.5278 87.0431 95.6345 87.1907L97.2574 86.0277C97.3315 86.1303 97.3809 86.2485 97.4018 86.373L95.4267 86.6939ZM98.7167 80.8275C98.1966 80.9654 97.1902 81.2731 96.4055 82.1955C95.5968 83.1461 95.1658 84.5728 95.4203 86.6502L97.4081 86.4167C97.201 84.7261 97.5815 83.9073 97.9349 83.4918C98.3123 83.0482 98.8187 82.8695 99.2394 82.758L98.7167 80.8275ZM107.865 79.9871C104.819 79.9755 101.78 80.2514 98.7892 80.8111L99.167 82.7743C102.034 82.2378 104.947 81.9734 107.867 81.9845L107.865 79.9871ZM108.585 80.1582C108.333 80.0214 108.046 79.9636 107.762 79.9921L107.971 81.9795C107.854 81.9911 107.737 81.9675 107.634 81.9115L108.585 80.1582ZM109.173 80.7582C109.042 80.5042 108.837 80.295 108.585 80.1582L107.634 81.9115C107.53 81.8555 107.447 81.7699 107.393 81.6662L109.173 80.7582ZM109.32 81.5827C109.355 81.2995 109.304 81.0122 109.173 80.7582L107.393 81.6661C107.34 81.5624 107.319 81.445 107.333 81.3291L109.32 81.5827ZM108.976 82.3447C109.166 82.1312 109.285 81.8656 109.32 81.5827L107.333 81.3292C107.347 81.2136 107.396 81.1049 107.474 81.0175L108.976 82.3447ZM108.696 83.3277C108.718 82.9377 108.844 82.561 109.06 82.2363L107.39 81.1259C106.978 81.745 106.738 82.4632 106.697 83.2068L108.696 83.3277ZM108.935 84.456C108.756 84.1072 108.674 83.7178 108.696 83.3277L106.697 83.2068C106.655 83.9503 106.812 84.6925 107.152 85.3573L108.935 84.456ZM104.964 90.301C106.293 89.7864 107.473 88.9958 108.246 88.0388C109.018 87.0817 109.467 85.8301 108.979 84.554L107.108 85.2593C107.255 85.6435 107.189 86.1561 106.684 86.7817C106.178 87.4074 105.317 88.0183 104.232 88.4385L104.964 90.301Z"
    fill="#B6792B" mask="url(#path-31-inside-1_641_10091)" />
  <g filter="url(#filter0_ddd_641_10091)">
    <rect x="32.6968" y="172.5" width="155.606" height="27" rx="13.5" fill="#22C480" stroke="#22C480" />
    <path
      d="M52.8668 190.062C50.6828 190.062 49.3528 188.312 49.3528 186.1C49.3528 183.888 50.6828 182.138 52.8808 182.138C54.3648 182.138 55.4428 182.936 55.9188 184.126L57.0808 183.916C56.4508 182.138 54.8408 181.06 52.8528 181.06C49.9968 181.06 48.1768 183.258 48.1768 186.1C48.1768 188.942 49.9968 191.14 52.9088 191.14C54.8828 191.14 56.4788 190.118 57.1368 188.284L55.9748 188.074C55.4848 189.278 54.3228 190.062 52.8668 190.062ZM62.3181 183.86C60.1901 183.86 58.7341 185.414 58.7341 187.5C58.7341 189.586 60.1901 191.14 62.3181 191.14C64.4321 191.14 65.8741 189.586 65.8741 187.5C65.8741 185.414 64.4181 183.86 62.3181 183.86ZM62.3041 190.118C60.7921 190.118 59.8821 189.012 59.8821 187.5C59.8821 185.988 60.7921 184.882 62.3041 184.882C63.8161 184.882 64.7261 185.988 64.7261 187.5C64.7261 189.012 63.8161 190.118 62.3041 190.118ZM75.4313 183.86C74.4233 183.86 73.5273 184.378 73.0653 185.386C72.7573 184.49 71.9593 183.86 70.9513 183.86C70.1253 183.86 69.3133 184.308 68.8653 185.176V184H67.7453V191H68.8653V187.234C68.8653 186.044 69.5093 184.882 70.7133 184.882C71.6933 184.882 72.2533 185.638 72.2533 186.702V191H73.3733V187.234C73.3733 186.044 73.9753 184.882 75.1793 184.882C76.1453 184.882 76.7053 185.638 76.7053 186.702V191H77.8253V186.674C77.8253 185.12 76.9573 183.86 75.4313 183.86ZM87.7289 183.86C86.7209 183.86 85.8249 184.378 85.3629 185.386C85.0549 184.49 84.2569 183.86 83.2489 183.86C82.4229 183.86 81.6109 184.308 81.1629 185.176V184H80.0429V191H81.1629V187.234C81.1629 186.044 81.8069 184.882 83.0109 184.882C83.9909 184.882 84.5509 185.638 84.5509 186.702V191H85.6709V187.234C85.6709 186.044 86.2729 184.882 87.4769 184.882C88.4429 184.882 89.0029 185.638 89.0029 186.702V191H90.1229V186.674C90.1229 185.12 89.2549 183.86 87.7289 183.86ZM94.8885 191.14C95.8265 191.14 96.7085 190.622 97.1845 189.81V191H98.3045V184H97.1845V187.612C97.1845 188.886 96.4705 190.118 95.0845 190.118C94.0345 190.118 93.4325 189.334 93.4325 188.312V184H92.3125V188.578C92.3125 190.006 93.4885 191.14 94.8885 191.14ZM103.98 183.86C103.042 183.86 102.146 184.378 101.67 185.19V184H100.55V191H101.67V187.388C101.67 186.114 102.384 184.882 103.784 184.882C104.862 184.882 105.45 185.666 105.45 186.688V191H106.57V186.422C106.57 185.008 105.38 183.86 103.98 183.86ZM109.473 182.306C109.907 182.306 110.243 181.97 110.243 181.536C110.243 181.102 109.907 180.766 109.473 180.766C109.039 180.766 108.703 181.102 108.703 181.536C108.703 181.97 109.039 182.306 109.473 182.306ZM110.033 191V184H108.913V191H110.033ZM115.426 184.938V184H113.9V182.026L112.808 182.208V184H111.674V184.938H112.794V189.11C112.794 190.37 113.354 191.14 114.67 191.14C114.936 191.14 115.216 191.112 115.482 191.056V190.034C115.286 190.104 115.076 190.132 114.88 190.132C114.012 190.132 113.914 189.726 113.914 188.942V184.938H115.426ZM121.814 184L119.868 189.432L117.782 184H116.606L119.322 190.706L117.992 194.08H119.196L122.99 184H121.814ZM134.856 182.278V181.2H128.696V191H134.856V189.922H129.872V186.618H134.296V185.568H129.872V182.278H134.856ZM143.634 180.92H142.514V185.176C141.996 184.364 141.058 183.86 139.952 183.86C138.02 183.86 136.634 185.414 136.634 187.486C136.634 189.572 138.02 191.14 139.952 191.14C141.044 191.14 141.996 190.636 142.514 189.824V191H143.634V180.92ZM142.514 187.5C142.514 188.984 141.632 190.118 140.12 190.118C138.706 190.118 137.754 189.124 137.754 187.5C137.754 185.89 138.692 184.882 140.12 184.882C141.632 184.882 142.514 186.016 142.514 187.5ZM146.618 182.306C147.052 182.306 147.388 181.97 147.388 181.536C147.388 181.102 147.052 180.766 146.618 180.766C146.184 180.766 145.848 181.102 145.848 181.536C145.848 181.97 146.184 182.306 146.618 182.306ZM147.178 191V184H146.058V191H147.178ZM152.571 184.938V184H151.045V182.026L149.953 182.208V184H148.819V184.938H149.939V189.11C149.939 190.37 150.499 191.14 151.815 191.14C152.081 191.14 152.361 191.112 152.627 191.056V190.034C152.431 190.104 152.221 190.132 152.025 190.132C151.157 190.132 151.059 189.726 151.059 188.942V184.938H152.571ZM155.053 182.306C155.487 182.306 155.823 181.97 155.823 181.536C155.823 181.102 155.487 180.766 155.053 180.766C154.619 180.766 154.283 181.102 154.283 181.536C154.283 181.97 154.619 182.306 155.053 182.306ZM155.613 191V184H154.493V191H155.613ZM161.203 183.86C159.075 183.86 157.619 185.414 157.619 187.5C157.619 189.586 159.075 191.14 161.203 191.14C163.317 191.14 164.759 189.586 164.759 187.5C164.759 185.414 163.303 183.86 161.203 183.86ZM161.189 190.118C159.677 190.118 158.767 189.012 158.767 187.5C158.767 185.988 159.677 184.882 161.189 184.882C162.701 184.882 163.611 185.988 163.611 187.5C163.611 189.012 162.701 190.118 161.189 190.118ZM170.06 183.86C169.122 183.86 168.226 184.378 167.75 185.19V184H166.63V191H167.75V187.388C167.75 186.114 168.464 184.882 169.864 184.882C170.942 184.882 171.53 185.666 171.53 186.688V191H172.65V186.422C172.65 185.008 171.46 183.86 170.06 183.86Z"
      fill="#002522" />
  </g>
  <defs>
    <filter id="filter0_ddd_641_10091" x="12" y="170" width="197" height="62" filterUnits="userSpaceOnUse"
      color-interpolation-filters="sRGB">
      <feFlood flood-opacity="0" result="BackgroundImageFix" />
      <feColorMatrix in="SourceAlpha" type="matrix" values="0 0 0 0 0 0 0 0 0 0 0 0 0 0 0 0 0 0 127 0"
        result="hardAlpha" />
      <feOffset dy="2" />
      <feGaussianBlur stdDeviation="2" />
      <feColorMatrix type="matrix" values="0 0 0 0 0 0 0 0 0 0.0784314 0 0 0 0 0.0745098 0 0 0 0.34 0" />
      <feBlend mode="normal" in2="BackgroundImageFix" result="effect1_dropShadow_641_10091" />
      <feColorMatrix in="SourceAlpha" type="matrix" values="0 0 0 0 0 0 0 0 0 0 0 0 0 0 0 0 0 0 127 0"
        result="hardAlpha" />
      <feOffset dy="6" />
      <feGaussianBlur stdDeviation="4" />
      <feColorMatrix type="matrix" values="0 0 0 0 0 0 0 0 0 0.0784314 0 0 0 0 0.0745098 0 0 0 0.24 0" />
      <feBlend mode="normal" in2="effect1_dropShadow_641_10091" result="effect2_dropShadow_641_10091" />
      <feColorMatrix in="SourceAlpha" type="matrix" values="0 0 0 0 0 0 0 0 0 0 0 0 0 0 0 0 0 0 127 0"
        result="hardAlpha" />
      <feOffset dy="16" />
      <feGaussianBlur stdDeviation="8" />
      <feColorMatrix type="matrix" values="0 0 0 0 0 0 0 0 0 0.0784314 0 0 0 0 0.0745098 0 0 0 0.14 0" />
      <feBlend mode="normal" in2="effect2_dropShadow_641_10091" result="effect3_dropShadow_641_10091" />
      <feBlend mode="normal" in="SourceGraphic" in2="effect3_dropShadow_641_10091" result="shape" />
    </filter>
    <linearGradient id="paint0_linear_641_10091" x1="151.099" y1="-89.1268" x2="101.931" y2="163.907"
      gradientUnits="userSpaceOnUse">
      <stop stop-color="#FEFEFC" />
      <stop offset="1" stop-color="#ECD2B0" />
    </linearGradient>
    <linearGradient id="paint1_linear_641_10091" x1="151.099" y1="-89.1268" x2="101.931" y2="163.907"
      gradientUnits="userSpaceOnUse">
      <stop stop-color="#FEFEFC" />
      <stop offset="1" stop-color="#ECD2B0" />
    </linearGradient>
  </defs>
</svg>