<svg width="1114" height="669" viewBox="0 0 1114 669" fill="none" xmlns="http://www.w3.org/2000/svg">
  <line x1="77.5015" y1="2.18557e-08" x2="77.5014" y2="669" stroke="#002522" />
  <line x1="37.501" y1="2.18557e-08" x2="37.5009" y2="669" stroke="#002522" />
  <line x1="117.502" y1="2.18557e-08" x2="117.502" y2="669" stroke="#002522" />
  <line x1="157.502" y1="2.18557e-08" x2="157.502" y2="669" stroke="#002522" />
  <line x1="197.501" y1="2.18557e-08" x2="197.501" y2="669" stroke="#002522" />
  <line x1="237.502" y1="2.18557e-08" x2="237.502" y2="669" stroke="#002522" />
  <line x1="277.502" y1="2.18557e-08" x2="277.502" y2="669" stroke="#002522" />
  <line x1="317.501" y1="2.18557e-08" x2="317.501" y2="669" stroke="#002522" />
  <line x1="357.501" y1="2.18557e-08" x2="357.501" y2="669" stroke="#002522" />
  <line x1="397.501" y1="2.18557e-08" x2="397.501" y2="669" stroke="#002522" />
  <line x1="437.501" y1="2.18557e-08" x2="437.501" y2="669" stroke="#002522" />
  <line x1="477.502" y1="2.18557e-08" x2="477.502" y2="669" stroke="#002522" />
  <line x1="517.502" y1="2.18557e-08" x2="517.502" y2="669" stroke="#002522" />
  <line x1="557.501" y1="2.18557e-08" x2="557.501" y2="669" stroke="#002522" />
  <line x1="597.501" y1="2.18557e-08" x2="597.501" y2="669" stroke="#002522" />
  <line x1="637.501" y1="2.18557e-08" x2="637.501" y2="669" stroke="#002522" />
  <line x1="677.501" y1="2.18557e-08" x2="677.501" y2="669" stroke="#002522" />
  <line x1="717.501" y1="2.18557e-08" x2="717.501" y2="669" stroke="#002522" />
  <line x1="757.501" y1="2.18557e-08" x2="757.501" y2="669" stroke="#002522" />
  <line x1="797.501" y1="2.18557e-08" x2="797.501" y2="669" stroke="#002522" />
  <line x1="837.501" y1="2.18557e-08" x2="837.501" y2="669" stroke="#002522" />
  <line x1="877.501" y1="2.18557e-08" x2="877.501" y2="669" stroke="#002522" />
  <line x1="917.501" y1="2.18557e-08" x2="917.501" y2="669" stroke="#002522" />
  <line x1="957.501" y1="2.18557e-08" x2="957.501" y2="669" stroke="#002522" />
  <line x1="997.501" y1="2.18557e-08" x2="997.501" y2="669" stroke="#002522" />
  <line x1="1037.5" y1="2.18557e-08" x2="1037.5" y2="669" stroke="#002522" />
  <line x1="1077.5" y1="2.18557e-08" x2="1077.5" y2="669" stroke="#002522" />
  <line x1="1114" y1="29.501" x2="-6.97628e-08" y2="29.5009" stroke="#002522" />
  <line x1="1114" y1="69.501" x2="-6.97628e-08" y2="69.5009" stroke="#002522" />
  <line x1="1114" y1="109.501" x2="-6.97628e-08" y2="109.501" stroke="#002522" />
  <line x1="1114" y1="149.501" x2="-6.97628e-08" y2="149.501" stroke="#002522" />
  <line x1="1114" y1="189.501" x2="-6.97628e-08" y2="189.501" stroke="#002522" />
  <line x1="1114" y1="229.501" x2="-6.97628e-08" y2="229.501" stroke="#002522" />
  <line x1="1114" y1="269.501" x2="-6.97628e-08" y2="269.501" stroke="#002522" />
  <line x1="1114" y1="309.501" x2="-6.97628e-08" y2="309.501" stroke="#002522" />
  <line x1="1114" y1="349.501" x2="-6.97628e-08" y2="349.501" stroke="#002522" />
  <line x1="1114" y1="389.5" x2="-6.97628e-08" y2="389.5" stroke="#002522" />
  <line x1="1114" y1="429.5" x2="-6.97628e-08" y2="429.5" stroke="#002522" />
  <line x1="1114" y1="469.5" x2="-6.97628e-08" y2="469.5" stroke="#002522" />
  <line x1="1114" y1="509.5" x2="-6.97628e-08" y2="509.5" stroke="#002522" />
  <line x1="1114" y1="549.5" x2="-6.97628e-08" y2="549.5" stroke="#002522" />
  <line x1="1114" y1="589.5" x2="-6.97628e-08" y2="589.5" stroke="#002522" />
  <line x1="1114" y1="629.5" x2="-6.97628e-08" y2="629.5" stroke="#002522" />
</svg>