<svg width="24" height="23" viewBox="0 0 24 23" fill="none" xmlns="http://www.w3.org/2000/svg">
  <path
    d="M21.0854 1.99008C21.0854 1.99008 21.0854 1.99798 21.0854 2.01377C21.0854 2.02957 21.1012 2.03746 21.1327 2.03746C21.117 2.03746 21.1012 2.03746 21.0854 2.03746C21.0854 2.03746 21.0854 2.02167 21.0854 1.99008ZM7.53387 10.5664C7.54967 10.5822 7.55756 10.6059 7.55756 10.6374C7.57336 10.6532 7.59705 10.6611 7.62864 10.6611C7.61284 10.6453 7.59705 10.6374 7.58125 10.6374C7.58125 10.6217 7.56546 10.598 7.53387 10.5664ZM3.98016 3.12727C3.99595 3.12727 4.00385 3.11937 4.00385 3.10358C4.01964 3.08778 4.04334 3.07988 4.07492 3.07988C4.07492 3.09568 4.08282 3.11147 4.09862 3.12727C4.11441 3.12727 4.12231 3.12727 4.12231 3.12727C4.10651 3.12727 4.08282 3.12727 4.05123 3.12727C4.03544 3.12727 4.01175 3.12727 3.98016 3.12727ZM1.75317 2.17961C1.75317 2.19541 1.75317 2.2033 1.75317 2.2033C1.75317 2.18751 1.75317 2.16382 1.75317 2.13223V2.08485V2.17961ZM0.426446 7.96032C0.426446 7.97611 0.418548 7.99191 0.402754 8.0077C0.38696 8.0077 0.379063 8.0077 0.379063 8.0077L0.426446 7.96032C0.426446 7.94452 0.434343 7.92873 0.450137 7.91293C0.465931 7.88135 0.473828 7.84976 0.473828 7.81817C0.458034 7.81817 0.44224 7.83396 0.426446 7.86555C0.426446 7.88135 0.426446 7.91293 0.426446 7.96032ZM10.8507 6.49145C10.8665 6.49145 10.8823 6.48355 10.8981 6.46776C10.9296 6.45196 10.9612 6.42827 10.9928 6.39668C11.0086 6.39668 11.0165 6.39668 11.0165 6.39668C11.0323 6.39668 11.0402 6.38089 11.0402 6.3493C11.0244 6.3651 11.0007 6.38879 10.9691 6.42038C10.9533 6.43617 10.9296 6.45986 10.8981 6.49145C10.8981 6.49145 10.8902 6.49145 10.8744 6.49145C10.8586 6.49145 10.8349 6.50724 10.8033 6.53883C10.8191 6.53883 10.827 6.53094 10.827 6.51514C10.8428 6.49935 10.8507 6.49145 10.8507 6.49145ZM11.2771 6.11239C11.2771 6.11239 11.2771 6.10449 11.2771 6.0887C11.2771 6.0729 11.2771 6.04921 11.2771 6.01762C11.2771 6.00183 11.285 5.98603 11.3008 5.97024C11.3166 5.93865 11.3245 5.90706 11.3245 5.87547L11.3719 5.78071C11.3719 5.78071 11.3798 5.78071 11.3956 5.78071C11.4114 5.78071 11.4193 5.78071 11.4193 5.78071C11.4035 5.7965 11.3877 5.82019 11.3719 5.85178C11.3719 5.86758 11.3719 5.89127 11.3719 5.92286C11.3719 5.93865 11.3719 5.95444 11.3719 5.97024C11.3719 5.98603 11.364 6.00972 11.3482 6.04131C11.3324 6.05711 11.3087 6.0808 11.2771 6.11239ZM11.4193 5.59118C11.4193 5.59118 11.4193 5.60697 11.4193 5.63856C11.4193 5.63856 11.4193 5.65435 11.4193 5.68594V5.63856C11.4193 5.62276 11.4193 5.60697 11.4193 5.59118C11.4193 5.57538 11.4193 5.57538 11.4193 5.59118ZM11.4666 5.68594C11.4824 5.68594 11.4903 5.68594 11.4903 5.68594C11.4903 5.68594 11.4824 5.68594 11.4666 5.68594C11.4824 5.68594 11.4824 5.68594 11.4666 5.68594V5.73332C11.4666 5.71753 11.4666 5.70963 11.4666 5.70963C11.4666 5.69384 11.4666 5.68594 11.4666 5.68594ZM22.8385 13.741C22.8385 13.7568 22.8385 13.7647 22.8385 13.7647C22.8385 13.7647 22.8385 13.7568 22.8385 13.741C22.8227 13.7568 22.8069 13.7805 22.7911 13.8121C22.7911 13.8279 22.7754 13.8516 22.7438 13.8832C22.7596 13.8674 22.7675 13.8516 22.7675 13.8358C22.7832 13.8042 22.8069 13.7726 22.8385 13.741C23.186 13.0619 23.5019 12.13 23.7862 10.9454C24.0863 9.74507 24.0705 8.5605 23.7388 7.39172V7.29696C23.723 7.28116 23.7072 7.26537 23.6914 7.24958C23.6914 7.21799 23.6914 7.1864 23.6914 7.15481V7.10743C23.6914 7.10743 23.6835 7.09953 23.6677 7.08373C23.6519 7.06794 23.644 7.06004 23.644 7.06004C23.644 7.07584 23.6046 7.21799 23.5256 7.48649C23.4466 7.75499 23.3439 8.10247 23.2176 8.52891C23.2808 7.89714 23.2808 7.24958 23.2176 6.58622C23.1702 5.90706 23.0281 5.2595 22.7911 4.64352C22.6806 4.34343 22.5621 4.07492 22.4358 3.83801C22.3094 3.5853 22.1752 3.36418 22.033 3.17465C21.8751 2.89035 21.7013 2.64554 21.5118 2.44022C21.3381 2.23489 21.1801 2.08485 21.038 1.99008L21.0854 2.03746C21.0696 2.02167 21.0538 2.01377 21.038 2.01377C21.038 1.99798 21.038 1.99008 21.038 1.99008C21.038 2.00587 21.0459 2.04536 21.0617 2.10854C21.0775 2.15592 21.1012 2.24279 21.1327 2.36914C20.8327 1.89531 20.501 1.53994 20.1377 1.30303C19.7744 1.06611 19.5533 0.931863 19.4743 0.900274H19.427C19.427 0.900274 19.4349 0.971348 19.4507 1.1135C19.4822 1.25565 19.5217 1.46887 19.5691 1.75317C19.0953 1.3741 18.5662 1.03453 17.9818 0.734434C17.3974 0.434343 16.7735 0.189531 16.1102 0C17.2158 0.726537 18.0134 1.40569 18.503 2.03746C19.0084 2.66923 19.3954 3.26942 19.6639 3.83801C19.3796 3.53792 19.0084 3.25362 18.5504 2.98512C18.1081 2.71662 17.7212 2.55867 17.3895 2.51129C17.6422 2.70082 17.9186 2.98512 18.2187 3.36418C18.5346 3.72745 18.8268 4.18548 19.0953 4.73828C19.3638 5.27529 19.577 5.89916 19.735 6.60991C19.9087 7.32065 19.9798 8.10247 19.9482 8.95536C19.7113 8.37097 19.4664 7.95242 19.2137 7.69971C18.9768 7.43121 18.8584 7.29696 18.8584 7.29696C18.8584 7.29696 18.8584 7.30486 18.8584 7.32065C18.8584 7.33644 18.8584 7.34434 18.8584 7.34434L18.811 7.29696C18.9058 7.91293 18.961 8.44994 18.9768 8.90797C18.9926 9.36601 19.0005 9.76087 19.0005 10.0925C19.0005 10.0925 19.0005 10.1004 19.0005 10.1162C19.0005 10.132 19.0005 10.1399 19.0005 10.1399C19.0005 10.1557 19.0005 10.1794 19.0005 10.211C19.0005 10.2426 19.0005 10.2821 19.0005 10.3295C19.0005 10.3453 19.0005 10.3689 19.0005 10.4005C19.0005 10.4163 19.0005 10.44 19.0005 10.4716C19.0005 10.4874 19.0005 10.5111 19.0005 10.5427C19.0005 10.5585 19.0005 10.5822 19.0005 10.6138C19.0005 10.6296 19.0005 10.6532 19.0005 10.6848C19.0005 10.7006 19.0005 10.7243 19.0005 10.7559C19.0005 10.7717 19.0005 10.7954 19.0005 10.827C19.0005 10.8428 19.0005 10.8665 19.0005 10.8981C18.9531 11.1824 18.9058 11.4272 18.8584 11.6325C18.811 11.8378 18.7636 12.051 18.7162 12.2722C18.653 11.9879 18.5899 11.7746 18.5267 11.6325C18.4635 11.4903 18.4319 11.4193 18.4319 11.4193V11.4666C18.4319 11.4666 18.4319 11.4588 18.4319 11.443C18.4319 11.4272 18.4319 11.4193 18.4319 11.4193C18.4319 11.4193 18.3924 11.6641 18.3135 12.1537C18.2503 12.6433 18.0371 13.2672 17.6738 14.0253C17.658 14.0885 17.6264 14.1675 17.579 14.2622C17.5317 14.3412 17.4843 14.4202 17.4369 14.4992C17.4369 14.4992 17.4369 14.507 17.4369 14.5228C17.4369 14.5386 17.4211 14.5465 17.3895 14.5465C17.3895 14.5623 17.3895 14.5781 17.3895 14.5939C17.3895 14.5939 17.3737 14.6097 17.3421 14.6413L17.2947 14.7361C17.2947 14.7361 17.2947 14.744 17.2947 14.7598C17.2947 14.7755 17.2789 14.7834 17.2474 14.7834C17.2474 14.7992 17.2474 14.815 17.2474 14.8308C17.2474 14.8308 17.2316 14.8466 17.2 14.8782C17.0578 15.0362 16.9315 15.1625 16.8209 15.2573C16.7261 15.352 16.6314 15.4152 16.5366 15.4468C16.5208 15.4626 16.4971 15.4784 16.4655 15.4942C16.4497 15.4942 16.4261 15.4942 16.3945 15.4942C16.3787 15.4942 16.3629 15.4863 16.3471 15.4705C16.3471 15.4547 16.3313 15.4468 16.2997 15.4468C16.3155 15.3836 16.3234 15.3205 16.3234 15.2573C16.3234 15.1783 16.3155 15.1151 16.2997 15.0677C16.2997 15.0677 16.2602 15.0835 16.1812 15.1151C16.1181 15.1467 16.047 15.2099 15.968 15.3047C15.9206 15.352 15.8811 15.3994 15.8496 15.4468C15.818 15.4784 15.7785 15.51 15.7311 15.5416C15.7311 15.5416 15.7548 15.51 15.8022 15.4468C15.8496 15.3836 15.8733 15.352 15.8733 15.352C15.8259 15.3678 15.7785 15.3994 15.7311 15.4468C15.6837 15.4942 15.6363 15.5416 15.589 15.589C15.431 15.7469 15.281 15.9048 15.1388 16.0628C14.9967 16.2207 14.8782 16.2681 14.7834 16.2049C14.8782 16.1891 14.9493 16.1418 14.9967 16.0628C15.0441 15.968 15.0835 15.8733 15.1151 15.7785C15.0519 15.8259 14.9256 15.9048 14.7361 16.0154C14.5465 16.126 14.2622 16.2049 13.8832 16.2523C13.7252 16.2681 13.3462 16.2839 12.746 16.2997C12.1458 16.3155 11.4035 16.1102 10.519 15.6837C10.6295 15.6679 10.7717 15.6521 10.9454 15.6363C11.1192 15.6047 11.2771 15.6363 11.4193 15.7311C11.2771 15.5732 11.056 15.4863 10.7559 15.4705C10.4558 15.4547 10.1873 15.3994 9.9504 15.3047C9.71348 15.2415 9.46867 15.0914 9.21596 14.8545C8.96325 14.6018 8.75003 14.4044 8.57629 14.2622C9.16068 14.4044 9.74507 14.4518 10.3295 14.4044C10.9138 14.3412 11.4193 14.1991 11.8457 13.9779C11.8615 13.9621 11.8773 13.9542 11.8931 13.9542C11.9247 13.9385 11.9563 13.9148 11.9879 13.8832C12.0352 13.8674 12.0747 13.8516 12.1063 13.8358C12.1379 13.8042 12.1774 13.7726 12.2248 13.741C12.4617 13.5831 12.7302 13.4014 13.0303 13.1961C13.3462 12.9908 13.6147 12.8723 13.8358 12.8408C13.8516 12.8408 13.8674 12.8408 13.8832 12.8408C13.9148 12.8408 13.9463 12.8565 13.9779 12.8881C14.1833 12.9355 14.3333 12.8802 14.4281 12.7223C14.5386 12.5486 14.5149 12.3511 14.357 12.13C14.1991 11.9405 13.9148 11.7588 13.5041 11.5851C13.1093 11.3956 12.6354 11.3561 12.0826 11.4666C11.6404 11.5772 11.206 11.743 10.7796 11.9642C10.3689 12.1695 9.85563 12.1458 9.23965 11.8931C9.19227 11.8931 9.15279 11.8852 9.1212 11.8694C9.08961 11.8536 9.05012 11.8299 9.00274 11.7983C8.98695 11.7825 9.01853 11.7825 9.09751 11.7983C9.17648 11.8141 9.20807 11.8141 9.19227 11.7983C9.08171 11.7509 8.93956 11.6957 8.76583 11.6325C8.59209 11.5535 8.46573 11.4982 8.38676 11.4666C8.38676 11.4509 8.41835 11.4509 8.48153 11.4666C8.54471 11.4666 8.57629 11.4666 8.57629 11.4666C8.46573 11.4035 8.36307 11.3482 8.26831 11.3008C8.17354 11.2376 8.08667 11.1666 8.0077 11.0876C8.0077 11.0876 7.9998 11.0876 7.98401 11.0876C7.96821 11.0876 7.96032 11.0718 7.96032 11.0402C7.96032 11.0402 7.95242 11.0323 7.93663 11.0165C7.92083 11.0007 7.91293 10.9928 7.91293 10.9928C7.89714 10.977 7.87345 10.9612 7.84186 10.9454C7.82607 10.9138 7.81817 10.8981 7.81817 10.8981C7.81817 10.8981 7.81027 10.8902 7.79448 10.8744C7.77868 10.8586 7.77079 10.8507 7.77079 10.8507C7.58125 10.6138 7.48649 10.3926 7.48649 10.1873C7.50228 9.96619 7.53387 9.79245 7.58125 9.6661C7.59705 9.55554 7.64443 9.45288 7.7234 9.35811C7.80237 9.26335 7.86555 9.19227 7.91293 9.14489C7.92873 9.14489 7.93663 9.14489 7.93663 9.14489C7.95242 9.14489 7.96032 9.14489 7.96032 9.14489C8.05508 9.16068 8.12616 9.18437 8.17354 9.21596C8.22092 9.23176 8.24461 9.23965 8.24461 9.23965C8.24461 9.23965 8.22882 9.22386 8.19723 9.19227C8.16564 9.16068 8.13405 9.1291 8.10247 9.09751C8.11826 9.09751 8.12616 9.09751 8.12616 9.09751C8.14195 9.09751 8.14985 9.08171 8.14985 9.05012C8.21303 9.06592 8.29989 9.1054 8.41045 9.16858C8.53681 9.21596 8.63947 9.25545 8.71844 9.28704C8.829 9.33442 8.90797 9.3897 8.95536 9.45288C9.01853 9.50026 9.05012 9.52395 9.05012 9.52395C9.05012 9.52395 9.05012 9.51605 9.05012 9.50026C9.06592 9.46867 9.06592 9.42919 9.05012 9.3818C9.03433 9.36601 9.00274 9.32652 8.95536 9.26335C8.92377 9.20017 8.8448 9.14489 8.71844 9.09751C8.78162 9.1133 8.8369 9.13699 8.88428 9.16858C8.94746 9.18437 9.01853 9.20807 9.09751 9.23965C9.1133 9.14489 9.12909 9.05012 9.14489 8.95536C9.16068 8.8448 9.16068 8.70265 9.14489 8.52891C9.12909 8.41835 9.1212 8.33938 9.1212 8.292C9.1212 8.24461 9.09751 8.19723 9.05012 8.14985C9.03433 8.13406 9.03433 8.11826 9.05012 8.10247C9.08171 8.08667 9.1133 8.08667 9.14489 8.10247C9.14489 8.08667 9.13699 8.07088 9.1212 8.05508C9.1054 8.02349 9.09751 7.99191 9.09751 7.96032C9.08171 7.91293 9.06592 7.87345 9.05012 7.84186C9.03433 7.81027 9.00274 7.77079 8.95536 7.7234C8.95536 7.70761 8.95536 7.69971 8.95536 7.69971C8.95536 7.68392 8.93956 7.67602 8.90797 7.67602L8.81321 7.53387C8.79741 7.51808 8.77372 7.50228 8.74213 7.48649C8.72634 7.4549 8.71844 7.42331 8.71844 7.39172C8.76583 7.48649 8.81321 7.57336 8.86059 7.65233C8.92377 7.71551 8.97115 7.77079 9.00274 7.81817C9.01853 7.83396 9.02643 7.84976 9.02643 7.86555C9.04222 7.86555 9.06592 7.86555 9.09751 7.86555C9.14489 7.80237 9.24755 7.71551 9.40549 7.60495C9.57923 7.49439 9.77666 7.37593 9.99778 7.24958C10.0452 7.23378 10.0768 7.21799 10.0925 7.20219C10.1241 7.1706 10.1557 7.13902 10.1873 7.10743C10.0768 7.1706 9.9504 7.24958 9.80825 7.34434C9.68189 7.42331 9.57133 7.50228 9.47657 7.58125C9.3818 7.64443 9.30283 7.71551 9.23965 7.79448C9.17648 7.85766 9.12909 7.91293 9.09751 7.96032C9.28704 7.75499 9.64241 7.50228 10.1636 7.20219C10.7006 6.9021 11.056 6.66519 11.2297 6.49145C11.2455 6.47566 11.2613 6.46776 11.2771 6.46776C11.3087 6.45196 11.3245 6.42827 11.3245 6.39668C11.4193 6.33351 11.4903 6.26243 11.5377 6.18346C11.5851 6.10449 11.6246 6.01762 11.6562 5.92286C11.7036 5.82809 11.7352 5.69384 11.7509 5.5201C11.7667 5.33057 11.7036 5.19632 11.5614 5.11735C11.4666 5.10155 11.364 5.08576 11.2534 5.06996C11.1587 5.03838 11.0244 5.02258 10.8507 5.02258H10.8033C10.6611 5.02258 10.4953 5.02258 10.3058 5.02258C10.1162 5.02258 9.88722 5.02258 9.61872 5.02258C9.27124 5.02258 8.99484 4.90412 8.78952 4.66721C8.59999 4.4145 8.46573 4.21707 8.38676 4.07492C8.49732 3.68007 8.67106 3.3089 8.90797 2.96143C9.14489 2.59816 9.42918 2.27438 9.76087 1.99008C9.77666 1.99008 9.75297 1.99798 9.68979 2.01377C9.62661 2.01377 9.60292 2.00587 9.61872 1.99008C9.63451 1.97429 9.69769 1.9348 9.80825 1.87162C9.9346 1.79265 10.0136 1.75317 10.0452 1.75317C10.061 1.73737 9.99778 1.71368 9.85563 1.68209C9.71348 1.6505 9.55554 1.64261 9.3818 1.6584C9.22386 1.70578 9.1133 1.73737 9.05012 1.75317C8.98695 1.76896 8.90797 1.81634 8.81321 1.89531C8.81321 1.89531 8.80531 1.89531 8.78952 1.89531C8.77372 1.89531 8.76583 1.89531 8.76583 1.89531C8.81321 1.84793 8.87639 1.80845 8.95536 1.77686C9.03433 1.72947 9.06592 1.70578 9.05012 1.70578C8.86059 1.75317 8.66316 1.83214 8.45784 1.9427C8.25251 2.05326 8.05508 2.17961 7.86555 2.32176C7.86555 2.30597 7.86555 2.29017 7.86555 2.27438C7.86555 2.24279 7.86555 2.2112 7.86555 2.17961C7.77079 2.22699 7.64443 2.32176 7.48649 2.46391C7.34434 2.59026 7.23378 2.71662 7.15481 2.84297C7.15481 2.82718 7.15481 2.81138 7.15481 2.79559C7.15481 2.764 7.15481 2.73241 7.15481 2.70082C7.10743 2.7482 7.05215 2.80348 6.98897 2.86666C6.92579 2.92984 6.87051 3.00091 6.82313 3.07988C6.66519 3.06409 6.49935 3.0404 6.32561 3.00881C6.16767 2.96143 6.01762 2.93774 5.87547 2.93774C5.82809 2.93774 5.7886 2.93774 5.75702 2.93774C5.74122 2.93774 5.73332 2.93774 5.73332 2.93774C5.71753 2.93774 5.70174 2.93774 5.68594 2.93774C5.68594 2.93774 5.67015 2.93774 5.63856 2.93774C5.62276 2.93774 5.59907 2.93774 5.56748 2.93774C5.55169 2.93774 5.528 2.93774 5.49641 2.93774C5.48062 2.93774 5.45692 2.93774 5.42534 2.93774C5.40954 2.93774 5.38585 2.93774 5.35426 2.93774H5.2595C5.2595 2.93774 5.2516 2.93774 5.2358 2.93774C5.22001 2.93774 5.19632 2.93774 5.16473 2.93774C4.9752 2.93774 4.79356 2.96143 4.61983 3.00881C4.46188 3.0404 4.29604 3.07988 4.12231 3.12727C3.98016 3.01671 3.82222 2.87456 3.64848 2.70082C3.47474 2.51129 3.3168 2.30597 3.17465 2.08485C3.17465 2.08485 3.15886 2.08485 3.12727 2.08485C3.12727 2.10064 3.12727 2.11643 3.12727 2.13223C3.12727 2.14802 3.12727 2.14802 3.12727 2.13223C3.0325 1.97429 2.94563 1.76896 2.86666 1.51625C2.78769 1.26354 2.7482 1.04242 2.7482 0.852891C2.7482 0.852891 2.7482 0.868685 2.7482 0.900274C2.7482 0.900274 2.7482 0.88448 2.7482 0.852891C2.7482 0.852891 2.69292 0.908171 2.58236 1.01873C2.4718 1.12929 2.36914 1.34251 2.27438 1.6584C2.25858 1.67419 2.24279 1.69789 2.22699 1.72947C2.22699 1.74527 2.22699 1.76896 2.22699 1.80055C2.22699 1.80055 2.22699 1.80845 2.22699 1.82424C2.22699 1.84003 2.22699 1.86373 2.22699 1.89531C2.22699 1.84793 2.22699 1.81634 2.22699 1.80055C2.22699 1.76896 2.24279 1.73737 2.27438 1.70578C2.27438 1.70578 2.27438 1.69789 2.27438 1.68209C2.27438 1.6663 2.27438 1.6584 2.27438 1.6584C2.27438 1.67419 2.27438 1.68999 2.27438 1.70578C2.27438 1.70578 2.27438 1.72158 2.27438 1.75317V1.80055C2.25858 1.81634 2.24279 1.84003 2.22699 1.87162C2.22699 1.88742 2.22699 1.91111 2.22699 1.9427C2.22699 1.9427 2.22699 1.9269 2.22699 1.89531C2.22699 1.89531 2.22699 1.91111 2.22699 1.9427C2.22699 1.9427 2.22699 1.9348 2.22699 1.91901C2.22699 1.90321 2.22699 1.87952 2.22699 1.84793L2.17961 1.9427C2.17961 1.9427 2.17961 1.9269 2.17961 1.89531C2.17961 1.86373 2.17961 1.83214 2.17961 1.80055C2.17961 1.81634 2.17171 1.84003 2.15592 1.87162C2.14013 1.88742 2.11643 1.91111 2.08485 1.9427C2.08485 1.9427 2.10064 1.9269 2.13223 1.89531C2.13223 1.87952 2.14013 1.86373 2.15592 1.84793C2.17171 1.81634 2.17961 1.80055 2.17961 1.80055C2.17961 1.78475 2.17961 1.77686 2.17961 1.77686C2.17961 1.76106 2.17961 1.75317 2.17961 1.75317C2.17961 1.76896 2.15592 1.80845 2.10854 1.87162C2.06115 1.9348 2.03746 2.00587 2.03746 2.08485C2.02167 2.13223 2.00587 2.17171 1.99008 2.2033C1.99008 2.23489 1.97429 2.27438 1.9427 2.32176C1.9427 2.30597 1.9427 2.29807 1.9427 2.29807C1.9427 2.28227 1.9427 2.27438 1.9427 2.27438C1.89531 2.36914 1.84793 2.4876 1.80055 2.62975C1.76896 2.7561 1.73737 2.89035 1.70578 3.0325C1.6584 3.19044 1.61891 3.37208 1.58733 3.5774C1.57153 3.76694 1.56363 3.99595 1.56363 4.26446C1.54784 4.50137 1.53994 4.6988 1.53994 4.85674C1.55574 5.01468 1.56363 5.11735 1.56363 5.16473C1.57943 5.14894 1.58733 5.14104 1.58733 5.14104C1.60312 5.12524 1.61102 5.11735 1.61102 5.11735C1.61102 5.11735 1.60312 5.12524 1.58733 5.14104C1.57153 5.15683 1.56363 5.16473 1.56363 5.16473C1.56363 5.16473 1.56363 5.14894 1.56363 5.11735C1.42149 5.32267 1.30303 5.5122 1.20826 5.68594C1.1135 5.84388 1.04242 5.97024 0.99504 6.065C0.805508 6.39668 0.623874 6.83892 0.450137 7.39172C0.292194 7.94452 0.142149 8.63947 0 9.47657C0 9.47657 0.0157943 9.46077 0.0473828 9.42919C0.0473828 9.42919 0.0473828 9.43708 0.0473828 9.45288C0.0473828 9.46867 0.0315886 9.47657 0 9.47657C0 9.47657 0.00789714 9.46867 0.0236914 9.45288C0.0394857 9.42129 0.0631771 9.36601 0.0947657 9.28704C0.0947657 9.27124 0.0947657 9.26335 0.0947657 9.26335C0.0947657 9.24755 0.0947657 9.22386 0.0947657 9.19227C0.142149 9.08171 0.197428 8.93956 0.260606 8.76583C0.339577 8.57629 0.44224 8.38676 0.568594 8.19723C0.426446 8.63947 0.307988 9.21596 0.213223 9.92671C0.134251 10.6217 0.126354 11.4824 0.189531 12.5091C0.189531 12.5091 0.189531 12.5249 0.189531 12.5565C0.189531 12.5565 0.189531 12.5486 0.189531 12.5328C0.189531 12.517 0.189531 12.4933 0.189531 12.4617C0.189531 12.4617 0.189531 12.4696 0.189531 12.4854C0.189531 12.5012 0.189531 12.5091 0.189531 12.5091C0.189531 12.5091 0.197428 12.4854 0.213223 12.438C0.229017 12.3748 0.236914 12.3037 0.236914 12.2248C0.236914 12.209 0.236914 12.2011 0.236914 12.2011C0.236914 12.1853 0.236914 12.1616 0.236914 12.13C0.252708 12.0194 0.2764 11.8931 0.307988 11.7509C0.339577 11.6088 0.379063 11.4509 0.426446 11.2771C0.44224 11.9563 0.560697 12.7065 0.781817 13.5278C1.00294 14.3491 1.3741 15.2257 1.89531 16.1575C2.10064 16.505 2.39283 16.9552 2.7719 17.508C3.16675 18.0608 3.69586 18.6215 4.35922 19.1901C5.02258 19.7586 5.84388 20.3035 6.82313 20.8248C7.80237 21.3302 8.97115 21.7329 10.3295 22.033C10.3137 22.033 10.2979 22.033 10.2821 22.033C10.2821 22.033 10.2663 22.033 10.2347 22.033C10.2505 22.033 10.2584 22.033 10.2584 22.033C10.2742 22.033 10.2979 22.033 10.3295 22.033C10.2189 22.0172 10.1083 21.9856 9.99778 21.9383C9.90301 21.8909 9.80825 21.8435 9.71348 21.7961C9.71348 21.7961 9.69769 21.7803 9.6661 21.7487C9.57133 21.7013 9.50026 21.654 9.45288 21.6066C9.40549 21.575 9.36601 21.5434 9.33442 21.5118C9.35021 21.5118 9.3818 21.5197 9.42918 21.5355C9.49236 21.5513 9.57133 21.575 9.6661 21.6066C9.99778 21.7013 10.4716 21.8119 11.0876 21.9383C11.7194 22.0804 12.3195 22.1436 12.8881 22.1278H12.8407C12.8407 22.1278 12.825 22.1278 12.7934 22.1278C12.746 22.1278 12.6986 22.1199 12.6512 22.1041C12.6196 22.0883 12.588 22.0646 12.5565 22.033C12.4617 21.9856 12.3985 21.9383 12.3669 21.8909C12.3353 21.8593 12.3195 21.8435 12.3195 21.8435C12.3195 21.8435 12.3274 21.8435 12.3432 21.8435C12.3748 21.8435 12.4143 21.8435 12.4617 21.8435C12.6512 21.8435 12.9908 21.8356 13.4804 21.8198C13.97 21.8198 14.5228 21.7724 15.1388 21.6777C15.7548 21.5829 16.3866 21.4328 17.0341 21.2275C17.6817 21.0222 18.2582 20.7221 18.7636 20.3272C19.0005 20.1377 19.1979 19.9482 19.3559 19.7586C19.5138 19.5533 19.6165 19.3638 19.6639 19.1901C19.6639 19.1901 19.6481 19.1901 19.6165 19.1901C19.6165 19.1901 19.5928 19.1979 19.5454 19.2137C19.5138 19.2295 19.4743 19.2532 19.427 19.2848C19.4743 19.269 19.5059 19.2532 19.5217 19.2374C19.5533 19.2058 19.5849 19.1901 19.6165 19.1901V19.0953H19.6639C19.6639 19.0953 19.6639 19.1032 19.6639 19.119C19.6639 19.1348 19.6481 19.1427 19.6165 19.1427V19.1901C19.7271 19.1269 19.8376 19.0637 19.9482 19.0005C20.0745 18.9215 20.2009 18.8426 20.3272 18.7636C20.5168 18.6215 20.7221 18.4714 20.9432 18.3135C21.1643 18.1397 21.3855 17.9423 21.6066 17.7212C21.6224 17.6738 21.6461 17.6343 21.6776 17.6027C21.725 17.5711 21.7645 17.5317 21.7961 17.4843V17.4369C21.7961 17.4369 21.804 17.4369 21.8198 17.4369C21.8356 17.4369 21.8435 17.4369 21.8435 17.4369C21.8593 17.4211 21.8672 17.4053 21.8672 17.3895C21.883 17.3579 21.9067 17.3263 21.9383 17.2947H21.9856C22.0014 17.2789 22.0172 17.2553 22.033 17.2237C22.0646 17.1763 22.0962 17.1368 22.1278 17.1052C22.2226 16.9946 22.3094 16.8841 22.3884 16.7735C22.4832 16.6472 22.5542 16.5208 22.6016 16.3945L22.649 16.3471C22.7911 16.1102 22.9017 15.8654 22.9807 15.6126C23.0754 15.3441 23.1228 15.052 23.1228 14.7361C23.1228 14.7992 23.1149 14.8703 23.0991 14.9493C23.0833 15.0125 23.0596 15.0835 23.0281 15.1625C23.0281 15.1625 23.0202 15.1704 23.0044 15.1862C22.9886 15.202 22.9807 15.2099 22.9807 15.2099C22.9965 15.1941 23.0044 15.1862 23.0044 15.1862C23.0202 15.1704 23.0439 15.1467 23.0754 15.1151C23.0596 14.7834 23.036 14.5149 23.0044 14.3096C22.9728 14.1043 22.9175 13.9148 22.8385 13.741Z"
    fill="#002522" />
</svg>