<svg width="22" height="26" viewBox="0 0 22 26" fill="none" xmlns="http://www.w3.org/2000/svg">
  <path fill-rule="evenodd" clip-rule="evenodd"
    d="M21.2044 6.18575L22 8.34651L21.4738 10.2975L19.1521 19.1756C18.8837 20.1977 18.2656 21.0934 17.4054 21.7071C17.4054 21.7071 14.921 23.47 11.7802 25.5277C11.5592 25.7042 11.2847 25.8004 11.0018 25.8004C10.7189 25.8004 10.4445 25.7042 10.2234 25.5277C7.42796 23.7123 4.59456 21.7143 4.59456 21.7143C3.73367 21.1009 3.11498 20.2052 2.84606 19.1829L0.511712 10.3084L0 8.36097L0.791979 6.20202L0.215173 4.9146C0.187338 4.8523 0.179005 4.78304 0.191268 4.71591C0.203532 4.64878 0.235816 4.58694 0.283881 4.5385L1.8154 2.9889C2.13967 2.65796 2.55161 2.42637 3.00288 2.32132C3.45415 2.21627 3.92602 2.24211 4.36311 2.39582L4.77176 2.54048L7.06813 0.0307385L10.9919 0H11.0172L14.9156 0.0216972L17.2138 2.51155L17.6351 2.36509C18.0694 2.21317 18.5379 2.18775 18.986 2.29179C19.4342 2.39583 19.8436 2.62504 20.1665 2.95274L21.6709 4.47341C21.7312 4.53417 21.7718 4.61174 21.7873 4.69595C21.8028 4.78017 21.7925 4.86709 21.7577 4.94534L21.2044 6.18575ZM19.5263 8.82917L19.5624 8.71344C19.5646 8.55864 19.5549 8.40389 19.5335 8.25055C19.4259 7.97666 19.2876 7.71583 19.1213 7.47304L18.398 6.41164C18.2642 6.21274 18.0364 5.89812 17.8827 5.71188L16.9135 4.4986C16.8251 4.38035 16.729 4.268 16.626 4.16228H16.6061C16.6061 4.16228 16.4108 4.19663 16.1757 4.24184L14.6949 4.52753L14.0457 4.65229C13.8302 4.66242 13.6148 4.63112 13.4111 4.56008L12.2412 4.18217C12.0133 4.10803 11.6372 4.00135 11.404 3.95072C11.1582 3.9246 10.9103 3.9246 10.6644 3.95072C10.4312 4.00497 10.0551 4.10984 9.82726 4.18398L8.65738 4.56369C8.45366 4.63473 8.23821 4.66604 8.02271 4.65591L7.37357 4.53295L5.89088 4.24907C5.65581 4.20387 5.46234 4.16771 5.46053 4.16951H5.44064C5.33758 4.27524 5.24155 4.38758 5.15314 4.50583L4.18577 5.71911C4.0375 5.89993 3.80425 6.22179 3.67044 6.41888L2.94718 7.48027C2.82226 7.66331 2.70815 7.85349 2.60543 8.04985C2.54347 8.2688 2.51064 8.49495 2.50779 8.72248L2.54395 8.83821C2.56136 8.91254 2.58371 8.98564 2.61086 9.057C2.76093 9.23781 3.01769 9.53797 3.18224 9.71336L5.71367 12.4039C5.79771 12.502 5.85394 12.6208 5.87652 12.748C5.8991 12.8752 5.8872 13.0061 5.84205 13.1272L5.42799 14.109C5.33383 14.3691 5.32685 14.6528 5.4081 14.9173L5.49127 15.1451C5.62717 15.5151 5.86013 15.8418 6.16572 16.0908L6.56352 16.4144C6.66685 16.489 6.78743 16.536 6.91394 16.5512C7.04045 16.5664 7.16874 16.5492 7.28678 16.5012L8.70077 15.8268C8.96032 15.6968 9.20318 15.536 9.42404 15.3476L10.556 14.326C10.601 14.2853 10.6375 14.236 10.6632 14.1809C10.6888 14.1259 10.7032 14.0662 10.7054 14.0055C10.7076 13.9448 10.6976 13.8843 10.6759 13.8275C10.6543 13.7708 10.6215 13.7189 10.5795 13.6751L8.02452 11.9537C7.92778 11.885 7.85888 11.784 7.83034 11.6688C7.80181 11.5537 7.81553 11.4321 7.86901 11.3262L8.85989 9.46383C8.91624 9.34982 8.94956 9.22582 8.95793 9.09892C8.96631 8.97203 8.94958 8.84472 8.90871 8.72429C8.78566 8.49457 8.587 8.31443 8.34637 8.21439L5.23993 7.04089C5.01572 6.9559 5.02838 6.86007 5.26525 6.8456L7.08969 6.66479C7.37578 6.64659 7.66298 6.6722 7.94134 6.74073L9.52891 7.18373C9.64162 7.2177 9.73819 7.2914 9.8007 7.39115C9.86321 7.4909 9.88742 7.60994 9.86885 7.72618L9.24503 11.1328C9.20331 11.3215 9.19292 11.5157 9.21429 11.7078C9.2396 11.7891 9.45297 11.8886 9.68622 11.9465L10.6536 12.1526C10.9345 12.2042 11.2225 12.2042 11.5034 12.1526L12.3732 11.9555C12.6064 11.9031 12.818 11.7928 12.8451 11.7114C12.8659 11.5192 12.8549 11.325 12.8125 11.1364L12.1851 7.7298C12.1665 7.61355 12.1908 7.49452 12.2533 7.39477C12.3158 7.29502 12.4123 7.22132 12.5251 7.18735L14.1126 6.74254C14.391 6.67398 14.6782 6.64837 14.9643 6.66659L16.7887 6.83656C17.0274 6.85826 17.0382 6.94686 16.8158 7.03185L13.7112 8.20896C13.4706 8.30901 13.2719 8.48915 13.1489 8.71887C13.0665 8.96211 13.0841 9.2281 13.1977 9.45841L14.1904 11.3208C14.2439 11.4267 14.2576 11.5483 14.229 11.6634C14.2005 11.7785 14.1316 11.8796 14.0349 11.9483L11.4817 13.6733C11.4397 13.7171 11.4069 13.7689 11.3853 13.8257C11.3636 13.8825 11.3536 13.943 11.3558 14.0037C11.358 14.0644 11.3724 14.124 11.398 14.1791C11.4237 14.2341 11.4602 14.2835 11.5052 14.3242L12.639 15.3458C12.8599 15.5335 13.1028 15.6938 13.3622 15.8232L14.7762 16.4958C14.8944 16.5435 15.0228 16.5604 15.1493 16.5449C15.2758 16.5294 15.3963 16.482 15.4995 16.4072L15.8973 16.0817C16.2032 15.8323 16.4362 15.505 16.5717 15.1343L16.6549 14.9064C16.7362 14.642 16.7292 14.3583 16.635 14.0982L16.2191 13.1163C16.174 12.9953 16.1621 12.8644 16.1847 12.7372C16.2073 12.61 16.2635 12.4912 16.3475 12.3931L18.879 9.6989C19.0435 9.51808 19.2985 9.22877 19.4485 9.04253C19.4791 8.9732 19.5051 8.90193 19.5263 8.82917ZM11.6428 15.9932C11.494 15.9265 11.3405 15.8709 11.1835 15.8268H10.9069C10.7499 15.8709 10.5964 15.9265 10.4476 15.9932L9.75144 16.2825C9.53084 16.3747 9.17644 16.5392 8.96489 16.6441L7.6847 17.3113C7.63834 17.3263 7.59754 17.3549 7.56756 17.3934C7.53758 17.4318 7.5198 17.4783 7.51649 17.5269C7.51318 17.5756 7.52451 17.6241 7.54901 17.6662C7.57351 17.7083 7.61006 17.7422 7.65396 17.7633L8.76599 18.5481C8.96127 18.6855 9.26866 18.9278 9.44947 19.0905L9.76229 19.36C9.94311 19.5155 10.2378 19.774 10.4168 19.9332L10.7134 20.1953C10.805 20.2717 10.9205 20.3135 11.0398 20.3135C11.159 20.3135 11.2745 20.2717 11.3661 20.1953L11.6771 19.9241L12.3317 19.3527L12.6463 19.0779C12.8271 18.9206 13.1327 18.6783 13.328 18.5354L14.44 17.7398C14.484 17.7187 14.5206 17.6848 14.545 17.6425C14.5694 17.6003 14.5805 17.5516 14.5767 17.503C14.573 17.4543 14.5547 17.4079 14.5242 17.3699C14.4937 17.3318 14.4524 17.3038 14.4057 17.2896L13.1273 16.6405C12.9139 16.532 12.5595 16.3693 12.3371 16.2788L11.6428 15.9932Z"
    fill="#002522" />
</svg>