<svg width="32" height="25" viewBox="0 0 32 25" fill="none" xmlns="http://www.w3.org/2000/svg">
  <path
    d="M27.0894 2.07236C25.0498 1.11316 22.8626 0.406455 20.5759 0.0016979C20.5342 -0.00611378 20.4926 0.013408 20.4712 0.0524526C20.1899 0.56523 19.8783 1.23419 19.6601 1.75999C17.2005 1.38257 14.7536 1.38257 12.3444 1.75999C12.1262 1.2225 11.8033 0.56523 11.5208 0.0524526C11.4993 0.0147108 11.4577 -0.00481107 11.4161 0.0016979C9.13055 0.405162 6.94341 1.11186 4.90258 2.07236C4.88491 2.08017 4.86977 2.0932 4.85972 2.11011C0.711189 8.46266 -0.425267 14.6591 0.13224 20.7787C0.134763 20.8086 0.15116 20.8372 0.173864 20.8554C2.91095 22.9157 5.56228 24.1664 8.16437 24.9954C8.20602 25.0085 8.25014 24.9929 8.27664 24.9577C8.89217 24.0962 9.44086 23.1877 9.9113 22.2324C9.93906 22.1764 9.91256 22.1101 9.85582 22.0879C8.98551 21.7495 8.1568 21.337 7.35964 20.8685C7.29659 20.8307 7.29154 20.7383 7.34954 20.694C7.5173 20.5652 7.68509 20.4311 7.84527 20.2958C7.87425 20.2711 7.91464 20.2658 7.94871 20.2815C13.1857 22.7322 18.8554 22.7322 24.0306 20.2815C24.0647 20.2645 24.1051 20.2698 24.1353 20.2945C24.2955 20.4298 24.4633 20.5652 24.6323 20.694C24.6903 20.7383 24.6865 20.8307 24.6235 20.8685C23.8263 21.3461 22.9976 21.7495 22.126 22.0866C22.0693 22.1088 22.044 22.1764 22.0718 22.2324C22.5523 23.1864 23.101 24.0948 23.7052 24.9564C23.7304 24.9929 23.7758 25.0085 23.8175 24.9954C26.4322 24.1664 29.0835 22.9157 31.8206 20.8554C31.8446 20.8372 31.8597 20.8099 31.8622 20.7799C32.5294 13.705 30.7447 7.55944 27.131 2.1114C27.1221 2.0932 27.107 2.08017 27.0894 2.07236ZM10.6934 17.0525C9.11666 17.0525 7.81751 15.5688 7.81751 13.7467C7.81751 11.9246 9.09147 10.4409 10.6934 10.4409C12.3078 10.4409 13.5944 11.9376 13.5692 13.7467C13.5692 15.5688 12.2952 17.0525 10.6934 17.0525ZM21.3263 17.0525C19.7497 17.0525 18.4505 15.5688 18.4505 13.7467C18.4505 11.9246 19.7244 10.4409 21.3263 10.4409C22.9408 10.4409 24.2274 11.9376 24.2022 13.7467C24.2022 15.5688 22.9408 17.0525 21.3263 17.0525Z"
    fill="#FEFEFC" />
</svg>