<svg width="24" height="24" viewBox="0 0 24 24" fill="none" xmlns="http://www.w3.org/2000/svg">
  <path
    d="M16.5 12C16.5 13.2344 16.0625 14.2969 15.1875 15.1875C14.3125 16.0625 13.25 16.5 12 16.5C10.7656 16.5 9.70312 16.0625 8.8125 15.1875C7.9375 14.3125 7.5 13.25 7.5 12C7.5 10.7656 7.9375 9.71094 8.8125 8.83594C9.6875 7.94531 10.75 7.5 12 7.5C13.2344 7.5 14.2891 7.9375 15.1641 8.8125C16.0547 9.6875 16.5 10.75 16.5 12ZM12.0469 6.70312H22.875C22.3906 5.70312 21.7734 4.79688 21.0234 3.98438C20.2734 3.15625 19.4297 2.45312 18.4922 1.875C17.5703 1.28125 16.5625 0.820312 15.4688 0.492188C14.3906 0.164062 13.2656 0 12.0938 0C11.1406 0 10.2109 0.109375 9.30469 0.328125C8.39844 0.53125 7.53906 0.835938 6.72656 1.24219C5.92969 1.63281 5.17969 2.11719 4.47656 2.69531C3.78906 3.25781 3.17188 3.89062 2.625 4.59375L6.75 11.625C6.79688 10.9375 6.96875 10.2969 7.26562 9.70312C7.5625 9.09375 7.94531 8.57031 8.41406 8.13281C8.88281 7.67969 9.42969 7.32812 10.0547 7.07812C10.6797 6.82812 11.3438 6.70312 12.0469 6.70312ZM23.1562 7.5H14.9062C15.6562 7.96875 16.25 8.59375 16.6875 9.375C17.125 10.1562 17.3438 11.0156 17.3438 11.9531C17.3438 12.3906 17.2891 12.8281 17.1797 13.2656C17.0703 13.7031 16.9062 14.1094 16.6875 14.4844L11.25 23.9531C11.3906 23.9531 11.5234 23.9531 11.6484 23.9531C11.7734 23.9531 11.9062 23.9531 12.0469 23.9531C13.7031 23.9531 15.2578 23.6406 16.7109 23.0156C18.1641 22.3906 19.4297 21.5391 20.5078 20.4609C21.5859 19.3672 22.4375 18.0938 23.0625 16.6406C23.6875 15.1875 24 13.625 24 11.9531C24 11.1875 23.9219 10.4297 23.7656 9.67969C23.625 8.91406 23.4219 8.1875 23.1562 7.5ZM12.1875 17.3906C11.0156 17.3906 9.96875 17.0547 9.04688 16.3828C8.125 15.7109 7.48438 14.8594 7.125 13.8281L2.0625 5.25C1.40625 6.20312 0.898438 7.25 0.539062 8.39062C0.179688 9.51562 0 10.7031 0 11.9531C0 13.4844 0.265625 14.9375 0.796875 16.3125C1.32812 17.6719 2.0625 18.8906 3 19.9688C3.9375 21.0312 5.03906 21.9062 6.30469 22.5938C7.57031 23.2969 8.9375 23.75 10.4062 23.9531L14.625 16.7812C14.25 16.9688 13.8594 17.1172 13.4531 17.2266C13.0625 17.3359 12.6406 17.3906 12.1875 17.3906Z"
    fill="#002522" />
</svg>