<svg width="77" height="88" viewBox="0 0 77 88" fill="none" xmlns="http://www.w3.org/2000/svg">
  <path
    d="M2.00012 13.849V42.2736C2.0002 51.2583 4.72283 60.0318 9.80911 67.4381C14.8954 74.844 22.1065 80.5353 30.492 83.7608L34.3782 85.2541C36.9664 86.2497 39.8317 86.2497 42.4195 85.2541L46.3058 83.7608C54.6913 80.5353 61.9024 74.844 66.9889 67.4381C72.0751 60.0318 74.7977 51.2583 74.7977 42.2736V13.849C74.8048 12.7793 74.5028 11.7304 73.9282 10.8284C73.3533 9.92634 72.5301 9.20957 71.5573 8.76434C61.1039 4.20157 49.8046 1.89769 38.3989 2.00349C26.9935 1.89769 15.6942 4.20157 5.24055 8.76434C4.26798 9.20957 3.44473 9.92634 2.86989 10.8284C2.29501 11.7304 1.99299 12.7793 2.00012 13.849Z"
    fill="#F5DAB7" stroke="#002825" stroke-width="4" stroke-linecap="round" stroke-linejoin="round" />
  <path
    d="M49.5987 35.6026H27.1994C24.1067 35.6026 21.5996 38.1098 21.5996 41.2024V58.0019C21.5996 61.0945 24.1067 63.6017 27.1994 63.6017H49.5987C52.6913 63.6017 55.1985 61.0945 55.1985 58.0019V41.2024C55.1985 38.1098 52.6913 35.6026 49.5987 35.6026Z"
    fill="#FDF6ED" stroke="#002825" stroke-width="4" stroke-linecap="round" stroke-linejoin="round" />
  <path
    d="M38.3989 18.8031C35.4287 18.8031 32.5799 19.9831 30.4795 22.0834C28.3792 24.1837 27.1992 27.0324 27.1992 30.0027V35.6026H49.5985V30.0027C49.5985 27.0324 48.4184 24.1837 46.3181 22.0834C44.2178 19.9831 41.369 18.8031 38.3989 18.8031Z"
    stroke="#002825" stroke-width="4" stroke-linecap="round" stroke-linejoin="round" />
  <path d="M38.399 51.1101C37.6258 51.1101 36.999 50.4833 36.999 49.7101C36.999 48.937 37.6258 48.3102 38.399 48.3102"
    stroke="#002825" stroke-width="4" />
  <path
    d="M38.3989 51.1101C39.1721 51.1101 39.7989 50.4833 39.7989 49.7101C39.7989 48.937 39.1721 48.3102 38.3989 48.3102"
    stroke="#002825" stroke-width="4" />
</svg>