<svg width="84" height="85" viewBox="0 0 84 85" fill="none" xmlns="http://www.w3.org/2000/svg">
  <path d="M2 82.0118V2.83362" stroke="#002825" stroke-width="4" stroke-linecap="round" stroke-linejoin="round" />
  <path
    d="M2 64.839L13.085 61.415C17.6825 59.9989 22.5294 59.5802 27.3017 60.1871C32.074 60.7939 36.6618 62.4123 40.7586 64.9341C44.7584 67.3948 49.2266 68.996 53.8789 69.6358C58.5312 70.2756 63.2658 69.9399 67.7813 68.6502L78.2926 65.6449C79.12 65.4085 79.8479 64.909 80.3661 64.222C80.8842 63.535 81.1644 62.6978 81.1642 61.8373V16.5509C81.1636 15.9383 81.021 15.3342 80.7476 14.786C80.4741 14.2378 80.0773 13.7605 79.5883 13.3915C79.0993 13.0226 78.5315 12.772 77.9293 12.6595C77.3271 12.5471 76.7071 12.5757 76.1179 12.7433L67.7813 15.1257C63.268 16.4143 58.5358 16.7493 53.886 16.1096C49.2361 15.4698 44.7703 13.8692 40.7727 11.4096C36.6753 8.8893 32.0875 7.2718 27.3155 6.66498C22.5434 6.05816 17.6968 6.47597 13.099 7.89054L2 11.304V64.839Z"
    fill="#F5DAB7" stroke="#002825" stroke-width="4" stroke-linecap="round" stroke-linejoin="round" />
  <path d="M53.6387 26.9321L63.967 37.2604L53.6387 47.5888" stroke="#002825" stroke-width="4" stroke-linecap="round"
    stroke-linejoin="round" />
  <path d="M29.5373 26.9321L19.209 37.2604L29.5373 47.5888" stroke="#002825" stroke-width="4" stroke-linecap="round"
    stroke-linejoin="round" />
  <path d="M45.0297 26.9321L38.1465 47.5888" stroke="#002825" stroke-width="4" stroke-linecap="round"
    stroke-linejoin="round" />
</svg>