<svg width="90" height="84" viewBox="0 0 90 84" fill="none" xmlns="http://www.w3.org/2000/svg">
  <path
    d="M69.7906 40.6921L61.1277 32.092L69.1971 24.0702L77.86 32.6779C78.9363 33.7108 80.3778 34.2824 81.8741 34.2695C83.3704 34.2565 84.8018 33.6602 85.8599 32.6088C86.918 31.5575 87.5181 30.1353 87.5311 28.6485C87.5441 27.1617 86.9689 25.7294 85.9294 24.6599L77.2703 16.0484L81.3031 12.0564C82.3757 10.9937 82.9795 9.55108 82.9816 8.04599C82.9837 6.54091 82.3841 5.09662 81.3145 4.03086C80.2449 2.9651 78.7931 2.36517 77.2784 2.36304C75.7636 2.36092 74.3101 2.95677 73.2375 4.01952L32.2932 44.6993C28.073 42.4338 23.1731 41.7534 18.4896 42.7824C13.806 43.8114 9.65166 46.481 6.78615 50.3032C3.92064 54.1255 2.53544 58.8448 2.88382 63.5983C3.23221 68.3519 5.2909 72.822 8.68348 76.1914C12.076 79.5608 16.5758 81.6043 21.36 81.9482C26.1442 82.2921 30.8931 80.9135 34.7385 78.0645C38.5838 75.2154 41.2687 71.0863 42.3021 66.432C43.3354 61.7778 42.6483 56.9095 40.3664 52.7173L53.0735 40.1062L61.7212 48.7253C62.2513 49.2517 62.8805 49.6693 63.5731 49.9541C64.2656 50.239 65.0077 50.3855 65.7572 50.3853C66.5067 50.3851 67.2488 50.2383 67.9412 49.9531C68.6336 49.668 69.2626 49.2501 69.7925 48.7234C70.3223 48.1967 70.7426 47.5714 71.0292 46.8833C71.3159 46.1952 71.4633 45.4578 71.4632 44.713C71.463 43.9683 71.3152 43.2309 71.0282 42.543C70.7412 41.855 70.3207 41.23 69.7906 40.7035V40.6921Z"
    fill="#F5DAB7" stroke="#002825" stroke-width="4" stroke-linecap="round" stroke-linejoin="round" />
  <path
    d="M22.8347 69.2069C26.7744 69.2069 29.9681 66.0334 29.9681 62.1188C29.9681 58.2042 26.7744 55.0308 22.8347 55.0308C18.8949 55.0308 15.7012 58.2042 15.7012 62.1188C15.7012 66.0334 18.8949 69.2069 22.8347 69.2069Z"
    fill="#FDF6ED" stroke="#002825" stroke-width="4" stroke-linecap="round" stroke-linejoin="round" />
</svg>