<svg width="218" height="75" viewBox="0 0 218 75" fill="none" xmlns="http://www.w3.org/2000/svg">
  <rect x="1" y="1" width="215.107" height="72.6153" rx="36.3077" fill="#F5DAB7" stroke="#002825" stroke-width="2" />
  <path
    d="M156.769 8.37915H170.515L149.341 44.0599C148.133 46.0489 146.953 47.5793 145.802 48.6518C144.652 49.7244 143.589 50.5044 142.614 50.9912C141.639 51.4794 140.801 51.762 140.099 51.8398C139.397 51.9182 138.909 51.9571 138.636 51.9571H126.002V21.1317H137.818L137.876 42.3056L156.769 8.37915Z"
    fill="#002825" />
  <path fill-rule="evenodd" clip-rule="evenodd"
    d="M43.4639 51.9564H126.002V61.9704H43.4639V51.9564ZM83.5709 59.0018C83.9002 59.0018 84.2082 58.912 84.4937 58.7333C84.8017 58.5482 85.0052 58.3185 85.102 58.0465L85.2765 57.5661C85.3747 57.2962 85.338 57.0679 85.1663 56.8793C85.0116 56.6998 84.7685 56.6101 84.4393 56.6101H81.5339C81.358 56.6101 81.2245 56.5705 81.1361 56.4907C81.0556 56.42 81.033 56.3367 81.0683 56.2406L81.2435 55.7601C81.2774 55.6668 81.3587 55.5877 81.4894 55.5199C81.6399 55.44 81.8017 55.4005 81.9748 55.4005H84.8801C85.0335 55.4005 85.1508 55.4309 85.2306 55.4916H85.2257C85.3118 55.5644 85.3443 55.6866 85.3246 55.8562H85.9145C85.9894 55.4945 85.9428 55.2288 85.7775 55.0592C85.6277 54.8904 85.4023 54.8049 85.0978 54.8049H82.1924C81.8667 54.8049 81.5544 54.8967 81.2577 55.0783C80.9524 55.2669 80.7504 55.4952 80.6543 55.7601L80.479 56.2406C80.3787 56.5168 80.4155 56.7458 80.5879 56.9323C80.7497 57.1118 80.9948 57.2008 81.3205 57.2008H84.2209C84.3933 57.2008 84.5255 57.241 84.6138 57.3209C84.6972 57.3915 84.7219 57.4735 84.688 57.5661L84.5135 58.0465C84.4795 58.1398 84.3947 58.2203 84.2605 58.2917C84.1135 58.3708 83.9553 58.4111 83.7857 58.4111H80.8804C80.7306 58.4111 80.6126 58.3786 80.5264 58.315H80.5313C80.4458 58.2415 80.4133 58.12 80.4338 57.9504H79.8431C79.7725 58.3122 79.8184 58.5807 79.9816 58.7566C80.1335 58.9198 80.3611 59.0018 80.6656 59.0018H83.5709ZM61.2287 55.8589C61.2541 55.683 61.2237 55.5614 61.1361 55.4943H61.141C61.0605 55.4335 60.9446 55.4032 60.7899 55.4032H57.8944C57.7213 55.4032 57.5609 55.4427 57.414 55.5226C57.2833 55.5904 57.202 55.6695 57.1681 55.7628L56.8608 56.6078H58.9974L58.7819 57.1985H56.6453L55.9882 59.0037H55.3925L56.5725 55.7628C56.6686 55.4978 56.8706 55.2696 57.1759 55.081C57.4726 54.8994 57.7849 54.8075 58.1106 54.8075H61.0061C61.3134 54.8075 61.5417 54.893 61.6922 55.0619C61.8575 55.2315 61.9034 55.4971 61.8292 55.8589H61.2287ZM65.5039 56.9899L65.5039 56.9892H66.0938C66.1765 56.6211 66.1165 56.3554 65.9137 56.1922C65.7448 56.058 65.5279 55.9908 65.2622 55.9908H63.8604C63.758 55.9908 63.6555 56.0007 63.5545 56.0198C63.4521 56.0396 63.3425 56.0714 63.2245 56.1159L63.2698 55.9915H62.6741L61.5783 59.0022H62.1739L62.9412 56.8945C62.9751 56.8013 63.0712 56.7249 63.2309 56.6642C63.3687 56.6091 63.5086 56.5822 63.6492 56.5822H65.0474C65.1047 56.5822 65.1598 56.5872 65.2128 56.5964C65.2658 56.6055 65.3124 56.6239 65.3541 56.6493C65.4656 56.71 65.5157 56.8235 65.5039 56.9892H65.5039V56.9899ZM70.1386 57.5708C70.4792 57.3913 70.6996 57.1631 70.8014 56.884C70.9066 56.5957 70.8536 56.3675 70.6431 56.198C70.4686 56.0602 70.2347 55.9916 69.9401 55.9916H68.5425C68.238 55.9916 67.9476 56.063 67.672 56.2071C67.3449 56.3774 67.1287 56.6042 67.0249 56.8897L66.5861 58.095C66.4815 58.3826 66.543 58.6144 66.7705 58.791C66.9528 58.9323 67.1782 59.0022 67.4474 59.0022H68.8449C69.1141 59.0022 69.3805 58.933 69.6447 58.7959C69.9669 58.632 70.2192 58.3678 70.4029 58.0032H69.8129C69.7041 58.1692 69.5713 58.283 69.4151 58.3445C69.3543 58.3692 69.295 58.3875 69.2349 58.3974C69.1756 58.4066 69.1169 58.4116 69.0597 58.4116H67.6614C67.6049 58.4116 67.5477 58.4045 67.4919 58.3904C67.4361 58.3748 67.3824 58.3508 67.3315 58.3155C67.2121 58.2484 67.1619 58.1728 67.1831 58.0894L67.1866 58.0795L67.3336 57.6768C67.4488 57.722 67.5463 57.7524 67.6268 57.7679C67.7081 57.7842 67.7943 57.7912 67.8868 57.7912H69.2851C69.5727 57.7912 69.8581 57.7177 70.1386 57.5708ZM70.1174 56.6925C70.2022 56.7498 70.2305 56.8176 70.2022 56.8939C70.1746 56.9709 70.0969 57.038 69.9719 57.096C69.8242 57.1666 69.6673 57.2013 69.5013 57.2013H68.103C67.9688 57.2013 67.8494 57.173 67.7455 57.115C67.6304 57.0543 67.5894 56.9787 67.6219 56.8897C67.6558 56.7971 67.7533 56.7222 67.9151 56.6643C68.0684 56.6092 68.2069 56.5823 68.3284 56.5823H69.721C69.8934 56.5823 70.0263 56.6191 70.1174 56.6925ZM75.4892 56.884C75.3874 57.1631 75.167 57.3913 74.8264 57.5708C74.5459 57.7177 74.2605 57.7912 73.9729 57.7912H72.5754C72.4821 57.7912 72.3966 57.7842 72.3146 57.7679C72.2341 57.7524 72.1366 57.722 72.0221 57.6768L71.8752 58.0795L71.8716 58.0894C71.8504 58.1728 71.8999 58.2484 72.0193 58.3155C72.0709 58.3508 72.1239 58.3748 72.1797 58.3904C72.2355 58.4045 72.2927 58.4116 72.3493 58.4116H73.7475C73.8048 58.4116 73.8634 58.4066 73.9227 58.3974C73.9828 58.3875 74.0429 58.3692 74.1029 58.3445C74.2591 58.283 74.3919 58.1692 74.5007 58.0032H75.0907C74.907 58.3678 74.6547 58.632 74.3326 58.7959C74.0683 58.933 73.8019 59.0022 73.5327 59.0022H72.1345C71.866 59.0022 71.6399 58.9323 71.4576 58.791C71.2301 58.6144 71.1686 58.3826 71.2739 58.095L71.7127 56.8897C71.8165 56.6042 72.0327 56.3774 72.3606 56.2071C72.6361 56.063 72.9265 55.9916 73.2303 55.9916H74.6286C74.9225 55.9916 75.1571 56.0602 75.3309 56.198C75.5415 56.3675 75.5937 56.5957 75.4892 56.884ZM74.89 56.8939C74.9183 56.8176 74.8893 56.7498 74.8045 56.6925C74.7134 56.6191 74.5805 56.5823 74.4081 56.5823H73.0155C72.894 56.5823 72.7555 56.6092 72.6022 56.6643C72.4404 56.7222 72.3429 56.7971 72.309 56.8897C72.2765 56.9787 72.3182 57.0543 72.4333 57.115C72.5372 57.173 72.6566 57.2013 72.7909 57.2013H74.1884C74.3545 57.2013 74.5113 57.1666 74.659 57.096C74.7847 57.038 74.8618 56.9709 74.89 56.8939ZM89.1084 58.7812C88.8308 58.9282 88.546 59.0017 88.2549 59.0017H86.8567C86.5719 59.0017 86.3409 58.9296 86.1628 58.7862C85.9473 58.6096 85.8929 58.3785 85.9961 58.0945L86.4349 56.8891C86.5366 56.61 86.757 56.3818 87.0983 56.2023C87.3788 56.0554 87.665 55.9819 87.9561 55.9819H89.3543C89.6292 55.9819 89.8553 56.0504 90.0326 56.1882C90.2552 56.3677 90.3152 56.5994 90.2114 56.8842L89.7712 58.0945C89.6702 58.3722 89.4497 58.6018 89.1084 58.7812ZM89.6157 56.8842C89.6482 56.7944 89.6073 56.7202 89.4921 56.6581C89.3939 56.6037 89.2752 56.5768 89.1381 56.5768H87.7399C87.5993 56.5768 87.4615 56.6022 87.3279 56.6531C87.164 56.7174 87.0651 56.7937 87.0326 56.8835L86.591 58.0987C86.5585 58.1885 86.5995 58.2634 86.7146 58.3241C86.8185 58.3813 86.9365 58.4103 87.0679 58.4103H88.4697C88.5333 58.4103 88.599 58.4039 88.669 58.3912C88.7375 58.3778 88.8075 58.358 88.8781 58.3284C89.042 58.2648 89.1409 58.1863 89.1749 58.0938L89.6157 56.8842ZM90.9489 59.0019L91.83 56.582H92.4242L92.639 55.9913H92.044L92.1472 55.708C92.1719 55.6415 92.2369 55.5801 92.3429 55.525C92.4503 55.4713 92.6199 55.426 92.8538 55.3914L93.065 54.8099C92.6898 54.8099 92.3789 54.8834 92.1302 55.0304C91.8469 55.2007 91.6547 55.426 91.5516 55.708L90.3533 59.0019H90.9489ZM94.5258 56.5821L93.6447 59.002H93.0449L93.9259 56.5821H93.3352L93.55 55.9914H94.1407L94.5724 54.8058H95.1723L94.7406 55.9914H95.3362L95.1214 56.5821H94.5258ZM98.2202 58.9972C98.5368 58.9972 98.8229 58.9216 99.0751 58.7711C99.3705 58.6022 99.5704 58.3761 99.6722 58.0949L100.437 55.9915H99.8368L99.0695 58.0992C99.0363 58.1889 98.9557 58.261 98.8229 58.3154C98.6887 58.3762 98.5318 58.4065 98.353 58.4065C98.1863 58.4065 98.0549 58.3762 97.9588 58.3154C97.8684 58.2638 97.8401 58.1925 97.874 58.0992L98.3474 56.7977H97.7518L97.2798 58.0942C97.2445 58.1896 97.1618 58.2645 97.0297 58.3189C96.8954 58.3797 96.74 58.4101 96.5641 58.4101C96.3917 58.4101 96.2574 58.3797 96.1606 58.3189C96.073 58.261 96.0454 58.1882 96.0779 58.0985L96.8453 55.9908H96.2496L95.4845 58.0942C95.3785 58.3853 95.4088 58.6143 95.5756 58.781C95.7268 58.928 95.9536 59.0014 96.2581 59.0014C96.4312 59.0014 96.6128 58.976 96.8029 58.9244C96.9929 58.8736 97.1781 58.7987 97.3575 58.699C97.4621 58.8015 97.5886 58.8764 97.7376 58.9244C97.886 58.9725 98.0478 58.9972 98.2202 58.9972ZM103.558 58.7865C103.278 58.9306 102.99 59.002 102.692 59.002H101.294C100.993 59.002 100.756 58.932 100.584 58.7907C100.376 58.624 100.324 58.3958 100.431 58.1039C100.533 57.8227 100.754 57.5952 101.092 57.4221C101.372 57.2752 101.659 57.201 101.95 57.201H103.348C103.438 57.201 103.523 57.2102 103.603 57.2257C103.684 57.2413 103.781 57.2716 103.896 57.3169L104.045 56.9085C104.064 56.8223 104.016 56.746 103.903 56.6781C103.802 56.6145 103.692 56.582 103.574 56.582H102.177C102.116 56.582 102.056 56.587 101.996 56.5962C101.937 56.6061 101.877 56.6244 101.816 56.6492C101.66 56.7099 101.527 56.8244 101.419 56.9897H100.828C101.016 56.6251 101.267 56.3609 101.583 56.1977C101.848 56.0599 102.115 55.9914 102.388 55.9914H103.79C104.064 55.9914 104.291 56.0599 104.468 56.1977C104.693 56.3708 104.753 56.6025 104.647 56.8936L104.208 58.099C104.102 58.3852 103.886 58.6134 103.558 58.7865ZM103.609 58.1039C103.641 58.0149 103.6 57.9393 103.484 57.8786C103.38 57.8206 103.263 57.7917 103.132 57.7917H101.734C101.57 57.7917 101.412 57.8277 101.259 57.8983C101.132 57.9556 101.055 58.0227 101.027 58.0997C100.997 58.1796 101.024 58.2481 101.105 58.306C101.201 58.376 101.334 58.4113 101.504 58.4113H102.906C103.043 58.4113 103.179 58.3859 103.313 58.3343C103.478 58.2707 103.575 58.1944 103.609 58.1039ZM108.569 56.6493C108.68 56.71 108.731 56.8235 108.719 56.9892H109.309C109.391 56.6211 109.331 56.3554 109.128 56.1922C108.96 56.058 108.743 55.9908 108.477 55.9908H107.075C106.973 55.9908 106.871 56.0007 106.769 56.0198C106.668 56.0396 106.557 56.0714 106.439 56.1159L106.485 55.9915H105.889L104.793 59.0022H105.389L106.156 56.8945C106.19 56.8013 106.286 56.7249 106.446 56.6642C106.584 56.6091 106.724 56.5822 106.865 56.5822H108.262C108.319 56.5822 108.375 56.5872 108.428 56.5964C108.481 56.6055 108.527 56.6239 108.569 56.6493ZM114.015 56.884C113.913 57.1631 113.693 57.3913 113.352 57.5708C113.071 57.7177 112.786 57.7912 112.498 57.7912H111.101C111.008 57.7912 110.922 57.7842 110.84 57.7679C110.76 57.7524 110.662 57.722 110.547 57.6768L110.4 58.0795L110.396 58.0894C110.376 58.1728 110.425 58.2484 110.545 58.3155C110.596 58.3508 110.649 58.3748 110.705 58.3904C110.761 58.4045 110.818 58.4116 110.875 58.4116H112.273C112.33 58.4116 112.389 58.4066 112.448 58.3974C112.508 58.3875 112.568 58.3692 112.628 58.3445C112.785 58.283 112.917 58.1692 113.026 58.0032H113.616C113.433 58.3678 113.18 58.632 112.858 58.7959C112.594 58.933 112.327 59.0022 112.058 59.0022H110.66C110.391 59.0022 110.165 58.9323 109.983 58.791C109.756 58.6144 109.694 58.3826 109.799 58.095L110.237 56.8897C110.341 56.6042 110.558 56.3774 110.885 56.2071C111.161 56.063 111.451 55.9916 111.755 55.9916H113.153C113.447 55.9916 113.682 56.0602 113.856 56.198C114.068 56.3675 114.12 56.5957 114.015 56.884ZM113.416 56.8939C113.444 56.8176 113.416 56.7498 113.331 56.6925C113.24 56.6191 113.107 56.5823 112.934 56.5823H111.542C111.42 56.5823 111.282 56.6092 111.128 56.6643C110.967 56.7222 110.869 56.7971 110.835 56.8897C110.803 56.9787 110.844 57.0543 110.96 57.115C111.063 57.173 111.183 57.2013 111.317 57.2013H112.715C112.881 57.2013 113.038 57.1666 113.185 57.096C113.311 57.038 113.388 56.9709 113.416 56.8939Z"
    fill="#002825" />
  <path
    d="M69.3649 44.5285C68.4555 45.2414 67.3569 45.5982 66.0681 45.5982H54.6262C53.3248 45.5982 52.2388 45.2477 51.3676 44.5475C50.4328 43.8219 49.9658 42.9274 49.9658 41.8641V32.9311C49.9658 31.8932 50.4328 31.0051 51.3676 30.2667C52.2769 29.5538 53.3763 29.197 54.6644 29.197H66.126C67.3258 29.197 68.3425 29.5284 69.1762 30.1918C70.0474 30.8546 70.6091 31.8996 70.862 33.3261H68.5318C68.3679 32.6379 68.0585 32.1561 67.6034 31.8812C67.212 31.6438 66.7132 31.5251 66.107 31.5251H54.6644C53.9818 31.5251 53.4011 31.682 52.9213 31.9943C52.5052 32.2571 52.296 32.5694 52.296 32.9326V41.8655C52.296 42.2407 52.5045 42.5664 52.9213 42.8412L52.9029 42.8229C53.37 43.1359 53.9451 43.292 54.6269 43.292H66.0695C66.663 43.292 67.1929 43.1669 67.6607 42.9168C68.2167 42.654 68.4944 42.2979 68.4944 41.8471V38.5631H59.2294V36.2548H70.8048V41.8655C70.8048 42.9027 70.3244 43.7901 69.3649 44.5285Z"
    fill="#002825" />
  <path
    d="M93.8221 37.4903C92.951 38.1912 91.8579 38.541 90.5445 38.541H76.7335V45.5966H74.4033V32.9296C74.4033 31.8916 74.8704 31.0035 75.8051 30.2651C76.7144 29.5522 77.8131 29.1954 79.1019 29.1954H90.5445C91.8198 29.1954 92.9065 29.5522 93.8031 30.2651C94.7506 31.0035 95.2239 31.8916 95.2239 32.9296V34.8061C95.2239 35.8702 94.7569 36.7647 93.8221 37.4903ZM92.9128 32.9303C92.9128 32.5805 92.698 32.2675 92.2684 31.992C91.788 31.6797 91.2136 31.5228 90.5445 31.5228H79.0828C78.502 31.5228 77.9778 31.6415 77.51 31.8789C76.9921 32.117 76.7335 32.4675 76.7335 32.9296V36.2334H90.5445C91.2136 36.2334 91.788 36.0836 92.2684 35.7826C92.6973 35.5078 92.9128 35.182 92.9128 34.8069V32.9303Z"
    fill="#002825" />
  <path
    d="M119.644 41.9384C119.455 43.052 118.924 43.9464 118.053 44.6219C117.207 45.2719 116.183 45.5977 114.984 45.5977H103.523C102.235 45.5977 101.142 45.2472 100.245 44.547C99.2983 43.8214 98.8242 42.9269 98.8242 41.8635V29.2156H101.193V41.8635C101.193 42.2387 101.401 42.5644 101.818 42.8393L101.8 42.8209C102.267 43.1339 102.841 43.2901 103.523 43.2901H114.985C115.566 43.2901 116.071 43.165 116.501 42.9149H116.482C116.937 42.64 117.245 42.1709 117.41 41.5074H119.266L119.644 41.9384Z"
    fill="#002825" />
  <path
    d="M180.863 41.8532C180.863 42.9165 180.394 43.811 179.456 44.5367C178.593 45.2376 177.517 45.5873 176.228 45.5873H164.876C163.687 45.5873 162.68 45.2679 161.854 44.6306C160.966 43.9425 160.403 42.8918 160.165 41.478H162.473C162.636 42.1408 162.936 42.6163 163.374 42.9045H163.355C163.78 43.1547 164.287 43.2797 164.875 43.2797H176.228C176.878 43.2797 177.441 43.1292 177.917 42.8289C178.342 42.5541 178.555 42.2284 178.555 41.8532V39.9766C178.555 39.6268 178.342 39.3138 177.917 39.0383C177.417 38.7133 176.847 38.5501 176.209 38.5501H170.167V36.2418H176.228C176.891 36.2418 177.454 36.0856 177.918 35.7726C178.343 35.4978 178.556 35.1784 178.556 34.8159V32.9393C178.556 32.5889 178.343 32.2766 177.918 32.001C177.418 31.676 176.848 31.5135 176.21 31.5135H164.876C164.3 31.5135 163.8 31.6386 163.374 31.8887H163.393C162.942 32.1515 162.636 32.627 162.473 33.3152H160.165C160.39 31.8887 160.941 30.8508 161.816 30.2C162.642 29.5373 163.661 29.2059 164.875 29.2059H176.228C177.491 29.2059 178.567 29.5564 179.455 30.2566C180.394 30.9949 180.863 31.8894 180.863 32.9401C180.863 33.8529 180.825 34.6852 180.75 35.4356C180.725 35.8108 180.601 36.1556 180.375 36.4679C180.275 36.6056 180.16 36.7491 180.028 36.8996C179.897 37.0501 179.737 37.2126 179.55 37.3871C179.912 37.7248 180.188 38.0378 180.375 38.3254C180.588 38.6758 180.713 39.0136 180.75 39.3386C180.826 40.0769 180.863 40.9149 180.863 41.8532Z"
    fill="#002825" />
</svg>