<svg width="168" height="127" viewBox="0 0 168 127" fill="none" xmlns="http://www.w3.org/2000/svg">
  <path
    d="M152.984 9.12855L153.833 0.28394C153.844 0.205035 153.884 0.132944 153.944 0.0808129C154.005 0.028682 154.082 0 154.162 0C154.241 0 154.319 0.028682 154.379 0.0808129C154.439 0.132944 154.479 0.205035 154.49 0.28394L155.325 9.10734C155.378 9.6005 155.603 10.0594 155.959 10.4043C156.316 10.7492 156.782 10.9582 157.277 10.995L167.668 11.6172C167.756 11.6172 167.84 11.6522 167.903 11.7145C167.965 11.7768 168 11.8614 168 11.9495C168 12.0376 167.965 12.1221 167.903 12.1845C167.84 12.2468 167.756 12.2818 167.668 12.2818L157.27 12.9252C156.776 12.9617 156.311 13.1697 155.954 13.5132C155.598 13.8566 155.373 14.3139 155.318 14.8058L154.469 23.6433C154.458 23.7222 154.418 23.7943 154.358 23.8465C154.297 23.8986 154.22 23.9273 154.14 23.9273C154.061 23.9273 153.983 23.8986 153.923 23.8465C153.863 23.7943 153.823 23.7222 153.811 23.6433L152.984 14.8199C152.932 14.3244 152.707 13.8629 152.349 13.5164C151.991 13.17 151.522 12.9606 151.025 12.9252L140.641 12.303C140.563 12.2914 140.49 12.2518 140.438 12.1914C140.386 12.1311 140.357 12.054 140.357 11.9742C140.357 11.8945 140.386 11.8174 140.438 11.757C140.49 11.6967 140.563 11.6571 140.641 11.6455L151.032 11.0021C151.524 10.9658 151.989 10.7588 152.345 10.4168C152.702 10.0748 152.928 9.61917 152.984 9.12855Z"
    fill="#73726F" />
  <path fill-rule="evenodd" clip-rule="evenodd"
    d="M136.157 31.3708C136.636 31.707 137.009 32.173 137.232 32.7141C137.359 33.0326 137.413 33.376 137.388 33.7181C137.363 33.9724 137.323 34.2251 137.267 34.4746C137.153 34.9669 136.974 35.4423 136.737 35.8886C136.611 36.1169 136.467 36.3345 136.305 36.539C136.276 36.5744 136.25 36.6123 136.228 36.6521L136.327 37.2814C136.358 37.5324 136.374 37.7849 136.376 38.0378C136.37 39.0403 136.144 40.0292 135.715 40.9353C135.287 41.8415 134.665 42.643 133.894 43.2838L133.802 43.3616L133.688 43.404C132.699 43.7562 131.685 44.0327 130.654 44.2312C129.602 44.4563 128.525 44.5489 127.45 44.5069H127.379H127.294C125.169 43.8323 122.978 43.3821 120.759 43.1636C120.618 43.1511 120.476 43.14 120.332 43.1288C119.906 43.0954 119.465 43.0609 119.005 42.9869C118.405 42.8929 117.815 42.7414 117.244 42.5344C116.251 42.193 115.21 42.0116 114.16 41.9971H114.061C113.738 42.4893 113.523 43.0446 113.432 43.6261C113.34 44.2076 113.374 44.8019 113.53 45.3695C113.835 46.785 114.352 48.1461 115.065 49.4065C115.839 50.7407 116.529 52.1221 117.131 53.5424C117.782 55.04 118.071 56.6704 117.972 58.3005L117.859 59.5802L116.826 58.8237C116.855 60.2941 116.683 61.7616 116.317 63.1859C115.853 64.9736 115.024 66.6463 113.884 68.0996C113.118 69.0435 112.203 69.8556 111.175 70.5034C111.144 73.0908 110.761 75.662 110.036 78.1461C109.363 80.3981 108.954 82.721 108.82 85.0677V87.3372C108.862 89.7905 108.905 92.3215 107.539 94.6334C106.731 95.9584 105.66 97.1038 104.392 97.9988C103.939 98.3381 103.487 98.7058 102.977 99.1441C102.602 99.4693 102.051 99.9925 101.464 100.558C101.403 100.616 101.342 100.673 101.282 100.731C100.365 101.601 99.4495 102.47 98.8326 102.948L98.6558 103.089C97.616 103.902 96.456 104.8 94.9212 104.8C94.0448 104.708 93.159 104.77 92.3041 104.984L91.8303 105.147C91.2528 105.391 90.6383 105.537 90.0125 105.578H89.8852C88.4706 105.493 86.6599 104.553 86.3487 103.457L86.1082 102.63H86.5467C85.6414 101.76 84.9765 100.89 84.9765 99.7026V98.7835L85.8324 99.0098C85.7136 98.7672 85.6484 98.502 85.6414 98.2321V97.1079L86.6316 97.5604C86.667 97.4614 86.667 97.3625 86.667 97.2635V97.2635C86.6685 96.8967 86.7488 96.5346 86.9026 96.2015C87.0563 95.8685 87.2799 95.5724 87.5582 95.3333C88.3574 94.6476 89.5032 94.6829 90.9886 94.9586L91.2078 94.994C91.5229 95.0675 91.8464 95.0983 92.1698 95.0859C92.5853 95.0069 92.9846 94.8587 93.351 94.6476L93.4712 94.591C94.7514 93.9547 98.1677 92.2438 99.0801 90.1227C99.2225 89.7061 99.2965 89.2692 99.2994 88.8289C99.3035 88.5422 99.4002 88.2644 99.5752 88.0371C99.8994 87.5946 100.351 87.2617 100.87 87.0826C100.742 85.6142 100.414 84.1702 99.8935 82.7911C99.0489 80.3738 98.3846 77.8972 97.906 75.3817C96.8309 75.7423 95.7699 76.117 94.7514 76.5624C93.2076 77.2425 91.7556 78.1143 90.4298 79.1571C89.0527 80.1668 87.7545 81.2801 86.5467 82.4871C85.335 83.6749 84.2297 84.9666 83.2436 86.3474C82.2535 87.7022 81.4494 89.1836 80.8529 90.752C80.5634 91.507 80.3709 92.2957 80.28 93.0992C80.2361 93.9232 80.2717 94.7495 80.3861 95.5667C80.5842 97.2705 80.8388 98.9885 81.0934 100.699C81.6239 104.121 82.218 107.543 82.8404 110.958C83.0082 111.851 83.1829 112.743 83.3576 113.635C83.7942 115.864 84.2309 118.093 84.5592 120.34L84.7572 120.269C85.0398 120.164 85.3431 120.127 85.6428 120.16C85.9425 120.193 86.2303 120.296 86.4831 120.46C86.7068 120.603 86.9072 120.78 87.0772 120.983L87.5087 120.814H87.5511C87.9403 120.706 88.3535 120.723 88.7323 120.863C89.0659 120.989 89.3678 121.187 89.6164 121.443C90.0316 121.874 90.3605 122.38 90.5854 122.935C91.0011 123.942 91.2404 125.014 91.2927 126.102L91.3493 126.915H90.5218L78.9361 127H78.2854L78.1157 126.371C77.6539 124.692 77.2906 123.01 76.9332 121.355C76.7321 120.424 76.533 119.502 76.3191 118.594C76.1635 117.965 76.0009 117.342 75.8099 116.756C75.7109 116.466 75.5977 116.19 75.4845 115.928L75.2935 115.568L75.0318 115.2C74.9271 115.048 74.8505 114.878 74.8055 114.698L74.7489 114.429L74.6499 113.942L74.4447 112.973L74.0487 111.029C72.9948 105.839 72.0895 100.615 71.3822 95.3616C71.0497 92.9225 70.7597 90.4692 70.5475 88.0088C67.8461 91.8807 64.6153 95.3552 60.9494 98.331L60.7655 98.4724C59.7939 99.0974 58.9785 99.9367 58.3819 100.926C58.0041 101.909 57.8541 102.966 57.9434 104.015C58.042 109.981 58.9728 115.904 60.7089 121.613C61.1828 121.528 61.4304 121.464 61.8265 121.358L62.1801 121.259C63.3934 120.784 64.7074 120.623 65.9995 120.793C67.4 121.125 69.7766 122.185 69.9887 126.074L70.0312 126.781H56.8329L56.6278 126.441C51.8747 118.622 49.7811 108.477 50.2621 95.4182C50.2772 95.19 50.3451 94.9684 50.4605 94.7708C50.5759 94.5733 50.7355 94.4053 50.9269 94.2799C53.7297 92.2098 55.6891 89.1966 56.4439 85.7959C56.4439 85.7931 56.446 85.7658 56.4498 85.7162C56.5141 84.8759 57.0677 77.6373 56.2529 74.8868C55.3905 73.0696 54.2472 71.3995 52.865 69.9378L52.8037 69.8659C52.4273 69.4238 52.1089 69.0498 51.8606 68.7076C49.1233 70.9276 47.0085 73.7768 44.9785 76.5412C43.0608 79.3445 40.8355 81.9246 38.344 84.2334C36.9294 85.4919 35.5643 86.5594 34.1002 87.6836C30.5478 90.3271 27.2343 93.2772 24.198 96.4999C19.841 100.961 12.5982 109.919 12.0182 120.602C12.5616 120.546 13.1062 120.695 13.546 121.019L13.7936 121.231C14.0221 121.146 14.2593 121.087 14.5009 121.054C14.8862 121.019 15.2745 121.077 15.6325 121.224C16.2593 121.533 16.7593 122.051 17.0471 122.687C17.543 123.761 17.785 124.934 17.7545 126.116V126.823H5.58884L5.45445 126.286C4.94257 124.221 4.74938 122.089 4.88153 119.965C5.03529 117.852 5.47058 115.77 6.17589 113.772C7.08676 111.13 8.30931 108.659 9.51871 106.214C10.1312 104.977 10.7403 103.745 11.3038 102.502C12.1526 100.629 12.9306 98.7482 13.6379 96.8463C13.8077 96.3797 13.9704 95.899 14.1048 95.4323L14.2038 95.0647C14.2738 94.8157 14.4108 94.5908 14.5999 94.4143C14.6845 94.3335 14.7797 94.2645 14.8828 94.2092L15.0313 94.1173L15.3284 93.9335C16.1231 93.3637 16.8598 92.7172 17.5281 92.0034C17.8605 91.6428 18.1859 91.2681 18.4971 90.8792L18.9498 90.2924C19.0842 90.0945 19.1973 89.9248 19.3317 89.6985C19.7811 88.9602 20.2144 88.179 20.6456 87.4015C20.7098 87.2857 20.7741 87.1699 20.8383 87.0544C21.8073 85.2656 22.7551 83.4486 23.6675 81.6175C25.4923 77.9623 27.2323 74.2505 28.7176 70.4681C29.0925 69.549 29.4391 68.5874 29.7503 67.6401C30.079 66.6932 30.3414 65.7246 30.5354 64.7414C30.6664 64.1458 30.793 63.5478 30.9198 62.9483C31.2177 61.5409 31.5172 60.1258 31.8793 58.7177C32.1339 57.7067 32.4097 56.7027 32.7563 55.6917C33.1198 54.6886 33.5597 53.7148 34.0719 52.7789C35.0646 50.9228 36.25 49.1763 37.6084 47.5682C38.2521 46.7623 38.9452 45.9775 39.7304 45.2776C40.5155 44.5776 41.3005 43.8848 42.1422 43.2697C42.7717 42.796 43.4295 42.3718 44.0944 41.9617C43.8329 41.5067 43.4786 41.1117 43.0546 40.8022C42.525 40.453 41.9311 40.2127 41.3076 40.0952C40.8361 39.9963 40.3646 39.9224 39.8931 39.8486C39.6573 39.8117 39.4215 39.7747 39.1857 39.7347L37.0638 39.3953L28.4701 37.9813L11.2543 35.0331L6.96808 34.3261C5.46381 34.1588 3.98883 33.7903 2.5828 33.2302C1.80028 32.8931 1.11986 32.3568 0.609417 31.6748C0.47845 31.4964 0.367002 31.3044 0.276984 31.1022C0.243981 31.0362 0.217265 30.9702 0.190549 30.9042C0.177187 30.8712 0.163824 30.8382 0.149675 30.8052L0.0931 30.6638C0.064113 30.5926 0.0404665 30.5194 0.0223654 30.4446C-0.0345459 30.172 0.0181236 29.8879 0.168993 29.6538C0.319863 29.4197 0.556812 29.2542 0.828679 29.1933C0.95248 29.1692 1.07975 29.1692 1.20355 29.1933H1.33794H1.60672L5.92127 29.7518L23.1724 31.9647L57.6887 36.2915L66.3178 37.3238C69.1966 37.6773 72.0541 37.953 74.9399 38.1156C76.3233 38.2589 77.7197 38.2161 79.0917 37.9884C80.4418 37.6977 81.7346 37.1865 82.9183 36.4754C84.1921 35.7239 85.5181 35.0647 86.8862 34.5028C88.2742 33.9733 89.7129 33.5871 91.1796 33.3504C91.1725 32.4243 91.222 31.4698 91.3069 30.5224C91.4644 29.2016 91.7006 27.8913 92.0142 26.5985C92.3089 25.3029 92.6941 24.0295 93.1671 22.7878C93.2944 22.4697 93.4217 22.1586 93.5773 21.8404C93.6626 21.6622 93.7594 21.4898 93.8673 21.3243C93.9884 21.1598 94.1207 21.0039 94.2634 20.8577C94.7791 20.3687 95.3627 19.9567 95.9963 19.6346C97.0456 19.084 98.1743 18.7 99.3418 18.4963C99.6677 17.7648 100.118 17.0951 100.672 16.5167C101.211 15.9559 101.798 15.4426 102.426 14.9825C103.623 14.0344 104.923 13.2234 106.302 12.5646C106.627 12.3949 107.051 12.204 107.334 12.0838C107.473 12.025 107.618 11.9493 107.777 11.8665C107.942 11.7802 108.122 11.6862 108.325 11.596C108.749 11.397 109.213 11.2956 109.683 11.299C110.077 11.3074 110.472 11.3357 110.864 11.3839C112.383 11.555 113.881 11.882 115.334 12.3595C116.763 12.8388 118.162 13.4055 119.521 14.0563L121.53 15.032L122.527 15.5269C122.748 15.6464 123.03 15.7557 123.33 15.8721C123.385 15.8934 123.44 15.915 123.496 15.937C123.857 16.0784 124.196 16.2268 124.564 16.4106C124.764 16.5109 124.956 16.6267 125.137 16.7571C125.313 16.8982 125.478 17.0518 125.632 17.2166C126.176 17.8015 126.65 18.4468 127.047 19.1397L127.094 19.2221C127.826 20.4918 128.505 21.6716 129.558 22.3636L130.4 22.9221C130.364 22.9504 130.364 23.014 130.364 23.014L130.131 23.4312L129.353 23.6291C129.278 23.6518 129.21 23.6892 129.15 23.7389C129.09 23.7887 129.042 23.85 129.006 23.919C128.968 23.9836 128.946 24.0563 128.942 24.1311C128.935 24.2842 128.935 24.4376 128.942 24.5907C128.944 24.8304 128.908 25.0689 128.836 25.2977C128.792 25.452 128.743 25.5783 128.704 25.6815C128.687 25.7249 128.672 25.7641 128.66 25.7996C128.617 25.9015 128.617 26.0159 128.66 26.1178C129.213 26.6886 129.856 27.1661 130.562 27.5318C130.74 27.6327 130.925 27.7224 131.114 27.8005L131.404 27.9136C131.549 27.9794 131.689 28.0575 131.821 28.1469C132.198 28.3856 132.508 28.6188 132.831 28.8613C132.871 28.8916 132.912 28.9222 132.953 28.9529L135.075 30.579L135.598 30.9749L136.157 31.3708ZM11.2826 122.291C11.6586 122.807 11.9367 123.387 12.1031 124.002C12.2237 124.46 12.2925 124.929 12.3082 125.402H13.5743C13.2419 122.362 12.4992 121.881 11.2826 122.291ZM16.3045 125.374C16.2592 124.654 16.0793 123.949 15.774 123.295V123.324C15.6299 122.973 15.3738 122.679 15.0455 122.489C14.9071 122.431 14.7562 122.409 14.6069 122.426C15.0205 123.36 15.2785 124.356 15.3708 125.374H16.3045ZM51.7403 95.4253C51.6343 95.4889 51.6342 95.5313 51.6342 95.5313V95.5596C51.2099 108.088 53.1408 117.873 57.6251 125.374H66.042C65.9297 124.4 65.4519 123.506 64.7052 122.871C64.3227 122.67 63.9027 122.551 63.4718 122.521C63.0408 122.49 62.6083 122.549 62.2013 122.694C61.5918 122.89 60.9637 123.023 60.327 123.09H60.2563L59.6975 123.126C57.67 123.007 55.8758 112.529 55.4102 109.811L55.39 109.693C55.0788 107.911 53.9613 99.9854 55.1991 97.5251C55.5988 96.6658 56.6868 95.6569 57.9546 94.4814C60.1186 92.4749 62.8062 89.9828 63.4886 86.92C64.1682 82.4319 63.8715 77.8501 62.6187 73.487C62.0104 71.6134 60.0582 69.2237 57.0593 67.2159C55.7006 67.244 54.3566 67.5022 53.0842 67.9794C53.3051 68.2692 53.5799 68.5927 53.8889 68.9565L53.9118 68.9834C55.4134 70.5846 56.6459 72.4182 57.5614 74.4131C58.4119 77.2427 57.9711 83.721 57.8505 85.4931C57.8337 85.7402 57.8231 85.8958 57.8231 85.9373C57.036 89.7418 54.8696 93.121 51.7403 95.4253ZM68.5016 125.374C68.4536 124.69 68.2074 124.034 67.7929 123.487C67.3727 122.932 66.798 122.514 66.141 122.284C66.856 123.176 67.3178 124.243 67.4778 125.374H68.5016ZM86.6457 123.147C86.5176 122.786 86.3517 122.44 86.1506 122.115C86.0119 121.905 85.807 121.748 85.5685 121.669C85.33 121.589 85.0718 121.592 84.835 121.676L84.1277 121.945C84.5648 122.487 84.9024 123.102 85.125 123.762C85.2822 124.256 85.4097 124.759 85.507 125.268H87.1196C87.0168 124.55 86.8583 123.841 86.6457 123.147ZM87.7915 122.214C88.1982 123.205 88.4832 124.243 88.6403 125.303L89.5457 125.31C89.383 123.472 88.6191 121.959 87.7915 122.214ZM103.238 97.0237C103.305 96.9711 103.372 96.9192 103.437 96.8676V96.8888C104.542 96.0878 105.469 95.0672 106.16 93.8911C106.698 92.9502 107.033 91.9075 107.143 90.8297C107.146 90.4945 107.078 90.1625 106.945 89.8546C106.813 89.5467 106.618 89.2697 106.372 89.041C106.116 88.8326 105.925 88.556 105.82 88.2432C105.714 87.9303 105.7 87.5941 105.778 87.2735C106.24 85.4779 105.834 82.6208 105.447 79.8997C105.248 78.496 105.054 77.1284 104.986 75.9615C103.112 76.2372 101.082 77.8068 100.035 78.7188C100.431 80.1964 100.855 81.4832 101.138 82.3174C101.795 84.0234 102.159 85.8282 102.213 87.6553V88.2987L101.57 88.3482C101.384 88.3609 101.204 88.4144 101.041 88.5048C100.878 88.5953 100.738 88.7204 100.629 88.8714C100.627 89.4769 100.519 90.0774 100.311 90.6459C99.2024 93.2589 95.5383 95.089 94.0785 95.8182L94.0158 95.8495L93.9027 95.906C93.3849 96.2019 92.8164 96.3986 92.2263 96.4858C91.7756 96.5132 91.3233 96.4775 90.8825 96.3797L90.6632 96.3444C89.4042 96.111 88.704 96.1252 88.3999 96.3939C88.0957 96.6625 88.0603 96.8534 87.9967 97.419C87.9684 97.6594 87.9401 97.8786 87.8977 98.126L87.8552 98.2603C87.7929 98.4148 87.6989 98.5544 87.5794 98.6704C88.124 99.0248 88.691 99.3437 89.2769 99.6249C89.954 99.8911 90.6717 100.039 91.3988 100.063C92.951 100.063 94.4956 99.8491 95.9892 99.4269L95.3668 99.6744C93.4253 100.609 91.2974 101.092 89.1425 101.088C88.2052 101.125 87.2785 100.878 86.4831 100.381C86.9267 101.092 87.4973 101.715 88.1664 102.22C88.3577 102.356 88.5673 102.466 88.7889 102.545C89.0793 102.616 89.3826 102.616 89.673 102.545C90.4379 102.392 91.2136 102.3 91.9929 102.269C92.7293 102.268 93.4613 102.156 94.1644 101.937C94.8503 101.628 95.4944 101.234 96.0812 100.763C95.5636 101.34 94.9741 101.849 94.3271 102.276C93.621 102.627 92.8645 102.865 92.0849 102.983C91.364 103.126 90.6547 103.322 89.963 103.57C89.5254 103.734 89.0557 103.794 88.5908 103.747H88.5059C88.945 103.976 89.4264 104.113 89.9205 104.15C90.4068 104.106 90.8837 103.989 91.3351 103.803L91.8585 103.619C92.8703 103.351 93.9221 103.268 94.9636 103.372C95.8959 103.372 96.7328 102.736 97.6129 102.068C97.661 102.031 97.7091 101.995 97.7575 101.958L97.9414 101.817C98.5426 101.343 99.5611 100.374 100.466 99.5117C100.545 99.4374 100.622 99.3635 100.699 99.2904C101.212 98.8011 101.684 98.3506 102.023 98.0553C102.444 97.6462 102.855 97.3241 103.238 97.0237ZM127.577 43.0717C128.51 43.0999 129.444 43.0168 130.357 42.8243V42.8455C130.878 42.7436 131.394 42.6101 131.935 42.4702C132.07 42.4353 132.206 42.4 132.345 42.3647C133.766 41.7638 134.707 40.1377 132.783 40.3498C132.331 40.3841 131.883 40.4479 131.439 40.5406C131.096 40.6071 130.756 40.7313 130.394 40.864C130.061 40.9856 129.71 41.1143 129.317 41.2123C128.533 41.3965 127.715 41.377 126.941 41.1557C126.263 40.8822 125.548 40.7153 124.819 40.6608C125.157 40.4608 125.537 40.3444 125.929 40.3215C126.21 40.2929 126.462 40.3028 126.705 40.3123C126.823 40.3169 126.938 40.3215 127.054 40.3215C127.716 40.4052 128.388 40.3765 129.041 40.2366C129.371 40.1425 129.707 39.9612 130.071 39.7654C130.362 39.6083 130.671 39.4418 131.008 39.3034C131.746 38.9961 132.535 38.8306 133.335 38.8156H133.816C134.375 38.0378 134.848 37.1753 134.665 36.4683C134.447 36.1766 134.146 35.9573 133.802 35.8391C133.71 35.8071 133.532 35.7608 133.302 35.7007C132.459 35.4815 130.913 35.079 130.308 34.524C129.855 34.0645 130.124 33.1454 131.977 32.7565C132.829 32.6084 133.699 32.5822 134.558 32.6788C134.852 32.7336 135.156 32.7067 135.436 32.601L135.329 32.5091L134.792 32.1273L134.247 31.7173L132.125 30.0982C131.779 29.8366 131.411 29.568 131.071 29.3488L130.902 29.2498L130.569 29.1155C130.348 29.0165 130.128 28.9104 129.911 28.7973C129.234 28.4393 128.607 27.9949 128.044 27.4752C125.972 25.7289 123.652 21.5293 123.044 20.1648C122.562 19.107 121.705 18.2654 120.639 17.8034C121.161 17.7713 121.683 17.8598 122.165 18.0622C122.647 18.2645 123.076 18.5751 123.418 18.97C123.597 19.1176 123.929 19.5988 124.331 20.18C125.142 21.3532 126.234 22.9337 126.905 22.9999C127.266 22.9864 127.625 22.9318 127.973 22.8373C127.639 22.5159 127.334 22.1657 127.061 21.7909C126.698 21.3118 126.416 20.8169 126.145 20.3385C126.052 20.1746 125.96 20.0125 125.866 19.8537C125.532 19.2559 125.133 18.6963 124.677 18.1852C124.642 18.1522 124.602 18.113 124.562 18.0737C124.482 17.9951 124.402 17.9166 124.359 17.8883C124.238 17.8061 124.113 17.7306 123.984 17.662C123.694 17.5136 123.397 17.3863 123.029 17.2449C122.662 17.1035 122.336 16.9762 121.954 16.7854L120.964 16.2905L118.984 15.3289C117.676 14.7048 116.332 14.1594 114.959 13.6957C113.599 13.2483 112.195 12.9427 110.772 12.7837C110.434 12.7388 110.094 12.7129 109.753 12.7059C109.479 12.6976 109.206 12.7584 108.961 12.8827C108.823 12.9402 108.679 13.0154 108.524 13.0968C108.354 13.1857 108.171 13.282 107.964 13.3705L106.981 13.823C105.702 14.4664 104.481 15.2186 103.331 16.0713C102.406 16.6758 101.588 17.4309 100.912 18.3054C101.913 18.2629 102.913 18.4068 103.861 18.7296C102.586 18.7085 101.316 18.8923 100.099 19.274C99.5012 19.4451 98.9173 19.6601 98.3516 19.9174C97.7844 20.1571 97.2379 20.4433 96.7178 20.7729C96.2026 21.0642 95.7272 21.4206 95.3031 21.8334C95.1306 22.0093 94.9958 22.2186 94.9071 22.4484C94.7868 22.71 94.6736 22.9999 94.5675 23.2898C94.1587 24.4796 93.8326 25.6961 93.5914 26.9308C93.0798 29.3916 92.8896 31.9083 93.0256 34.418C93.1276 36.4402 93.6554 38.4182 94.5746 40.2225C95.4446 39.0842 96.2934 37.9177 97.1138 36.737C98.1709 35.2178 99.1505 33.6462 100.049 32.0283C100.514 31.1945 100.925 30.3202 101.341 29.4367C101.722 28.6272 102.106 27.8098 102.539 27.0086C102.979 26.153 103.493 25.3369 104.074 24.5695C104.374 24.1736 104.724 23.8173 105.113 23.5089C105.499 23.1921 105.974 23.002 106.471 22.9646C104.887 24.3927 103.649 28.2035 102.426 32.4879C101.428 35.9522 98.0687 43.8706 95.9468 44.0686C95.1192 44.111 94.8222 43.7151 94.2563 42.9091L93.7966 42.2728C92.9821 41.1408 92.3607 39.8818 91.9576 38.5469C91.6096 37.3242 91.3915 36.0682 91.3069 34.7998C89.9979 35.0194 88.7139 35.3675 87.4733 35.8391C86.1599 36.3788 84.888 37.0145 83.668 37.7409C82.3521 38.5179 80.9189 39.0766 79.4242 39.3953C77.9335 39.6468 76.416 39.6991 74.9116 39.5508C72.0046 39.3812 69.0905 39.1054 66.2118 38.7519L57.5756 37.7126L23.0875 33.3504L5.8364 31.1375L1.74111 30.6073C1.77427 30.6794 1.81456 30.7481 1.86136 30.8123C2.10473 31.1446 2.41566 31.4217 2.77376 31.6253C4.2309 32.2459 6.63711 32.554 10.5863 33.0596C12.0813 33.251 13.7975 33.4707 15.7669 33.7464C18.4996 34.1428 21.0124 34.5392 23.8159 34.9814C26.9626 35.4778 30.4754 36.032 35.0763 36.7087C41.7391 37.6844 50.637 39.0135 47.8077 40.8871C46.3845 41.536 45.0293 42.3247 43.7619 43.2414C41.9316 44.8196 40.244 46.5561 38.7189 48.4308C37.447 49.9812 36.3422 51.6614 35.4229 53.4434C34.9591 54.3163 34.5642 55.224 34.2417 56.1583C33.9305 57.0916 33.6758 58.0743 33.4424 59.057C33.093 60.5387 32.7714 62.0322 32.4478 63.5346C32.339 64.0396 32.2301 64.5456 32.1198 65.0524C32.0429 65.3982 31.9627 65.731 31.8793 66.0773C31.84 66.2408 31.7999 66.4073 31.759 66.5796C31.675 66.9342 31.5663 67.2611 31.4574 67.5888C31.4013 67.7576 31.3451 67.9265 31.2922 68.0996C30.9598 69.0965 30.6061 70.0721 30.2171 71.0337C28.6964 74.8939 26.9069 78.6127 25.0467 82.2892C24.1131 84.1274 23.1512 85.9514 22.1468 87.7543C21.6446 88.6592 21.1424 89.5571 20.5907 90.455C20.4875 90.6384 20.3472 90.8404 20.2148 91.0308C20.1839 91.0753 20.1534 91.1192 20.1239 91.162L19.6359 91.7913C19.2964 92.2013 18.9569 92.6043 18.5891 92.9932C17.8486 93.7799 17.0311 94.4905 16.1489 95.1142L15.5759 95.4606L15.4769 95.8283C15.3284 96.3514 15.1586 96.8463 14.9818 97.3342C14.2674 99.2926 13.4682 101.201 12.6053 103.082C12.0328 104.337 11.4234 105.57 10.8172 106.796C9.60329 109.251 8.40187 111.681 7.53392 114.217C6.86604 116.098 6.45446 118.06 6.31028 120.05C6.2004 121.845 6.34326 123.647 6.73466 125.402H10.4126C10.2783 123.847 9.82558 122.164 8.72926 122.574C8.22 122.73 7.69659 122.871 7.15197 122.991C7.64708 122.553 8.16342 122.136 8.70804 121.74C8.74597 121.711 8.78617 121.685 8.82827 121.662C8.67267 116.529 11.8202 108.597 15.4699 102.941C17.9004 99.3388 20.5856 95.9152 23.5048 92.6962C25.0753 90.9901 26.5975 89.672 28.1783 88.3032C32.4994 84.5614 37.2576 80.4412 44.632 66.9825C46.052 64.1158 47.3466 62.5603 48.3814 61.3169C50.233 59.0922 51.2531 57.8666 50.6723 51.9163C51.0917 54.0273 51.7811 56.0756 52.7235 58.0107C53.6261 59.4722 54.9461 60.43 56.3033 61.4149C57.0734 61.9737 57.8554 62.5411 58.58 63.2142C58.6088 63.2466 58.6395 63.2773 58.6719 63.3061C60.8258 64.733 62.8159 66.3927 64.6062 68.2552C66.4452 69.9732 69.6917 71.3306 72.1036 71.2387C71.7736 68.9473 71.7475 66.6224 72.0258 64.3242C72.3056 66.9428 72.7546 69.5406 73.3697 72.1012C73.9426 74.6747 74.4094 77.3755 73.9426 80.2035C73.6882 81.6304 73.0693 82.9674 72.146 84.0849L71.8631 84.4243C71.854 84.4639 71.854 84.5049 71.8631 84.5445C71.8588 84.5821 71.8588 84.62 71.8631 84.6576V84.898V85.3929C71.8822 85.6126 71.8997 85.8323 71.9172 86.0522C71.9516 86.4835 71.986 86.9158 72.0329 87.3513C72.3016 89.9601 72.6199 92.569 73.0089 95.1708C73.7799 100.374 74.756 105.55 75.7674 110.725L76.4747 114.26L76.7789 114.698C76.8007 114.738 76.8228 114.779 76.8451 114.82C76.9169 114.951 76.9899 115.085 77.0547 115.214C77.2103 115.561 77.3376 115.9 77.4508 116.232C77.6701 116.897 77.8398 117.554 78.0025 118.212C78.2139 119.119 78.4091 120.02 78.6031 120.916C78.9217 122.388 79.237 123.845 79.6151 125.282H82.8829C83.0527 125.247 83.2153 125.247 83.3851 125.247H83.7812C83.668 123.606 83.2224 121.726 81.5885 122.129C80.9873 122.32 80.3366 122.511 79.7 122.666C80.28 122.228 80.8246 121.825 81.4541 121.429L81.5673 121.372C79.4454 110.435 77.1608 96.6979 76.6162 92.7599C76.2059 89.7339 78.1864 87.6907 79.502 86.3968C82.4863 83.4659 85.6981 80.7756 89.1072 78.3512L89.5669 77.9977C90.9814 76.8913 92.5281 75.965 94.1714 75.2403C95.7883 74.5593 97.4411 73.9669 99.1226 73.4658C100.82 72.9496 102.404 72.4123 104.074 71.8326C104.56 71.6637 105.046 71.5057 105.528 71.349C106.701 70.9677 107.849 70.5945 108.912 70.0934C110.406 69.4287 111.721 68.421 112.752 67.1522C113.764 65.8583 114.5 64.3715 114.917 62.7829C115.335 61.1687 115.488 59.4972 115.369 57.8339L115.313 56.9643L116.161 57.0633C116.231 57.0723 116.29 57.0865 116.345 57.0998C116.42 57.1177 116.488 57.134 116.565 57.134C116.508 56.0644 116.268 55.0124 115.857 54.0232C115.355 52.777 114.714 51.5549 114.062 50.3124C114.007 50.2085 113.953 50.1045 113.898 50.0003C113.137 48.6029 112.616 47.0878 112.356 45.5179C112.219 44.6937 112.245 43.8504 112.434 43.0364C112.475 42.8628 112.53 42.6926 112.597 42.5273C110.298 43.9837 110.043 45.8219 110.751 47.8723C111.178 48.8634 111.696 49.7757 112.197 50.6575C113.165 52.3607 114.069 53.9505 114.124 55.7766C113.851 55.4849 113.5 55.2766 113.113 55.1756C113.767 64.8134 109.001 67.3564 107.275 68.2771C107.173 68.3316 107.081 68.3805 107.002 68.4248C108.976 64.2158 105.987 59.5972 104.817 57.7901C104.692 57.5969 104.587 57.4357 104.512 57.3107C104.99 57.3678 105.463 57.4624 105.927 57.5935C105.927 57.5935 105.616 56.5401 101.648 52.6021C98.6382 49.6256 99.6977 47.0106 101.472 42.6314C101.683 42.1114 101.903 41.5665 102.129 40.9931C102.803 39.2933 103.298 37.5281 103.607 35.726C103.692 35.105 103.81 34.4891 103.961 33.8807C103.969 34.0668 103.974 34.2524 103.979 34.4373C103.992 34.8845 104.004 35.3282 104.06 35.7684C104.094 36.3689 104.213 36.9616 104.413 37.5288C104.506 37.7708 104.643 37.9936 104.816 38.1863C104.861 38.2348 104.91 38.2794 104.966 38.3304C105.016 38.3761 105.071 38.4269 105.135 38.4903C105.23 38.5971 105.332 38.6986 105.439 38.7943C105.891 39.1333 106.392 39.4026 106.924 39.5933C108.053 39.9875 109.227 40.2392 110.418 40.3427C111.564 40.477 112.731 40.5336 113.905 40.5336H114.082C115.301 40.5406 116.51 40.7485 117.661 41.1487C118.691 41.4906 119.766 41.6787 120.851 41.7072C123.134 41.927 125.389 42.3843 127.577 43.0717ZM115.546 22.3425C116.949 22.4468 118.339 22.6836 119.698 23.0495C119.735 23.0615 119.767 23.0838 119.791 23.1138C119.815 23.1438 119.83 23.1801 119.833 23.2183C119.837 23.2565 119.83 23.295 119.812 23.329C119.794 23.3631 119.767 23.3913 119.733 23.4101C119.533 23.5882 119.383 23.816 119.299 24.0704C119.214 24.3248 119.198 24.5969 119.252 24.8595C119.337 25.6937 118.347 26.3442 117.131 26.4785C115.617 26.6482 114.796 25.7644 115.009 24.7251C115.419 23 114.528 23.5515 113.933 24.2585C113.922 24.2721 113.906 24.2815 113.888 24.2855C113.871 24.2895 113.853 24.2879 113.836 24.2808C113.82 24.2737 113.806 24.2616 113.797 24.2462C113.787 24.2307 113.783 24.2128 113.785 24.1949C114.04 22.4203 115.079 22.3425 115.546 22.3425Z"
    fill="#73726F" />
</svg>