<svg width="277" height="60" viewBox="0 0 277 60" fill="none" xmlns="http://www.w3.org/2000/svg">
  <path fill-rule="evenodd" clip-rule="evenodd"
    d="M64.8473 42.0442V9.87714C64.8473 6.86922 64.0417 5.79666 60.4998 6.13035V4.5954L68.3891 2.92223C69.9288 2.58855 70.8631 3.32265 70.8631 4.92909V41.9012C70.8631 44.2417 72.2693 44.6422 74.1999 44.2417V45.1951C73.3991 46.3964 71.3922 47.1353 69.5188 47.1353C66.8684 47.1448 64.8473 45.6575 64.8473 42.0442ZM15.3525 41.577C15.3525 44.0511 13.9511 44.6469 8.53111 45.1236V46.7253H29.0765V45.1236C23.6565 44.6517 22.1883 44.0511 22.1883 41.577V11.6171C22.1883 8.40417 22.7222 7.60333 27.5367 7.60333C32.2274 7.60333 33.7671 9.00957 35.6405 14.2246H37.3756L36.2411 5.72994C36.2288 5.62834 36.1963 5.53022 36.1456 5.44136C36.0948 5.3525 36.0268 5.2747 35.9455 5.21251C35.8642 5.15033 35.7713 5.10502 35.6723 5.07927C35.5732 5.05353 35.4701 5.04785 35.3688 5.06257C34.3582 5.12931 32.6945 5.19605 31.0214 5.19605H6.54332C4.86061 5.19605 3.20649 5.12931 2.25311 5.06257C1.70015 5.06257 1.36647 5.25325 1.29973 5.72994L0.231934 14.2246H1.96709C3.85002 9.00957 5.38973 7.60333 10.0708 7.60333C14.8759 7.60333 15.3525 8.40417 15.3525 11.6171V41.577ZM50.6657 29.0019C36.1553 30.7419 32.0081 34.5554 32.0081 39.7704C32.0081 44.9901 36.2887 47.1352 40.7029 47.1352C45.117 47.1352 49.1308 45.1093 51.4713 42.2492C51.9385 41.6485 52.4724 41.6485 52.4724 42.3159C52.6058 45.4621 54.4125 47.1352 57.1535 47.1352C59.0269 47.1352 60.967 46.3964 61.7678 45.1951V44.2417C59.8277 44.6421 58.493 44.2417 58.493 41.9012V27.2716C58.493 19.3061 55.3468 15.9692 47.4576 15.9692C40.9698 15.9692 34.0149 18.0381 34.0149 23.1196C34.0149 25.0597 35.016 26.3944 37.0229 26.3944C38.8962 26.3944 40.3025 25.1932 40.3025 22.7192C40.3025 19.7065 41.8374 17.8998 45.6509 17.8998C50.3988 17.8998 52.4724 20.8267 52.4724 25.5936V27.0666C52.4724 28.4681 51.8717 28.8685 50.6657 29.0019ZM52.4724 33.0824V35.8281C52.4724 40.3758 48.6589 43.7174 44.1065 43.7174C40.1642 43.7174 38.3576 41.2433 38.3576 38.5024C38.3576 35.423 40.4359 31.9479 49.7981 30.9421C51.9957 30.6751 52.4724 31.5475 52.4724 33.0824ZM78.2232 9.87714V42.0442C78.2232 45.6575 80.2158 47.1448 82.8948 47.1353C84.7682 47.1353 86.7703 46.3964 87.5759 45.1951V44.2417C85.6453 44.6422 84.239 44.2417 84.239 41.9012V4.92909C84.239 3.32265 83.3047 2.58855 81.765 2.92223L73.8758 4.5954V6.13035C77.4176 5.79666 78.2232 6.86922 78.2232 9.87714ZM89.8592 55.6203C89.849 55.1643 89.9325 54.711 90.1044 54.2884C90.2763 53.8659 90.533 53.4831 90.8587 53.1637C91.1843 52.8442 91.5721 52.595 91.9979 52.4313C92.4236 52.2676 92.8785 52.193 93.3343 52.212C95.6094 52.212 95.932 53.8016 96.2232 55.2367C96.4629 56.4175 96.6812 57.4937 97.9486 57.4937C99.4883 57.4937 100.809 55.2866 101.762 52.9461C103.102 49.471 102.296 46.6585 101.362 44.4515L93.258 24.1874C91.5848 20.1069 90.784 19.1726 87.9095 18.1048V16.5651H101.819V18.1048C98.206 19.1726 97.9391 20.0402 99.679 24.1874L105.433 38.4356C106.3 40.5092 107.034 40.5092 107.907 38.3689L110.714 31.0755C115.062 20.1117 113.856 19.1583 109.914 18.1048V16.5651H122.017V18.1048C118.136 19.1726 117.069 20.1736 115.529 24.1874L104.527 51.5446C102.453 56.7596 100.58 59.9677 95.6319 59.9677C92.0663 59.9677 89.8592 58.1658 89.8592 55.6203ZM166.168 41.577V10.3443C166.168 7.87027 167.574 7.20291 170.31 6.80249V5.19605H155.132V6.80249C157.873 7.20291 159.346 7.87027 159.346 10.3443V22.8336C159.346 24.4353 158.412 25.1074 156.806 25.1074H141.223C139.616 25.1074 138.749 24.4353 138.749 22.8336V10.3443C138.749 7.87027 140.15 7.20291 142.896 6.80249V5.19605H127.713V6.80249C130.43 7.20291 131.86 7.87027 131.86 10.3443V41.577C131.86 44.0511 130.454 44.6469 127.713 45.1236V46.7253H142.881V45.1236C140.136 44.6517 138.734 44.0511 138.734 41.577V29.4071C138.734 27.8007 139.602 27.1333 141.142 27.1333H156.872C158.393 27.1333 159.346 27.8007 159.346 29.4071V41.577C159.346 44.0511 157.873 44.6469 155.132 45.1236V46.7253H170.315V45.1236C167.598 44.6517 166.168 44.0511 166.168 41.577ZM172.303 31.6142C172.303 21.7801 179.658 15.9645 187.886 15.9645C196.113 15.9645 203.402 21.7134 203.402 31.4807C203.402 41.2481 196.051 47.1448 187.819 47.1448C179.587 47.1448 172.303 41.3768 172.303 31.6142ZM196.914 34.0215C196.914 25.3934 192.624 17.9713 186.346 17.9713C181.932 17.9713 178.786 21.5131 178.786 29.0687C178.786 37.6968 183.076 45.0569 189.354 45.0569C193.701 45.0569 196.914 41.577 196.914 34.0215ZM210.958 4.12349C208.417 4.12349 206.81 6.06362 206.81 9.14304C206.81 11.9699 207.355 14.9412 207.982 18.3588C208.778 22.6983 209.706 27.7576 209.818 34.155H212.025C212.148 27.7685 213.094 22.7156 213.906 18.381C214.547 14.954 215.105 11.976 215.105 9.14304C215.105 6.06362 213.498 4.12349 210.958 4.12349ZM208.235 40.48C207.508 41.1939 207.092 42.1652 207.077 43.1835C207.064 43.9536 207.28 44.7103 207.699 45.3571C208.117 46.0039 208.718 46.5117 209.426 46.8156C210.134 47.1195 210.916 47.206 211.673 47.0639C212.43 46.9218 213.128 46.5576 213.677 46.0177C214.226 45.4778 214.603 44.7866 214.758 44.0321C214.913 43.2777 214.84 42.4941 214.548 41.7811C214.257 41.0682 213.76 40.4582 213.12 40.0288C212.481 39.5994 211.728 39.3701 210.958 39.37C209.939 39.3673 208.961 39.7662 208.235 40.48Z"
    fill="#002825" />
  <path fill-rule="evenodd" clip-rule="evenodd"
    d="M276.412 25.0836C276.412 38.8659 265.24 50.0386 251.457 50.0386C237.675 50.0386 226.502 38.8659 226.502 25.0836C226.502 11.3014 237.675 0.128662 251.457 0.128662C265.24 0.128662 276.412 11.3014 276.412 25.0836ZM251.457 49.3948C264.884 49.3948 275.769 38.5103 275.769 25.0836C275.769 11.6569 264.884 0.772439 251.457 0.772439C238.031 0.772439 227.146 11.6569 227.146 25.0836C227.146 38.5103 238.031 49.3948 251.457 49.3948Z"
    fill="#002825" />
  <path
    d="M267.861 15.6255L265.746 15.5019C265.595 15.4921 265.453 15.429 265.345 15.3238C265.236 15.2187 265.169 15.0783 265.155 14.928L264.969 12.9724C264.963 12.9397 264.946 12.9102 264.921 12.8889C264.895 12.8676 264.863 12.856 264.83 12.856C264.797 12.856 264.765 12.8676 264.739 12.8889C264.714 12.9102 264.697 12.9397 264.691 12.9724L264.501 14.928C264.489 15.079 264.422 15.2203 264.313 15.3258C264.204 15.4313 264.061 15.4939 263.91 15.5019L261.795 15.6343C261.762 15.6402 261.733 15.6573 261.712 15.6827C261.69 15.7081 261.679 15.7403 261.679 15.7734C261.679 15.8066 261.69 15.8386 261.712 15.8641C261.733 15.8895 261.762 15.9066 261.795 15.9124L263.91 16.0361C264.06 16.0467 264.202 16.1102 264.31 16.2151C264.418 16.3201 264.486 16.46 264.501 16.61L264.687 18.5656C264.692 18.5982 264.71 18.6278 264.735 18.6491C264.76 18.6703 264.793 18.682 264.826 18.682C264.859 18.682 264.891 18.6703 264.916 18.6491C264.942 18.6278 264.959 18.5982 264.965 18.5656L265.15 16.61C265.165 16.4596 265.232 16.3193 265.34 16.2142C265.449 16.109 265.591 16.0459 265.742 16.0361L267.861 15.9036C267.893 15.8978 267.923 15.8807 267.944 15.8552C267.965 15.8298 267.977 15.7977 267.977 15.7646C267.977 15.7314 267.965 15.6993 267.944 15.6739C267.923 15.6485 267.893 15.6313 267.861 15.6255Z"
    fill="#EF9C32" />
  <path fill-rule="evenodd" clip-rule="evenodd"
    d="M263.415 22.9538L263.764 23.201C264.072 23.4089 264.313 23.7018 264.457 24.0442C264.527 24.2362 264.554 24.441 264.536 24.6445C264.521 24.8033 264.496 24.9611 264.461 25.1169C264.39 25.4243 264.279 25.7211 264.13 25.9998C264.052 26.1424 263.962 26.2783 263.861 26.406L263.812 26.4722L263.874 26.8651C263.894 27.0218 263.904 27.1795 263.905 27.3374C263.901 27.9633 263.76 28.5808 263.493 29.1466C263.225 29.7125 262.837 30.2129 262.356 30.613L262.298 30.6616L262.228 30.6837C261.61 30.905 260.977 31.0792 260.334 31.2046C259.677 31.3429 259.005 31.4007 258.334 31.3768H258.29H258.237C256.91 30.9555 255.543 30.6744 254.158 30.538C254.069 30.5302 253.98 30.5232 253.89 30.5161C253.623 30.4953 253.347 30.4738 253.063 30.4276C252.688 30.369 252.32 30.2744 251.964 30.1451C251.345 29.9301 250.695 29.8168 250.039 29.8096H250.017C249.826 30.1074 249.698 30.4417 249.643 30.7912C249.588 31.1407 249.605 31.4979 249.695 31.8403C249.864 32.6983 250.161 33.5258 250.578 34.2948C251.055 35.1037 251.483 35.9411 251.858 36.8023C252.06 37.2587 252.208 37.7372 252.299 38.2282C252.395 38.7636 252.355 39.3144 252.184 39.8307L251.968 40.4443L251.443 40.0558C251.364 39.9994 251.28 39.9506 251.191 39.9101C251.151 40.2079 251.092 40.5027 251.015 40.793C250.867 41.2992 250.655 41.7843 250.383 42.2366C250.024 39.3704 248.019 38.5492 246.06 37.7466C245.182 37.3872 244.314 37.0315 243.607 36.4977C241.32 34.7716 241.135 32.7541 242.547 29.2225C242.979 28.1363 243.292 27.0071 243.483 25.8541C243.523 25.5937 243.572 25.3376 243.629 25.0816C243.634 25.0458 243.641 25.0104 243.651 24.9756L243.691 24.7946C243.696 24.9108 243.699 25.0266 243.703 25.142C243.71 25.4213 243.718 25.6984 243.753 25.9733C243.774 26.3483 243.848 26.7184 243.973 27.0725C244.03 27.2229 244.116 27.3608 244.225 27.4787C244.256 27.5152 244.291 27.5471 244.331 27.5844C244.359 27.6102 244.389 27.6386 244.424 27.6729C244.482 27.7396 244.545 27.8016 244.614 27.8584C244.894 28.0734 245.207 28.2432 245.541 28.3616C246.245 28.6078 246.978 28.765 247.721 28.8296C248.437 28.9134 249.165 28.9443 249.898 28.9443H250.008C250.768 28.9499 251.523 29.0781 252.242 29.324C252.884 29.5411 253.555 29.6601 254.233 29.6772C255.658 29.8144 257.065 30.1 258.431 30.5292C259.013 30.5446 259.596 30.4927 260.166 30.3747C260.572 30.2952 260.974 30.1848 261.371 30.0656C262.259 29.6904 262.846 28.675 261.645 28.8075C261.361 28.8271 261.08 28.8669 260.802 28.9267C260.585 28.9663 260.37 29.0454 260.141 29.1301C259.936 29.2057 259.719 29.2857 259.477 29.3461C258.988 29.4611 258.477 29.4489 257.994 29.3107C257.572 29.1363 257.125 29.0304 256.67 28.9973C256.882 28.8758 257.119 28.8048 257.363 28.7898C257.538 28.772 257.695 28.7782 257.847 28.7841C257.92 28.787 257.993 28.7898 258.065 28.7898C258.478 28.8421 258.898 28.8242 259.305 28.7369C259.511 28.6781 259.721 28.5649 259.948 28.4426C260.129 28.3445 260.322 28.2406 260.532 28.1541C260.993 27.9604 261.486 27.857 261.985 27.8495H262.285C262.634 27.3639 262.93 26.8253 262.815 26.3839C262.679 26.2017 262.491 26.0648 262.276 25.991C262.219 25.971 262.108 25.9421 261.964 25.9046C261.438 25.7677 260.473 25.5164 260.095 25.1699C259.813 24.8829 259.981 24.3046 261.137 24.0662C261.669 23.9737 262.212 23.9574 262.749 24.0177C262.932 24.0497 263.121 24.033 263.296 23.9691L263.23 23.9117L262.894 23.6733L262.554 23.4173L261.23 22.4064C261.014 22.243 260.784 22.0753 260.572 21.9384L260.466 21.8766L260.259 21.7883C260.122 21.7309 259.985 21.6647 259.848 21.5941C259.425 21.369 259.034 21.09 258.683 20.7641C257.389 19.6782 255.941 17.0559 255.562 16.1995C255.259 15.5409 254.725 15.0163 254.061 14.725C254.387 14.7068 254.712 14.7634 255.013 14.8904C255.314 15.0174 255.581 15.2115 255.796 15.4578C255.907 15.55 256.114 15.8504 256.365 16.2134C256.871 16.9459 257.553 17.9328 257.972 17.9741C258.197 17.9657 258.421 17.9316 258.639 17.8726C258.43 17.6719 258.239 17.4533 258.069 17.2192C257.842 16.92 257.667 16.611 257.497 16.3123C257.439 16.2099 257.382 16.1088 257.323 16.0096C257.128 15.6375 256.893 15.2882 256.621 14.9678C256.559 14.902 256.492 14.84 256.422 14.7824C256.349 14.7279 256.271 14.6806 256.189 14.6411C256.008 14.5484 255.822 14.4689 255.593 14.3807C255.363 14.2924 255.16 14.2129 254.922 14.0937L254.304 13.7847L253.067 13.1843C252.252 12.7927 251.413 12.4521 250.556 12.1645C249.706 11.8852 248.831 11.6943 247.942 11.5951C247.731 11.567 247.519 11.5508 247.306 11.5465C247.135 11.5419 246.966 11.5782 246.812 11.6525C246.731 11.688 246.647 11.7325 246.557 11.7802C246.446 11.8391 246.326 11.903 246.19 11.9615L245.576 12.244C244.778 12.6457 244.016 13.1154 243.298 13.6478C242.72 14.0253 242.21 14.4968 241.788 15.0428C242.413 15.0141 243.038 15.104 243.629 15.3077C242.833 15.2952 242.041 15.4085 241.281 15.6432C240.908 15.7535 240.544 15.8892 240.19 16.0494C239.836 16.1976 239.495 16.3747 239.17 16.5791C238.85 16.7641 238.553 16.988 238.287 17.2457C238.179 17.3549 238.095 17.4857 238.04 17.6298C237.965 17.7931 237.895 17.9741 237.828 18.1551C237.573 18.898 237.37 19.6577 237.219 20.4286C236.9 21.9637 236.781 23.5337 236.866 25.0992C236.929 26.3634 237.258 27.6 237.833 28.728C238.376 28.0173 238.905 27.2889 239.418 26.5516C240.071 25.5937 240.693 24.6048 241.25 23.6071C241.54 23.0861 241.797 22.5411 242.056 21.9901C242.294 21.4861 242.534 20.9771 242.804 20.4772C243.077 19.9424 243.398 19.4327 243.761 18.9542C243.949 18.707 244.167 18.4845 244.41 18.292C244.65 18.0923 244.947 17.9734 245.258 17.9521C244.269 18.8394 243.497 21.2232 242.733 23.8941C242.11 26.0616 240.014 31.0059 238.689 31.1251C238.173 31.156 237.987 30.9088 237.634 30.4056L237.347 30.0083C236.839 29.2999 236.451 28.5123 236.199 27.6774C235.969 26.8593 235.828 26.0185 235.78 25.1699C235.739 24.3352 235.759 23.4987 235.837 22.6668C235.928 21.8425 236.068 21.0244 236.257 20.2167C236.441 19.4064 236.682 18.6099 236.976 17.8329C237.056 17.6386 237.135 17.4444 237.232 17.2457C237.286 17.1344 237.346 17.0268 237.413 16.9235C237.488 16.8198 237.57 16.7224 237.661 16.6321C237.983 16.3258 238.347 16.0672 238.742 15.864C239.399 15.524 240.103 15.2844 240.83 15.1532C241.035 14.6984 241.315 14.2819 241.66 13.9215C241.997 13.5714 242.363 13.2509 242.755 12.9636C243.483 12.3789 244.272 11.8742 245.108 11.4582C245.311 11.3567 245.576 11.2375 245.752 11.1624C245.839 11.1257 245.929 11.0784 246.028 11.0268C246.132 10.9729 246.244 10.9142 246.371 10.8578C246.636 10.7336 246.925 10.6703 247.218 10.6724C247.465 10.6754 247.711 10.6931 247.955 10.7254C248.904 10.8323 249.839 11.0364 250.745 11.3346C251.638 11.6319 252.511 11.9858 253.359 12.3941L254.613 13.0033L255.235 13.3123C255.373 13.3869 255.549 13.4552 255.736 13.5278C255.77 13.5412 255.805 13.5547 255.84 13.5684C256.065 13.6567 256.277 13.7494 256.506 13.8642C256.631 13.9267 256.751 13.9991 256.864 14.0805C256.974 14.1686 257.077 14.2645 257.173 14.3674C257.512 14.7326 257.808 15.1355 258.056 15.5682L258.086 15.6198C258.542 16.4125 258.966 17.1491 259.623 17.5812L260.148 17.93V17.9874L260.003 18.2478L259.517 18.3714C259.425 18.3999 259.347 18.4632 259.301 18.548C259.278 18.5902 259.264 18.6369 259.261 18.6849C259.256 18.7804 259.256 18.8762 259.261 18.9718C259.262 19.1215 259.239 19.2704 259.195 19.4133C259.172 19.4926 259.146 19.56 259.124 19.6173C259.108 19.6589 259.094 19.6952 259.084 19.7267C259.071 19.7574 259.065 19.7904 259.065 19.8238C259.065 19.8572 259.071 19.8903 259.084 19.9209C259.429 20.2784 259.83 20.5767 260.272 20.8039C260.382 20.8657 260.497 20.9186 260.616 20.9716L260.797 21.0423C260.888 21.0834 260.975 21.1321 261.058 21.1879C261.293 21.3369 261.487 21.4825 261.688 21.6338C261.713 21.6528 261.738 21.672 261.764 21.6912L263.089 22.7065L263.415 22.9538ZM251.924 20.1549C251.811 20.1659 251.697 20.1659 251.584 20.1549C250.825 20.1108 250.454 19.5899 250.578 19.0557C250.701 18.5215 250.626 18.3449 250.476 18.3449C250.243 18.4263 250.043 18.5813 249.907 18.7864H249.876C249.868 18.7878 249.859 18.7873 249.852 18.785C249.844 18.7827 249.837 18.7786 249.831 18.773C249.825 18.7675 249.82 18.7606 249.817 18.753C249.814 18.7453 249.813 18.7371 249.814 18.729C249.973 17.621 250.622 17.5724 250.909 17.5724C251.785 17.6375 252.652 17.7853 253.5 18.0138C253.525 18.0178 253.547 18.0291 253.566 18.0462C253.584 18.0633 253.596 18.0855 253.601 18.1098C253.607 18.1342 253.604 18.1595 253.595 18.1825C253.586 18.2056 253.569 18.2253 253.549 18.239C253.423 18.3497 253.329 18.4918 253.276 18.6508C253.223 18.8099 253.214 18.9801 253.248 19.144C253.301 19.6649 252.683 20.071 251.924 20.1549Z"
    fill="#002825" />
</svg>