<svg width="224" height="224" viewBox="0 0 224 224" fill="none" xmlns="http://www.w3.org/2000/svg">
  <mask id="mask0_2257_60523" style="mask-type:alpha" maskUnits="userSpaceOnUse" x="-6" y="56" width="236" height="316">
    <rect x="-6" y="56" width="236" height="316" rx="24" fill="#FEFEFC" />
  </mask>
  <g>
    <circle opacity="0.4" cx="112" cy="112" r="33.5" stroke="#21C580" />
    <circle opacity="0.15" cx="112" cy="112" r="80.5" stroke="#21C580" />
    <circle opacity="0.05" cx="112" cy="112" r="111.5" stroke="#21C580" />
    <circle opacity="0.2" cx="112" cy="112" r="55.5" stroke="#21C580" />
  </g>
  <path
    d="M119.693 93.0073C119.487 93.0361 119.297 93.1447 119.169 93.3141L115.97 97.4045C115.712 97.7275 115.729 98.1912 116.011 98.494L116.02 98.5037C116.213 98.7012 116.209 99.019 116.005 99.2048C112.813 102.107 109.225 102.824 103.001 102.824C102.624 102.824 102.301 103.093 102.231 103.463L102.226 103.489C100.658 111.515 95.056 127.899 95.0544 127.903C95.0543 127.903 95.0543 127.903 95.0543 127.903L95.0448 127.931C94.8267 128.57 95.4431 129.179 96.0787 128.951C96.0788 128.951 96.0788 128.951 96.0789 128.951C96.0837 128.95 112.098 123.218 119.943 121.614C120.321 121.54 120.593 121.207 120.593 120.822C120.593 114.45 121.294 110.783 124.131 107.517C124.31 107.312 124.626 107.308 124.816 107.503C125.092 107.77 125.519 107.814 125.841 107.605L130.638 104.333C131.01 104.077 131.113 103.562 130.863 103.182C130.613 102.802 130.111 102.696 129.739 102.952L126.092 105.432C125.744 105.669 125.277 105.622 124.982 105.321L118.202 98.3842C117.897 98.0722 117.871 97.5825 118.14 97.2394L120.418 94.3367C120.627 94.0779 120.659 93.7136 120.499 93.4196C120.337 93.1256 120.018 92.9626 119.693 93.0073ZM116.857 100.6C117.218 100.285 117.765 100.289 118.1 100.632L122.762 105.401C123.086 105.733 123.09 106.26 122.792 106.616C120.01 109.939 119.142 113.842 119.029 119.487C119.021 119.893 118.737 120.243 118.342 120.333C113.339 121.476 106.826 123.564 102.307 125.089C101.437 125.383 100.753 124.298 101.395 123.641L109.888 114.952C110.16 114.674 110.58 114.625 110.951 114.74C111.204 114.819 111.471 114.865 111.747 114.865C113.393 114.865 114.746 113.482 114.746 111.797C114.746 110.113 113.393 108.755 111.747 108.755C110.101 108.755 108.748 110.113 108.748 111.797C108.748 112.125 108.805 112.439 108.904 112.734C109.027 113.102 108.986 113.523 108.714 113.801L100.297 122.412C99.6518 123.072 98.5488 122.403 98.8319 121.525C100.323 116.9 102.364 110.236 103.48 105.12C103.567 104.72 103.918 104.433 104.327 104.424C109.814 104.307 113.619 103.422 116.857 100.6ZM111.747 110.391C112.528 110.391 113.146 110.999 113.146 111.797C113.146 112.596 112.528 113.229 111.747 113.229C111.432 113.229 111.141 113.143 110.91 112.972C110.867 112.94 110.832 112.901 110.794 112.863C110.779 112.848 110.764 112.834 110.747 112.82C110.494 112.561 110.348 112.197 110.348 111.797C110.348 110.999 110.966 110.391 111.747 110.391Z"
    fill="#21C580" />
</svg>