<svg width="590" height="653" viewBox="0 0 590 653" fill="none" xmlns="http://www.w3.org/2000/svg">
  <mask id="mask0_1608_41749" style="mask-type:alpha" maskUnits="userSpaceOnUse" x="0" y="0" width="590" height="653">
    <rect width="590" height="653" rx="16" fill="#FAF8F1" />
  </mask>
  <g mask="url(#mask0_1608_41749)">
    <g filter="url(#filter0_ddd_1608_41749)">
      <path
        d="M778.812 604.261C693.003 627.292 579.868 657.658 541.848 667.863C494.323 680.619 433.23 684.969 418.904 631.413C403.34 573.229 455.697 552.089 507.182 538.27C554.707 525.515 644.088 507.902 624.987 436.494C608.892 376.326 560.884 389.921 504.778 404.979L468.166 414.806"
        stroke="#33514E" stroke-width="5.5" />
    </g>
    <g filter="url(#filter1_ddd_1608_41749)">
      <path fill-rule="evenodd" clip-rule="evenodd"
        d="M300.841 424.284L459.067 381.815C461.201 381.243 463.394 382.508 463.964 384.643L479.584 443.033C480.154 445.167 478.888 447.361 476.754 447.934L318.528 490.402C314.823 493.224 310.521 495.386 305.747 496.667C300.974 497.948 296.169 498.231 291.552 497.643L124.084 542.592C121.95 543.164 119.758 541.899 119.187 539.765L103.568 481.374C102.997 479.24 104.264 477.046 106.397 476.473L223.869 444.943L223.889 444.938L273.866 431.524C277.57 428.702 281.873 426.54 286.646 425.259C291.419 423.978 296.224 423.696 300.841 424.284Z"
        fill="#CCD3D3" />
    </g>
    <rect width="251.502" height="68.4433" rx="4"
      transform="matrix(-0.965816 0.259228 -0.25841 -0.966035 480.618 446.897)" fill="#33514E" />
    <rect width="251.502" height="46.5414" rx="4"
      transform="matrix(-0.965816 0.259228 -0.25841 -0.966035 467.227 439.153)" fill="#193330" />
    <path
      d="M103.568 481.374C102.997 479.24 104.264 477.046 106.398 476.473L289.945 427.208C308.199 422.309 326.956 433.138 331.84 451.397C336.724 469.655 325.886 488.428 307.632 493.327L124.084 542.592C121.951 543.164 119.758 541.899 119.187 539.765L103.568 481.374Z"
      fill="#CCD3D3" />
    <path
      d="M320.796 454.361C324.046 466.51 316.848 478.997 304.721 482.252C292.594 485.507 280.128 478.298 276.878 466.149C273.628 453.999 280.826 441.512 292.953 438.257C305.08 435.002 317.546 442.211 320.796 454.361Z"
      stroke="#99A8A7" />
    <path fill-rule="evenodd" clip-rule="evenodd"
      d="M467.625 403.613L474.934 401.651C476.001 401.365 477.097 401.998 477.382 403.065L478.28 406.422L485.59 404.46C486.656 404.174 487.753 404.807 488.038 405.874L488.229 406.587L507.065 401.531C507.598 401.388 508.146 401.704 508.289 402.238L509.187 405.595C509.33 406.129 509.013 406.677 508.479 406.82L489.644 411.876L489.834 412.589C490.12 413.656 489.486 414.753 488.419 415.039L481.11 417.001L482.008 420.359C482.294 421.426 481.66 422.523 480.593 422.809L473.284 424.771L467.625 403.613Z"
      fill="#33514E" />
    <mask id="mask1_1608_41749" style="mask-type:alpha" maskUnits="userSpaceOnUse" x="468" y="401" width="43"
      height="24">
      <path fill-rule="evenodd" clip-rule="evenodd"
        d="M468.945 403.259L476.254 401.297C477.321 401.011 478.417 401.644 478.703 402.711L479.601 406.068L486.91 404.106C487.977 403.82 489.073 404.453 489.358 405.52L489.549 406.232L508.385 401.177C508.919 401.034 509.467 401.35 509.61 401.884L510.508 405.241C510.65 405.774 510.334 406.323 509.8 406.466L490.964 411.522L491.155 412.235C491.44 413.302 490.807 414.399 489.74 414.685L482.431 416.647L483.329 420.004C483.614 421.071 482.981 422.169 481.914 422.455L474.604 424.417L468.945 403.259Z"
        fill="#33514E" />
    </mask>
    <g mask="url(#mask1_1608_41749)">
      <g filter="url(#filter2_f_1608_41749)">
        <rect width="8.20116" height="21.9018" transform="matrix(0.965816 -0.259228 0.25841 0.966035 462.344 405.03)"
          fill="#001413" />
      </g>
    </g>
    <g clip-path="url(#clip0_1608_41749)">
      <path
        d="M212.829 498.034L213.364 500.032L227.113 496.348L224.699 487.337L222.695 487.874L224.574 494.887L212.829 498.034ZM204.86 468.296L205.396 470.294L217.141 467.147L219.021 474.16L221.024 473.623L218.609 464.612L204.86 468.296ZM201.912 485.653L200.667 481.01L203.81 480.168C205.343 479.757 206.029 480.119 206.402 481.51L206.622 482.333C207.005 483.763 206.606 484.395 205.054 484.811L201.912 485.653ZM207.121 485.139C208.455 484.382 209.099 482.782 208.674 481.195C208.406 480.196 207.772 479.4 206.832 478.875C205.647 478.226 204.269 478.113 202.639 478.549L198.22 479.734L201.895 493.447L203.859 492.92L202.394 487.455L205.341 486.665C206.853 486.26 207.63 486.724 208.05 488.291L208.927 491.563L210.93 491.026L210.137 488.068C209.56 485.913 208.829 485.227 207.194 485.413L207.121 485.139ZM190.704 490.02L196.753 488.399L196.27 486.597L190.221 488.218L189.118 484.104L195.757 482.325L195.274 480.523L186.632 482.839L190.306 496.552L199.243 494.157L198.76 492.355L191.827 494.213L190.704 490.02ZM184.318 492.508L184.57 493.449C185.1 495.427 184.546 496.269 182.72 496.758L182.288 496.874C180.461 497.364 179.419 497.012 178.69 494.289L177.703 490.606C176.968 487.864 177.739 487.048 179.565 486.558L179.958 486.453C181.746 485.974 182.494 486.488 183.006 488.324L185.167 487.745C184.246 485.094 181.983 483.874 179.272 484.601C177.956 484.953 176.967 485.66 176.352 486.664C175.424 488.151 175.261 490.295 175.996 493.037C176.705 495.682 177.819 497.483 179.362 498.371C180.402 498.954 181.657 499.079 182.777 498.779C183.955 498.463 184.91 497.704 185.186 496.538L185.461 496.464L185.808 497.757L187.615 497.273L185.72 490.201L180.397 491.627L180.88 493.43L184.318 492.508ZM165.215 490.509L167.356 489.935C169.379 489.393 170.616 489.608 171.35 492.351L172.316 495.955C173.051 498.697 172.088 499.502 170.064 500.044L167.923 500.618L165.215 490.509ZM170.724 501.799C174.476 500.794 175.109 497.58 174.033 493.564C172.941 489.489 170.703 487.107 167.01 488.097L162.767 489.234L166.442 502.947L170.724 501.799ZM155.349 499.494L161.399 497.873L160.916 496.07L154.866 497.691L153.764 493.577L160.402 491.798L159.919 489.996L151.277 492.312L154.951 506.025L163.889 503.63L163.406 501.828L156.472 503.686L155.349 499.494ZM141.692 494.88L139.689 495.417L143.363 509.13L152.399 506.709L151.916 504.907L144.884 506.791L141.692 494.88ZM129.595 512.82L132.009 521.832L145.758 518.148L145.223 516.149L133.477 519.296L131.598 512.283L129.595 512.82ZM123.505 490.095L125.92 499.106L127.923 498.569L126.044 491.556L137.79 488.409L137.254 486.411L123.505 490.095Z"
        fill="#032724" />
    </g>
    <path opacity="0.2" fill-rule="evenodd" clip-rule="evenodd"
      d="M106.397 476.473C104.264 477.046 102.997 479.24 103.568 481.374L119.187 539.765C119.758 541.899 121.95 543.165 124.084 542.592L241.557 511.062C241.564 511.06 241.57 511.058 241.576 511.057L476.754 447.934C478.888 447.361 480.155 445.167 479.584 443.033L463.965 384.643C463.394 382.508 461.202 381.243 459.068 381.815L290.008 427.192C289.987 427.197 289.966 427.203 289.945 427.208L106.397 476.473Z"
      fill="url(#paint0_linear_1608_41749)" />
    <ellipse rx="36.9052" ry="36.9594" transform="matrix(0.965816 -0.259228 0.25841 0.966035 296.197 460.963)"
      fill="#193330" />
    <path
      d="M347.982 452.631C344.687 453.516 341.973 451.41 341.078 448.067C340.184 444.724 341.483 441.54 344.799 440.65C347.038 440.049 348.987 440.819 350.187 442.425L351.855 441.637C350.186 439.205 347.321 438.228 344.321 439.033C340.012 440.189 338.155 444.248 339.304 448.543C340.453 452.838 344.087 455.423 348.481 454.244C351.459 453.444 353.454 451.253 353.705 448.215L351.867 448.368C351.615 450.386 350.178 452.042 347.982 452.631Z"
      fill="#28CF89" />
    <path
      d="M359.311 439.545C356.101 440.406 354.532 443.344 355.376 446.497C356.219 449.65 359.044 451.408 362.254 450.547C365.444 449.691 366.991 446.758 366.148 443.606C365.305 440.453 362.48 438.694 359.311 439.545ZM361.82 449.008C359.539 449.62 357.719 448.317 357.108 446.032C356.496 443.747 357.422 441.707 359.703 441.095C361.985 440.482 363.805 441.785 364.416 444.071C365.027 446.356 364.101 448.396 361.82 449.008Z"
      fill="#28CF89" />
    <path
      d="M372.252 436.071C370.837 436.451 369.694 437.597 369.305 439.017L368.823 437.218L367.134 437.672L369.964 448.251L371.653 447.797L370.193 442.338C369.678 440.413 370.257 438.262 372.369 437.695C373.996 437.259 375.2 438.205 375.613 439.75L377.356 446.267L379.046 445.813L377.195 438.894C376.624 436.757 374.364 435.504 372.252 436.071Z"
      fill="#28CF89" />
    <path
      d="M384.257 432.849C382.842 433.229 381.699 434.375 381.31 435.795L380.828 433.996L379.139 434.45L381.969 445.029L383.658 444.575L382.198 439.116C381.683 437.191 382.262 435.04 384.374 434.473C386.001 434.036 387.205 434.983 387.618 436.528L389.361 443.044L391.051 442.591L389.2 435.672C388.629 433.535 386.369 432.282 384.257 432.849Z"
      fill="#28CF89" />
    <path
      d="M402.326 434.1C401.471 430.905 398.939 428.886 395.728 429.747C392.56 430.598 391.177 433.554 392.015 436.686C392.858 439.838 395.572 441.604 398.761 440.748C400.958 440.159 402.296 438.643 402.676 436.341L400.95 436.487C400.682 437.942 399.769 438.845 398.333 439.23C396.284 439.78 394.453 438.775 393.825 436.767L402.401 434.465C402.394 434.353 402.354 434.205 402.326 434.1ZM393.504 435.311C393.253 433.36 394.202 431.744 396.124 431.229C397.941 430.741 399.68 431.657 400.305 433.485L393.504 435.311Z"
      fill="#28CF89" />
    <path
      d="M410.456 435.954C408.132 436.577 406.428 435.198 405.828 432.955C405.228 430.713 406.016 428.664 408.339 428.041C409.818 427.644 411.259 428.209 412.024 429.546L413.593 428.808C412.524 426.759 410.059 425.924 407.947 426.491C404.758 427.347 403.301 430.278 404.138 433.409C404.976 436.54 407.701 438.349 410.89 437.493C413.024 436.92 414.726 434.989 414.623 432.658L412.896 432.804C412.901 434.345 411.934 435.557 410.456 435.954Z"
      fill="#28CF89" />
    <path
      d="M419.908 425.026L419.528 423.609L417.226 424.227L416.428 421.244L414.854 421.961L415.579 424.669L413.868 425.128L414.247 426.546L415.937 426.092L417.623 432.397C418.133 434.302 419.289 435.239 421.274 434.706C421.676 434.598 422.087 434.442 422.465 434.25L422.052 432.705C421.785 432.89 421.479 433.018 421.184 433.097C419.874 433.449 419.562 432.875 419.245 431.69L417.626 425.639L419.908 425.026Z"
      fill="#28CF89" />
    <path
      d="M432.689 425.95C431.834 422.755 429.302 420.736 426.091 421.598C422.923 422.448 421.541 425.405 422.378 428.536C423.221 431.688 425.935 433.455 429.125 432.599C431.321 432.009 432.659 430.493 433.039 428.192L431.313 428.338C431.045 429.793 430.132 430.695 428.696 431.081C426.647 431.631 424.816 430.626 424.188 428.617L432.764 426.315C432.757 426.204 432.717 426.056 432.689 425.95ZM423.867 427.161C423.617 425.21 424.565 423.595 426.488 423.079C428.304 422.591 430.043 423.508 430.668 425.336L423.867 427.161Z"
      fill="#28CF89" />
    <path
      d="M442.423 412.475L440.734 412.928L442.454 419.36C441.344 418.343 439.725 417.961 438.057 418.409C435.142 419.191 433.679 422.101 434.517 425.233C435.36 428.385 438.085 430.194 441 429.411C442.647 428.969 443.88 427.822 444.333 426.385L444.809 428.162L446.498 427.709L442.423 412.475ZM443.394 422.873C443.994 425.115 443.121 427.186 440.84 427.799C438.707 428.371 436.869 427.255 436.212 424.8C435.561 422.367 436.569 420.464 438.723 419.886C441.005 419.273 442.794 420.63 443.394 422.873Z"
      fill="#28CF89" />
    <path fill-rule="evenodd" clip-rule="evenodd"
      d="M298.199 436.998C295.455 436.721 292.616 436.928 289.794 437.686C277.305 441.038 269.894 453.897 273.24 466.407C276.586 478.917 289.424 486.342 301.913 482.989C314.402 479.637 321.814 466.778 318.467 454.268C318.399 454.013 318.327 453.76 318.251 453.509L314.413 462.225C313.652 469.72 308.376 476.317 300.681 478.383C290.731 481.053 280.505 475.139 277.839 465.173C275.173 455.207 281.078 444.963 291.027 442.293C292.739 441.833 294.46 441.628 296.15 441.654L298.199 436.998Z"
      fill="url(#paint1_linear_1608_41749)" />
    <path fill-rule="evenodd" clip-rule="evenodd"
      d="M312.055 435.856C313.258 436.387 313.803 437.795 313.272 439L301.411 465.943C301.147 466.543 300.648 467.007 300.032 467.227C299.416 467.447 298.737 467.404 298.154 467.107L285.157 460.493C283.985 459.896 283.517 458.461 284.113 457.287C284.709 456.112 286.142 455.644 287.314 456.241L298.069 461.714L308.916 437.076C309.446 435.871 310.852 435.324 312.055 435.856Z"
      fill="url(#paint2_linear_1608_41749)" />
  </g>
  <defs>
    <filter id="filter0_ddd_1608_41749" x="397.366" y="387.359" width="398.156" height="323.455"
      filterUnits="userSpaceOnUse" color-interpolation-filters="sRGB">
      <feFlood flood-opacity="0" result="BackgroundImageFix" />
      <feColorMatrix in="SourceAlpha" type="matrix" values="0 0 0 0 0 0 0 0 0 0 0 0 0 0 0 0 0 0 127 0"
        result="hardAlpha" />
      <feOffset dy="2" />
      <feGaussianBlur stdDeviation="2" />
      <feColorMatrix type="matrix" values="0 0 0 0 0 0 0 0 0 0.0784314 0 0 0 0 0.0745098 0 0 0 0.34 0" />
      <feBlend mode="normal" in2="BackgroundImageFix" result="effect1_dropShadow_1608_41749" />
      <feColorMatrix in="SourceAlpha" type="matrix" values="0 0 0 0 0 0 0 0 0 0 0 0 0 0 0 0 0 0 127 0"
        result="hardAlpha" />
      <feOffset dy="6" />
      <feGaussianBlur stdDeviation="4" />
      <feColorMatrix type="matrix" values="0 0 0 0 0 0 0 0 0 0.0784314 0 0 0 0 0.0745098 0 0 0 0.24 0" />
      <feBlend mode="normal" in2="effect1_dropShadow_1608_41749" result="effect2_dropShadow_1608_41749" />
      <feColorMatrix in="SourceAlpha" type="matrix" values="0 0 0 0 0 0 0 0 0 0 0 0 0 0 0 0 0 0 127 0"
        result="hardAlpha" />
      <feOffset dy="16" />
      <feGaussianBlur stdDeviation="8" />
      <feColorMatrix type="matrix" values="0 0 0 0 0 0 0 0 0 0.0784314 0 0 0 0 0.0745098 0 0 0 0.14 0" />
      <feBlend mode="normal" in2="effect2_dropShadow_1608_41749" result="effect3_dropShadow_1608_41749" />
      <feBlend mode="normal" in="SourceGraphic" in2="effect3_dropShadow_1608_41749" result="shape" />
    </filter>
    <filter id="filter1_ddd_1608_41749" x="87.4307" y="379.678" width="408.29" height="195.052"
      filterUnits="userSpaceOnUse" color-interpolation-filters="sRGB">
      <feFlood flood-opacity="0" result="BackgroundImageFix" />
      <feColorMatrix in="SourceAlpha" type="matrix" values="0 0 0 0 0 0 0 0 0 0 0 0 0 0 0 0 0 0 127 0"
        result="hardAlpha" />
      <feOffset dy="2" />
      <feGaussianBlur stdDeviation="2" />
      <feColorMatrix type="matrix" values="0 0 0 0 0 0 0 0 0 0.0784314 0 0 0 0 0.0745098 0 0 0 0.34 0" />
      <feBlend mode="normal" in2="BackgroundImageFix" result="effect1_dropShadow_1608_41749" />
      <feColorMatrix in="SourceAlpha" type="matrix" values="0 0 0 0 0 0 0 0 0 0 0 0 0 0 0 0 0 0 127 0"
        result="hardAlpha" />
      <feOffset dy="6" />
      <feGaussianBlur stdDeviation="4" />
      <feColorMatrix type="matrix" values="0 0 0 0 0 0 0 0 0 0.0784314 0 0 0 0 0.0745098 0 0 0 0.24 0" />
      <feBlend mode="normal" in2="effect1_dropShadow_1608_41749" result="effect2_dropShadow_1608_41749" />
      <feColorMatrix in="SourceAlpha" type="matrix" values="0 0 0 0 0 0 0 0 0 0 0 0 0 0 0 0 0 0 127 0"
        result="hardAlpha" />
      <feOffset dy="16" />
      <feGaussianBlur stdDeviation="8" />
      <feColorMatrix type="matrix" values="0 0 0 0 0 0 0 0 0 0.0784314 0 0 0 0 0.0745098 0 0 0 0.14 0" />
      <feBlend mode="normal" in2="effect2_dropShadow_1608_41749" result="effect3_dropShadow_1608_41749" />
      <feBlend mode="normal" in="SourceGraphic" in2="effect3_dropShadow_1608_41749" result="shape" />
    </filter>
    <filter id="filter2_f_1608_41749" x="459.344" y="399.904" width="19.5806" height="29.2839"
      filterUnits="userSpaceOnUse" color-interpolation-filters="sRGB">
      <feFlood flood-opacity="0" result="BackgroundImageFix" />
      <feBlend mode="normal" in="SourceGraphic" in2="BackgroundImageFix" result="shape" />
      <feGaussianBlur stdDeviation="1.5" result="effect1_foregroundBlur_1608_41749" />
    </filter>
    <linearGradient id="paint0_linear_1608_41749" x1="463.63" y1="381.371" x2="480.414" y2="480.969"
      gradientUnits="userSpaceOnUse">
      <stop offset="0.109375" stop-color="#193330" stop-opacity="0" />
      <stop offset="0.951248" stop-color="#193330" />
    </linearGradient>
    <linearGradient id="paint1_linear_1608_41749" x1="288.405" y1="486.615" x2="322.906" y2="475.289"
      gradientUnits="userSpaceOnUse">
      <stop stop-color="#22C480" />
      <stop offset="1" stop-color="#2BD78F" />
    </linearGradient>
    <linearGradient id="paint2_linear_1608_41749" x1="285.519" y1="461.022" x2="296.043" y2="470.949"
      gradientUnits="userSpaceOnUse">
      <stop stop-color="#22C480" />
      <stop offset="1" stop-color="#2BD78F" />
    </linearGradient>
    <clipPath id="clip0_1608_41749">
      <rect width="99.7601" height="32.8528" fill="white"
        transform="matrix(0.965816 -0.259228 0.25841 0.966035 122.995 490.444)" />
    </clipPath>
  </defs>
</svg>