<svg width="172" height="19" viewBox="0 0 172 19" fill="none" xmlns="http://www.w3.org/2000/svg">
<path d="M29.9505 4.49998H26.2305V15H27.4905V10.92H29.9505C32.0205 10.92 33.4755 9.67498 33.4755 7.70998C33.4755 5.74498 32.0205 4.49998 29.9505 4.49998ZM29.9355 9.76498H27.4905V5.65498H29.9355C31.3005 5.65498 32.2155 6.47998 32.2155 7.70998C32.2155 8.93998 31.3005 9.76498 29.9355 9.76498Z" fill="black"/>
<path d="M38.1395 7.34998C35.8595 7.34998 34.2995 9.01498 34.2995 11.25C34.2995 13.485 35.8595 15.15 38.1395 15.15C40.4045 15.15 41.9495 13.485 41.9495 11.25C41.9495 9.01498 40.3895 7.34998 38.1395 7.34998ZM38.1245 14.055C36.5045 14.055 35.5295 12.87 35.5295 11.25C35.5295 9.62998 36.5045 8.44498 38.1245 8.44498C39.7445 8.44498 40.7195 9.62998 40.7195 11.25C40.7195 12.87 39.7445 14.055 38.1245 14.055Z" fill="black"/>
<path d="M52.0746 7.49998L50.3946 13.605L48.5047 7.49998H47.4547L45.5646 13.605L43.8846 7.49998H42.6546L44.9196 15H46.1796L47.9797 9.13498L49.7796 15H51.0396L53.3046 7.49998H52.0746Z" fill="black"/>
<path d="M61.2993 11.385C61.2993 9.11998 59.9793 7.33498 57.6993 7.33498C55.4493 7.33498 54.0093 9.04498 54.0093 11.265C54.0093 13.5 55.4943 15.15 57.7593 15.15C59.3193 15.15 60.4743 14.385 61.1343 12.93L59.9643 12.72C59.5293 13.635 58.7643 14.07 57.7443 14.07C56.2893 14.07 55.2543 13.08 55.1943 11.64H61.2843C61.2993 11.565 61.2993 11.46 61.2993 11.385ZM55.2393 10.62C55.4193 9.28498 56.3343 8.38498 57.6993 8.38498C58.9893 8.38498 59.9793 9.29998 60.0693 10.62H55.2393Z" fill="black"/>
<path d="M66.8226 7.37998C66.6576 7.34998 66.5226 7.34998 66.3876 7.34998C65.3076 7.34998 64.5876 7.82998 64.0626 8.75998V7.49998H62.8626V15H64.0626V11.175C64.0626 9.41998 65.0226 8.29498 66.8226 8.45998V7.37998Z" fill="black"/>
<path d="M74.4612 11.385C74.4612 9.11998 73.1412 7.33498 70.8612 7.33498C68.6112 7.33498 67.1712 9.04498 67.1712 11.265C67.1712 13.5 68.6562 15.15 70.9212 15.15C72.4812 15.15 73.6362 14.385 74.2962 12.93L73.1262 12.72C72.6912 13.635 71.9262 14.07 70.9062 14.07C69.4512 14.07 68.4162 13.08 68.3562 11.64H74.4462C74.4612 11.565 74.4612 11.46 74.4612 11.385ZM68.4012 10.62C68.5812 9.28498 69.4962 8.38498 70.8612 8.38498C72.1512 8.38498 73.1412 9.29998 73.2312 10.62H68.4012Z" fill="black"/>
<path d="M83.1495 4.19998H81.9495V8.75998C81.3945 7.88998 80.3895 7.34998 79.2045 7.34998C77.1345 7.34998 75.6495 9.01498 75.6495 11.235C75.6495 13.47 77.1345 15.15 79.2045 15.15C80.3745 15.15 81.3945 14.61 81.9495 13.74V15H83.1495V4.19998ZM81.9495 11.25C81.9495 12.84 81.0045 14.055 79.3845 14.055C77.8695 14.055 76.8495 12.99 76.8495 11.25C76.8495 9.52498 77.8545 8.44498 79.3845 8.44498C81.0045 8.44498 81.9495 9.65998 81.9495 11.25Z" fill="black"/>
<path d="M88.9681 15H90.1681V13.74C90.7231 14.61 91.7431 15.15 92.9131 15.15C94.9831 15.15 96.4681 13.47 96.4681 11.235C96.4681 9.01498 94.9831 7.34998 92.9131 7.34998C91.7281 7.34998 90.7231 7.88998 90.1681 8.75998V4.19998H88.9681V15ZM90.1681 11.25C90.1681 9.65998 91.1131 8.44498 92.7331 8.44498C94.2631 8.44498 95.2681 9.52498 95.2681 11.25C95.2681 12.99 94.2481 14.055 92.7331 14.055C91.1131 14.055 90.1681 12.84 90.1681 11.25Z" fill="black"/>
<path d="M102.731 7.49998L100.646 13.32L98.4108 7.49998H97.1508L100.061 14.685L98.6358 18.3H99.9258L103.991 7.49998H102.731Z" fill="black"/>
<path d="M114.79 3.79998H112.262L108.214 15H110.934L111.622 12.936H115.43L116.118 15H118.838L114.79 3.79998ZM112.198 10.776L113.526 6.64798L114.854 10.776H112.198Z" fill="black"/>
<path d="M122.156 15V3.47998H119.676V15H122.156Z" fill="black"/>
<path d="M127.404 13.08C126.188 13.08 125.692 12.008 125.692 10.936C125.692 9.84798 126.204 8.80798 127.404 8.80798C128.236 8.80798 128.844 9.36798 129.004 10.168L131.356 9.75198C131.084 7.86398 129.244 6.71198 127.436 6.71198C124.988 6.71198 123.196 8.47198 123.196 10.936C123.196 13.4 124.972 15.16 127.436 15.16C129.244 15.16 131.084 14.024 131.356 12.12L129.004 11.704C128.844 12.52 128.236 13.08 127.404 13.08Z" fill="black"/>
<path d="M137.33 6.71198C136.29 6.71198 135.49 7.14398 134.898 7.94398V3.47998H132.418V15H134.898V10.856C134.898 9.70398 135.282 8.80798 136.386 8.80798C137.458 8.80798 137.682 9.65598 137.682 10.488V15H140.162V9.91198C140.162 8.16798 139.218 6.71198 137.33 6.71198Z" fill="black"/>
<path d="M149.302 10.984C149.302 8.55198 147.718 6.71198 145.254 6.71198C142.822 6.71198 141.142 8.48798 141.142 10.92C141.142 13.384 142.854 15.16 145.302 15.16C146.966 15.16 148.422 14.392 149.094 12.744L146.854 12.328C146.55 12.936 145.99 13.192 145.334 13.192C144.39 13.192 143.622 12.616 143.51 11.64H149.254C149.286 11.432 149.302 11.208 149.302 10.984ZM143.574 9.95998C143.718 9.07998 144.438 8.56798 145.238 8.56798C146.038 8.56798 146.774 9.07998 146.87 9.95998H143.574Z" fill="black"/>
<path d="M159.868 6.71198C158.812 6.71198 157.852 7.14398 157.324 8.10398C156.892 7.20798 156.06 6.71198 155.068 6.71198C154.172 6.71198 153.324 7.12798 152.828 7.92798V6.87198H150.348V15H152.828V10.776C152.828 9.87998 153.068 8.91998 154.14 8.91998C154.988 8.91998 155.276 9.51198 155.276 10.312V15H157.756V10.776C157.756 9.87998 157.948 8.91998 159.004 8.91998C159.852 8.91998 160.156 9.51198 160.156 10.312V15H162.636V9.79998C162.636 8.02398 161.708 6.71198 159.868 6.71198Z" fill="black"/>
<path d="M168.886 6.87198L167.35 11.864L165.798 6.87198H163.143L166.102 14.488L164.406 18.52H167.046L171.526 6.87198H168.886Z" fill="black"/>
<g clip-path="url(#clip0_3206_102002)">
<path d="M7.35708 18.0001C7.30814 17.968 7.25445 17.9416 7.21129 17.903C7.07583 17.7824 7.05229 17.6046 7.15244 17.4274C7.31846 17.1338 7.48965 16.8434 7.65877 16.5514C8.13082 15.7361 8.60679 14.9231 9.07306 14.1041C9.24403 13.8038 9.4908 13.6638 9.82511 13.6638C11.3757 13.6638 12.9263 13.6638 14.4768 13.6638C15.7249 13.6638 16.973 13.6675 18.2208 13.6616C18.5861 13.66 18.8479 13.8022 19.0336 14.1266C19.6551 15.2131 20.2866 16.2937 20.9129 17.3773C21.0733 17.6549 20.9958 17.9999 20.725 17.9999H7.35708V18.0001Z" fill="url(#paint0_linear_3206_102002)"/>
<path d="M1.47016 15.3243C2.61183 13.3544 3.75372 11.385 4.89498 9.41491C5.52032 8.3354 6.14442 7.25506 6.76956 6.17534C6.97601 5.81886 7.31459 5.81844 7.52166 6.1745C8.16104 7.27288 8.79959 8.37168 9.43629 9.47174C9.58266 9.72442 9.58163 9.98277 9.43443 10.2371C8.36708 12.0812 4.89498 17.4676 4.6811 17.996C4.67925 18.0006 4.67284 17.9979 4.66871 17.9979C3.206 17.9979 1.7435 17.9973 0.280792 18C0.233102 18 0.112741 17.9992 0.0361472 17.9986C0.00765687 17.9983 -0.00947859 17.9667 0.00559236 17.9421" fill="url(#paint1_linear_3206_102002)"/>
<path d="M15.1772 12.0906C14.5566 12.0906 13.936 12.0866 13.3156 12.0923C12.9648 12.0956 12.7134 11.9513 12.5351 11.6433C11.5239 9.89585 10.5073 8.1515 9.49284 6.40589C9.09648 5.72394 8.70302 5.04031 8.30398 4.35982C8.13997 4.08009 8.14162 3.80936 8.30439 3.53067C8.94427 2.43561 9.58188 1.3395 10.2189 0.242768C10.2949 0.112114 10.391 0.0155897 10.5467 0.00177053C10.7078 -0.0124674 10.8291 0.059769 10.9089 0.196704C11.6802 1.52083 12.4496 2.84621 13.2205 4.17054C13.7239 5.03549 14.2298 5.89898 14.7333 6.76393C15.6494 8.33764 16.5608 9.91385 17.4837 11.4836C17.6312 11.7344 17.5136 12.0923 17.1323 12.0912C16.4806 12.0893 15.8291 12.0908 15.1775 12.0908L15.1772 12.0906Z" fill="url(#paint2_linear_3206_102002)"/>
</g>
<defs>
<linearGradient id="paint0_linear_3206_102002" x1="14.0432" y1="18.0001" x2="14.0432" y2="13.6618" gradientUnits="userSpaceOnUse">
<stop offset="1" stop-color="#503DFF"/>
</linearGradient>
<linearGradient id="paint1_linear_3206_102002" x1="4.77276" y1="18.0002" x2="4.77276" y2="5.90777" gradientUnits="userSpaceOnUse">
<stop stop-color="#5434FF"/>
<stop offset="0.18" stop-color="#4C37FD"/>
<stop offset="0.44" stop-color="#393FF9"/>
<stop offset="0.47" stop-color="#3741F9"/>
<stop offset="0.61" stop-color="#3056F9"/>
<stop offset="0.9" stop-color="#1E8DFB"/>
<stop offset="0.94" stop-color="#1D94FC"/>
</linearGradient>
<linearGradient id="paint2_linear_3206_102002" x1="12.8633" y1="12.0923" x2="12.8633" y2="-0.000113881" gradientUnits="userSpaceOnUse">
<stop offset="0.06" stop-color="#5434FF"/>
<stop offset="0.07" stop-color="#5236FF"/>
<stop offset="0.23" stop-color="#3D66FF"/>
<stop offset="0.4" stop-color="#2B8EFF"/>
<stop offset="0.56" stop-color="#1DADFF"/>
<stop offset="0.72" stop-color="#13C3FF"/>
<stop offset="0.86" stop-color="#0ED0FF"/>
<stop offset="1" stop-color="#0CD5FF"/>
</linearGradient>
<clipPath id="clip0_3206_102002">
<rect width="21" height="18" fill="white"/>
</clipPath>
</defs>
</svg>
