<svg width="64" height="64" viewBox="0 0 64 64" fill="none" xmlns="http://www.w3.org/2000/svg">
  <g clip-path="url(#clip0_2776_82510)">
    <path
      d="M50.2637 -0.138654C49.0601 -0.17393 47.8617 0.0326626 46.7394 0.468889C45.6171 0.905116 44.5938 1.56211 43.73 2.40096C42.8662 3.23981 42.1795 4.24346 41.7105 5.35249C41.2416 6.46151 41 7.65335 41 8.85744C41 12.0774 42.6992 14.1009 44.1992 15.8809C45.4842 17.4169 46.5996 18.7426 46.5996 20.6426C46.6072 21.4464 46.9007 22.2212 47.4277 22.8281C46.7313 22.2931 45.8782 22.0021 45 22H38C37.8665 22.0003 37.7344 21.9732 37.6118 21.9204C37.4892 21.8677 37.3787 21.7904 37.2871 21.6934C37.1954 21.6028 37.1227 21.4948 37.0734 21.3758C37.0241 21.2567 36.9991 21.1289 37 21C37 20.7348 37.1054 20.4804 37.2929 20.2929C37.4804 20.1054 37.7348 20 38 20H45V18H38C37.2043 18 36.4413 18.3161 35.8787 18.8787C35.3161 19.4413 35 20.2044 35 21C35.0039 21.7945 35.3213 22.5552 35.883 23.117C36.4448 23.6787 37.2056 23.9961 38 24H45C45.5304 24 46.0391 24.2107 46.4142 24.5858C46.7893 24.9609 47 25.4696 47 26C47 27.0609 47.4214 28.0783 48.1716 28.8284C48.9217 29.5786 49.9391 30 51 30H57.8984C57.9581 30.6651 57.992 31.3323 58 32H36C35.2043 32 34.4413 32.3161 33.8787 32.8787C33.3161 33.4413 33 34.2044 33 35C33.0039 35.7945 33.3213 36.5552 33.883 37.117C34.4448 37.6787 35.2056 37.9961 36 38H41.5C41.6326 38 41.7598 38.0527 41.8536 38.1465C41.9473 38.2402 42 38.3674 42 38.5C42 38.8283 42.0647 39.1534 42.1903 39.4567C42.3159 39.76 42.5001 40.0356 42.7322 40.2678C42.9644 40.4999 43.24 40.6841 43.5433 40.8097C43.8466 40.9354 44.1717 41 44.5 41H45.5C45.8283 41 46.1534 41.0647 46.4567 41.1903C46.76 41.316 47.0356 41.5001 47.2678 41.7323C47.4999 41.9644 47.6841 42.24 47.8097 42.5433C47.9353 42.8466 48 43.1717 48 43.5C48.0044 44.4001 48.2776 45.2784 48.7847 46.022C49.2917 46.7657 50.0094 47.3409 50.8457 47.6738C50.3362 48.61 50.0469 49.6501 50 50.7149C50 53.1659 51.3108 54.6768 52.4668 56.0098C53.4008 57.0868 54.1992 58.0092 54.1992 59.2852C54.2114 60.0163 54.5131 60.7128 55.0382 61.2218C55.5632 61.7308 56.2688 62.0107 57 62C57.7302 62.0107 58.4349 61.7316 58.9598 61.2239C59.4847 60.7162 59.7871 60.0212 59.8008 59.291C59.8008 58.014 60.6032 57.0877 61.5332 56.0137C62.6892 54.6757 64 53.1659 64 50.7149C63.9422 49.367 63.4964 48.0645 62.7163 46.9639C61.9361 45.8633 60.8548 45.0113 59.6022 44.5103C58.3496 44.0093 56.979 43.8806 55.655 44.1396C54.3311 44.3987 53.1101 45.0345 52.1387 45.9707C51.5465 45.8807 51.0059 45.5825 50.6139 45.1296C50.2219 44.6768 50.0042 44.099 50 43.5C49.9987 42.3069 49.5241 41.1631 48.6805 40.3195C47.8369 39.4759 46.6931 39.0013 45.5 39H44.5C44.3674 39 44.2402 38.9473 44.1464 38.8536C44.0527 38.7598 44 38.6326 44 38.5C44 37.837 43.7366 37.2011 43.2678 36.7323C42.7989 36.2634 42.163 36 41.5 36H36C35.8665 36.0003 35.7344 35.9732 35.6118 35.9204C35.4892 35.8677 35.3787 35.7904 35.2871 35.6934C35.1954 35.6028 35.1227 35.4948 35.0734 35.3758C35.0241 35.2567 34.9991 35.1289 35 35C35 34.7348 35.1054 34.4804 35.2929 34.2929C35.4804 34.1054 35.7348 34 36 34H57.9102C57.7855 35.5996 57.5082 37.1837 57.082 38.7305L59.0098 39.2696C59.5743 37.2342 59.9001 35.14 59.9805 33.0293C59.9905 32.6893 60 32.34 60 32C59.9985 30.9604 59.9392 29.9217 59.8223 28.8887C59.4055 25.2241 58.2308 21.6862 56.373 18.5L54.6465 19.5039C56.1633 22.1266 57.1823 25.007 57.6523 28H51C50.4696 28 49.9609 27.7893 49.5858 27.4142C49.2107 27.0392 49 26.5305 49 26C48.9981 25.0182 48.6353 24.0714 47.9805 23.3399C48.5653 23.7711 49.2734 24.0026 50 24C50.8959 24.0049 51.7571 23.6541 52.3947 23.0247C53.0322 22.3952 53.3939 21.5385 53.4004 20.6426C53.4004 18.7406 54.5118 17.4169 55.8008 15.8809C57.3008 14.0989 59 12.0774 59 8.85744C59 6.51616 58.0876 4.26703 56.4565 2.58742C54.8254 0.907812 52.604 -0.0700613 50.2637 -0.138654ZM50 2.00002C51.8369 1.98348 53.6054 2.69611 54.9176 3.98162C56.2299 5.26713 56.9787 7.02058 57 8.85744C57 11.3494 55.6835 12.9138 54.2715 14.5938C52.8595 16.2738 51.4004 18.0116 51.4004 20.6426C51.4004 21.014 51.2528 21.3702 50.9902 21.6328C50.7276 21.8954 50.3714 22.043 50 22.043C49.6286 22.043 49.2724 21.8954 49.0098 21.6328C48.7472 21.3702 48.5996 21.014 48.5996 20.6426C48.5996 18.0116 47.1325 16.2628 45.7285 14.5938C44.3245 12.9248 43 11.3494 43 8.85744C43.0213 7.02058 43.7701 5.26713 45.0824 3.98162C46.3946 2.69611 48.1631 1.98348 50 2.00002ZM49.834 5.00392C48.7903 5.05 47.8061 5.50256 47.0917 6.26483C46.3774 7.0271 45.9896 8.0386 46.0113 9.08306C46.033 10.1275 46.4624 11.1221 47.2078 11.854C47.9532 12.586 48.9553 12.9973 50 13C51.0609 13 52.0783 12.5786 52.8284 11.8284C53.5786 11.0783 54 10.0609 54 9.00002C53.9999 8.46079 53.8909 7.92715 53.6793 7.43115C53.4677 6.93516 53.1581 6.48706 52.7689 6.11379C52.3798 5.74052 51.9192 5.44978 51.4148 5.25906C50.9105 5.06833 50.3727 4.98154 49.834 5.00392ZM34.0254 5.01955C28.5917 4.81486 23.223 6.25678 18.623 9.15627L19.6992 10.8438C22.6705 8.97269 26.0028 7.74888 29.4789 7.25216C32.9549 6.75544 36.4966 6.99696 39.873 7.96096L40.4238 6.03908C38.3397 5.44345 36.1914 5.10114 34.0254 5.01955ZM50 7.00002C50.5304 7.00002 51.0391 7.21073 51.4142 7.5858C51.7893 7.96088 52 8.46959 52 9.00002C52 9.39558 51.8827 9.78226 51.6629 10.1112C51.4432 10.4401 51.1308 10.6964 50.7654 10.8478C50.3999 10.9992 49.9978 11.0388 49.6098 10.9616C49.2219 10.8844 48.8655 10.6939 48.5858 10.4142C48.3061 10.1345 48.1156 9.77816 48.0384 9.3902C47.9613 9.00224 48.0009 8.6001 48.1522 8.23465C48.3036 7.8692 48.56 7.55684 48.8889 7.33708C49.2178 7.11732 49.6044 7.00002 50 7.00002ZM11 8.00002C9.18214 7.96516 7.42459 8.65234 6.11248 9.911C4.80038 11.1697 4.04073 12.8971 4 14.7149C4 17.1659 5.3108 18.6768 6.4668 20.0098C7.4008 21.0868 8.19922 22.0092 8.19922 23.2852C8.21137 24.0163 8.51309 24.7128 9.03817 25.2218C9.56325 25.7308 10.2688 26.0107 11 26C11.7302 26.0107 12.4349 25.7316 12.9598 25.2239C13.4847 24.7162 13.7871 24.0212 13.8008 23.291C13.8008 22.014 14.6032 21.0877 15.5332 20.0137C16.6892 18.6757 18 17.1659 18 14.7149C17.9593 12.8971 17.1996 11.1697 15.8875 9.911C14.5754 8.65234 12.8179 7.96516 11 8.00002ZM24 9.00002V11H31C31.1335 10.9998 31.2656 11.0269 31.3882 11.0796C31.5108 11.1323 31.6213 11.2096 31.7129 11.3067C31.8046 11.3972 31.8773 11.5052 31.9266 11.6243C31.9759 11.7434 32.0009 11.8711 32 12C32 12.2652 31.8946 12.5196 31.7071 12.7071C31.5196 12.8947 31.2652 13 31 13H27C26.2057 13.0045 25.4453 13.322 24.8836 13.8836C24.322 14.4453 24.0045 15.2057 24 16C24 16.2652 23.8946 16.5196 23.7071 16.7071C23.5196 16.8947 23.2652 17 23 17H18V19H23C23.7956 19 24.5587 18.6839 25.1213 18.1213C25.6839 17.5587 26 16.7957 26 16C25.9998 15.8666 26.0268 15.7345 26.0796 15.6119C26.1323 15.4893 26.2096 15.3787 26.3066 15.2871C26.3969 15.195 26.5049 15.1221 26.624 15.0728C26.7432 15.0234 26.871 14.9987 27 15H31C31.7956 15 32.5587 14.6839 33.1213 14.1213C33.6839 13.5587 34 12.7957 34 12C33.9961 11.2056 33.6787 10.4448 33.117 9.88305C32.5552 9.3213 31.7944 9.00396 31 9.00002H24ZM11 10C12.2876 9.96473 13.5367 10.4411 14.4738 11.3248C15.4109 12.2084 15.9597 13.4274 16 14.7149C16 16.4189 15.0844 17.4752 14.0234 18.6992C12.9804 19.9012 11.8008 21.2632 11.8008 23.2852C11.7804 23.4834 11.6873 23.667 11.5393 23.8005C11.3914 23.934 11.1992 24.0079 11 24.0079C10.8008 24.0079 10.6086 23.934 10.4607 23.8005C10.3127 23.667 10.2196 23.4834 10.1992 23.2852C10.1992 21.2632 9.01956 19.9002 7.97656 18.6992C6.91556 17.4752 6 16.4149 6 14.7149C6.0403 13.4274 6.58909 12.2084 7.52621 11.3248C8.46333 10.4411 9.71243 9.96473 11 10ZM10.875 12.002C10.0875 12.03 9.34264 12.3667 8.80138 12.9394C8.26011 13.5121 7.9659 14.2748 7.98232 15.0626C7.99874 15.8504 8.32447 16.6001 8.88912 17.1498C9.45378 17.6994 10.212 18.0048 11 18C11.7956 18 12.5587 17.6839 13.1213 17.1213C13.6839 16.5587 14 15.7957 14 15C14.0001 14.5955 13.9184 14.1951 13.7597 13.8229C13.6011 13.4508 13.3688 13.1146 13.0769 12.8345C12.785 12.5545 12.4394 12.3363 12.061 12.1933C11.6826 12.0502 11.2792 11.9851 10.875 12.002ZM11 14C11.2652 14 11.5196 14.1054 11.7071 14.2929C11.8946 14.4804 12 14.7348 12 15C12 15.1978 11.9414 15.3911 11.8315 15.5556C11.7216 15.72 11.5654 15.8482 11.3827 15.9239C11.2 15.9996 10.9989 16.0194 10.8049 15.9808C10.6109 15.9422 10.4327 15.847 10.2929 15.7071C10.153 15.5673 10.0578 15.3891 10.0192 15.1951C9.98063 15.0011 10.0004 14.8001 10.0761 14.6173C10.1518 14.4346 10.28 14.2784 10.4444 14.1685C10.6089 14.0587 10.8022 14 11 14ZM15 25V27H17V25H15ZM19 25V27H27C27.2652 27 27.5196 27.1054 27.7071 27.2929C27.8946 27.4804 28 27.7348 28 28C28.0002 28.1335 27.9732 28.2656 27.9204 28.3882C27.8677 28.5108 27.7904 28.6213 27.6934 28.7129C27.6031 28.805 27.4951 28.8779 27.376 28.9273C27.2568 28.9766 27.129 29.0013 27 29H20C18.9391 29 17.9217 29.4214 17.1716 30.1716C16.4214 30.9217 16 31.9392 16 33C16 34.0609 16.4214 35.0783 17.1716 35.8284C17.9217 36.5786 18.9391 37 20 37H22C22.2652 37 22.5196 37.1054 22.7071 37.2929C22.8946 37.4804 23 37.7348 23 38C23.0002 38.1335 22.9732 38.2656 22.9204 38.3882C22.8677 38.5108 22.7904 38.6213 22.6934 38.7129C22.6031 38.805 22.4951 38.8779 22.376 38.9273C22.2568 38.9766 22.129 39.0014 22 39H14.6895C13.0819 37.6944 11.0709 36.9875 9 37C6.63275 36.9838 4.35572 37.9072 2.66847 39.5677C0.98122 41.2282 0.0215484 43.4902 0 45.8574C0 49.0774 1.69922 51.1009 3.19922 52.8809C4.48422 54.4169 5.59961 55.7426 5.59961 57.6426C5.60611 58.5385 5.96782 59.3952 6.60534 60.0247C7.24286 60.6541 8.1041 61.0049 9 61C9.8959 61.0049 10.7571 60.6541 11.3947 60.0247C12.0322 59.3952 12.3939 58.5385 12.4004 57.6426C12.4004 55.7406 13.5118 54.4169 14.8008 52.8809C16.1149 51.3197 17.5802 49.5735 17.9238 47H26.5C26.8978 47 27.2794 47.1581 27.5607 47.4394C27.842 47.7207 28 48.1022 28 48.5C27.9982 48.9598 28.0876 49.4155 28.2629 49.8405C28.4382 50.2656 28.696 50.6517 29.0215 50.9766C29.6806 51.6309 30.5713 51.9987 31.5 52H36.5C36.8978 52 37.2794 52.1581 37.5607 52.4394C37.842 52.7207 38 53.1022 38 53.5V56.4942C36.3546 56.8305 34.6794 56.9999 33 57C28.9323 57 24.9257 56.01 21.3262 54.1153L20.3926 55.8848C24.2802 57.9304 28.6071 58.9995 33 59C39.0215 59.0022 44.8706 56.989 49.6152 53.2813L48.3848 51.7051C45.8864 53.6501 43.0409 55.1023 40 55.9844V53.5C40 52.5718 39.6312 51.6815 38.9749 51.0251C38.3185 50.3688 37.4283 50 36.5 50H31.5C31.3027 50.0011 31.1072 49.963 30.9247 49.888C30.7423 49.813 30.5765 49.7025 30.437 49.563C30.2975 49.4235 30.187 49.2578 30.112 49.0753C30.037 48.8928 29.9989 48.6973 30 48.5C30 47.5718 29.6313 46.6815 28.9749 46.0251C28.3185 45.3688 27.4283 45 26.5 45H17.9414C17.7926 43.571 17.3015 42.1989 16.5098 41H22C22.7943 40.9956 23.5547 40.6781 24.1164 40.1164C24.678 39.5548 24.9955 38.7943 25 38C25 37.2044 24.6839 36.4413 24.1213 35.8787C23.5587 35.3161 22.7956 35 22 35H20C19.4696 35 18.9609 34.7893 18.5858 34.4142C18.2107 34.0392 18 33.5305 18 33C18 32.4696 18.2107 31.9609 18.5858 31.5858C18.9609 31.2107 19.4696 31 20 31H27C27.7943 30.9956 28.5547 30.6781 29.1164 30.1164C29.678 29.5548 29.9955 28.7943 30 28C30 27.2044 29.6839 26.4413 29.1213 25.8787C28.5587 25.3161 27.7956 25 27 25H19ZM6.72852 25.7676C5.92221 29.1709 5.78359 32.6982 6.32031 36.1543L8.30078 35.8457C7.80181 32.6474 7.9285 29.3825 8.67383 26.2324L6.72852 25.7676ZM9 39C10.8369 38.9835 12.6054 39.6961 13.9176 40.9816C15.2299 42.2671 15.9787 44.0206 16 45.8574C16 48.3494 14.6835 49.9138 13.2715 51.5938C11.8595 53.2738 10.4004 55.0116 10.4004 57.6426C10.4004 58.014 10.2528 58.3702 9.99023 58.6328C9.7276 58.8954 9.37141 59.043 9 59.043C8.62859 59.043 8.2724 58.8954 8.00977 58.6328C7.74715 58.3702 7.59961 58.014 7.59961 57.6426C7.59961 55.0116 6.13252 53.2628 4.72852 51.5938C3.32452 49.9248 2 48.3494 2 45.8574C2.02126 44.0206 2.77012 42.2671 4.08236 40.9816C5.3946 39.6961 7.16309 38.9835 9 39ZM56.4609 40.6543C56.2239 41.3043 55.9532 41.9502 55.6602 42.5762L57.4727 43.4238C57.7877 42.7478 58.0809 42.0477 58.3379 41.3457L56.4609 40.6543ZM8.83398 42.0039C7.79032 42.05 6.80609 42.5026 6.09173 43.2648C5.37737 44.0271 4.98958 45.0386 5.01127 46.0831C5.03295 47.1275 5.46239 48.1221 6.20777 48.854C6.95315 49.586 7.95532 49.9973 9 50C10.0609 50 11.0783 49.5786 11.8284 48.8284C12.5786 48.0783 13 47.0609 13 46C12.9999 45.4608 12.8909 44.9271 12.6793 44.4312C12.4677 43.9352 12.1581 43.4871 11.7689 43.1138C11.3798 42.7405 10.9192 42.4498 10.4148 42.2591C9.91047 42.0683 9.37275 41.9815 8.83398 42.0039ZM9 44C9.53043 44 10.0391 44.2107 10.4142 44.5858C10.7893 44.9609 11 45.4696 11 46C11 46.3956 10.8827 46.7823 10.6629 47.1112C10.4432 47.4401 10.1308 47.6964 9.76537 47.8478C9.39991 47.9992 8.99778 48.0388 8.60982 47.9616C8.22186 47.8844 7.86549 47.6939 7.58579 47.4142C7.30608 47.1345 7.1156 46.7782 7.03843 46.3902C6.96126 46.0022 7.00087 45.6001 7.15224 45.2347C7.30362 44.8692 7.55996 44.5568 7.88886 44.3371C8.21776 44.1173 8.60444 44 9 44ZM57 46C58.2876 45.9647 59.5367 46.4411 60.4738 47.3248C61.4109 48.2084 61.9597 49.4274 62 50.7149C62 52.4189 61.0844 53.4752 60.0234 54.6992C58.9804 55.9012 57.8008 57.2632 57.8008 59.2852C57.7804 59.4834 57.6873 59.667 57.5393 59.8005C57.3914 59.934 57.1992 60.0079 57 60.0079C56.8008 60.0079 56.6086 59.934 56.4607 59.8005C56.3127 59.667 56.2196 59.4834 56.1992 59.2852C56.1992 57.2632 55.0196 55.8992 53.9766 54.6992C52.9156 53.4752 52 52.4149 52 50.7149C52.0403 49.4274 52.5891 48.2084 53.5262 47.3248C54.4633 46.4411 55.7124 45.9647 57 46ZM56.875 48.002C56.0875 48.03 55.3426 48.3667 54.8014 48.9394C54.2601 49.5121 53.9659 50.2748 53.9823 51.0626C53.9987 51.8504 54.3245 52.6001 54.8891 53.1498C55.4538 53.6994 56.212 54.0048 57 54C57.7957 54 58.5587 53.6839 59.1213 53.1213C59.6839 52.5587 60 51.7957 60 51C60.0001 50.5955 59.9184 50.1951 59.7597 49.8229C59.6011 49.4508 59.3688 49.1146 59.0769 48.8345C58.785 48.5545 58.4394 48.3363 58.061 48.1933C57.6826 48.0502 57.2792 47.9851 56.875 48.002ZM57 50C57.2652 50 57.5196 50.1054 57.7071 50.2929C57.8946 50.4804 58 50.7348 58 51C58 51.1978 57.9414 51.3911 57.8315 51.5556C57.7216 51.72 57.5654 51.8482 57.3827 51.9239C57.2 51.9996 56.9989 52.0194 56.8049 51.9808C56.6109 51.9422 56.4327 51.847 56.2929 51.7071C56.153 51.5673 56.0578 51.3891 56.0192 51.1951C55.9806 51.0011 56.0004 50.8001 56.0761 50.6173C56.1518 50.4346 56.28 50.2784 56.4444 50.1685C56.6089 50.0587 56.8022 50 57 50ZM17.6152 51.711L16.3848 53.2871C17.0448 53.8041 17.7429 54.2988 18.4609 54.7578L19.5391 53.0742C18.8751 52.6482 18.2272 52.19 17.6152 51.711Z"
      fill="#11A165" />
  </g>
  <defs>
    <clipPath id="clip0_2776_82510">
      <rect width="64" height="64" fill="white" />
    </clipPath>
  </defs>
</svg>