<svg width="64" height="64" viewBox="0 0 64 64" fill="none" xmlns="http://www.w3.org/2000/svg">
  <path
    d="M14.8774 4.00004C14.6988 3.9973 14.5215 4.03046 14.356 4.09757C14.1905 4.16467 14.0401 4.26434 13.9139 4.39067L4.39042 13.9141C4.14044 14.1641 4 14.5032 4 14.8568C4 15.2104 4.14044 15.5495 4.39042 15.7995L17.5363 28.9454L19.4217 27.0677L7.21855 14.8568L14.8566 7.21879L19.6378 12L13.9139 17.724L15.7993 19.6094L21.5258 13.8829L23.4503 15.8073L19.6274 19.6276L21.5128 21.5131L25.3357 17.6927L27.242 19.599L29.1326 17.724L15.7993 4.39067C15.5544 4.14565 15.2238 4.00555 14.8774 4.00004ZM56.6378 5.00004C56.5041 5.00276 56.3715 5.02558 56.2446 5.06775L46.4503 8.33337L46.4529 8.33858C46.258 8.40317 46.0807 8.5119 45.9347 8.65629L35.867 18.724L37.7446 20.6094L46.8696 11.4844L48.2498 12.8646L39.7238 21.3907L41.6092 23.2761L50.1326 14.7526L51.5102 16.1302L42.2472 25.3907L44.1326 27.2761L54.354 17.0756C54.538 16.8909 54.6638 16.6565 54.7159 16.4011L57.9295 6.75265C57.9966 6.55019 58.0142 6.3346 57.9807 6.12396C57.9472 5.91331 57.8637 5.71377 57.7372 5.54208C57.6107 5.37039 57.4448 5.23156 57.2535 5.13724C57.0622 5.04292 56.8511 4.99587 56.6378 5.00004ZM54.5545 8.44015L52.8175 13.6537L49.3462 10.1823L54.5545 8.44015ZM46.281 34.875L44.3956 36.7605L46.3045 38.6693L42.4868 42.487L44.3722 44.3724L48.1873 40.5547L50.1118 42.4792L44.3904 48.2006L46.2758 50.086L51.9972 44.3646L56.781 49.1485L49.143 56.7865L36.755 44.4011L34.867 46.2761L48.2003 59.6094C48.4503 59.8595 48.7894 60 49.143 60C49.496 60.0034 49.836 59.8667 50.0883 59.6198L59.6144 50.0938C59.8644 49.8438 60.0048 49.5047 60.0048 49.1511C60.0048 48.7975 59.8644 48.4584 59.6144 48.2084L52.9477 41.5417L46.281 34.875ZM18.8566 35.724L5.39042 49.1901C5.14044 49.4402 5 49.7793 5 50.1329C5 50.4864 5.14044 50.8255 5.39042 51.0756L11.9243 57.6094C12.1743 57.8595 12.5134 58 12.867 58C13.2206 58 13.5597 57.8595 13.8097 57.6094L27.143 44.2761L25.2576 42.3907L12.867 54.7813L11.4842 53.4011L23.2758 41.6094L21.3878 39.724L9.59876 51.5131L8.21855 50.1329L20.742 37.6094L18.8566 35.724Z"
    fill="#11A165" />
  <path d="M30 40.5L34.5 23.5" stroke="#11A165" stroke-width="2" stroke-linecap="round" stroke-linejoin="round" />
  <path d="M27 27L22 32C25.1242 35.1242 23.8758 33.8758 27 37" stroke="#11A165" stroke-width="2" stroke-linecap="round"
    stroke-linejoin="round" />
  <path d="M37 37L42 32C38.8758 28.8758 40.1242 30.1242 37 27" stroke="#11A165" stroke-width="2" stroke-linecap="round"
    stroke-linejoin="round" />
</svg>