<svg width="732" height="229" viewBox="0 0 732 229" fill="none" xmlns="http://www.w3.org/2000/svg">
<path d="M39.3273 227.076H143.881V218.097C117.982 216.173 110.628 212.004 110.628 199.819V60.6483C110.628 44.2941 113.506 40.7668 134.928 40.7668C157.629 40.7668 164.663 48.4628 173.936 73.7958H183.208L177.772 31.4674C177.453 28.5813 175.534 26.978 172.657 27.2986C168.18 27.6193 160.507 27.94 152.833 27.94H30.6945C23.0209 27.94 15.0275 27.6193 10.5512 27.2986C7.67363 26.978 5.75522 28.5813 5.43549 31.4674L0 73.7958H9.2723C18.5446 48.4628 25.5788 40.7668 48.2799 40.7668C69.7021 40.7668 72.5797 44.2941 72.5797 60.6483V199.819C72.5797 212.004 65.2258 216.173 39.3273 218.097V227.076Z" fill="#002825"/>
<path d="M205.569 229C227.311 229 245.216 218.097 255.447 205.912C258.005 202.384 260.563 203.026 260.563 206.553C261.522 219.701 270.155 229 285.822 229C295.414 229 305.326 225.793 309.163 218.418V213.608C299.89 215.853 293.815 212.646 293.815 201.422V135.685C293.815 94.6393 278.148 79.5678 240.739 79.5678C207.487 79.5678 172.956 90.4706 172.956 115.162C172.956 124.462 178.711 131.516 189.262 131.516C199.174 131.516 207.487 125.744 207.487 113.238C207.487 99.1287 213.882 90.1499 231.467 90.1499C251.61 90.1499 260.243 102.977 260.243 126.065V131.837C260.243 139.533 257.685 141.778 250.331 142.74C184.466 151.398 163.683 168.073 163.683 193.726C163.683 218.739 183.827 229 205.569 229ZM223.474 210.08C206.208 210.08 198.534 199.178 198.534 186.672C198.534 173.203 207.487 156.849 247.454 152.681C258.005 151.719 260.243 155.567 260.243 162.942V173.524C260.243 194.688 244.256 210.08 223.474 210.08Z" fill="#002825"/>
<path d="M465.821 229C475.094 229 485.005 225.793 489.162 218.418V213.608C479.89 215.853 473.815 212.646 473.815 201.422V133.44C473.815 92.0739 450.794 79.2472 427.453 79.2472C401.235 79.2472 387.806 93.998 381.731 100.411C377.574 105.221 373.098 101.694 373.098 90.1499V27.6193C373.098 19.6026 368.622 15.7545 360.309 17.3579L319.063 25.3746V34.0327C334.73 32.4294 339.526 37.2394 339.526 51.6695V199.178C339.526 212.646 334.091 216.815 319.063 218.418V227.076H393.561V218.418C378.534 216.815 373.098 212.646 373.098 199.178V140.816C373.098 117.086 386.207 99.4494 407.31 99.4494C428.732 99.4494 440.242 117.086 440.242 140.816V201.743C440.242 220.663 451.113 229 465.821 229Z" fill="#002825"/>
<path d="M578.543 229C617.87 229 654 202.384 654 154.284C654 106.183 617.87 79.5678 578.543 79.5678C539.215 79.5678 503.085 106.183 503.085 154.284C503.085 202.384 539.215 229 578.543 229ZM585.257 218.097C558.08 218.097 539.215 182.503 539.215 141.457C539.215 106.504 552.644 90.4706 571.828 90.4706C599.006 90.4706 617.87 126.065 617.87 167.111C617.87 202.064 604.121 218.097 585.257 218.097Z" fill="#002825"/>
<path d="M728.103 38.9435L702.542 37.4354C700.72 37.3158 699.001 36.5456 697.69 35.2626C696.38 33.9796 695.565 32.2677 695.392 30.4335L693.15 4.07885C693.08 3.68068 692.873 3.32017 692.565 3.06056C692.258 2.80095 691.87 2.65867 691.47 2.65867C691.069 2.65867 690.681 2.80095 690.374 3.06056C690.066 3.32017 689.859 3.68068 689.789 4.07885L687.494 30.4335C687.342 32.2758 686.534 33.9999 685.219 35.2872C683.905 36.5745 682.173 37.3376 680.344 37.4354L654.783 39.0513C654.389 39.1225 654.031 39.3314 653.774 39.6416C653.517 39.9518 653.376 40.3435 653.376 40.748C653.376 41.1524 653.517 41.544 653.774 41.8542C654.031 42.1644 654.389 42.3732 654.783 42.4444L680.344 43.9526C682.162 44.0827 683.876 44.8566 685.184 46.1375C686.492 47.4185 687.31 49.1244 687.494 50.9546L689.735 77.3093C689.806 77.7074 690.013 78.0679 690.32 78.3275C690.627 78.5872 691.015 78.7293 691.416 78.7293C691.817 78.7293 692.205 78.5872 692.512 78.3275C692.819 78.0679 693.026 77.7074 693.097 77.3093L695.338 50.9546C695.512 49.1204 696.327 47.4085 697.637 46.1255C698.947 44.8426 700.667 44.0722 702.489 43.9526L728.103 42.3368C728.497 42.2656 728.854 42.0565 729.111 41.7464C729.369 41.4362 729.51 41.0446 729.51 40.6401C729.51 40.2357 729.369 39.8441 729.111 39.5339C728.854 39.2237 728.497 39.0147 728.103 38.9435Z" fill="#EF9C32"/>
<path fill-rule="evenodd" clip-rule="evenodd" d="M728.325 37.0828L728.435 37.1027C729.267 37.2529 730.016 37.6928 730.553 38.3405C731.09 38.9877 731.382 39.8018 731.382 40.6401C731.382 41.4785 731.09 42.2926 730.553 42.9398C730.016 43.5875 729.267 44.0274 728.435 44.1776L728.329 44.1968L702.612 45.8191C702.611 45.8192 702.61 45.8192 702.609 45.8193C701.237 45.9099 699.939 46.4904 698.947 47.4615C697.957 48.4316 697.337 49.7287 697.203 51.1225L694.955 77.552L694.94 77.6354C694.794 78.4611 694.364 79.2125 693.721 79.756C693.077 80.3 692.261 80.5999 691.416 80.5999C690.571 80.5999 689.755 80.3 689.111 79.756C688.468 79.2125 688.038 78.4611 687.892 77.6354L687.877 77.552L685.63 51.1282C685.487 49.7365 684.864 48.4431 683.873 47.4735C682.883 46.5038 681.59 45.9198 680.221 45.8191L654.561 44.3052L654.45 44.2852C653.619 44.1352 652.87 43.6957 652.333 43.0476C651.796 42.4005 651.504 41.5863 651.504 40.748C651.504 39.9098 651.796 39.0955 652.333 38.4481C652.87 37.8001 653.619 37.3606 654.45 37.2105L654.557 37.1913L680.234 35.568L680.244 35.5675C681.615 35.4942 682.918 34.9218 683.909 33.9512C684.9 32.9803 685.513 31.6764 685.628 30.2796L685.629 30.2714L687.931 3.83423L687.945 3.75268C688.091 2.92699 688.522 2.17559 689.165 1.63214C689.808 1.0884 690.624 0.788086 691.47 0.788086C692.315 0.788086 693.131 1.0884 693.774 1.63214C694.418 2.17558 694.848 2.92699 694.994 3.75268L695.009 3.83608L697.256 30.2655C697.39 31.6593 698.01 32.9564 699.001 33.9266C699.992 34.8969 701.289 35.4772 702.659 35.5685C702.661 35.5686 702.663 35.5687 702.665 35.5688L728.325 37.0828ZM702.542 37.4354C700.72 37.3158 699.001 36.5456 697.69 35.2626C696.38 33.9796 695.565 32.2677 695.392 30.4335L693.15 4.07885C693.08 3.68068 692.873 3.32017 692.565 3.06056C692.258 2.80095 691.87 2.65867 691.47 2.65867C691.069 2.65867 690.681 2.80095 690.374 3.06056C690.066 3.32017 689.859 3.68068 689.789 4.07885L687.494 30.4335C687.342 32.2758 686.534 33.9999 685.219 35.2872C683.905 36.5745 682.173 37.3376 680.344 37.4354L654.783 39.0513C654.389 39.1225 654.031 39.3314 653.774 39.6416C653.517 39.9518 653.376 40.3435 653.376 40.748C653.376 41.1524 653.517 41.544 653.774 41.8542C654.031 42.1644 654.389 42.3732 654.783 42.4444L680.344 43.9526C682.162 44.0827 683.876 44.8566 685.184 46.1375C686.492 47.4185 687.31 49.1244 687.494 50.9546L689.735 77.3093C689.806 77.7074 690.013 78.0679 690.32 78.3275C690.627 78.5872 691.015 78.7293 691.416 78.7293C691.817 78.7293 692.205 78.5872 692.512 78.3275C692.819 78.0679 693.026 77.7074 693.097 77.3093L695.338 50.9546C695.512 49.1204 696.327 47.4085 697.637 46.1255C698.947 44.8426 700.667 44.0722 702.489 43.9526L728.103 42.3368C728.497 42.2656 728.854 42.0565 729.111 41.7464C729.369 41.4362 729.51 41.0446 729.51 40.6401C729.51 40.2357 729.369 39.8441 729.111 39.5339C728.854 39.2237 728.497 39.0147 728.103 38.9435L702.542 37.4354Z" fill="#EF9C32"/>
</svg>