<svg width="1022" height="272" viewBox="0 0 1022 272" fill="none" xmlns="http://www.w3.org/2000/svg">
<path d="M362.566 210.059H447.054V202.804C426.126 201.249 420.183 197.88 420.183 188.032V75.5649C420.183 62.3487 422.509 59.4982 439.82 59.4982C458.164 59.4982 463.849 65.7176 471.341 86.1898H478.834L474.442 51.9831C474.183 49.6508 472.633 48.3551 470.308 48.6142C466.691 48.8734 460.49 49.1325 454.289 49.1325H355.59C349.389 49.1325 342.929 48.8734 339.312 48.6142C336.987 48.3551 335.437 49.6508 335.178 51.9831L330.786 86.1898H338.279C345.772 65.7176 351.456 59.4982 369.8 59.4982C387.111 59.4982 389.437 62.3487 389.437 75.5649V188.032C389.437 197.88 383.494 201.249 362.566 202.804V210.059Z" fill="#002825"/>
<path d="M514.036 211.614C531.605 211.614 546.074 202.803 554.342 192.956C556.409 190.106 558.476 190.624 558.476 193.474C559.251 204.099 566.227 211.614 578.888 211.614C586.639 211.614 594.648 209.023 597.749 203.063V199.176C590.256 200.99 585.347 198.398 585.347 189.328V136.204C585.347 103.034 572.687 90.8543 542.457 90.8543C515.586 90.8543 487.681 99.6651 487.681 119.619C487.681 127.134 492.332 132.835 500.859 132.835C508.868 132.835 515.586 128.171 515.586 118.064C515.586 106.662 520.753 99.406 534.964 99.406C551.241 99.406 558.218 109.772 558.218 128.43V133.094C558.218 139.314 556.151 141.128 550.208 141.905C496.983 148.902 480.189 162.377 480.189 183.109C480.189 203.322 496.466 211.614 514.036 211.614ZM528.505 196.325C514.552 196.325 508.351 187.514 508.351 177.408C508.351 166.524 515.586 153.307 547.883 149.939C556.409 149.161 558.218 152.271 558.218 158.231V166.783C558.218 183.886 545.299 196.325 528.505 196.325Z" fill="#002825"/>
<path d="M722.327 211.614C729.82 211.614 737.83 209.023 741.189 203.063V199.176C733.696 200.99 728.787 198.398 728.787 189.328V134.39C728.787 100.961 710.184 90.5952 691.323 90.5952C670.136 90.5952 659.284 102.516 654.375 107.699C651.016 111.586 647.399 108.735 647.399 99.406V48.8734C647.399 42.3948 643.782 39.2851 637.064 40.5808L603.734 47.0594V54.0562C616.394 52.7605 620.27 56.6476 620.27 68.309V187.514C620.27 198.398 615.877 201.767 603.734 203.063V210.059H663.935V203.063C651.791 201.767 647.399 198.398 647.399 187.514V140.35C647.399 121.174 657.992 106.921 675.045 106.921C692.356 106.921 701.658 121.174 701.658 140.35V189.587C701.658 204.877 710.442 211.614 722.327 211.614Z" fill="#002825"/>
<path d="M813.416 211.614C845.196 211.614 874.393 190.106 874.393 151.234C874.393 112.363 845.196 90.8543 813.416 90.8543C781.636 90.8543 752.44 112.363 752.44 151.234C752.44 190.106 781.636 211.614 813.416 211.614ZM818.842 202.804C796.88 202.804 781.636 174.039 781.636 140.869C781.636 112.622 792.488 99.6651 807.991 99.6651C829.952 99.6651 845.196 128.43 845.196 161.6C845.196 189.846 834.086 202.804 818.842 202.804Z" fill="#002825"/>
<path d="M268.928 41.3833L251.226 40.3533C249.964 40.2716 248.773 39.7456 247.866 38.8693C246.958 37.9931 246.394 36.824 246.274 35.5713L244.722 19.2755C244.673 19.0035 244.529 18.7573 244.317 18.58C244.104 18.4027 243.835 18.3055 243.558 18.3055C243.28 18.3055 243.011 18.4027 242.799 18.58C242.586 18.7573 242.442 19.0035 242.393 19.2755L240.804 35.5713C240.699 36.8295 240.139 38.007 239.229 38.8862C238.318 39.7653 237.119 40.2865 235.852 40.3533L218.15 41.4569C217.877 41.5056 217.63 41.6482 217.452 41.8601C217.274 42.0719 217.176 42.3394 217.176 42.6157C217.176 42.8919 217.274 43.1593 217.452 43.3712C217.63 43.583 217.877 43.7257 218.15 43.7743L235.852 44.8043C237.111 44.8932 238.298 45.4217 239.204 46.2965C240.11 47.1714 240.677 48.3364 240.804 49.5864L242.356 65.8822C242.405 66.1542 242.549 66.4004 242.762 66.5777C242.974 66.755 243.243 66.852 243.521 66.852C243.798 66.852 244.067 66.755 244.28 66.5777C244.492 66.4004 244.636 66.1542 244.685 65.8822L246.237 49.5864C246.357 48.3337 246.921 47.1646 247.829 46.2884C248.736 45.4121 249.927 44.886 251.189 44.8043L268.928 43.7008C269.201 43.6521 269.448 43.5094 269.626 43.2975C269.805 43.0857 269.902 42.8183 269.902 42.542C269.902 42.2658 269.805 41.9984 269.626 41.7865C269.448 41.5747 269.201 41.4319 268.928 41.3833Z" fill="#002825"/>
<path fill-rule="evenodd" clip-rule="evenodd" d="M231.713 102.447L234.633 104.507C237.211 106.239 239.226 108.68 240.435 111.533C241.018 113.133 241.244 114.84 241.1 116.535C240.969 117.859 240.759 119.173 240.472 120.471C239.873 123.033 238.941 125.506 237.7 127.828C237.044 129.017 236.29 130.149 235.446 131.213L235.04 131.765L235.557 135.038C235.718 136.345 235.804 137.659 235.816 138.974C235.782 144.19 234.604 149.335 232.363 154.05C230.122 158.765 226.874 162.935 222.844 166.269L222.364 166.674L221.772 166.858C216.606 168.702 211.306 170.153 205.918 171.198C200.417 172.351 194.795 172.833 189.177 172.633H188.808H188.364C177.258 169.123 165.813 166.78 154.217 165.644C153.478 165.578 152.729 165.52 151.971 165.461C149.737 165.288 147.425 165.109 145.052 164.724C141.916 164.235 138.834 163.447 135.85 162.37C130.666 160.578 125.224 159.634 119.737 159.574H119.552C117.952 162.056 116.886 164.841 116.422 167.753C115.958 170.666 116.105 173.642 116.854 176.495C118.27 183.644 120.761 190.54 124.246 196.948C128.243 203.688 131.822 210.666 134.963 217.842C136.658 221.645 137.898 225.633 138.658 229.723C139.458 234.185 139.128 238.774 137.698 243.077L135.887 248.19L131.489 244.953C130.827 244.482 130.122 244.076 129.382 243.739C129.045 246.219 128.552 248.677 127.904 251.096C126.665 255.313 124.89 259.356 122.62 263.124C119.608 239.241 102.826 232.398 86.4252 225.711C79.081 222.716 71.8131 219.752 65.8922 215.304C46.7491 200.921 45.1969 184.11 57.0228 154.682C60.6327 145.631 63.2591 136.222 64.8575 126.615C65.1901 124.444 65.5967 122.311 66.0771 120.177C66.1171 119.879 66.1788 119.584 66.2618 119.294L66.5944 117.786C66.6376 118.754 66.6651 119.719 66.6924 120.681C66.7586 123.008 66.8242 125.317 67.1119 127.608C67.2897 130.733 67.9118 133.816 68.9596 136.767C69.4357 138.02 70.151 139.169 71.0661 140.152C71.3281 140.456 71.6159 140.722 71.9524 141.032C72.1855 141.247 72.4418 141.484 72.7291 141.77C73.2171 142.326 73.7484 142.843 74.3182 143.315C76.6698 145.107 79.2883 146.522 82.079 147.509C87.9776 149.56 94.1105 150.869 100.335 151.408C106.322 152.107 112.42 152.364 118.554 152.364H119.478C125.842 152.41 132.156 153.478 138.178 155.528C143.554 157.337 149.172 158.329 154.845 158.471C166.776 159.614 178.555 161.994 189.99 165.57C194.865 165.699 199.739 165.267 204.514 164.283C207.914 163.62 211.277 162.701 214.603 161.708C222.031 158.581 226.946 150.12 216.894 151.224C214.521 151.387 212.162 151.719 209.836 152.217C208.02 152.548 206.224 153.207 204.302 153.912C202.587 154.542 200.771 155.209 198.749 155.712C194.652 156.67 190.378 156.569 186.332 155.417C182.8 153.963 179.057 153.082 175.245 152.806C177.02 151.793 179.005 151.201 181.047 151.077C182.515 150.928 183.831 150.98 185.099 151.029C185.715 151.053 186.319 151.077 186.923 151.077C190.385 151.512 193.896 151.363 197.308 150.635C199.03 150.145 200.787 149.202 202.685 148.184C204.208 147.366 205.821 146.5 207.581 145.78C211.433 144.166 215.561 143.304 219.74 143.241H222.253C225.172 139.195 227.648 134.707 226.688 131.029C225.55 129.511 223.978 128.37 222.179 127.755C221.702 127.589 220.772 127.348 219.566 127.035C215.164 125.894 207.084 123.8 203.923 120.913C201.557 118.522 202.962 113.703 212.644 111.717C217.099 110.946 221.64 110.81 226.133 111.312C227.67 111.579 229.25 111.439 230.716 110.907L230.161 110.429L227.353 108.443L224.507 106.309L213.42 97.8854C211.61 96.5243 209.688 95.1265 207.914 93.9862L207.027 93.4711L205.29 92.7355C204.144 92.2573 202.999 91.7055 201.853 91.1169C198.314 89.2412 195.035 86.9166 192.097 84.2013C181.269 75.1521 169.147 53.3018 165.969 46.1654C163.432 40.6775 158.962 36.3061 153.404 33.8792C156.132 33.7277 158.859 34.1991 161.377 35.2574C163.894 36.3158 166.135 37.9329 167.928 39.9854C168.858 40.7532 170.596 43.2571 172.695 46.2812C176.931 52.3852 182.638 60.6087 186.147 60.953C188.033 60.8827 189.905 60.5988 191.727 60.1069C189.981 58.4345 188.386 56.6128 186.96 54.6628C185.061 52.1697 183.592 49.595 182.172 47.1058C181.686 46.2528 181.205 45.4098 180.714 44.5836C179.083 41.4831 177.112 38.5717 174.838 35.9023C174.316 35.3538 173.761 34.8378 173.175 34.3573C172.562 33.9034 171.906 33.5093 171.217 33.1803C169.701 32.4078 168.149 31.7455 166.228 31.0098C164.306 30.2741 162.606 29.612 160.61 28.6188L155.436 26.0439L145.089 21.0411C138.263 17.7782 131.24 14.9402 124.061 12.5437C116.952 10.2157 109.62 8.62544 102.183 7.79839C100.418 7.56486 98.6414 7.42982 96.8613 7.39381C95.4307 7.35559 94.0116 7.65825 92.7223 8.27662C92.0439 8.57308 91.3432 8.9433 90.5905 9.34103C89.6621 9.83162 88.6544 10.3641 87.5115 10.8516L82.3747 13.2058C75.6928 16.5532 69.3128 20.4669 63.3054 24.9036C58.4701 28.0489 54.198 31.9778 50.6664 36.5276C55.8972 36.2882 61.1263 37.0371 66.0771 38.7348C59.4166 38.6306 52.7813 39.5742 46.4165 41.5305C43.2997 42.4495 40.2498 43.5803 37.2884 44.9147C34.3255 46.1496 31.4702 47.626 28.7516 49.3289C26.0672 50.87 23.5846 52.7358 21.3604 54.8835C20.4513 55.7929 19.746 56.8836 19.2909 58.0838C18.6626 59.4449 18.0713 60.953 17.5169 62.4612C15.3809 68.6516 13.6769 74.9815 12.4171 81.4056C9.74554 94.1967 8.75175 107.279 9.46058 120.324C9.98818 130.858 12.7462 141.163 17.5539 150.562C22.0995 144.639 26.5342 138.57 30.8211 132.427C36.2906 124.444 41.5013 116.204 46.1578 107.891C48.5894 103.55 50.7388 99.0078 52.9112 94.4172C54.899 90.2169 56.9061 85.9758 59.1662 81.8103C61.4597 77.3537 64.1433 73.107 67.1857 69.1194C68.756 67.0598 70.5813 65.2059 72.6182 63.6016C74.6253 61.9382 77.1083 60.9471 79.7138 60.7692C71.4357 68.163 64.9684 88.0269 58.575 110.282C53.3643 128.344 35.8101 169.543 24.7233 170.536C20.3995 170.794 18.8474 168.734 15.8909 164.54L13.4888 161.229C9.23242 155.327 5.98577 148.764 3.8802 141.807C1.94943 134.99 0.772195 127.984 0.369401 120.913C0.0297906 113.958 0.190361 106.988 0.849846 100.056C1.61187 93.1871 2.7842 86.3697 4.36065 79.6399C5.90546 72.888 7.91823 66.2508 10.3845 59.7759C11.0497 58.1573 11.7149 56.5388 12.5279 54.8835C12.9733 53.9563 13.4794 53.0592 14.0431 52.1981C14.6663 51.3349 15.3584 50.5229 16.1127 49.7703C18.8091 47.2184 21.8579 45.0632 25.1669 43.3697C30.6633 40.5368 36.5556 38.5404 42.647 37.4472C44.359 33.6574 46.7086 30.1866 49.5947 27.1843C52.4138 24.2665 55.4802 21.5958 58.7598 19.2018C64.8547 14.3295 71.4584 10.124 78.4572 6.65806C80.1572 5.812 82.3746 4.81886 83.8529 4.19351C84.5761 3.88758 85.3346 3.4936 86.1632 3.06326C87.0283 2.61397 87.9696 2.12505 89.0267 1.65533C91.2466 0.620381 93.6709 0.0924658 96.1222 0.110301C98.1863 0.13554 100.247 0.282923 102.294 0.551705C110.233 1.44228 118.06 3.14337 125.65 5.62808C133.124 8.1055 140.431 11.0543 147.528 14.4565L158.023 19.5329L163.234 22.1079C164.389 22.7293 165.86 23.2982 167.425 23.9033C167.713 24.0146 168.004 24.1271 168.297 24.2414C170.182 24.9771 171.956 25.7496 173.877 26.706C174.921 27.2274 175.922 27.8301 176.871 28.5085C177.79 29.2426 178.654 30.0417 179.458 30.8995C182.297 33.9427 184.777 37.2998 186.849 40.9051L187.098 41.3353C190.919 47.9408 194.47 54.0786 199.968 57.6791L204.366 60.5852V61.0634L203.147 63.2337L199.081 64.2637C198.308 64.5006 197.659 65.0285 197.271 65.7351C197.078 66.0866 196.964 66.4758 196.938 66.8754C196.896 67.6719 196.896 68.4701 196.938 69.2665C196.944 70.5137 196.757 71.7544 196.384 72.945C196.191 73.6059 195.973 74.1679 195.788 74.6454C195.654 74.9918 195.537 75.2938 195.46 75.5568C195.35 75.8126 195.293 76.0879 195.293 76.366C195.293 76.6442 195.35 76.9195 195.46 77.1753C198.345 80.154 201.704 82.6396 205.401 84.5324C206.325 85.0473 207.286 85.4888 208.283 85.9302L209.799 86.5188C210.559 86.8615 211.288 87.2675 211.979 87.7327C213.949 88.9743 215.568 90.187 217.253 91.448C217.464 91.6066 217.677 91.7659 217.892 91.9262L228.979 100.387L231.713 102.447ZM135.518 79.1249C134.572 79.216 133.619 79.216 132.672 79.1249C126.316 78.7571 123.212 74.4164 124.246 69.9654C125.281 65.5144 124.653 64.043 123.396 64.043C121.448 64.7209 119.774 66.0122 118.629 67.7215H118.37C118.303 67.7331 118.234 67.7291 118.168 67.7098C118.103 67.6905 118.043 67.6564 117.993 67.6101C117.942 67.5638 117.904 67.5066 117.88 67.443C117.855 67.3793 117.846 67.311 117.853 67.2432C119.183 58.0102 124.616 57.6055 127.018 57.6055C134.349 58.1482 141.613 59.3799 148.711 61.2841C148.917 61.317 149.108 61.4109 149.259 61.5536C149.41 61.6963 149.514 61.8811 149.558 62.0838C149.602 62.2865 149.584 62.4977 149.505 62.6898C149.426 62.8818 149.291 63.0458 149.118 63.1601C148.065 64.0824 147.277 65.2668 146.835 66.5919C146.394 67.9171 146.314 69.3352 146.605 70.7011C147.048 75.0417 141.874 78.426 135.518 79.1249Z" fill="#002825"/>
</svg>
