<svg width="265" height="93" viewBox="0 0 265 93" fill="none" xmlns="http://www.w3.org/2000/svg">
<g clip-path="url(#clip0_592_4694)">
<path d="M150.655 20.3163C148.852 16.8666 147.826 14.4013 146.462 10.9515H146.269C146.563 14.6494 146.708 17.1147 146.708 20.8086V35.3481H140.371V0.846203H147.44L154.07 13.9578C155.873 17.5053 156.947 19.8241 158.407 23.2739C159.872 19.8241 160.942 17.5053 162.744 13.9578L169.375 0.846203H176.444V35.3522H170.107V20.8127C170.107 17.1147 170.252 14.6494 170.545 10.9555H170.352C168.988 14.4053 167.963 16.8706 166.16 20.3204L158.407 35.3563L150.655 20.3204V20.3163Z" fill="black"/>
<path d="M207.298 27.9564C205.886 32.3907 201.742 36.0886 195.16 36.0886C187.069 36.0886 181.996 30.1736 181.996 22.5336C181.996 14.8936 187.21 8.97853 195.011 8.97853C201.444 8.97853 205.347 12.4283 206.956 17.5542C207.539 19.4255 207.785 21.5979 207.785 23.7662V24.7507H188.284C188.477 27.9564 190.77 31.4062 195.156 31.4062C198.471 31.4062 200.177 29.5349 200.76 27.9564H207.294H207.298ZM188.288 20.0683H201.5C201.355 16.6185 199.062 13.661 195.015 13.661C190.967 13.661 188.678 16.6185 188.288 20.0683Z" fill="black"/>
<path d="M233.043 30.4216V35.3521H210.617V30.4216L224.803 14.6494H211.104V9.71876H232.552V14.6494L218.366 30.4216H233.039H233.043Z" fill="black"/>
<path d="M249.325 36.0886C241.282 36.0886 236.064 30.1736 236.064 22.5336C236.064 14.8936 241.282 8.97853 249.325 8.97853C257.367 8.97853 262.585 14.8936 262.585 22.5336C262.585 30.1736 257.371 36.0886 249.325 36.0886ZM249.325 31.1621C254.442 31.1621 256.538 26.7278 256.538 22.5377C256.538 18.3475 254.442 13.9132 249.325 13.9132C244.207 13.9132 242.111 18.3515 242.111 22.5377C242.111 26.7238 244.207 31.1621 249.325 31.1621Z" fill="black"/>
<path d="M30.5525 30.9505L43.2258 18.1358V18.0788L55.8386 30.8935C59.4837 34.5792 63.9415 36.2187 68.3389 36.2187C77.54 36.2187 86.3912 28.9652 86.3912 18.0788L99.0041 30.8935C102.649 34.5792 107.107 36.2187 111.504 36.2187C120.705 36.2187 129.557 28.9652 129.557 18.0788H118.734L106.121 5.32521C102.476 1.63947 97.962 1.15451e-05 93.5646 1.15451e-05C84.3635 1.15451e-05 75.5687 7.19656 75.5687 18.0788L62.9558 5.32521C59.3107 1.63947 54.7966 1.15451e-05 50.3992 1.15451e-05C41.1981 1.15451e-05 32.4032 7.19656 32.4032 18.0788L4.03068e-06 18.1358C4.03068e-06 29.0791 8.96782 36.1577 18.169 36.1577C22.5664 36.1577 27.0242 34.5182 30.5525 30.9505Z" fill="#FF004D"/>
</g>
<path d="M258.27 69.1032C258.27 64.4323 255.419 61.2365 251.24 61.2365C247.306 61.2365 244.455 64.4323 244.455 69.1032C244.455 73.774 247.306 76.9698 251.24 76.9698C255.419 76.9698 258.27 73.774 258.27 69.1032ZM250.256 81.8865C243.127 81.8865 238.358 76.2323 238.358 69.1032C238.358 61.974 243.127 56.3198 250.256 56.3198C254.435 56.3198 257.041 58.5323 258.025 59.7615V57.0573H264.121V79.674C264.121 87.7865 258.615 92.2115 251.485 92.2115C245.34 92.2115 241.062 89.5074 240.079 84.5907H246.323C247.11 86.8032 248.781 87.5407 251.485 87.5407C255.665 87.5407 258.025 84.8365 258.025 79.674V78.4448C257.041 79.674 254.435 81.8865 250.256 81.8865Z" fill="black"/>
<path d="M217.502 57.0573V60.2532C219.223 57.7948 222.075 56.3198 225.517 56.3198C231.662 56.3198 235.448 60.0073 235.448 66.6448V82.624H229.352V67.1365C229.352 63.449 227.729 61.4823 224.042 61.4823C220.354 61.4823 217.502 63.9407 217.502 68.6115V82.624H211.406V57.0573H217.502Z" fill="black"/>
<path d="M200.697 82.6237V57.057H206.794V82.6237H200.697ZM200.697 53.6154V48.207H206.794V53.6154H200.697Z" fill="black"/>
<path d="M182.951 82.6243L173.117 57.0576H179.607L183.147 66.891C184.229 69.841 185.163 73.2826 185.9 75.9868H186.097C186.835 73.2826 187.769 69.841 188.851 66.891L192.391 57.0576H198.881L189.047 82.6243H182.951Z" fill="black"/>
<path d="M165.211 82.6237V57.057H171.308V82.6237H165.211ZM165.211 53.6154V48.207H171.308V53.6154H165.211Z" fill="black"/>
<path d="M154.741 69.1032C154.741 64.4323 151.89 61.2365 147.711 61.2365C143.777 61.2365 140.926 64.4323 140.926 69.1032C140.926 73.774 143.777 76.9698 147.711 76.9698C151.89 76.9698 154.741 73.774 154.741 69.1032ZM146.727 81.8865C139.598 81.8865 134.829 76.2323 134.829 69.1032C134.829 61.974 139.598 56.3198 146.727 56.3198C150.906 56.3198 153.512 58.5323 154.496 59.7615V57.0573H160.592V79.674C160.592 87.7865 155.086 92.2115 147.956 92.2115C141.811 92.2115 137.533 89.5074 136.55 84.5907H142.794C143.581 86.8032 145.252 87.5407 147.956 87.5407C152.136 87.5407 154.496 84.8365 154.496 79.674V78.4448C153.512 79.674 150.906 81.8865 146.727 81.8865Z" fill="black"/>
<path d="M122.477 72.7415L120.756 72.5448C115.348 71.9057 110.923 69.5457 110.923 64.039C110.923 59.3682 115.151 56.3198 121.985 56.3198C129.016 56.3198 132.507 60.204 132.802 63.9407H126.656C126.558 62.0723 125.083 60.6465 121.887 60.6465C118.298 60.6465 117.02 62.0723 117.02 63.4982C117.02 65.514 118.79 66.3498 121.74 66.694L123.46 66.8907C128.623 67.4807 133.294 69.2015 133.294 75.249C133.294 80.1657 128.967 83.3615 121.985 83.3615C114.955 83.3615 110.628 80.0673 110.431 75.249H116.626C116.725 77.8548 118.642 78.9857 121.985 78.9857C125.525 78.9857 127.197 77.7073 127.197 75.7898C127.197 73.4298 125.28 73.0857 122.477 72.7415Z" fill="black"/>
<path d="M93.3742 71.7579V82.6237H87.2775V48.207H93.3742V67.1854L103.257 57.057H111.074L98.7825 69.3487L112.058 82.6237H103.748L93.3742 71.7579Z" fill="black"/>
<path d="M64.9473 57.0573V60.2532C66.6681 57.7948 69.5198 56.3198 72.9614 56.3198C79.1073 56.3198 82.8931 60.0073 82.8931 66.6448V82.624H76.7964V67.1365C76.7964 63.449 75.1739 61.4823 71.4864 61.4823C67.7989 61.4823 64.9473 63.9407 64.9473 68.6115V82.624H58.8506V57.0573H64.9473Z" fill="black"/>
<path d="M37.9546 63.9407H31.6613C32.448 59.319 36.3322 56.3198 43.068 56.3198C47.2472 56.3198 50.6397 57.4507 52.5572 59.7123C53.8355 61.1873 54.4747 63.2032 54.4747 65.6615V82.624H48.378V79.674C46.903 81.6407 44.543 83.3615 39.8721 83.3615C34.7096 83.3615 30.4321 80.6573 30.4321 75.0032C30.4321 70.0865 34.218 67.4315 40.118 66.8907L48.378 66.1532V65.6615C48.378 62.7115 47.0013 60.9907 43.068 60.9907C39.8722 60.9907 38.348 62.0723 37.9546 63.9407ZM40.8555 78.6907C45.0347 78.6907 48.378 76.2323 48.378 71.5615V70.5782L40.3638 71.3157C38.1022 71.5123 36.5288 72.7907 36.5288 75.0032C36.5288 77.4615 38.2988 78.6907 40.8555 78.6907Z" fill="black"/>
<path d="M17.9459 82.6237H4.98071e-05V48.207H16.9626C23.1084 48.207 27.5334 51.8945 27.5334 57.5487C27.5334 60.7445 26.0584 62.9571 23.8459 64.4321C26.7959 66.1529 28.7626 68.8571 28.7626 72.7904C28.7626 78.6904 24.3376 82.6237 17.9459 82.6237ZM6.39172 77.2154H17.4542C20.8959 77.2154 22.3709 75.2487 22.3709 72.5446C22.3709 69.8404 20.8959 67.6279 17.4542 67.6279H6.39172V77.2154ZM6.39172 62.2196H16.4709C19.4209 62.2196 21.1417 60.4987 21.1417 57.7946C21.1417 55.0904 19.4209 53.6154 16.4709 53.6154H6.39172V62.2196Z" fill="black"/>
<defs>
<clipPath id="clip0_592_4694">
<rect width="262.585" height="36.2187" fill="white"/>
</clipPath>
</defs>
</svg>
