<svg width="48" height="48" viewBox="0 0 48 48" fill="none" xmlns="http://www.w3.org/2000/svg">
  <path
    d="M23.9838 0C10.9631 0 0 10.5562 0 23.5815V48L23.9792 47.9769C36.9999 47.9769 47.5607 37.0138 47.5607 23.9931C47.5607 10.9724 36.9907 0 23.9838 0Z"
    fill="#002825" />
  <path
    d="M24.2152 9.12744C19.0651 9.13048 14.2965 11.8428 11.6617 16.2678C9.02679 20.6927 8.9143 26.1776 11.3655 30.7069L8.7207 39.2147L18.2181 37.0693C23.6566 39.5195 30.0385 38.419 34.3422 34.2887C38.646 30.1585 40.008 23.8273 37.7834 18.2925C35.5588 12.7578 30.1941 9.13035 24.229 9.12744H24.2152Z"
    fill="#EFBF81" />
  <path
    d="M35.6441 32.7894C31.4925 38.0267 24.3167 39.7796 18.2181 37.0462L8.7207 39.2194L18.3891 38.0773C24.7986 41.832 33.0052 40.18 37.4627 34.2378C41.9202 28.2956 41.2099 19.9547 35.8117 14.8518C39.8647 20.1657 39.7957 27.5522 35.6441 32.7894Z"
    fill="#B57017" />
  <path
    d="M34.8265 30.0128C31.2445 35.6547 24.2912 38.1473 17.9406 36.066L8.7207 39.2194L18.2181 37.0693C24.982 40.1247 32.962 37.6237 36.7721 31.2542C40.5822 24.8847 39.0117 16.6708 33.1207 12.1561C37.706 17.0178 38.4084 24.3709 34.8265 30.0128Z"
    fill="#F5DAB7" />
  <path
    d="M12.2394 31.0306C9.59243 24.65 11.7738 17.2875 17.4694 13.3788C23.165 9.47009 30.8194 10.0825 35.821 14.8471C31.1887 8.76815 22.6552 7.28432 16.2429 11.4428C9.8305 15.6014 7.70461 23.998 11.3655 30.7069L8.7207 39.2147L12.2394 31.0306Z"
    fill="#F5DAB7" />
  <path
    d="M11.3649 30.7068C8.08047 24.6401 9.48522 17.1029 14.7346 12.6267C19.984 8.1505 27.6485 7.95428 33.12 12.156C27.8714 6.62938 19.2569 6.0638 13.3307 10.8568C7.40456 15.6497 6.15632 24.192 10.4633 30.4802L8.7247 39.2193L11.3649 30.7068Z"
    fill="#B57017" />
</svg>