<svg width="48" height="48" viewBox="0 0 48 48" fill="none" xmlns="http://www.w3.org/2000/svg">
  <path
    d="M40.634 9.10855C37.5747 7.66973 34.294 6.60968 30.8638 6.00255C30.8013 5.99083 30.7389 6.02011 30.7067 6.07868C30.2848 6.84784 29.8175 7.85128 29.4902 8.63998C25.8008 8.07385 22.1304 8.07385 18.5166 8.63998C18.1893 7.83375 17.705 6.84784 17.2811 6.07868C17.249 6.02207 17.1866 5.99278 17.1241 6.00255C13.6958 6.60774 10.4151 7.66779 7.35387 9.10855C7.32737 9.12026 7.30465 9.1398 7.28958 9.16516C1.06678 18.694 -0.6379 27.9886 0.19836 37.168C0.202144 37.2129 0.22674 37.2558 0.260796 37.2831C4.36642 40.3735 8.34341 42.2496 12.2466 43.4932C12.309 43.5127 12.3752 43.4893 12.415 43.4366C13.3383 42.1442 14.1613 40.7816 14.867 39.3486C14.9086 39.2647 14.8688 39.1651 14.7837 39.1319C13.4783 38.6243 12.2352 38.0055 11.0395 37.3027C10.9449 37.2461 10.9373 37.1074 11.0243 37.041C11.2759 36.8478 11.5276 36.6467 11.7679 36.4437C11.8114 36.4066 11.872 36.3988 11.9231 36.4222C19.7786 40.0983 28.2831 40.0983 36.0459 36.4222C36.097 36.3968 36.1576 36.4046 36.203 36.4417C36.4433 36.6447 36.6949 36.8478 36.9484 37.041C37.0354 37.1074 37.0298 37.2461 36.9352 37.3027C35.7394 38.0191 34.4964 38.6243 33.189 39.13C33.1039 39.1632 33.0661 39.2647 33.1077 39.3486C33.8285 40.7796 34.6515 42.1422 35.5578 43.4346C35.5956 43.4893 35.6637 43.5127 35.7262 43.4932C39.6483 42.2496 43.6252 40.3735 47.7309 37.2831C47.7668 37.2558 47.7895 37.2148 47.7933 37.1699C48.7942 26.5576 46.117 17.3392 40.6964 9.1671C40.6832 9.1398 40.6605 9.12026 40.634 9.10855ZM16.04 31.5787C13.675 31.5787 11.7263 29.3532 11.7263 26.6201C11.7263 23.8869 13.6372 21.6614 16.04 21.6614C18.4617 21.6614 20.3916 23.9065 20.3538 26.6201C20.3538 29.3532 18.4428 31.5787 16.04 31.5787ZM31.9895 31.5787C29.6245 31.5787 27.6758 29.3532 27.6758 26.6201C27.6758 23.8869 29.5867 21.6614 31.9895 21.6614C34.4113 21.6614 36.3411 23.9065 36.3033 26.6201C36.3033 29.3532 34.4113 31.5787 31.9895 31.5787Z"
    fill="#002825" />
</svg>