<svg width="33" height="30" viewBox="0 0 33 30" fill="none" xmlns="http://www.w3.org/2000/svg">
<path d="M31.8331 14.2612L20.9444 13.6247C20.1684 13.5743 19.4358 13.2492 18.8776 12.7077C18.3195 12.1662 17.9723 11.4437 17.8984 10.6696L16.9437 0.599377C16.9136 0.431335 16.8254 0.279183 16.6945 0.169615C16.5636 0.0600474 16.3983 0 16.2276 0C16.0569 0 15.8916 0.0600474 15.7607 0.169615C15.6298 0.279183 15.5416 0.431335 15.5115 0.599377L14.5341 10.6696C14.4692 11.4471 14.1249 12.1748 13.5649 12.7181C13.0049 13.2614 12.2671 13.5835 11.488 13.6247L0.599378 14.3067C0.431335 14.3368 0.279184 14.4249 0.169616 14.5558C0.0600474 14.6868 0 14.8521 0 15.0228C0 15.1935 0.0600474 15.3588 0.169616 15.4897C0.279184 15.6206 0.431335 15.7087 0.599378 15.7388L11.488 16.3753C12.2625 16.4302 12.9926 16.7568 13.5499 17.2974C14.1071 17.8381 14.4557 18.558 14.5341 19.3305L15.4888 29.4007C15.5188 29.5687 15.6071 29.7209 15.738 29.8305C15.8689 29.94 16.0341 30 16.2048 30C16.3756 30 16.5408 29.94 16.6717 29.8305C16.8026 29.7209 16.8908 29.5687 16.9209 29.4007L17.8757 19.3305C17.9496 18.5563 18.2967 17.8339 18.8549 17.2924C19.413 16.7509 20.1458 16.4257 20.9218 16.3753L31.8331 15.6933C32.0011 15.6633 32.1533 15.5751 32.2628 15.4442C32.3724 15.3132 32.4324 15.148 32.4324 14.9773C32.4324 14.8066 32.3724 14.6413 32.2628 14.5104C32.1533 14.3795 32.0011 14.2913 31.8331 14.2612Z" fill="#EF9C32"/>
</svg>
