<svg width="226" height="84" viewBox="0 0 226 84" fill="none" xmlns="http://www.w3.org/2000/svg">
<path fill-rule="evenodd" clip-rule="evenodd" d="M17.744 21.9311C22.5399 27.7461 27.8057 35.0515 28.6575 36.2332C28.7029 36.2962 28.7358 36.3419 28.7553 36.3689C29.2093 36.9958 29.5841 37.4618 29.8688 37.8157C30.5007 38.6013 30.6882 38.8345 30.3112 39.0487C30.0071 39.2214 29.6933 39.2783 29.3803 39.2783C29.0262 39.2783 28.6272 39.108 28.3367 38.8327C28.1314 38.6382 26.7265 36.5998 24.8134 33.6344C23.3497 31.3654 22.1247 29.4831 22.0912 29.4516C22.014 29.3787 22.0153 29.3812 24.6642 34.1159C26.3274 37.0891 27.4652 39.2861 27.4652 39.4267C27.4652 39.7126 27.3871 39.8629 27.034 40.2563C26.4455 40.9124 26.1823 41.6494 25.9924 43.1747C25.7795 44.8845 25.1808 46.0925 23.5215 48.1596C22.5503 49.3698 22.3914 49.5915 22.1463 50.0793C21.8376 50.6935 21.7527 51.0375 21.7183 51.8131C21.6819 52.6332 21.7528 53.1629 22.0035 53.9468C22.2231 54.6332 22.4523 55.0866 23.0381 55.9929C23.5437 56.7752 23.8348 57.3566 23.8348 57.5841C23.8348 57.7651 23.8694 57.7653 24.6529 57.5886C26.5278 57.1655 28.0502 56.4218 28.9065 55.5101C29.4364 54.9457 29.5608 54.6342 29.5648 53.861C29.5675 53.3552 29.5497 53.2493 29.4128 52.9584C29.19 52.4846 28.7845 52.091 27.8906 51.4806C26.7194 50.6806 26.2192 50.0368 26.081 49.1512C25.9676 48.4247 26.0991 47.9119 26.7471 46.5554C27.4177 45.1512 27.5839 44.5528 27.6963 43.1373C27.7689 42.2228 27.8695 41.8622 28.1325 41.5728C28.4068 41.271 28.6537 41.1687 29.3325 41.0759C30.4392 40.925 31.1438 40.639 31.7231 40.1057C32.2256 39.6432 32.4358 39.1974 32.4681 38.5265L32.4926 38.0179L32.2118 37.6908C31.1949 36.5063 17.063 21 17.0004 21C16.987 21 17.3216 21.419 17.744 21.9311ZM24.4057 52.741C24.6356 52.3341 24.5134 51.8113 24.1288 51.5557C23.7655 51.3144 23.201 51.4281 23.201 51.7427C23.201 51.8386 23.2541 51.9084 23.3739 51.9701C23.5755 52.0738 23.5901 52.1903 23.4315 52.4284C23.2708 52.6698 23.2838 52.8818 23.4681 53.0258C23.7651 53.2582 24.1855 53.1305 24.4057 52.741ZM31.326 30.5589C30.8723 30.4886 30.8532 30.4803 31.0667 30.4476C31.4758 30.3847 32.4419 30.4704 33.1076 30.6285C34.6618 30.9976 36.076 31.943 37.5856 33.6221L37.9866 34.0682L38.5604 33.976C40.9774 33.588 43.4362 33.8964 45.4928 34.8455C46.0586 35.1066 46.9506 35.6263 47.062 35.7599C47.0974 35.8025 47.1628 36.0765 47.2068 36.3689C47.3596 37.3804 47.2832 38.1558 46.9734 38.7349C46.805 39.0501 46.7956 39.1499 46.9088 39.4197C46.9992 39.6348 47.2514 39.7941 47.5012 39.7938C48.0122 39.7931 48.5622 38.9678 48.8172 37.8194L48.9184 37.3632L49.119 37.5902C50.219 38.8354 51.0832 40.5335 51.2316 41.7422L51.2702 42.0573L51.0854 41.7708C50.767 41.2779 50.4474 40.9422 50.0378 40.6716C49.2998 40.1837 48.5192 40.0176 46.4524 39.9088C44.5856 39.8105 43.5292 39.6512 42.4816 39.31C40.699 38.7294 39.8006 37.9562 37.6832 35.1811C36.7428 33.9485 36.1615 33.2665 35.5833 32.7173C34.2695 31.4694 32.9785 30.8149 31.326 30.5589ZM47.483 33.311C47.53 32.485 47.6422 31.9402 47.8676 31.4427C47.9568 31.2458 48.0404 31.0846 48.0532 31.0846C48.0662 31.0846 48.0274 31.23 47.967 31.4076C47.8032 31.8905 47.7762 32.5509 47.8892 33.3193C48.0324 34.2942 48.114 34.4349 49.1454 35.488C49.6292 35.982 50.192 36.605 50.396 36.8725L50.767 37.3588L50.396 37.0113C49.9424 36.5862 48.8992 35.7573 48.6688 35.6388C48.5142 35.5593 48.4912 35.5607 48.396 35.6554C48.3082 35.7428 48.2896 35.874 48.2774 36.4943C48.2584 37.4611 48.1266 38.0817 47.8082 38.7022C47.636 39.0378 47.6088 38.9661 47.7646 38.5873C47.881 38.3045 47.8928 38.1802 47.892 37.2442C47.8902 35.3637 47.6666 34.9117 46.356 34.1372C46.0242 33.941 45.477 33.6581 45.1404 33.5084C44.804 33.3587 44.5366 33.2284 44.5462 33.2186C44.5834 33.1817 45.8616 33.5544 46.376 33.7521C47.1412 34.0462 47.2674 34.0843 47.3604 34.0488C47.4226 34.025 47.4528 33.8438 47.483 33.311ZM30.8398 31.8673C30.7164 33.3192 31.2862 35.2613 32.2072 36.528C32.9212 37.5099 34.0279 38.273 34.845 38.3467C35.38 38.3949 35.5408 38.2276 35.2987 37.8745C34.9627 37.3843 34.5494 36.6294 34.4401 36.3062C34.3721 36.1055 34.2245 35.5124 34.112 34.9884C33.7278 33.1992 33.3502 32.5025 32.4779 31.9733C32.16 31.7804 31.4812 31.528 31.0876 31.4563L30.8779 31.418L30.8398 31.8673ZM46.366 45.9554C42.0618 44.2242 40.5458 42.7215 40.5458 40.186C40.5458 39.8128 40.5588 39.5075 40.5744 39.5075C40.5902 39.5075 40.7566 39.6307 40.9444 39.7812C41.8172 40.4805 42.7946 40.7792 45.5004 41.1737C47.0924 41.4057 47.9884 41.593 48.815 41.867C51.442 42.7373 53.0674 44.5035 53.455 46.9095C53.5676 47.6085 53.5016 48.9194 53.319 49.6103C53.1748 50.156 52.7348 51.1395 52.6182 51.1773C52.5858 51.1878 52.554 51.064 52.5458 50.8954C52.5016 49.9921 52.0446 49.1126 51.2772 48.4537C50.4046 47.7046 49.2322 47.1084 46.366 45.9554ZM43.1364 45.7649C43.1968 45.9448 43.2904 46.354 43.3442 46.6747C43.689 48.7243 42.612 50.3804 40.517 51.022C40.2952 51.0899 39.4216 51.2608 38.5756 51.4014C36.8631 51.6863 36.0987 51.888 35.3309 52.2575C34.7863 52.5196 34.1271 52.9121 34.1662 52.951C34.1789 52.9637 34.3032 52.934 34.4424 52.8852C35.4107 52.5455 36.4883 52.3697 38.1256 52.2846C38.7754 52.251 39.5144 52.1972 39.768 52.1654C41.2266 51.9818 42.2376 51.5391 43.0238 50.7398C43.4612 50.2949 43.722 49.8805 43.9322 49.2962C44.0654 48.9257 44.0834 48.7878 44.0844 48.1311C44.0856 47.4619 44.0694 47.3395 43.925 46.9278C43.736 46.3882 43.513 45.9833 43.2306 45.6666L43.0266 45.438L43.1364 45.7649ZM45.3174 50.1752C44.7454 48.9471 44.6142 47.7614 44.9274 46.6557C44.961 46.5374 45.0148 46.4407 45.0474 46.4407C45.0798 46.4407 45.2146 46.5136 45.3472 46.6027C45.6106 46.7799 46.1392 47.0784 47.5472 47.8453C49.3044 48.8023 50.3062 49.5432 50.9874 50.3901C51.584 51.1314 51.9532 51.9759 52.1308 53.0056C52.2316 53.589 52.1726 54.9926 52.0228 55.5799C51.5504 57.432 50.4524 58.8866 48.8864 59.7356C48.657 59.8598 48.451 59.9619 48.4286 59.9625C48.4064 59.9629 48.49 59.7506 48.6144 59.4905C49.1412 58.3903 49.2012 57.3202 48.803 56.1292C48.559 55.3999 48.0618 54.51 47.0578 53.0058C45.8906 51.2572 45.6044 50.7918 45.3174 50.1752ZM34.5455 54.2034C32.7352 54.4971 30.7479 55.4541 29.1506 56.8013L28.6751 57.2025L29.093 57.2678C31.2738 57.6078 31.861 57.9095 33.3737 59.4662C34.2443 60.3619 34.5383 60.5612 35.2603 60.7454C36.3208 61.0158 37.3662 60.5189 37.7248 59.5738C37.885 59.1515 37.8636 58.4522 37.6798 58.1009C37.2426 57.265 35.9688 56.9948 35.3529 57.6072C34.8399 58.1174 34.9893 58.8858 35.6274 59.018C35.7735 59.0484 35.7693 59.0419 35.5902 58.961C35.3109 58.8348 35.1896 58.6599 35.1881 58.3816C35.1845 57.7291 35.932 57.3627 36.6274 57.676C37.1366 57.9057 37.3388 58.2056 37.3388 58.7313C37.3388 59.541 36.649 60.151 35.8463 60.0513C35.4173 59.9979 34.8925 59.7237 34.6112 59.4059C33.9032 58.6063 34.179 57.3443 35.1675 56.8601C35.92 56.4916 36.9203 56.5824 37.696 57.0897C38.5872 57.6729 38.9662 58.2058 39.7338 59.9548C39.9838 60.5243 40.3054 61.1653 40.4484 61.3792C41.1756 62.4667 42.0468 63 43.0962 63C43.675 63 44.1104 62.8944 44.6582 62.6212C45.0652 62.4181 45.6422 62.0321 45.6006 61.9908C45.5888 61.9791 45.42 62.0315 45.2254 62.1073C44.0796 62.5537 42.9148 62.5231 42.2384 62.0284C41.8124 61.717 41.4688 61.0967 41.2922 60.3209C41.2616 60.1866 41.1608 59.5936 41.068 59.0029C40.8328 57.5059 40.607 56.833 40.0804 56.0608C39.5416 55.2707 38.5058 54.6077 37.3478 54.3116C36.6253 54.1268 35.3256 54.0766 34.5455 54.2034ZM32.0101 42.6291C32.1664 42.0523 32.6715 41.5022 33.191 41.3428C33.5214 41.2415 34.2042 41.3062 34.5253 41.4692C35.1475 41.7853 35.5992 42.5051 35.5012 43.0247C35.3817 43.6583 34.3531 44.1653 33.17 44.1736C32.5657 44.1777 32.3425 44.0966 32.1117 43.7889C31.9689 43.5982 31.9147 42.981 32.0101 42.6291ZM34.3664 41.6951C34.6767 41.8844 34.7565 42.1643 34.5741 42.4232C34.4484 42.6016 34.0593 42.7711 33.775 42.7711C33.3479 42.7711 32.8819 42.4681 32.8819 42.1906C32.8819 41.633 33.7755 41.3345 34.3664 41.6951ZM127.107 43.2916C126.141 40.1163 127.733 37.4825 131.129 36.6361C132.104 36.3933 136.514 36.5029 137.27 36.7888C137.547 36.8935 137.668 37.2957 137.671 38.1222C137.672 38.773 137.744 39.5635 137.83 39.8788C137.96 40.3566 137.884 40.4506 137.374 40.443C136.913 40.4359 136.634 40.1686 136.245 39.36C135.623 38.0684 134.87 37.6576 133.115 37.6527C130.875 37.6464 129.236 39.138 129.503 40.9403C129.677 42.113 130.862 43.267 133.521 44.8535C136.05 46.3625 137.527 47.6036 138.115 48.7154C139.688 51.6881 138.345 54.8692 134.84 56.472C133.041 57.2947 130.025 57.3797 127.905 56.6676L126.548 56.2115V54.0661C126.548 52.1232 126.595 51.9203 127.042 51.9203C127.417 51.9203 127.579 52.1652 127.71 52.9323C128.037 54.8397 129.503 55.9977 131.59 55.9977C133.635 55.9977 135.065 54.8927 135.612 52.8891C135.845 52.0356 135.805 51.7209 135.343 50.7793C134.788 49.6505 133.833 48.9014 130.591 47.0515C128.792 46.0249 127.52 44.6523 127.107 43.2916ZM63.5504 37.9037C63.108 37.9037 62.9356 37.7608 62.9356 37.3941C62.9356 36.9086 63.108 36.8844 66.5746 36.8844C69.7922 36.8844 70.2042 36.9323 70.1302 37.2975C70.0842 37.5248 69.6394 37.84 69.1416 37.9983L68.2366 38.286L68.1592 44.7846C68.1076 49.1209 68.1802 51.6224 68.3778 52.3024C68.9648 54.325 70.7552 55.4881 73.2816 55.4881C75.0404 55.4881 76.0678 55.0814 77.3588 53.8736C78.747 52.5752 78.9684 51.3415 78.964 44.9294C78.9598 38.6046 78.8484 38.0826 77.475 37.9514C76.85 37.8915 76.6406 37.7475 76.6406 37.378C76.6406 36.9172 76.847 36.8844 79.7436 36.8844C82.6742 36.8844 82.8466 36.9127 82.8466 37.3941C82.8466 37.708 82.673 37.9053 82.3942 37.9075C81.1964 37.918 81.1744 38.0307 81.0134 44.966C80.846 52.1683 80.6898 53.0209 79.214 54.7851C78.7884 55.2941 77.7734 56.0331 76.9586 56.4275C75.6308 57.0702 75.2086 57.1441 72.8912 57.1398C70.755 57.1354 70.0806 57.0334 69.0124 56.5525C67.453 55.8505 66.4392 54.942 65.6916 53.5767C65.1698 52.6237 65.125 52.108 65.0042 45.651C64.866 38.26 64.799 37.9037 63.5504 37.9037ZM87.7476 37.9037C87.1566 37.9037 86.984 37.7885 86.984 37.3941C86.984 36.9162 87.1494 36.8856 89.6346 36.9053L92.285 36.9262L93.5532 38.3706C94.2504 39.165 96.523 41.65 98.6034 43.8927C100.684 46.1352 103.072 48.7441 103.911 49.6902C104.749 50.6365 105.539 51.4105 105.665 51.4105C105.795 51.4105 105.859 48.7378 105.813 45.2718L105.732 39.1331L105.006 38.5185C104.607 38.1803 103.996 37.9037 103.648 37.9037C103.186 37.9037 103.016 37.7651 103.016 37.3869C103.016 36.8892 103.149 36.8726 106.572 36.9409C109.483 36.999 110.128 37.0793 110.128 37.3836C110.128 37.6005 109.768 37.8281 109.263 37.9298C108.788 38.0256 108.264 38.2366 108.099 38.3987C107.887 38.6079 107.779 41.3131 107.726 47.7278L107.652 56.7622H106.903C106.258 56.7622 105.49 56.0441 101.383 51.6016C98.76 48.7631 95.698 45.3897 94.5788 44.1052C93.4594 42.8204 92.4562 41.7596 92.3498 41.7479C92.0496 41.7147 92.1222 53.1926 92.4292 54.2821C92.6686 55.1311 92.833 55.2773 93.85 55.5455C94.669 55.7613 95.0002 55.9803 95.0002 56.3054C95.0002 56.723 94.6882 56.7622 91.38 56.7622C88.0128 56.7622 87.7598 56.729 87.7598 56.2845C87.7598 55.9591 88.0034 55.7587 88.524 55.656C90.1028 55.3449 90.2076 54.851 90.2964 47.3007C90.346 43.072 90.273 40.1133 90.1036 39.4938C89.806 38.4043 89.0644 37.9037 87.7476 37.9037ZM114.862 37.9037C114.308 37.9037 114.136 37.7827 114.136 37.3941C114.136 36.907 114.308 36.8844 118.014 36.8844C121.721 36.8844 121.893 36.907 121.893 37.3941C121.893 37.7679 121.721 37.9037 121.247 37.9037C120.891 37.9037 120.363 38.1377 120.073 38.4237C119.561 38.9285 119.547 39.1795 119.62 46.9819C119.691 54.5984 119.722 55.0391 120.197 55.3815C120.473 55.5803 120.968 55.7429 121.296 55.7429C121.721 55.7429 121.893 55.8901 121.893 56.2526C121.893 56.7396 121.721 56.7622 118.014 56.7622C114.396 56.7622 114.136 56.7301 114.136 56.2853C114.136 55.9264 114.39 55.7682 115.16 55.6466C116.69 55.4054 116.769 54.9117 116.673 46.1016C116.597 39.0462 116.564 38.6063 116.09 38.2651C115.814 38.0663 115.262 37.9037 114.862 37.9037ZM141.919 37.9037C141.565 37.9037 141.296 37.7098 141.212 37.3941C141.082 36.9012 141.204 36.8844 144.932 36.8844C148.614 36.8844 148.786 36.907 148.786 37.3941C148.786 37.7858 148.614 37.9037 148.042 37.9037C146.414 37.9037 146.451 38.1953 148.914 44.86C150.168 48.2526 151.386 51.4752 151.62 52.0214L152.045 53.0145L154.02 47.8164C156.345 41.6977 156.647 40.5661 156.253 39.4501C155.977 38.6723 154.907 37.9037 154.1 37.9037C153.872 37.9037 153.699 37.6846 153.699 37.3941C153.699 36.9063 153.872 36.8844 157.707 36.8844C161.543 36.8844 161.716 36.9063 161.716 37.3941C161.716 37.7567 161.543 37.9037 161.118 37.9037C160.031 37.9037 159.552 38.4751 159.708 39.5852C159.869 40.728 164.316 53.0096 164.503 52.8258C164.806 52.527 169.732 39.3056 169.732 38.7904C169.732 38.1729 169.293 37.9037 168.288 37.9037C167.835 37.9037 167.663 37.7633 167.663 37.3941C167.663 36.9127 167.835 36.8844 170.766 36.8844C173.398 36.8844 173.869 36.9445 173.869 37.2799C173.869 37.4976 173.547 37.7863 173.153 37.9216C172.266 38.2261 172.043 38.5737 170.932 41.3895C170.443 42.626 168.915 46.4958 167.535 49.9887C166.156 53.482 164.967 56.4924 164.895 56.6785C164.822 56.8648 164.395 57.0172 163.945 57.0172H163.126L161.269 52.2387C160.247 49.6109 159.04 46.4974 158.587 45.3201C157.81 43.3027 157.744 43.215 157.452 43.7908C157.281 44.1273 156.054 47.2463 154.724 50.7222L152.307 57.0421L151.405 56.9659L150.503 56.8898L147.062 47.9901C145.139 43.0178 143.371 38.8283 143.055 38.497C142.744 38.1706 142.233 37.9037 141.919 37.9037ZM193.624 38.0118C193.58 37.915 193.581 37.5671 193.581 37.5671C193.581 37.5671 193.571 37.4416 193.624 37.3747C193.677 37.308 193.696 37.3062 193.886 37.2883L193.888 37.2881C194.586 37.2225 195.987 37.1119 197.156 37.0615C197.263 37.0568 197.383 37.0514 197.514 37.0456L197.515 37.0455L197.516 37.0455C198.803 36.9878 201.105 36.9105 202.688 36.9887C205.723 37.1388 207.883 38.5902 208.619 40.9887C209.355 43.3871 208.966 45.6385 207.962 47.0717C206.959 48.5048 205.273 49.7387 202.469 49.6584C200.155 49.5921 199.535 49.1635 199.041 48.8211C198.936 48.7487 198.837 48.68 198.729 48.6197V51.6784C198.753 53.7644 198.771 54.7663 198.934 55.1372C199.154 55.6365 199.651 55.9441 200.621 56.1798C200.621 56.1798 201.059 56.2815 201.172 56.3899C201.285 56.4983 201.285 56.739 201.285 56.739C201.285 56.739 201.309 56.9641 201.218 57.0789C201.127 57.1936 200.951 57.1707 200.951 57.1707L196.659 57.1364L194.072 57.1297C194.072 57.1297 193.8 57.1813 193.698 57.0731C193.596 56.9649 193.606 56.7396 193.606 56.7396C193.606 56.7396 193.628 56.4969 193.747 56.3883C193.866 56.2797 194.307 56.1581 194.307 56.1581C195.306 55.881 195.738 55.5878 195.964 55.0355C196.147 54.5905 196.148 53.7646 196.146 47.0268C196.144 40.637 196.135 39.4451 195.987 39.1023C195.767 38.5949 195.218 38.4604 194.437 38.269C194.282 38.2311 194.118 38.1908 193.945 38.145C193.945 38.145 193.667 38.1086 193.624 38.0118ZM206.121 43.2257C206.121 44.2735 206.102 45.9139 204.974 46.9625C203.846 48.011 201.626 48.2981 200.118 48.0061C199.643 47.9141 199.372 47.7723 199.162 47.6629L199.141 47.652L198.755 47.451L198.733 43.7697C198.719 41.4631 198.743 39.9603 198.798 39.7454C198.849 38.5292 200.662 38.3779 201.549 38.4229C205.341 38.4229 206.01 41.5827 206.121 43.2257ZM181.575 37.0806C181.495 37.111 181.383 37.1529 181.25 37.2027L180.238 37.7199L179.509 39.5201C179.108 40.5101 178.375 42.3277 177.879 43.559C176.977 45.8017 176.381 47.2752 175.754 48.8131C175.569 49.2655 175.012 50.643 174.516 51.8744C174.019 53.1055 173.523 54.2773 173.413 54.4783C173.395 54.5117 173.376 54.5477 173.355 54.5859C173.078 55.1016 172.596 55.9977 171.744 56.1332C171.744 56.1332 171.276 56.1786 171.103 56.348C170.929 56.5175 170.946 56.656 170.946 56.656V56.8694C170.946 56.8694 170.962 56.9728 171.06 57.0243C171.158 57.0759 171.291 57.0789 171.291 57.0789L174.406 57.0439H177.625C177.625 57.0439 177.852 57.0702 177.94 56.9982C178.028 56.9262 178.052 56.8193 178.052 56.8193V56.5946C178.052 56.5946 178.007 56.3509 177.88 56.2558C177.752 56.1608 177.274 56.0958 177.274 56.0958C175.986 55.9282 175.764 54.9643 175.923 54.0975C176.001 53.6717 176.519 52.0963 177.102 50.5103L177.304 49.9622L180.677 49.9367C182.532 49.9226 184.133 49.9321 184.236 49.9578C184.382 49.9944 184.587 50.4061 185.189 51.8722C186.101 54.0936 186.173 54.3642 185.972 54.7798C185.959 54.8051 185.946 54.833 185.932 54.863C185.743 55.265 185.375 56.0459 184.448 56.1254C184.448 56.1254 183.956 56.1423 183.834 56.2876C183.712 56.4332 183.738 56.6006 183.738 56.6006V56.8229C183.738 56.8229 183.771 56.9533 183.834 57.0049C183.897 57.0565 184.004 57.0435 184.004 57.0435L187.066 57.0217L191.369 57.0215C191.369 57.0215 191.538 57.0393 191.584 56.9752C191.63 56.9109 191.639 56.8354 191.639 56.8354V56.54C191.639 56.54 191.62 56.383 191.538 56.2963C191.455 56.2099 190.897 56.1185 190.897 56.1185C190.184 56.0048 189.829 55.4228 189.564 54.9894C189.497 54.8789 189.436 54.778 189.375 54.6971C189.253 54.5319 188.815 53.6268 188.473 52.7562C188.13 51.8857 187.357 49.9191 186.754 48.3863C186.152 46.8535 185.312 44.7152 184.887 43.6348C184.462 42.5542 183.654 40.4982 183.092 39.0658C183 38.8307 182.917 38.6196 182.843 38.4306C182.466 37.4684 182.313 37.0796 182.272 37.0271C182.136 36.8565 181.716 37.0271 181.716 37.0271C181.716 37.0271 181.665 37.0467 181.575 37.0806ZM181.516 42.8803C181.38 42.5538 181.141 41.9679 180.985 41.5784C180.701 40.8704 180.593 40.7074 180.505 40.8536C180.479 40.8963 180.301 41.3802 180.108 41.9289C178.86 45.4815 178.295 47.0812 178.181 47.3826C178.11 47.5721 178.052 47.7673 178.052 47.8166C178.052 47.8732 179.067 47.9062 180.806 47.9062C182.321 47.9062 183.561 47.8876 183.561 47.8649C183.561 47.8421 183.425 47.5031 183.26 47.111C183.095 46.7192 182.691 45.7404 182.362 44.9363C182.033 44.1323 181.652 43.2071 181.516 42.8803Z" fill="#002825"/>
</svg>
