<svg width="226" height="84" viewBox="0 0 226 84" fill="none" xmlns="http://www.w3.org/2000/svg">
<path d="M200.162 45.5902C200.162 43.245 198.761 41.471 196.538 41.471C194.314 41.471 192.913 43.245 192.913 45.5902C192.913 47.9354 194.314 49.7094 196.538 49.7094C198.761 49.7094 200.162 47.9354 200.162 45.5902ZM200.04 39.9076V33.7439C200.04 33.3229 200.314 32.9922 200.71 32.8719L204 32V52.8062H200.345V51.0323C199.431 52.3552 197.756 53.137 195.685 53.137C191.42 53.137 188.953 49.7695 188.953 45.5601C188.953 41.3508 191.451 37.9833 195.685 37.9833C197.786 38.0134 199.279 38.8853 200.04 39.9076ZM177.501 38.3441V40.118C178.171 38.8853 179.694 38.0134 181.856 38.0134C185.39 38.0134 187.248 40.3285 187.248 43.7862V52.8363H183.288V44.2372C183.288 42.5535 182.557 41.3809 180.79 41.3809C178.871 41.3809 177.805 42.5835 177.805 44.5379V52.8363H173.846V38.3742H177.501V38.3441ZM164.556 53.167C160.261 53.167 157.885 51.333 157.885 46.6425V38.3441H161.845V46.7027C161.845 48.7171 162.758 49.6492 164.525 49.6492C166.292 49.6492 167.205 48.7171 167.205 46.7027V38.3441H171.165V46.6425C171.196 51.333 168.82 53.167 164.556 53.167ZM144.757 45.5902C144.757 48.176 146.372 49.7094 148.473 49.7094C150.575 49.7094 152.189 48.176 152.189 45.5902C152.189 43.0045 150.575 41.471 148.473 41.471C146.402 41.471 144.757 42.9744 144.757 45.5902ZM148.473 53.167C143.783 53.167 140.767 49.7094 140.767 45.5902C140.767 41.4711 143.752 38.0134 148.473 38.0134C153.164 38.0134 156.179 41.4711 156.179 45.5902C156.179 49.7094 153.194 53.167 148.473 53.167ZM128.675 45.5902C128.675 47.9354 130.076 49.7094 132.299 49.7094C134.523 49.7094 135.924 47.9354 135.924 45.5902C135.924 43.245 134.523 41.471 132.299 41.471C130.076 41.471 128.675 43.245 128.675 45.5902ZM128.797 51.2728V57.2862C128.797 57.7071 128.523 58.0379 128.127 58.1581L124.837 59V38.3441H128.492V40.118C129.406 38.7951 131.081 38.0134 133.152 38.0134C137.417 38.0134 139.884 41.3809 139.884 45.5902C139.884 49.7996 137.386 53.167 133.152 53.167C131.051 53.167 129.558 52.265 128.797 51.2728ZM113.019 44.598V52.8363H109.059V44.2372C109.059 42.6437 108.48 41.3809 106.714 41.3809C104.856 41.3809 103.851 42.5535 103.851 44.5078V52.8363H99.891V38.3441H103.546V40.118C104.216 38.8853 105.678 38.0134 107.78 38.0134C109.76 38.0134 111.191 38.7951 112.044 40.0579C113.323 38.6448 114.816 38.0134 116.918 38.0134C120.451 38.0134 122.248 40.4187 122.248 43.7862V52.8363H118.288V44.2372C118.288 42.6437 117.71 41.3809 115.943 41.3809C113.994 41.3809 113.019 42.5835 113.019 44.598ZM86.6109 45.5902C86.6109 48.176 88.2252 49.7094 90.3269 49.7094C92.4286 49.7094 94.0429 48.176 94.0429 45.5902C94.0429 43.0045 92.4286 41.471 90.3269 41.471C88.2252 41.471 86.6109 42.9744 86.6109 45.5902ZM90.3269 53.167C85.6362 53.167 82.6208 49.7094 82.6208 45.5902C82.6208 41.4711 85.6057 38.0134 90.3269 38.0134C95.048 38.0134 98.033 41.4711 98.033 45.5902C98.033 49.7094 95.0176 53.167 90.3269 53.167ZM62 42.9744C62 36.8408 66.2947 32.7817 71.9906 32.7817C76.9554 32.7817 80.8541 35.6682 81.6156 40.4488H77.26C76.6813 37.9833 74.671 36.6002 71.9906 36.6002C68.3659 36.6002 66.2947 39.0958 66.2947 42.9443C66.2947 46.8229 68.3355 49.2884 71.9906 49.2884C74.6405 49.2884 76.6508 47.9054 77.26 45.4399H81.6156C80.8541 50.2205 76.9554 53.1069 71.9906 53.1069C66.2947 53.1971 62 49.108 62 42.9744Z" fill="#002825"/>
<path d="M22.6536 53.912C21.6431 53.2979 21 52.1617 21 50.9949V44.3316C21 44.0859 21.0612 43.8403 21.1837 43.6253C21.5818 42.9498 22.4699 42.7041 23.1435 43.1033L38.1483 51.8854C39.0364 52.4074 39.5569 53.3286 39.5569 54.3726V61.2815C39.5569 61.5886 39.4651 61.8957 39.312 62.172C38.822 62.9704 37.7502 63.2467 36.9541 62.7554L22.6536 53.912ZM45.0383 41.2609C45.9263 41.783 46.4469 42.7041 46.4469 43.7482V57.781C46.4469 58.2109 46.2325 58.5794 45.8651 58.7943L42.5885 60.6367C42.5579 60.6674 42.4966 60.6674 42.466 60.6981V52.9294C42.466 51.9161 41.9455 50.9949 41.088 50.4729L27.9206 42.5813V33.7072C27.9206 33.4615 27.9818 33.2159 28.1043 33.0009C28.5024 32.3254 29.3904 32.0797 30.0641 32.4789L45.0383 41.2609ZM51.5914 30.8822C52.4794 31.4042 53 32.3254 53 33.3694V53.8506C53 54.2805 52.755 54.6489 52.3876 54.8639L49.2641 56.5527V42.305C49.2641 41.2916 48.7435 40.3705 47.8861 39.8484L34.4124 31.742V23.4205C34.4124 23.1749 34.4737 22.9292 34.5962 22.7143C34.9943 22.0387 35.8823 21.7931 36.556 22.1923L51.5914 30.8822Z" fill="#002825"/>
</svg>
