<svg width="226" height="84" viewBox="0 0 226 84" fill="none" xmlns="http://www.w3.org/2000/svg">
<path d="M32.8594 45.1423C35.591 45.7948 38.3928 46.1156 41.2029 46.0976C44.0164 46.1163 46.8217 45.7955 49.5567 45.1423C55.1294 46.1309 58.9205 48.0772 58.9205 50.3155C58.9205 53.5526 50.9939 56.1776 41.2132 56.1776C31.4326 56.1776 23.5034 53.5526 23.5034 50.3155C23.4931 48.0772 27.2867 46.1309 32.8594 45.1423Z" fill="#002825"/>
<path d="M34.993 35.6488C37.0292 36.1248 39.1156 36.3586 41.2079 36.3454C43.3001 36.3585 45.3865 36.1246 47.4227 35.6488C52.1564 36.4043 55.4192 37.9972 55.4192 39.8411C55.4192 42.4149 49.0593 44.5021 41.213 44.5021C33.3668 44.5021 27.0069 42.4149 27.0069 39.8411C26.9965 37.9972 30.2593 36.4043 34.993 35.6488Z" fill="#002825"/>
<path d="M41.2677 34.8805C47.1428 34.8805 51.9055 33.3005 51.9055 31.3515C51.9055 29.4024 47.1428 27.8224 41.2677 27.8224C35.3926 27.8224 30.6299 29.4024 30.6299 31.3515C30.6299 33.3005 35.3926 34.8805 41.2677 34.8805Z" fill="#002825"/>
<path d="M68.9053 53.6704V29.1951H76.7956C78.119 29.1724 79.4397 29.3213 80.7239 29.6382C81.7034 29.8783 82.6249 30.3083 83.4351 30.9033C84.1262 31.4265 84.6678 32.1184 85.007 32.9111C85.3604 33.7577 85.5366 34.6664 85.5249 35.5822C85.5266 36.1742 85.4303 36.7624 85.24 37.3237C85.048 37.8883 84.756 38.4146 84.3777 38.8782C83.9667 39.3799 83.476 39.8123 82.925 40.1587C82.2899 40.5594 81.6013 40.8706 80.8793 41.0832C82.6868 41.4349 84.0514 42.0777 84.9733 43.0116C85.8952 43.9455 86.3553 45.1756 86.3535 46.7019C86.3663 47.6767 86.1694 48.6431 85.7761 49.5369C85.3903 50.3901 84.8108 51.1438 84.0825 51.7394C83.2771 52.3873 82.3506 52.872 81.3557 53.1659C80.1601 53.521 78.9166 53.6937 77.6682 53.678L68.9053 53.6704ZM72.2535 42.5122V51.0402H77.6087C78.4405 51.0572 79.2701 50.9484 80.0687 50.7176C80.6919 50.5337 81.2689 50.2222 81.7623 49.8033C82.1971 49.4215 82.5313 48.9407 82.736 48.4024C82.9496 47.8287 83.055 47.2211 83.0467 46.6098C83.0714 46.0407 82.9619 45.4737 82.7268 44.9536C82.4918 44.4336 82.1376 43.9748 81.6924 43.6134C80.7895 42.8776 79.4222 42.5105 77.5906 42.5122H72.2535ZM72.2535 40.1535H76.6765C77.5046 40.1685 78.3306 40.065 79.1287 39.8462C79.7517 39.6751 80.3349 39.3854 80.8456 38.9934C81.2898 38.6434 81.6372 38.1879 81.8555 37.6694C82.0794 37.131 82.1912 36.5535 82.1844 35.9715C82.1844 34.5339 81.7468 33.4805 80.8715 32.8112C79.9962 32.1419 78.6376 31.8056 76.7956 31.8022H72.2535V40.1535ZM104.159 53.6627H102.794C102.545 53.6734 102.297 53.6269 102.069 53.527C101.967 53.4652 101.881 53.3803 101.818 53.2793C101.755 53.1782 101.717 53.0639 101.707 52.9456L101.362 51.3399C100.902 51.7522 100.451 52.1082 100.013 52.4437C99.5833 52.7635 99.1207 53.0382 98.6331 53.2632C98.1365 53.4917 97.6153 53.6635 97.0794 53.7754C96.4828 53.8947 95.8753 53.9522 95.2667 53.9469C94.6196 53.9515 93.9758 53.8564 93.3582 53.6652C92.7869 53.4926 92.2579 53.2049 91.8045 52.8201C91.3572 52.4259 91.0035 51.9388 90.7687 51.3937C90.4945 50.7455 90.3621 50.0473 90.3803 49.3449C90.3849 48.6485 90.5819 47.9666 90.95 47.3729C91.4095 46.6668 92.0431 46.0878 92.7911 45.6904C93.832 45.1282 94.9517 44.7225 96.1135 44.4867C97.7667 44.1427 99.4504 43.9626 101.14 43.9489V42.5993C101.14 41.2556 100.849 40.2398 100.267 39.5517C99.6853 38.8637 98.8221 38.5222 97.6776 38.5273C97.0356 38.5112 96.3958 38.6066 95.7872 38.809C95.3231 38.975 94.8772 39.187 94.4562 39.4416C94.0833 39.6746 93.7596 39.8846 93.4903 40.0741C93.2588 40.2483 92.9782 40.3468 92.6875 40.3558C92.4932 40.3601 92.3026 40.3027 92.1437 40.192C91.9912 40.0875 91.8639 39.9511 91.7708 39.7924L91.2193 38.8193C92.1219 37.9378 93.1862 37.2347 94.3552 36.7474C95.5353 36.2796 96.7973 36.0472 98.0686 36.0637C98.9616 36.0473 99.8487 36.2102 100.676 36.5426C101.407 36.841 102.061 37.2958 102.592 37.8743C103.127 38.4734 103.528 39.1777 103.768 39.941C104.041 40.8027 104.174 41.7015 104.164 42.6044L104.159 53.6627ZM96.1808 51.8034C96.6811 51.8071 97.18 51.7521 97.6672 51.6395C98.1068 51.5349 98.5326 51.3802 98.9361 51.1785C99.3393 50.975 99.721 50.7322 100.075 50.4538C100.453 50.1557 100.808 49.8304 101.137 49.4806V45.8824C99.9274 45.9092 98.721 46.0213 97.5274 46.2179C96.6956 46.346 95.8837 46.5784 95.1113 46.9094C94.5796 47.1248 94.1124 47.4713 93.7544 47.9159C93.4759 48.2924 93.3278 48.7478 93.3323 49.2143C93.3227 49.618 93.3986 50.0193 93.555 50.3923C93.6917 50.7051 93.899 50.9828 94.161 51.2041C94.4239 51.4193 94.7303 51.5764 95.0595 51.6651C95.4246 51.7652 95.802 51.8144 96.1808 51.8111V51.8034ZM112.785 28.4985V53.655H109.711V28.5139L112.785 28.4985ZM131.6 53.655H130.236C129.987 53.666 129.738 53.6195 129.511 53.5193C129.408 53.4575 129.322 53.3726 129.259 53.2716C129.196 53.1706 129.158 53.0562 129.148 52.9379L128.796 51.3476C128.335 51.7599 127.887 52.1159 127.449 52.4513C127.019 52.7701 126.556 53.0447 126.069 53.2709C125.573 53.4994 125.051 53.6712 124.515 53.7831C123.919 53.9023 123.311 53.9598 122.703 53.9546C122.056 53.9589 121.412 53.8639 120.794 53.6729C120.223 53.5003 119.694 53.2126 119.241 52.8278C118.793 52.4337 118.439 51.9466 118.205 51.4013C117.931 50.7532 117.798 50.0549 117.816 49.3526C117.82 48.656 118.017 47.9738 118.386 47.3806C118.845 46.6745 119.477 46.0955 120.225 45.698C121.267 45.1363 122.387 44.7307 123.55 44.4944C125.203 44.1504 126.887 43.9703 128.576 43.9566V42.6069C128.576 41.2633 128.285 40.2474 127.703 39.5594C127.121 38.8713 126.258 38.5299 125.114 38.535C124.472 38.5187 123.832 38.614 123.223 38.8167C122.759 38.9827 122.313 39.1946 121.892 39.4493C121.519 39.6823 121.196 39.8923 120.926 40.0818C120.695 40.2556 120.414 40.354 120.124 40.3635C119.929 40.3675 119.737 40.3101 119.577 40.1996C119.426 40.0951 119.299 39.9587 119.207 39.8001L118.655 38.8269C119.561 37.9409 120.63 37.2349 121.804 36.7474C122.984 36.2796 124.246 36.0472 125.518 36.0637C126.411 36.0475 127.298 36.2104 128.125 36.5426C128.856 36.841 129.51 37.2958 130.042 37.8743C130.576 38.4731 130.976 39.1776 131.215 39.941C131.488 40.8026 131.623 41.7014 131.613 42.6044L131.6 53.655ZM123.617 51.8111C124.116 51.815 124.614 51.7599 125.101 51.6472C125.541 51.5434 125.966 51.3887 126.37 51.1862C126.773 50.9833 127.155 50.7405 127.509 50.4615C127.887 50.1634 128.243 49.8381 128.573 49.4883V45.8824C127.363 45.9091 126.157 46.0212 124.963 46.2179C124.131 46.3457 123.318 46.578 122.545 46.9094C122.014 47.1252 121.548 47.4717 121.191 47.9159C120.911 48.2921 120.762 48.7475 120.766 49.2143C120.756 49.6183 120.832 50.0198 120.991 50.3923C121.128 50.7044 121.334 50.982 121.594 51.2041C121.858 51.4188 122.164 51.5759 122.493 51.6651C122.859 51.765 123.237 51.8142 123.617 51.8111ZM136.8 53.6704V36.3659H138.636C138.829 36.3502 139.021 36.4064 139.174 36.5234C139.328 36.6404 139.431 36.8098 139.465 36.9984L139.708 38.8756C140.441 38.0742 141.304 37.3991 142.262 36.878C143.262 36.3511 144.383 36.0866 145.517 36.1098C146.384 36.0924 147.245 36.2529 148.047 36.581C148.755 36.8756 149.382 37.3319 149.877 37.9127C150.386 38.5229 150.765 39.2285 150.991 39.9871C151.253 40.8568 151.382 41.7608 151.372 42.6684V53.6806H148.29V42.6684C148.29 41.3589 147.988 40.343 147.384 39.6209C146.779 38.8987 145.856 38.5367 144.613 38.535C143.721 38.5304 142.843 38.7545 142.065 39.1855C141.241 39.6458 140.502 40.2406 139.879 40.9449V53.6832L136.8 53.6704ZM168.486 39.439C168.409 39.5497 168.315 39.6481 168.209 39.731C168.091 39.8059 167.952 39.8418 167.812 39.8334C167.607 39.8216 167.41 39.7463 167.251 39.6183C167 39.4488 166.741 39.2924 166.474 39.1496C166.113 38.9577 165.734 38.8008 165.342 38.681C164.057 38.3298 162.689 38.4136 161.458 38.9191C160.808 39.215 160.242 39.6634 159.808 40.2252C159.341 40.843 159.001 41.5451 158.806 42.292C158.573 43.1781 158.459 44.0909 158.469 45.0066C158.456 45.9502 158.578 46.8909 158.832 47.8006C159.038 48.5411 159.384 49.2363 159.852 49.8494C160.275 50.3909 160.823 50.8239 161.45 51.1119C162.113 51.4115 162.835 51.5611 163.563 51.5499C164.19 51.5712 164.815 51.4845 165.412 51.2938C165.838 51.1463 166.244 50.9486 166.621 50.7048C166.897 50.5234 167.163 50.3268 167.416 50.1157C167.585 49.9584 167.806 49.8674 168.038 49.8596C168.153 49.8516 168.267 49.8742 168.37 49.9251C168.473 49.976 168.561 50.0533 168.623 50.149L169.488 51.2579C168.739 52.1734 167.755 52.873 166.639 53.2837C165.485 53.7119 164.262 53.9289 163.03 53.9239C161.983 53.9334 160.945 53.7294 159.982 53.3246C159.049 52.9312 158.214 52.3402 157.537 51.5934C156.812 50.7778 156.258 49.8282 155.906 48.7994C155.491 47.5839 155.289 46.3072 155.31 45.0245C155.298 43.8143 155.482 42.61 155.854 41.4571C156.186 40.4221 156.726 39.464 157.441 38.64C158.154 37.8391 159.039 37.2057 160.031 36.7859C161.143 36.3225 162.341 36.0923 163.547 36.1098C164.659 36.0901 165.763 36.2904 166.795 36.6988C167.731 37.0881 168.582 37.6544 169.299 38.366L168.486 39.439ZM180.152 36.1098C181.142 36.0964 182.127 36.2703 183.052 36.622C183.918 36.9543 184.701 37.467 185.349 38.1252C186.019 38.819 186.534 39.6444 186.861 40.5479C187.239 41.6031 187.423 42.7168 187.405 43.8362C187.434 44.1633 187.38 44.4923 187.249 44.794C187.18 44.8803 187.09 44.9476 186.987 44.9893C186.884 45.031 186.772 45.0458 186.662 45.0322H175.009C175.015 46.0026 175.172 46.9664 175.472 47.8902C175.711 48.6335 176.098 49.3216 176.612 49.9134C177.083 50.4462 177.675 50.8613 178.339 51.1248C179.054 51.4023 179.816 51.5388 180.584 51.5268C181.258 51.5428 181.93 51.4565 182.578 51.2707C183.074 51.1183 183.556 50.9264 184.02 50.6971C184.367 50.5239 184.704 50.3333 185.03 50.126C185.234 49.9764 185.476 49.8875 185.729 49.8699C185.844 49.8647 185.958 49.8886 186.061 49.9392C186.164 49.9899 186.252 50.0656 186.317 50.1593L187.18 51.2682C186.79 51.7326 186.33 52.1336 185.815 52.4565C185.281 52.795 184.71 53.0725 184.114 53.2837C183.506 53.502 182.879 53.6649 182.241 53.7702C181.608 53.8789 180.967 53.9337 180.325 53.9341C179.182 53.9462 178.047 53.7401 176.982 53.3272C175.98 52.9338 175.078 52.327 174.341 51.5499C173.564 50.7156 172.973 49.7298 172.606 48.656C172.17 47.3803 171.959 46.0403 171.982 44.6941C171.973 43.5439 172.163 42.4007 172.544 41.3137C172.894 40.3082 173.443 39.3819 174.159 38.5888C174.875 37.81 175.752 37.1925 176.731 36.7782C177.812 36.3231 178.977 36.0955 180.152 36.1098ZM180.221 38.348C178.735 38.348 177.566 38.7749 176.715 39.6285C175.864 40.4822 175.334 41.6577 175.125 43.155H184.642C184.649 42.4973 184.55 41.8427 184.347 41.2163C184.167 40.6563 183.874 40.1385 183.484 39.6951C183.101 39.2674 182.626 38.9297 182.094 38.7066C181.502 38.4559 180.865 38.3294 180.221 38.3352V38.348ZM191.874 53.6832V36.3659H193.635C193.881 36.339 194.129 36.4058 194.327 36.5528C194.477 36.7388 194.568 36.9656 194.586 37.2033L194.793 39.9C195.304 38.8052 196.064 37.8414 197.012 37.0829C197.636 36.6264 198.354 36.3127 199.116 36.1648C199.877 36.0169 200.662 36.0383 201.414 36.2276C201.796 36.3316 202.162 36.484 202.504 36.6809L202.106 38.9524C202.085 39.0763 202.019 39.1883 201.92 39.2672C201.821 39.346 201.696 39.3862 201.57 39.3801C201.316 39.3612 201.067 39.306 200.829 39.2162C200.373 39.0933 199.901 39.0389 199.428 39.0549C198.448 39.0234 197.492 39.3518 196.743 39.9768C195.933 40.7168 195.312 41.6356 194.93 42.6582V53.6704L191.874 53.6832Z" fill="#002825"/>
</svg>
