<svg width="226" height="84" viewBox="0 0 226 84" fill="none" xmlns="http://www.w3.org/2000/svg">
<path d="M35.9745 49.1216C35.121 48.2615 34.1361 47.8142 32.9543 47.8142H21.2676C21.0378 47.8142 20.8737 47.7454 20.7095 47.5734C20.5454 47.4014 20.4798 47.2294 20.4798 46.9885V45.9908C20.4798 45.7844 20.5454 45.578 20.7095 45.4404C20.8737 45.2683 21.0378 45.1995 21.2676 45.1995H36.3356C36.3684 45.1995 36.4013 45.1995 36.4341 45.1651C36.4669 45.1307 36.4669 45.0963 36.4669 45.0963V42.1376C36.4669 42.1032 36.4669 42.0688 36.4341 42.0344C36.4013 42 36.3684 42 36.3356 42H21.2676C20.0858 42 19.0682 42.4473 18.2475 43.3073C17.4268 44.1674 17 45.1995 17 46.4381V46.6445C17 47.883 17.4268 48.9151 18.2475 49.7752C19.0682 50.6353 20.0858 51.0826 21.2676 51.0826H32.9543C33.1513 51.0826 33.3483 51.1514 33.5124 51.3234C33.6766 51.461 33.7422 51.6674 33.7422 51.9083V52.906C33.7422 53.1468 33.6766 53.3188 33.5124 53.4908C33.3483 53.6284 33.1841 53.7317 32.9543 53.7317H17.8535C17.8207 53.7317 17.7879 53.7317 17.7879 53.7661C17.755 53.8005 17.755 53.8349 17.755 53.8693V56.828C17.755 56.8624 17.755 56.8968 17.7879 56.8968C17.8207 56.9312 17.8535 56.9312 17.8535 56.9312H32.9543C34.1361 56.9312 35.1538 56.4839 35.9745 55.6239C36.828 54.7638 37.222 53.7316 37.222 52.4931V52.2867C37.222 51.0138 36.828 49.9817 35.9745 49.1216ZM61.3504 42.0344H58.0676C58.0348 42.0344 58.002 42.0344 58.002 42.0688C57.9692 42.1032 57.9692 42.1032 57.9692 42.172V45.9564C57.9692 46.2661 57.805 46.5413 57.4768 46.7133L50.944 49.5344L44.4113 46.7133C44.083 46.5413 43.9188 46.3005 43.9188 45.9564V42.172C43.9188 42.1376 43.9188 42.1032 43.886 42.0688C43.8532 42.0344 43.8532 42.0344 43.7875 42.0344H40.5047C40.4719 42.0344 40.4391 42.0344 40.4391 42.0688C40.4063 42.1032 40.4063 42.1032 40.4063 42.172V46.4725C40.4063 47.1261 40.5704 47.711 40.9315 48.2271C41.2598 48.7775 41.7194 49.156 42.3103 49.3968L49.1713 52.4243V56.7248C49.1713 56.7592 49.1713 56.7936 49.2041 56.828C49.237 56.8624 49.2698 56.8624 49.3026 56.8624H52.5854C52.6182 56.8624 52.6511 56.8624 52.6511 56.828C52.6839 56.7936 52.6839 56.7592 52.6839 56.7248V52.4243L59.5449 49.4312C60.1358 49.156 60.5954 48.7775 60.9237 48.2271C61.252 47.711 61.4489 47.1261 61.4489 46.4725V42.1376C61.4489 42.1032 61.4489 42.0688 61.4161 42.0344C61.4161 42.0344 61.3833 42.0344 61.3504 42.0344ZM85.6431 42.0344H82.3603C82.3274 42.0344 82.2946 42.0344 82.2618 42.0688C82.229 42.1032 82.229 42.1376 82.229 42.1376V53.6629H80.8502C80.5876 53.6629 80.3906 53.5596 80.1936 53.3188L73.8579 43.617C73.1685 42.6193 72.2493 42.1032 71.0347 42.0688H65.5852C65.5524 42.0688 65.5196 42.0688 65.4867 42.1032C65.4539 42.1376 65.4539 42.172 65.4539 42.172V56.7592C65.4539 56.7936 65.4539 56.828 65.4867 56.828C65.5196 56.8624 65.5524 56.8624 65.5852 56.8624H68.868C68.9008 56.8624 68.9337 56.8624 68.9337 56.828C68.9665 56.7936 68.9665 56.7592 68.9665 56.7592V45.234H70.3453C70.6079 45.234 70.8049 45.3716 71.0018 45.6124L77.3376 55.3142C78.027 56.3119 78.9462 56.828 80.1608 56.8624H85.6102C85.6431 56.8624 85.6759 56.8624 85.7087 56.828C85.7415 56.7936 85.7415 56.7592 85.7415 56.7592V42.172C85.7415 42.1376 85.7415 42.1032 85.7087 42.1032C85.7087 42.0344 85.6759 42.0344 85.6431 42.0344ZM109.279 42.0344H89.2541C89.2213 42.0344 89.1885 42.0344 89.1556 42.0688C89.1228 42.1032 89.1228 42.1376 89.1228 42.1376V45.0963C89.1228 45.1307 89.1228 45.1651 89.1556 45.1651C89.1885 45.1995 89.1885 45.1995 89.2541 45.1995H97.5267V56.7248C97.5267 56.7592 97.5267 56.7936 97.5596 56.7936C97.5924 56.828 97.5924 56.828 97.6581 56.828H100.941C100.974 56.828 101.006 56.828 101.039 56.7936C101.072 56.7592 101.072 56.7248 101.072 56.7248V45.1995H109.345C109.378 45.1995 109.41 45.1995 109.443 45.1651C109.476 45.1307 109.476 45.0963 109.476 45.0963V42.1376C109.476 42.1032 109.476 42.0688 109.443 42.0688C109.345 42.0344 109.312 42.0344 109.279 42.0344ZM133.572 42.0344H130.289C130.256 42.0344 130.223 42.0344 130.223 42.0688C130.19 42.1032 130.19 42.1376 130.19 42.1376V47.8486H116.928V42.1376C116.928 42.1032 116.928 42.0688 116.895 42.0688C116.862 42.0344 116.83 42.0344 116.797 42.0344H113.514C113.481 42.0344 113.448 42.0344 113.448 42.0688C113.415 42.1032 113.415 42.1376 113.415 42.1376V56.7248C113.415 56.7592 113.415 56.7936 113.448 56.7936C113.481 56.828 113.514 56.828 113.514 56.828H116.797C116.83 56.828 116.862 56.828 116.895 56.7936C116.928 56.7592 116.928 56.7248 116.928 56.7248V51.0138H130.19V56.7248C130.19 56.7592 130.19 56.7936 130.223 56.7936C130.256 56.828 130.289 56.828 130.289 56.828H133.572C133.605 56.828 133.637 56.828 133.67 56.7936C133.703 56.7592 133.703 56.7248 133.703 56.7248V42.1376C133.703 42.1032 133.703 42.0688 133.67 42.0688C133.637 42.0344 133.605 42.0344 133.572 42.0344ZM157.766 42.0344H141.91C140.728 42.0344 139.711 42.4473 138.89 43.3418C138.069 44.2362 137.642 45.2339 137.642 46.4725V52.4931C137.642 53.7316 138.069 54.7638 138.89 55.6239C139.743 56.4839 140.728 56.9312 141.91 56.9312H157.766C157.799 56.9312 157.832 56.9312 157.832 56.8968C157.864 56.8624 157.864 56.828 157.864 56.828V53.7661C157.864 53.7317 157.864 53.6973 157.832 53.6629C157.799 53.6284 157.766 53.6284 157.766 53.6284H141.91C141.68 53.6284 141.516 53.5596 141.352 53.3876C141.188 53.2156 141.122 53.0436 141.122 52.8372V51.0138H157.733C157.766 51.0138 157.799 51.0138 157.832 50.9794C157.864 50.945 157.864 50.9106 157.864 50.9106V47.9518C157.864 47.9174 157.864 47.883 157.832 47.8486C157.799 47.8142 157.799 47.8142 157.733 47.8142H141.089V45.9908C141.089 45.7844 141.155 45.578 141.319 45.4404C141.483 45.2683 141.647 45.1995 141.877 45.1995H157.733C157.766 45.1995 157.799 45.1995 157.799 45.1651C157.832 45.1307 157.832 45.0963 157.832 45.0963V42.1376C157.832 42.1032 157.832 42.0688 157.799 42.0688C157.799 42.0344 157.799 42.0344 157.766 42.0344ZM181.927 42.0344H161.902C161.869 42.0344 161.837 42.0344 161.804 42.0688C161.771 42.1032 161.771 42.1376 161.771 42.1376V45.0963C161.771 45.1307 161.771 45.1651 161.804 45.1651C161.837 45.1995 161.837 45.1995 161.902 45.1995H170.175V56.7248C170.175 56.7592 170.175 56.7936 170.208 56.7936C170.24 56.828 170.24 56.828 170.306 56.828H173.589C173.622 56.828 173.655 56.828 173.687 56.7936C173.72 56.7592 173.72 56.7248 173.72 56.7248V45.1995H181.993C182.026 45.1995 182.058 45.1995 182.091 45.1651C182.124 45.1307 182.124 45.0963 182.124 45.0963V42.1376C182.124 42.1032 182.124 42.0688 182.091 42.0688C181.993 42.0344 181.96 42.0344 181.927 42.0344ZM189.543 42.0344C189.51 42 189.51 42 189.445 42H186.162C186.129 42 186.096 42 186.063 42.0344C186.031 42.0688 186.031 42.0688 186.031 42.1376V56.7248C186.031 56.7592 186.031 56.7936 186.063 56.7936C186.096 56.828 186.096 56.828 186.162 56.828H189.445C189.478 56.828 189.51 56.828 189.543 56.7936C189.576 56.7592 189.576 56.7248 189.576 56.7248V42.1376C189.576 42.1032 189.543 42.0688 189.543 42.0344ZM198.571 45.6124C198.44 45.4404 198.243 45.3716 198.046 45.3716H193.811C193.778 45.3716 193.745 45.3716 193.712 45.3372C193.68 45.3028 193.68 45.2683 193.68 45.2683V42.3096C193.68 42.2752 193.68 42.2408 193.712 42.2408C193.745 42.2064 193.778 42.2064 193.811 42.2064H198.308C199.424 42.2064 200.409 42.6881 201.23 43.6514L202.313 45.0275L200.179 47.711L198.571 45.6124ZM206.417 43.5826C207.237 42.6193 208.222 42.172 209.371 42.172H213.836C213.869 42.172 213.902 42.172 213.934 42.2064C213.967 42.2408 213.967 42.2408 213.967 42.3096V45.2683C213.967 45.3028 213.967 45.3372 213.934 45.3372C213.902 45.3716 213.902 45.3716 213.836 45.3716H209.601C209.404 45.3716 209.207 45.4404 209.076 45.6124L205.957 49.5688L209.109 53.5596C209.24 53.7317 209.404 53.8005 209.634 53.8005H213.869C213.902 53.8005 213.934 53.8005 213.967 53.8349C214 53.8693 214 53.9037 214 53.9381V56.8968C214 56.9312 214 56.9656 213.967 56.9656C213.934 57 213.934 57 213.869 57H209.404C208.255 57 207.27 56.5184 206.482 55.5551L203.889 52.2523L201.296 55.5551C200.475 56.5184 199.49 57 198.341 57H193.877C193.844 57 193.811 57 193.778 56.9656C193.745 56.9312 193.745 56.8968 193.745 56.8624V53.9037C193.745 53.8693 193.745 53.8349 193.778 53.8349C193.811 53.8005 193.811 53.8005 193.877 53.8005H198.111C198.308 53.8005 198.472 53.7317 198.637 53.5596L201.722 49.672L206.417 43.5826Z" fill="#0D2321"/>
</svg>
