<svg width="28" height="28" viewBox="0 0 28 28" fill="none" xmlns="http://www.w3.org/2000/svg">
  <path fill-rule="evenodd" clip-rule="evenodd"
    d="M13.9572 0C6.25076 0 0 6.25076 0 13.9572C0 20.1223 4.02447 25.3456 9.50459 27.2294C10.1896 27.315 10.4465 26.8868 10.4465 26.5443C10.4465 26.2018 10.4465 25.3456 10.4465 24.1468C6.59327 25.0031 5.737 22.263 5.737 22.263C5.13761 20.6361 4.19572 20.208 4.19572 20.208C2.91132 19.3517 4.28135 19.3517 4.28135 19.3517C5.65138 19.4373 6.42202 20.8073 6.42202 20.8073C7.70642 22.948 9.67584 22.3486 10.4465 22.0061C10.5321 21.0642 10.9602 20.4648 11.3028 20.1223C8.22018 19.7798 4.96636 18.581 4.96636 13.1865C4.96636 11.6453 5.48012 10.4465 6.42202 9.41896C6.33639 9.16208 5.82263 7.70642 6.59327 5.82263C6.59327 5.82263 7.79205 5.48012 10.4465 7.27829C11.5596 6.93578 12.7584 6.85015 13.9572 6.85015C15.156 6.85015 16.3547 7.02141 17.4679 7.27829C20.1223 5.48012 21.3211 5.82263 21.3211 5.82263C22.0917 7.70642 21.578 9.16208 21.4924 9.50459C22.3486 10.4465 22.948 11.7309 22.948 13.2722C22.948 18.6667 19.6942 19.7798 16.6116 20.1223C17.1254 20.5505 17.5535 21.4067 17.5535 22.6911C17.5535 24.5749 17.5535 26.0306 17.5535 26.5443C17.5535 26.8868 17.8104 27.315 18.4954 27.2294C24.0612 25.3456 28 20.1223 28 13.9572C27.9144 6.25076 21.6636 0 13.9572 0Z"
    fill="#002825" />
</svg>