<svg width="24" height="24" viewBox="0 0 24 24" fill="none" xmlns="http://www.w3.org/2000/svg">
<path d="M24 4.5C23.1 4.95 22.2 5.1 21.15 5.25C22.2 4.65 22.95 3.75 23.25 2.55C22.35 3.15 21.3 3.45 20.1 3.75C19.2 2.85 17.85 2.25 16.5 2.25C13.35 2.25 10.95 5.25 11.7 8.25C7.65 8.1 4.05 6.15 1.5 3.15C0.15 5.4 0.9 8.25 3 9.75C2.25 9.75 1.5 9.45 0.75 9.15C0.75 11.4 2.4 13.5 4.65 14.1C3.9 14.25 3.15 14.4 2.4 14.25C3 16.2 4.8 17.7 7.05 17.7C5.25 19.05 2.55 19.8 0 19.5C2.25 20.85 4.8 21.75 7.5 21.75C16.65 21.75 21.75 14.1 21.45 7.05C22.5 6.45 23.4 5.55 24 4.5Z" fill="#7DA19F"/>
</svg>
