<svg width="28" height="24" viewBox="0 0 28 24" fill="none" xmlns="http://www.w3.org/2000/svg">
  <path
    d="M28 3.25C26.95 3.775 25.9 3.95 24.675 4.125C25.9 3.425 26.775 2.375 27.125 0.975C26.075 1.675 24.85 2.025 23.45 2.375C22.4 1.325 20.825 0.625 19.25 0.625C15.575 0.625 12.775 4.125 13.65 7.625C8.925 7.45 4.725 5.175 1.75 1.675C0.175 4.3 1.05 7.625 3.5 9.375C2.625 9.375 1.75 9.025 0.875 8.675C0.875 11.3 2.8 13.75 5.425 14.45C4.55 14.625 3.675 14.8 2.8 14.625C3.5 16.9 5.6 18.65 8.225 18.65C6.125 20.225 2.975 21.1 0 20.75C2.625 22.325 5.6 23.375 8.75 23.375C19.425 23.375 25.375 14.45 25.025 6.225C26.25 5.525 27.3 4.475 28 3.25Z"
    fill="#002825" />
</svg>