<svg width="24" height="24" viewBox="0 0 24 24" fill="none" xmlns="http://www.w3.org/2000/svg">
  <path fill-rule="evenodd" clip-rule="evenodd"
    d="M13.3281 2.982C13.3281 2.6425 13.1001 2.34533 12.7721 2.25752C12.4442 2.16971 12.0981 2.31315 11.9285 2.60723L9.42 6.95562C9.41165 6.9701 9.40383 6.98474 9.39655 6.99952L6.41718 12.1962C6.1429 12.6718 6.13181 13.2612 6.3862 13.7469C6.64287 14.2369 7.14594 14.5679 7.72015 14.5681H9.57801V21.0181C9.57801 21.3576 9.80608 21.6548 10.134 21.7426C10.462 21.8304 10.808 21.687 10.9777 21.3929L15.8411 12.923C15.8511 12.9082 15.8607 12.8929 15.8698 12.8772L16.489 11.8039C16.7632 11.3283 16.7743 10.7389 16.5199 10.2532C16.2633 9.76323 15.7602 9.4322 15.186 9.432H13.3281V2.982ZM14.6132 12.0536L15.1896 11.0545C15.2065 11.0251 15.2079 10.9811 15.1912 10.9492C15.1861 10.9396 15.1812 10.9344 15.1784 10.932H12.5781C12.1639 10.932 11.8281 10.5962 11.8281 10.182V5.78304L10.8917 7.40623C10.8869 7.41553 10.8818 7.42477 10.8765 7.43395L7.71657 12.9456C7.69964 12.975 7.69825 13.019 7.71495 13.0509C7.72001 13.0605 7.72493 13.0657 7.72775 13.0681H10.328C10.7422 13.0681 11.078 13.4039 11.078 13.8181V18.2171L14.5832 12.1013C14.5927 12.0849 14.6027 12.069 14.6132 12.0536Z"
    fill="#476565" />
</svg>