<svg width="44" height="44" viewBox="0 0 44 44" fill="none" xmlns="http://www.w3.org/2000/svg">
  <path fill-rule="evenodd" clip-rule="evenodd"
    d="M20.5418 12.432C19.7976 10.9646 18.731 9.52389 18.1379 8.91017C17.5335 8.2847 16.5364 8.26766 15.9109 8.87212C15.2855 9.47658 15.2684 10.4736 15.8729 11.0991C16.0052 11.2361 16.4279 11.5672 17.1824 11.9809C17.7385 12.2858 18.3783 12.5829 19.0333 12.8334H20.4712C20.4879 12.7023 20.5117 12.5683 20.5418 12.432ZM21.9449 9.35628C21.3431 8.41485 20.6638 7.56659 20.1154 6.99913C18.4555 5.28152 15.7175 5.23475 13.9999 6.89464C12.3401 8.49871 12.2405 11.1096 13.7337 12.8334H9.16667C7.14162 12.8334 5.5 14.4751 5.5 16.5001V20.1668C5.5 21.524 6.23736 22.7089 7.33333 23.3429V34.8333C7.33333 36.8584 8.97496 38.5 11 38.5H20.625V38.5001H23.375V38.5H33C35.025 38.5 36.6667 36.8584 36.6667 34.8333V23.3429C37.7626 22.7089 38.5 21.524 38.5 20.1668V16.5001C38.5 14.4751 36.8584 12.8334 34.8333 12.8334H30.1562C31.6493 11.1096 31.5498 8.49871 29.89 6.89464C28.1724 5.23475 25.4344 5.28152 23.7745 6.99913C23.2261 7.56659 22.5468 8.41485 21.9449 9.35628ZM24.8566 12.8334H23.4187C23.402 12.7023 23.3782 12.5683 23.3481 12.432C24.0923 10.9646 25.1589 9.52389 25.752 8.91017C26.3564 8.2847 27.3535 8.26766 27.979 8.87212C28.6044 9.47658 28.6215 10.4736 28.017 11.0991C27.8846 11.2361 27.462 11.5672 26.7075 11.9809C26.1514 12.2858 25.5116 12.5829 24.8566 12.8334ZM20.625 15.5834H9.16667C8.66041 15.5834 8.25 15.9939 8.25 16.5001V20.1668C8.25 20.673 8.66041 21.0834 9.16667 21.0834H20.625V15.5834ZM23.375 15.5834V21.0834H34.8333C35.3396 21.0834 35.75 20.673 35.75 20.1668V16.5001C35.75 15.9939 35.3396 15.5834 34.8333 15.5834H23.375ZM20.625 23.8334H10.0833V34.8333C10.0833 35.3396 10.4937 35.75 11 35.75H20.625L20.625 23.8334ZM23.375 35.75L23.375 23.8334H33.9167V34.8333C33.9167 35.3396 33.5063 35.75 33 35.75H23.375Z"
    fill="#20C580" />
</svg>