<svg width="24" height="24" viewBox="0 0 24 24" fill="none" xmlns="http://www.w3.org/2000/svg">
  <path fill-rule="evenodd" clip-rule="evenodd"
    d="M12 20.5C16.6944 20.5 20.5 16.6944 20.5 12C20.5 11.9151 20.4988 11.8306 20.4963 11.7463L21.8685 10.3741C21.955 10.9033 22 11.4464 22 12C22 17.5228 17.5228 22 12 22C6.47715 22 2 17.5228 2 12C2 6.47715 6.47715 2 12 2C14.6997 2 17.1495 3.06981 18.9487 4.80863L17.8879 5.86947C16.3603 4.40202 14.2855 3.5 12 3.5C7.30558 3.5 3.5 7.30558 3.5 12C3.5 16.6944 7.30558 20.5 12 20.5ZM14.4446 14.6161L22.5304 6.53033L21.4697 5.46967L13.3839 13.5555C12.8958 14.0436 12.1043 14.0436 11.6162 13.5555L8.53039 10.4697L7.46973 11.5303L10.5555 14.6161C11.6295 15.6901 13.3707 15.6901 14.4446 14.6161Z"
    fill="#1B403F" />
</svg>