<svg width="226" height="84" viewBox="0 0 226 84" fill="none" xmlns="http://www.w3.org/2000/svg">
<path fill-rule="evenodd" clip-rule="evenodd" d="M90.0904 63.9463C90.2771 63.9732 90.9972 64 92.2241 64C94.8645 64 96.9182 63.4634 98.4117 62.3632C99.8787 61.2899 101.052 59.4116 101.932 56.7284L109.08 35.3698H103.106L98.6785 51.7107H98.5718L94.1444 35.3698H87.93L95.1579 56.2991C95.1579 56.3259 95.1313 56.4863 95.0781 56.8071L95.0779 56.8089C94.9978 57.1041 94.9712 57.2919 94.9712 57.2919C94.7845 58.1237 94.4111 58.714 93.8777 59.0628C93.3442 59.4116 92.5441 59.5995 91.5039 59.5995H91.5032C90.6768 59.5995 90.197 59.5995 90.0904 59.5726V63.9463ZM116.761 40.3874C117.588 39.5556 118.602 39.1263 119.829 39.1263C121.082 39.1263 122.122 39.5556 122.869 40.3874C123.669 41.2192 124.123 42.2925 124.176 43.6342H115.375C115.481 42.3194 115.935 41.2192 116.761 40.3874ZM129.484 49.8861H124.283C124.016 50.6911 123.509 51.3351 122.762 51.8449C122.016 52.301 121.136 52.5425 120.095 52.5425C118.655 52.5425 117.508 52.0596 116.628 51.1472C115.748 50.2081 115.321 49.0007 115.321 47.498V47.1492H129.644V45.4051C129.644 42.212 128.763 39.6898 126.977 37.7847C125.216 35.8796 122.816 34.9404 119.802 34.9404C116.735 34.9404 114.308 35.9332 112.494 37.9457C110.68 39.9313 109.774 42.6145 109.774 45.9418C109.774 49.2958 110.68 51.9254 112.494 53.8573C114.308 55.7624 116.815 56.7284 120.015 56.7284C122.549 56.7284 124.709 56.0844 126.416 54.8501C128.15 53.589 129.164 51.9522 129.484 49.8861ZM143.753 51.3887C142.899 52.1132 141.832 52.4889 140.579 52.4889C139.619 52.4889 138.845 52.2474 138.258 51.7912C137.672 51.3351 137.378 50.7179 137.378 49.9398C137.378 49.1885 137.672 48.5982 138.232 48.142C138.818 47.6859 139.619 47.4175 140.685 47.337L145.06 47.0687V48.5982C145.06 49.7251 144.633 50.6374 143.753 51.3887ZM133.751 54.8233C135.085 56.0039 136.738 56.5942 138.738 56.5942C140.045 56.5942 141.299 56.2991 142.499 55.6819C143.646 55.038 144.526 54.1793 145.086 53.0792H145.193V56.2454H150.66V41.89C150.66 39.7703 149.86 38.0798 148.26 36.8187C146.66 35.5576 144.526 34.9136 141.859 34.9136C139.139 34.9136 136.951 35.5308 135.325 36.7919C133.698 38.0262 132.817 39.6898 132.711 41.7291H137.858C137.992 40.9509 138.392 40.3069 139.032 39.8508C139.699 39.3946 140.525 39.1531 141.566 39.1531C142.632 39.1531 143.486 39.4483 144.099 39.985C144.739 40.5216 145.06 41.2729 145.06 42.2389V43.6342L139.832 43.9562C137.245 44.1171 135.245 44.7343 133.858 45.8076C132.471 46.8809 131.777 48.3567 131.777 50.2618C131.777 52.1132 132.444 53.6427 133.751 54.8233ZM154.314 35.3698V56.2722V56.2991H159.942V44.627C159.942 43.1512 160.342 42.0242 161.116 41.1924C161.889 40.3606 162.983 39.9581 164.369 39.9581C165.196 39.9581 165.89 40.0654 166.423 40.2801V35.2624C165.943 35.1283 165.41 35.0478 164.823 35.0478C163.596 35.0478 162.556 35.3966 161.702 36.0942C160.849 36.7919 160.262 37.8115 159.889 39.1263H159.782V35.3698H154.314ZM168.743 35.3698V56.2722H174.398V44.2781C174.398 42.9365 174.771 41.8096 175.518 40.9777C176.265 40.1459 177.278 39.7166 178.532 39.7166C179.785 39.7166 180.745 40.0923 181.386 40.8168C182.026 41.5412 182.346 42.6145 182.346 43.983V56.2722H188V42.8024C188 40.3606 187.387 38.4287 186.133 37.0602C184.879 35.6918 183.093 34.9941 180.799 34.9941C179.225 34.9941 177.892 35.3429 176.798 36.0674C175.705 36.7651 174.878 37.7847 174.318 39.0995H174.211V35.3698H168.743ZM67.6866 42.9633C67.6866 31.9352 58.8051 23 47.8433 23C36.8815 23 28 31.9352 28 42.9633C28 53.9915 36.8815 62.9267 47.8433 62.9267C58.8051 62.9267 67.6866 53.9915 67.6866 42.9633ZM48.4837 35.0788H46.4905V52.9478H48.4837V35.0788ZM45.3774 41.3542V43.4815C42.6853 42.5508 40.7439 39.9715 40.7439 36.9402C40.7439 33.1111 43.7725 30 47.5 30C51.5381 30 54.5668 33.1111 54.5668 36.9402C54.5668 37.9506 54.4891 38.6154 54.1008 39.4929L56.2752 38.7218L57 40.4501L51.124 42.6572L49.6226 36.754L51.3311 36.1956L52.1853 39.0408C52.5218 38.2697 52.6512 37.6049 52.6512 36.9136C52.6512 34.1747 50.4768 31.9677 47.5 31.9677C44.8338 31.9677 42.6853 34.1747 42.6853 36.9136C42.6853 38.8547 43.7725 40.5565 45.3774 41.3542ZM49.6226 46.6458V44.5185C52.3147 45.4492 54.2302 48.0551 54.2561 51.0598C54.2561 54.8889 51.2275 58 47.5 58C43.4619 58 40.4332 54.8889 40.4332 51.0598C40.4332 50.0494 40.5109 49.3846 40.8992 48.5071L38.7248 49.2782L38 47.5499L43.876 45.3428L45.3774 51.246L43.6689 51.8044L42.8147 48.9592C42.4782 49.7303 42.3488 50.3951 42.3488 51.0864C42.3488 53.8253 44.5232 56.0323 47.5 56.0323C50.1662 56.0323 52.3147 53.8253 52.3147 51.0864C52.3147 49.1453 51.2275 47.4435 49.6226 46.6458Z" fill="#0D2321"/>
</svg>
