<svg width="226" height="84" viewBox="0 0 226 84" fill="none" xmlns="http://www.w3.org/2000/svg">
<path d="M87.5928 53.2797H101.941V49.5559H91.8472V28.7028H87.5928V53.2797Z" fill="#0D2321"/>
<path d="M109.425 34.9504H105.296V53.2796H109.425V34.9504ZM107.381 31.93C108.758 31.93 109.967 30.7715 109.967 29.3647C109.967 27.9579 108.758 26.8408 107.381 26.8408C105.963 26.8408 104.753 27.9579 104.753 29.3647C104.753 30.7715 105.963 31.93 107.381 31.93Z" fill="#0D2321"/>
<path d="M130.599 35.902C128.722 35.1159 126.136 34.5366 123.592 34.5366C117.044 34.5366 112.956 38.2604 112.956 44.1357C112.956 50.2178 117.044 53.6934 123.008 53.6934C124.468 53.6934 125.803 53.4037 126.512 53.1141V60.7272H130.599V35.902ZM126.512 49.5559C125.469 49.9282 124.593 50.1351 123.258 50.1351C119.546 50.1351 117.127 47.7767 117.127 44.1357C117.127 40.3291 119.588 38.1776 123.592 38.1776C124.718 38.1776 125.677 38.3845 126.512 38.6328V49.5559Z" fill="#0D2321"/>
<path d="M150.453 34.9504H146.366V50.0524C145.281 50.2179 144.113 50.3007 143.196 50.3007C140.485 50.3007 138.816 49.3077 138.816 46.5769V34.9504H134.729V46.8666C134.729 51.9971 137.982 53.6935 143.279 53.6935C145.448 53.6935 148.284 53.4038 150.453 52.8659V34.9504Z" fill="#0D2321"/>
<path d="M159.875 34.9504H155.746V53.2796H159.875V34.9504ZM157.831 31.93C159.208 31.93 160.417 30.7715 160.417 29.3647C160.417 27.9579 159.208 26.8408 157.831 26.8408C156.413 26.8408 155.203 27.9579 155.203 29.3647C155.203 30.7715 156.413 31.93 157.831 31.93Z" fill="#0D2321"/>
<path d="M163.005 38.3846H165.8V48.0251C165.8 52.204 168.344 53.6935 171.347 53.6935C173.099 53.6935 174.6 53.3211 175.81 52.7005V49.0181C174.684 49.6801 173.641 50.0524 172.431 50.0524C170.846 50.0524 169.887 49.3077 169.887 47.1148V38.3846H175.143V34.9505H169.887V30.4819H165.8V34.9505H163.005V38.3846Z" fill="#0D2321"/>
<path d="M180.977 34.9504H176.556L184.189 54.1072L181.603 60.7273H185.649L195.659 34.9504H191.405L186.233 49.3904L180.977 34.9504Z" fill="#0D2321"/>
<path d="M49.735 61.6726C30.817 61.6726 23.3507 36.7742 40.0609 26.2812C38.0737 47.0912 48.645 47.5516 58.4548 47.0912C74.8927 46.3199 74.9037 61.6726 74.9037 61.6726H49.735Z" fill="#0D2321"/>
<path fill-rule="evenodd" clip-rule="evenodd" d="M68.5232 46.227C68.7443 45.0663 68.86 43.8683 68.86 42.6432C68.86 32.1335 60.3438 23.6136 49.8387 23.6136C47.4103 23.6136 45.0882 24.0689 42.9531 24.8987L42.7961 26.5429C41.8332 36.626 44.0268 40.6591 46.4593 42.4454C49.1802 44.4434 53.2674 44.5816 58.3261 44.3443C62.4551 44.1505 65.8176 44.8723 68.5232 46.227ZM49.7709 61.6726C39.2969 61.6361 30.8174 53.1303 30.8174 42.6432C30.8174 35.712 34.5214 29.6463 40.0573 26.3192C39.9407 27.548 39.868 28.7058 39.8364 29.7965C39.3337 47.1429 49.2309 47.5241 58.4548 47.0912C62.4651 46.9031 65.4977 47.6746 67.7909 48.9487C65.1974 56.3392 58.1731 61.6438 49.9065 61.6726H49.7709Z" fill="#0D2321"/>
<path fill-rule="evenodd" clip-rule="evenodd" d="M67.8182 48.8684C64.9565 56.2062 57.9191 61.4533 49.6279 61.6869C49.8228 61.6923 50.019 61.695 50.2163 61.695H75.227C75.227 61.695 75.2205 52.6965 67.8182 48.8684Z" fill="#0D2321"/>
</svg>
