<svg width="48" height="48" viewBox="0 0 48 48" fill="none" xmlns="http://www.w3.org/2000/svg">
  <path fill-rule="evenodd" clip-rule="evenodd"
    d="M7.00024 16C7.00024 9.92489 11.925 5 18.0001 5C24.0752 5 28.9999 9.92489 28.9999 16C28.9999 19.779 27.0944 23.1129 24.1917 25.0932C30.9207 27.5583 35.7677 33.926 35.9918 41.4554C36.0165 42.2834 35.3652 42.9747 34.5371 42.9993C33.709 43.024 33.0178 42.3727 32.9931 41.5446C32.7529 33.4715 26.1319 27 17.9999 27C9.86795 27 3.24695 33.4715 3.00667 41.5446C2.98203 42.3727 2.29077 43.024 1.46271 42.9993C0.634653 42.9747 -0.0166439 42.2834 0.0080012 41.4554C0.232097 33.9259 5.07926 27.5581 11.8084 25.0931C8.90577 23.1128 7.00024 19.7789 7.00024 16ZM18.0001 8C13.5819 8 10.0002 11.5817 10.0002 16C10.0002 20.4183 13.5819 24 18.0001 24C22.4183 24 25.9999 20.4183 25.9999 16C25.9999 11.5817 22.4183 8 18.0001 8Z"
    fill="#D08E39" />
  <path
    d="M34.5801 16C34.2847 16 33.9951 16.021 33.7126 16.0614C32.8925 16.1787 32.1326 15.609 32.0153 14.7889C31.898 13.9688 32.4677 13.2089 33.2878 13.0917C33.7106 13.0312 34.1421 13 34.5801 13C39.5837 13 43.6399 17.0563 43.6399 22.06C43.6399 25.0117 42.2283 27.6318 40.0472 29.2848C44.7102 31.375 47.9599 36.0564 47.9599 41.5C47.9599 42.3284 47.2884 43 46.4599 43C45.6315 43 44.9599 42.3284 44.9599 41.5C44.9599 36.8082 41.846 32.8399 37.5688 31.5563L36.4999 31.2356V27.8837L37.3205 27.4668C39.2934 26.4643 40.6399 24.4181 40.6399 22.06C40.6399 18.7131 37.9268 16 34.5801 16Z"
    fill="#D08E39" />
</svg>