<svg width="48" height="48" viewBox="0 0 48 48" fill="none" xmlns="http://www.w3.org/2000/svg">
  <path fill-rule="evenodd" clip-rule="evenodd"
    d="M25.5002 5.5C25.5002 4.67157 24.8287 4 24.0002 4C23.1718 4 22.5002 4.67157 22.5002 5.5V8.99976H18.5516C17.8494 8.99976 17.1635 9.21093 16.583 9.60585L13.191 11.9132C13.1081 11.9696 13.0101 11.9998 12.9098 11.9998H4.70508C3.87665 11.9998 3.20508 12.6714 3.20508 13.4998C3.20508 14.3282 3.87665 14.9998 4.70508 14.9998H7.86221L1.12631 30.3594C0.861688 30.9628 1.03891 31.7004 1.54654 32.1198C1.70741 32.2489 1.86825 32.37 2.16404 32.5629C2.53519 32.8049 3.06863 33.1182 3.74897 33.4288C5.10924 34.05 7.07196 34.6669 9.50002 34.6669C11.9281 34.6669 13.8908 34.05 15.2511 33.4288C15.9314 33.1182 16.4648 32.8049 16.836 32.5629C17.1344 32.3683 17.2955 32.2468 17.4576 32.1163C17.9728 31.6891 18.1425 30.9723 17.8737 30.3594L11.1378 14.9998H12.9098C13.612 14.9998 14.2979 14.7886 14.8784 14.3937L18.2703 12.0863C18.3533 12.0299 18.4513 11.9998 18.5516 11.9998H22.5002V41H13.5259C12.6975 41 12.0259 41.6716 12.0259 42.5C12.0259 43.3284 12.6975 44 13.5259 44H34.4746C35.303 44 35.9746 43.3284 35.9746 42.5C35.9746 41.6716 35.303 41 34.4746 41H25.5002V11.9998H29.4482C29.5485 11.9998 29.6465 12.0299 29.7295 12.0863L33.1215 14.3937C33.702 14.7886 34.3879 14.9998 35.09 14.9998H36.8622L30.1263 30.3594C29.8489 30.9919 30.0393 31.732 30.5874 32.1522C30.6101 32.1694 30.5852 32.1505 30.5894 32.1537C30.6501 32.1988 30.7113 32.2431 30.7737 32.286C30.8778 32.3574 31.0236 32.4532 31.209 32.565C31.5796 32.7883 32.1114 33.077 32.7888 33.3629C34.1433 33.9345 36.092 34.5 38.5 34.5C40.908 34.5 42.8568 33.9345 44.2113 33.3629C44.8887 33.077 45.4204 32.7883 45.791 32.565C46.0889 32.3855 46.25 32.2732 46.4126 32.1522C46.9608 31.732 47.1511 30.9919 46.8737 30.3594L40.1378 14.9998H43.2948C44.1232 14.9998 44.7948 14.3282 44.7948 13.4998C44.7948 12.6714 44.1232 11.9998 43.2948 11.9998H35.09C34.9897 11.9998 34.8917 11.9696 34.8088 11.9132L31.4168 9.60584C30.8363 9.21093 30.1504 8.99976 29.4482 8.99976H25.5002V5.5ZM4.38593 30.3963C4.56521 30.4936 4.76865 30.5965 4.99505 30.6999C6.04945 31.1813 7.58673 31.6669 9.50002 31.6669C11.4133 31.6669 12.9506 31.1813 14.005 30.6999C14.2314 30.5965 14.4348 30.4936 14.6141 30.3963L9.50002 18.7348L4.38593 30.3963ZM33.4068 30.3486C33.571 30.4295 33.7541 30.514 33.9553 30.5989C35.0154 31.0464 36.5667 31.5 38.5 31.5C40.4334 31.5 41.9846 31.0464 43.0448 30.5989C43.246 30.514 43.4291 30.4295 43.5932 30.3486L38.5 18.7348L33.4068 30.3486Z"
    fill="#D08E39" />
</svg>