<svg width="94" height="37" viewBox="0 0 94 37" fill="none" xmlns="http://www.w3.org/2000/svg">
  <path
    d="M76.693 0H85.9972L71.6652 24.1513C70.847 25.4975 70.0483 26.5334 69.2697 27.2594C68.4911 27.9853 67.7718 28.5133 67.1119 28.8428C66.4519 29.1733 65.8847 29.3646 65.4093 29.4172C64.9344 29.4703 64.6035 29.4966 64.4194 29.4966H55.8674V8.63181H63.8651L63.9048 22.9638L76.693 0Z"
    fill="#D08E39" />
  <path fill-rule="evenodd" clip-rule="evenodd"
    d="M0 29.4961H55.8674V36.2742H0V29.4961ZM27.1474 34.2635C27.3703 34.2635 27.5788 34.2028 27.772 34.0818C27.9805 33.9565 28.1182 33.8011 28.1838 33.617L28.3019 33.2918C28.3684 33.1091 28.3435 32.9546 28.2273 32.8269C28.1225 32.7054 27.958 32.6447 27.7352 32.6447H25.7686C25.6495 32.6447 25.5592 32.6179 25.4994 32.5639C25.4449 32.516 25.4296 32.4596 25.4535 32.3946L25.5721 32.0694C25.595 32.0062 25.65 31.9527 25.7385 31.9068C25.8404 31.8527 25.9499 31.8259 26.0671 31.8259H28.0336C28.1374 31.8259 28.2168 31.8465 28.2708 31.8876H28.2674C28.3258 31.9369 28.3478 32.0196 28.3344 32.1344H28.7337C28.7844 31.8895 28.7529 31.7097 28.641 31.595C28.5396 31.4807 28.387 31.4228 28.1809 31.4228H26.2144C25.9939 31.4228 25.7825 31.485 25.5816 31.6079C25.375 31.7356 25.2383 31.89 25.1732 32.0694L25.0546 32.3946C24.9867 32.5816 25.0116 32.7365 25.1283 32.8628C25.2378 32.9842 25.4037 33.0445 25.6242 33.0445H27.5874C27.7041 33.0445 27.7935 33.0718 27.8533 33.1258C27.9097 33.1736 27.9265 33.2291 27.9035 33.2918L27.7854 33.617C27.7624 33.6801 27.705 33.7346 27.6142 33.7829C27.5147 33.8365 27.4076 33.8637 27.2928 33.8637H25.3263C25.2249 33.8637 25.145 33.8417 25.0867 33.7987H25.09C25.0321 33.749 25.0101 33.6667 25.024 33.5519H24.6242C24.5764 33.7968 24.6075 33.9785 24.7179 34.0976C24.8208 34.2081 24.9748 34.2635 25.1809 34.2635H27.1474ZM12.0259 32.1365C12.0431 32.0174 12.0225 31.9351 11.9632 31.8897H11.9666C11.9121 31.8486 11.8336 31.828 11.7289 31.828H9.76904C9.65187 31.828 9.54331 31.8548 9.44384 31.9088C9.35536 31.9547 9.30037 32.0083 9.27741 32.0714L9.06938 32.6434H10.5156L10.3697 33.0432H8.92351L8.47875 34.2651H8.07559L8.87425 32.0714C8.93929 31.8921 9.07607 31.7376 9.28267 31.6099C9.48353 31.487 9.69492 31.4248 9.91539 31.4248H11.8752C12.0833 31.4248 12.2377 31.4827 12.3396 31.597C12.4515 31.7118 12.4826 31.8916 12.4324 32.1365H12.0259ZM14.9192 32.9012L14.9192 32.9007H15.3185C15.3745 32.6516 15.3339 32.4718 15.1966 32.3613C15.0823 32.2704 14.9355 32.225 14.7557 32.225H13.8068C13.7375 32.225 13.6681 32.2317 13.5997 32.2446C13.5304 32.258 13.4563 32.2795 13.3764 32.3096L13.407 32.2255H13.0039L12.2621 34.2633H12.6653L13.1846 32.8367C13.2076 32.7735 13.2726 32.7219 13.3807 32.6807C13.474 32.6434 13.5687 32.6253 13.6638 32.6253H14.6103C14.649 32.6253 14.6863 32.6286 14.7222 32.6348C14.758 32.6411 14.7896 32.6535 14.8178 32.6707C14.8933 32.7118 14.9272 32.7886 14.9192 32.9007H14.9192V32.9012ZM18.058 33.2947C18.2885 33.1732 18.4377 33.0188 18.5066 32.8299C18.5778 32.6347 18.542 32.4803 18.3994 32.3655C18.2813 32.2722 18.123 32.2258 17.9236 32.2258H16.9776C16.7715 32.2258 16.5749 32.2742 16.3884 32.3717C16.167 32.487 16.0207 32.6405 15.9504 32.8337L15.6534 33.6496C15.5826 33.8442 15.6242 34.0011 15.7782 34.1206C15.9016 34.2163 16.0541 34.2636 16.2363 34.2636H17.1823C17.3645 34.2636 17.5448 34.2168 17.7237 34.124C17.9418 34.013 18.1125 33.8342 18.2368 33.5874H17.8375C17.7639 33.6998 17.6739 33.7768 17.5683 33.8184C17.5271 33.8351 17.4869 33.8476 17.4463 33.8543C17.4061 33.8605 17.3664 33.8638 17.3277 33.8638H16.3813C16.343 33.8638 16.3043 33.859 16.2665 33.8495C16.2287 33.839 16.1923 33.8227 16.1579 33.7988C16.0771 33.7534 16.0431 33.7022 16.0575 33.6458L16.0599 33.6391L16.1593 33.3665C16.2373 33.3971 16.3033 33.4176 16.3578 33.4282C16.4128 33.4392 16.4712 33.4439 16.5338 33.4439H17.4803C17.6749 33.4439 17.8681 33.3942 18.058 33.2947ZM18.0436 32.7003C18.101 32.739 18.1201 32.7849 18.101 32.8366C18.0824 32.8887 18.0298 32.9341 17.9451 32.9733C17.8452 33.0212 17.739 33.0446 17.6266 33.0446H16.6802C16.5893 33.0446 16.5085 33.0255 16.4382 32.9863C16.3602 32.9451 16.3325 32.894 16.3545 32.8337C16.3774 32.771 16.4434 32.7204 16.5529 32.6811C16.6567 32.6438 16.7505 32.6257 16.8327 32.6257H17.7753C17.892 32.6257 17.9819 32.6505 18.0436 32.7003ZM21.6792 32.8299C21.6104 33.0188 21.4612 33.1732 21.2307 33.2947C21.0408 33.3942 20.8476 33.4439 20.6529 33.4439H19.707C19.6438 33.4439 19.586 33.4392 19.5305 33.4282C19.476 33.4176 19.41 33.3971 19.3325 33.3665L19.233 33.6391L19.2306 33.6458C19.2163 33.7022 19.2498 33.7534 19.3306 33.7988C19.3655 33.8227 19.4014 33.839 19.4392 33.8495C19.4769 33.859 19.5157 33.8638 19.5539 33.8638H20.5004C20.5391 33.8638 20.5788 33.8605 20.619 33.8543C20.6596 33.8476 20.7003 33.8351 20.7409 33.8184C20.8466 33.7768 20.9365 33.6998 21.0102 33.5874H21.4095C21.2852 33.8342 21.1144 34.013 20.8964 34.124C20.7175 34.2168 20.5372 34.2636 20.355 34.2636H19.4086C19.2268 34.2636 19.0738 34.2163 18.9504 34.1206C18.7964 34.0011 18.7548 33.8442 18.8261 33.6496L19.123 32.8337C19.1933 32.6405 19.3397 32.487 19.5616 32.3717C19.7481 32.2742 19.9447 32.2258 20.1503 32.2258H21.0967C21.2957 32.2258 21.4545 32.2722 21.5721 32.3655C21.7146 32.4803 21.75 32.6347 21.6792 32.8299ZM21.2737 32.8366C21.2928 32.7849 21.2732 32.739 21.2158 32.7003C21.1541 32.6505 21.0642 32.6257 20.9475 32.6257H20.0049C19.9227 32.6257 19.8289 32.6438 19.7252 32.6811C19.6156 32.7204 19.5496 32.771 19.5267 32.8337C19.5047 32.894 19.5329 32.9451 19.6109 32.9863C19.6812 33.0255 19.762 33.0446 19.8528 33.0446H20.7988C20.9112 33.0446 21.0174 33.0212 21.1173 32.9733C21.2024 32.9341 21.2546 32.8887 21.2737 32.8366ZM30.8964 34.1146C30.7085 34.214 30.5157 34.2638 30.3187 34.2638H29.3723C29.1795 34.2638 29.0232 34.215 28.9026 34.1179C28.7568 33.9984 28.7199 33.842 28.7898 33.6497L29.0868 32.8338C29.1556 32.6449 29.3048 32.4905 29.5358 32.369C29.7257 32.2695 29.9194 32.2198 30.1164 32.2198H31.0629C31.2489 32.2198 31.4019 32.2662 31.522 32.3594C31.6726 32.4809 31.7133 32.6378 31.643 32.8305L31.345 33.6497C31.2766 33.8377 31.1274 33.9931 30.8964 34.1146ZM31.2398 32.8305C31.2618 32.7698 31.2341 32.7195 31.1561 32.6775C31.0896 32.6406 31.0093 32.6225 30.9165 32.6225H29.9701C29.8749 32.6225 29.7816 32.6397 29.6913 32.6741C29.5803 32.7176 29.5134 32.7693 29.4914 32.83L29.1924 33.6526C29.1705 33.7133 29.1982 33.764 29.2761 33.8052C29.3464 33.8439 29.4263 33.8635 29.5153 33.8635H30.4641C30.5071 33.8635 30.5516 33.8592 30.599 33.8506C30.6453 33.8415 30.6927 33.8281 30.7405 33.808C30.8515 33.765 30.9184 33.7119 30.9414 33.6492L31.2398 32.8305ZM32.1421 34.2628L32.7385 32.6248H33.1407L33.2861 32.225H32.8834L32.9532 32.0332C32.97 31.9883 33.014 31.9467 33.0857 31.9094C33.1584 31.873 33.2732 31.8424 33.4315 31.819L33.5745 31.4254C33.3205 31.4254 33.1101 31.4751 32.9418 31.5746C32.75 31.6899 32.6199 31.8424 32.5501 32.0332L31.739 34.2628H32.1421ZM34.5645 32.626L33.9682 34.2639H33.5621L34.1585 32.626H33.7587L33.9041 32.2261H34.3039L34.5961 31.4237H35.0021L34.7099 32.2261H35.1131L34.9677 32.626H34.5645ZM37.0638 34.2599C37.278 34.2599 37.4717 34.2087 37.6424 34.1069C37.8424 33.9926 37.9777 33.8395 38.0466 33.6492L38.5645 32.2255H38.158L37.6386 33.6521C37.6161 33.7128 37.5616 33.7616 37.4717 33.7984C37.3809 33.8395 37.2747 33.8601 37.1537 33.8601C37.0408 33.8601 36.9519 33.8395 36.8868 33.7984C36.8256 33.7635 36.8065 33.7152 36.8294 33.6521L37.1499 32.7711H36.7467L36.4272 33.6487C36.4033 33.7133 36.3474 33.764 36.2579 33.8008C36.1671 33.8419 36.0619 33.8625 35.9428 33.8625C35.8261 33.8625 35.7352 33.8419 35.6697 33.8008C35.6104 33.7616 35.5917 33.7123 35.6137 33.6516L36.1331 32.225H35.73L35.212 33.6487C35.1403 33.8457 35.1608 34.0007 35.2737 34.1136C35.3761 34.213 35.5296 34.2628 35.7357 34.2628C35.8529 34.2628 35.9758 34.2456 36.1044 34.2106C36.2331 34.1762 36.3584 34.1255 36.4798 34.0581C36.5506 34.1274 36.6362 34.1781 36.7371 34.2106C36.8376 34.2432 36.9471 34.2599 37.0638 34.2599ZM40.6784 34.1178C40.489 34.2153 40.2939 34.2636 40.092 34.2636H39.1461C38.9423 34.2636 38.7817 34.2163 38.6654 34.1206C38.5248 34.0078 38.4894 33.8533 38.5617 33.6558C38.631 33.4654 38.7802 33.3115 39.0093 33.1943C39.1992 33.0948 39.3933 33.0446 39.5899 33.0446H40.5363C40.5971 33.0446 40.6544 33.0508 40.709 33.0613C40.764 33.0719 40.8295 33.0924 40.9074 33.123L41.0079 32.8466C41.0208 32.7883 40.9887 32.7366 40.9122 32.6907C40.8434 32.6477 40.7692 32.6257 40.6894 32.6257H39.7434C39.7028 32.6257 39.6616 32.629 39.6214 32.6352C39.5813 32.6419 39.5406 32.6544 39.4995 32.6711C39.3938 32.7122 39.3039 32.7897 39.2307 32.9016H38.8309C38.9576 32.6548 39.1279 32.476 39.3417 32.3655C39.521 32.2722 39.7018 32.2258 39.8864 32.2258H40.8352C41.0213 32.2258 41.1748 32.2722 41.2943 32.3655C41.4464 32.4827 41.4871 32.6395 41.4153 32.8366L41.1183 33.6524C41.0466 33.8461 40.9003 34.0006 40.6784 34.1178ZM40.7128 33.6558C40.7348 33.5955 40.7071 33.5444 40.6286 33.5032C40.5583 33.464 40.4789 33.4444 40.39 33.4444H39.4435C39.3331 33.4444 39.2259 33.4688 39.1222 33.5166C39.0366 33.5554 38.9844 33.6008 38.9653 33.6529C38.9452 33.707 38.9634 33.7534 39.0179 33.7926C39.0834 33.8399 39.1733 33.8638 39.2881 33.8638H40.2369C40.3302 33.8638 40.422 33.8466 40.5124 33.8117C40.6243 33.7687 40.6903 33.717 40.7128 33.6558ZM44.0677 32.6707C44.1432 32.7118 44.1771 32.7886 44.1691 32.9007H44.5684C44.6244 32.6516 44.5837 32.4718 44.4465 32.3613C44.3322 32.2704 44.1854 32.225 44.0056 32.225H43.0567C42.9874 32.225 42.9185 32.2317 42.8496 32.2446C42.7808 32.258 42.7062 32.2795 42.6263 32.3096L42.6569 32.2255H42.2537L41.512 34.2633H41.9152L42.4345 32.8367C42.4575 32.7735 42.5225 32.7219 42.6306 32.6807C42.7243 32.6434 42.819 32.6253 42.9142 32.6253H43.8602C43.8989 32.6253 43.9362 32.6286 43.9721 32.6348C44.0079 32.6411 44.0395 32.6535 44.0677 32.6707ZM47.7563 32.8299C47.6874 33.0188 47.5382 33.1732 47.3077 33.2947C47.1178 33.3942 46.9246 33.4439 46.73 33.4439H45.784C45.7209 33.4439 45.663 33.4392 45.6075 33.4282C45.553 33.4176 45.487 33.3971 45.4091 33.3665L45.3096 33.6391L45.3072 33.6458C45.2933 33.7022 45.3268 33.7534 45.4076 33.7988C45.4421 33.8227 45.4784 33.839 45.5162 33.8495C45.554 33.859 45.5927 33.8638 45.631 33.8638H46.5774C46.6162 33.8638 46.6559 33.8605 46.696 33.8543C46.7367 33.8476 46.7773 33.8351 46.818 33.8184C46.9237 33.7768 47.0136 33.6998 47.0872 33.5874H47.4866C47.3622 33.8342 47.1915 34.013 46.9734 34.124C46.7945 34.2168 46.6142 34.2636 46.432 34.2636H45.4856C45.3034 34.2636 45.1508 34.2163 45.0274 34.1206C44.8734 34.0011 44.8318 33.8442 44.9026 33.6496L45.1996 32.8337C45.2699 32.6405 45.4162 32.487 45.6377 32.3717C45.8247 32.2742 46.0207 32.2258 46.2269 32.2258H47.1733C47.3723 32.2258 47.531 32.2722 47.6487 32.3655C47.7922 32.4803 47.8275 32.6347 47.7563 32.8299ZM47.3507 32.8366C47.3699 32.7849 47.3507 32.739 47.2934 32.7003C47.2317 32.6505 47.1417 32.6257 47.0251 32.6257H46.0824C46.0002 32.6257 45.9064 32.6438 45.8027 32.6811C45.6932 32.7204 45.6272 32.771 45.6042 32.8337C45.5822 32.894 45.6104 32.9451 45.6884 32.9863C45.7587 33.0255 45.8395 33.0446 45.9304 33.0446H46.8763C46.9887 33.0446 47.0949 33.0212 47.1948 32.9733C47.28 32.9341 47.3321 32.8887 47.3507 32.8366Z"
    fill="#D08E39" />
  <path
    d="M17.5309 24.4692C16.9154 24.9517 16.1717 25.1933 15.2994 25.1933H7.55476C6.67383 25.1933 5.93877 24.956 5.3491 24.4821C4.71638 23.9909 4.40027 23.3855 4.40027 22.6657V16.6193C4.40027 15.9168 4.71638 15.3156 5.3491 14.8159C5.9646 14.3333 6.70874 14.0918 7.58058 14.0918H15.3386C16.1507 14.0918 16.8389 14.3161 17.4032 14.7652C17.9929 15.2138 18.3731 15.9211 18.5443 16.8867H16.9671C16.8561 16.4208 16.6466 16.0947 16.3386 15.9086C16.0737 15.748 15.7361 15.6676 15.3257 15.6676H7.58058C7.1186 15.6676 6.72548 15.7738 6.40076 15.9852C6.11907 16.1631 5.97751 16.3745 5.97751 16.6203V22.6667C5.97751 22.9206 6.11859 23.1411 6.40076 23.3271L6.38832 23.3147C6.70444 23.5266 7.09373 23.6323 7.55524 23.6323H15.3004C15.7021 23.6323 16.0608 23.5476 16.3774 23.3783C16.7538 23.2004 16.9417 22.9594 16.9417 22.6543V20.4314H10.6705V18.869H18.5056V22.6667C18.5056 23.3688 18.1803 23.9694 17.5309 24.4692Z"
    fill="#D08E39" />
  <path
    d="M34.0853 19.7054C33.4956 20.1798 32.7558 20.4165 31.8667 20.4165H22.5185V25.1923H20.9413V16.6183C20.9413 15.9158 21.2574 15.3146 21.8901 14.8149C22.5056 14.3323 23.2493 14.0908 24.1216 14.0908H31.8667C32.73 14.0908 33.4655 14.3323 34.0724 14.8149C34.7137 15.3146 35.0341 15.9158 35.0341 16.6183V17.8885C35.0341 18.6088 34.718 19.2142 34.0853 19.7054ZM33.4698 16.6188C33.4698 16.3821 33.3244 16.1702 33.0337 15.9837C32.7084 15.7723 32.3196 15.6661 31.8667 15.6661H24.1087C23.7156 15.6661 23.3607 15.7465 23.0441 15.9072C22.6936 16.0684 22.5185 16.3056 22.5185 16.6183V18.8546H31.8667C32.3196 18.8546 32.7084 18.7532 33.0337 18.5495C33.3239 18.3634 33.4698 18.143 33.4698 17.889V16.6188Z"
    fill="#D08E39" />
  <path
    d="M51.5631 22.7162C51.4349 23.4699 51.0757 24.0754 50.4861 24.5326C49.9131 24.9726 49.2206 25.193 48.4091 25.193H40.651C39.7792 25.193 39.0393 24.9558 38.4324 24.4819C37.7916 23.9907 37.4707 23.3853 37.4707 22.6655V14.1045H39.0738V22.6655C39.0738 22.9195 39.2149 23.1399 39.497 23.326L39.4846 23.3135C39.8007 23.5254 40.1895 23.6311 40.6515 23.6311H48.4095C48.8027 23.6311 49.1446 23.5464 49.4354 23.3771H49.4225C49.7305 23.1911 49.9394 22.8736 50.0509 22.4245H51.3072L51.5631 22.7162Z"
    fill="#D08E39" />
  <path
    d="M93.0021 22.6562C93.0021 23.376 92.6845 23.9815 92.0494 24.4726C91.465 24.947 90.7366 25.1838 89.8648 25.1838H82.1804C81.376 25.1838 80.6945 24.9676 80.1354 24.5362C79.5343 24.0704 79.1531 23.3593 78.9919 22.4023H80.5544C80.6644 22.8509 80.8676 23.1728 81.1641 23.3679H81.1512C81.4391 23.5372 81.782 23.6218 82.1799 23.6218H89.8643C90.3043 23.6218 90.6855 23.52 91.0078 23.3167C91.2957 23.1307 91.4396 22.9102 91.4396 22.6562V21.386C91.4396 21.1493 91.2957 20.9374 91.0078 20.7509C90.6692 20.5309 90.2837 20.4205 89.8519 20.4205H85.7619V18.858H89.8648C90.3134 18.858 90.6945 18.7524 91.0083 18.5405C91.2962 18.3545 91.4401 18.1383 91.4401 17.893V16.6227C91.4401 16.3855 91.2962 16.1741 91.0083 15.9876C90.6697 15.7676 90.2842 15.6576 89.8524 15.6576H82.1804C81.7911 15.6576 81.452 15.7423 81.1641 15.9116H81.1766C80.8719 16.0895 80.6644 16.4114 80.5544 16.8772H78.9919C79.1445 15.9116 79.5171 15.2091 80.1096 14.7686C80.6682 14.32 81.3583 14.0957 82.1799 14.0957H89.8643C90.7194 14.0957 91.4478 14.3329 92.0489 14.8068C92.684 15.3066 93.0016 15.9121 93.0016 16.6232C93.0016 17.2411 92.9762 17.8045 92.9255 18.3124C92.9083 18.5663 92.8242 18.7997 92.6716 19.0111C92.6037 19.1043 92.5257 19.2014 92.4368 19.3033C92.3478 19.4052 92.2397 19.5151 92.113 19.6333C92.3583 19.8619 92.5449 20.0737 92.6716 20.2684C92.8155 20.5056 92.9002 20.7342 92.9255 20.9542C92.9767 21.4539 93.0021 22.0211 93.0021 22.6562Z"
    fill="#D08E39" />
</svg>