<svg width="50" height="50" viewBox="24 2 50 50" fill="none" xmlns="http://www.w3.org/2000/svg">
  <path
    d="M27.0814 28.6237C27.1608 28.2281 27.2491 27.8318 27.3483 27.439C27.4461 27.0479 27.5527 26.6545 27.6688 26.2662C27.7835 25.8796 27.9088 25.4935 28.0416 25.1083C28.1761 24.7245 28.3166 24.3416 28.468 23.9623C28.6178 23.5831 28.7739 23.2063 28.9422 22.8315C29.1075 22.457 29.2821 22.0861 29.463 21.7192C29.6452 21.3492 29.8338 20.9846 30.0303 20.6238C30.2281 20.2599 30.4324 19.903 30.6443 19.5468C30.8563 19.1922 31.0731 18.8402 31.2979 18.4949C31.5224 18.1452 31.7551 17.8038 31.9924 17.4634C32.2326 17.1228 32.4764 16.7879 32.7266 16.4585C32.9784 16.1289 33.2377 15.8001 33.5006 15.4785C33.7637 15.1584 34.033 14.8408 34.3071 14.5273C34.583 14.2166 34.8623 13.9101 35.151 13.6087C35.4351 13.3063 35.7288 13.0105 36.0242 12.7176C36.3199 12.4277 36.6235 12.1416 36.9307 11.8626C37.2362 11.5823 37.5483 11.3075 37.8624 11.0399C38.1798 10.7751 38.5002 10.51 38.8261 10.2565C39.1504 10.0015 39.4796 9.75069 39.8123 9.50703C40.1454 9.26634 40.4832 9.02973 40.8233 8.80043C41.1648 8.571 41.5084 8.34889 41.8541 8.13261C42.2029 7.91755 42.5509 7.71155 42.9082 7.50776C43.2642 7.30707 43.6223 7.1122 43.9826 6.92614C44.3429 6.74008 44.7068 6.56121 45.0714 6.38978C45.439 6.21808 45.8072 6.05384 46.1762 5.89852C46.5452 5.74321 46.9195 5.59644 47.2945 5.4586C47.6678 5.31792 48.0463 5.18578 48.4258 5.06406C48.8036 4.94098 49.1837 4.82671 49.5646 4.72137C49.9484 4.61577 50.3302 4.52085 50.714 4.43176C51.0994 4.34403 51.4841 4.26536 51.8698 4.19711C52.2553 4.12738 52.6446 4.06781 53.0318 4.01743C53.419 3.96705 53.8071 3.92709 54.196 3.89607C54.5834 3.86518 54.9685 3.84199 55.3485 3.82975C55.7271 3.81913 56.102 3.81634 56.4733 3.82437C56.8431 3.83252 57.2077 3.85013 57.5673 3.87869C57.9296 3.90401 58.2855 3.94189 58.6346 3.98786C58.9853 4.0352 59.3318 4.0859 59.6709 4.15376C60.0125 4.2169 60.346 4.29124 60.6758 4.37341C61.0071 4.45546 61.3314 4.54411 61.6491 4.64235C61.9684 4.74195 62.281 4.85113 62.5867 4.96692C62.894 5.08406 63.1959 5.20769 63.491 5.33941C63.7847 5.47275 64.0745 5.61243 64.3576 5.76171C64.6407 5.91098 64.9183 6.06524 65.1878 6.2307C65.4586 6.39306 65.7228 6.56649 65.9785 6.74517C66.2372 6.92358 66.4876 7.11023 66.731 7.30348C66.9746 7.49822 67.2112 7.69808 67.4424 7.9059C67.6722 8.11386 67.895 8.32842 68.1122 8.54797C68.3281 8.76914 68.5371 8.99691 68.7363 9.23305C68.9397 9.46581 69.1333 9.70693 69.3199 9.95317C69.5053 10.2025 69.6849 10.4554 69.8578 10.7163C70.0274 10.9745 70.1918 11.2407 70.3473 11.5092C70.5032 11.7821 70.6519 12.0587 70.7907 12.3421C70.9296 12.6255 71.0613 12.9141 71.1875 13.2076C71.3093 13.5015 71.4252 13.7975 71.5302 14.1063C71.6379 14.4105 71.7384 14.7198 71.8245 15.0348C71.9151 15.3495 71.9971 15.6694 72.0675 15.9948C72.141 16.3199 72.2058 16.6489 72.2576 16.9834C72.3137 17.3161 72.357 17.6574 72.3946 18.0007C72.4305 18.3426 72.458 18.6913 72.4753 19.0439C72.494 19.3948 72.5012 19.7513 72.4997 20.1115C72.4997 20.4716 72.4882 20.8372 72.4677 21.2035C72.4447 21.5746 72.4126 21.945 72.3764 22.3203C72.3371 22.6943 72.285 23.077 72.2238 23.4574C72.1643 23.8407 72.0947 24.2279 72.0132 24.6176C71.9345 25.0041 71.8425 25.3932 71.7442 25.7784C71.6444 26.1637 71.537 26.5482 71.4192 26.9336C71.2995 27.3147 71.1752 27.6947 71.0417 28.0724C70.9083 28.4517 70.7656 28.8272 70.6138 29.2006C70.4619 29.574 70.3024 29.9465 70.1366 30.3151C69.9693 30.6838 69.7942 31.0487 69.6115 31.4128C69.4302 31.7753 69.2395 32.134 69.0426 32.4903C68.8459 32.8481 68.6368 33.2025 68.4258 33.551C68.215 33.9026 67.9977 34.2487 67.7682 34.5928C67.546 34.9333 67.3133 35.2748 67.0725 35.6094C66.8333 35.9454 66.5893 36.2773 66.3373 36.604C66.0825 36.9323 65.8256 37.2549 65.5624 37.5735C65.2992 37.8921 65.0297 38.2067 64.7535 38.5144C64.4778 38.8266 64.1969 39.1318 63.911 39.4313C63.6251 39.7309 63.3316 40.0282 63.0343 40.3168C62.7385 40.6067 62.4378 40.8911 62.1308 41.1715C61.8237 41.4519 61.5131 41.7251 61.1961 41.9944C60.8817 42.2605 60.5597 42.5242 60.2358 42.7836C59.9131 43.0384 59.5811 43.291 59.2483 43.5347C58.9172 43.7797 58.5795 44.0193 58.2396 44.2501C57.8985 44.484 57.555 44.7076 57.2081 44.927C56.8613 45.1478 56.5092 45.3587 56.1579 45.562C55.8024 45.7686 55.4449 45.9694 55.0863 46.1583C54.7264 46.3489 54.363 46.5337 53.9986 46.7081C53.6331 46.8856 53.2667 47.0542 52.8965 47.2126C52.5252 47.3757 52.1558 47.5265 51.7798 47.6704C51.4069 47.8156 51.0305 47.955 50.653 48.0826C50.2741 48.2102 49.8945 48.3305 49.5142 48.4418C49.1338 48.5531 48.7527 48.6554 48.3663 48.7492C47.9857 48.8411 47.6014 48.9242 47.2167 49.0029C46.8302 49.0787 46.4429 49.1441 46.0593 49.2016C45.6712 49.2581 45.2838 49.307 44.8971 49.3453C44.5102 49.3822 44.1271 49.4097 43.7474 49.4264C43.3694 49.4445 42.9936 49.4534 42.6242 49.4497C42.2548 49.446 41.8923 49.4357 41.5319 49.4147C41.1728 49.3921 40.819 49.3615 40.4675 49.3218C40.1175 49.2834 39.774 49.2324 39.4343 49.1736C39.0947 49.1163 38.76 49.0466 38.4322 48.9702C38.1031 48.8955 37.7791 48.8098 37.4631 48.7144C37.1459 48.6206 36.8338 48.5174 36.5255 48.4063C36.2202 48.295 35.9187 48.1759 35.6251 48.044C35.3306 47.9197 35.0426 47.7829 34.7598 47.6381C34.4756 47.4934 34.2013 47.3419 33.9322 47.1809C33.6629 47.0184 33.3978 46.8525 33.1422 46.6754C32.8853 46.4998 32.6366 46.3145 32.3904 46.1245C32.1487 45.9341 31.9121 45.7342 31.6827 45.5292C31.4501 45.323 31.2287 45.1084 31.0115 44.8888C30.7971 44.6675 30.5867 44.4413 30.3877 44.2067C30.1855 43.9708 29.9905 43.7313 29.8053 43.4835C29.6171 43.2359 29.4373 42.9815 29.2659 42.7205C29.0945 42.4594 28.9302 42.1932 28.7756 41.9187C28.6181 41.6444 28.4706 41.3647 28.33 41.0784C28.1911 40.7935 28.0576 40.5021 27.9341 40.2054C27.8105 39.9071 27.6954 39.6036 27.586 39.2966C27.4795 38.9878 27.3799 38.6725 27.2904 38.3532C27.201 38.034 27.1187 37.7111 27.0462 37.3798C26.9724 37.0502 26.9072 36.7168 26.8534 36.3765C26.7983 36.0377 26.7532 35.6936 26.7151 35.3443C26.6785 34.9949 26.6492 34.6419 26.6329 34.2847C26.6121 33.9265 26.6045 33.5656 26.6053 33.1979C26.6048 32.8319 26.616 32.4618 26.6343 32.0881C26.6541 31.7143 26.6841 31.3366 26.7242 30.955C26.7627 30.572 26.813 30.1865 26.8721 29.7987C26.9311 29.4095 27.0018 29.0177 27.0814 28.6237Z"
    stroke="#D08E39" />
  <path
    d="M24.8913 27.3825C24.9707 26.9869 25.0591 26.5906 25.1582 26.1978C25.256 25.8067 25.3627 25.4132 25.4787 25.025C25.5934 24.6384 25.7187 24.2523 25.8515 23.8671C25.986 23.4833 26.1265 23.1004 26.2779 22.721C26.4278 22.3418 26.5839 21.9651 26.7521 21.5903C26.9174 21.2158 27.092 20.8449 27.2729 20.478C27.4551 20.108 27.6438 19.7434 27.8403 19.3826C28.038 19.0187 28.2423 18.6618 28.4542 18.3056C28.6663 17.951 28.883 17.599 29.1079 17.2537C29.3323 16.904 29.565 16.5626 29.8023 16.2222C30.0426 15.8816 30.2863 15.5467 30.5366 15.2172C30.7883 14.8877 31.0476 14.5589 31.3106 14.2373C31.5736 13.9172 31.8429 13.5996 32.117 13.286C32.3929 12.9753 32.6722 12.6688 32.9609 12.3675C33.245 12.0651 33.5387 11.7693 33.8342 11.4764C34.1299 11.1865 34.4334 10.9004 34.7406 10.6214C35.0462 10.3411 35.3582 10.0663 35.6724 9.79873C35.9898 9.53391 36.3102 9.26882 36.6361 9.01525C36.9604 8.76033 37.2895 8.50948 37.6223 8.26581C37.9553 8.02513 38.2932 7.78852 38.6332 7.55922C38.9747 7.32979 39.3184 7.10768 39.664 6.8914C40.0128 6.67634 40.3609 6.47034 40.7181 6.26655C41.0742 6.06586 41.4322 5.87099 41.7925 5.68493C42.1528 5.49887 42.5168 5.32 42.8814 5.14856C43.2489 4.97687 43.6172 4.81263 43.9862 4.65731C44.3552 4.502 44.7294 4.35523 45.1044 4.21739C45.4777 4.07671 45.8563 3.94457 46.2357 3.82285C46.6135 3.69977 46.9936 3.5855 47.3745 3.48016C47.7584 3.37456 48.1402 3.27964 48.524 3.19055C48.9094 3.10282 49.2941 3.02415 49.6797 2.9559C50.0652 2.88617 50.4546 2.8266 50.8418 2.77622C51.229 2.72584 51.6171 2.68588 52.0059 2.65486C52.3933 2.62397 52.7784 2.60078 53.1584 2.58854C53.5371 2.57792 53.9119 2.57513 54.2832 2.58316C54.653 2.59131 55.0176 2.60892 55.3772 2.63748C55.7395 2.66279 56.0954 2.70067 56.4445 2.74665C56.7953 2.79398 57.1418 2.84469 57.4808 2.91255C57.8224 2.97569 58.156 3.05003 58.4857 3.1322C58.817 3.21425 59.1413 3.3029 59.459 3.40114C59.7783 3.50073 60.0909 3.60992 60.3966 3.7257C60.7039 3.84285 61.0058 3.96648 61.3009 4.0982C61.5946 4.23154 61.8844 4.37122 62.1676 4.5205C62.4507 4.66977 62.7282 4.82403 62.9978 4.98949C63.2685 5.15185 63.5328 5.32528 63.7885 5.50395C64.0471 5.68237 64.2975 5.86902 64.541 6.06227C64.7846 6.25701 65.0211 6.45687 65.2523 6.66469C65.4821 6.87265 65.7049 7.08721 65.9222 7.30676C66.1381 7.52793 66.347 7.7557 66.5462 7.99184C66.7496 8.2246 66.9433 8.46572 67.1299 8.71196C67.3152 8.96131 67.4949 9.21415 67.6677 9.4751C67.8374 9.73332 68.0017 9.99951 68.1572 10.268C68.3131 10.5409 68.4619 10.8175 68.6007 11.1009C68.7395 11.3843 68.8713 11.6729 68.9975 11.9664C69.1192 12.2603 69.2351 12.5562 69.3402 12.8651C69.4478 13.1693 69.5484 13.4786 69.6344 13.7936C69.725 14.1083 69.807 14.4282 69.8775 14.7536C69.9509 15.0787 70.0157 15.4076 70.0675 15.7422C70.1236 16.0749 70.167 16.4162 70.2045 16.7595C70.2404 17.1014 70.2679 17.4501 70.2853 17.8026C70.304 18.1536 70.3111 18.5101 70.3097 18.8703C70.3096 19.2304 70.2981 19.596 70.2777 19.9623C70.2546 20.3334 70.2225 20.7038 70.1863 21.0791C70.147 21.4531 70.095 21.8358 70.0337 22.2162C69.9743 22.5995 69.9046 22.9867 69.8232 23.3764C69.7445 23.7629 69.6525 24.152 69.5541 24.5372C69.4543 24.9225 69.3469 25.307 69.2291 25.6924C69.1094 26.0735 68.9851 26.4534 68.8516 26.8312C68.7183 27.2105 68.5756 27.586 68.4237 27.9594C68.2718 28.3328 68.1124 28.7053 67.9466 29.0739C67.7793 29.4426 67.6042 29.8075 67.4215 30.1716C67.2401 30.5341 67.0495 30.8928 66.8526 31.2491C66.6558 31.6069 66.4468 31.9613 66.2357 32.3098C66.0249 32.6614 65.8076 33.0074 65.5782 33.3516C65.3559 33.6921 65.1232 34.0336 64.8824 34.3682C64.6433 34.7042 64.3992 35.0361 64.1472 35.3627C63.8924 35.6911 63.6355 36.0137 63.3723 36.3322C63.1091 36.6508 62.8396 36.9655 62.5635 37.2732C62.2877 37.5854 62.0068 37.8906 61.721 38.1901C61.4351 38.4897 61.1415 38.787 60.8442 39.0755C60.5485 39.3655 60.2478 39.6498 59.9407 39.9303C59.6337 40.2107 59.323 40.4839 59.006 40.7532C58.6917 41.0193 58.3697 41.283 58.0458 41.5424C57.723 41.7972 57.391 42.0498 57.0582 42.2935C56.7271 42.5385 56.3895 42.7781 56.0496 43.0089C55.7085 43.2428 55.3649 43.4664 55.018 43.6857C54.6713 43.9066 54.3191 44.1175 53.9678 44.3208C53.6123 44.5274 53.2548 44.7282 52.8962 44.9171C52.5363 45.1077 52.1729 45.2925 51.8086 45.4669C51.443 45.6444 51.0767 45.813 50.7064 45.9714C50.3351 46.1344 49.9657 46.2853 49.5897 46.4292C49.2168 46.5744 48.8404 46.7138 48.463 46.8414C48.084 46.969 47.7045 47.0893 47.3241 47.2006C46.9438 47.3119 46.5626 47.4142 46.1762 47.508C45.7957 47.5998 45.4114 47.683 45.0266 47.7616C44.6402 47.8375 44.2528 47.9029 43.8693 47.9604C43.4811 48.0169 43.0938 48.0658 42.707 48.1041C42.3202 48.141 41.937 48.1685 41.5574 48.1852C41.1793 48.2033 40.8035 48.2121 40.4341 48.2084C40.0647 48.2048 39.7022 48.1945 39.3418 48.1735C38.9827 48.1509 38.629 48.1203 38.2774 48.0806C37.9275 48.0422 37.5839 47.9912 37.2442 47.9324C36.9046 47.8751 36.5699 47.8053 36.2422 47.729C35.9131 47.6543 35.589 47.5686 35.2731 47.4732C34.9558 47.3794 34.6437 47.2762 34.3354 47.1651C34.0301 47.0538 33.7286 46.9347 33.435 46.8028C33.1406 46.6785 32.8525 46.5417 32.5698 46.3969C32.2856 46.2522 32.0112 46.1007 31.7421 45.9397C31.4728 45.7772 31.2077 45.6113 30.9522 45.4341C30.6953 45.2586 30.4465 45.0733 30.2003 44.8833C29.9586 44.6929 29.7221 44.493 29.4926 44.288C29.26 44.0818 29.0387 43.8671 28.8214 43.6476C28.607 43.4263 28.3967 43.2001 28.1976 42.9655C27.9954 42.7296 27.8004 42.4901 27.6152 42.2423C27.427 41.9947 27.2472 41.7403 27.0758 41.4793C26.9045 41.2182 26.7401 40.952 26.5856 40.6774C26.4281 40.4032 26.2806 40.1235 26.14 39.8372C26.001 39.5523 25.8675 39.2609 25.744 38.9641C25.6204 38.6659 25.5053 38.3624 25.3959 38.0554C25.2894 37.7466 25.1898 37.4313 25.1004 37.112C25.0109 36.7927 24.9287 36.4699 24.8562 36.1386C24.7823 35.809 24.7171 35.4756 24.6634 35.1352C24.6082 34.7965 24.5631 34.4524 24.525 34.1031C24.4885 33.7537 24.4591 33.4007 24.4428 33.0435C24.422 32.6853 24.4144 32.3243 24.4153 31.9567C24.4148 31.5906 24.4259 31.2206 24.4442 30.8469C24.464 30.4731 24.494 30.0954 24.5341 29.7138C24.5726 29.3308 24.6229 28.9453 24.682 28.5575C24.741 28.1683 24.8117 27.7765 24.8913 27.3825Z"
    fill="#D08E39" />
  <path fill-rule="evenodd" clip-rule="evenodd"
    d="M59.0902 22.6129L58.8175 22.4102L58.5612 22.2076C58.5612 22.2076 58.3027 21.9977 58.0457 21.7861C57.789 21.579 57.5319 21.3674 57.5319 21.3674C57.5111 21.3528 57.4918 21.3379 57.4725 21.3231C57.3174 21.1957 57.1646 21.0785 56.974 20.9586C56.9084 20.9119 56.8391 20.8744 56.7614 20.8437L56.61 20.7939C56.5091 20.7548 56.411 20.7138 56.3227 20.6645C55.9592 20.4893 55.6438 20.2453 55.3963 19.9369C55.388 19.9106 55.3884 19.8806 55.3946 19.8485C55.4008 19.8165 55.4117 19.787 55.4301 19.7569L55.4304 19.7563C55.4459 19.728 55.4664 19.6905 55.4883 19.6513C55.521 19.5959 55.5559 19.5313 55.5944 19.4575C55.6619 19.3195 55.7097 19.1803 55.7393 19.0382C55.754 18.9499 55.7704 18.8629 55.7939 18.7708C55.8051 18.7278 55.8267 18.6825 55.8575 18.6407C55.9165 18.5606 56.0008 18.4947 56.0891 18.4584L56.5634 18.3059L56.7495 18.0496L56.76 17.9977L56.3407 17.7148C56.0791 17.5381 55.8847 17.288 55.7224 16.9932C55.5601 16.6983 55.4299 16.3601 55.2956 16.0073C55.2899 15.9943 55.284 15.9783 55.278 15.9608C55.1319 15.5775 54.9361 15.2255 54.691 14.9109C54.6219 14.8239 54.5441 14.7407 54.4625 14.6653C54.3726 14.5982 54.2734 14.5453 54.17 14.4944C53.9807 14.4059 53.802 14.336 53.6116 14.2686C53.5945 14.264 53.5774 14.2584 53.56 14.2526C53.5476 14.2485 53.5349 14.2443 53.5221 14.2405C53.3645 14.1882 53.2158 14.1352 53.1 14.0808L52.5838 13.8394L51.5402 13.3666C51.1874 13.2099 50.8267 13.0659 50.458 12.9332C50.0894 12.8019 49.7101 12.685 49.3244 12.5807C48.9356 12.4752 48.5338 12.3933 48.1235 12.3332C47.7119 12.2762 47.2901 12.2396 46.8613 12.2261C46.641 12.2123 46.418 12.2184 46.1898 12.2338C45.9183 12.2516 45.6405 12.3344 45.3719 12.4719C45.2628 12.5231 45.1645 12.5766 45.0729 12.6263C45.0556 12.6357 45.0386 12.645 45.0218 12.6541C45.0076 12.6621 44.9935 12.6699 44.9797 12.6777C44.8947 12.7256 44.8167 12.7695 44.7423 12.8031C44.5623 12.8893 44.2962 13.0206 44.0898 13.1317C43.6611 13.3583 43.2417 13.6065 42.8313 13.872C42.4194 14.1376 42.0167 14.4219 41.6246 14.7247C41.2081 15.0237 40.8094 15.3542 40.4308 15.7084C40.0428 16.0754 39.7038 16.4877 39.4275 16.9304C39.0783 17.021 38.7298 17.1355 38.3834 17.2753C38.0385 17.415 37.6973 17.5784 37.361 17.7654C36.9586 17.9851 36.5715 18.2591 36.2148 18.5723C36.1134 18.6652 36.0184 18.7621 35.9314 18.8657C35.8473 18.9676 35.7739 19.0715 35.7038 19.1797C35.5741 19.3771 35.4631 19.5668 35.3536 19.7549C35.142 20.132 34.9442 20.5124 34.7586 20.8948C34.5717 21.2787 34.3955 21.6662 34.2344 22.0539C34.0716 22.4402 33.9196 22.8286 33.7767 23.2192C33.6337 23.6083 33.5015 24.001 33.3797 24.3927C33.2668 24.7822 33.165 25.1797 33.0765 25.5745C32.9879 25.9679 32.9123 26.3556 32.8523 26.7494C32.7923 27.1447 32.755 27.5411 32.7408 27.9279C32.7253 28.3164 32.7345 28.6967 32.7601 29.074C32.798 29.4563 32.8677 29.8238 32.9734 30.1746C33.0745 30.5244 33.2115 30.856 33.3799 31.1683L33.568 31.5179C33.7975 31.963 33.9242 32.1769 34.4041 32.105C34.7172 32.0491 35.1299 31.7069 35.5918 31.1894C35.8212 30.9307 36.062 30.6306 36.3108 30.3013C36.5578 29.9691 36.81 29.6109 37.0581 29.2396C37.3089 28.8651 37.557 28.4773 37.7961 28.0888C38.0353 27.7018 38.2653 27.3126 38.4802 26.9397C38.6936 26.5654 38.8918 26.2075 39.0682 25.874C39.2433 25.5436 39.3982 25.239 39.521 24.9792C39.6715 24.6584 39.8239 24.342 39.9753 24.0317C40.1252 23.7215 40.2756 23.4173 40.4237 23.1208C40.5706 22.8274 40.7181 22.5414 40.8663 22.2629C41.0117 21.9876 41.1581 21.7227 41.3025 21.47C41.5945 20.9659 41.879 20.5134 42.1605 20.1301C42.4421 19.7469 42.7176 19.4318 42.9887 19.204C42.6971 19.249 42.4 19.386 42.1374 19.592C41.8772 19.7903 41.633 20.0173 41.4116 20.2647C41.197 20.504 40.9933 20.7484 40.7962 20.9997C40.6007 21.2509 40.4159 21.5056 40.2379 21.7687C40.0642 22.0135 39.8999 22.2619 39.737 22.5087C39.5757 22.7569 39.4157 23.0034 39.2587 23.2497L39.2166 23.315C39.0578 23.5617 38.8999 23.8069 38.7405 24.0497C38.5656 24.3141 38.3889 24.5756 38.2043 24.8318C38.0276 25.0753 37.848 25.3206 37.6653 25.5646C37.4814 25.8118 37.2958 26.0576 37.1084 26.299C36.9182 26.5437 36.7293 26.7853 36.5358 27.0258C36.3408 27.2664 36.1445 27.5086 35.9478 27.7479C35.6437 28.1136 35.3323 28.4814 35.0189 28.8434C34.7042 29.207 34.3876 29.5678 34.0722 29.924C33.9903 29.6731 33.9282 29.4099 33.881 29.144C33.8321 28.8767 33.8005 28.6019 33.7822 28.3244C33.7666 28.0422 33.7629 27.7605 33.7781 27.4711C33.7933 27.1817 33.8231 26.888 33.8678 26.593C33.9258 26.2264 33.991 25.8576 34.0701 25.4921C34.1486 25.1206 34.2381 24.7542 34.3378 24.3854C34.439 24.015 34.5524 23.648 34.6775 23.2769C34.8028 22.9089 34.9372 22.5415 35.085 22.173C35.227 21.8065 35.3824 21.4388 35.5485 21.0747C35.7147 20.7106 35.8917 20.35 36.0808 19.9899C36.1765 19.815 36.2766 19.6382 36.375 19.4765C36.4545 19.3391 36.5557 19.2102 36.6779 19.0975C36.9715 18.8347 37.2885 18.5999 37.6222 18.4012C37.9603 18.1841 38.3079 17.9901 38.6654 17.8238C39.0248 17.6438 39.3864 17.4892 39.7511 17.3537C40.1245 17.2145 40.5004 17.1036 40.8742 17.0199C41.2478 16.9347 41.6197 16.8812 41.9866 16.8566C41.7313 16.7844 41.4646 16.7372 41.1885 16.7194C40.9125 16.703 40.6268 16.713 40.3361 16.7519C40.5807 16.4784 40.8463 16.2212 41.124 15.9823C41.4031 15.7433 41.6945 15.5243 41.9954 15.3269C42.379 15.0473 42.7699 14.7821 43.1653 14.5344C43.562 14.2837 43.9647 14.0504 44.3731 13.8316L44.994 13.5192C45.1307 13.4532 45.2553 13.3853 45.3682 13.3214L45.3834 13.3129C45.4691 13.2646 45.5487 13.2198 45.6276 13.1817C45.7856 13.1019 45.9479 13.0532 46.1048 13.0454C46.3017 13.0327 46.495 13.0293 46.6848 13.0382C47.0865 13.0511 47.4796 13.0857 47.8654 13.139C48.2499 13.1954 48.6258 13.2735 48.9898 13.3692C49.3604 13.4718 49.7243 13.584 50.0775 13.7121C50.4321 13.8371 50.7804 13.9777 51.122 14.1264L52.1501 14.5931L52.6619 14.8348C52.8539 14.9233 53.0217 14.9797 53.2104 15.0432L53.2252 15.0481C53.4243 15.1117 53.5781 15.1718 53.7286 15.2456C53.7972 15.2756 53.8605 15.3136 53.9171 15.3597C53.9706 15.406 54.0201 15.4572 54.0657 15.5147C54.2551 15.7937 54.4063 16.0986 54.5152 16.4341C54.5388 16.4894 54.5608 16.548 54.5829 16.6073C54.5945 16.638 54.606 16.669 54.618 16.6997C54.7179 16.967 54.8211 17.2386 54.9732 17.5013C55.0855 17.7045 55.2205 17.8938 55.3734 18.0634C55.161 18.139 54.949 18.1861 54.7368 18.2122C54.549 18.2091 54.344 17.993 54.1439 17.6954C53.9482 17.3959 53.7546 17.0183 53.5914 16.6965L53.5769 16.6681C53.4206 16.3635 53.2919 16.1124 53.208 16.0354C53.0576 15.825 52.8471 15.6663 52.5927 15.5701C52.3413 15.475 52.0494 15.4481 51.7441 15.4913C52.0237 15.6004 52.2617 15.7656 52.4485 15.9803C52.6352 16.1935 52.7734 16.453 52.8504 16.7493C52.8957 16.9419 52.9839 17.2298 53.1039 17.5718C53.2252 17.9123 53.3765 18.3042 53.5551 18.6996C53.7323 19.0952 53.9369 19.4959 54.1573 19.8547C54.3777 20.2136 54.6153 20.5274 54.8617 20.7549C55.1229 21.0306 55.4296 21.2603 55.7807 21.4321L55.7975 21.4403C55.9046 21.4922 56.0106 21.5436 56.1209 21.5824L56.2978 21.6495L56.3845 21.6974C56.5502 21.8074 56.7318 21.9461 56.901 22.0783C56.901 22.0783 57.1579 22.2884 57.4147 22.497L57.9326 22.9123L58.1955 23.1218L58.4616 23.3161L58.511 23.3658C58.3372 23.438 58.16 23.47 57.9936 23.4546C57.5081 23.4445 57.0074 23.5003 56.4981 23.6304C55.3813 23.9502 55.1159 24.5 55.3219 24.7461C55.4622 24.8913 55.7447 25.0001 56.048 25.0876C56.3127 25.1618 56.5914 25.2157 56.809 25.2577C56.843 25.2643 56.8755 25.2706 56.9062 25.2766L56.9082 25.2769C57.0352 25.2986 57.1334 25.3153 57.181 25.3306C57.3655 25.382 57.5116 25.4907 57.6037 25.6522C57.6239 26.054 57.2496 26.5774 56.8311 27.0596L56.5543 27.0853C56.0906 27.1349 55.6163 27.2709 55.1552 27.4883C54.9548 27.5825 54.7674 27.6877 54.5866 27.7891L54.5559 27.8063C54.3246 27.9406 54.1101 28.0613 53.908 28.1345C53.513 28.2501 53.1259 28.302 52.7511 28.2883C52.7186 28.2911 52.6856 28.2933 52.6524 28.2954C52.6188 28.2976 52.585 28.2998 52.5514 28.3027C52.4137 28.3073 52.2704 28.3153 52.1036 28.3464C51.8754 28.3799 51.6416 28.4679 51.4234 28.598C51.8399 28.5915 52.2293 28.652 52.5872 28.7812C53.006 28.8691 53.4773 28.8369 53.9502 28.686C54.1828 28.6118 54.399 28.5198 54.6022 28.4332L54.6047 28.4322C54.8345 28.3326 55.0471 28.2419 55.2537 28.1849C55.5231 28.1088 55.7908 28.0478 56.0555 28.0037C57.1914 27.7813 56.4545 28.7745 55.5615 29.1992C55.1706 29.3444 54.7803 29.4791 54.3891 29.5868C54.1155 29.6663 53.8406 29.7308 53.5672 29.7787C53.2954 29.828 53.0252 29.8607 52.7567 29.8782C52.4623 29.8064 52.1628 29.7441 51.8595 29.6896C51.5591 29.6349 51.2506 29.5898 50.9413 29.5524C50.6306 29.5165 50.3175 29.4884 50.0008 29.4696C49.6825 29.4495 49.3635 29.4398 49.0408 29.4381C48.7305 29.4577 48.4256 29.4544 48.1262 29.4281C47.8327 29.3997 47.5461 29.3483 47.2711 29.2748C46.9621 29.1893 46.6376 29.1337 46.3066 29.1057C45.9709 29.0765 45.6261 29.0797 45.279 29.107L45.1777 29.1159C44.8354 29.1473 44.5013 29.1706 44.1693 29.1831C43.8376 29.1986 43.5107 29.2002 43.1876 29.194C42.8499 29.1935 42.5194 29.1714 42.2006 29.1288C41.8773 29.0866 41.5642 29.0224 41.2626 28.9363C40.9762 28.8533 40.7186 28.7213 40.5004 28.5424C40.4497 28.4943 40.4032 28.4428 40.3606 28.3851C40.3356 28.3557 40.3139 28.3306 40.2924 28.3085C40.2818 28.296 40.2713 28.2848 40.2612 28.2739C40.2441 28.2556 40.228 28.2383 40.214 28.2178C40.1374 28.115 40.0833 27.9937 40.0609 27.8576C40.0119 27.5379 40.0136 27.1971 40.0653 26.8445C40.0867 26.5921 40.1315 26.3316 40.1789 26.0679C40.1859 26.0267 40.1933 25.9851 40.2007 25.943C40.2123 25.8777 40.2241 25.8116 40.2347 25.7449L40.1614 25.9194C40.1468 25.9484 40.1368 25.977 40.1264 26.0066C40.125 26.0107 40.1235 26.0147 40.1221 26.0189C40.0206 26.2648 39.9263 26.5071 39.84 26.7562C39.7425 27.0303 39.6359 27.3037 39.5233 27.5776C39.4105 27.8485 39.2902 28.1201 39.1638 28.3907C39.039 28.6612 38.9063 28.9279 38.7662 29.1967C38.6291 29.4638 38.4828 29.7301 38.3304 29.994C38.0859 30.4235 37.8647 30.8285 37.6745 31.2097C37.4815 31.5927 37.318 31.9535 37.1828 32.294C37.0475 32.6344 36.9421 32.9557 36.865 33.258C36.7864 33.5604 36.738 33.8467 36.7179 34.1141C36.6993 34.3827 36.7081 34.637 36.7487 34.878C36.7877 35.1177 36.8569 35.3427 36.9582 35.5574C37.058 35.7722 37.1868 35.9755 37.3478 36.17C37.5102 36.3628 37.7005 36.5487 37.9247 36.7271C38.1989 36.9462 38.5216 37.119 38.8651 37.272C39.21 37.4249 39.5798 37.5531 39.9511 37.6811L39.9877 37.6941C40.3891 37.8367 40.7924 37.9799 41.1673 38.1539C41.5565 38.3328 41.9171 38.5444 42.2174 38.8212C42.5174 39.095 42.7633 39.4366 42.9186 39.8731C42.9947 40.0915 43.0504 40.3342 43.0802 40.6061C43.1083 40.8752 43.1105 41.1751 43.0826 41.5076C43.4213 41.0579 43.7101 40.5855 43.945 40.0984C44.071 39.8233 44.1828 39.5404 44.2752 39.2593C44.3483 39.2889 44.4177 39.3278 44.4816 39.3717L44.8905 39.6901L45.2063 39.0983C45.463 38.6017 45.6064 38.0806 45.6177 37.5919C45.6277 37.141 45.585 36.7036 45.4864 36.2966C45.394 35.9101 45.2902 35.5291 45.1722 35.1583C45.0556 34.7859 44.9261 34.4207 44.7824 34.0642C44.6638 33.7205 44.5741 33.3637 44.5176 32.9921C44.4567 32.6223 44.4306 32.2375 44.4365 31.8424C44.4182 31.5304 44.4686 31.1974 44.5895 30.8643C44.7047 30.5346 44.8879 30.211 45.123 29.9144L45.144 29.914C45.4434 29.8893 45.7392 29.892 46.0248 29.915C46.3136 29.9407 46.5882 29.9917 46.8572 30.0657C47.1607 30.1562 47.4838 30.2135 47.8159 30.2369C48.0681 30.2554 48.3229 30.2526 48.564 30.248C48.6131 30.249 48.6615 30.2485 48.7097 30.2481C48.7427 30.2477 48.7756 30.2474 48.8086 30.2476C49.1195 30.2519 49.4323 30.2605 49.7386 30.2802C50.0464 30.2998 50.3519 30.3271 50.6523 30.3653C50.954 30.4005 51.2504 30.4451 51.5448 30.5003C51.839 30.5526 52.1308 30.6126 52.4162 30.6851L52.4637 30.6795L52.5054 30.6758C52.813 30.6594 53.1263 30.6215 53.4381 30.5672C53.7514 30.5128 54.069 30.4385 54.3836 30.3465C54.6941 30.2608 55.0023 30.1648 55.3124 30.0567C55.6212 29.9501 55.9288 29.8302 56.2342 29.703L56.3037 29.6744L56.3671 29.6268C56.6265 29.4196 56.8706 29.1912 57.0951 28.945C57.3169 28.702 57.5205 28.4396 57.6989 28.163C57.8745 27.8895 58.0284 27.6075 58.1502 27.3193C58.272 27.0311 58.365 26.7394 58.4281 26.4488C58.4554 26.2979 58.4774 26.1549 58.4889 26.0114L58.5055 25.6528L58.5655 25.5845C58.6805 25.4575 58.7917 25.3232 58.8923 25.1869C59.0816 24.9152 59.2424 24.6266 59.367 24.3351C59.4278 24.1903 59.4838 24.0414 59.526 23.8891C59.583 23.7011 59.5965 23.5124 59.5709 23.3391C59.5006 23.0331 59.336 22.7805 59.0902 22.6129ZM48.4179 20.7575C48.5187 20.7607 48.6244 20.7514 48.7322 20.7315C49.0893 20.6627 49.4309 20.5203 49.6893 20.3357C49.9477 20.151 50.1228 19.9227 50.1467 19.682C50.1456 19.5321 50.1857 19.3725 50.2683 19.2198C50.3434 19.0662 50.4601 18.9254 50.5957 18.8115C50.62 18.7974 50.6391 18.7762 50.6525 18.757L50.6542 18.7529C50.6636 18.7311 50.6724 18.7105 50.6705 18.6894C50.6728 18.6637 50.6653 18.6464 50.6503 18.6297C50.6357 18.6175 50.6183 18.607 50.5972 18.6058C50.2233 18.5335 49.848 18.4793 49.4609 18.4457C49.0767 18.4103 48.6823 18.3953 48.2837 18.4002C48.017 18.422 47.4119 18.5199 47.0507 19.5703C47.0484 19.5761 47.05 19.5816 47.052 19.5883L47.0524 19.5896C47.0501 19.5973 47.0536 19.603 47.0601 19.6085C47.0608 19.6091 47.0614 19.6097 47.0621 19.6102C47.066 19.6137 47.0694 19.6167 47.0757 19.6161C47.0821 19.62 47.091 19.6193 47.0997 19.6155L47.1281 19.6145C47.2933 19.411 47.5061 19.2529 47.7378 19.1576C47.8778 19.1453 47.9125 19.3028 47.6946 19.8125C47.4797 20.3234 47.7206 20.7795 48.4179 20.7575ZM63.3658 15.2669C63.8492 15.2531 64.3343 15.2407 64.3343 15.2407C64.3629 15.2427 64.3852 15.2572 64.4007 15.2799C64.4146 15.3012 64.4187 15.3308 64.4123 15.3614C64.4057 15.389 64.3876 15.4221 64.3658 15.4465C64.3395 15.4728 64.3112 15.4918 64.2803 15.499C64.2803 15.499 63.784 15.5709 63.2878 15.6443C62.7916 15.7177 62.2953 15.7897 62.2953 15.7897C62.1532 15.8126 62.0078 15.8823 61.888 15.9873C61.7699 16.0952 61.6796 16.2291 61.6381 16.3723C61.6381 16.3723 61.5009 16.8284 61.3641 17.2875C61.2271 17.7451 61.0915 18.2025 61.0915 18.2025C61.0779 18.2352 61.0564 18.2641 61.0298 18.286C61.0001 18.3066 60.9685 18.3228 60.9386 18.3239C60.9075 18.3282 60.8811 18.3185 60.8601 18.3008C60.842 18.2829 60.8323 18.2582 60.8327 18.2282C60.8327 18.2282 60.8846 17.775 60.9352 17.325C60.9856 16.872 61.0379 16.4233 61.0379 16.4233C61.0514 16.2856 61.0148 16.1598 60.9364 16.0691C60.8567 15.9815 60.7355 15.9336 60.6022 15.9363C60.6022 15.9363 60.1157 15.9488 59.6338 15.9625C59.1518 15.9762 58.6698 15.9883 58.6698 15.9883C58.641 15.9848 58.6173 15.9719 58.6005 15.9509C58.585 15.9282 58.5809 15.8986 58.5872 15.868C58.5934 15.836 58.6103 15.806 58.6367 15.7812C58.6615 15.7565 58.6913 15.7374 58.7222 15.7302L59.7131 15.5835C60.2078 15.5102 60.7042 15.4383 60.7042 15.4383C60.8435 15.4186 60.989 15.3503 61.1102 15.2437C61.23 15.1372 61.3201 15.0018 61.3599 14.8558C61.3599 14.8558 61.4985 14.3995 61.6355 13.9419C61.7737 13.4812 61.9094 13.0253 61.9094 13.0253C61.9201 12.9928 61.9445 12.9637 61.9725 12.9402C61.9977 12.92 62.0312 12.9081 62.0624 12.9053C62.0922 12.9027 62.1198 12.9093 62.1395 12.9286C62.1573 12.9436 62.1702 12.9709 62.1683 13.0011C62.1683 13.0011 62.1165 13.4542 62.0658 13.9043C62.0153 14.3558 61.9646 14.8059 61.9646 14.8059C61.9483 14.9453 61.9834 15.0713 62.063 15.1588C62.1445 15.2492 62.2642 15.2973 62.4018 15.2927C62.4018 15.2927 62.8838 15.2791 63.3658 15.2669Z"
    fill="#002522" />
</svg>