<svg width="32" height="32" viewBox="0 0 32 32" fill="none" xmlns="http://www.w3.org/2000/svg">
  <path
    d="M27.0894 6.07236C25.0498 5.11316 22.8626 4.40646 20.5759 4.0017C20.5342 3.99389 20.4926 4.01341 20.4712 4.05245C20.1899 4.56523 19.8783 5.23419 19.6601 5.75999C17.2005 5.38257 14.7536 5.38257 12.3444 5.75999C12.1262 5.2225 11.8033 4.56523 11.5208 4.05245C11.4993 4.01471 11.4577 3.99519 11.4161 4.0017C9.13055 4.40516 6.94341 5.11186 4.90258 6.07236C4.88491 6.08017 4.86977 6.0932 4.85972 6.11011C0.711189 12.4627 -0.425267 18.6591 0.13224 24.7787C0.134763 24.8086 0.15116 24.8372 0.173864 24.8554C2.91095 26.9157 5.56228 28.1664 8.16437 28.9954C8.20602 29.0085 8.25014 28.9929 8.27664 28.9577C8.89217 28.0962 9.44086 27.1877 9.9113 26.2324C9.93906 26.1764 9.91256 26.1101 9.85582 26.0879C8.98551 25.7495 8.1568 25.337 7.35964 24.8685C7.29659 24.8307 7.29154 24.7383 7.34954 24.694C7.5173 24.5652 7.68509 24.4311 7.84527 24.2958C7.87425 24.2711 7.91464 24.2658 7.94871 24.2815C13.1857 26.7322 18.8554 26.7322 24.0306 24.2815C24.0647 24.2645 24.1051 24.2698 24.1353 24.2945C24.2955 24.4298 24.4633 24.5652 24.6323 24.694C24.6903 24.7383 24.6865 24.8307 24.6235 24.8685C23.8263 25.3461 22.9976 25.7495 22.126 26.0866C22.0693 26.1088 22.044 26.1764 22.0718 26.2324C22.5523 27.1864 23.101 28.0948 23.7052 28.9564C23.7304 28.9929 23.7758 29.0085 23.8175 28.9954C26.4322 28.1664 29.0835 26.9157 31.8206 24.8554C31.8446 24.8372 31.8597 24.8099 31.8622 24.7799C32.5294 17.705 30.7447 11.5594 27.131 6.1114C27.1221 6.0932 27.107 6.08017 27.0894 6.07236ZM10.6934 21.0525C9.11666 21.0525 7.81751 19.5688 7.81751 17.7467C7.81751 15.9246 9.09147 14.4409 10.6934 14.4409C12.3078 14.4409 13.5944 15.9376 13.5692 17.7467C13.5692 19.5688 12.2952 21.0525 10.6934 21.0525ZM21.3263 21.0525C19.7497 21.0525 18.4505 19.5688 18.4505 17.7467C18.4505 15.9246 19.7244 14.4409 21.3263 14.4409C22.9408 14.4409 24.2274 15.9376 24.2022 17.7467C24.2022 19.5688 22.9408 21.0525 21.3263 21.0525Z"
    fill="#22C480" />
</svg>