<svg width="32" height="33" viewBox="0 0 32 33" fill="none" xmlns="http://www.w3.org/2000/svg">
  <path
    d="M20.708 28.0198C20.708 28.3737 20.5674 28.7131 20.3172 28.9633C20.067 29.2135 19.7276 29.3541 19.3737 29.3541H2.66856C1.96081 29.3541 1.28205 29.073 0.781602 28.5725C0.281151 28.0721 0 27.3933 0 26.6856V2.66856C0 1.96081 0.281151 1.28205 0.781602 0.781602C1.28205 0.281151 1.96081 0 2.66856 0L21.3484 0C22.0562 0 22.7349 0.281151 23.2354 0.781602C23.7358 1.28205 24.017 1.96081 24.017 2.66856V8.20581C24.017 8.55968 23.8764 8.89906 23.6262 9.14929C23.376 9.39951 23.0366 9.54009 22.6827 9.54009C22.3288 9.54009 21.9895 9.39951 21.7392 9.14929C21.489 8.89906 21.3484 8.55968 21.3484 8.20581V4.00283C21.3484 3.64896 21.2079 3.30958 20.9576 3.05936C20.7074 2.80913 20.368 2.66856 20.0142 2.66856H4.00283C3.64896 2.66856 3.30958 2.80913 3.05936 3.05936C2.80913 3.30958 2.66856 3.64896 2.66856 4.00283V25.3513C2.66856 25.7052 2.80913 26.0445 3.05936 26.2948C3.30958 26.545 3.64896 26.6856 4.00283 26.6856H19.347C19.5245 26.682 19.7009 26.7139 19.8658 26.7794C20.0308 26.8448 20.1811 26.9425 20.3078 27.0668C20.4345 27.191 20.5352 27.3393 20.6039 27.503C20.6727 27.6666 20.708 27.8423 20.708 28.0198Z"
    fill="#22C480" />
  <path
    d="M18.9067 6.67142C18.9032 6.93575 18.7967 7.18828 18.6097 7.37521C18.4228 7.56214 18.1703 7.66868 17.906 7.67213H10.6742C10.4088 7.67213 10.1542 7.5667 9.96656 7.37903C9.77889 7.19136 9.67346 6.93683 9.67346 6.67142C9.67346 6.40602 9.77889 6.15149 9.96656 5.96382C10.1542 5.77615 10.4088 5.67072 10.6742 5.67072H17.8526C17.988 5.66536 18.123 5.68718 18.2499 5.7349C18.3767 5.78262 18.4926 5.85527 18.5909 5.94855C18.6891 6.04184 18.7677 6.15387 18.8219 6.27802C18.8762 6.40218 18.905 6.53595 18.9067 6.67142Z"
    fill="#22C480" />
  <path
    d="M6.49797 8.00547C6.23408 8.00547 5.97611 7.92722 5.75669 7.7806C5.53727 7.63399 5.36625 7.42561 5.26526 7.1818C5.16427 6.93799 5.13785 6.66971 5.18933 6.41089C5.24082 6.15206 5.3679 5.91432 5.5545 5.72772C5.7411 5.54111 5.97885 5.41404 6.23767 5.36255C6.49649 5.31107 6.76477 5.33749 7.00858 5.43848C7.25239 5.53947 7.46077 5.71049 7.60739 5.92991C7.754 6.14933 7.83225 6.4073 7.83225 6.67119C7.83225 7.02507 7.69168 7.36444 7.44145 7.61467C7.19123 7.86489 6.85185 8.00547 6.49797 8.00547Z"
    fill="#22C480" />
  <path
    d="M14.5302 11.3413C14.5268 11.6057 14.4202 11.8582 14.2333 12.0451C14.0464 12.2321 13.7939 12.3386 13.5295 12.3421H10.6742C10.4088 12.3421 10.1542 12.2366 9.96656 12.049C9.77889 11.8613 9.67346 11.6068 9.67346 11.3413C9.67346 11.0759 9.77889 10.8214 9.96656 10.6337C10.1542 10.4461 10.4088 10.3406 10.6742 10.3406H13.4762C13.6115 10.3353 13.7466 10.3571 13.8734 10.4048C14.0002 10.4525 14.1162 10.5252 14.2144 10.6185C14.3127 10.7118 14.3913 10.8238 14.4455 10.9479C14.4997 11.0721 14.5286 11.2059 14.5302 11.3413Z"
    fill="#22C480" />
  <path
    d="M6.49797 12.6754C6.23408 12.6754 5.97611 12.5971 5.75669 12.4505C5.53727 12.3039 5.36625 12.0955 5.26526 11.8517C5.16427 11.6079 5.13785 11.3396 5.18933 11.0808C5.24082 10.822 5.3679 10.5842 5.5545 10.3976C5.7411 10.211 5.97885 10.084 6.23767 10.0325C6.49649 9.98099 6.76477 10.0074 7.00858 10.1084C7.25239 10.2094 7.46077 10.3804 7.60739 10.5998C7.754 10.8193 7.83225 11.0772 7.83225 11.3411C7.83225 11.695 7.69168 12.0344 7.44145 12.2846C7.19123 12.5348 6.85185 12.6754 6.49797 12.6754Z"
    fill="#22C480" />
  <path
    d="M22.5759 12.7025C22.6231 12.6753 22.6626 12.6365 22.6906 12.5898C22.7186 12.5431 22.7343 12.4901 22.7361 12.4356C22.7361 12.382 22.7242 12.3289 22.7011 12.2804C22.678 12.232 22.6444 12.1893 22.6026 12.1554C22.1325 11.8752 21.6053 11.7044 21.0602 11.6559C20.515 11.6074 19.9659 11.6824 19.4537 11.8753C18.3176 12.2277 17.2907 12.8652 16.4709 13.7271C15.6511 14.589 15.0657 15.6464 14.7704 16.7987C14.7514 16.8639 14.7527 16.9333 14.7742 16.9976C14.7957 17.062 14.8362 17.1183 14.8905 17.159C14.9449 17.1981 15.0103 17.2191 15.0773 17.2191C15.1443 17.2191 15.2097 17.1981 15.2641 17.159L22.5759 12.7025Z"
    fill="#22C480" />
  <path
    d="M12.8224 20.8413C12.7924 20.7947 12.7508 20.7566 12.7017 20.7309C12.6526 20.7052 12.5976 20.6926 12.5422 20.6945C12.4888 20.6936 12.4361 20.7067 12.3893 20.7325C12.3425 20.7582 12.3032 20.7957 12.2754 20.8413L10.3807 23.8701C10.3159 23.9767 10.2816 24.099 10.2816 24.2237C10.2816 24.3484 10.3159 24.4707 10.3807 24.5773C10.4406 24.6756 10.5249 24.7568 10.6254 24.8129C10.7259 24.869 10.8393 24.8982 10.9544 24.8975L14.5036 24.5906C14.5563 24.5831 14.6066 24.5636 14.6506 24.5335C14.6946 24.5034 14.731 24.4636 14.7571 24.4172C14.7866 24.369 14.8022 24.3135 14.8022 24.257C14.8022 24.2005 14.7866 24.1451 14.7571 24.0969L12.8224 20.8413Z"
    fill="#22C480" />
  <path
    d="M31.6625 32.0227C31.7109 32.0223 31.7587 32.0113 31.8024 31.9906C31.8462 31.9698 31.885 31.9398 31.916 31.9026C31.9485 31.867 31.9727 31.8245 31.9865 31.7783C32.0004 31.7321 32.0036 31.6834 31.996 31.6357C31.7425 29.9412 30.6617 23.0563 28.4202 19.0935C28.3763 19.0166 28.3047 18.9593 28.22 18.9334C28.1782 18.9142 28.1326 18.9043 28.0866 18.9043C28.0405 18.9043 27.995 18.9142 27.9532 18.9334L23.9503 21.3885C23.8644 21.4213 23.7694 21.4213 23.6835 21.3885L19.774 20.2944C19.5788 20.2216 19.3707 20.1896 19.1626 20.2005C18.9545 20.2115 18.7509 20.265 18.5644 20.3579C18.3779 20.4508 18.2124 20.581 18.0783 20.7404C17.9442 20.8999 17.8443 21.0852 17.7847 21.2849C17.7252 21.4846 17.7073 21.6944 17.7322 21.9012C17.7571 22.1081 17.8242 22.3077 17.9294 22.4875C18.0346 22.6674 18.1757 22.8237 18.3438 22.9468C18.5119 23.0699 18.7035 23.1571 18.9068 23.2031L21.9222 24.1905C21.9793 24.2085 22.0305 24.2415 22.0704 24.2861C22.1103 24.3307 22.1375 24.3853 22.1491 24.444C22.321 25.2832 22.7348 26.0538 23.3394 26.6608C23.9439 27.2677 24.7129 27.6845 25.5515 27.8597C25.5842 27.8667 25.6142 27.883 25.6379 27.9067C25.6616 27.9304 25.6779 27.9604 25.6849 27.9932L26.0318 31.6491C26.0385 31.7328 26.0766 31.811 26.1385 31.8679C26.2003 31.9248 26.2813 31.9562 26.3654 31.956L31.6625 32.0227Z"
    fill="#22C480" />
  <path
    d="M16.5851 20.988C16.7665 20.4032 17.1294 19.8915 17.6212 19.5268C18.113 19.1622 18.7081 18.9636 19.3204 18.9599C19.5907 18.9608 19.8598 18.9967 20.1209 19.0666L23.3099 19.9739C23.3517 19.9931 23.3972 20.0031 23.4433 20.0031C23.4893 20.0031 23.5349 19.9931 23.5767 19.9739L24.6041 19.3468L28.4335 16.9985C29.0398 16.6353 29.4773 16.0464 29.6499 15.3609C29.8225 14.6755 29.7161 13.9497 29.3541 13.3426C29.1777 13.0405 28.9409 12.778 28.6585 12.5714C28.3762 12.3648 28.0543 12.2185 27.713 12.1417C27.3714 12.0566 27.0163 12.0399 26.6683 12.0925C26.3202 12.1452 25.986 12.2662 25.6849 12.4486L14.01 19.5336C13.9365 19.5804 13.8842 19.654 13.8642 19.7387C13.8443 19.8235 13.8583 19.9127 13.9032 19.9873L16.3316 23.9901C16.3754 24.0671 16.447 24.1244 16.5317 24.1502C16.614 24.1777 16.703 24.1777 16.7852 24.1502L16.972 24.0435C17.0429 23.9845 17.0941 23.9054 17.1188 23.8167C17.1292 23.7268 17.1054 23.6363 17.0521 23.5632C16.7736 23.2028 16.5858 22.7807 16.5045 22.3325C16.4233 21.8844 16.4509 21.4232 16.5851 20.988Z"
    fill="#22C480" />
</svg>