<svg width="40" height="29" viewBox="0 0 40 29" fill="none" xmlns="http://www.w3.org/2000/svg">
  <path
    d="M17.8304 24.1204C18.532 24.1204 18.953 24.6816 18.953 25.2429C18.953 25.9444 18.3917 26.3654 17.8304 26.3654C17.1289 26.3654 16.7079 25.8041 16.7079 25.2429C16.7079 24.6816 17.1289 24.1204 17.8304 24.1204ZM36.2115 16.9644C35.51 16.9644 35.089 16.4031 35.089 15.8418C35.089 15.2806 35.6503 14.7193 36.2115 14.7193C36.9131 14.7193 37.334 15.2806 37.334 15.8418C37.334 16.4031 36.7728 16.9644 36.2115 16.9644ZM36.2115 12.1937C34.2471 12.1937 32.5634 13.8775 32.5634 15.8418C32.5634 16.2628 32.5634 16.6837 32.7037 16.9644L20.777 23.2785C20.0755 22.2963 18.953 21.735 17.8304 21.735C16.4273 21.735 15.1645 22.5769 14.6032 23.6994L3.93939 18.0869C2.81688 17.5256 1.975 15.5612 2.11532 13.8775C2.11532 13.0356 2.53626 12.334 2.9572 12.0534C3.23783 11.9131 3.65877 11.9131 3.93939 12.0534H4.07971C6.88598 13.5968 16.287 18.3675 16.5676 18.6481C17.1289 18.9287 17.5498 19.0691 18.532 18.5078L37.755 8.54554C38.0356 8.40523 38.3162 8.1246 38.3162 7.70366C38.3162 7.1424 37.755 6.86178 37.755 6.86178C36.6325 6.30052 34.9487 5.59895 33.4053 4.75707C29.8974 3.07331 25.9686 1.24923 24.1446 0.407347C22.6011 -0.434535 21.4786 0.267033 21.198 0.407347L20.777 0.547661C12.9195 4.47644 2.39594 9.66805 1.83469 9.94868C0.71218 10.6502 0.150927 11.9131 0.0106129 13.4565C-0.129701 15.9822 1.13312 18.6481 3.09751 19.6303L14.4629 25.5235C14.7435 27.3476 16.287 28.6104 17.9708 28.6104C19.9351 28.6104 21.6189 27.0669 21.6189 25.1025L34.1068 18.3675C34.8084 18.9287 35.51 19.0691 36.3518 19.0691C38.3162 19.0691 40 17.3853 40 15.4209C39.7194 13.7371 38.1759 12.1937 36.2115 12.1937Z"
    fill="#22C480" />
</svg>