<svg width="198" height="195" viewBox="0 0 198 195" fill="none" xmlns="http://www.w3.org/2000/svg">
  <path
    d="M183.423 109.479L184.27 100.676C184.294 100.513 184.506 100.513 184.529 100.676L185.377 109.479C185.447 110.247 186.083 110.853 186.86 110.899L197.876 111.551C198.041 111.551 198.041 111.808 197.876 111.808L186.836 112.483C186.059 112.53 185.424 113.135 185.353 113.903L184.506 122.706C184.482 122.869 184.27 122.869 184.247 122.706L183.399 113.903C183.329 113.135 182.693 112.53 181.916 112.483L170.9 111.831C170.735 111.831 170.735 111.575 170.9 111.575L181.94 110.899C182.717 110.853 183.329 110.247 183.423 109.479Z"
    fill="#667C7A" />
  <path
    d="M170.83 141.326L171.581 133.746C171.602 133.606 171.79 133.606 171.811 133.746L172.562 141.326C172.625 141.988 173.188 142.509 173.877 142.549L183.641 143.111C183.787 143.111 183.787 143.332 183.641 143.332L173.856 143.913C173.167 143.953 172.604 144.475 172.541 145.136L171.79 152.716C171.769 152.857 171.581 152.857 171.561 152.716L170.809 145.136C170.747 144.475 170.184 143.953 169.495 143.913L159.73 143.352C159.584 143.352 159.584 143.131 159.73 143.131L169.516 142.549C170.204 142.509 170.747 141.988 170.83 141.326Z"
    fill="#667C7A" />
  <path
    d="M34.2635 14.8745L35.6887 0.203761C35.7283 -0.0679202 36.0846 -0.0679202 36.1242 0.203761L37.5495 14.8745C37.6682 16.1553 38.7371 17.1644 40.0436 17.242L58.5715 18.3288C58.8486 18.3288 58.8486 18.7557 58.5715 18.7557L40.004 19.8812C38.6975 19.9588 37.6286 20.9679 37.5099 22.2487L36.0846 36.9195C36.045 37.1912 35.6887 37.1912 35.6492 36.9195L34.2239 22.2487C34.1052 20.9679 33.0362 19.9588 31.7298 19.8812L13.2019 18.7945C12.9247 18.7945 12.9247 18.3676 13.2019 18.3676L31.7694 17.242C33.0758 17.1644 34.1052 16.1553 34.2635 14.8745Z"
    fill="#667C7A" />
  <path
    d="M8.62277 45.548L9.20056 39.6796C9.21661 39.571 9.36106 39.571 9.37711 39.6796L9.95491 45.548C10.0031 46.0603 10.4364 46.4639 10.966 46.495L18.4774 46.9296C18.5897 46.9296 18.5897 47.1004 18.4774 47.1004L10.95 47.5506C10.4204 47.5817 9.98701 47.9853 9.93886 48.4976L9.36106 54.3659C9.34501 54.4746 9.20056 54.4746 9.18451 54.3659L8.60672 48.4976C8.55857 47.9853 8.12523 47.5817 7.59558 47.5506L0.0842616 47.1159C-0.0280872 47.1159 -0.0280872 46.9452 0.0842616 46.9452L7.61163 46.495C8.14128 46.4639 8.55857 46.0603 8.62277 45.548Z"
    fill="#667C7A" />
  <g filter="url(#filter0_f_697_11922)">
    <path
      d="M47.7846 172.301C43.1071 171.27 40.7684 170.754 43.771 170.326C44.1767 170.268 44.6487 170.212 45.1835 170.158C45.6679 170.109 46.2037 170.062 46.7881 170.017C51.5647 169.649 60.293 169.511 77.7497 169.235C95.2063 168.959 103.935 168.82 111.184 168.998C113.05 169.043 114.807 169.103 116.41 169.176C122.634 169.458 124.973 169.974 129.651 171.005C134.328 172.036 136.667 172.552 133.664 172.98C133.297 173.033 132.875 173.084 132.401 173.133C131.878 173.187 131.292 173.239 130.647 173.289C125.871 173.657 117.142 173.795 99.6856 174.071C82.229 174.348 73.5007 174.486 66.2515 174.308C64.3853 174.263 62.6284 174.203 61.0258 174.13C54.8008 173.848 52.4621 173.332 47.7846 172.301Z"
      fill="#001413" />
  </g>
  <path
    d="M55.9823 133.31C57.9322 134.806 60.0699 136.04 62.3407 136.981L64.6846 132.921C62.4138 131.98 60.2761 130.746 58.3262 129.25L55.9823 133.31Z"
    fill="#B6792B" />
  <path
    d="M62.3405 136.981C71.1608 140.635 81.781 137.789 103.021 132.096L105.365 128.037C84.1249 133.729 73.5046 136.575 64.6844 132.922L62.3405 136.981Z"
    fill="#B6792B" />
  <path
    d="M55.9821 133.31C48.4076 127.498 45.5621 116.876 39.8711 95.634L42.2151 91.5741C47.9061 112.816 50.7516 123.438 58.3261 129.25L55.9821 133.31Z"
    fill="#B6792B" />
  <path
    d="M103.021 132.097L103.021 132.097L105.365 128.037L105.365 128.037C126.606 122.345 137.226 119.499 143.038 111.924L140.694 115.984C134.882 123.559 124.262 126.405 103.021 132.097Z"
    fill="#B6792B" />
  <path
    d="M34.988 54.9483C31.3339 63.7697 34.1794 74.3909 39.8704 95.6332L42.2144 91.5732C36.5234 70.3309 33.6779 59.7097 37.332 50.8883L34.988 54.9483Z"
    fill="#B6792B" />
  <path
    d="M34.9875 54.9483C35.4811 53.7566 36.0555 52.6016 36.7062 51.4912L38.8682 47.7464C38.9282 47.641 38.9888 47.5359 39.0501 47.4313L38.8682 47.7464C38.2919 48.7597 37.7785 49.809 37.3314 50.8884L34.9875 54.9483Z"
    fill="#B6792B" />
  <path
    d="M142.828 112.767C142.192 113.886 141.479 114.961 140.694 115.984L143.038 111.924C143.749 110.997 144.401 110.028 144.99 109.022L145.172 108.707C145.112 108.813 145.052 108.918 144.99 109.022L142.828 112.767Z"
    fill="#B6792B" />
  <path
    d="M36.7061 51.4915C37.2955 50.4857 37.9475 49.5164 38.6587 48.5895L41.0026 44.5296C40.2914 45.4565 39.6394 46.4258 39.05 47.4316L36.7061 51.4915Z"
    fill="#B6792B" />
  <path
    d="M142.828 112.767C143.404 111.754 143.918 110.705 144.365 109.625L146.709 105.565C146.262 106.645 145.748 107.694 145.172 108.707L142.828 112.767Z"
    fill="#B6792B" />
  <path
    d="M38.6582 48.5896C44.4703 41.0149 55.0906 38.1688 76.331 32.4766L78.6749 28.4169C57.4344 34.1091 46.8142 36.9553 41.002 44.5299L38.6582 48.5896Z"
    fill="#B6792B" />
  <path
    d="M139.482 68.9405L139.482 68.9405L141.826 64.8805L141.826 64.8806C147.517 86.1229 150.362 96.744 146.708 105.565L144.364 109.625C148.018 100.804 145.173 90.1828 139.482 68.9405Z"
    fill="#B6792B" />
  <path
    d="M117.012 27.5921C108.192 23.9387 97.5714 26.7848 76.3309 32.4771L78.6748 28.4174C99.9152 22.7252 110.535 19.879 119.356 23.5324L117.012 27.5921Z"
    fill="#B6792B" />
  <path
    d="M123.37 31.2644C130.945 37.0766 133.79 47.6978 139.481 68.9402L141.825 64.8802C136.134 43.6379 133.289 33.0167 125.714 27.2044L123.37 31.2644Z"
    fill="#B6792B" />
  <path
    d="M123.37 31.2641C121.42 29.7678 119.283 28.5335 117.012 27.5929L119.356 23.5331C121.627 24.4737 123.764 25.7079 125.714 27.2042L123.37 31.2641Z"
    fill="#B6792B" />
  <rect width="103.128" height="103.131" rx="51.5642"
    transform="matrix(0.965914 -0.258862 0.258776 0.965937 26.5258 45.8262)" fill="#B6792B" />
  <path fill-rule="evenodd" clip-rule="evenodd"
    d="M76.331 32.4767C55.0928 38.1683 44.4726 41.0144 38.66 48.5873L38.6586 48.5898C38.3874 48.9432 38.1248 49.3028 37.871 49.6682C37.6816 50.0704 37.5016 50.4774 37.3313 50.8886L34.9874 54.9485C35.481 53.7569 36.0554 52.6019 36.7061 51.4914L38.8681 47.7466L38.8625 47.7565L39.0499 47.4319C39.6388 46.4269 40.2903 45.4583 41.0008 44.5321L41.002 44.53C46.8141 36.9554 57.4344 34.1092 78.6748 28.417L76.331 32.4767ZM39.05 47.4316C38.9887 47.5362 38.9281 47.6412 38.8681 47.7466L39.05 47.4316ZM39.7832 95.3086C34.1504 74.2826 31.3525 63.7249 34.9878 54.9486L37.3319 50.8886C34.6377 57.3927 35.4769 64.8751 38.3847 76.8717C40.5655 56.2697 55.1257 38.1615 76.3323 32.4782C103.701 25.1434 131.829 41.2672 139.37 68.5246C133.753 47.559 130.895 37.0386 123.37 31.2644L123.37 31.2641L125.714 27.2044C133.289 33.0167 136.134 43.6378 141.825 64.8802L139.482 68.938C139.483 68.9383 139.483 68.9387 139.483 68.939L141.826 64.8806C147.517 86.1229 150.362 96.744 146.708 105.565L144.364 109.625C147.998 100.853 145.204 90.3002 139.576 69.2919C145.071 90.3892 136.667 111.884 120.005 124.005C131.85 120.525 138.751 117.511 143.037 111.926L143.038 111.924C143.309 111.571 143.571 111.212 143.825 110.847C144.014 110.444 144.194 110.037 144.365 109.625L146.709 105.566C146.262 106.645 145.748 107.694 145.172 108.708L145.172 108.707C145.112 108.813 145.052 108.918 144.99 109.022L144.987 109.028L142.828 112.767C142.192 113.886 141.479 114.96 140.694 115.983L140.694 115.984C134.882 123.559 124.262 126.405 103.021 132.097L103.021 132.097C81.7809 137.789 71.1607 140.635 62.3405 136.982L64.6843 132.922C69.7509 135.02 75.4113 134.974 83.3374 133.476C69.5269 131.762 56.913 124.481 48.5212 113.379C51.1863 120.989 53.9765 125.912 58.3261 129.25L55.982 133.31C48.4561 127.535 45.5987 117.012 39.9802 96.0412C39.9428 95.9061 39.9059 95.7707 39.8696 95.635C39.8404 95.5262 39.8117 95.4174 39.7832 95.3086ZM123.37 31.2641C121.42 29.7678 119.283 28.5336 117.012 27.593L119.356 23.5331C121.627 24.4737 123.764 25.7079 125.714 27.2042L123.37 31.2641ZM55.9822 133.31C57.9321 134.806 60.0698 136.041 62.3406 136.981L64.6845 132.921C62.4137 131.981 60.276 130.746 58.3261 129.25L55.9822 133.31ZM117.012 27.5922C108.192 23.9388 97.5713 26.7849 76.3309 32.4772L78.6747 28.4175C99.9152 22.7253 110.535 19.8791 119.356 23.5325L117.012 27.5922Z"
    fill="url(#paint0_linear_697_11922)" />
  <path
    d="M42.2138 91.5749C36.5229 70.3328 33.6774 59.7118 37.3312 50.8906C37.8248 49.699 38.3992 48.544 39.0499 47.4335C39.6393 46.4277 40.2912 45.4584 41.0024 44.5315C46.8145 36.9565 57.4349 34.1104 78.6756 28.4181C99.9163 22.7258 110.537 19.8796 119.357 23.5333C121.628 24.4739 123.766 25.7081 125.715 27.2045C133.29 33.0167 136.135 43.6378 141.826 64.8798C147.517 86.1219 150.362 96.743 146.709 105.564C146.262 106.644 145.748 107.693 145.172 108.706C144.536 109.825 143.823 110.9 143.037 111.923C137.225 119.498 126.605 122.344 105.364 128.037C84.1235 133.729 73.5032 136.575 64.6828 132.922C62.412 131.981 60.2743 130.747 58.3244 129.25C50.7502 123.438 47.9048 112.817 42.2138 91.5749Z"
    fill="#D08E39" />
  <path
    d="M42.2138 91.5749C36.5229 70.3328 33.6774 59.7118 37.3312 50.8906C37.8248 49.699 38.3992 48.544 39.0499 47.4335C39.6393 46.4277 40.2912 45.4584 41.0024 44.5315C46.8145 36.9565 57.4349 34.1104 78.6756 28.4181C99.9163 22.7258 110.537 19.8796 119.357 23.5333C121.628 24.4739 123.766 25.7081 125.715 27.2045C133.29 33.0167 136.135 43.6378 141.826 64.8798C147.517 86.1219 150.362 96.743 146.709 105.564C146.262 106.644 145.748 107.693 145.172 108.706C144.536 109.825 143.823 110.9 143.037 111.923C137.225 119.498 126.605 122.344 105.364 128.037C84.1235 133.729 73.5032 136.575 64.6828 132.922C62.412 131.981 60.2743 130.747 58.3244 129.25C50.7502 123.438 47.9048 112.817 42.2138 91.5749Z"
    fill="url(#paint1_linear_697_11922)" />
  <path
    d="M42.2138 91.5749C36.5229 70.3328 33.6774 59.7118 37.3312 50.8906C37.8248 49.699 38.3992 48.544 39.0499 47.4335C39.6393 46.4277 40.2912 45.4584 41.0024 44.5315C46.8145 36.9565 57.4349 34.1104 78.6756 28.4181C99.9163 22.7258 110.537 19.8796 119.357 23.5333C121.628 24.4739 123.766 25.7081 125.715 27.2045C133.29 33.0167 136.135 43.6378 141.826 64.8798C147.517 86.1219 150.362 96.743 146.709 105.564C146.262 106.644 145.748 107.693 145.172 108.706C144.536 109.825 143.823 110.9 143.037 111.923C137.225 119.498 126.605 122.344 105.364 128.037C84.1235 133.729 73.5032 136.575 64.6828 132.922C62.412 131.981 60.2743 130.747 58.3244 129.25C50.7502 123.438 47.9048 112.817 42.2138 91.5749Z"
    fill="url(#paint2_linear_697_11922)" />
  <g opacity="0.8">
    <mask id="mask0_697_11922" style="mask-type:alpha" maskUnits="userSpaceOnUse" x="16" y="14" width="144"
      height="136">
      <path fill-rule="evenodd" clip-rule="evenodd"
        d="M81.9515 127.377C87.5901 126.524 94.6005 124.646 103.989 122.129C113.378 119.613 120.388 117.734 125.698 115.653C131.001 113.576 134.562 111.314 137.081 108.059C138.439 106.305 139.553 104.375 140.393 102.322C141.953 98.5131 142.131 94.2977 141.279 88.6666C140.426 83.0278 138.548 76.0171 136.033 66.6279C133.517 57.2387 131.639 50.2283 129.559 44.9182C127.482 39.6155 125.22 36.0539 121.966 33.5353C120.211 32.1778 118.282 31.0637 116.229 30.2233C112.421 28.664 108.206 28.4863 102.575 29.3388C96.9363 30.1925 89.9258 32.0707 80.537 34.587C71.1481 37.1032 64.1379 38.9825 58.8281 41.063C53.5255 43.1406 49.9639 45.4025 47.4451 48.6575C46.0876 50.4118 44.9734 52.3416 44.1329 54.3945C42.5735 58.2033 42.3954 62.4187 43.2475 68.0497C44.1007 73.6885 45.9782 80.6992 48.4936 90.0884C51.0089 99.4777 52.8876 106.488 54.9676 111.798C57.0447 117.101 59.3061 120.662 62.5607 123.181C64.3148 124.539 66.2445 125.653 68.2971 126.493C72.1056 128.052 76.3207 128.23 81.9515 127.377ZM43.7714 54.2465C40.5772 62.048 43.0902 71.4285 48.1162 90.1896C53.1423 108.951 55.6553 118.331 62.3216 123.49C64.1036 124.869 66.0638 126.001 68.1491 126.855C75.9499 130.048 85.3301 127.535 104.09 122.507C122.851 117.479 132.231 114.965 137.39 108.298C138.769 106.516 139.901 104.555 140.755 102.47C143.949 94.6683 141.436 85.2878 136.41 66.5268C131.384 47.7657 128.871 38.3852 122.205 33.2263C120.423 31.8473 118.462 30.7155 116.377 29.8618C108.576 26.6679 99.1962 29.1818 80.4359 34.2096C61.6755 39.2374 52.2953 41.7513 47.1362 48.4184C45.7571 50.2006 44.6253 52.161 43.7714 54.2465Z"
        fill="#B6792B" />
      <path fill-rule="evenodd" clip-rule="evenodd"
        d="M155.616 115.577L16.8762 35.4673L17.0715 35.1289L155.811 115.238L155.616 115.577Z" fill="#B6792B" />
      <path fill-rule="evenodd" clip-rule="evenodd"
        d="M125.961 19.986L58.5653 136.73L58.2271 136.535L125.623 19.7906L125.961 19.986Z" fill="#B6792B" />
      <path fill-rule="evenodd" clip-rule="evenodd"
        d="M47.1154 30.5989L78.962 149.464L78.5846 149.565L46.738 30.7001L47.1154 30.5989Z" fill="#B6792B" />
      <path fill-rule="evenodd" clip-rule="evenodd"
        d="M77.3005 22.5101L109.147 141.375L108.77 141.477L76.9231 22.6112L77.3005 22.5101Z" fill="#B6792B" />
      <path fill-rule="evenodd" clip-rule="evenodd"
        d="M107.485 14.4212L139.332 133.287L138.954 133.388L107.108 14.5223L107.485 14.4212Z" fill="#B6792B" />
      <path fill-rule="evenodd" clip-rule="evenodd"
        d="M41.0121 124.043L159.865 92.1935L159.966 92.5708L41.1132 124.421L41.0121 124.043Z" fill="#B6792B" />
      <path fill-rule="evenodd" clip-rule="evenodd"
        d="M33.0253 94.2324L151.879 62.3825L151.98 62.7598L33.1264 94.6097L33.0253 94.2324Z" fill="#B6792B" />
      <path fill-rule="evenodd" clip-rule="evenodd"
        d="M24.9372 64.0444L143.79 32.1945L143.891 32.5718L25.0382 64.4217L24.9372 64.0444Z" fill="#B6792B" />
      <path fill-rule="evenodd" clip-rule="evenodd"
        d="M82.511 117.932C87.3828 117.277 93.4827 115.643 101.664 113.451C109.846 111.258 115.945 109.623 120.492 107.753C125.028 105.887 127.965 103.808 129.861 100.759C130.072 100.419 130.273 100.072 130.461 99.7187C132.154 96.5524 132.486 92.9694 131.833 88.1078C131.18 83.2359 129.546 77.1357 127.354 68.9538C125.162 60.772 123.527 54.6721 121.658 50.1259C119.793 45.5894 117.714 42.6524 114.666 40.7567C114.326 40.5452 113.979 40.3448 113.625 40.156C110.459 38.4638 106.877 38.1321 102.015 38.7849C97.1435 39.4391 91.0435 41.0732 82.8619 43.2658C74.6804 45.4585 68.5808 47.094 64.0347 48.9637C59.4982 50.8295 56.5613 52.9084 54.6655 55.9573C54.4539 56.2975 54.2536 56.6445 54.0647 56.9978C52.3723 60.1641 52.0404 63.7471 52.6928 68.6087C53.3466 73.4806 54.9801 79.5808 57.172 87.7627C59.3639 95.9445 60.9988 102.044 62.8681 106.591C64.7334 111.127 66.812 114.064 69.8605 115.96C70.2007 116.171 70.5477 116.372 70.9009 116.56C74.0669 118.253 77.6496 118.584 82.511 117.932ZM53.7202 56.8137C50.2271 63.3488 52.4163 71.5205 56.7946 87.8638C61.173 104.207 63.3621 112.379 69.6542 116.292C70.0016 116.508 70.356 116.712 70.7168 116.905C77.2513 120.398 85.4227 118.208 101.765 113.828C118.108 109.448 126.279 107.258 130.192 100.966C130.408 100.618 130.613 100.264 130.806 99.9028C134.299 93.3677 132.11 85.196 127.732 68.8527C123.353 52.5094 121.164 44.3377 114.872 40.425C114.525 40.2089 114.17 40.0043 113.809 39.8115C107.275 36.3187 99.1035 38.5086 82.7608 42.8885C66.4181 47.2683 58.2468 49.4583 54.3338 55.751C54.1177 56.0984 53.9131 56.4528 53.7202 56.8137Z"
        fill="#B6792B" />
    </mask>
    <g mask="url(#mask0_697_11922)">
      <path
        d="M42.2134 91.575C36.5226 70.3331 33.6773 59.7121 37.3311 50.8909C37.8247 49.6993 38.3992 48.5443 39.0499 47.4339C39.6393 46.428 40.2913 45.4588 41.0024 44.5319C46.8147 36.9569 57.4352 34.1106 78.6761 28.4181C99.917 22.7256 110.537 19.8793 119.358 23.5329C121.629 24.4734 123.766 25.7077 125.716 27.204C133.29 33.0161 136.136 43.637 141.826 64.8789C147.517 86.1208 150.363 96.7418 146.709 105.563C146.262 106.642 145.748 107.692 145.172 108.705C144.536 109.824 143.823 110.899 143.037 111.922C137.225 119.497 126.605 122.343 105.364 128.036C84.1229 133.728 73.5024 136.575 64.682 132.921C62.4112 131.98 60.2736 130.746 58.3236 129.25C50.7495 123.438 47.9041 112.817 42.2134 91.575Z"
        fill="#E3BB88" />
    </g>
  </g>
  <mask id="path-36-inside-1_697_11922" fill="white">
    <path
      d="M121.519 45.3089L116.695 46.3031C116.351 46.3717 115.993 46.3151 115.686 46.1433C115.379 45.9715 115.143 45.6958 115.02 45.3656L113.422 41.0688C113.389 40.9987 113.333 40.9424 113.263 40.9098C113.193 40.8771 113.114 40.8702 113.04 40.8901C112.965 40.9101 112.9 40.9557 112.856 41.0189C112.812 41.0822 112.791 41.1591 112.798 41.2362L113.552 45.7588C113.615 46.1068 113.55 46.4656 113.37 46.7689C113.189 47.0722 112.905 47.2994 112.57 47.4086L107.9 48.98C107.831 49.0128 107.775 49.0692 107.742 49.1393C107.71 49.2094 107.703 49.2888 107.723 49.3635C107.743 49.4383 107.789 49.5036 107.852 49.5481C107.915 49.5926 107.992 49.6134 108.068 49.6069L112.893 48.6127C113.237 48.5462 113.594 48.6038 113.9 48.7753C114.207 48.9468 114.443 49.2213 114.568 49.5502L116.166 53.847C116.198 53.9171 116.255 53.9734 116.325 54.006C116.395 54.0387 116.474 54.0456 116.548 54.0257C116.623 54.0057 116.688 53.9601 116.732 53.8969C116.776 53.8336 116.797 53.7567 116.79 53.6796L116.026 49.1596C115.967 48.8121 116.034 48.4552 116.214 48.153C116.394 47.8507 116.675 47.6227 117.008 47.5099L121.687 45.9358C121.757 45.903 121.813 45.8466 121.846 45.7765C121.878 45.7064 121.885 45.627 121.865 45.5523C121.845 45.4775 121.799 45.4122 121.736 45.3677C121.673 45.3232 121.596 45.3024 121.519 45.3089Z" />
  </mask>
  <path
    d="M121.519 45.3089L116.695 46.3031C116.351 46.3717 115.993 46.3151 115.686 46.1433C115.379 45.9715 115.143 45.6958 115.02 45.3656L113.422 41.0688C113.389 40.9987 113.333 40.9424 113.263 40.9098C113.193 40.8771 113.114 40.8702 113.04 40.8901C112.965 40.9101 112.9 40.9557 112.856 41.0189C112.812 41.0822 112.791 41.1591 112.798 41.2362L113.552 45.7588C113.615 46.1068 113.55 46.4656 113.37 46.7689C113.189 47.0722 112.905 47.2994 112.57 47.4086L107.9 48.98C107.831 49.0128 107.775 49.0692 107.742 49.1393C107.71 49.2094 107.703 49.2888 107.723 49.3635C107.743 49.4383 107.789 49.5036 107.852 49.5481C107.915 49.5926 107.992 49.6134 108.068 49.6069L112.893 48.6127C113.237 48.5462 113.594 48.6038 113.9 48.7753C114.207 48.9468 114.443 49.2213 114.568 49.5502L116.166 53.847C116.198 53.9171 116.255 53.9734 116.325 54.006C116.395 54.0387 116.474 54.0456 116.548 54.0257C116.623 54.0057 116.688 53.9601 116.732 53.8969C116.776 53.8336 116.797 53.7567 116.79 53.6796L116.026 49.1596C115.967 48.8121 116.034 48.4552 116.214 48.153C116.394 47.8507 116.675 47.6227 117.008 47.5099L121.687 45.9358C121.757 45.903 121.813 45.8466 121.846 45.7765C121.878 45.7064 121.885 45.627 121.865 45.5523C121.845 45.4775 121.799 45.4122 121.736 45.3677C121.673 45.3232 121.596 45.3024 121.519 45.3089Z"
    fill="#D08E39" />
  <path
    d="M121.519 45.3089L121.435 44.3124L121.376 44.3174L121.318 44.3294L121.519 45.3089ZM116.695 46.3031L116.89 47.2839L116.897 47.2826L116.695 46.3031ZM115.02 45.3656L114.082 45.7141L114.083 45.7148L115.02 45.3656ZM113.422 41.0688L114.36 40.7202L114.345 40.6817L114.328 40.6444L113.422 41.0688ZM112.798 41.2362L111.801 41.3215L111.805 41.3614L111.811 41.4009L112.798 41.2362ZM113.552 45.7588L112.566 45.9235L112.568 45.9368L113.552 45.7588ZM112.57 47.4086L112.26 46.4577L112.251 46.4608L112.57 47.4086ZM107.9 48.98L107.582 48.0322L107.527 48.0505L107.475 48.075L107.9 48.98ZM108.068 49.6069L108.152 50.6034L108.212 50.5984L108.27 50.5863L108.068 49.6069ZM112.893 48.6127L112.703 47.6307L112.691 47.6332L112.893 48.6127ZM114.568 49.5502L115.505 49.2017L115.503 49.1955L114.568 49.5502ZM116.166 53.847L115.228 54.1956L115.243 54.2341L115.26 54.2714L116.166 53.847ZM116.79 53.6796L117.787 53.5943L117.783 53.5533L117.776 53.5127L116.79 53.6796ZM116.026 49.1596L115.04 49.3258L115.04 49.3265L116.026 49.1596ZM117.008 47.5099L116.689 46.562L116.687 46.5628L117.008 47.5099ZM121.687 45.9358L122.006 46.8836L122.061 46.8653L122.113 46.8408L121.687 45.9358ZM121.318 44.3294L116.493 45.3237L116.897 47.2826L121.721 46.2883L121.318 44.3294ZM116.5 45.3224C116.389 45.3444 116.274 45.3264 116.174 45.2706L115.198 47.016C115.712 47.3038 116.312 47.3991 116.89 47.2839L116.5 45.3224ZM116.174 45.2706C116.075 45.2148 115.997 45.1248 115.957 45.0163L114.083 45.7148C114.288 46.2668 114.683 46.7282 115.198 47.016L116.174 45.2706ZM115.957 45.017L114.36 40.7202L112.485 41.4173L114.082 45.7141L115.957 45.017ZM114.328 40.6444C114.196 40.3627 113.969 40.1357 113.686 40.0037L112.84 41.8159C112.697 41.7492 112.583 41.6348 112.517 41.4931L114.328 40.6444ZM113.686 40.0037C113.404 39.8716 113.083 39.8432 112.781 39.9242L113.298 41.856C113.145 41.8971 112.983 41.8826 112.84 41.8159L113.686 40.0037ZM112.781 39.9242C112.479 40.0051 112.215 40.1901 112.036 40.4458L113.675 41.5921C113.585 41.7213 113.452 41.815 113.298 41.856L112.781 39.9242ZM112.036 40.4458C111.858 40.7015 111.775 41.0115 111.801 41.3215L113.794 41.1509C113.807 41.3067 113.766 41.4629 113.675 41.5921L112.036 40.4458ZM111.811 41.4009L112.566 45.9235L114.539 45.5942L113.784 41.0715L111.811 41.4009ZM112.568 45.9368C112.588 46.0478 112.567 46.1617 112.511 46.2574L114.229 47.2804C114.533 46.7695 114.642 46.1657 114.536 45.5809L112.568 45.9368ZM112.511 46.2574C112.454 46.3529 112.365 46.4238 112.26 46.4577L112.88 48.3594C113.446 48.1751 113.925 47.7915 114.229 47.2804L112.511 46.2574ZM112.251 46.4608L107.582 48.0322L108.219 49.9278L112.889 48.3564L112.251 46.4608ZM107.475 48.075C107.192 48.2079 106.966 48.4362 106.835 48.7194L108.65 49.5592C108.584 49.7022 108.469 49.8177 108.326 49.885L107.475 48.075ZM106.835 48.7194C106.704 49.0023 106.677 49.322 106.757 49.6224L108.689 49.1047C108.729 49.2556 108.716 49.4165 108.65 49.5592L106.835 48.7194ZM106.757 49.6224C106.838 49.9229 107.021 50.186 107.276 50.3656L108.428 48.7306C108.556 48.8211 108.648 48.9536 108.689 49.1047L106.757 49.6224ZM107.276 50.3656C107.531 50.5453 107.841 50.6297 108.152 50.6034L107.984 48.6104C108.142 48.5971 108.299 48.6399 108.428 48.7306L107.276 50.3656ZM108.27 50.5863L113.094 49.5921L112.691 47.6332L107.867 48.6275L108.27 50.5863ZM113.082 49.5945C113.194 49.5729 113.311 49.5915 113.412 49.648L114.389 47.9026C113.877 47.6161 113.28 47.5194 112.703 47.6308L113.082 49.5945ZM113.412 49.648C113.513 49.7045 113.591 49.7954 113.633 49.905L115.503 49.1955C115.295 48.6472 114.901 48.1892 114.389 47.9026L113.412 49.648ZM113.631 49.8988L115.228 54.1956L117.103 53.4985L115.505 49.2017L113.631 49.8988ZM115.26 54.2714C115.392 54.5531 115.619 54.7802 115.902 54.9121L116.748 53.0999C116.89 53.1666 117.005 53.281 117.071 53.4227L115.26 54.2714ZM115.902 54.9121C116.184 55.0443 116.505 55.0725 116.807 54.9916L116.289 53.0597C116.442 53.0187 116.605 53.0331 116.748 53.0999L115.902 54.9121ZM116.807 54.9916C117.109 54.9107 117.372 54.726 117.551 54.47L115.913 53.3237C116.003 53.1943 116.136 53.1007 116.289 53.0597L116.807 54.9916ZM117.551 54.47C117.73 54.2143 117.813 53.9043 117.787 53.5943L115.794 53.7649C115.781 53.6091 115.822 53.4529 115.913 53.3237L117.551 54.47ZM117.776 53.5127L117.012 48.9928L115.04 49.3265L115.804 53.8465L117.776 53.5127ZM117.012 48.9935C116.993 48.8792 117.015 48.7626 117.073 48.6645L115.355 47.6414C115.053 48.1479 114.942 48.745 115.04 49.3258L117.012 48.9935ZM117.073 48.6645C117.131 48.5664 117.222 48.4931 117.329 48.4569L116.687 46.5628C116.128 46.7523 115.656 47.135 115.355 47.6414L117.073 48.6645ZM117.327 48.4577L122.006 46.8836L121.369 44.988L116.689 46.562L117.327 48.4577ZM122.113 46.8408C122.396 46.7078 122.622 46.4794 122.753 46.1964L120.938 45.3566C121.004 45.2138 121.119 45.0982 121.262 45.0308L122.113 46.8408ZM122.753 46.1964C122.884 45.9135 122.911 45.5939 122.831 45.2934L120.899 45.8111C120.858 45.6601 120.872 45.4992 120.938 45.3566L122.753 46.1964ZM122.831 45.2934C122.75 44.9929 122.567 44.7298 122.312 44.5503L121.16 46.1852C121.032 46.0947 120.939 45.9622 120.899 45.8111L122.831 45.2934ZM122.312 44.5503C122.057 44.3706 121.747 44.2861 121.435 44.3124L121.603 46.3054C121.446 46.3187 121.289 46.2758 121.16 46.1852L122.312 44.5503Z"
    fill="#B6792B" mask="url(#path-36-inside-1_697_11922)" />
  <mask id="path-38-inside-2_697_11922" fill="white">
    <path fill-rule="evenodd" clip-rule="evenodd"
      d="M115.96 64.5037L116.893 64.851C117.71 65.1344 118.427 65.6498 118.959 66.3345C119.231 66.7255 119.415 67.1709 119.5 67.64C119.56 68.0074 119.599 68.378 119.616 68.75C119.641 69.4861 119.571 70.2221 119.406 70.9395C119.316 71.3081 119.196 71.6686 119.046 72.0171L118.977 72.1956L119.353 73.0441C119.491 73.3858 119.609 73.7351 119.708 74.0903C120.077 75.5036 120.134 76.9802 119.874 78.4168C119.615 79.8533 119.045 81.2151 118.206 82.4068L118.106 82.5508L117.961 82.6431C116.708 83.5136 115.391 84.2872 114.021 84.9573C112.629 85.6647 111.155 86.1993 109.633 86.5492L109.534 86.5758L109.415 86.6076C106.181 86.4567 102.94 86.646 99.7465 87.1723C99.5434 87.2078 99.3383 87.246 99.1308 87.2845C98.5187 87.3983 97.8854 87.5159 97.2208 87.5826C96.3438 87.6759 95.4599 87.6842 94.5811 87.6074C93.0602 87.4954 91.5318 87.6313 90.0551 88.0097L90.0056 88.023C89.7561 88.8094 89.672 89.6395 89.7585 90.4607C89.8449 91.282 90.1002 92.0766 90.5081 92.7945C91.4059 94.6267 92.5742 96.3129 93.9735 97.7959C95.5347 99.3319 97.0007 100.962 98.3634 102.678C99.0938 103.584 99.7156 104.574 100.216 105.626C100.754 106.775 100.998 108.041 100.926 109.307L100.811 110.821L99.3962 110.261C99.1845 110.182 98.9658 110.122 98.743 110.084C98.8323 110.78 98.878 111.48 98.8796 112.181C98.8529 113.411 98.6693 114.632 98.3334 115.815C95.7943 109.571 90.7956 108.926 85.9103 108.296C83.7227 108.014 81.5578 107.735 79.6467 106.958C73.4679 104.443 71.8331 100.007 72.8734 91.1957C73.186 88.4877 73.2088 85.7534 72.9414 83.0396C72.8733 82.4285 72.8278 81.8221 72.802 81.2104C72.7912 81.1268 72.7863 81.0426 72.7876 80.9583L72.7676 80.5264C72.8493 80.7852 72.9266 81.0443 73.0037 81.3025C73.1901 81.9273 73.375 82.5472 73.6182 83.1462C73.8924 83.9787 74.2828 84.7682 74.7778 85.4911C74.9964 85.7958 75.2716 86.0553 75.5883 86.2552C75.6807 86.3187 75.7771 86.3699 75.89 86.4297C75.9681 86.4712 76.054 86.5168 76.1518 86.5735C76.3231 86.6887 76.5031 86.7903 76.6902 86.8772C77.451 87.1928 78.2562 87.3872 79.0764 87.4535C80.8078 87.5842 82.5483 87.4976 84.2575 87.1956C85.9145 86.9542 87.5693 86.5854 89.2153 86.1443L89.4632 86.0779C91.174 85.6327 92.9457 85.4676 94.7099 85.589C96.2833 85.6918 97.8629 85.5562 99.3952 85.1867C102.679 84.6381 106.012 84.4348 109.34 84.5801C110.657 84.2643 111.933 83.797 113.143 83.1875C114.008 82.7639 114.843 82.2733 115.664 81.7654C117.43 80.3855 118.136 77.7433 115.519 78.7646C114.894 78.9794 114.285 79.2388 113.697 79.5408C113.233 79.7608 112.8 80.0682 112.335 80.3972C111.92 80.6909 111.481 81.0019 110.975 81.2834C109.946 81.8373 108.791 82.1172 107.622 82.0966C106.569 81.9573 105.501 81.9879 104.458 82.1873C104.861 81.7858 105.351 81.4829 105.89 81.3024C106.273 81.1567 106.63 81.0759 106.973 80.9982C107.14 80.9604 107.304 80.9233 107.466 80.8799C108.427 80.7488 109.358 80.456 110.221 80.0138C110.647 79.7574 111.05 79.3759 111.486 78.9638C111.835 78.6332 112.205 78.2829 112.625 77.9615C113.542 77.2478 114.587 76.7179 115.704 76.4006L116.378 76.2199C116.868 74.9153 117.207 73.5232 116.683 72.5972C116.267 72.2684 115.763 72.0728 115.236 72.0357C115.096 72.0251 114.829 72.0267 114.483 72.0289C113.219 72.0368 110.899 72.0513 109.841 71.4975C109.034 71.0208 109.061 69.6162 111.515 68.3826C112.654 67.8538 113.863 67.4903 115.105 67.3032C115.537 67.2649 115.951 67.1135 116.305 66.8642L116.122 66.7747L115.224 66.4393L114.306 66.0667L110.721 64.5851C110.136 64.3472 109.519 64.1072 108.961 63.9263L108.686 63.8507L108.166 63.7766C107.824 63.7296 107.477 63.6627 107.127 63.5859C106.041 63.3329 104.993 62.9399 104.008 62.4166C100.447 60.7472 95.6106 55.7078 94.2406 54.0058C93.1622 52.7036 91.6458 51.8425 89.9787 51.5856C90.6998 51.3484 91.4657 51.2799 92.2178 51.3852C92.9699 51.4905 93.6884 51.7668 94.3182 52.1931C94.6235 52.3339 95.2713 52.8863 96.0536 53.5535C97.6326 54.9002 99.7599 56.7144 100.726 56.5553C101.227 56.4006 101.709 56.1892 102.162 55.9251C101.573 55.5982 101.013 55.2201 100.489 54.7951C99.7984 54.2573 99.2177 53.6663 98.6563 53.0951C98.464 52.8993 98.2738 52.7058 98.0824 52.5176C97.42 51.7962 96.6802 51.1503 95.8766 50.5916C95.6968 50.4808 95.5103 50.3811 95.3184 50.2933C95.1209 50.2146 94.9163 50.1551 94.7075 50.1157C94.245 50.0157 93.7805 49.9481 93.2116 49.8873C92.6426 49.8264 92.1385 49.7696 91.5311 49.6444L89.9563 49.3198L86.8172 48.7105C84.7493 48.3186 82.6593 48.0559 80.5593 47.9238C78.4831 47.8052 76.4007 47.9022 74.3452 48.2133C73.8547 48.277 73.3682 48.3682 72.888 48.4865C72.5013 48.579 72.1425 48.7629 71.8414 49.0229C71.6808 49.1519 71.5197 49.3024 71.3465 49.4642C71.133 49.6636 70.9012 49.8801 70.6299 50.0942L69.4222 51.1004C67.8719 52.4864 66.4437 54.0039 65.1534 55.6361C64.084 56.8347 63.2224 58.2047 62.6046 59.6895C63.9908 59.2486 65.4481 59.0752 66.8995 59.1785C65.1048 59.6292 63.3929 60.3616 61.8269 61.3485C61.0572 61.8212 60.3208 62.3464 59.6229 62.9204C58.9174 63.4675 58.2583 64.0722 57.6523 64.7283C57.0437 65.3383 56.5128 66.0215 56.0717 66.7624C55.8937 67.0738 55.7835 67.4196 55.7483 67.777C55.6784 68.1904 55.6291 68.6409 55.5896 69.0888C55.4651 70.917 55.4667 72.7519 55.5942 74.5803C55.8045 78.2327 56.4859 81.8432 57.6216 85.3213C58.5266 88.1331 60.0135 90.7223 61.9846 92.9192C62.7751 90.9902 63.5251 89.0294 64.2301 87.0593C65.1191 84.5066 65.9201 81.9028 66.5669 79.3191C66.9047 77.9698 67.1523 76.5866 67.4025 75.1885C67.6314 73.9093 67.8626 72.6177 68.1671 71.3283C68.4595 69.9578 68.8717 68.6159 69.3991 67.3184C69.6712 66.6484 70.0266 66.0156 70.4568 65.4351C70.8748 64.8408 71.4692 64.3942 72.1554 64.1587C70.4701 66.7541 70.1745 72.5928 70.072 79.073C69.9828 84.3337 68.2587 96.7413 65.3559 97.8072C64.2145 98.1878 63.6487 97.7421 62.5515 96.8203L61.667 96.0974C60.0972 94.8066 58.7504 93.2647 57.6813 91.5341C56.6692 89.8288 55.8455 88.0181 55.225 86.1342C54.6298 84.2772 54.1677 82.3801 53.8422 80.4574C53.5489 78.5445 53.3694 76.6159 53.3046 74.682C53.2298 72.7444 53.2888 70.8041 53.4813 68.8752C53.5424 68.3895 53.6036 67.9038 53.7018 67.3976C53.7541 67.1147 53.8249 66.8356 53.9137 66.5622C54.0184 66.2838 54.1452 66.0144 54.2931 65.7566C54.8316 64.8723 55.4935 64.0701 56.2586 63.374C57.528 62.2124 58.9643 61.2486 60.5195 60.5149C60.7042 59.3666 61.0831 58.2587 61.6399 57.239C62.1849 56.247 62.8141 55.304 63.5205 54.4205C64.8027 52.6642 66.2698 51.0517 67.8965 49.6108C68.2913 49.2597 68.8143 48.8316 69.1656 48.5561C69.3375 48.4213 69.5125 48.2602 69.7036 48.0842C69.9032 47.9005 70.1203 47.7005 70.3699 47.4974C70.8905 47.0578 71.5027 46.7407 72.1618 46.5693C72.7174 46.4277 73.2811 46.3194 73.8497 46.2449C76.0446 45.9149 78.2679 45.8123 80.4844 45.9387C82.6693 46.0715 84.8437 46.3438 86.9945 46.7539L90.1785 47.3724L91.7632 47.6944C92.1182 47.7794 92.5542 47.8275 93.018 47.8787C93.1033 47.8881 93.1895 47.8976 93.2764 47.9074C93.8354 47.9709 94.3673 48.0524 94.9523 48.1729C95.2701 48.2389 95.5824 48.33 95.8861 48.4453C96.1858 48.5778 96.4757 48.7318 96.7535 48.9061C97.7359 49.5252 98.6446 50.255 99.4618 51.0813L99.5598 51.1798C101.064 52.692 102.461 54.0971 104.198 54.6757L105.588 55.1457L105.623 55.275L105.453 55.9498L104.437 56.5208C104.247 56.6405 104.111 56.83 104.058 57.049C104.031 57.158 104.029 57.2714 104.051 57.3814C104.097 57.5999 104.155 57.8158 104.224 58.0283C104.316 58.3653 104.356 58.7144 104.342 59.0633C104.338 59.2559 104.321 59.4236 104.306 59.5661C104.295 59.6694 104.285 59.7595 104.284 59.8362C104.273 59.9133 104.277 59.9919 104.298 60.0671C104.318 60.1424 104.353 60.2128 104.401 60.2741C105.391 60.8724 106.472 61.3033 107.601 61.5495C107.887 61.6224 108.176 61.6727 108.476 61.7204L108.925 61.7706C109.154 61.8087 109.379 61.8661 109.598 61.9422C110.217 62.1365 110.739 62.3481 111.283 62.5681C111.351 62.5958 111.42 62.6236 111.489 62.6515L115.077 64.1431L115.96 64.5037ZM88.4588 65.1117C88.2115 65.2044 87.9558 65.2729 87.6953 65.3163C85.9631 65.6738 84.8156 64.7228 84.7706 63.4443C84.7257 62.1658 84.4505 61.8129 84.1133 61.9033C83.6396 62.2268 83.2842 62.6965 83.1008 63.2412L83.0314 63.2598C83.0141 63.2678 82.9953 63.2717 82.9763 63.2712C82.9573 63.2707 82.9387 63.2658 82.9219 63.2569C82.9051 63.2479 82.8906 63.2352 82.8795 63.2198C82.8684 63.2043 82.861 63.1864 82.8579 63.1676C82.5457 60.5742 83.974 60.0741 84.6185 59.9014C86.625 59.5211 88.6631 59.332 90.7057 59.3367C90.7633 59.3308 90.8213 59.3425 90.8722 59.3702C90.9232 59.3979 90.9645 59.4404 90.991 59.4921C91.0175 59.5438 91.0278 59.6022 91.0207 59.6598C91.0135 59.7175 90.9891 59.7715 90.9508 59.815C90.7351 60.1402 90.6095 60.5172 90.5871 60.9074C90.5646 61.2977 90.6461 61.687 90.823 62.0356C91.2566 63.178 90.1137 64.4655 88.4588 65.1117Z" />
  </mask>
  <path fill-rule="evenodd" clip-rule="evenodd"
    d="M115.96 64.5037L116.893 64.851C117.71 65.1344 118.427 65.6498 118.959 66.3345C119.231 66.7255 119.415 67.1709 119.5 67.64C119.56 68.0074 119.599 68.378 119.616 68.75C119.641 69.4861 119.571 70.2221 119.406 70.9395C119.316 71.3081 119.196 71.6686 119.046 72.0171L118.977 72.1956L119.353 73.0441C119.491 73.3858 119.609 73.7351 119.708 74.0903C120.077 75.5036 120.134 76.9802 119.874 78.4168C119.615 79.8533 119.045 81.2151 118.206 82.4068L118.106 82.5508L117.961 82.6431C116.708 83.5136 115.391 84.2872 114.021 84.9573C112.629 85.6647 111.155 86.1993 109.633 86.5492L109.534 86.5758L109.415 86.6076C106.181 86.4567 102.94 86.646 99.7465 87.1723C99.5434 87.2078 99.3383 87.246 99.1308 87.2845C98.5187 87.3983 97.8854 87.5159 97.2208 87.5826C96.3438 87.6759 95.4599 87.6842 94.5811 87.6074C93.0602 87.4954 91.5318 87.6313 90.0551 88.0097L90.0056 88.023C89.7561 88.8094 89.672 89.6395 89.7585 90.4607C89.8449 91.282 90.1002 92.0766 90.5081 92.7945C91.4059 94.6267 92.5742 96.3129 93.9735 97.7959C95.5347 99.3319 97.0007 100.962 98.3634 102.678C99.0938 103.584 99.7156 104.574 100.216 105.626C100.754 106.775 100.998 108.041 100.926 109.307L100.811 110.821L99.3962 110.261C99.1845 110.182 98.9658 110.122 98.743 110.084C98.8323 110.78 98.878 111.48 98.8796 112.181C98.8529 113.411 98.6693 114.632 98.3334 115.815C95.7943 109.571 90.7956 108.926 85.9103 108.296C83.7227 108.014 81.5578 107.735 79.6467 106.958C73.4679 104.443 71.8331 100.007 72.8734 91.1957C73.186 88.4877 73.2088 85.7534 72.9414 83.0396C72.8733 82.4285 72.8278 81.8221 72.802 81.2104C72.7912 81.1268 72.7863 81.0426 72.7876 80.9583L72.7676 80.5264C72.8493 80.7852 72.9266 81.0443 73.0037 81.3025C73.1901 81.9273 73.375 82.5472 73.6182 83.1462C73.8924 83.9787 74.2828 84.7682 74.7778 85.4911C74.9964 85.7958 75.2716 86.0553 75.5883 86.2552C75.6807 86.3187 75.7771 86.3699 75.89 86.4297C75.9681 86.4712 76.054 86.5168 76.1518 86.5735C76.3231 86.6887 76.5031 86.7903 76.6902 86.8772C77.451 87.1928 78.2562 87.3872 79.0764 87.4535C80.8078 87.5842 82.5483 87.4976 84.2575 87.1956C85.9145 86.9542 87.5693 86.5854 89.2153 86.1443L89.4632 86.0779C91.174 85.6327 92.9457 85.4676 94.7099 85.589C96.2833 85.6918 97.8629 85.5562 99.3952 85.1867C102.679 84.6381 106.012 84.4348 109.34 84.5801C110.657 84.2643 111.933 83.797 113.143 83.1875C114.008 82.7639 114.843 82.2733 115.664 81.7654C117.43 80.3855 118.136 77.7433 115.519 78.7646C114.894 78.9794 114.285 79.2388 113.697 79.5408C113.233 79.7608 112.8 80.0682 112.335 80.3972C111.92 80.6909 111.481 81.0019 110.975 81.2834C109.946 81.8373 108.791 82.1172 107.622 82.0966C106.569 81.9573 105.501 81.9879 104.458 82.1873C104.861 81.7858 105.351 81.4829 105.89 81.3024C106.273 81.1567 106.63 81.0759 106.973 80.9982C107.14 80.9604 107.304 80.9233 107.466 80.8799C108.427 80.7488 109.358 80.456 110.221 80.0138C110.647 79.7574 111.05 79.3759 111.486 78.9638C111.835 78.6332 112.205 78.2829 112.625 77.9615C113.542 77.2478 114.587 76.7179 115.704 76.4006L116.378 76.2199C116.868 74.9153 117.207 73.5232 116.683 72.5972C116.267 72.2684 115.763 72.0728 115.236 72.0357C115.096 72.0251 114.829 72.0267 114.483 72.0289C113.219 72.0368 110.899 72.0513 109.841 71.4975C109.034 71.0208 109.061 69.6162 111.515 68.3826C112.654 67.8538 113.863 67.4903 115.105 67.3032C115.537 67.2649 115.951 67.1135 116.305 66.8642L116.122 66.7747L115.224 66.4393L114.306 66.0667L110.721 64.5851C110.136 64.3472 109.519 64.1072 108.961 63.9263L108.686 63.8507L108.166 63.7766C107.824 63.7296 107.477 63.6627 107.127 63.5859C106.041 63.3329 104.993 62.9399 104.008 62.4166C100.447 60.7472 95.6106 55.7078 94.2406 54.0058C93.1622 52.7036 91.6458 51.8425 89.9787 51.5856C90.6998 51.3484 91.4657 51.2799 92.2178 51.3852C92.9699 51.4905 93.6884 51.7668 94.3182 52.1931C94.6235 52.3339 95.2713 52.8863 96.0536 53.5535C97.6326 54.9002 99.7599 56.7144 100.726 56.5553C101.227 56.4006 101.709 56.1892 102.162 55.9251C101.573 55.5982 101.013 55.2201 100.489 54.7951C99.7984 54.2573 99.2177 53.6663 98.6563 53.0951C98.464 52.8993 98.2738 52.7058 98.0824 52.5176C97.42 51.7962 96.6802 51.1503 95.8766 50.5916C95.6968 50.4808 95.5103 50.3811 95.3184 50.2933C95.1209 50.2146 94.9163 50.1551 94.7075 50.1157C94.245 50.0157 93.7805 49.9481 93.2116 49.8873C92.6426 49.8264 92.1385 49.7696 91.5311 49.6444L89.9563 49.3198L86.8172 48.7105C84.7493 48.3186 82.6593 48.0559 80.5593 47.9238C78.4831 47.8052 76.4007 47.9022 74.3452 48.2133C73.8547 48.277 73.3682 48.3682 72.888 48.4865C72.5013 48.579 72.1425 48.7629 71.8414 49.0229C71.6808 49.1519 71.5197 49.3024 71.3465 49.4642C71.133 49.6636 70.9012 49.8801 70.6299 50.0942L69.4222 51.1004C67.8719 52.4864 66.4437 54.0039 65.1534 55.6361C64.084 56.8347 63.2224 58.2047 62.6046 59.6895C63.9908 59.2486 65.4481 59.0752 66.8995 59.1785C65.1048 59.6292 63.3929 60.3616 61.8269 61.3485C61.0572 61.8212 60.3208 62.3464 59.6229 62.9204C58.9174 63.4675 58.2583 64.0722 57.6523 64.7283C57.0437 65.3383 56.5128 66.0215 56.0717 66.7624C55.8937 67.0738 55.7835 67.4196 55.7483 67.777C55.6784 68.1904 55.6291 68.6409 55.5896 69.0888C55.4651 70.917 55.4667 72.7519 55.5942 74.5803C55.8045 78.2327 56.4859 81.8432 57.6216 85.3213C58.5266 88.1331 60.0135 90.7223 61.9846 92.9192C62.7751 90.9902 63.5251 89.0294 64.2301 87.0593C65.1191 84.5066 65.9201 81.9028 66.5669 79.3191C66.9047 77.9698 67.1523 76.5866 67.4025 75.1885C67.6314 73.9093 67.8626 72.6177 68.1671 71.3283C68.4595 69.9578 68.8717 68.6159 69.3991 67.3184C69.6712 66.6484 70.0266 66.0156 70.4568 65.4351C70.8748 64.8408 71.4692 64.3942 72.1554 64.1587C70.4701 66.7541 70.1745 72.5928 70.072 79.073C69.9828 84.3337 68.2587 96.7413 65.3559 97.8072C64.2145 98.1878 63.6487 97.7421 62.5515 96.8203L61.667 96.0974C60.0972 94.8066 58.7504 93.2647 57.6813 91.5341C56.6692 89.8288 55.8455 88.0181 55.225 86.1342C54.6298 84.2772 54.1677 82.3801 53.8422 80.4574C53.5489 78.5445 53.3694 76.6159 53.3046 74.682C53.2298 72.7444 53.2888 70.8041 53.4813 68.8752C53.5424 68.3895 53.6036 67.9038 53.7018 67.3976C53.7541 67.1147 53.8249 66.8356 53.9137 66.5622C54.0184 66.2838 54.1452 66.0144 54.2931 65.7566C54.8316 64.8723 55.4935 64.0701 56.2586 63.374C57.528 62.2124 58.9643 61.2486 60.5195 60.5149C60.7042 59.3666 61.0831 58.2587 61.6399 57.239C62.1849 56.247 62.8141 55.304 63.5205 54.4205C64.8027 52.6642 66.2698 51.0517 67.8965 49.6108C68.2913 49.2597 68.8143 48.8316 69.1656 48.5561C69.3375 48.4213 69.5125 48.2602 69.7036 48.0842C69.9032 47.9005 70.1203 47.7005 70.3699 47.4974C70.8905 47.0578 71.5027 46.7407 72.1618 46.5693C72.7174 46.4277 73.2811 46.3194 73.8497 46.2449C76.0446 45.9149 78.2679 45.8123 80.4844 45.9387C82.6693 46.0715 84.8437 46.3438 86.9945 46.7539L90.1785 47.3724L91.7632 47.6944C92.1182 47.7794 92.5542 47.8275 93.018 47.8787C93.1033 47.8881 93.1895 47.8976 93.2764 47.9074C93.8354 47.9709 94.3673 48.0524 94.9523 48.1729C95.2701 48.2389 95.5824 48.33 95.8861 48.4453C96.1858 48.5778 96.4757 48.7318 96.7535 48.9061C97.7359 49.5252 98.6446 50.255 99.4618 51.0813L99.5598 51.1798C101.064 52.692 102.461 54.0971 104.198 54.6757L105.588 55.1457L105.623 55.275L105.453 55.9498L104.437 56.5208C104.247 56.6405 104.111 56.83 104.058 57.049C104.031 57.158 104.029 57.2714 104.051 57.3814C104.097 57.5999 104.155 57.8158 104.224 58.0283C104.316 58.3653 104.356 58.7144 104.342 59.0633C104.338 59.2559 104.321 59.4236 104.306 59.5661C104.295 59.6694 104.285 59.7595 104.284 59.8362C104.273 59.9133 104.277 59.9919 104.298 60.0671C104.318 60.1424 104.353 60.2128 104.401 60.2741C105.391 60.8724 106.472 61.3033 107.601 61.5495C107.887 61.6224 108.176 61.6727 108.476 61.7204L108.925 61.7706C109.154 61.8087 109.379 61.8661 109.598 61.9422C110.217 62.1365 110.739 62.3481 111.283 62.5681C111.351 62.5958 111.42 62.6236 111.489 62.6515L115.077 64.1431L115.96 64.5037ZM88.4588 65.1117C88.2115 65.2044 87.9558 65.2729 87.6953 65.3163C85.9631 65.6738 84.8156 64.7228 84.7706 63.4443C84.7257 62.1658 84.4505 61.8129 84.1133 61.9033C83.6396 62.2268 83.2842 62.6965 83.1008 63.2412L83.0314 63.2598C83.0141 63.2678 82.9953 63.2717 82.9763 63.2712C82.9573 63.2707 82.9387 63.2658 82.9219 63.2569C82.9051 63.2479 82.8906 63.2352 82.8795 63.2198C82.8684 63.2043 82.861 63.1864 82.8579 63.1676C82.5457 60.5742 83.974 60.0741 84.6185 59.9014C86.625 59.5211 88.6631 59.332 90.7057 59.3367C90.7633 59.3308 90.8213 59.3425 90.8722 59.3702C90.9232 59.3979 90.9645 59.4404 90.991 59.4921C91.0175 59.5438 91.0278 59.6022 91.0207 59.6598C91.0135 59.7175 90.9891 59.7715 90.9508 59.815C90.7351 60.1402 90.6095 60.5172 90.5871 60.9074C90.5646 61.2977 90.6461 61.687 90.823 62.0356C91.2566 63.178 90.1137 64.4655 88.4588 65.1117Z"
    fill="#D08E39" />
  <path
    d="M116.893 64.851L116.543 65.7882L116.554 65.7921L116.565 65.7959L116.893 64.851ZM115.96 64.5037L115.582 65.4295L115.596 65.4354L115.611 65.4408L115.96 64.5037ZM118.959 66.3345L119.779 65.763L119.764 65.7419L119.749 65.7216L118.959 66.3345ZM119.5 67.64L120.486 67.4771L120.484 67.4633L119.5 67.64ZM119.616 68.75L120.616 68.716L120.615 68.704L119.616 68.75ZM119.406 70.9395L120.377 71.1766L120.38 71.1632L119.406 70.9395ZM119.046 72.0171L118.127 71.6233L118.12 71.6397L118.114 71.6563L119.046 72.0171ZM118.977 72.1956L118.045 71.8347L117.895 72.2217L118.063 72.6009L118.977 72.1956ZM119.353 73.0441L120.281 72.6699L120.274 72.6543L120.267 72.6388L119.353 73.0441ZM119.708 74.0903L120.675 73.8376L120.674 73.8304L120.672 73.8232L119.708 74.0903ZM119.874 78.4168L120.858 78.5945L120.858 78.5945L119.874 78.4168ZM118.206 82.4068L117.388 81.8309L117.383 81.838L118.206 82.4068ZM118.106 82.5508L118.642 83.395L118.813 83.2863L118.928 83.1196L118.106 82.5508ZM117.961 82.6431L117.425 81.7989L117.407 81.81L117.39 81.8219L117.961 82.6431ZM114.021 84.9573L113.582 84.059L113.575 84.0623L113.569 84.0657L114.021 84.9573ZM109.633 86.5492L109.409 85.5746L109.392 85.5786L109.375 85.5832L109.633 86.5492ZM109.534 86.5758L109.793 87.5417L109.534 86.5758ZM109.415 86.6076L109.369 87.6066L109.524 87.6138L109.674 87.5736L109.415 86.6076ZM99.7465 87.1723L99.584 86.1856L99.5743 86.1873L99.7465 87.1723ZM99.1308 87.2845L99.3134 88.2677L99.1308 87.2845ZM97.2208 87.5826L97.1211 86.5875L97.115 86.5882L97.2208 87.5826ZM94.5811 87.6074L94.6682 86.6111L94.6545 86.6101L94.5811 87.6074ZM90.0551 88.0097L89.807 87.0409L89.7964 87.0437L90.0551 88.0097ZM90.0056 88.023L89.7468 87.057L89.218 87.1988L89.0524 87.7207L90.0056 88.023ZM89.7585 90.4607L90.7529 90.3559L90.7529 90.3559L89.7585 90.4607ZM90.5081 92.7945L91.406 92.3544L91.3926 92.327L91.3775 92.3004L90.5081 92.7945ZM93.9735 97.7959L93.2462 98.4822L93.259 98.4958L93.2722 98.5088L93.9735 97.7959ZM98.3634 102.678L97.5804 103.3L97.5846 103.305L98.3634 102.678ZM100.216 105.626L101.122 105.202L101.119 105.196L100.216 105.626ZM100.926 109.307L101.923 109.383L101.924 109.374L101.924 109.364L100.926 109.307ZM100.811 110.821L100.443 111.751L101.705 112.25L101.808 110.897L100.811 110.821ZM99.3962 110.261L99.764 109.331L99.7563 109.328L99.7485 109.325L99.3962 110.261ZM98.743 110.084L98.9112 109.099L97.5789 108.871L97.7512 110.212L98.743 110.084ZM98.8796 112.181L99.8793 112.203L99.8796 112.191L99.8795 112.179L98.8796 112.181ZM98.3334 115.815L97.4071 116.192L98.5015 118.883L99.2953 116.088L98.3334 115.815ZM85.9103 108.296L86.0382 107.305L85.9103 108.296ZM79.6467 106.958L79.2698 107.884L79.6467 106.958ZM72.8734 91.1957L73.8665 91.3129L73.8667 91.3103L72.8734 91.1957ZM72.9414 83.0396L73.9366 82.9414L73.9352 82.9288L72.9414 83.0396ZM72.802 81.2104L73.8011 81.1683L73.7993 81.1247L73.7937 81.0813L72.802 81.2104ZM72.7876 80.9583L73.7875 80.9735L73.788 80.9427L73.7865 80.9118L72.7876 80.9583ZM72.7676 80.5264L73.7211 80.2251L71.7687 80.5729L72.7676 80.5264ZM73.0037 81.3025L72.0454 81.5885L73.0037 81.3025ZM73.6182 83.1462L74.568 82.8333L74.5574 82.8012L74.5447 82.7699L73.6182 83.1462ZM74.7778 85.4911L73.9527 86.0562L73.9589 86.0652L73.9653 86.074L74.7778 85.4911ZM75.5883 86.2552L76.1547 85.431L76.1386 85.4199L76.122 85.4095L75.5883 86.2552ZM75.89 86.4297L76.3587 85.5463L76.3587 85.5463L75.89 86.4297ZM76.1518 86.5735L76.7103 85.7439L76.6825 85.7251L76.6534 85.7083L76.1518 86.5735ZM76.6902 86.8772L76.2691 87.7842L76.2879 87.7929L76.307 87.8009L76.6902 86.8772ZM79.0764 87.4535L78.9958 88.4503L79.0011 88.4507L79.0764 87.4535ZM84.2575 87.1956L84.1134 86.2061L84.0984 86.2082L84.0836 86.2109L84.2575 87.1956ZM89.4632 86.0779L89.2115 85.11L89.2044 85.1119L89.4632 86.0779ZM94.7099 85.589L94.6412 86.5867L94.6446 86.5869L94.7099 85.589ZM99.3952 85.1867L99.2306 84.2003L99.1955 84.2062L99.1609 84.2145L99.3952 85.1867ZM109.34 84.5801L109.296 85.5792L109.436 85.5853L109.573 85.5526L109.34 84.5801ZM113.143 83.1875L112.703 82.2894L112.694 82.2944L113.143 83.1875ZM115.664 81.7654L116.19 82.6157L116.236 82.5871L116.279 82.5535L115.664 81.7654ZM115.519 78.7646L115.844 79.7103L115.863 79.7036L115.882 79.6962L115.519 78.7646ZM113.697 79.5408L114.126 80.4442L114.14 80.4375L114.154 80.4304L113.697 79.5408ZM112.335 80.3972L111.757 79.5812L111.757 79.5812L112.335 80.3972ZM110.975 81.2834L111.449 82.1642L111.461 82.1573L110.975 81.2834ZM107.622 82.0966L107.491 83.088L107.548 83.0955L107.605 83.0965L107.622 82.0966ZM104.458 82.1873L103.752 81.4791L101.442 83.7822L104.646 83.1695L104.458 82.1873ZM105.89 81.3024L106.207 82.2506L106.226 82.2442L106.245 82.2371L105.89 81.3024ZM106.973 80.9982L107.194 81.9735L106.973 80.9982ZM107.466 80.8799L107.331 79.8891L107.269 79.8976L107.208 79.914L107.466 80.8799ZM110.221 80.0138L110.677 80.9037L110.707 80.8883L110.736 80.8709L110.221 80.0138ZM111.486 78.9638L110.799 78.2375L111.486 78.9638ZM112.625 77.9615L113.233 78.7556L113.24 78.7505L112.625 77.9615ZM115.704 76.4006L115.445 75.4346L115.438 75.4366L115.43 75.4386L115.704 76.4006ZM116.378 76.2199L116.637 77.1858L117.133 77.0527L117.314 76.5715L116.378 76.2199ZM116.683 72.5972L117.553 72.1043L117.457 71.9343L117.303 71.813L116.683 72.5972ZM115.236 72.0357L115.16 73.0329L115.166 73.0333L115.236 72.0357ZM114.483 72.0289L114.476 71.0289L114.476 71.0289L114.483 72.0289ZM109.841 71.4975L109.333 72.3588L109.355 72.3717L109.378 72.3835L109.841 71.4975ZM111.515 68.3826L111.094 67.4755L111.08 67.4821L111.066 67.4891L111.515 68.3826ZM115.105 67.3032L115.017 66.3071L114.986 66.3098L114.956 66.3143L115.105 67.3032ZM116.305 66.8642L116.88 67.6823L118.266 66.7082L116.744 65.9655L116.305 66.8642ZM116.122 66.7747L116.561 65.876L116.517 65.8548L116.472 65.838L116.122 66.7747ZM115.224 66.4393L114.848 67.366L114.861 67.3712L114.874 67.3761L115.224 66.4393ZM114.306 66.0667L113.924 66.991L113.93 66.9934L114.306 66.0667ZM110.721 64.5851L111.103 63.6609L111.098 63.6589L110.721 64.5851ZM108.961 63.9263L109.269 62.9749L109.247 62.9679L109.226 62.9619L108.961 63.9263ZM108.686 63.8507L108.95 62.8863L108.889 62.8696L108.827 62.8607L108.686 63.8507ZM108.166 63.7766L108.308 62.7866L108.302 62.7859L108.166 63.7766ZM107.127 63.5859L106.9 64.5599L106.912 64.5626L107.127 63.5859ZM104.008 62.4166L104.477 61.5334L104.455 61.5217L104.432 61.5111L104.008 62.4166ZM94.2406 54.0058L95.0197 53.3787L95.0108 53.3679L94.2406 54.0058ZM89.9787 51.5856L89.6664 50.6357L89.8264 52.574L89.9787 51.5856ZM94.3182 52.1931L93.7577 53.0213L93.8253 53.0671L93.8995 53.1013L94.3182 52.1931ZM96.0536 53.5535L96.7025 52.7926L96.0536 53.5535ZM100.726 56.5553L100.889 57.542L100.956 57.5309L101.021 57.5108L100.726 56.5553ZM102.162 55.9251L102.666 56.7891L104.186 55.9034L102.647 55.0505L102.162 55.9251ZM100.489 54.7951L101.119 54.0184L101.111 54.0123L101.103 54.0063L100.489 54.7951ZM98.6563 53.0951L99.3696 52.3941L99.3696 52.3941L98.6563 53.0951ZM98.0824 52.5176L97.3458 53.194L97.3631 53.2128L97.3813 53.2308L98.0824 52.5176ZM95.8766 50.5916L96.4474 49.7705L96.4248 49.7548L96.4014 49.7404L95.8766 50.5916ZM95.3184 50.2933L95.7346 49.384L95.7118 49.3735L95.6885 49.3642L95.3184 50.2933ZM94.7075 50.1157L94.4961 51.0931L94.5089 51.0959L94.5218 51.0983L94.7075 50.1157ZM93.2116 49.8873L93.318 48.8929L93.318 48.8929L93.2116 49.8873ZM91.5311 49.6444L91.733 48.6649L91.733 48.6649L91.5311 49.6444ZM89.9563 49.3198L90.1582 48.3403L90.1469 48.3381L89.9563 49.3198ZM86.8172 48.7105L87.0078 47.7288L87.0035 47.728L86.8172 48.7105ZM80.5593 47.9238L80.6221 46.9258L80.6164 46.9254L80.5593 47.9238ZM74.3452 48.2133L74.4739 49.2049L74.4844 49.2036L74.4947 49.202L74.3452 48.2133ZM72.888 48.4865L73.1207 49.4591L73.127 49.4575L72.888 48.4865ZM71.8414 49.0229L72.4676 49.8025L72.4814 49.7914L72.4948 49.7798L71.8414 49.0229ZM71.3465 49.4642L72.0291 50.195L72.0291 50.195L71.3465 49.4642ZM70.6299 50.0942L70.0105 49.3091L70 49.3174L69.9898 49.3259L70.6299 50.0942ZM69.4222 51.1004L68.7821 50.3321L68.7687 50.3433L68.7557 50.3549L69.4222 51.1004ZM65.1534 55.6361L65.8995 56.3019L65.9193 56.2797L65.9378 56.2563L65.1534 55.6361ZM62.6046 59.6895L61.6814 59.3054L60.8531 61.296L62.9077 60.6425L62.6046 59.6895ZM66.8995 59.1785L67.143 60.1484L66.9705 58.181L66.8995 59.1785ZM61.8269 61.3485L62.3502 62.2007L62.36 62.1945L61.8269 61.3485ZM59.6229 62.9204L60.2357 63.7106L60.247 63.7018L60.2581 63.6927L59.6229 62.9204ZM57.6523 64.7283L58.3601 65.4347L58.3738 65.421L58.3869 65.4068L57.6523 64.7283ZM56.0717 66.7624L55.2125 66.2509L55.208 66.2585L55.2036 66.2661L56.0717 66.7624ZM55.7483 67.777L56.7343 67.9437L56.7401 67.9094L56.7435 67.8748L55.7483 67.777ZM55.5896 69.0888L54.5935 69.0011L54.5926 69.011L54.592 69.0209L55.5896 69.0888ZM55.5942 74.5803L56.5926 74.5228L56.5918 74.5107L55.5942 74.5803ZM57.6216 85.3213L58.5735 85.0148L58.5722 85.0108L57.6216 85.3213ZM61.9846 92.9192L61.2403 93.5871L62.3053 94.774L62.9099 93.2983L61.9846 92.9192ZM64.2301 87.0593L65.1716 87.3962L65.1744 87.3881L64.2301 87.0593ZM66.5669 79.3191L65.5969 79.0762L65.5969 79.0762L66.5669 79.3191ZM67.4025 75.1885L68.3868 75.3646L68.3868 75.3646L67.4025 75.1885ZM68.1671 71.3283L69.1403 71.5581L69.1428 71.5475L69.1451 71.5369L68.1671 71.3283ZM69.3991 67.3184L70.3255 67.6949L70.3256 67.6946L69.3991 67.3184ZM70.4568 65.4351L71.2601 66.0306L71.2676 66.0206L71.2747 66.0104L70.4568 65.4351ZM72.1554 64.1587L72.9941 64.7033L74.5728 62.2719L71.8309 63.2128L72.1554 64.1587ZM70.072 79.073L71.0718 79.0899L71.0718 79.0887L70.072 79.073ZM65.3559 97.8072L65.6722 98.7559L65.6864 98.7511L65.7006 98.7459L65.3559 97.8072ZM62.5515 96.8203L63.1948 96.0545L63.1843 96.0459L62.5515 96.8203ZM61.667 96.0974L61.0319 96.8699L61.0342 96.8717L61.667 96.0974ZM57.6813 91.5341L56.8213 92.0445L56.8259 92.0522L56.8305 92.0597L57.6813 91.5341ZM55.225 86.1342L54.2727 86.4395L54.2752 86.4471L55.225 86.1342ZM53.8422 80.4574L52.8538 80.609L52.855 80.6167L52.8563 80.6243L53.8422 80.4574ZM53.3046 74.682L54.304 74.6484L54.3038 74.6433L53.3046 74.682ZM53.4813 68.8752L52.4891 68.7503L52.4875 68.7631L52.4862 68.776L53.4813 68.8752ZM53.7018 67.3976L54.6835 67.5879L54.6851 67.5793L53.7018 67.3976ZM53.9137 66.5622L52.9777 66.2103L52.9697 66.2316L52.9627 66.2532L53.9137 66.5622ZM54.2931 65.7566L53.439 65.2364L53.4321 65.2477L53.4256 65.2592L54.2931 65.7566ZM56.2586 63.374L56.9314 64.1137L56.9336 64.1118L56.2586 63.374ZM60.5195 60.5149L60.9462 61.4193L61.4231 61.1943L61.5068 60.6737L60.5195 60.5149ZM61.6399 57.239L60.7635 56.7575L60.7622 56.7598L61.6399 57.239ZM63.5205 54.4205L64.3015 55.0451L64.3152 55.0279L64.3281 55.0102L63.5205 54.4205ZM67.8965 49.6108L68.5595 50.3594L68.561 50.3581L67.8965 49.6108ZM69.1656 48.5561L69.7826 49.3431L69.7826 49.3431L69.1656 48.5561ZM69.7036 48.0842L69.0263 47.3486L69.0263 47.3486L69.7036 48.0842ZM70.3699 47.4974L71.001 48.2731L71.008 48.2674L71.015 48.2615L70.3699 47.4974ZM72.1618 46.5693L71.9149 45.6002L71.9101 45.6015L72.1618 46.5693ZM73.8497 46.2449L73.9795 47.2365L73.9889 47.2352L73.9983 47.2338L73.8497 46.2449ZM80.4844 45.9387L80.5452 44.9405L80.5414 44.9403L80.4844 45.9387ZM86.9945 46.7539L87.1852 45.7722L87.1818 45.7715L86.9945 46.7539ZM90.1785 47.3724L90.3776 46.3924L90.3692 46.3908L90.1785 47.3724ZM91.7632 47.6944L91.9963 46.7219L91.9794 46.7178L91.9623 46.7143L91.7632 47.6944ZM93.018 47.8787L92.9083 48.8727L92.9083 48.8727L93.018 47.8787ZM93.2764 47.9074L93.1634 48.9011L93.1634 48.9011L93.2764 47.9074ZM94.9523 48.1729L95.1555 47.1938L95.1541 47.1935L94.9523 48.1729ZM95.8861 48.4453L96.2905 47.5307L96.266 47.5199L96.2411 47.5104L95.8861 48.4453ZM96.7535 48.9061L97.2866 48.06L97.285 48.059L96.7535 48.9061ZM99.4618 51.0813L98.7508 51.7846L98.7529 51.7867L99.4618 51.0813ZM99.5598 51.1798L100.269 50.4746L100.269 50.4745L99.5598 51.1798ZM104.198 54.6757L104.518 53.7283L104.514 53.727L104.198 54.6757ZM105.588 55.1457L106.554 54.8868L106.416 54.3697L105.908 54.1983L105.588 55.1457ZM105.623 55.275L106.593 55.5192L106.656 55.2672L106.589 55.0162L105.623 55.275ZM105.453 55.9498L105.943 56.8217L106.318 56.611L106.423 56.194L105.453 55.9498ZM104.437 56.5208L103.947 55.649L103.925 55.6611L103.905 55.6743L104.437 56.5208ZM104.058 57.049L103.086 56.8144L103.085 56.8151L104.058 57.049ZM104.051 57.3814L103.07 57.5766L103.073 57.5895L104.051 57.3814ZM104.224 58.0283L105.189 57.7651L105.183 57.7421L105.175 57.7193L104.224 58.0283ZM104.342 59.0633L103.343 59.0239L103.343 59.0337L103.342 59.0435L104.342 59.0633ZM104.306 59.5661L105.3 59.6707L105.3 59.6707L104.306 59.5661ZM104.284 59.8362L105.274 59.9764L105.282 59.9182L105.283 59.8595L104.284 59.8362ZM104.401 60.2741L103.613 60.8906L103.727 61.0351L103.884 61.13L104.401 60.2741ZM107.601 61.5495L107.849 60.5806L107.832 60.5762L107.815 60.5724L107.601 61.5495ZM108.476 61.7204L108.319 62.708L108.342 62.7116L108.365 62.7142L108.476 61.7204ZM108.925 61.7706L109.09 60.7842L109.063 60.7798L109.037 60.7768L108.925 61.7706ZM109.598 61.9422L109.27 62.8869L109.284 62.8918L109.299 62.8963L109.598 61.9422ZM111.283 62.5681L111.658 61.6412L111.658 61.6412L111.283 62.5681ZM111.489 62.6515L111.873 61.728L111.863 61.7241L111.489 62.6515ZM115.077 64.1431L114.693 65.0665L114.699 65.0689L115.077 64.1431ZM87.6953 65.3163L87.531 64.3299L87.512 64.333L87.4932 64.3369L87.6953 65.3163ZM88.4588 65.1117L88.8097 66.0482L88.8224 66.0432L88.4588 65.1117ZM84.7706 63.4443L85.77 63.4091L84.7706 63.4443ZM84.1133 61.9033L83.8545 60.9374L83.69 60.9814L83.5494 61.0775L84.1133 61.9033ZM83.1008 63.2412L83.3596 64.2071L83.8774 64.0684L84.0485 63.5603L83.1008 63.2412ZM83.0314 63.2598L82.7726 62.2939L82.6889 62.3163L82.6102 62.3528L83.0314 63.2598ZM82.9763 63.2712L82.9491 64.2708L82.9492 64.2708L82.9763 63.2712ZM82.9219 63.2569L82.4527 64.14L82.4528 64.14L82.9219 63.2569ZM82.8795 63.2198L82.0672 63.803L82.0672 63.803L82.8795 63.2198ZM82.8579 63.1676L81.8651 63.2872L81.8677 63.309L81.8713 63.3307L82.8579 63.1676ZM84.6185 59.9014L84.4324 58.9189L84.3957 58.9258L84.3597 58.9355L84.6185 59.9014ZM90.7057 59.3367L90.7034 60.3367L90.7555 60.3368L90.8073 60.3315L90.7057 59.3367ZM90.991 59.4921L90.101 59.9481L90.1011 59.9482L90.991 59.4921ZM91.0207 59.6598L92.013 59.7835L92.013 59.7835L91.0207 59.6598ZM90.9508 59.815L90.2011 59.1533L90.1555 59.2049L90.1175 59.2622L90.9508 59.815ZM90.5871 60.9074L91.5854 60.9648L91.5854 60.9648L90.5871 60.9074ZM90.823 62.0356L91.7579 61.6807L91.7389 61.6307L91.7147 61.5829L90.823 62.0356ZM117.242 63.9139L116.309 63.5665L115.611 65.4408L116.543 65.7882L117.242 63.9139ZM119.749 65.7216C119.099 64.8841 118.221 64.2531 117.22 63.9062L116.565 65.7959C117.199 66.0156 117.756 66.4155 118.168 66.9474L119.749 65.7216ZM120.484 67.4633C120.374 66.8524 120.134 66.2723 119.779 65.763L118.138 66.906C118.328 67.1787 118.457 67.4894 118.515 67.8168L120.484 67.4633ZM120.615 68.704C120.596 68.2929 120.553 67.8832 120.486 67.4771L118.513 67.803C118.567 68.1317 118.602 68.4632 118.617 68.7959L120.615 68.704ZM120.38 71.1632C120.565 70.3613 120.644 69.5386 120.616 68.716L118.617 68.784C118.639 69.4335 118.576 70.0829 118.431 70.7158L120.38 71.1632ZM119.965 72.411C120.136 72.0117 120.274 71.5988 120.377 71.1766L118.434 70.7025C118.357 71.0175 118.255 71.3255 118.127 71.6233L119.965 72.411ZM119.91 72.5565L119.979 72.378L118.114 71.6563L118.045 71.8347L119.91 72.5565ZM120.267 72.6388L119.891 71.7903L118.063 72.6009L118.439 73.4494L120.267 72.6388ZM120.672 73.8232C120.563 73.4317 120.433 73.0466 120.281 72.6699L118.426 73.4183C118.55 73.7251 118.656 74.0386 118.744 74.3573L120.672 73.8232ZM120.858 78.5945C121.143 77.0149 121.081 75.3914 120.675 73.8376L118.74 74.3429C119.073 75.6158 119.124 76.9456 118.89 78.2391L120.858 78.5945ZM119.023 82.9827C119.947 81.6718 120.573 80.1741 120.858 78.5945L118.89 78.2391C118.656 79.5326 118.144 80.7584 117.388 81.8309L119.023 82.9827ZM118.928 83.1196L119.028 82.9756L117.383 81.838L117.284 81.982L118.928 83.1196ZM118.497 83.4872L118.642 83.395L117.57 81.7066L117.425 81.7989L118.497 83.4872ZM114.461 85.8556C115.876 85.1632 117.237 84.3638 118.531 83.4643L117.39 81.8219C116.179 82.6634 114.906 83.4112 113.582 84.059L114.461 85.8556ZM109.857 87.5238C111.459 87.1556 113.009 86.5932 114.474 85.8489L113.569 84.0657C112.249 84.7363 110.852 85.2429 109.409 85.5746L109.857 87.5238ZM109.793 87.5417L109.892 87.5151L109.375 85.5832L109.276 85.6098L109.793 87.5417ZM109.674 87.5736L109.793 87.5417L109.276 85.6098L109.157 85.6417L109.674 87.5736ZM99.909 88.159C103.034 87.6441 106.204 87.4589 109.369 87.6066L109.462 85.6087C106.158 85.4545 102.847 85.6479 99.584 86.1856L99.909 88.159ZM99.3134 88.2677C99.5218 88.229 99.7217 88.1918 99.9187 88.1574L99.5743 86.1873C99.3651 86.2238 99.1548 86.2629 98.9481 86.3013L99.3134 88.2677ZM97.3204 88.5776C98.0333 88.5061 98.7067 88.3804 99.3134 88.2677L98.9481 86.3013C98.3306 86.4161 97.7376 86.5257 97.1211 86.5875L97.3204 88.5776ZM94.4939 88.6036C95.4369 88.686 96.3855 88.6771 97.3265 88.577L97.115 86.5882C96.3022 86.6746 95.4828 86.6824 94.6682 86.6112L94.4939 88.6036ZM90.3033 88.9784C91.675 88.6269 93.0948 88.5007 94.5076 88.6047L94.6545 86.6101C93.0257 86.4901 91.3887 86.6356 89.807 87.041L90.3033 88.9784ZM90.2644 88.9889L90.3139 88.9756L89.7964 87.0437L89.7468 87.057L90.2644 88.9889ZM90.7529 90.3559C90.6809 89.6716 90.751 88.9802 90.9588 88.3253L89.0524 87.7207C88.7612 88.6386 88.6631 89.6073 88.764 90.5655L90.7529 90.3559ZM91.3775 92.3004C91.0377 91.7023 90.825 91.0402 90.7529 90.3559L88.764 90.5655C88.8649 91.5238 89.1627 92.4509 89.6386 93.2886L91.3775 92.3004ZM94.7009 97.1096C93.3705 95.6996 92.2597 94.0965 91.406 92.3544L89.6101 93.2346C90.5521 95.157 91.7779 96.9261 93.2462 98.4822L94.7009 97.1096ZM99.1464 102.055C97.7584 100.308 96.2651 98.6476 94.6749 97.083L93.2722 98.5088C94.8043 100.016 96.2431 101.616 97.5804 103.3L99.1464 102.055ZM101.119 105.196C100.585 104.074 99.9216 103.018 99.1423 102.05L97.5846 103.305C98.266 104.151 98.8461 105.074 99.3132 106.056L101.119 105.196ZM101.924 109.364C102.006 107.932 101.73 106.501 101.122 105.202L99.3104 106.05C99.7782 107.049 99.9903 108.149 99.9277 109.251L101.924 109.364ZM101.808 110.897L101.923 109.383L99.929 109.232L99.8137 110.745L101.808 110.897ZM99.0284 111.191L100.443 111.751L101.179 109.891L99.764 109.331L99.0284 111.191ZM98.5748 111.07C98.7348 111.098 98.8919 111.14 99.0439 111.197L99.7485 109.325C99.4772 109.223 99.1968 109.147 98.9112 109.099L98.5748 111.07ZM99.8795 112.179C99.8778 111.436 99.8295 110.694 99.7348 109.957L97.7512 110.212C97.8352 110.866 97.8781 111.524 97.8796 112.183L99.8795 112.179ZM99.2953 116.088C99.6545 114.824 99.8508 113.518 99.8793 112.203L97.8798 112.159C97.855 113.304 97.6841 114.441 97.3715 115.542L99.2953 116.088ZM85.7824 109.288C88.2562 109.607 90.5658 109.913 92.5773 110.856C94.5284 111.77 96.2328 113.304 97.4071 116.192L99.2597 115.438C97.8948 112.082 95.8304 110.171 93.426 109.045C91.082 107.946 88.4496 107.615 86.0382 107.305L85.7824 109.288ZM79.2698 107.884C81.323 108.719 83.623 109.01 85.7824 109.288L86.0382 107.305C83.8224 107.019 81.7927 106.751 80.0237 106.031L79.2698 107.884ZM71.8803 91.0785C71.3544 95.533 71.4778 99.0553 72.6297 101.822C73.8081 104.653 76.0006 106.553 79.2698 107.884L80.0237 106.031C77.1141 104.847 75.3997 103.272 74.4761 101.054C73.5259 98.7711 73.3521 95.6697 73.8664 91.3129L71.8803 91.0785ZM71.9462 83.1377C72.2066 85.7808 72.1844 88.4438 71.88 91.0811L73.8667 91.3103C74.1875 88.5317 74.2109 85.7261 73.9365 82.9415L71.9462 83.1377ZM71.8029 81.2525C71.8296 81.8862 71.8768 82.5155 71.9475 83.1503L73.9352 82.9288C73.8698 82.3416 73.8259 81.7581 73.8011 81.1683L71.8029 81.2525ZM71.7878 80.9431C71.7857 81.0757 71.7933 81.2083 71.8104 81.3396L73.7937 81.0813C73.789 81.0454 73.7869 81.0094 73.7875 80.9735L71.7878 80.9431ZM71.7687 80.5729L71.7887 81.0048L73.7865 80.9118L73.7665 80.4799L71.7687 80.5729ZM73.9619 81.0165C73.8852 80.7595 73.8057 80.4928 73.7211 80.2251L71.814 80.8277C71.893 81.0776 71.968 81.329 72.0454 81.5885L73.9619 81.0165ZM74.5447 82.7699C74.3226 82.2228 74.1507 81.6492 73.9619 81.0165L72.0454 81.5885C72.2295 82.2055 72.4275 82.8716 72.6917 83.5224L74.5447 82.7699ZM75.6029 84.9261C75.1612 84.2809 74.8127 83.5763 74.568 82.8333L72.6684 83.459C72.9721 84.381 73.4045 85.2554 73.9527 86.0562L75.6029 84.9261ZM76.122 85.4095C75.9145 85.2785 75.734 85.1084 75.5904 84.9082L73.9653 86.074C74.2588 86.4833 74.6287 86.8321 75.0546 87.1009L76.122 85.4095ZM76.3587 85.5463C76.2363 85.4814 76.1917 85.4564 76.1547 85.431L75.0219 87.0794C75.1696 87.1809 75.318 87.2583 75.4212 87.3131L76.3587 85.5463ZM76.6534 85.7083C76.5374 85.6411 76.4363 85.5875 76.3587 85.5463L75.4212 87.3131C75.4998 87.3548 75.5706 87.3924 75.6503 87.4386L76.6534 85.7083ZM77.1112 85.9701C76.972 85.9054 76.8379 85.8298 76.7103 85.7439L75.5933 87.403C75.8082 87.5477 76.0341 87.6752 76.2691 87.7842L77.1112 85.9701ZM79.157 86.4568C78.4409 86.3989 77.7379 86.2291 77.0734 85.9535L76.307 87.8009C77.1642 88.1565 78.0714 88.3756 78.9958 88.4503L79.157 86.4568ZM84.0836 86.2109C82.4566 86.4983 80.7999 86.5808 79.1518 86.4563L79.0011 88.4507C80.8157 88.5877 82.6399 88.4969 84.4314 88.1804L84.0836 86.2109ZM88.9565 85.1784C87.3368 85.6124 85.7216 85.9717 84.1134 86.2061L84.4016 88.1852C86.1074 87.9367 87.8018 87.5584 89.4741 87.1102L88.9565 85.1784ZM89.2044 85.1119L88.9565 85.1784L89.4741 87.1102L89.722 87.0438L89.2044 85.1119ZM94.7786 84.5914C92.9067 84.4626 91.0268 84.6377 89.2115 85.1101L89.7149 87.0457C91.3212 86.6277 92.9847 86.4727 94.6412 86.5867L94.7786 84.5914ZM99.1609 84.2145C97.7266 84.5604 96.2481 84.6874 94.7752 84.5911L94.6446 86.5869C96.3186 86.6963 97.9992 86.552 99.6296 86.1588L99.1609 84.2145ZM109.383 83.581C105.986 83.4327 102.584 83.6403 99.2306 84.2003L99.5599 86.173C102.775 85.636 106.038 85.437 109.296 85.5792L109.383 83.581ZM112.694 82.2944C111.552 82.8692 110.349 83.3098 109.107 83.6076L109.573 85.5526C110.965 85.2188 112.314 84.7248 113.593 84.0806L112.694 82.2944ZM115.138 80.9151C114.328 81.416 113.525 81.887 112.703 82.2895L113.583 84.0854C114.491 83.6407 115.358 83.1306 116.19 82.6157L115.138 80.9151ZM115.882 79.6962C116.154 79.5901 116.338 79.5498 116.448 79.5387C116.562 79.5274 116.55 79.551 116.477 79.5177C116.383 79.4745 116.301 79.3884 116.261 79.2955C116.231 79.2243 116.247 79.2007 116.24 79.2657C116.226 79.4054 116.138 79.6807 115.913 80.0301C115.698 80.3653 115.398 80.7045 115.048 80.9774L116.279 82.5535C116.813 82.1364 117.264 81.6278 117.596 81.1114C117.918 80.6092 118.174 80.029 118.23 79.4633C118.287 78.8897 118.132 78.0755 117.31 77.6994C116.647 77.3954 115.863 77.5569 115.155 77.833L115.882 79.6962ZM114.154 80.4304C114.699 80.1502 115.264 79.9096 115.844 79.7103L115.194 77.8189C114.524 78.0492 113.871 78.3274 113.24 78.6512L114.154 80.4304ZM112.913 81.2133C113.393 80.8735 113.755 80.6202 114.126 80.4442L113.268 78.6374C112.712 78.9014 112.206 79.2629 111.757 79.5812L112.913 81.2133ZM111.461 82.1573C112.022 81.8456 112.503 81.5039 112.913 81.2133L111.757 79.5812C111.338 79.878 110.941 80.1582 110.489 80.4095L111.461 82.1573ZM107.605 83.0965C108.945 83.1201 110.268 82.7991 111.449 82.1641L110.502 80.4027C109.623 80.8754 108.638 81.1143 107.64 81.0968L107.605 83.0965ZM104.646 83.1695C105.584 82.9903 106.544 82.9627 107.491 83.088L107.753 81.1053C106.594 80.9519 105.418 80.9856 104.27 81.2051L104.646 83.1695ZM105.572 80.3542C104.887 80.5838 104.264 80.9688 103.752 81.4791L105.164 82.8955C105.458 82.6027 105.815 82.3821 106.207 82.2506L105.572 80.3542ZM106.753 80.0228C106.414 80.0994 105.992 80.1936 105.534 80.3677L106.245 82.2371C106.553 82.1198 106.845 82.0524 107.194 81.9735L106.753 80.0228ZM107.208 79.914C107.068 79.9514 106.923 79.9843 106.753 80.0228L107.194 81.9735C107.358 81.9365 107.541 81.8952 107.725 81.8458L107.208 79.914ZM109.765 79.1238C109.002 79.5145 108.18 79.7732 107.331 79.8891L107.601 81.8707C108.674 81.7243 109.714 81.3974 110.677 80.9037L109.765 79.1238ZM110.799 78.2375C110.342 78.67 110.021 78.9674 109.706 79.1566L110.736 80.8709C111.274 80.5474 111.759 80.0819 112.173 79.6901L110.799 78.2375ZM112.018 77.1673C111.55 77.5254 111.143 77.9114 110.799 78.2375L112.173 79.6901C112.527 79.355 112.861 79.0404 113.233 78.7556L112.018 77.1673ZM115.43 75.4386C114.19 75.7912 113.029 76.3798 112.011 77.1724L113.24 78.7505C114.055 78.1159 114.984 77.6447 115.977 77.3625L115.43 75.4386ZM116.119 75.2539L115.445 75.4346L115.963 77.3665L116.637 77.1858L116.119 75.2539ZM115.813 73.09C115.924 73.2861 115.986 73.6151 115.919 74.1393C115.853 74.6536 115.676 75.2441 115.442 75.8682L117.314 76.5715C117.57 75.8911 117.808 75.1332 117.903 74.3939C117.996 73.6643 117.966 72.8343 117.553 72.1043L115.813 73.09ZM115.166 73.0333C115.492 73.0562 115.804 73.1772 116.062 73.3813L117.303 71.813C116.731 71.3596 116.035 71.0893 115.306 71.0382L115.166 73.0333ZM114.489 73.0289C114.862 73.0266 115.072 73.0262 115.16 73.0329L115.312 71.0386C115.119 71.0239 114.796 71.0269 114.476 71.0289L114.489 73.0289ZM109.378 72.3835C110.107 72.7654 111.139 72.9064 112.011 72.9711C112.927 73.0391 113.861 73.0328 114.489 73.0289L114.476 71.0289C113.84 71.0329 112.983 71.0377 112.159 70.9765C111.29 70.912 110.633 70.7833 110.305 70.6116L109.378 72.3835ZM111.066 67.4891C109.739 68.1562 108.86 68.9675 108.519 69.8716C108.344 70.3381 108.313 70.8345 108.468 71.2995C108.623 71.7638 108.94 72.1267 109.333 72.3588L110.35 70.6363C110.339 70.6299 110.356 70.6385 110.366 70.6668C110.375 70.6958 110.354 70.6746 110.391 70.5761C110.476 70.3503 110.837 69.8425 111.964 69.2761L111.066 67.4891ZM114.956 66.3143C113.62 66.5157 112.32 66.9066 111.094 67.4755L111.936 69.2896C112.989 68.8009 114.106 68.465 115.254 68.2921L114.956 66.3143ZM115.73 66.0461C115.519 66.1944 115.273 66.2843 115.017 66.3071L115.193 68.2993C115.8 68.2455 116.382 68.0326 116.88 67.6823L115.73 66.0461ZM115.683 67.6735L115.867 67.763L116.744 65.9655L116.561 65.876L115.683 67.6735ZM114.874 67.3761L115.772 67.7115L116.472 65.838L115.574 65.5026L114.874 67.3761ZM113.93 66.9934L114.848 67.366L115.6 65.5127L114.682 65.1401L113.93 66.9934ZM110.339 65.5094L113.924 66.991L114.688 65.1425L111.103 63.6609L110.339 65.5094ZM108.653 64.8776C109.176 65.047 109.765 65.2759 110.344 65.5113L111.098 63.6589C110.507 63.4185 109.863 63.1674 109.269 62.9749L108.653 64.8776ZM108.421 64.8151L108.696 64.8906L109.226 62.9619L108.95 62.8863L108.421 64.8151ZM108.025 64.7666L108.544 64.8407L108.827 62.8607L108.308 62.7866L108.025 64.7666ZM106.912 64.5626C107.278 64.6429 107.653 64.7155 108.03 64.7673L108.302 62.7859C107.995 62.7437 107.676 62.6826 107.341 62.6091L106.912 64.5626ZM103.539 63.2998C104.6 63.8636 105.73 64.2872 106.9 64.5598L107.354 62.612C106.353 62.3786 105.386 62.0161 104.477 61.5334L103.539 63.2998ZM93.4616 54.6329C94.1842 55.5305 95.7716 57.2519 97.625 58.959C99.4632 60.6521 101.656 62.4187 103.583 63.3221L104.432 61.5111C102.798 60.7451 100.792 59.1573 98.9799 57.4878C97.1826 55.8324 95.667 54.183 95.0196 53.3787L93.4616 54.6329ZM89.8264 52.574C91.251 52.7935 92.5477 53.5295 93.4704 54.6437L95.0108 53.3679C93.7767 51.8777 92.0407 50.8915 90.1311 50.5973L89.8264 52.574ZM92.3565 50.3948C91.453 50.2683 90.5328 50.3507 89.6664 50.6357L90.2911 52.5356C90.8668 52.3462 91.4784 52.2914 92.0791 52.3755L92.3565 50.3948ZM94.8788 51.365C94.1227 50.8532 93.26 50.5213 92.3565 50.3948L92.0791 52.3755C92.6799 52.4596 93.254 52.6804 93.7577 53.0213L94.8788 51.365ZM96.7025 52.7926C96.3152 52.4623 95.945 52.1465 95.633 51.896C95.3523 51.6707 95.02 51.4155 94.737 51.285L93.8995 53.1013C93.8907 53.0972 93.9286 53.1154 94.0305 53.1876C94.1231 53.2531 94.2397 53.3423 94.3811 53.4558C94.6648 53.6836 95.0097 53.9775 95.4046 54.3144L96.7025 52.7926ZM100.564 55.5685C100.636 55.5567 100.556 55.5879 100.235 55.4373C99.9522 55.3047 99.6014 55.0889 99.1976 54.803C98.3913 54.2319 97.5004 53.4731 96.7025 52.7926L95.4046 54.3144C96.1857 54.9806 97.1479 55.8022 98.0417 56.4352C98.488 56.7512 98.9489 57.0433 99.3861 57.2483C99.7847 57.4351 100.334 57.6334 100.889 57.542L100.564 55.5685ZM101.659 55.0611C101.272 55.2868 100.86 55.4675 100.432 55.5997L101.021 57.5108C101.595 57.3337 102.147 57.0915 102.666 56.7891L101.659 55.0611ZM99.8587 55.5718C100.428 56.0336 101.037 56.4445 101.678 56.7997L102.647 55.0505C102.109 54.7519 101.597 54.4066 101.119 54.0184L99.8587 55.5718ZM97.9431 53.796C98.4989 54.3617 99.1237 54.9993 99.874 55.584L101.103 54.0063C100.473 53.5152 99.9365 52.971 99.3696 52.3941L97.9431 53.796ZM97.3813 53.2308C97.5656 53.4119 97.7496 53.5991 97.9431 53.796L99.3696 52.3941C99.1783 52.1994 98.9821 51.9997 98.7834 51.8044L97.3813 53.2308ZM95.3058 51.4128C96.049 51.9294 96.7331 52.5267 97.3458 53.194L98.819 51.8412C98.1068 51.0656 97.3115 50.3711 96.4474 49.7705L95.3058 51.4128ZM94.9021 51.2026C95.0567 51.2733 95.2069 51.3536 95.3518 51.4429L96.4014 49.7404C96.1867 49.608 95.964 49.4889 95.7346 49.384L94.9021 51.2026ZM94.5218 51.0983C94.6676 51.1259 94.8104 51.1674 94.9483 51.2223L95.6885 49.3642C95.4313 49.2618 95.165 49.1844 94.8933 49.1331L94.5218 51.0983ZM93.1052 50.8816C93.6533 50.9402 94.08 51.0031 94.4961 51.0931L94.9189 49.1383C94.41 49.0282 93.9078 48.956 93.318 48.8929L93.1052 50.8816ZM91.3292 50.6238C91.9878 50.7595 92.5335 50.8205 93.1052 50.8816L93.318 48.8929C92.7518 48.8324 92.2893 48.7796 91.733 48.6649L91.3292 50.6238ZM89.7544 50.2993L91.3292 50.6238L91.733 48.6649L90.1581 48.3404L89.7544 50.2993ZM86.6266 49.6922L89.7657 50.3015L90.1469 48.3381L87.0078 47.7288L86.6266 49.6922ZM80.4965 48.9219C82.555 49.0513 84.6038 49.3089 86.631 49.6931L87.0035 47.728C84.8947 47.3284 82.7635 47.0605 80.6221 46.9258L80.4965 48.9219ZM74.4947 49.202C76.4819 48.9013 78.4951 48.8075 80.5022 48.9222L80.6164 46.9254C78.4712 46.8029 76.3195 46.9031 74.1956 47.2245L74.4947 49.202ZM73.127 49.4575C73.5709 49.3482 74.0206 49.2639 74.4739 49.2049L74.2164 47.2216C73.6888 47.2901 73.1655 47.3883 72.6489 47.5155L73.127 49.4575ZM72.4948 49.7798C72.675 49.6243 72.8896 49.5143 73.1206 49.459L72.6553 47.5139C72.1131 47.6437 71.61 47.9016 71.1879 48.266L72.4948 49.7798ZM72.0291 50.195C72.2086 50.0272 72.3416 49.9037 72.4676 49.8025L71.2151 48.2433C71.02 48.4001 70.8307 48.5776 70.664 48.7334L72.0291 50.195ZM71.2492 50.8793C71.5577 50.6359 71.818 50.3921 72.0291 50.195L70.664 48.7334C70.4479 48.9352 70.2446 49.1244 70.0105 49.3091L71.2492 50.8793ZM70.0623 51.8687L71.2699 50.8625L69.9898 49.3259L68.7821 50.3321L70.0623 51.8687ZM65.9378 56.2563C67.1925 54.6692 68.5813 53.1936 70.0886 51.8459L68.7557 50.3549C67.1626 51.7793 65.6949 53.3387 64.369 55.016L65.9378 56.2563ZM63.5278 60.0736C64.1028 58.6919 64.9045 57.417 65.8995 56.3019L64.4073 54.9704C63.2634 56.2523 62.3421 57.7176 61.6814 59.3054L63.5278 60.0736ZM66.9705 58.181C65.3928 58.0687 63.8085 58.2572 62.3016 58.7365L62.9077 60.6425C64.173 60.24 65.5034 60.0817 66.8285 60.176L66.9705 58.181ZM62.36 62.1945C63.8366 61.2639 65.4509 60.5734 67.143 60.1484L66.656 58.2086C64.7588 58.6851 62.9491 59.4593 61.2938 60.5024L62.36 62.1945ZM60.2581 63.6927C60.9206 63.1479 61.6196 62.6493 62.3502 62.2006L61.3036 60.4963C60.4948 60.9931 59.7211 61.545 58.9878 62.148L60.2581 63.6927ZM58.3869 65.4068C58.9554 64.7912 59.5738 64.2239 60.2357 63.7106L59.0102 62.1301C58.2611 62.7111 57.5612 63.3532 56.9177 64.0499L58.3869 65.4068ZM56.9309 67.274C57.3299 66.6039 57.8099 65.9861 58.3601 65.4347L56.9444 64.022C56.2775 64.6904 55.6958 65.4391 55.2125 66.2509L56.9309 67.274ZM56.7435 67.8748C56.7649 67.6575 56.8319 67.4476 56.9398 67.2588L55.2036 66.2661C54.9555 66.7001 54.8021 67.1817 54.7532 67.6793L56.7435 67.8748ZM56.5858 69.1764C56.6242 68.7398 56.6708 68.3192 56.7343 67.9437L54.7624 67.6103C54.686 68.0615 54.6339 68.542 54.5935 69.0011L56.5858 69.1764ZM56.5918 74.5107C56.4674 72.728 56.4659 70.9391 56.5873 69.1566L54.592 69.0209C54.4644 70.8949 54.4659 72.7758 54.5967 74.65L56.5918 74.5107ZM58.5722 85.0108C57.4633 81.6146 56.7978 78.0892 56.5926 74.5228L54.5959 74.6379C54.8111 78.3763 55.5086 82.0717 56.671 85.6318L58.5722 85.0108ZM62.7289 92.2513C60.8516 90.159 59.4355 87.693 58.5735 85.0148L56.6697 85.6278C57.6178 88.5732 59.1753 91.2855 61.2403 93.5871L62.7289 92.2513ZM63.2886 86.7224C62.5884 88.6789 61.8438 90.6256 61.0593 92.5401L62.9099 93.2983C63.7063 91.3548 64.4617 89.3799 65.1716 87.3962L63.2886 86.7224ZM65.5969 79.0762C64.9586 81.6257 64.1669 84.2003 63.2857 86.7304L65.1744 87.3881C66.0713 84.8128 66.8815 82.18 67.537 79.5619L65.5969 79.0762ZM66.4181 75.0124C66.1669 76.4164 65.925 77.7657 65.5969 79.0762L67.537 79.5619C67.8845 78.1739 68.1377 76.7567 68.3868 75.3646L66.4181 75.0124ZM67.1939 71.0984C66.882 72.4189 66.6463 73.7374 66.4181 75.0124L68.3868 75.3646C68.6165 74.0811 68.8431 72.8164 69.1403 71.5581L67.1939 71.0984ZM68.4727 66.942C67.9233 68.2938 67.4937 69.6918 67.1891 71.1197L69.1451 71.5369C69.4252 70.2237 69.8202 68.9381 70.3255 67.6949L68.4727 66.942ZM69.6535 64.8397C69.1731 65.4878 68.7763 66.1943 68.4726 66.9423L70.3256 67.6946C70.566 67.1025 70.8801 66.5434 71.2601 66.0306L69.6535 64.8397ZM71.8309 63.2128C70.9449 63.5168 70.178 64.0933 69.6389 64.8599L71.2747 66.0104C71.5716 65.5883 71.9934 65.2715 72.4799 65.1046L71.8309 63.2128ZM71.0718 79.0887C71.1231 75.8505 71.2223 72.8138 71.5136 70.2729C71.8097 67.6902 72.289 65.7892 72.9941 64.7033L71.3167 63.6141C70.3366 65.1236 69.8254 67.4397 69.5267 70.0452C69.2232 72.6925 69.1234 75.8153 69.0721 79.0572L71.0718 79.0887ZM65.7006 98.7459C66.3319 98.5141 66.8214 98.0219 67.1998 97.4963C67.5878 96.9575 67.9284 96.2865 68.2303 95.5489C68.8351 94.0717 69.3403 92.1885 69.7483 90.2156C70.565 86.2664 71.0261 81.7871 71.0718 79.0899L69.0721 79.0561C69.0287 81.6196 68.5832 85.9745 67.7898 89.8107C67.3928 91.7305 66.9172 93.4779 66.3795 94.7913C66.1102 95.449 65.8392 95.9633 65.5769 96.3277C65.3051 96.7051 65.1057 96.8338 65.0113 96.8685L65.7006 98.7459ZM61.9082 97.5859C62.4227 98.0182 62.9589 98.473 63.5459 98.7225C64.2276 99.0123 64.91 99.01 65.6722 98.7559L65.0397 96.8585C64.6604 96.985 64.4892 96.9502 64.3283 96.8818C64.0728 96.7732 63.7774 96.5441 63.1948 96.0546L61.9082 97.5859ZM61.0342 96.8717L61.9187 97.5946L63.1843 96.0459L62.2999 95.3231L61.0342 96.8717ZM56.8305 92.0597C57.9575 93.8838 59.377 95.5091 61.0319 96.8699L62.3022 95.3249C60.8173 94.104 59.5434 92.6456 58.532 91.0084L56.8305 92.0597ZM54.2752 86.4471C54.9184 88.4 55.7722 90.2769 56.8213 92.0445L58.5412 91.0236C57.5661 89.3808 56.7726 87.6363 56.1747 85.8213L54.2752 86.4471ZM52.8563 80.6243C53.1897 82.5939 53.663 84.5372 54.2727 86.4395L56.1772 85.8289C55.5965 84.0171 55.1457 82.1662 54.8282 80.2904L52.8563 80.6243ZM52.3052 74.7155C52.3713 76.689 52.5545 78.657 52.8538 80.609L54.8307 80.3057C54.5433 78.4319 54.3675 76.5428 54.304 74.6484L52.3052 74.7155ZM52.4862 68.776C52.2892 70.7507 52.2288 72.737 52.3054 74.7206L54.3038 74.6433C54.2308 72.7517 54.2884 70.8575 54.4763 68.9744L52.4862 68.776ZM52.7201 67.2072C52.6147 67.751 52.5498 68.2688 52.4891 68.7503L54.4734 69.0001C54.5351 68.5102 54.5926 68.0566 54.6835 67.5879L52.7201 67.2072ZM52.9627 66.2532C52.8603 66.5684 52.7787 66.89 52.7185 67.2158L54.6851 67.5793C54.7295 67.3395 54.7895 67.1029 54.8648 66.8711L52.9627 66.2532ZM53.4256 65.2592C53.251 65.5636 53.1013 65.8817 52.9777 66.2103L54.8497 66.914C54.9355 66.6859 55.0394 66.4652 55.1606 66.2539L53.4256 65.2592ZM55.5857 62.6343C54.75 63.3946 54.0271 64.2708 53.439 65.2364L55.1471 66.2767C55.6361 65.4739 56.2369 64.7455 56.9314 64.1137L55.5857 62.6343ZM60.0929 59.6105C58.447 60.387 56.9269 61.407 55.5835 62.6362L56.9336 64.1118C58.1291 63.0178 59.4817 62.1103 60.9462 61.4193L60.0929 59.6105ZM60.7622 56.7598C60.1509 57.8794 59.735 59.0957 59.5322 60.3562L61.5068 60.6737C61.6735 59.6375 62.0153 58.638 62.5175 57.7182L60.7622 56.7598ZM62.7395 53.796C61.9972 54.7243 61.3361 55.7152 60.7635 56.7575L62.5163 57.7204C63.0336 56.7787 63.6309 55.8836 64.3015 55.0451L62.7395 53.796ZM67.2335 48.8622C65.553 50.3508 64.0374 52.0166 62.7129 53.8309L64.3281 55.0102C65.568 53.3118 66.9867 51.7526 68.5595 50.3594L67.2335 48.8622ZM68.5487 47.7692C68.1864 48.0532 67.6466 48.4949 67.232 48.8635L68.561 50.3581C68.9361 50.0245 69.4422 49.6099 69.7826 49.3431L68.5487 47.7692ZM69.0263 47.3486C68.8278 47.5314 68.6833 47.6636 68.5487 47.7692L69.7826 49.3431C69.9917 49.1791 70.1972 48.9891 70.381 48.8199L69.0263 47.3486ZM69.7388 46.7218C69.4623 46.9468 69.224 47.1665 69.0263 47.3486L70.381 48.8199C70.5823 48.6344 70.7784 48.4543 71.001 48.2731L69.7388 46.7218ZM71.9101 45.6015C71.1062 45.8106 70.3596 46.1974 69.7248 46.7334L71.015 48.2615C71.4215 47.9183 71.8993 47.6708 72.4134 47.5371L71.9101 45.6015ZM73.72 45.2534C73.1119 45.333 72.5091 45.4488 71.9149 45.6002L72.4086 47.5383C72.9258 47.4066 73.4503 47.3057 73.9795 47.2365L73.72 45.2534ZM80.5414 44.9403C78.2562 44.81 75.964 44.9158 73.7011 45.256L73.9983 47.2338C76.1251 46.9141 78.2795 46.8146 80.4275 46.9371L80.5414 44.9403ZM87.1818 45.7715C84.9892 45.3535 82.7725 45.0759 80.5452 44.9406L80.4237 46.9369C82.566 47.0671 84.6981 47.3341 86.8071 47.7362L87.1818 45.7715ZM90.3692 46.3908L87.1852 45.7722L86.8037 47.7355L89.9877 48.3541L90.3692 46.3908ZM91.9623 46.7143L90.3776 46.3924L89.9794 48.3525L91.5641 48.6744L91.9623 46.7143ZM93.1277 46.8847C92.6441 46.8313 92.2773 46.7892 91.9963 46.7219L91.5301 48.6668C91.959 48.7696 92.4643 48.8237 92.9083 48.8727L93.1277 46.8847ZM93.3893 46.9138C93.3006 46.9037 93.2127 46.894 93.1277 46.8847L92.9083 48.8727C92.9938 48.8821 93.0785 48.8914 93.1634 48.9011L93.3893 46.9138ZM95.1541 47.1935C94.5368 47.0663 93.975 46.9803 93.3893 46.9138L93.1634 48.9011C93.6957 48.9615 94.1978 49.0385 94.7504 49.1524L95.1541 47.1935ZM96.2411 47.5104C95.8881 47.3764 95.5251 47.2705 95.1556 47.1938L94.749 49.1521C95.0152 49.2073 95.2767 49.2836 95.5311 49.3802L96.2411 47.5104ZM97.285 48.059C96.9665 47.8592 96.6342 47.6826 96.2905 47.5307L95.4817 49.3599C95.7375 49.473 95.9849 49.6045 96.222 49.7532L97.285 48.059ZM100.173 50.3782C99.3021 49.4976 98.3337 48.7198 97.2866 48.06L96.2203 49.7522C97.1382 50.3305 97.9872 51.0124 98.7508 51.7845L100.173 50.3782ZM100.269 50.4745L100.171 50.376L98.7529 51.7867L98.8508 51.8852L100.269 50.4745ZM104.514 53.727C103.046 53.2379 101.818 52.0322 100.269 50.4746L98.8508 51.8851C100.31 53.3518 101.876 54.9562 103.881 55.6245L104.514 53.727ZM105.908 54.1983L104.518 53.7283L103.877 55.6231L105.268 56.0931L105.908 54.1983ZM106.589 55.0162L106.554 54.8868L104.622 55.4045L104.657 55.5339L106.589 55.0162ZM106.423 56.194L106.593 55.5192L104.653 55.0309L104.483 55.7057L106.423 56.194ZM104.927 57.3926L105.943 56.8217L104.963 55.078L103.947 55.649L104.927 57.3926ZM105.03 57.2837C105.022 57.3174 105 57.3478 104.969 57.3673L103.905 55.6743C103.493 55.9332 103.199 56.3426 103.086 56.8144L105.03 57.2837ZM105.032 57.1863C105.038 57.2181 105.038 57.2511 105.03 57.283L103.085 56.8151C103.025 57.0649 103.02 57.3248 103.07 57.5766L105.032 57.1863ZM105.175 57.7193C105.117 57.54 105.068 57.3578 105.029 57.1734L103.073 57.5895C103.127 57.842 103.194 58.0917 103.273 58.3372L105.175 57.7193ZM105.341 59.1027C105.359 58.6517 105.308 58.2006 105.189 57.7651L103.26 58.2914C103.325 58.5299 103.353 58.777 103.343 59.0239L105.341 59.1027ZM105.3 59.6707C105.315 59.5293 105.337 59.3231 105.342 59.083L103.342 59.0435C103.34 59.1887 103.326 59.3179 103.311 59.4615L105.3 59.6707ZM105.283 59.8595C105.284 59.8323 105.288 59.7871 105.3 59.6707L103.311 59.4614C103.302 59.5517 103.287 59.6868 103.284 59.813L105.283 59.8595ZM105.264 59.8083C105.278 59.8629 105.282 59.92 105.274 59.9764L103.293 59.6961C103.264 59.9066 103.277 60.1209 103.332 60.326L105.264 59.8083ZM105.188 59.6576C105.223 59.7024 105.249 59.7537 105.264 59.8083L103.332 60.326C103.387 60.5311 103.482 60.7232 103.613 60.8906L105.188 59.6576ZM107.815 60.5724C106.793 60.3497 105.814 59.9597 104.918 59.4182L103.884 61.13C104.968 61.7851 106.152 62.2569 107.388 62.5266L107.815 60.5724ZM108.633 60.7328C108.339 60.6859 108.087 60.6414 107.849 60.5806L107.354 62.5184C107.686 62.6033 108.014 62.6595 108.319 62.708L108.633 60.7328ZM109.037 60.7768L108.587 60.7266L108.365 62.7142L108.814 62.7645L109.037 60.7768ZM109.927 60.9976C109.654 60.9029 109.374 60.8315 109.09 60.7842L108.761 62.7571C108.934 62.7859 109.104 62.8293 109.27 62.8869L109.927 60.9976ZM111.658 61.6412C111.117 61.4223 110.56 61.1961 109.898 60.9882L109.299 62.8963C109.874 63.0769 110.361 63.2739 110.907 63.495L111.658 61.6412ZM111.863 61.7241C111.794 61.6965 111.726 61.6689 111.658 61.6412L110.907 63.495C110.975 63.5226 111.045 63.5507 111.115 63.5789L111.863 61.7241ZM115.461 63.2197L111.873 61.7281L111.105 63.5749L114.693 65.0665L115.461 63.2197ZM116.338 63.5779L115.455 63.2173L114.699 65.0689L115.582 65.4295L116.338 63.5779ZM87.8595 66.3027C88.1837 66.2487 88.5019 66.1634 88.8096 66.0481L88.1079 64.1753C87.921 64.2453 87.7278 64.2971 87.531 64.3299L87.8595 66.3027ZM83.7713 63.4795C83.8044 64.4215 84.2519 65.276 85.0305 65.8157C85.805 66.3526 86.8159 66.5189 87.8973 66.2957L87.4932 64.3369C86.8425 64.4712 86.4135 64.3408 86.17 64.172C85.9305 64.0059 85.7818 63.7457 85.77 63.4091L83.7713 63.4795ZM84.3721 62.8692C84.2535 62.901 84.0624 62.9075 83.8727 62.8039C83.7897 62.7586 83.7337 62.706 83.7 62.6669C83.6675 62.6291 83.6547 62.6029 83.6544 62.6023C83.654 62.6014 83.6617 62.6171 83.6733 62.6563C83.6848 62.6949 83.6983 62.7502 83.7117 62.8257C83.7386 62.9782 83.7611 63.1912 83.7713 63.4795L85.77 63.4091C85.7465 62.7419 85.6634 62.1549 85.4487 61.7187C85.3349 61.4876 85.1456 61.2201 84.8311 61.0484C84.4937 60.8642 84.1417 60.8604 83.8545 60.9374L84.3721 62.8692ZM84.0485 63.5603C84.1627 63.2212 84.3836 62.9296 84.6772 62.7291L83.5494 61.0775C82.8957 61.524 82.4058 62.1717 82.1531 62.9221L84.0485 63.5603ZM83.2902 64.2257L83.3596 64.2071L82.842 62.2753L82.7726 62.2939L83.2902 64.2257ZM82.9492 64.2708C83.1223 64.2755 83.2947 64.2401 83.4525 64.1668L82.6102 62.3528C82.7336 62.2955 82.8683 62.2679 83.0035 62.2715L82.9492 64.2708ZM82.4528 64.14C82.6065 64.2216 82.7764 64.2661 82.9491 64.2708L83.0035 62.2715C83.1383 62.2752 83.271 62.3099 83.3911 62.3737L82.4528 64.14ZM82.0672 63.803C82.1681 63.9435 82.3 64.0588 82.4527 64.14L83.3912 62.3737C83.5102 62.437 83.6131 62.5269 83.6918 62.6365L82.0672 63.803ZM81.8713 63.3307C81.8994 63.5011 81.9665 63.6628 82.0672 63.803L83.6918 62.6365C83.7703 62.7458 83.8225 62.8718 83.8445 63.0046L81.8713 63.3307ZM84.3597 58.9355C83.9875 59.0352 83.2189 59.2688 82.6163 59.9806C81.9901 60.7202 81.6858 61.7978 81.8651 63.2872L83.8507 63.0481C83.7178 61.944 83.9715 61.4749 84.1426 61.273C84.3372 61.0431 84.605 60.9403 84.8773 60.8673L84.3597 58.9355ZM90.7081 58.3366C88.6022 58.3318 86.501 58.5267 84.4324 58.9189L84.8047 60.8839C86.749 60.5154 88.724 60.3321 90.7034 60.3367L90.7081 58.3366ZM91.3507 58.492C91.1228 58.3679 90.8626 58.3154 90.6041 58.3418L90.8073 60.3315C90.664 60.3462 90.5198 60.317 90.3938 60.2484L91.3507 58.492ZM91.881 59.0361C91.7631 58.8059 91.5785 58.6161 91.3507 58.492L90.3938 60.2484C90.2678 60.1797 90.166 60.0749 90.101 59.9481L91.881 59.0361ZM92.013 59.7835C92.045 59.5265 91.9989 59.2661 91.881 59.036L90.1011 59.9482C90.0361 59.8215 90.0107 59.678 90.0284 59.5362L92.013 59.7835ZM91.7005 60.4766C91.8723 60.2819 91.9809 60.0402 92.013 59.7835L90.0284 59.5362C90.046 59.3947 90.1059 59.2611 90.2011 59.1533L91.7005 60.4766ZM91.5854 60.9648C91.5977 60.7511 91.6664 60.5451 91.7841 60.3677L90.1175 59.2622C89.8037 59.7352 89.6214 60.2833 89.5888 60.8501L91.5854 60.9648ZM91.7147 61.5829C91.6177 61.3919 91.5731 61.1785 91.5854 60.9648L89.5888 60.8501C89.5562 61.4168 89.6744 61.9822 89.9313 62.4883L91.7147 61.5829ZM88.8224 66.0432C89.7722 65.6724 90.6312 65.0983 91.2035 64.3862C91.7761 63.6738 92.1435 62.6965 91.7579 61.6807L89.8881 62.3906C89.9361 62.5171 89.9489 62.7548 89.6447 63.1333C89.3402 63.5121 88.8003 63.9048 88.0951 64.1801L88.8224 66.0432Z"
    fill="#B6792B" mask="url(#path-38-inside-2_697_11922)" />
  <g filter="url(#filter1_ddd_697_11922)">
    <circle cx="146.964" cy="110.399" r="16.173" fill="url(#paint3_linear_697_11922)" />
    <path
      d="M138.646 115.136V116.395C138.646 117.063 138.911 117.704 139.384 118.176C139.856 118.648 140.497 118.914 141.165 118.914H152.499C153.167 118.914 153.807 118.648 154.28 118.176C154.752 117.704 155.017 117.063 155.017 116.395V115.136"
      stroke="#002522" stroke-width="2" stroke-linecap="round" stroke-linejoin="round" />
    <path d="M143.054 109.469L146.832 113.877L150.61 109.469" stroke="#002522" stroke-width="2" stroke-linecap="round"
      stroke-linejoin="round" />
    <path d="M146.832 113.877V102.543" stroke="#002522" stroke-width="2" stroke-linecap="round"
      stroke-linejoin="round" />
  </g>
  <defs>
    <filter id="filter0_f_697_11922" x="22.429" y="148.918" width="132.577" height="45.4692"
      filterUnits="userSpaceOnUse" color-interpolation-filters="sRGB">
      <feFlood flood-opacity="0" result="BackgroundImageFix" />
      <feBlend mode="normal" in="SourceGraphic" in2="BackgroundImageFix" result="shape" />
      <feGaussianBlur stdDeviation="10" result="effect1_foregroundBlur_697_11922" />
    </filter>
    <filter id="filter1_ddd_697_11922" x="114.791" y="92.2256" width="64.3461" height="66.3462"
      filterUnits="userSpaceOnUse" color-interpolation-filters="sRGB">
      <feFlood flood-opacity="0" result="BackgroundImageFix" />
      <feColorMatrix in="SourceAlpha" type="matrix" values="0 0 0 0 0 0 0 0 0 0 0 0 0 0 0 0 0 0 127 0"
        result="hardAlpha" />
      <feOffset dy="2" />
      <feGaussianBlur stdDeviation="2" />
      <feColorMatrix type="matrix" values="0 0 0 0 0 0 0 0 0 0.0784314 0 0 0 0 0.0745098 0 0 0 0.34 0" />
      <feBlend mode="normal" in2="BackgroundImageFix" result="effect1_dropShadow_697_11922" />
      <feColorMatrix in="SourceAlpha" type="matrix" values="0 0 0 0 0 0 0 0 0 0 0 0 0 0 0 0 0 0 127 0"
        result="hardAlpha" />
      <feOffset dy="6" />
      <feGaussianBlur stdDeviation="4" />
      <feColorMatrix type="matrix" values="0 0 0 0 0 0 0 0 0 0.0784314 0 0 0 0 0.0745098 0 0 0 0.24 0" />
      <feBlend mode="normal" in2="effect1_dropShadow_697_11922" result="effect2_dropShadow_697_11922" />
      <feColorMatrix in="SourceAlpha" type="matrix" values="0 0 0 0 0 0 0 0 0 0 0 0 0 0 0 0 0 0 127 0"
        result="hardAlpha" />
      <feOffset dy="16" />
      <feGaussianBlur stdDeviation="8" />
      <feColorMatrix type="matrix" values="0 0 0 0 0 0 0 0 0 0.0784314 0 0 0 0 0.0745098 0 0 0 0.14 0" />
      <feBlend mode="normal" in2="effect2_dropShadow_697_11922" result="effect3_dropShadow_697_11922" />
      <feBlend mode="normal" in="SourceGraphic" in2="effect3_dropShadow_697_11922" result="shape" />
    </filter>
    <linearGradient id="paint0_linear_697_11922" x1="28.2941" y1="52.4281" x2="151.868" y2="123.449"
      gradientUnits="userSpaceOnUse">
      <stop stop-color="#E3BB88" />
      <stop offset="0.447917" stop-color="#B6792B" />
      <stop offset="1" stop-color="#E3BB88" />
    </linearGradient>
    <linearGradient id="paint1_linear_697_11922" x1="120.487" y1="-57.8155" x2="86.6989" y2="116.452"
      gradientUnits="userSpaceOnUse">
      <stop stop-color="#FEFEFC" />
      <stop offset="1" stop-color="#ECD2B0" />
    </linearGradient>
    <linearGradient id="paint2_linear_697_11922" x1="120.487" y1="-57.8155" x2="86.6989" y2="116.452"
      gradientUnits="userSpaceOnUse">
      <stop stop-color="#FEFEFC" />
      <stop offset="1" stop-color="#ECD2B0" />
    </linearGradient>
    <linearGradient id="paint3_linear_697_11922" x1="146.964" y1="94.2256" x2="146.964" y2="126.572"
      gradientUnits="userSpaceOnUse">
      <stop stop-color="#40EEA5" />
      <stop offset="1" stop-color="#189862" />
    </linearGradient>
  </defs>
</svg>