<svg width="131" height="99" viewBox="0 0 131 99" fill="none" xmlns="http://www.w3.org/2000/svg">
  <path
    d="M119.28 7.11364L119.943 0.221267C119.952 0.159779 119.983 0.1036 120.03 0.0629754C120.077 0.0223512 120.137 0 120.199 0C120.262 0 120.322 0.0223512 120.369 0.0629754C120.416 0.1036 120.447 0.159779 120.456 0.221267L121.107 7.09712C121.149 7.48143 121.324 7.83905 121.602 8.10781C121.881 8.37656 122.245 8.53945 122.631 8.56815L130.741 9.05299C130.809 9.05299 130.875 9.08026 130.924 9.12882C130.973 9.17739 131 9.24325 131 9.31192C131 9.3806 130.973 9.44647 130.924 9.49503C130.875 9.54359 130.809 9.57087 130.741 9.57087L122.626 10.0722C122.24 10.1007 121.877 10.2628 121.599 10.5305C121.32 10.7981 121.145 11.1544 121.102 11.5378L120.439 18.4246C120.43 18.4861 120.399 18.5423 120.352 18.5829C120.305 18.6235 120.245 18.6459 120.183 18.6459C120.12 18.6459 120.06 18.6235 120.013 18.5829C119.966 18.5423 119.935 18.4861 119.926 18.4246L119.28 11.5488C119.24 11.1626 119.064 10.803 118.785 10.533C118.505 10.263 118.139 10.0999 117.751 10.0722L109.647 9.5874C109.585 9.57836 109.529 9.54751 109.488 9.50047C109.448 9.45344 109.425 9.39336 109.425 9.33121C109.425 9.26906 109.448 9.20898 109.488 9.16195C109.529 9.11491 109.585 9.08406 109.647 9.07502L117.757 8.57365C118.141 8.54537 118.504 8.38406 118.782 8.11753C119.06 7.851 119.236 7.49597 119.28 7.11364Z"
    fill="#FAF8F1" />
  <path fill-rule="evenodd" clip-rule="evenodd"
    d="M102.928 25.5309C103.596 25.4157 104.276 25.3952 104.949 25.4703C105.178 25.5103 105.415 25.4894 105.633 25.4097L105.545 25.3381L105.131 25.0405L104.701 24.721L103.044 23.4593L102.931 23.375C102.693 23.1986 102.455 23.0226 102.222 22.8753L102.095 22.7982L101.835 22.6935C101.659 22.6164 101.488 22.5337 101.322 22.4456C100.792 22.1666 100.3 21.8203 99.8591 21.4153C98.2471 20.06 96.4309 16.7873 95.9617 15.7185C95.5842 14.8968 94.9157 14.2434 94.0847 13.8838C94.4919 13.8596 94.8993 13.929 95.2754 14.0866C95.6515 14.2442 95.9864 14.4858 96.2542 14.7929C96.393 14.9077 96.6513 15.2816 96.9634 15.7334L96.9635 15.7335C97.5952 16.648 98.4475 17.8817 98.9758 17.9333C99.2558 17.923 99.5337 17.8805 99.8039 17.8066C100.228 17.7131 100.642 17.5803 101.04 17.4099C100.228 16.8657 99.7009 15.945 99.1348 14.9561L99.1138 14.9196C98.8024 14.3809 98.4322 13.8783 98.0098 13.421C97.8871 13.2952 97.7581 13.1757 97.6233 13.0629C97.4808 12.9626 97.3314 12.8724 97.1762 12.793C96.8891 12.6497 96.6241 12.534 96.3371 12.4238L96.2775 12.401C96.0134 12.2998 95.7708 12.2068 95.5808 12.1043L94.8079 11.7186L93.2401 10.9583C92.1781 10.4487 91.0847 10.0071 89.9665 9.63601C88.8346 9.26386 87.6673 9.00907 86.4831 8.8757C86.4089 8.86896 86.3379 8.86157 86.2676 8.85424L86.2676 8.85424L86.2675 8.85423C86.0503 8.83159 85.8392 8.80959 85.5557 8.80959C85.1896 8.8082 84.8277 8.88721 84.4957 9.04099C84.3378 9.11135 84.1972 9.18458 84.068 9.25187L84.0679 9.25191L84.0678 9.25195L84.0676 9.25208L84.0675 9.25211L84.0675 9.25213C83.9439 9.31648 83.8308 9.37539 83.7229 9.42115L82.9169 9.79028C81.8439 10.3077 80.8312 10.9414 79.8972 11.68C79.4073 12.0386 78.9493 12.4386 78.5281 12.8756C78.0958 13.3275 77.743 13.8491 77.4848 14.4182C77.8752 14.3463 78.2698 14.2985 78.6661 14.275C79.4475 14.2399 80.2284 14.3521 80.9682 14.6056C79.9727 14.5883 78.981 14.7315 78.0313 15.0298C77.5632 15.1631 77.1056 15.3307 76.6622 15.5312C76.2197 15.7147 75.7947 15.9378 75.3925 16.1978C74.9917 16.4267 74.6208 16.7043 74.2885 17.0242C74.1556 17.1628 74.0507 17.3255 73.9793 17.5036C73.8856 17.7072 73.8029 17.9328 73.7202 18.1584L73.7199 18.1592C73.399 19.0862 73.1426 20.0343 72.9525 20.9966C72.5585 22.9149 72.4101 24.8755 72.5109 26.8311C72.5958 28.4061 73.0075 29.9464 73.7199 31.3544C74.3989 30.4674 75.0613 29.5583 75.7017 28.6382C76.5304 27.4557 77.297 26.231 77.9982 24.9689C78.354 24.3268 78.6717 23.654 78.9928 22.9738C79.2944 22.3349 79.5991 21.6896 79.9414 21.0572C80.2832 20.3893 80.6841 19.7532 81.1393 19.1564C81.3709 18.8454 81.6439 18.5673 81.9508 18.33C82.251 18.0815 82.6217 17.9331 83.0107 17.9058C81.7686 19.0077 80.8026 21.9883 79.8475 25.327C79.0747 28.0267 76.4304 34.1973 74.7963 34.3516C74.1504 34.3846 73.9131 34.0761 73.477 33.448L73.1126 32.9522C72.4757 32.0687 71.9907 31.0856 71.6773 30.0432C71.388 29.0226 71.214 27.9729 71.1584 26.9138V26.0157C70.0135 26.1995 68.8906 26.5004 67.8075 26.9138C66.7379 27.3516 65.7011 27.8653 64.705 28.4509C63.7825 29.0066 62.7729 29.4033 61.7184 29.6244C60.6481 29.8067 59.5578 29.8419 58.4779 29.7291C56.2311 29.6024 53.9953 29.3875 51.7541 29.1121L45.0136 28.3022L18.0794 24.9359L4.61509 23.2114L1.24764 22.7761L1.03786 22.7486H0.93297C0.834479 22.73 0.73337 22.73 0.634879 22.7486C0.453392 22.7911 0.291712 22.8938 0.176371 23.0399C0.0610289 23.186 -0.00114788 23.367 1.60488e-05 23.553C0.0828225 23.8285 0.806015 24.7375 3.60487 25.2775C6.49206 25.8284 9.20812 26.2637 13.1 26.8091C15.3947 27.1303 17.4907 27.4628 19.8844 27.8425L19.8846 27.8425L19.8849 27.8426L19.8852 27.8426C22.2133 28.2119 24.823 28.6259 28.1708 29.1176C28.8325 29.2144 29.4933 29.3077 30.1391 29.3988L30.1391 29.3988L30.1391 29.3988C34.3423 29.9919 37.9093 30.4952 36.9427 31.3214C36.1726 31.6584 35.4225 32.0392 34.6959 32.4618L34.3482 32.6767C33.8292 32.9962 33.3158 33.3323 32.83 33.696C30.2026 35.6742 28.0444 38.2062 26.5091 41.1117C26.1134 41.8423 25.772 42.601 25.4878 43.3816C25.2118 44.1695 25.002 44.9518 24.8033 45.7397C24.5124 46.8541 24.2746 47.974 24.0382 49.0877L24.0382 49.088L24.0381 49.0884L24.038 49.0888L24.0379 49.0892L24.0378 49.0896C23.9425 49.5389 23.8473 49.9873 23.7489 50.4338C23.5967 51.1993 23.3938 51.9539 23.1417 52.6927C22.8988 53.4309 22.6227 54.1802 22.3302 54.8965C21.1764 57.844 19.8184 60.7365 18.3941 63.5849C17.6764 65.0119 16.9422 66.4278 16.1859 67.8217L16.0355 68.0923L16.0354 68.0925C15.6989 68.6982 15.3608 69.3069 15.0101 69.8823C14.9235 70.0278 14.8444 70.1433 14.7605 70.2659L14.7605 70.266L14.7604 70.266L14.7064 70.3451L14.3531 70.8024C14.1102 71.1054 13.8618 71.3974 13.5968 71.6784C13.0765 72.2359 12.5014 72.7398 11.88 73.1824L11.6536 73.3257L11.5377 73.3973C11.4562 73.4415 11.3802 73.4951 11.3114 73.5571C11.1658 73.6954 11.0609 73.8706 11.0078 74.064L10.925 74.3505C10.8201 74.7141 10.6931 75.0832 10.5606 75.4524C10.0086 76.9344 9.40132 78.3999 8.74439 79.8599C8.30964 80.8134 7.84165 81.7578 7.37122 82.7071L7.37115 82.7073L7.37109 82.7074C6.41986 84.627 5.45864 86.5667 4.74208 88.6421C4.1916 90.1988 3.85184 91.8219 3.73183 93.4684C3.62869 95.1234 3.77948 96.7844 4.17899 98.3939L4.27835 98.9448H8.07641C8.07641 96.8237 7.57956 95.2094 6.71837 95.5289C6.31538 95.6501 5.90687 95.7603 5.4818 95.854C5.86823 95.5069 6.27675 95.1873 6.6963 94.8788L6.79566 94.8182C6.67421 90.8183 9.13081 84.6587 11.9794 80.2291C13.8746 77.4209 15.9705 74.7529 18.2506 72.2458C19.4747 70.9195 20.6609 69.8951 21.8925 68.8316C25.2651 65.9191 28.9777 62.713 34.7401 52.2078C35.8513 49.9602 36.864 48.7453 37.6725 47.7756C39.1133 46.0473 39.9052 45.0974 39.449 40.4671C39.7795 42.1205 40.3232 43.7243 41.0665 45.2383C41.768 46.3619 42.7903 47.103 43.8405 47.8643C44.4432 48.3013 45.0552 48.7449 45.6209 49.2713L45.6982 49.3429C47.3781 50.4563 48.9312 51.7495 50.3298 53.1995C51.7761 54.5383 54.2935 55.5962 56.1814 55.5245C55.9184 53.7394 55.898 51.9269 56.1207 50.1363C56.3365 52.1772 56.6868 54.2018 57.1696 56.1967C57.4171 57.2593 57.6014 58.3355 57.7216 59.4198C57.7254 59.58 57.7162 59.7403 57.694 59.8991C57.6732 60.0254 57.6455 60.1504 57.6112 60.2737C57.6112 60.3343 57.6112 60.3839 57.5781 60.4445C57.5284 60.6263 57.4677 60.8137 57.3959 60.9955C57.326 61.2048 57.2432 61.4142 57.1475 61.6236C56.7724 62.4994 56.3198 63.3402 55.795 64.1359C55.7857 64.1499 55.7763 64.1643 55.7669 64.1789L55.7668 64.1789L55.7668 64.179L55.7668 64.179L55.7666 64.1794L55.7665 64.1795C55.7425 64.2165 55.7177 64.2547 55.6901 64.2901C55.5687 64.472 55.4472 64.6317 55.3423 64.764C55.2374 64.8962 55.1878 64.9513 55.105 65.0394C55.0934 65.0587 55.0805 65.0771 55.0663 65.0945C54.9379 65.2799 54.8565 65.4935 54.8289 65.7171C54.8209 65.8161 54.8209 65.9156 54.8289 66.0146V66.2074V66.5931C54.8449 66.8028 54.8596 67.0113 54.8742 67.219C54.8899 67.4425 54.9056 67.6652 54.9228 67.8878V68.1468C54.9228 68.2349 54.9228 68.4333 54.9669 68.582C54.9917 68.6655 54.9887 68.7056 54.9861 68.7393C54.9841 68.7657 54.9824 68.7882 54.9945 68.8244C55.1602 70.6609 55.3699 72.4974 55.6239 74.3339C56.1906 78.4293 56.8844 82.499 57.7051 86.543L58.0142 88.0581L58.1688 88.8129L58.2516 89.193L58.2958 89.4024C58.3291 89.5419 58.387 89.6743 58.4669 89.7936L58.6767 90.0801L58.8202 90.361C58.9157 90.5715 59.0005 90.7866 59.0741 91.0056C59.2287 91.4629 59.3557 91.9478 59.4716 92.4381C59.6392 93.1489 59.796 93.8704 59.9542 94.5986L59.9542 94.599L59.9543 94.5994L59.9544 94.5997L59.9545 94.6001L59.9546 94.6005L59.9546 94.6006L59.9546 94.6006C60.234 95.8869 60.5179 97.1939 60.8738 98.4986L61.0118 98.9889H65.2515C65.2515 96.9614 64.8485 94.9119 63.5954 95.2259C63.1261 95.3747 62.6183 95.5234 62.1214 95.6446C62.5686 95.3031 62.9992 94.989 63.485 94.6805L63.5788 94.6364C61.9227 86.0967 60.1341 75.4083 59.7145 72.334C59.3943 69.9925 60.9456 68.4002 61.9668 67.3755C64.2927 65.0997 66.7917 63.0071 69.4415 61.1167L69.8059 60.8412C70.9091 59.9778 72.1164 59.256 73.3997 58.6925C74.6703 58.16 75.9696 57.6983 77.2916 57.3096C78.5999 56.9074 79.853 56.5052 81.1559 56.0369C81.5975 55.8782 82.0386 55.734 82.4744 55.5915C83.3243 55.3136 84.1546 55.0421 84.9319 54.6816C86.0954 54.1622 87.1203 53.3771 87.9239 52.3896C88.714 51.3809 89.2906 50.2226 89.6187 48.9848C89.9449 47.7268 90.0642 46.4243 89.972 45.1281L89.9278 44.456L90.5903 44.5331C90.6848 44.5331 90.7548 44.5514 90.8253 44.5699L90.8254 44.5699L90.8255 44.5699L90.8256 44.5699C90.8498 44.5762 90.8741 44.5826 90.8994 44.5882C90.8547 43.7547 90.668 42.9349 90.3474 42.164C89.9524 41.1986 89.4597 40.2517 88.9591 39.2894L88.8238 39.0291C88.2273 37.9412 87.8203 36.7601 87.6203 35.5361C87.5113 34.8941 87.5301 34.237 87.6755 33.6023C87.7122 33.4677 87.7564 33.3352 87.808 33.2056C86.0138 34.3406 85.8206 35.773 86.3672 37.3708C86.7005 38.1432 87.1051 38.8541 87.4962 39.5412C88.2516 40.8685 88.9568 42.1074 89.0004 43.5304C88.7858 43.3043 88.5125 43.1422 88.211 43.0621C88.7341 50.601 84.9891 52.5692 83.637 53.2798C83.5622 53.3191 83.4948 53.3545 83.4358 53.3869C84.982 50.1066 82.6483 46.507 81.7356 45.0991C81.638 44.9487 81.5567 44.8233 81.4981 44.7259C81.8714 44.7704 82.2405 44.8441 82.6022 44.9463C82.6022 44.9463 82.3593 44.1254 79.2568 41.0566C76.9194 38.7435 77.7402 36.7105 79.1113 33.3148C79.2784 32.9011 79.4536 32.4672 79.6322 32.0101C80.1622 30.6863 80.5508 29.3105 80.7915 27.9055C80.858 27.4216 80.9501 26.9416 81.0676 26.4675C81.0676 26.9634 81.0676 27.4537 81.1393 27.9385C81.1682 28.4062 81.2611 28.8678 81.4153 29.3104C81.4896 29.4994 81.5982 29.6731 81.7355 29.8228C81.7705 29.8606 81.8085 29.8953 81.8521 29.9351C81.891 29.9707 81.9344 30.0103 81.9839 30.0597C82.0572 30.1443 82.1366 30.2235 82.2213 30.2966C82.5734 30.5623 82.9645 30.7723 83.3806 30.9192C84.2617 31.2264 85.1779 31.4225 86.1077 31.5032C87.002 31.6079 87.9074 31.6299 88.8238 31.6464H88.9673C89.9179 31.6533 90.8611 31.8133 91.7606 32.1202C92.5618 32.3907 93.3993 32.5393 94.2448 32.561C96.0272 32.7317 97.7867 33.0881 99.4948 33.6243C100.223 33.6463 100.951 33.5816 101.664 33.4315C102.172 33.3323 102.68 33.1946 103.177 33.0458C104.281 32.572 105.021 31.3103 103.519 31.4756C103.165 31.5028 102.813 31.5525 102.465 31.6244C102.207 31.6753 101.948 31.7697 101.669 31.8711C101.405 31.9674 101.123 32.07 100.809 32.1478C100.197 32.2911 99.5582 32.2759 98.9537 32.1037C98.4269 31.8845 97.8672 31.7541 97.2976 31.7181C97.5616 31.563 97.8586 31.4723 98.1643 31.4536H99.0476C99.5629 31.5187 100.086 31.4964 100.593 31.3875C100.857 31.3131 101.125 31.1689 101.412 31.0139C101.636 30.8934 101.872 30.7663 102.128 30.6602C102.705 30.4222 103.32 30.2932 103.944 30.2801H104.32C104.756 29.674 105.131 29.0239 104.988 28.4509C104.815 28.2234 104.579 28.0527 104.309 27.9606C104.237 27.9353 104.096 27.8984 103.911 27.8504C103.253 27.679 102.052 27.3662 101.581 26.9358C101.272 26.5501 101.477 25.8339 102.928 25.5309ZM93.4333 18.2584C93.2751 18.3958 93.1567 18.5731 93.0907 18.7718C93.0247 18.9705 93.0133 19.1833 93.0579 19.3878C93.1076 20.0379 92.3292 20.5448 91.4018 20.6495C90.2038 20.7817 89.569 20.0985 89.7457 19.2831C90.0603 17.9388 89.3647 18.3796 88.9065 18.9195C88.8973 18.9301 88.885 18.9374 88.8714 18.9406C88.8577 18.9437 88.8434 18.9424 88.8305 18.9369C88.8176 18.9314 88.8068 18.9219 88.7996 18.9099C88.7925 18.8978 88.7893 18.8839 88.7906 18.8699C88.9894 17.487 89.8009 17.4319 90.1597 17.4264C91.2549 17.5073 92.3399 17.6918 93.4002 17.9774C93.4271 17.9884 93.4505 18.0065 93.4678 18.0298C93.4852 18.0531 93.4959 18.0807 93.4987 18.1096C93.5015 18.1385 93.4964 18.1676 93.4839 18.1938C93.4715 18.22 93.452 18.2423 93.4278 18.2584H93.4333ZM82.5637 68.0366C82.9301 66.6139 82.6057 64.3608 82.2994 62.2332C82.1442 61.1557 81.9937 60.1104 81.9399 59.2214C80.1347 59.4859 77.7609 61.4527 77.0985 62.0257C77.3855 63.0615 77.6505 63.943 77.8879 64.538C78.294 65.6128 78.5503 66.738 78.6497 67.8823C78.2444 68.0236 77.8906 68.2826 77.6339 68.6261C77.5014 68.805 77.428 69.0207 77.4242 69.2432C77.4195 69.5865 77.3598 69.9269 77.2475 70.2514C76.5409 71.9042 73.8745 73.2375 72.8698 73.7334L72.776 73.7775C72.4904 73.9429 72.1786 74.0584 71.8541 74.119C71.6035 74.1291 71.3528 74.105 71.1088 74.0474L70.9321 74.0199C69.7784 73.805 68.8786 73.7775 68.2603 74.3119C68.0435 74.4989 67.8689 74.7296 67.748 74.9889C67.6272 75.2481 67.5628 75.53 67.5592 75.816V76.0474C67.6516 76.1858 67.7549 76.3166 67.8683 76.4385C67.9622 76.5377 68.056 76.6314 68.1554 76.7195L68.3596 76.9013C68.7703 77.1991 69.2151 77.447 69.6845 77.6396C70.2132 77.8462 70.7732 77.9617 71.3407 77.9812C72.5521 77.9812 73.7577 77.8143 74.9234 77.4853L74.4376 77.6782C72.9206 78.4072 71.2579 78.7839 69.5741 78.7801C68.8442 78.809 68.1225 78.617 67.504 78.2291C67.8477 78.7831 68.2913 79.2688 68.8123 79.6616C68.9635 79.7685 69.1289 79.8538 69.3036 79.915C69.5284 79.9706 69.7634 79.9706 69.9882 79.915C70.587 79.7964 71.1943 79.7245 71.8044 79.7002C72.3791 79.6984 72.9503 79.6111 73.4991 79.4412C74.0332 79.1982 74.5356 78.8911 74.9952 78.5266C74.5892 78.9765 74.1273 79.3727 73.6206 79.7057C73.0695 79.9789 72.4791 80.1648 71.8706 80.2566C71.3077 80.3668 70.7541 80.5197 70.2145 80.7139C69.8728 80.8413 69.5064 80.8885 69.1435 80.8516H69.0773C69.4099 81.0262 69.7739 81.133 70.1482 81.1657C70.5277 81.131 70.8998 81.04 71.2523 80.8957L71.6608 80.7525C72.4487 80.5439 73.2677 80.4786 74.0788 80.5596C74.8461 80.5596 75.5362 80.0362 76.287 79.4577L76.425 79.3475C76.8942 78.9784 77.6947 78.2457 78.3958 77.5515L78.5457 77.4103L78.7286 77.2376L78.7297 77.2365C79.0741 76.9112 79.3849 76.6176 79.6158 76.4165C79.9289 76.142 80.2192 75.9032 80.4845 75.685L80.6174 75.5756L80.7199 75.4909C81.6097 74.8773 82.3617 74.0855 82.928 73.1659C83.3466 72.4303 83.6079 71.6162 83.6954 70.7748C83.6969 70.5139 83.6437 70.2555 83.5391 70.0164C83.4345 69.7773 83.2809 69.5627 83.0881 69.3864C82.8818 69.2339 82.723 69.0261 82.6302 68.7872C82.5374 68.5483 82.5143 68.288 82.5637 68.0366ZM67.1837 95.1929C67.0735 95.0304 66.9119 94.9094 66.7248 94.8495C66.5376 94.7896 66.3357 94.7941 66.1514 94.8623L65.5993 95.0717C65.9407 95.493 66.2026 95.9728 66.3722 96.4876C66.5992 97.2917 66.7253 98.1208 66.7476 98.9558H68.0117C68.0309 97.9511 67.8778 96.9505 67.5591 95.9973C67.4624 95.7168 67.3366 95.4472 67.1837 95.1929ZM68.4644 95.27C68.9736 96.435 69.2421 97.6905 69.2538 98.9614H69.9163C69.8555 96.0689 69.1103 95.0717 68.4644 95.27ZM50.4402 95.7878C50.1425 95.6318 49.8156 95.539 49.4803 95.5153C49.1449 95.4916 48.8082 95.5375 48.4915 95.6501C48.014 95.8033 47.5219 95.9067 47.023 95.9586H46.9678L46.5372 95.9862C44.9804 95.8847 43.5999 87.9808 43.2046 85.7171L43.1698 85.5181C42.9269 84.1297 42.0657 77.9536 43.0207 76.0363C43.3357 75.3607 44.1902 74.5693 45.1842 73.6488C46.873 72.0847 48.9645 70.1478 49.4962 67.7721C50.0238 64.2745 49.7922 60.7046 48.8172 57.3041C48.3534 55.844 46.8188 53.9983 44.4726 52.4171C43.4116 52.4382 42.3621 52.6414 41.3701 53.0177C41.1811 53.0866 40.9967 53.1676 40.8181 53.2601L40.6414 53.3593L40.5034 53.4584L40.3875 53.5521C40.5847 53.8163 40.8308 54.1049 41.1211 54.4453L41.1212 54.4454L41.1217 54.446L41.1219 54.4462L41.1769 54.5107C42.2551 55.6503 43.1474 56.9516 43.8212 58.3674C44.4891 60.6373 43.9702 66.8299 43.9647 66.8685C43.3808 69.5193 41.8527 71.8686 39.6643 73.4799C39.5136 73.5767 39.3877 73.7073 39.2966 73.8613C39.2055 74.0153 39.1519 74.1885 39.1399 74.3669C38.77 84.5429 40.3985 92.4491 44.1082 98.5426L44.2683 98.9227H51.5167C51.5443 96.7244 51.0364 96.1625 50.4402 95.7878ZM52.803 98.9613C52.835 97.6468 52.4053 96.3624 51.5885 95.3306C52.5932 95.6557 53.4379 96.5482 53.5041 98.9613H52.803ZM12.2555 96.1184C12.1447 95.8548 11.9509 95.6343 11.7035 95.4903C11.5938 95.4439 11.4735 95.4287 11.3557 95.4462C11.8076 96.5614 12.04 97.7529 12.0402 98.9558H12.7469L12.6861 97.7382C12.6456 97.1761 12.4995 96.6266 12.2555 96.1184ZM9.38493 96.6473C9.26002 96.1711 9.04653 95.7225 8.7556 95.325C9.74375 95.1047 10.7043 96.6804 10.5718 98.9558H9.55606C9.586 98.1823 9.52859 97.408 9.38493 96.6473Z"
    fill="#D08E39" />
  <path fill-rule="evenodd" clip-rule="evenodd"
    d="M107.052 25.5088C106.876 25.0882 106.586 24.7255 106.213 24.462L105.777 24.1534L105.369 23.8449L103.712 22.5777L103.624 22.5116C103.37 22.3208 103.126 22.1374 102.824 21.9496C102.722 21.8798 102.615 21.819 102.503 21.7678L102.272 21.6797C102.128 21.6191 101.985 21.5475 101.841 21.4703C101.292 21.1839 100.793 20.8119 100.361 20.3684C100.361 20.3587 100.359 20.3468 100.357 20.3323L100.357 20.3321L100.357 20.3316L100.357 20.3315C100.349 20.2886 100.337 20.2228 100.361 20.1205C100.38 20.0426 100.404 19.9824 100.432 19.9138L100.432 19.9137L100.432 19.9136L100.432 19.9136C100.453 19.8609 100.476 19.8034 100.499 19.7293C100.554 19.5508 100.58 19.3649 100.577 19.1784V18.8203C100.583 18.7609 100.6 18.7031 100.626 18.6495C100.687 18.5458 100.783 18.4674 100.897 18.4291L101.51 18.2748L101.686 17.9497C101.691 17.9261 101.691 17.9018 101.686 17.8781L101.029 17.4429C100.631 17.6133 100.217 17.7461 99.7929 17.8396C99.5227 17.9135 99.2448 17.956 98.9648 17.9663C98.4365 17.9147 97.5843 16.681 96.9525 15.7665C96.6404 15.3146 96.382 14.9407 96.2433 14.8259C95.9754 14.5188 95.6405 14.2772 95.2644 14.1196C94.8883 13.962 94.4809 13.8926 94.0737 13.9168C94.9047 14.2763 95.5732 14.9298 95.9507 15.7515C96.4199 16.8203 98.2361 20.0929 99.8481 21.4538C100.289 21.8588 100.781 22.2051 101.311 22.4841C101.477 22.5722 101.648 22.6549 101.824 22.732L102.084 22.8367L102.211 22.9138C102.476 23.0846 102.763 23.294 103.033 23.4978L104.69 24.7595L105.12 25.079L105.534 25.3765L105.622 25.4482C105.404 25.5279 105.167 25.5487 104.938 25.5088C104.265 25.4337 103.585 25.4541 102.917 25.5694C101.471 25.8724 101.261 26.5886 101.615 26.9468C102.085 27.3772 103.286 27.6899 103.944 27.8613L103.945 27.8613L103.945 27.8614C104.129 27.9093 104.271 27.9462 104.342 27.9715C104.612 28.0636 104.849 28.2344 105.021 28.4619C105.164 29.0128 104.789 29.685 104.353 30.291H103.977C103.354 30.3042 102.738 30.4331 102.161 30.6712C101.905 30.7772 101.669 30.9043 101.446 31.0248C101.158 31.1799 100.89 31.324 100.626 31.3984C100.119 31.5073 99.5961 31.5297 99.0808 31.4645C98.9907 31.4645 98.9007 31.461 98.8087 31.4574C98.6188 31.45 98.4206 31.4422 98.1975 31.4645C97.8917 31.4833 97.5947 31.5739 97.3308 31.729C97.9004 31.7651 98.4601 31.8954 98.9869 32.1147C99.5913 32.2869 100.23 32.302 100.842 32.1587C101.15 32.0819 101.427 31.981 101.688 31.8858C101.97 31.7829 102.234 31.6868 102.498 31.6353C102.846 31.5634 103.198 31.5137 103.552 31.4866C105.054 31.3213 104.314 32.5885 103.21 33.0568C102.713 33.2055 102.205 33.3433 101.697 33.4424C100.985 33.5925 100.256 33.6572 99.5279 33.6353C97.8199 33.0991 96.0603 32.7427 94.278 32.5719C93.4325 32.5502 92.595 32.4017 91.7938 32.1312C90.8943 31.8243 89.9511 31.6642 89.0005 31.6574H88.8569C87.9405 31.6574 87.0352 31.6188 86.1409 31.5141C85.211 31.4335 84.2949 31.2373 83.4138 30.9301C82.9976 30.7832 82.6066 30.5732 82.2545 30.3075C82.1697 30.2344 82.0904 30.1552 82.0171 30.0706C81.9676 30.0212 81.9242 29.9816 81.8852 29.946C81.8417 29.9063 81.8036 29.8715 81.7687 29.8337C81.6313 29.684 81.5228 29.5103 81.4485 29.3213C81.2943 28.8787 81.2014 28.4172 81.1725 27.9495C81.1299 27.5755 81.1202 27.1983 81.1104 26.8177C81.1074 26.7049 81.1045 26.5918 81.1007 26.4784C80.9833 26.9526 80.8912 27.4325 80.8247 27.9164C80.5839 29.3215 80.1953 30.6973 79.6654 32.021C79.4912 32.4637 79.3205 32.8847 79.1575 33.2866L79.1574 33.287L79.1573 33.2871C77.7708 36.7061 76.9437 38.7457 79.29 41.0676C82.3925 44.1364 82.6354 44.9573 82.6354 44.9573C82.2737 44.8551 81.9045 44.7814 81.5313 44.7369C81.5899 44.8342 81.6712 44.9596 81.7687 45.11C82.6815 46.5179 85.0151 50.1175 83.469 53.3978C83.531 53.3631 83.6028 53.3249 83.6831 53.2822C85.0313 52.5643 88.7548 50.5818 88.2442 43.073C88.5457 43.1531 88.819 43.3152 89.0336 43.5413C88.9899 42.1183 88.2848 40.8795 87.5294 39.5522C87.1382 38.865 86.7336 38.1541 86.4003 37.3817C85.8483 35.784 86.047 34.3515 87.8411 33.2166C87.7896 33.3462 87.7453 33.4786 87.7087 33.6132C87.5632 34.248 87.5445 34.9051 87.6535 35.5471C87.8535 36.771 88.2604 37.9522 88.8569 39.0401L88.9801 39.2747C89.4904 40.2459 89.9922 41.201 90.3806 42.175C90.7012 42.9459 90.8879 43.7657 90.9326 44.5991C90.8764 44.5991 90.8255 44.5868 90.769 44.5731C90.7255 44.5626 90.6787 44.5512 90.6235 44.5441L89.961 44.4669L90.0052 45.1391C90.0974 46.4352 89.9781 47.7377 89.6519 48.9957C89.3238 50.2335 88.7472 51.3919 87.9571 52.4006C87.1535 53.388 86.1286 54.1731 84.965 54.6925C84.1308 55.0834 83.2354 55.3745 82.3203 55.6719L82.3202 55.6719L82.3202 55.672L82.3201 55.672C81.9454 55.7938 81.5675 55.9166 81.189 56.0479C79.8862 56.4996 78.6496 56.9184 77.3247 57.3206C76.0028 57.7092 74.7035 58.1709 73.4328 58.7034C72.1496 59.2669 70.9422 59.9888 69.839 60.8521L69.4747 61.1276C66.8249 63.0181 64.3259 65.1106 62 67.3864C60.9787 68.4001 59.4275 69.9924 59.7477 72.3449C60.1728 75.4192 61.9559 86.1187 63.612 94.6474L63.5181 94.6914C63.0323 95 62.6018 95.314 62.1546 95.6556C62.6515 95.5344 63.1593 95.3856 63.6286 95.2369C64.9038 94.9228 65.2847 96.9724 65.2847 98.9998H66.7586C66.7363 98.1648 66.6102 97.3357 66.3832 96.5316C66.2137 96.0168 65.9518 95.537 65.6104 95.1156L66.1624 94.9063C66.3468 94.8381 66.5487 94.8336 66.7359 94.8935C66.923 94.9534 67.0846 95.0743 67.1948 95.2369C67.3496 95.4909 67.4773 95.7605 67.5757 96.0413C67.8944 96.9945 68.0475 97.9951 68.0284 98.9998H69.2539C69.2449 97.7315 68.9802 96.478 68.4755 95.314C69.1214 95.1157 69.8667 96.1129 69.9163 98.9998H71.2467L71.1971 98.2946C71.1537 97.4467 70.967 96.6122 70.645 95.8264C70.4653 95.3965 70.2091 95.0026 69.8887 94.6639C69.6927 94.467 69.4577 94.3131 69.1987 94.2121C68.9012 94.1029 68.5768 94.0894 68.2712 94.1735H68.2381L67.9069 94.3057C67.7729 94.1482 67.6167 94.0109 67.4432 93.8981C67.2459 93.77 67.0213 93.6899 66.7874 93.664C66.5535 93.6382 66.3168 93.6674 66.0962 93.7493L65.9416 93.8044C65.6853 92.0532 65.3445 90.316 65.0037 88.5789C64.8674 87.884 64.7311 87.1891 64.6002 86.4933C64.1088 83.8322 63.6451 81.1656 63.2366 78.499C63.0323 77.1657 62.8391 75.8269 62.6846 74.4991C62.5908 73.8628 62.5612 73.2186 62.5962 72.5763C62.6658 71.9494 62.818 71.3343 63.0489 70.7472C63.5125 69.5252 64.1382 68.3708 64.9093 67.3148C65.6823 66.2414 66.5447 65.2351 67.4873 64.3066C68.4319 63.3659 69.4469 62.4984 70.5236 61.7116C71.5568 60.8966 72.6903 60.2171 73.8965 59.6896C74.686 59.3425 75.514 59.0505 76.3587 58.7695C76.5684 59.932 76.8445 61.0505 77.1205 62.0312C77.9614 61.3018 78.8646 60.6473 79.82 60.0753L80.2892 59.8219L80.4162 59.7613C80.5763 59.6786 80.7364 59.6015 80.902 59.5354C81.0551 59.4714 81.2118 59.4162 81.3712 59.3701L81.4927 59.3315C81.6448 59.2868 81.7997 59.2518 81.9564 59.2268C82.0105 60.1283 82.1611 61.1853 82.316 62.2716L82.316 62.2717V62.2717C82.6191 64.3987 82.9383 66.638 82.5802 68.042C82.5179 68.2913 82.5279 68.5532 82.609 68.7971C82.6901 69.0409 82.839 69.2568 83.0384 69.4194C83.2311 69.5956 83.3848 69.8103 83.4894 70.0494C83.594 70.2885 83.6472 70.5469 83.6456 70.8078C83.5582 71.6492 83.2969 72.4633 82.8783 73.1989C82.312 74.1185 81.5599 74.9103 80.6701 75.5239L80.5968 75.5808C80.2705 75.8337 79.9254 76.1011 79.566 76.4495C79.2624 76.714 78.8208 77.1327 78.346 77.5845C77.6449 78.2566 76.8445 79.0114 76.3752 79.3805L76.2372 79.4907L76.1398 79.5645C75.4467 80.0898 74.7832 80.5926 74.0291 80.5926C73.218 80.5116 72.399 80.5769 71.6111 80.7855L71.2026 80.9287C70.8501 81.073 70.478 81.164 70.0985 81.1987C69.7242 81.166 69.3601 81.0592 69.0275 80.8846H69.0938C69.4566 80.9214 69.8231 80.8743 70.1648 80.7469C70.7043 80.5527 71.258 80.3998 71.8209 80.2896C72.4294 80.1978 73.0197 80.0119 73.5709 79.7387C74.0775 79.4057 74.5395 79.0095 74.9454 78.5596C74.4859 78.924 73.9835 79.2312 73.4494 79.4742C72.9005 79.6441 72.3293 79.7314 71.7546 79.7332C71.1446 79.7575 70.5373 79.8294 69.9384 79.948C69.7136 80.0036 69.4787 80.0036 69.2539 79.948C69.0791 79.8867 68.9137 79.8014 68.7626 79.6946C68.2416 79.3018 67.798 78.8161 67.4542 78.2621C68.0728 78.6499 68.7944 78.842 69.5244 78.8131C71.2081 78.8169 72.8708 78.4402 74.3879 77.7112L74.8737 77.5183C73.708 77.8473 72.5023 78.0142 71.2909 78.0142C70.7235 77.9947 70.1635 77.8791 69.6348 77.6726C69.1653 77.48 68.7205 77.2321 68.3099 76.9343L68.1056 76.7525C68.0062 76.6644 67.9124 76.5707 67.8186 76.4715C67.7052 76.3496 67.6018 76.2188 67.5094 76.0804L66.7366 75.7277V76.6038C66.7393 76.8145 66.7903 77.0218 66.8856 77.2098L66.2176 77.0335V77.7497C66.2176 78.6753 66.731 79.353 67.4432 80.0307H67.1009L67.2831 80.6753C67.5315 81.5293 68.9392 82.2565 70.0433 82.3281H70.1371C70.6257 82.2969 71.1054 82.1833 71.5559 81.9921L71.9258 81.8653C72.5945 81.6961 73.288 81.6476 73.9738 81.7221C75.1718 81.7221 76.0771 81.0224 76.8831 80.3888L77.0266 80.2786C77.5345 79.8819 78.3184 79.1381 79.0747 78.4164C79.5329 77.9756 79.9635 77.5679 80.2616 77.3145C80.6536 76.9674 81.0124 76.6864 81.3657 76.422C82.3551 75.7257 83.1896 74.8328 83.8168 73.7994C84.8822 71.9978 84.8491 70.0254 84.816 68.1137V66.3451C84.9265 64.517 85.245 62.7075 85.7655 60.9513C86.3519 59.0145 86.6732 57.0073 86.7205 54.9845C87.522 54.4782 88.236 53.8456 88.8348 53.1113C89.7223 51.9772 90.3685 50.6742 90.7338 49.2822C91.0171 48.1717 91.1508 47.0286 91.1313 45.8829L91.9428 46.4669L92.0257 45.4752C92.1044 44.2052 91.8812 42.9347 91.3742 41.7673C90.9026 40.6614 90.3643 39.5851 89.7623 38.5442C89.2042 37.5623 88.7984 36.5016 88.5588 35.3983C88.4376 34.9557 88.4123 34.4923 88.4847 34.0391C88.557 33.586 88.7253 33.1534 88.9784 32.7703H89.017C89.8365 32.7809 90.6491 32.9223 91.4239 33.189C91.8716 33.3503 92.3337 33.4684 92.804 33.5416C93.1563 33.5989 93.4996 33.6258 93.8292 33.6516C93.9437 33.6606 94.0565 33.6694 94.1676 33.6793C95.9017 33.8491 97.6132 34.1999 99.274 34.7261H99.3347H99.3954C100.235 34.7558 101.074 34.6837 101.896 34.5113C102.7 34.3533 103.491 34.1378 104.264 33.8667L104.353 33.8336L104.425 33.773C105.027 33.2741 105.512 32.6495 105.845 31.9431C106.179 31.2368 106.354 30.4659 106.357 29.685C106.36 29.4879 106.349 29.2909 106.324 29.0954L106.246 28.6051C106.258 28.5722 106.277 28.5422 106.301 28.517C106.429 28.3589 106.542 28.1892 106.638 28.0101C106.828 27.6635 106.969 27.2928 107.058 26.9082C107.099 26.7137 107.129 26.5168 107.146 26.3187C107.183 26.0451 107.151 25.7667 107.052 25.5088ZM67.41 76.6699C67.4066 76.6517 67.4066 76.633 67.41 76.6148V76.6699ZM88.8681 18.9195C89.3263 18.3685 90.0219 17.9388 89.7072 19.2831C89.5416 20.093 90.1764 20.7817 91.3633 20.6495C92.3128 20.5448 93.0912 20.0379 93.0194 19.3878C92.9749 19.1832 92.9862 18.9705 93.0522 18.7718C93.1183 18.5731 93.2366 18.3958 93.3948 18.2583C93.4185 18.2395 93.4363 18.2143 93.4462 18.1857C93.4561 18.1572 93.4576 18.1264 93.4507 18.097C93.4438 18.0676 93.4286 18.0407 93.407 18.0195C93.3854 17.9984 93.3582 17.9837 93.3286 17.9774C92.2683 17.6918 91.1833 17.5073 90.0881 17.4264C89.7293 17.4264 88.9178 17.487 88.719 18.8699C88.7125 18.8896 88.714 18.9112 88.7233 18.9298C88.7326 18.9484 88.7489 18.9625 88.7687 18.9691C88.7885 18.9757 88.81 18.9741 88.8287 18.9648C88.8473 18.9555 88.8615 18.9392 88.8681 18.9195ZM73.1458 32.9577C72.5101 32.0755 72.0251 31.0944 71.7105 30.0541C71.4163 29.0249 71.2385 27.966 71.1805 26.8972V25.9992C71.1757 25.2634 71.2089 24.5278 71.2799 23.7954C71.3919 22.7667 71.5652 21.7457 71.7988 20.7376C72.0314 19.7286 72.332 18.7365 72.6987 17.768C72.798 17.5201 72.8974 17.2777 73.0244 17.0297C73.0888 16.8908 73.1626 16.7565 73.2452 16.6275C73.3415 16.4992 73.4467 16.3777 73.5599 16.2639C73.9626 15.8817 74.4181 15.5589 74.9124 15.3053C75.731 14.8811 76.6096 14.5839 77.518 14.4237C77.9085 14.3518 78.303 14.304 78.6994 14.2805C79.4807 14.2454 80.2617 14.3576 81.0014 14.6111C80.006 14.5937 79.0142 14.737 78.0645 15.0353C77.5965 15.1686 77.1388 15.3362 76.6954 15.5366C76.2529 15.7201 75.8279 15.9433 75.4258 16.2033C75.0249 16.4322 74.6541 16.7098 74.3217 17.0297C74.1889 17.1683 74.0839 17.331 74.0125 17.5091C73.9188 17.7127 73.8361 17.9382 73.7534 18.1638L73.7531 18.1647C73.4322 19.0917 73.1758 20.0398 72.9857 21.0021C72.5918 22.9204 72.4434 24.8809 72.5441 26.8366C72.629 28.4116 73.0407 29.9519 73.7531 31.3599C74.4321 30.4729 75.0945 29.5638 75.7349 28.6437C76.5637 27.4612 77.3302 26.2364 78.0314 24.9744C78.3873 24.3323 78.7049 23.6594 79.0261 22.9792C79.3277 22.3404 79.6324 21.6951 79.9746 21.0627C80.3164 20.3948 80.7173 19.7586 81.1725 19.1619C81.4041 18.8509 81.6771 18.5728 81.984 18.3355C82.2842 18.087 82.6549 17.9386 83.0439 17.9112C81.8018 19.0242 80.8413 21.9938 79.8808 25.3325C79.1079 28.0322 76.4857 34.2028 74.8295 34.3571C74.1837 34.3901 73.9463 34.0816 73.5102 33.4535L73.1458 32.9577ZM22.1645 29.6189L28.8718 30.7208L30.528 30.9853C30.712 31.0165 30.896 31.0452 31.08 31.074C31.448 31.1316 31.816 31.1891 32.1841 31.2662C32.6698 31.3611 33.1327 31.5481 33.5476 31.8172C33.8758 32.0619 34.1502 32.3714 34.3536 32.7263L34.7014 32.5114C35.4279 32.0887 36.1781 31.708 36.9482 31.3709C37.9188 30.5137 34.2354 30.0056 29.9628 29.4162L29.9625 29.4161C29.3747 29.335 28.7758 29.2524 28.1763 29.1671C24.5854 28.6398 21.8436 28.2079 19.3877 27.8211C17.1996 27.4765 15.2383 27.1676 13.1055 26.8587C9.24117 26.3077 6.48099 25.878 3.61036 25.327C0.811505 24.7761 0.0883127 23.878 0.00550621 23.6025C0.000280482 23.6409 0.000280482 23.6798 0.00550621 23.7182C0.18768 24.5942 2.00943 26.1589 5.42657 26.776L8.77195 27.327L22.1645 29.6189ZM56.1815 55.5079C55.9185 53.7227 55.898 51.9103 56.1208 50.1196C56.3551 52.1731 56.7257 54.2087 57.2304 56.2131C57.4778 57.2757 57.6622 58.3519 57.7824 59.4362C57.7862 59.5964 57.777 59.7567 57.7548 59.9155C57.734 60.0418 57.7063 60.1668 57.672 60.2901C57.6389 60.3507 57.6389 60.4003 57.6389 60.4609C57.5892 60.6262 57.5285 60.8135 57.4567 61.0119C57.3868 61.2212 57.304 61.4306 57.2083 61.64C56.8332 62.5159 56.3805 63.3566 55.8558 64.1523C55.8464 64.1663 55.8371 64.1807 55.8276 64.1953C55.8035 64.2325 55.7786 64.271 55.7509 64.3066C55.6294 64.4884 55.4804 64.6867 55.4031 64.7804L55.4029 64.7806C55.3257 64.8742 55.2485 64.9678 55.1657 65.0558C55.1582 65.0684 55.1501 65.0805 55.1415 65.0923C55.1368 65.0986 55.132 65.1048 55.1271 65.1109C54.9987 65.2963 54.9173 65.5099 54.8897 65.7335C54.8817 65.8325 54.8817 65.932 54.8897 66.031V66.2239V66.6095C54.9057 66.8192 54.9203 67.0275 54.935 67.2353C54.9507 67.4588 54.9664 67.6815 54.9836 67.9043C54.9836 67.9338 54.9823 67.9566 54.9811 67.9792C54.9786 68.0239 54.9762 68.068 54.9836 68.1632C54.9879 68.2197 54.9957 68.2762 55.0035 68.333C55.0156 68.4203 55.0277 68.5084 55.0277 68.5985C52.9225 71.6166 50.4026 74.3243 47.542 76.6423L47.393 76.7525C46.6359 77.241 45.9998 77.8947 45.5326 78.6643C45.2369 79.4305 45.1217 80.2542 45.1958 81.0719C45.2682 85.7209 45.9929 90.3368 47.3488 94.785C47.6429 94.7347 47.9341 94.6684 48.2211 94.5867L48.4971 94.5096C49.4439 94.1386 50.4696 94.0135 51.4781 94.146C52.5656 94.4049 54.426 95.2313 54.5916 98.2615L54.6192 98.9557H53.5151C53.4489 96.5481 52.6043 95.6721 51.583 95.3305C52.4045 96.3586 52.84 97.641 52.814 98.9557H51.5554C51.5554 96.7244 51.0309 96.1624 50.4513 95.7878C50.1536 95.6318 49.8268 95.539 49.4914 95.5153C49.156 95.4916 48.8193 95.5374 48.5026 95.65C48.0251 95.8033 47.533 95.9067 47.0341 95.9586H46.979L46.5483 95.9861C44.9853 95.895 43.5999 87.9275 43.2109 85.6907C43.2001 85.6287 43.1901 85.571 43.1809 85.5181C42.938 84.1297 42.0713 77.9536 43.0318 76.0363C43.3454 75.3676 44.1939 74.5827 45.1824 73.6684C46.8734 72.1041 48.9742 70.1608 49.5073 67.772C50.0349 64.2744 49.8034 60.7045 48.8283 57.304C48.348 55.844 46.8299 53.9818 44.4837 52.4171C43.4227 52.4382 42.3732 52.6413 41.3812 53.0176C41.1922 53.0866 41.0078 53.1676 40.8292 53.26L40.6525 53.3592C40.6038 53.3883 40.5576 53.4214 40.5145 53.4584L40.3986 53.552C38.2622 55.282 36.6171 57.5023 35.0272 59.6566C33.5366 61.8359 31.8052 63.8411 29.8656 65.6343C28.7615 66.6205 27.6961 67.4525 26.5534 68.3285C23.7807 70.3885 21.1946 72.6874 18.8248 75.1988C15.4242 78.6753 9.76571 85.6558 9.31303 93.9807C9.73764 93.9314 10.1649 94.0478 10.5055 94.3057C10.5495 94.3387 10.5911 94.3789 10.6319 94.4184C10.6524 94.4383 10.6728 94.458 10.6931 94.4765C10.8705 94.4063 11.056 94.3582 11.2452 94.3333C11.546 94.3062 11.8489 94.3515 12.1285 94.4655C12.6177 94.7067 13.0079 95.1097 13.2326 95.606C13.6177 96.4432 13.8065 97.3571 13.7846 98.2781V98.9447H12.7081L12.6474 97.7271C12.6138 97.1665 12.4752 96.6171 12.2389 96.1073C12.128 95.8437 11.9343 95.6232 11.6868 95.4792C11.5772 95.4328 11.4568 95.4176 11.3391 95.4352C11.7909 96.5503 12.0233 97.7418 12.0236 98.9447H10.5772C10.7097 96.6693 9.74915 95.1101 8.76099 95.314C9.05092 95.7121 9.26432 96.1604 9.39033 96.6362C9.53399 97.3969 9.59139 98.1712 9.56146 98.9447H8.07646C8.08198 96.8236 7.57961 95.2093 6.71842 95.5288C6.31543 95.65 5.90693 95.7602 5.48185 95.8539C5.86828 95.5068 6.2768 95.1872 6.69635 94.8787L6.79572 94.8181C6.67427 90.8182 9.13087 84.6366 11.9794 80.229C13.874 77.4151 15.9699 74.7416 18.2506 72.2292C19.4761 70.8999 20.6636 69.8729 21.8966 68.8064C25.2681 65.8904 28.9801 62.68 34.7401 52.1912C35.848 49.9581 36.858 48.7461 37.6653 47.7773C39.1107 46.0429 39.906 45.0885 39.4491 40.4505C39.7796 42.1039 40.3233 43.7076 41.0666 45.2217C41.768 46.3453 42.7904 47.0864 43.8405 47.8477C44.4433 48.2846 45.0552 48.7282 45.6209 49.2546L45.6982 49.3263C47.3782 50.4397 48.9312 51.7329 50.3298 53.1829C51.7651 54.5217 54.2935 55.5795 56.1815 55.5079Z"
    fill="#002522" />
</svg>