<svg width="880" height="658" viewBox="-102 0 880 658" fill="none" xmlns="http://www.w3.org/2000/svg">
  <path
    d="M740.4 1H-75.4H-75.4466C-79.8876 0.999997 -83.2815 0.999995 -85.9902 1.22131C-88.7201 1.44435 -90.8421 1.89714 -92.7178 2.85289C-95.9166 4.48274 -98.5173 7.08341 -100.147 10.2822C-101.103 12.1579 -101.556 14.2799 -101.779 17.0098C-102 19.7185 -102 23.1123 -102 27.5534V27.6V630.4V630.447C-102 634.888 -102 638.281 -101.779 640.99C-101.556 643.72 -101.103 645.842 -100.147 647.718C-98.5173 650.917 -95.9166 653.517 -92.7178 655.147C-90.8421 656.103 -88.7201 656.556 -85.9902 656.779C-83.2817 657 -79.8881 657 -75.4475 657H-75.4H740.4H740.448C744.888 657 748.282 657 750.99 656.779C753.72 656.556 755.842 656.103 757.718 655.147C760.917 653.517 763.517 650.917 765.147 647.718C766.103 645.842 766.556 643.72 766.779 640.99C767 638.282 767 634.888 767 630.448V630.4V27.6V27.5525C767 23.1119 767 19.7184 766.779 17.0098C766.556 14.2799 766.103 12.1579 765.147 10.2822C763.517 7.08341 760.917 4.48274 757.718 2.85289C755.842 1.89714 753.72 1.44435 750.99 1.22131C748.281 0.999995 744.888 0.999997 740.447 1H740.4Z"
    fill="#CCD3D3" fill-opacity="0.05" stroke="#33514E" stroke-width="2" />
  <line x1="-101" y1="50" x2="766" y2="50" stroke="#33514E" stroke-width="2" />
  <path
    d="M704 25C704 19.8824 704 17.3236 705.353 15.5608C705.535 15.3227 705.734 15.0977 705.947 14.8873C706.14 14.6967 706.345 14.5181 706.561 14.3526C708.324 13 710.882 13 716 13C721.118 13 723.676 13 725.439 14.3526C725.893 14.7008 726.299 15.107 726.647 15.5608C728 17.3236 728 19.8824 728 25C728 30.1176 728 32.6764 726.647 34.4392C726.482 34.6549 726.303 34.8598 726.113 35.0529C725.902 35.266 725.677 35.4647 725.439 35.6474C723.676 37 721.118 37 716 37C710.882 37 708.324 37 706.561 35.6474C706.107 35.2992 705.701 34.893 705.353 34.4392C704 32.6764 704 30.1176 704 25Z"
    fill="url(#paint0_linear_641_10091)" />
  <path fill-rule="evenodd" clip-rule="evenodd"
    d="M725.042 24.2885C725.249 24.4564 725.389 24.6931 725.436 24.9554C725.446 25.0318 725.446 25.1089 725.439 25.1854C725.419 25.2458 725.419 25.2946 725.419 25.3493C725.402 25.4552 725.378 25.5599 725.347 25.6626C725.284 25.8768 725.187 26.0797 725.06 26.2634C725.036 26.2981 725.006 26.3376 724.985 26.3648C724.978 26.3737 724.972 26.3814 724.968 26.387C724.968 26.3912 724.97 26.3973 724.972 26.405C724.979 26.4292 724.991 26.4699 724.991 26.5222C725.025 26.7321 725.034 26.9453 725.02 27.1575C724.991 27.5675 724.894 27.9698 724.732 28.3476C724.571 28.7427 724.317 29.0935 723.993 29.3711L723.956 29.4027L723.904 29.4228C723.503 29.5716 723.092 29.6908 722.674 29.7793C722.243 29.8797 721.802 29.9232 721.36 29.9086H721.325H721.285C720.372 29.6146 719.429 29.4218 718.474 29.3337C718.214 29.3159 717.955 29.2793 717.7 29.2244C717.442 29.1562 717.188 29.0707 716.941 28.9686C716.556 28.8306 716.162 28.7173 715.763 28.6294C715.575 28.8919 715.488 29.2135 715.518 29.5349C715.547 29.8887 715.866 30.4976 716.094 30.9336C716.142 31.0255 716.186 31.1096 716.223 31.1822C716.48 31.752 716.573 32.3822 716.492 33.0021C716.412 33.622 716.16 34.2072 715.766 34.6923C715.143 33.3913 713.977 32.7738 712.932 32.2209C711.428 31.425 710.177 30.7628 711.166 28.3879C711.446 27.6933 711.619 26.9299 711.76 26.3046C711.881 25.773 711.979 25.3413 712.1 25.1365V25.1538C712.02 25.6295 712.02 26.1154 712.1 26.5912C712.138 26.8141 712.222 27.0266 712.348 27.215C712.478 27.3866 712.653 27.5189 712.853 27.5973C713.287 27.7691 713.745 27.8719 714.21 27.9021C714.449 27.9365 714.688 27.9365 714.929 27.9365H714.929C715.057 27.9356 715.184 27.9413 715.311 27.9538C715.438 27.9653 715.567 27.9797 715.694 27.9998C716.195 28.0808 716.689 28.2019 717.171 28.362C717.604 28.5338 718.063 28.631 718.528 28.6495C719.517 28.727 720.494 28.9199 721.438 29.2244C721.815 29.2375 722.193 29.2085 722.564 29.1382C722.658 29.1203 722.75 29.0998 722.841 29.0793C722.882 29.0701 722.923 29.0609 722.964 29.052C723.611 28.8622 724.35 27.8589 723.505 27.9538C723.27 27.9648 723.036 27.9936 722.806 28.04C722.597 28.0826 722.434 28.1217 722.295 28.1547C721.874 28.2553 721.69 28.2991 721.196 28.2125C720.848 28.0918 720.485 28.0145 720.118 27.9825C720.426 27.7845 720.791 27.6954 721.156 27.7296C721.425 27.7636 721.698 27.7519 721.964 27.6951C722.098 27.6568 722.234 27.5831 722.382 27.5034C722.5 27.4396 722.626 27.3719 722.763 27.3156C723.153 27.1926 723.562 27.1391 723.97 27.1575C724.072 27.0501 724.147 26.9203 724.19 26.7784C724.232 26.6366 724.241 26.4868 724.215 26.341C724.132 26.2154 724.006 26.1244 723.861 26.0852C723.804 26.0725 723.731 26.0584 723.648 26.0423C723.221 25.9595 722.522 25.8237 722.242 25.5591C722.05 25.3751 721.946 24.8145 722.625 24.6593C722.984 24.5962 723.349 24.5836 723.711 24.6219C723.867 24.6392 724.289 24.6794 724.387 24.5989C724.321 24.3707 723.576 23.9629 722.835 23.5569C722.184 23.201 721.537 22.8464 721.351 22.6154C720.526 21.7742 719.833 20.8127 719.296 19.7636C719.122 19.3249 718.792 18.9657 718.37 18.7545C718.872 18.7178 719.369 18.8673 719.767 19.1743C719.825 19.2219 719.898 19.3526 719.992 19.52C720.255 19.9888 720.679 20.7458 721.371 20.7755C721.444 20.7825 721.518 20.7696 721.584 20.7381C721.241 20.4148 721.01 20.0246 720.793 19.6593C720.464 19.1054 720.169 18.6084 719.572 18.4872C719.563 18.4837 719.554 18.4802 719.545 18.4767C719.409 18.4232 719.281 18.3732 719.138 18.3003L718.732 18.0991L717.927 17.7081C717.396 17.4514 716.849 17.2296 716.289 17.0441C715.735 16.8621 715.164 16.7378 714.584 16.6732C714.458 16.6588 714.288 16.6416 714.17 16.6416C714.059 16.642 713.95 16.6685 713.851 16.7192C713.782 16.7479 713.704 16.7882 713.625 16.8286C713.562 16.861 713.499 16.8936 713.44 16.9204C713.414 16.9321 713.389 16.9437 713.363 16.9554C713.256 17.0042 713.148 17.0534 713.043 17.1044C712.518 17.3586 712.022 17.67 711.566 18.033C711.223 18.2748 710.922 18.571 710.674 18.9098C711.107 18.8784 711.541 18.9341 711.951 19.0736C711.328 19.1035 710.717 19.2598 710.156 19.5331C709.595 19.8064 709.096 20.1909 708.688 20.6634C707.949 21.4539 707.374 25.4872 708.211 26.5538C708.619 26.3626 709.171 25.4284 709.799 24.3667C710.766 22.7307 711.912 20.792 712.986 20.8042C712.339 21.3821 711.839 22.9344 711.338 24.6737C710.936 26.0852 709.57 29.3049 708.708 29.3825C708.372 29.4027 708.248 29.2417 708.021 28.914L707.831 28.6552C707.5 28.1943 707.247 27.6813 707.084 27.1374C706.933 26.6048 706.843 26.0571 706.814 25.5045C706.784 24.961 706.797 24.4161 706.851 23.8745C706.909 23.3378 707 22.805 707.121 22.279C707.242 21.7525 707.399 21.2349 707.59 20.7295C707.642 20.6001 707.693 20.4736 707.759 20.3443C707.793 20.2718 707.831 20.2017 707.874 20.1344C707.924 20.0669 707.979 20.0034 708.038 19.9447C708.248 19.7453 708.485 19.5768 708.743 19.4445C709.119 19.248 709.52 19.103 709.936 19.0133C710.067 18.7189 710.247 18.4488 710.467 18.2141C710.686 17.9853 710.923 17.7756 711.177 17.5874C711.665 17.201 712.193 16.8694 712.753 16.5985C712.885 16.5295 713.058 16.4518 713.173 16.403C713.233 16.3772 713.297 16.3442 713.368 16.3077C713.431 16.2752 713.499 16.2399 713.575 16.2046C713.747 16.123 713.934 16.0798 714.124 16.0781C714.287 16.0786 714.449 16.0901 714.61 16.1126C715.229 16.1802 715.839 16.3122 716.43 16.5065C717.012 16.7006 717.581 16.931 718.134 17.1964L718.951 17.5931L719.356 17.7944C719.455 17.8479 719.582 17.8964 719.719 17.9493C719.729 17.9532 719.74 17.9571 719.75 17.9611C719.9 18.0186 720.038 18.079 720.187 18.1537C720.268 18.1951 720.346 18.2422 720.42 18.2946C720.491 18.3518 720.558 18.4132 720.621 18.4786C720.841 18.718 721.034 18.9813 721.196 19.2634C721.214 19.2946 721.232 19.3257 721.249 19.3567C721.533 19.8535 721.797 20.3152 722.208 20.5858L722.495 20.7755C722.491 20.7915 722.484 20.807 722.475 20.8215L722.415 20.9336L722.127 21.0802C722.071 21.1078 722.026 21.1561 722.004 21.2153C721.993 21.2419 721.987 21.2701 721.987 21.2987V21.4827C721.988 21.5798 721.976 21.6767 721.949 21.7702C721.938 21.8078 721.924 21.8411 721.912 21.8705C721.894 21.9129 721.88 21.9471 721.88 21.9743C721.872 22.0034 721.872 22.0343 721.88 22.0634C721.961 22.4279 723.021 23.0404 723.897 23.5462C724.451 23.8663 724.931 24.1436 725.042 24.2885ZM717.95 21.7622C717.982 22.1618 717.496 22.4752 716.921 22.5413C716.182 22.6132 715.809 22.2078 715.892 21.6961C715.975 21.1844 715.616 21.1844 715.374 21.4719C715.369 21.4788 715.362 21.4838 715.353 21.4861C715.345 21.4884 715.336 21.4879 715.328 21.4846C715.32 21.4814 715.313 21.4756 715.308 21.4681C715.304 21.4606 715.302 21.4518 715.303 21.4431C715.423 20.5893 715.924 20.5519 716.148 20.5519C716.822 20.5998 717.49 20.7135 718.143 20.8912C718.161 20.8956 718.178 20.905 718.191 20.9183C718.204 20.9315 718.213 20.9482 718.217 20.9664C718.221 20.9846 718.22 21.0036 718.214 21.0213C718.208 21.039 718.197 21.0546 718.183 21.0665C718.086 21.1513 718.013 21.2604 717.972 21.3827C717.931 21.505 717.924 21.636 717.95 21.7622Z"
    fill="#001413" />
  <defs>
    <linearGradient id="paint0_linear_641_10091" x1="711.584" y1="36.761" x2="724.784" y2="13"
      gradientUnits="userSpaceOnUse">
      <stop stop-color="#D08E39" />
      <stop offset="1" stop-color="#E3BB88" />
    </linearGradient>
  </defs>
</svg>