<svg width="613" height="658" viewBox="0 0 613 658" fill="none" xmlns="http://www.w3.org/2000/svg">
<path d="M585.4 1H27.6H27.5534C23.1124 0.999997 19.7185 0.999995 17.0098 1.22131C14.2799 1.44435 12.1579 1.89714 10.2822 2.85289C7.08341 4.48274 4.48274 7.08341 2.85289 10.2822C1.89714 12.1579 1.44435 14.2799 1.22131 17.0098C0.999995 19.7185 0.999997 23.1123 1 27.5534V27.6V630.4V630.447C0.999997 634.888 0.999995 638.281 1.22131 640.99C1.44435 643.72 1.89714 645.842 2.85289 647.718C4.48274 650.917 7.08341 653.517 10.2822 655.147C12.1579 656.103 14.2799 656.556 17.0098 656.779C19.7183 657 23.1119 657 27.5525 657H27.6H585.4H585.448C589.888 657 593.282 657 595.99 656.779C598.72 656.556 600.842 656.103 602.718 655.147C605.917 653.517 608.517 650.917 610.147 647.718C611.103 645.842 611.556 643.72 611.779 640.99C612 638.282 612 634.888 612 630.448V630.4V27.6V27.5525C612 23.1119 612 19.7184 611.779 17.0098C611.556 14.2799 611.103 12.1579 610.147 10.2822C608.517 7.08341 605.917 4.48274 602.718 2.85289C600.842 1.89714 598.72 1.44435 595.99 1.22131C593.281 0.999995 589.888 0.999997 585.447 1H585.4Z" fill="#CCD3D3" fill-opacity="0.05" stroke="#33514E" stroke-width="2"/>
<line x1="2" y1="50" x2="611" y2="50" stroke="#33514E" stroke-width="2"/>
<circle cx="26.9236" cy="25.6667" r="6.66667" stroke="#33514E" stroke-width="2"/>
<circle cx="52.257" cy="25.6667" r="6.66667" stroke="#33514E" stroke-width="2"/>
<circle cx="77.5902" cy="25.6667" r="6.66667" stroke="#33514E" stroke-width="2"/>
<path d="M549 25C549 19.8824 549 17.3236 550.353 15.5608C550.535 15.3227 550.734 15.0977 550.947 14.8873C551.14 14.6967 551.345 14.5181 551.561 14.3526C553.324 13 555.882 13 561 13C566.118 13 568.676 13 570.439 14.3526C570.893 14.7008 571.299 15.107 571.647 15.5608C573 17.3236 573 19.8824 573 25C573 30.1176 573 32.6764 571.647 34.4392C571.482 34.6549 571.303 34.8598 571.113 35.0529C570.902 35.266 570.677 35.4647 570.439 35.6474C568.676 37 566.118 37 561 37C555.882 37 553.324 37 551.561 35.6474C551.107 35.2992 550.701 34.893 550.353 34.4392C549 32.6764 549 30.1176 549 25Z" fill="url(#paint0_linear_641_10091)"/>
<path fill-rule="evenodd" clip-rule="evenodd" d="M570.042 24.2885C570.249 24.4564 570.389 24.6931 570.436 24.9554C570.446 25.0318 570.446 25.1089 570.439 25.1854C570.419 25.2458 570.419 25.2946 570.419 25.3493C570.402 25.4552 570.378 25.5599 570.347 25.6626C570.284 25.8768 570.187 26.0797 570.06 26.2634C570.036 26.2981 570.006 26.3376 569.985 26.3648C569.978 26.3737 569.972 26.3814 569.968 26.387C569.968 26.3912 569.97 26.3973 569.972 26.405C569.979 26.4292 569.991 26.4699 569.991 26.5222C570.025 26.7321 570.034 26.9453 570.02 27.1575C569.991 27.5675 569.894 27.9698 569.732 28.3476C569.571 28.7427 569.317 29.0935 568.993 29.3711L568.956 29.4027L568.904 29.4228C568.503 29.5716 568.092 29.6908 567.674 29.7793C567.243 29.8797 566.802 29.9232 566.36 29.9086H566.325H566.285C565.372 29.6146 564.429 29.4218 563.474 29.3337C563.214 29.3159 562.955 29.2793 562.7 29.2244C562.442 29.1562 562.188 29.0707 561.941 28.9686C561.556 28.8306 561.162 28.7173 560.763 28.6294C560.575 28.8919 560.488 29.2135 560.518 29.5349C560.547 29.8887 560.866 30.4976 561.094 30.9336C561.142 31.0255 561.186 31.1096 561.223 31.1822C561.48 31.752 561.573 32.3822 561.492 33.0021C561.412 33.622 561.16 34.2072 560.766 34.6923C560.143 33.3913 558.977 32.7738 557.932 32.2209C556.428 31.425 555.177 30.7628 556.166 28.3879C556.446 27.6933 556.619 26.9299 556.76 26.3046C556.881 25.773 556.979 25.3413 557.1 25.1365V25.1538C557.02 25.6295 557.02 26.1154 557.1 26.5912C557.138 26.8141 557.222 27.0266 557.348 27.215C557.478 27.3866 557.653 27.5189 557.853 27.5973C558.287 27.7691 558.745 27.8719 559.21 27.9021C559.449 27.9365 559.688 27.9365 559.929 27.9365H559.929C560.057 27.9356 560.184 27.9413 560.311 27.9538C560.438 27.9653 560.567 27.9797 560.694 27.9998C561.195 28.0808 561.689 28.2019 562.171 28.362C562.604 28.5338 563.063 28.631 563.528 28.6495C564.517 28.727 565.494 28.9199 566.438 29.2244C566.815 29.2375 567.193 29.2085 567.564 29.1382C567.658 29.1203 567.75 29.0998 567.841 29.0793C567.882 29.0701 567.923 29.0609 567.964 29.052C568.611 28.8622 569.35 27.8589 568.505 27.9538C568.27 27.9648 568.036 27.9936 567.806 28.04C567.597 28.0826 567.434 28.1217 567.295 28.1547C566.874 28.2553 566.69 28.2991 566.196 28.2125C565.848 28.0918 565.485 28.0145 565.118 27.9825C565.426 27.7845 565.791 27.6954 566.156 27.7296C566.425 27.7636 566.698 27.7519 566.964 27.6951C567.098 27.6568 567.234 27.5831 567.382 27.5034C567.5 27.4396 567.626 27.3719 567.763 27.3156C568.153 27.1926 568.562 27.1391 568.97 27.1575C569.072 27.0501 569.147 26.9203 569.19 26.7784C569.232 26.6366 569.241 26.4868 569.215 26.341C569.132 26.2154 569.006 26.1244 568.861 26.0852C568.804 26.0725 568.731 26.0584 568.648 26.0423C568.221 25.9595 567.522 25.8237 567.242 25.5591C567.05 25.3751 566.946 24.8145 567.625 24.6593C567.984 24.5962 568.349 24.5836 568.711 24.6219C568.867 24.6392 569.289 24.6794 569.387 24.5989C569.321 24.3707 568.576 23.9629 567.835 23.5569C567.184 23.201 566.537 22.8464 566.351 22.6154C565.526 21.7742 564.833 20.8127 564.296 19.7636C564.122 19.3249 563.792 18.9657 563.37 18.7545C563.872 18.7178 564.369 18.8673 564.767 19.1743C564.825 19.2219 564.898 19.3526 564.992 19.52C565.255 19.9888 565.679 20.7458 566.371 20.7755C566.444 20.7825 566.518 20.7696 566.584 20.7381C566.241 20.4148 566.01 20.0246 565.793 19.6593C565.464 19.1054 565.169 18.6084 564.572 18.4872C564.563 18.4837 564.554 18.4802 564.545 18.4767C564.409 18.4232 564.281 18.3732 564.138 18.3003L563.732 18.0991L562.927 17.7081C562.396 17.4514 561.849 17.2296 561.289 17.0441C560.735 16.8621 560.164 16.7378 559.584 16.6732C559.458 16.6588 559.288 16.6416 559.17 16.6416C559.059 16.642 558.95 16.6685 558.851 16.7192C558.782 16.7479 558.704 16.7882 558.625 16.8286C558.562 16.861 558.499 16.8936 558.44 16.9204C558.414 16.9321 558.389 16.9437 558.363 16.9554C558.256 17.0042 558.148 17.0534 558.043 17.1044C557.518 17.3586 557.022 17.67 556.566 18.033C556.223 18.2748 555.922 18.571 555.674 18.9098C556.107 18.8784 556.541 18.9341 556.951 19.0736C556.328 19.1035 555.717 19.2598 555.156 19.5331C554.595 19.8064 554.096 20.1909 553.688 20.6634C552.949 21.4539 552.374 25.4872 553.211 26.5538C553.619 26.3626 554.171 25.4284 554.799 24.3667C555.766 22.7307 556.912 20.792 557.986 20.8042C557.339 21.3821 556.839 22.9344 556.338 24.6737C555.936 26.0852 554.57 29.3049 553.708 29.3825C553.372 29.4027 553.248 29.2417 553.021 28.914L552.831 28.6552C552.5 28.1943 552.247 27.6813 552.084 27.1374C551.933 26.6048 551.843 26.0571 551.814 25.5045C551.784 24.961 551.797 24.4161 551.851 23.8745C551.909 23.3378 552 22.805 552.121 22.279C552.242 21.7525 552.399 21.2349 552.59 20.7295C552.642 20.6001 552.693 20.4736 552.759 20.3443C552.793 20.2718 552.831 20.2017 552.874 20.1344C552.924 20.0669 552.979 20.0034 553.038 19.9447C553.248 19.7453 553.485 19.5768 553.743 19.4445C554.119 19.248 554.52 19.103 554.936 19.0133C555.067 18.7189 555.247 18.4488 555.467 18.2141C555.686 17.9853 555.923 17.7756 556.177 17.5874C556.665 17.201 557.193 16.8694 557.753 16.5985C557.885 16.5295 558.058 16.4518 558.173 16.403C558.233 16.3772 558.297 16.3442 558.368 16.3077C558.431 16.2752 558.499 16.2399 558.575 16.2046C558.747 16.123 558.934 16.0798 559.124 16.0781C559.287 16.0786 559.449 16.0901 559.61 16.1126C560.229 16.1802 560.839 16.3122 561.43 16.5065C562.012 16.7006 562.581 16.931 563.134 17.1964L563.951 17.5931L564.356 17.7944C564.455 17.8479 564.582 17.8964 564.719 17.9493C564.729 17.9532 564.74 17.9571 564.75 17.9611C564.9 18.0186 565.038 18.079 565.187 18.1537C565.268 18.1951 565.346 18.2422 565.42 18.2946C565.491 18.3518 565.558 18.4132 565.621 18.4786C565.841 18.718 566.034 18.9813 566.196 19.2634C566.214 19.2946 566.232 19.3257 566.249 19.3567C566.533 19.8535 566.797 20.3152 567.208 20.5858L567.495 20.7755C567.491 20.7915 567.484 20.807 567.475 20.8215L567.415 20.9336L567.127 21.0802C567.071 21.1078 567.026 21.1561 567.004 21.2153C566.993 21.2419 566.987 21.2701 566.987 21.2987V21.4827C566.988 21.5798 566.976 21.6767 566.949 21.7702C566.938 21.8078 566.924 21.8411 566.912 21.8705C566.894 21.9129 566.88 21.9471 566.88 21.9743C566.872 22.0034 566.872 22.0343 566.88 22.0634C566.961 22.4279 568.021 23.0404 568.897 23.5462C569.451 23.8663 569.931 24.1436 570.042 24.2885ZM562.95 21.7622C562.982 22.1618 562.496 22.4752 561.921 22.5413C561.182 22.6132 560.809 22.2078 560.892 21.6961C560.975 21.1844 560.616 21.1844 560.374 21.4719C560.369 21.4788 560.362 21.4838 560.353 21.4861C560.345 21.4884 560.336 21.4879 560.328 21.4846C560.32 21.4814 560.313 21.4756 560.308 21.4681C560.304 21.4606 560.302 21.4518 560.303 21.4431C560.423 20.5893 560.924 20.5519 561.148 20.5519C561.822 20.5998 562.49 20.7135 563.143 20.8912C563.161 20.8956 563.178 20.905 563.191 20.9183C563.204 20.9315 563.213 20.9482 563.217 20.9664C563.221 20.9846 563.22 21.0036 563.214 21.0213C563.208 21.039 563.197 21.0546 563.183 21.0665C563.086 21.1513 563.013 21.2604 562.972 21.3827C562.931 21.505 562.924 21.636 562.95 21.7622Z" fill="#001413"/>
<defs>
<linearGradient id="paint0_linear_641_10091" x1="556.584" y1="36.761" x2="569.784" y2="13" gradientUnits="userSpaceOnUse">
<stop stop-color="#D08E39"/>
<stop offset="1" stop-color="#E3BB88"/>
</linearGradient>
</defs>
</svg>
