<svg width="497" height="426" viewBox="0 0 497 426" fill="none" xmlns="http://www.w3.org/2000/svg">
  <g filter="url(#filter0_b_646_10482)">
    <path
      d="M2 27.6C2 18.6392 2 14.1587 3.7439 10.7362C5.27787 7.72556 7.72556 5.27787 10.7362 3.7439C14.1587 2 18.6392 2 27.6 2H469.4C478.361 2 482.841 2 486.264 3.7439C489.274 5.27787 491.722 7.72556 493.256 10.7362C495 14.1587 495 18.6392 495 27.6V398.4C495 407.361 495 411.841 493.256 415.264C491.722 418.274 489.274 420.722 486.264 422.256C482.841 424 478.361 424 469.4 424H27.6C18.6392 424 14.1587 424 10.7362 422.256C7.72556 420.722 5.27787 418.274 3.7439 415.264C2 411.841 2 407.361 2 398.4V27.6Z"
      fill="#CCD3D3" fill-opacity="0.05" />
    <path
      d="M469.4 1H27.6H27.5534C23.1124 0.999997 19.7185 0.999995 17.0098 1.22131C14.2799 1.44435 12.1579 1.89714 10.2822 2.85289C7.08341 4.48274 4.48274 7.08341 2.85289 10.2822C1.89714 12.1579 1.44435 14.2799 1.22131 17.0098C0.999995 19.7185 0.999997 23.1124 1 27.5534V27.6V398.4V398.447C0.999997 402.888 0.999995 406.281 1.22131 408.99C1.44435 411.72 1.89714 413.842 2.85289 415.718C4.48274 418.917 7.08341 421.517 10.2822 423.147C12.1579 424.103 14.2799 424.556 17.0098 424.779C19.7187 425 23.1128 425 27.5543 425H27.6H469.4H469.446C473.887 425 477.281 425 479.99 424.779C482.72 424.556 484.842 424.103 486.718 423.147C489.917 421.517 492.517 418.917 494.147 415.718C495.103 413.842 495.556 411.72 495.779 408.99C496 406.281 496 402.887 496 398.446V398.4V27.6V27.5543C496 23.1128 496 19.7187 495.779 17.0098C495.556 14.2799 495.103 12.1579 494.147 10.2822C492.517 7.08341 489.917 4.48274 486.718 2.85289C484.842 1.89714 482.72 1.44435 479.99 1.22131C477.281 0.999995 473.888 0.999997 469.447 1H469.4Z"
      stroke="#33514E" stroke-width="2" />
  </g>
  <circle cx="34" cy="33" r="9" stroke="#33514E" stroke-width="2" />
  <circle cx="62" cy="33" r="9" stroke="#33514E" stroke-width="2" />
  <circle cx="90" cy="33" r="9" stroke="#33514E" stroke-width="2" />
  <defs>
    <filter id="filter0_b_646_10482" x="-20" y="-20" width="537" height="466" filterUnits="userSpaceOnUse"
      color-interpolation-filters="sRGB">
      <feFlood flood-opacity="0" result="BackgroundImageFix" />
      <feGaussianBlur in="BackgroundImage" stdDeviation="10" />
      <feComposite in2="SourceAlpha" operator="in" result="effect1_backgroundBlur_646_10482" />
      <feBlend mode="normal" in="SourceGraphic" in2="effect1_backgroundBlur_646_10482" result="shape" />
    </filter>
  </defs>
</svg>