<svg width="62" height="56" viewBox="0 0 62 56" fill="none" xmlns="http://www.w3.org/2000/svg">
  <path
    d="M10.1024 43.6221L10.7774 36.2373C10.7866 36.1713 10.8181 36.1111 10.8661 36.0675C10.9141 36.024 10.9755 36 11.0389 36C11.1024 36 11.1637 36.024 11.2117 36.0675C11.2597 36.1111 11.2912 36.1713 11.3005 36.2373L11.9642 43.6162C12.0065 44.0283 12.185 44.4118 12.4687 44.6999C12.7523 44.9881 13.1231 45.1628 13.5167 45.1936L21.7741 45.7135C21.8369 45.7232 21.8943 45.7562 21.9357 45.8067C21.9772 45.8571 22 45.9215 22 45.9882C22 46.0548 21.9772 46.1192 21.9357 46.1697C21.8943 46.2201 21.8369 46.2532 21.7741 46.2629L13.5111 46.8005C13.1175 46.8313 12.7467 47.0059 12.4631 47.2941C12.1794 47.5823 12.0009 47.9658 11.9586 48.3779L11.2836 55.7627C11.2744 55.8287 11.2429 55.8889 11.1948 55.9325C11.1468 55.976 11.0855 56 11.022 56C10.9586 56 10.8973 55.976 10.8492 55.9325C10.8012 55.8889 10.7697 55.8287 10.7605 55.7627L10.0967 48.3838C10.0544 47.9717 9.87593 47.5882 9.59229 47.3001C9.30865 47.0119 8.93779 46.8372 8.54424 46.8064L0.264355 46.3043C0.19424 46.3043 0.126998 46.275 0.0774184 46.2229C0.027839 46.1709 0 46.1002 0 46.0266C0 45.9529 0.027839 45.8823 0.0774184 45.8302C0.126998 45.7782 0.19424 45.7489 0.264355 45.7489L8.53302 45.2172C8.93216 45.1898 9.30904 45.0144 9.59648 44.7223C9.88392 44.4301 10.0632 44.0402 10.1024 43.6221Z"
    fill="#33514E" />
  <path
    d="M31.1743 18.6741L32.9232 0.581302C32.9471 0.419763 33.0287 0.27215 33.1531 0.165424C33.2775 0.0586977 33.4365 0 33.6009 0C33.7653 0 33.9241 0.0586977 34.0486 0.165424C34.173 0.27215 34.2546 0.419763 34.2785 0.581302L35.9982 18.6597C36.1078 19.6693 36.5703 20.6088 37.3052 21.3149C38.0401 22.0209 39.0009 22.4489 40.0205 22.5243L61.4147 23.798C61.5774 23.8218 61.726 23.9028 61.8335 24.0264C61.9409 24.1499 62 24.3078 62 24.471C62 24.6343 61.9409 24.7922 61.8335 24.9157C61.726 25.0393 61.5774 25.1203 61.4147 25.1441L40.0059 26.4613C38.9863 26.5366 38.0255 26.9646 37.2906 27.6706C36.5558 28.3767 36.0932 29.3163 35.9836 30.3259L34.2348 48.4187C34.2109 48.5802 34.1292 48.7278 34.0048 48.8346C33.8804 48.9413 33.7215 49 33.5571 49C33.3927 49 33.2338 48.9413 33.1094 48.8346C32.985 48.7278 32.9033 48.5802 32.8794 48.4187L31.1597 30.3403C31.0501 29.3307 30.5876 28.3912 29.8528 27.6851C29.1179 26.9791 28.157 26.5511 27.1374 26.4757L5.68492 25.2454C5.50326 25.2454 5.32904 25.1737 5.20058 25.0462C5.07213 24.9186 5 24.7456 5 24.5651C5 24.3847 5.07213 24.2117 5.20058 24.0841C5.32904 23.9565 5.50326 23.8848 5.68492 23.8848L27.1083 22.5822C28.1424 22.5151 29.1189 22.0853 29.8636 21.3695C30.6083 20.6537 31.0729 19.6984 31.1743 18.6741Z"
    fill="#99A8A7" />
</svg>