<svg width="44" height="40" viewBox="0 0 44 40" fill="none" xmlns="http://www.w3.org/2000/svg">
  <path
    d="M21.6321 26.6614L20.4048 39.5848C20.388 39.7002 20.3308 39.8056 20.2434 39.8818C20.1561 39.9581 20.0446 40 19.9292 40C19.8138 40 19.7024 39.9581 19.615 39.8818C19.5277 39.8056 19.4705 39.7002 19.4537 39.5848L18.2469 26.6717C18.1699 25.9505 17.8454 25.2794 17.3297 24.7751C16.814 24.2708 16.1397 23.9651 15.4242 23.9112L0.410738 23.0014C0.296599 22.9845 0.192267 22.9266 0.116858 22.8383C0.0414452 22.75 2.2968e-06 22.6373 2.28661e-06 22.5207C2.27641e-06 22.4041 0.0414451 22.2913 0.116858 22.2031C0.192267 22.1148 0.296599 22.0569 0.410738 22.0399L15.4344 21.0991C16.15 21.0453 16.8242 20.7396 17.3399 20.2353C17.8556 19.7309 18.1802 19.0598 18.2571 18.3386L19.4843 5.41522C19.5011 5.29983 19.5584 5.19439 19.6458 5.11816C19.7331 5.04193 19.8446 5 19.9599 5C20.0753 5 20.1868 5.04193 20.2741 5.11816C20.3614 5.19439 20.4187 5.29983 20.4355 5.41522L21.6423 18.3283C21.7193 19.0495 22.0438 19.7206 22.5595 20.2249C23.0752 20.7292 23.7495 21.0349 24.465 21.0888L39.5194 21.9676C39.6468 21.9676 39.7691 22.0188 39.8592 22.1099C39.9494 22.201 40 22.3246 40 22.4535C40 22.5823 39.9494 22.7059 39.8592 22.7971C39.7691 22.8882 39.6468 22.9394 39.5194 22.9394L24.4854 23.8699C23.7597 23.9178 23.0745 24.2248 22.5519 24.7361C22.0292 25.2473 21.7033 25.9297 21.6321 26.6614Z"
    fill="#99A8A7" />
  <path
    d="M36.6528 8.66454L36.1619 13.8339C36.1552 13.8801 36.1323 13.9222 36.0974 13.9527C36.0625 13.9832 36.0178 14 35.9717 14C35.9255 14 35.8809 13.9832 35.846 13.9527C35.8111 13.9222 35.7882 13.8801 35.7815 13.8339L35.2988 8.66867C35.268 8.3802 35.1381 8.11177 34.9319 7.91004C34.7256 7.7083 34.4559 7.58604 34.1697 7.5645L28.1643 7.20057C28.1186 7.19379 28.0769 7.17063 28.0467 7.13532C28.0166 7.10002 28 7.05492 28 7.00827C28 6.96162 28.0166 6.91653 28.0467 6.88122C28.0769 6.84592 28.1186 6.82276 28.1643 6.81597L34.1738 6.43964C34.46 6.4181 34.7297 6.29584 34.936 6.0941C35.1422 5.89237 35.2721 5.62393 35.3029 5.33546L35.7937 0.166086C35.8004 0.119932 35.8234 0.0777566 35.8583 0.0472629C35.8932 0.0167701 35.9378 -2.48857e-07 35.984 -2.52891e-07C36.0301 -2.56925e-07 36.0747 0.0167701 36.1096 0.0472629C36.1446 0.0777566 36.1675 0.119932 36.1742 0.166086L36.6569 5.33133C36.6877 5.6198 36.8175 5.88823 37.0238 6.08996C37.2301 6.2917 37.4998 6.41396 37.786 6.4355L43.8077 6.78702C43.8587 6.78702 43.9076 6.8075 43.9437 6.84395C43.9798 6.8804 44 6.92984 44 6.98139C44 7.03294 43.9798 7.08238 43.9437 7.11883C43.9076 7.15528 43.8587 7.17576 43.8077 7.17576L37.7942 7.54795C37.5039 7.56713 37.2298 7.68991 37.0207 7.89442C36.8117 8.09893 36.6813 8.37187 36.6528 8.66454Z"
    fill="#33514E" />
</svg>