<svg width="24" height="24" viewBox="0 0 24 24" fill="none" xmlns="http://www.w3.org/2000/svg">
  <path
    d="M20.317 4.55427C18.7873 3.83487 17.147 3.30484 15.4319 3.00127C15.4007 2.99541 15.3695 3.01006 15.3534 3.03934C15.1424 3.42392 14.9087 3.92564 14.7451 4.31999C12.9004 4.03693 11.0652 4.03693 9.25832 4.31999C9.09465 3.91688 8.85248 3.42392 8.64057 3.03934C8.62449 3.01103 8.59328 2.99639 8.56205 3.00127C6.84791 3.30387 5.20756 3.8339 3.67693 4.55427C3.66368 4.56013 3.65233 4.5699 3.64479 4.58258C0.533392 9.34699 -0.31895 13.9943 0.0991801 18.584C0.101072 18.6064 0.11337 18.6279 0.130398 18.6416C2.18321 20.1868 4.17171 21.1248 6.12328 21.7466C6.15451 21.7564 6.18761 21.7446 6.20748 21.7183C6.66913 21.0721 7.08064 20.3908 7.43348 19.6743C7.4543 19.6323 7.43442 19.5825 7.39186 19.566C6.73913 19.3122 6.1176 19.0027 5.51973 18.6513C5.47244 18.623 5.46865 18.5537 5.51216 18.5205C5.63797 18.4239 5.76382 18.3233 5.88396 18.2218C5.90569 18.2033 5.93598 18.1994 5.96153 18.2111C9.88928 20.0491 14.1415 20.0491 18.023 18.2111C18.0485 18.1984 18.0788 18.2023 18.1015 18.2209C18.2216 18.3224 18.3475 18.4239 18.4742 18.5205C18.5177 18.5537 18.5149 18.623 18.4676 18.6513C17.8697 19.0096 17.2482 19.3122 16.5945 19.565C16.552 19.5816 16.533 19.6323 16.5538 19.6743C16.9143 20.3898 17.3258 21.0711 17.7789 21.7173C17.7978 21.7446 17.8319 21.7564 17.8631 21.7466C19.8241 21.1248 21.8126 20.1868 23.8654 18.6416C23.8834 18.6279 23.8948 18.6074 23.8967 18.585C24.3971 13.2788 23.0585 8.66958 20.3482 4.58355C20.3416 4.5699 20.3303 4.56013 20.317 4.55427ZM8.02002 15.7893C6.8375 15.7893 5.86313 14.6766 5.86313 13.31C5.86313 11.9435 6.8186 10.8307 8.02002 10.8307C9.23087 10.8307 10.1958 11.9532 10.1769 13.31C10.1769 14.6766 9.22141 15.7893 8.02002 15.7893ZM15.9947 15.7893C14.8123 15.7893 13.8379 14.6766 13.8379 13.31C13.8379 11.9435 14.7933 10.8307 15.9947 10.8307C17.2056 10.8307 18.1705 11.9532 18.1516 13.31C18.1516 14.6766 17.2056 15.7893 15.9947 15.7893Z"
    fill="#002825" />
</svg>