<?xml version="1.0" standalone="no"?>
<!DOCTYPE svg PUBLIC "-//W3C//DTD SVG 1.1//EN" "http://www.w3.org/Graphics/SVG/1.1/DTD/svg11.dtd">
<svg xmlns="http://www.w3.org/2000/svg"><metadata>This SVG WebFont was generated by YouWorkForThem.
Copyright Â© 2018 by Connary Fagen. All rights reserved.</metadata><defs><font horiz-adv-x="1443" id="ywftsvg"><font-face ascent="1638" bbox="-483.455 -602 2050 1839" cap-height="1272" descent="-410" font-family="" font-stretch="normal" font-weight="400" panose-1="0 0 5 0 0 0 0 0 0 0" underline-position="0" underline-thickness="0" unicode-range="U+0020-FB02" units-per-em="2048" x-height="924"/><missing-glyph d="M864 1638v-2109h-667v2109h667zM702 1497h-348v-70h138v-77h-140v-70h350v70h-139v77h139v70zM563 1225h-211v-219h350v71h-139v148zM492 1153v-76h-70v76h70zM702 948h-350v-69h140v-78h-140v-70h211v148h139v69zM702 821h-69v-139h-281v-72h350v211zM702 565h-210v-119 h71v50h70v-101h-211v170h-70v-239h350v239zM702 201h-350v-240h350v240zM633 131v-100h-211v100h211zM702 -88h-350v-70h148l-148 -98v-70h350v70h-215l148 98h67v70z" horiz-adv-x="1054"/><glyph d="M53 0v49q84 6 115 30.5t31 82.5v618q0 63 -47 64h-111v47q86 14 122 34.5t36 67.5q0 199 101 301.5t278 102.5q121 0 198.5 -46t77.5 -120q0 -82 -88 -82q-43 0 -78 28.5t-54.5 63.5t-58 63.5t-88.5 28.5q-68 0 -86 -48t-18 -167v-141q0 -39 21.5 -51.5t89.5 -12.5h141 v-73l-141 4q-68 2 -89.5 -11.5t-21.5 -56.5v-614q0 -59 37 -83t145 -30v-49h-512zM731 0v49q74 6 102.5 30.5t28.5 82.5v563q0 72 -26.5 97.5t-106.5 17.5v47l240 51q78 16 78 -61v-715q0 -57 28.5 -82t102.5 -31v-49h-447z" glyph-name="uniFB01" horiz-adv-x="1228" unicode="fi"/><glyph d="M977 -12q-143 0 -143 155v799q0 182 -73 286.5t-210 104.5q-104 0 -136 -62.5t-32 -207.5v-86q0 -39 21.5 -51.5t89.5 -12.5h141v-73l-141 4q-68 2 -89.5 -11.5t-21.5 -56.5v-614q0 -59 37 -83t145 -30v-49h-512v49q84 6 115 30.5t31 82.5v618q0 63 -47 64h-111v47 q86 14 122 34.5t36 67.5v27q0 182 115.5 279.5t299.5 97.5q176 0 290 -93.5t114 -302.5v-854q0 -92 102 -71v-29q-39 -59 -143 -59z" glyph-name="uniFB02" horiz-adv-x="1171" unicode="fl"/><glyph d="M864 1638v-2109h-667v2109h667zM702 1497h-348v-70h138v-77h-140v-70h350v70h-139v77h139v70zM563 1225h-211v-219h350v71h-139v148zM492 1153v-76h-70v76h70zM702 948h-350v-69h140v-78h-140v-70h211v148h139v69zM702 821h-69v-139h-281v-72h350v211zM702 565h-210v-119 h71v50h70v-101h-211v170h-70v-239h350v239zM702 201h-350v-240h350v240zM633 131v-100h-211v100h211zM702 -88h-350v-70h148l-148 -98v-70h350v70h-215l148 98h67v70z" glyph-name=".notdef" horiz-adv-x="1054"/><glyph glyph-name="glyph1" horiz-adv-x="0"/><glyph glyph-name="glyph2" horiz-adv-x="681"/><glyph glyph-name="space" horiz-adv-x="378" unicode=" "/><glyph d="M184 385q-4 193 -48 437.5t-44 328.5q0 70 34 112t93.5 42t93 -42t33.5 -112q0 -84 -45 -328.5t-49 -437.5h-68zM219 -12q-49 0 -84 34.5t-35 86.5q0 47 35 81.5t84 34.5q47 0 83 -34.5t36 -81.5q0 -51 -36 -86t-83 -35z" glyph-name="exclam" horiz-adv-x="438" unicode="!"/><glyph d="M157.5 889q-32.5 0 -38.5 41l-45 319q-6 47 16.5 75t67.5 28t67.5 -28t16.5 -75l-45 -319q-7 -41 -39.5 -41zM413.5 889q-32.5 0 -38.5 41l-45 319q-6 47 16.5 75t67.5 28t67.5 -28t16.5 -75l-45 -319q-7 -41 -39.5 -41z" glyph-name="quotedbl" horiz-adv-x="571" unicode="&quot;"/><glyph d="M1026 899h-235l-125 -483h219v-51h-232l-110 -426h-58l111 426h-264l-111 -426h-57l110 426h-223v51h236l125 483h-219v51h231l111 426h57l-111 -426h264l111 426h57l-110 -426h223v-51zM608 416l125 483h-264l-125 -483h264z" glyph-name="numbersign" horiz-adv-x="1077" unicode="#"/><glyph d="M915 438q0 -150 -119.5 -227.5t-293.5 -83.5v-127h-43v127q-178 2 -342 98q-39 94 -36 181.5t48 87.5q20 0 31 -25q39 -115 117.5 -186.5t181.5 -87.5v417l-19 6q-346 117 -346 353q0 131 98.5 215t266.5 92v133h43v-131q184 0 325 -84q39 -94 36 -181t-48 -87 q-20 0 -31 26q-37 113 -112.5 181.5t-169.5 83.5v-416q2 0 6 -2t6 -2q76 -27 109.5 -39t101.5 -46t100.5 -67t61 -88t28.5 -121zM256 1032q0 -82 51 -130t152 -85v406h-6q-100 0 -148.5 -56.5t-48.5 -134.5zM526 188q98 0 155.5 48.5t57.5 140.5q0 94 -59 139t-178 82v-410 h24z" glyph-name="dollar" horiz-adv-x="987" unicode="$"/><glyph d="M1055 1272h75l-831 -1272h-172l885 1214q-47 -41 -98.5 -58t-111 -11t-94 14t-104.5 31q35 -59 35 -137q0 -133 -96.5 -232.5t-223.5 -99.5q-104 0 -160.5 67.5t-56.5 167.5q0 131 97.5 230.5t224.5 99.5q94 0 186 -23.5t145.5 -42t131.5 -10t168 61.5zM360 778 q66 0 99 72t33 180q0 199 -109 199q-68 0 -100.5 -72t-32.5 -180q-1 -199 110 -199zM1006 543q104 0 160.5 -67.5t56.5 -168.5q0 -131 -97.5 -230.5t-224.5 -99.5q-104 0 -160.5 68t-56.5 166q0 133 97.5 232.5t224.5 99.5zM942 35q68 0 100.5 71.5t32.5 180.5 q0 199 -110 198q-68 0 -101 -71.5t-33 -180.5q0 -198 111 -198z" glyph-name="percent" horiz-adv-x="1325" unicode="%"/><glyph d="M663.5 -20q-243.5 0 -412.5 111.5t-169 297.5q0 156 116.5 256t225.5 100q-92 25 -152.5 96.5t-60.5 168.5q0 127 106.5 211t276.5 84q145 0 241.5 -60.5t96.5 -154.5q0 -49 -25.5 -77t-66.5 -28t-68 27.5t-27 77.5q0 68 -47 111.5t-112 43.5q-88 0 -135.5 -55 t-47.5 -148q0 -111 64.5 -199.5t187.5 -125.5l-22 -53q-152 31 -246 -55.5t-94 -223.5q0 -156 107.5 -250t275.5 -94q176 0 284.5 104.5t108.5 243.5q0 80 -42 131t-109 51q-78 0 -109 -50t10 -95h-53q-47 39 -47 96q0 33 22.5 62.5t45 47t75.5 52.5l225 147 q100 66 141.5 111t41.5 117q0 80 -58.5 116.5t-148.5 4.5l-21 45q80 47 166 47q98 0 173 -59.5t75 -163.5q0 -49 -20.5 -91.5t-51 -76t-93 -72.5t-121 -69.5t-156.5 -80.5q-49 -25 -74 -36q160 0 241 -72t83 -178q2 -168 -177.5 -280.5t-423 -112.5z" glyph-name="ampersand" horiz-adv-x="1538" unicode="&amp;"/><glyph d="M157.5 889q-32.5 0 -38.5 41l-45 319q-6 47 16.5 75t67.5 28t67.5 -28t16.5 -75l-45 -319q-7 -41 -39.5 -41z" glyph-name="quotesingle" horiz-adv-x="315" unicode="'"/><glyph d="M543 -340q-23 0 -39 14q-190 160 -301 405t-111 527.5t110.5 527t301.5 404.5q16 14 39 14h24q20 0 27.5 -8t-2.5 -18q-147 -150 -228 -392.5t-79 -527.5q-2 -281 75.5 -520.5t221.5 -388.5q10 -10 12 -18.5t-4 -13.5t-19 -5h-28z" glyph-name="parenleft" horiz-adv-x="649" unicode="("/><glyph d="M106 -340h-28q-18 0 -21.5 10.5t11.5 26.5q141 150 220 390.5t77 518.5q2 285 -79 527.5t-229 392.5q-10 10 -3 18t28 8h24q23 0 39 -14q188 -160 300 -405.5t112 -526t-111.5 -526.5t-300.5 -406q-16 -14 -39 -14z" glyph-name="parenright" horiz-adv-x="649" unicode=")"/><glyph d="M315 1065l-61 160q8 70 82 80q74 -10 82 -80l-64 -160q-4 -12 -12 -17.5t-15.5 0t-11.5 17.5zM252 1001l-164 37q-55 41 -27 111q45 57 111 29l113 -138q14 -14 2 -28.5t-35 -10.5zM422 1001q-23 -4 -35 10.5t2 28.5l113 138q63 27 110 -29q29 -68 -26 -111zM172 793 q-66 -29 -111 28q-29 70 27 113l166 35q20 4 31.5 -10.5t-2.5 -28.5zM502 793l-111 137q-14 14 -3 28.5t32 10.5l166 -35q53 -45 26 -113q-47 -55 -110 -28zM336 670q-74 10 -82 80l61 159q8 20 20.5 20.5t20.5 -20.5l62 -159q-8 -70 -82 -80z" glyph-name="asterisk" horiz-adv-x="673" unicode="*"/><glyph d="M860 545v-60h-348v-350h-59v350h-351v60h351v350h59v-350h348z" glyph-name="plus" horiz-adv-x="962" unicode="+"/><glyph d="M158 -207l-31 33q35 31 57.5 69.5t22.5 63.5q0 35 -33 35q-49 0 -81 31.5t-32 83.5q0 53 36 84.5t87 31.5q63 0 97 -46t34 -113q0 -80 -43.5 -154t-113.5 -119z" glyph-name="comma" horiz-adv-x="376" unicode=","/><glyph d="M102 498v71h553v-71h-553z" glyph-name="hyphen" horiz-adv-x="757" unicode="-"/><glyph d="M201 -12q-49 0 -84 34.5t-35 86.5q0 47 35 81.5t84 34.5q47 0 81.5 -34.5t34.5 -81.5q0 -51 -34.5 -86t-81.5 -35z" glyph-name="period" horiz-adv-x="399" unicode="."/><glyph d="M72 0l546 1313h103l-547 -1313h-102z" glyph-name="slash" horiz-adv-x="792" unicode="/"/><glyph d="M590 -20q-246 0 -382 193.5t-136 469.5q0 274 136 468t382 194t382 -193.5t136 -468.5q0 -276 -136 -469.5t-382 -193.5zM608 43q283 0 283 547q0 127 -16.5 237.5t-51.5 206.5t-99.5 151.5t-152.5 55.5q-285 0 -284 -545q0 -129 16 -239.5t51 -206.5t100.5 -151.5 t153.5 -55.5z" glyph-name="zero" horiz-adv-x="1179" unicode="0"/><glyph d="M61 0v49q102 8 140.5 31.5t38.5 81.5v858q0 63 -15.5 77.5t-68.5 10.5l-86 -6v45l288 133q35 12 50.5 3t15.5 -36v-1085q0 -57 38 -81t140 -32v-49h-541z" glyph-name="one" horiz-adv-x="663" unicode="1"/><glyph d="M82 0q0 129 74.5 244.5t180 201.5t211 168t180.5 178.5t75 196.5q0 102 -61.5 179t-178.5 77q-109 0 -175 -68.5t-66 -170.5q0 -43 15 -81t15 -59q0 -49 -30.5 -72.5t-71.5 -23.5q-61 0 -97 51t-36 131q0 143 117.5 248t336.5 105q207 0 324 -96.5t117 -256.5 q0 -113 -65.5 -201.5t-170 -153.5t-214 -124t-216 -140t-158.5 -173h523q125 0 179 30.5t89 118.5h49l-33 -180q-18 -96 6 -129h-919z" glyph-name="two" horiz-adv-x="1110" unicode="2"/><glyph d="M537 -20q-197 0 -331 100t-134 258q0 131 108 131q39 0 57.5 -17.5t22.5 -42t14.5 -76.5t28.5 -100q76 -195 256 -194q135 0 214 97t79 251q0 139 -66.5 212t-171.5 73q-68 0 -161 -39l-23 57q188 63 261 120.5t73 174.5t-61.5 189.5t-170.5 72.5q-102 0 -154 -66.5 t-52 -176.5q0 -121 -95 -121q-55 0 -81.5 33.5t-26.5 84.5q0 119 111.5 211.5t320.5 92.5q197 0 300 -81t103 -208q0 -190 -256 -277q119 12 238 -78t119 -255q0 -184 -151.5 -305t-370.5 -121z" glyph-name="three" horiz-adv-x="1140" unicode="3"/><glyph d="M508 0v49q90 8 124 31.5t34 81.5v180h-580l-35 111l611 852l188 -33v-780h209v-150h-209v-180q0 -57 35 -81t125 -32v-49h-502zM207 492h459v725l-484 -674q-14 -23 -8 -37t33 -14z" glyph-name="four" horiz-adv-x="1140" unicode="4"/><glyph d="M537 -20q-197 0 -331 100t-134 258q0 131 108 131q39 0 57.5 -17.5t22.5 -42t14.5 -76.5t28.5 -100q80 -195 254 -194q127 0 208 98.5t81 253.5q0 168 -93.5 287t-252.5 119q-190 0 -283 -146h-49l49 621h592l145 28l-22 -202h-672l-29 -355q57 59 149.5 94t192.5 35 q186 0 334 -113.5t148 -322.5q0 -201 -147.5 -328.5t-370.5 -127.5z" glyph-name="five" horiz-adv-x="1126" unicode="5"/><glyph d="M553 -20q-248 0 -365.5 174t-115.5 440q0 137 32.5 261t96 226.5t172 163t250.5 60.5q152 0 235 -70l-31 -45q-86 45 -161 45q-109 0 -189 -54.5t-122 -145.5t-61.5 -189t-19.5 -203q25 57 123.5 115.5t220.5 58.5q168 0 285 -112.5t117 -288.5q0 -182 -128 -309 t-339 -127zM569 39q127 0 188.5 104.5t61.5 243.5q0 152 -70.5 249t-193.5 97q-119 0 -200 -90t-81 -229q0 -143 80 -259t215 -116z" glyph-name="six" horiz-adv-x="1081" unicode="6"/><glyph d="M203 0l635 1096h-426q-121 0 -183.5 -23.5t-103.5 -103.5h-53l98 319l156 -16h661l-645 -1272h-139z" glyph-name="seven" horiz-adv-x="1038" unicode="7"/><glyph d="M547 -20q-217 0 -346 102t-129 268q0 231 266 328q-186 106 -186 297q0 147 116.5 238.5t298.5 91.5q176 0 287 -87.5t111 -220.5q0 -188 -211 -276q143 -47 224 -136t81 -212q0 -170 -144.5 -281.5t-367.5 -111.5zM578 780q117 -33 176 40t59 181q0 102 -59.5 173 t-192.5 71q-117 0 -171 -61.5t-54 -149.5q0 -188 223 -250zM567 39q143 0 215 80t72 198q0 104 -62.5 165t-213.5 106l-33 8q-133 41 -221 -21.5t-88 -203.5q0 -137 86.5 -234.5t244.5 -97.5z" glyph-name="eight" horiz-adv-x="1130" unicode="8"/><glyph d="M528 1305q248 0 366 -174.5t116 -440.5q0 -137 -33 -261t-96.5 -226.5t-172 -162.5t-249.5 -60q-152 0 -236 69l29 45q88 -45 164 -45q109 0 188.5 55.5t121.5 145.5t61.5 188.5t19.5 202.5q-25 -57 -123 -115.5t-221 -58.5q-168 0 -285 112.5t-117 288.5 q0 182 128 309.5t339 127.5zM512 1245q-127 0 -188.5 -104.5t-61.5 -243.5q0 -154 70.5 -250t193.5 -96q119 0 200 90t81 229q0 143 -80 259t-215 116z" glyph-name="nine" horiz-adv-x="1081" unicode="9"/><glyph d="M201 662q-49 0 -84 35.5t-35 84.5q0 47 35 83t84 36q47 0 81.5 -36t34.5 -83q0 -49 -34.5 -84.5t-81.5 -35.5zM203 -12q-49 0 -84 34.5t-35 86.5q0 47 35 81.5t84 34.5q47 0 81.5 -34.5t34.5 -81.5q0 -51 -34.5 -86t-81.5 -35z" glyph-name="colon" horiz-adv-x="401" unicode=":"/><glyph d="M186 659q-47 0 -82.5 36t-35.5 85q0 47 35.5 83t82.5 36t83 -36t36 -83q0 -49 -36 -85t-83 -36zM158 -207l-31 33q35 31 57.5 69.5t22.5 63.5q0 35 -33 35q-49 0 -81 31.5t-32 83.5q0 53 36 84.5t87 31.5q63 0 97 -46t34 -113q0 -80 -43.5 -154t-113.5 -119z" glyph-name="semicolon" horiz-adv-x="376" unicode=";"/><glyph d="M860 121l-758 354v80l758 352v-73l-678 -320l678 -319v-74z" glyph-name="less" horiz-adv-x="962" unicode="&lt;"/><glyph d="M102 670v59h758v-59h-758zM102 301v59h758v-59h-758z" glyph-name="equal" horiz-adv-x="962" unicode="="/><glyph d="M102 121v74l678 319l-678 320v73l758 -352v-80z" glyph-name="greater" horiz-adv-x="962" unicode=">"/><glyph d="M432 365q-10 133 26 234t85 151.5t92 120t43 145.5q0 96 -61.5 155.5t-159.5 59.5q-92 0 -141.5 -53.5t-49.5 -130.5q0 -33 23.5 -86.5t23.5 -83.5q0 -37 -33.5 -65t-74.5 -28q-55 0 -94 51.5t-39 131.5q0 147 115.5 242.5t306.5 95.5q178 0 282.5 -85t104.5 -225 q0 -80 -36 -142t-88 -106.5t-105.5 -91.5t-94.5 -120.5t-49 -169.5h-76zM471 -12q-49 0 -84 34.5t-35 86.5q0 47 35 81.5t84 34.5q47 0 82 -34.5t35 -81.5q0 -51 -35 -86t-82 -35z" glyph-name="question" horiz-adv-x="952" unicode="?"/><glyph d="M745 -170q-287 0 -485.5 193.5t-198.5 486.5q0 291 198 484.5t476 193.5q285 0 478.5 -184.5t193.5 -477.5q0 -186 -84 -293.5t-217 -107.5q-147 0 -195 158q-35 -61 -111.5 -109.5t-170.5 -48.5q-90 0 -156.5 48t-66.5 149q0 96 93 159.5t337 100.5q53 8 53 45 q0 213 -146 213q-70 0 -98.5 -27t-28.5 -84q0 -96 -86 -96q-82 0 -81 78q0 80 104 130t227 50q264 0 264 -275v-340q0 -98 76 -98q39 0 66.5 30t39 78t16.5 91t5 88q0 279 -139 474.5t-373 195.5q-236 0 -373 -165t-137 -421q0 -260 151.5 -463t389.5 -203q113 0 178 17 l10 -43q-94 -27 -209 -27zM700 207q76 0 132.5 54t56.5 132v76q0 33 -11.5 49.5t-43.5 11.5q-145 -18 -203 -72.5t-58 -117.5q0 -61 33 -97t94 -36z" glyph-name="at" horiz-adv-x="1468" unicode="@"/><glyph d="M41 0v49q74 14 114 49t74 111l385 895q43 98 43 168l127 12l449 -1024q51 -121 85 -160t107 -51v-49h-481v49q88 14 104.5 48t-16.5 96l-51 118q-35 68 -119 68h-381q-92 0 -116 -62l-52 -114q-55 -129 133 -154v-49h-405zM471 449h397q20 0 31.5 14t1.5 37l-211 485 q-20 49 -41 -2l-207 -481q-10 -25 -0.5 -39t29.5 -14z" glyph-name="A" horiz-adv-x="1466" unicode="A"/><glyph d="M61 0v49q70 12 98.5 33.5t28.5 75.5v958q0 53 -29.5 74.5t-97.5 32.5v49h601q229 0 354 -75t125 -220q0 -227 -299 -293q373 -57 372 -334q0 -156 -119.5 -253t-314.5 -97q-31 0 -181 8t-295 8t-243 -16zM526 719h136q264 0 264 250q0 240 -264 239h-136 q-68 0 -97.5 -19.5t-29.5 -72.5v-303q0 -53 30.5 -73.5t96.5 -20.5zM475 70h227q297 0 297 274q0 160 -108.5 236.5t-366.5 76.5q-66 0 -95.5 -20.5t-29.5 -73.5v-405q0 -88 76 -88z" glyph-name="B" horiz-adv-x="1296" unicode="B"/><glyph d="M729 -20q-272 0 -470 180t-198 481q0 303 201 483.5t483 180.5q217 0 353.5 -103.5t136.5 -226.5q0 -59 -34 -97t-93 -38q-113 0 -123 133q-6 106 -83 185t-224 79q-182 0 -292 -132t-110 -360q0 -283 167 -456.5t409 -173.5q209 0 362 172l33 -27q-55 -100 -188 -190 t-330 -90z" glyph-name="C" horiz-adv-x="1318" unicode="C"/><glyph d="M61 0v49q70 12 98.5 33.5t28.5 75.5v958q0 53 -29.5 74.5t-97.5 32.5v49h500q147 0 268 -33t220.5 -102.5t155 -194.5t55.5 -295t-57.5 -299t-155 -201.5t-212 -107.5t-243.5 -35q-39 0 -149.5 5t-159.5 5q-101 0 -222 -14zM571 66q242 0 353.5 161.5t111.5 419.5 t-113.5 409.5t-357.5 151.5h-39q-68 0 -97.5 -19.5t-29.5 -72.5v-958q0 -92 172 -92z" glyph-name="D" horiz-adv-x="1341" unicode="D"/><glyph d="M61 0v49q70 12 98.5 33.5t28.5 75.5v956q0 53 -29.5 75.5t-97.5 33.5v49h947q29 0 30 -25q14 -123 41 -231h-43q-39 96 -100.5 143t-159.5 47h-250q-66 0 -96.5 -22.5t-30.5 -77.5v-330q0 -55 31 -76.5t96 -21.5h185q94 0 127.5 33.5t48.5 113.5h33v-360h-33 q-14 80 -49 114.5t-127 34.5h-185q-66 0 -96.5 -21.5t-30.5 -76.5v-350q0 -57 39 -80t142 -20l231 2q100 2 148.5 29.5t78.5 80.5l49 76h43q-45 -88 -61 -225q-4 -29 -33 -29h-975z" glyph-name="E" horiz-adv-x="1171" unicode="E"/><glyph d="M61 0v49q70 12 98.5 33.5t28.5 75.5v956q0 53 -29.5 75.5t-97.5 33.5v49h947q29 0 30 -25q14 -123 41 -231h-43q-39 96 -100.5 143t-159.5 47h-250q-66 0 -96.5 -22.5t-30.5 -77.5v-330q0 -55 31 -76.5t96 -21.5h185q92 0 126.5 30.5t49.5 96.5h33v-320h-33 q-14 66 -49 97.5t-127 31.5h-185q-66 0 -96.5 -21.5t-30.5 -76.5v-358q0 -55 32 -76t116 -33v-49h-486z" glyph-name="F" horiz-adv-x="1120" unicode="F"/><glyph d="M713 -20q-172 0 -318.5 75.5t-240 228t-93.5 353.5q0 305 200 486.5t484 181.5q217 0 352.5 -102.5t135.5 -221.5q0 -55 -33 -92t-92 -37q-51 0 -83 30.5t-36 84.5q-8 106 -86 188t-225 82q-182 0 -292 -132t-110 -360q0 -295 173.5 -490.5t406.5 -195.5q82 0 123 32 t41 106v143q0 115 -34 153.5t-148 47.5v41l499 2v-43q-82 -10 -105.5 -48t-23.5 -153v-150q0 -127 11 -190q-49 39 -105.5 43t-107 -11.5t-133 -33.5t-160.5 -18z" glyph-name="G" horiz-adv-x="1388" unicode="G"/><glyph d="M1366 1223q-68 -10 -97.5 -33t-29.5 -76v-956q0 -53 28.5 -75t98.5 -34v-49h-465v49q70 12 99.5 33.5t29.5 75.5v372q0 70 -76 70h-481q-74 0 -74 -70v-372q0 -53 29 -75t98 -34v-49h-465v49q70 12 98.5 33.5t28.5 75.5v956q0 53 -29.5 75.5t-97.5 33.5v49h465v-49 q-68 -10 -97.5 -33t-29.5 -76v-383q0 -70 76 -69h477q78 0 78 69v383q0 53 -30.5 75.5t-98.5 33.5v49h465v-49z" glyph-name="H" horiz-adv-x="1427" unicode="H"/><glyph d="M61 0v49q70 12 98.5 33.5t28.5 75.5v956q0 53 -29.5 75.5t-97.5 33.5v49h465v-49q-68 -10 -97.5 -33t-29.5 -76v-956q0 -53 29 -75t98 -34v-49h-465z" glyph-name="I" horiz-adv-x="587" unicode="I"/><glyph d="M254 -20q-137 0 -216 57t-79 143q0 51 28.5 84t78.5 33q98 0 98 -121q0 -57 26.5 -99t79.5 -42q98 0 99 151v928q0 55 -33 76.5t-117 32.5v49h486v-49q-68 -10 -97.5 -33t-29.5 -76v-815q0 -166 -87 -242.5t-237 -76.5z" glyph-name="J" horiz-adv-x="765" unicode="J"/><glyph d="M1049 223q53 -68 102 -106.5t76.5 -48t75.5 -19.5v-49h-498v49q57 6 73.5 30.5t-24.5 86.5l-281 354q-57 74 -116 12q-55 -55 -58 -122v-252q0 -53 29 -75t98 -34v-49h-465v49q70 12 98.5 33.5t28.5 75.5v956q0 53 -29.5 75.5t-97.5 33.5v49h465v-49q-68 -10 -97.5 -33 t-29.5 -76v-551l519 531q41 41 34.5 68.5t-32 42t-64.5 18.5v49h404v-49q-139 -12 -263 -138l-288 -297q-33 -41 -30 -68.5t38 -70.5z" glyph-name="K" horiz-adv-x="1353" unicode="K"/><glyph d="M61 0v49q70 12 98.5 33.5t28.5 75.5v956q0 53 -29.5 75.5t-97.5 33.5v49h465v-49q-68 -10 -97.5 -33t-29.5 -76v-956q0 -106 125 -101l269 15q90 4 143 36.5t88 92.5l37 63h49l-41 -129q-25 -78 -20 -135h-988z" glyph-name="L" horiz-adv-x="1150" unicode="L"/><glyph d="M61 0v49q70 12 102 33.5t32 75.5v956q0 53 -32 75.5t-102 33.5v49h347l438 -912l418 912h340v-49q-70 -10 -99.5 -33t-29.5 -76v-956q0 -53 29.5 -75t99.5 -34v-49h-467v49q70 12 99.5 33.5t29.5 75.5v940l-451 -979h-67l-478 983v-944q0 -53 31 -75t100 -34v-49h-340z " glyph-name="M" horiz-adv-x="1665" unicode="M"/><glyph d="M61 0v49q70 12 102 33.5t32 75.5v956q0 53 -32 75.5t-102 33.5v49h289l740 -946v788q0 53 -31 75.5t-101 33.5v49h340v-49q-70 -10 -100.5 -33t-30.5 -76v-1114h-77l-820 1047v-889q0 -53 31 -75t98 -34v-49h-338z" glyph-name="N" horiz-adv-x="1359" unicode="N"/><glyph d="M711 -20q-276 0 -463 183t-187 468q0 291 195 482.5t477 191.5q276 0 462.5 -182.5t186.5 -467.5q0 -293 -194 -484t-477 -191zM764 53q160 0 273.5 127t113.5 393q0 287 -137 472.5t-334 185.5q-160 0 -273.5 -127t-113.5 -389q0 -289 137 -475.5t334 -186.5z" glyph-name="O" unicode="O"/><glyph d="M61 0v49q70 12 98.5 33.5t28.5 75.5v956q0 53 -29.5 75.5t-97.5 33.5v49h570q258 0 396 -100.5t138 -289t-139 -294t-395 -105.5h-119q-61 0 -87 -26.5t-26 -87.5v-211q0 -55 32 -76t116 -33v-49h-486zM512 547h119q317 0 317 332q0 328 -317 327h-129q-55 0 -79 -20.5 t-24 -75.5v-451q0 -59 26 -85.5t87 -26.5z" glyph-name="P" horiz-adv-x="1216" unicode="P"/><glyph d="M1292 -41q47 0 74 -30.5t27 -75.5q0 -80 -83 -138.5t-200 -58.5q-133 0 -256 94l-291 217q-104 72 -153.5 52.5t-49.5 -107.5q0 -39 -25.5 -62.5t-64.5 -23.5q-43 0 -67.5 26.5t-24.5 69.5q0 57 47 99t127 59q-135 84 -213 228.5t-78 322.5q0 291 195 482.5t477 191.5 q276 0 462.5 -182.5t186.5 -467.5q0 -270 -169 -456.5t-425 -214.5l236 -170l55.5 -40.5t40 -25.5t29.5 -16t19.5 0t13.5 10t5 25.5t3 37v54.5q0 41 27.5 70.5t74.5 29.5zM680 1231q-160 0 -273.5 -127t-113.5 -389q0 -289 137 -475.5t334 -186.5q160 0 273.5 127t113.5 393 q0 287 -137 472.5t-334 185.5z" glyph-name="Q" unicode="Q"/><glyph d="M61 0v49q70 12 98.5 33.5t28.5 75.5v956q0 53 -29.5 75.5t-97.5 33.5v49h586q233 0 359.5 -90t126.5 -254q0 -248 -297 -316q-6 -2 -9.5 -6t-0.5 -8t10 -6q166 -47 227 -250q55 -166 91 -229.5t95 -63.5v-49h-67q-150 0 -212.5 65.5t-129.5 266.5q-45 135 -113 188 t-186 53q-82 0 -112 -25.5t-30 -86.5v-303q0 -55 32 -76t116 -33v-49h-486zM512 641h131q145 0 211 77t66 206q0 283 -275 282h-119q-72 0 -99.5 -20.5t-27.5 -75.5v-358q0 -59 26 -85t87 -26z" glyph-name="R" horiz-adv-x="1290" unicode="R"/><glyph d="M526 -20q-217 0 -403 112q-43 109 -40 209t54 100q25 0 35 -30q51 -152 164 -238t258 -84q115 2 180.5 57.5t65.5 159.5q0 59 -22.5 103.5t-71 74t-92.5 47t-119 41.5q-27 8 -39 13q-188 63 -294 159.5t-106 245.5q0 158 126 256.5t337 98.5q221 0 381 -97 q43 -106 40 -207.5t-54 -101.5q-25 0 -35 31q-49 150 -152.5 228.5t-230.5 78.5q-115 0 -170 -63.5t-55 -153.5q0 -104 73.5 -161.5t221.5 -106.5q61 -20 88.5 -29.5t87 -34t90 -44t75 -53.5t66 -69t38.5 -83t17 -103q0 -123 -78.5 -207t-190.5 -116.5t-245 -32.5z" glyph-name="S" horiz-adv-x="1112" unicode="S"/><glyph d="M305 0v49q127 10 168 31.5t41 77.5v917q0 78 -27.5 100.5t-134 22.5t-156 -41t-92.5 -162h-53l33 260q2 20 29 21q57 -4 131 -4h749q72 0 133 4q25 0 27 -21l35 -260h-53q-43 121 -92.5 162t-156 41t-135 -23.5t-28.5 -99.5v-917q0 -55 42 -77t169 -32v-49h-629z" glyph-name="T" horiz-adv-x="1239" unicode="T"/><glyph d="M690 -20q-231 0 -371.5 136t-140.5 406v592q0 53 -29.5 75.5t-97.5 33.5v49h465v-49q-68 -10 -97.5 -33t-29.5 -76v-557q0 -240 91 -359.5t255 -119.5q160 0 262.5 110.5t102.5 356.5v569q0 53 -33 75.5t-102 33.5v49h352v-49q-68 -10 -100.5 -33t-32.5 -76v-588 q0 -262 -128 -404t-366 -142z" glyph-name="U" horiz-adv-x="1368" unicode="U"/><glyph d="M676 0l-443 1012q-51 121 -84.5 159.5t-107.5 51.5v49h481v-49q-90 -12 -106.5 -47t16.5 -97l344 -792q23 -47 41 2l334 780q53 129 -131 154v49h405v-49q-76 -14 -115.5 -49t-72.5 -111l-385 -895q-43 -98 -43 -168h-133z" glyph-name="V" horiz-adv-x="1466" unicode="V"/><glyph d="M633 0l-400 1012q-47 119 -81.5 158.5t-110.5 52.5v49h471v-49q-88 -12 -104.5 -47t14.5 -97l303 -780q20 -49 41 0l182 477q49 127 -2 250q-45 109 -78.5 146.5t-107.5 50.5v49h471v-49q-88 -12 -104.5 -47t14.5 -97l301 -780q20 -49 41 0l295 770q27 68 -6 104.5 t-125 49.5v49h403v-49q-76 -16 -117 -50t-69 -110l-346 -895q-45 -117 -45 -168h-121l-314 791l-239 -623q-43 -113 -43 -168h-123z" glyph-name="W" horiz-adv-x="2091" unicode="W"/><glyph d="M41 0v49q78 6 177 91t300 341l90 113l-297 428q-70 102 -125 147t-127 54v49h486v-49q-68 -8 -81 -35t25 -88l248 -355q283 354 256 439q-12 35 -71 39v49h407v-49q-78 -6 -175 -91t-298 -341l-80 -101l305 -440q70 -102 125.5 -147.5t126.5 -53.5v-49h-485v49 q68 8 81 35t-26 88l-256 367q-291 -360 -270 -447q10 -39 72 -43v-49h-408z" glyph-name="X" horiz-adv-x="1374" unicode="X"/><glyph d="M387 0v49q98 10 134 31.5t36 77.5v329q0 55 -43 125l-264 414q-63 100 -109.5 141t-109.5 56v49h481v-49q-78 -14 -91 -47t32 -103l256 -403q14 -23 28 0l246 397q86 137 -80 156v49h387v-49q-72 -8 -119 -45t-104 -129l-270 -428q-31 -49 -31 -134v-329q0 -55 36 -77 t134 -32v-49h-549z" glyph-name="Y" horiz-adv-x="1320" unicode="Y"/><glyph d="M31 0l796 1178q20 35 -18 34l-360 -2q-139 0 -201 -49t-107 -155h-51l47 266h993l-798 -1178q-10 -14 -4 -24.5t22 -10.5l420 4q129 2 190.5 48.5t116.5 154.5h53l-59 -266h-1040z" glyph-name="Z" horiz-adv-x="1181" unicode="Z"/><glyph d="M500 -340l-408 21v1853l408 20v-30q0 -25 -43 -33l-199 -39v-1690l199 -38q43 -6 43 -33v-31z" glyph-name="bracketleft" horiz-adv-x="550" unicode="["/><glyph d="M721 0h-103l-546 1313h102z" glyph-name="backslash" horiz-adv-x="792" unicode="\"/><glyph d="M51 -340v31q0 27 43 33l199 38v1690l-199 39q-43 8 -43 33v30l408 -20v-1853z" glyph-name="bracketright" horiz-adv-x="550" unicode="]"/><glyph d="M131 924q-20 0 -26.5 17t10.5 44l299 399q25 35 47 0l297 -399q18 -27 12 -44t-27 -17h-28q-20 0 -58 41l-221 237l-219 -239q-35 -39 -59 -39h-27z" glyph-name="asciicircum" horiz-adv-x="874" unicode="^"/><glyph d="M102 -104v63h1049v-63h-1049z" glyph-name="underscore" horiz-adv-x="1253" unicode="_"/><glyph d="M498 1092q-16 -23 -62 4l-241 145q-55 33 -69.5 75t13.5 70q63 66 144 -20l198 -217q33 -32 17 -57z" glyph-name="grave" horiz-adv-x="598" unicode="`"/><glyph d="M328 -12q-113 0 -190 56t-77 169q0 129 128 211t444 119q29 4 42 16t13 43v45q0 236 -209 236q-164 0 -164 -148q0 -55 -27.5 -83.5t-72.5 -28.5q-92 0 -92 100q0 109 122 164t290 55q180 0 258.5 -81t78.5 -265v-449q0 -92 101 -71v-29q-39 -59 -142 -59 q-63 0 -102 37.5t-41 109.5q0 10 -5 14.5t-12 0t-14 -12.5q-55 -68 -143 -108.5t-186 -40.5zM432 92q106 0 181 69.5t75 172.5v84q0 39 -17.5 55t-64.5 10q-350 -37 -350 -231q0 -68 45 -114t131 -46z" glyph-name="a" horiz-adv-x="1015" unicode="a"/><glyph d="M182 -12q-29 0 -28 30v1110q0 72 -27 97.5t-107 17.5v47l242 51q76 16 76 -61v-436q0 -18 11 -22.5t28 12.5q35 39 113.5 73.5t171.5 34.5q172 0 288.5 -127t116.5 -334q0 -227 -131 -360t-311 -133q-100 0 -207 50t-121 50q-29 0 -62 -50t-53 -50zM625 47 q119 0 187.5 95.5t68.5 252.5q0 180 -88 303t-226 123q-92 0 -160.5 -58t-68.5 -198v-198q0 -160 88 -240t199 -80z" glyph-name="b" horiz-adv-x="1128" unicode="b"/><glyph d="M547 -12q-201 0 -343.5 129t-142.5 346q0 221 147.5 350t352.5 129q162 0 261.5 -75.5t99.5 -170.5q0 -45 -27 -74.5t-74 -29.5q-86 0 -96 98q-23 190 -203 191q-127 0 -198.5 -91.5t-71.5 -250.5q0 -197 114.5 -313.5t286.5 -116.5q158 0 242 124l39 -30 q-33 -80 -135 -147.5t-252 -67.5z" glyph-name="c" horiz-adv-x="1005" unicode="c"/><glyph d="M457 -12q-168 0 -282 129t-114 340q0 225 131.5 355t317.5 130q53 0 104.5 -12t80 -24.5t53 -17.5t34 7t9.5 49v184q0 72 -27 97.5t-107 17.5v47l242 51q76 16 76 -61v-1133q0 -92 102 -71v-29q-39 -59 -141 -59q-109 0 -135 92q-14 35 -43 35q-20 0 -58 -32 t-100.5 -63.5t-142.5 -31.5zM567 109q88 0 156 54t68 179v215q0 162 -88.5 244t-200.5 82q-119 0 -186.5 -95.5t-67.5 -252.5q0 -182 89 -304t230 -122z" glyph-name="d" horiz-adv-x="1128" unicode="d"/><glyph d="M539 -12q-201 0 -339.5 130t-138.5 347q0 221 140.5 349t343.5 128q156 0 250 -74.5t94 -193.5q0 -104 -87 -146.5t-300 -52.5l-180 -10q-63 -2 -52 -86q18 -125 122 -199t239 -74q166 0 254 115l39 -33q-39 -72 -139.5 -136t-245.5 -64zM326 520l139 4q139 4 189.5 35 t50.5 113q0 90 -49.5 149.5t-147.5 59.5q-111 0 -173.5 -72t-74.5 -195q-6 -59 9.5 -77.5t56.5 -16.5z" glyph-name="e" horiz-adv-x="995" unicode="e"/><glyph d="M53 0v49q84 6 115 30.5t31 82.5v618q0 63 -47 64h-111v47q86 14 122 34.5t36 67.5q0 199 100 301.5t274 102.5q104 0 168 -37t64 -107q0 -84 -90 -84q-43 0 -73 26t-43 56.5t-42 56t-74 25.5q-63 0 -81.5 -48t-18.5 -167v-141q0 -39 21.5 -51.5t89.5 -12.5h141v-73 l-141 4q-68 2 -89.5 -11.5t-21.5 -56.5v-614q0 -59 37 -83t145 -30v-49h-512z" glyph-name="f" horiz-adv-x="784" unicode="f"/><glyph d="M420 -395q-170 0 -279.5 62.5t-109.5 174.5q0 129 174 195q37 14 38 17t-12 5q-4 2 -8 2q-66 10 -107.5 52.5t-41.5 95.5q0 55 46 94t132 51q-160 92 -160 269q0 143 101.5 231t281.5 88q233 0 334 -143q-2 61 27.5 101t91.5 40q45 0 71.5 -21.5t26.5 -60.5 q0 -43 -31.5 -62.5t-70.5 -7.5q-41 12 -63.5 -7t-12.5 -62q12 -39 12 -94q0 -141 -99 -229.5t-272 -88.5q-39 0 -94 6t-73 6q-82 0 -82 -55q0 -49 98 -65l313 -56q158 -27 237 -73.5t79 -139.5q0 -139 -167 -232t-380 -93zM510 360q84 0 122 63.5t38 158.5q0 131 -61.5 219 t-164.5 88q-160 0 -159 -221q0 -131 61.5 -219.5t163.5 -88.5zM496 -342q127 0 208.5 55.5t81.5 147.5q0 57 -39.5 84.5t-136.5 46.5l-125 22q-139 27 -206.5 -18t-67.5 -131q0 -96 80 -151.5t205 -55.5z" glyph-name="g" horiz-adv-x="1056" unicode="g"/><glyph d="M950 -12q-66 0 -104.5 37.5t-38.5 117.5v410q0 125 -59.5 200.5t-163.5 75.5q-109 0 -172.5 -76.5t-63.5 -199.5v-391q0 -57 29 -82t102 -31v-49h-446v49q74 6 102.5 30.5t28.5 82.5v966q0 72 -26.5 97.5t-106.5 17.5v47l241 51q76 16 76 -61v-403q0 -92 31 -84 q8 0 18 10q2 2 13.5 14t18.5 17.5t21.5 19.5t26.5 21.5t31.5 19.5t38 19.5t42 14.5t49.5 10t54 3q129 0 214 -82t85 -260v-453q0 -92 103 -71v-29q-40 -59 -144 -59z" glyph-name="h" horiz-adv-x="1134" unicode="h"/><glyph d="M256 1143q-47 0 -80 33.5t-33 80.5q0 45 33 79t80 34q45 0 79 -33.5t34 -79.5q0 -47 -34 -80.5t-79 -33.5zM53 0v49q74 6 102.5 30.5t28.5 82.5v563q0 72 -26.5 97.5t-106.5 17.5v47l242 51q76 16 76 -61v-715q0 -57 28.5 -82t102.5 -31v-49h-447z" glyph-name="i" horiz-adv-x="550" unicode="i"/><glyph d="M250 1143q-47 0 -81 33.5t-34 80.5q0 45 34 79t81 34q45 0 78.5 -33.5t33.5 -79.5q0 -47 -33.5 -80.5t-78.5 -33.5zM82 -410q-84 0 -145.5 35t-61.5 101q0 39 23.5 63.5t64.5 24.5q35 0 60.5 -26t37 -56.5t30 -56t38.5 -25.5q23 0 36 30.5t13 75.5v969q0 72 -26.5 97.5 t-106.5 17.5v47l240 51q78 16 77 -61v-996q0 -137 -77.5 -214t-202.5 -77z" glyph-name="j" horiz-adv-x="495" unicode="j"/><glyph d="M33 0v49q74 6 102.5 30.5t28.5 82.5v966q0 72 -26.5 97.5t-106.5 17.5v47l241 51q76 16 76 -61v-731q0 -33 16.5 -43t38.5 8l304 272q18 18 19 37t-25.5 34t-75.5 20v47h360v-47q-45 -4 -81 -20.5t-48 -27t-59 -51.5l-213 -186l317 -445q41 -57 72 -73.5t98 -24.5v-49 h-414v49q55 8 63.5 26.5t-22.5 59.5l-221 311q-20 31 -55 3q-74 -61 -74 -125v-162q0 -57 29 -82t102 -31v-49h-446z" glyph-name="k" horiz-adv-x="1071" unicode="k"/><glyph d="M297 -12q-66 0 -104.5 37.5t-38.5 117.5v985q0 72 -27 97.5t-107 17.5v47l242 51q76 16 76 -61v-1133q0 -92 102 -71v-29q-39 -59 -143 -59z" glyph-name="l" horiz-adv-x="491" unicode="l"/><glyph d="M1501 -12q-143 0 -143 155v410q0 127 -49 201.5t-144 74.5q-96 0 -153.5 -76.5t-57.5 -199.5v-391q0 -57 28 -82t97 -31v-49h-440v49q74 6 102.5 30.5t28.5 82.5v391q0 127 -48 201.5t-144 74.5q-94 0 -151.5 -76.5t-57.5 -199.5v-391q0 -57 28.5 -82t102.5 -31v-49h-447 v49q74 6 102.5 30.5t28.5 82.5v561q0 72 -26.5 97.5t-106.5 17.5v49l242 51q76 16 76 -61q0 -92 28 -86q8 2 19 12l14 18q16 18 24.5 25.5t28 26t37 27.5t42 20.5t54 16.5t62.5 5q158 0 233 -125q18 -29 40 -35t40 17q31 39 52.5 61.5t82 52t131.5 29.5q127 0 206 -81 t79 -259v-455q0 -92 103 -71v-29q-40 -59 -144 -59z" glyph-name="m" horiz-adv-x="1685" unicode="m"/><glyph d="M971 -12q-66 0 -105 37.5t-39 117.5v410q0 125 -58 200.5t-165 75.5q-109 0 -172 -76.5t-63 -199.5v-391q0 -57 28.5 -82t102.5 -31v-49h-447v49q74 6 102.5 30.5t28.5 82.5v563q0 72 -26.5 97.5t-106.5 17.5v47l242 51q76 16 76 -61q0 -92 30 -84q8 0 19 10 q33 37 54.5 56.5t90 51t146.5 31.5q131 0 217 -82t86 -260v-453q0 -96 102 -71v-29q-39 -59 -143 -59z" glyph-name="n" horiz-adv-x="1155" unicode="n"/><glyph d="M537 -12q-197 0 -336.5 130t-139.5 345q0 217 139.5 348t338.5 131q197 0 336 -130t139 -345q0 -217 -139 -348t-338 -131zM584 51q104 0 167.5 85t63.5 253q0 203 -91 347.5t-232 144.5q-106 0 -169 -86t-63 -254q0 -203 91.5 -346.5t232.5 -143.5z" glyph-name="o" horiz-adv-x="1075" unicode="o"/><glyph d="M43 -389v47q74 8 102.5 32.5t28.5 82.5v952q0 72 -26.5 97.5t-106.5 17.5v47l242 51q76 16 75 -66v-26q0 -20 11.5 -24.5t27.5 12.5q35 39 114 73.5t171 34.5q172 0 288.5 -128t116.5 -337q0 -225 -131 -357t-313 -132q-55 0 -107.5 13t-82 26.5t-53 21.5t-33 -1 t-9.5 -44v-231q0 -57 31 -82t111 -33v-47h-457zM645 47q119 0 187.5 95.5t68.5 252.5q0 180 -88 303t-225 123q-92 0 -161 -58t-69 -198v-198q0 -160 88 -240t199 -80z" glyph-name="p" horiz-adv-x="1148" unicode="p"/><glyph d="M639 -389v47q88 8 120 31.5t32 83.5v293q0 31 -21.5 40t-40.5 -12q-106 -106 -260 -106q-174 0 -291 131t-117 344q0 223 130.5 351t324.5 128q84 0 147.5 -24.5t101.5 -50t56 -25.5q29 0 67 49t58 49q29 0 29 -33v-1134q0 -57 28.5 -82t102.5 -33v-47h-467zM563 109 q90 0 159 54t69 181v178q0 184 -87.5 272.5t-201.5 88.5q-119 0 -186.5 -95.5t-67.5 -255.5q0 -180 88 -301.5t227 -121.5z" glyph-name="q" horiz-adv-x="1105" unicode="q"/><glyph d="M53 0v49q74 6 102.5 30.5t28.5 82.5v563q0 72 -26.5 97.5t-106.5 17.5v47l242 51q76 16 76 -61v-56q0 -18 13 -23t32 13q123 131 268 131q102 0 148.5 -52t46.5 -116q0 -49 -30 -79.5t-75 -30.5q-43 0 -68.5 22.5t-25.5 54.5q0 41 -27.5 70t-72.5 29q-88 0 -148.5 -86 t-60.5 -228v-364q0 -57 29.5 -82t107.5 -31v-49h-453z" glyph-name="r" horiz-adv-x="907" unicode="r"/><glyph d="M418 -12q-203 0 -312 92q-37 72 -34.5 143.5t51.5 71.5q35 0 49 -43q74 -207 270 -207q94 0 143.5 40t49.5 108q0 78 -53.5 114.5t-165.5 73.5q-16 6 -25 8q-141 47 -222 111.5t-81 177.5q0 121 99.5 192.5t258.5 71.5q178 0 289 -80q37 -72 35 -142.5t-51 -70.5 q-33 0 -47 41q-70 199 -248 199q-80 0 -122 -37t-42 -102q0 -76 51 -119t154 -78q8 -4 45 -15.5t49 -16.5t46 -17t48.5 -20.5t42 -24t40 -28.5t31.5 -31.5t27.5 -38t14.5 -45t6 -52.5q0 -127 -111.5 -201.5t-285.5 -74.5z" glyph-name="s" horiz-adv-x="876" unicode="s"/><glyph d="M420 -10q-115 0 -180.5 62.5t-65.5 187.5v551q0 39 -11 53t-36 14h-96v47q162 57 252 217q10 18 32 19h21q25 0 24 -25l-2 -139q0 -33 19.5 -43t87.5 -10h153v-78l-153 8q-68 2 -87.5 -11.5t-19.5 -56.5v-524q0 -98 26 -147t97 -49q57 0 115 36l22 -34q-73 -78 -198 -78z " glyph-name="t" horiz-adv-x="679" unicode="t"/><glyph d="M483 -12q-129 0 -214 83t-85 257v397q0 72 -26.5 95.5t-106.5 19.5v47l242 51q76 16 76 -61v-504q0 -123 59 -199t164 -76q109 0 172 77t63 198v352q0 72 -25.5 95.5t-107.5 19.5v47l242 51q76 16 76 -61v-730q0 -92 102 -71v-29q-39 -59 -143 -59q-63 0 -100 33.5 t-46 91.5q-4 27 -20 26q-12 0 -27 -14q-76 -76 -139 -105q-72 -32 -156 -32z" glyph-name="u" horiz-adv-x="1165" unicode="u"/><glyph d="M461 0l-277 690q-39 94 -68.5 128t-95.5 59v47h426v-47q-82 -25 -93 -59t28 -128l170 -428q20 -53 38.5 -52t39.5 54l82 215q66 166 77 247t-11.5 106.5t-92.5 44.5v47h373v-47q-88 -25 -126 -60t-75 -127l-276 -690h-119z" glyph-name="v" horiz-adv-x="1077" unicode="v"/><glyph d="M449 0l-265 690q-37 92 -67.5 127t-96.5 60v47h422v-47q-82 -25 -93 -59t28 -128l162 -426q39 -102 73 0l64 180q57 162 10 285q-23 59 -53.5 92t-91.5 56v47h422v-47q-82 -25 -93.5 -59t27.5 -128l162 -426q39 -102 74 0l75 215q59 172 70.5 250t-10 103.5t-88.5 44.5 v47h372v-47q-88 -25 -125.5 -60t-74.5 -127l-265 -690h-118l-201 524l-201 -524h-118z" glyph-name="w" horiz-adv-x="1572" unicode="w"/><glyph d="M31 0v49q92 25 147 65t139 144l129 164l-192 266q-61 88 -106.5 127t-110.5 62v47h424v-47q-55 -14 -69.5 -38t1 -55.5t62.5 -95.5l98 -135q92 121 125 185.5t18.5 93t-73.5 45.5v47h370v-47q-94 -25 -149.5 -66t-136.5 -145l-123 -158l196 -272q61 -88 106.5 -127 t110.5 -60v-49h-426v49q55 12 69.5 36t0.5 55.5t-61 95.5l-103 139q-72 -94 -108.5 -150.5t-43 -93.5t12 -53.5t63.5 -28.5v-49h-370z" glyph-name="x" horiz-adv-x="1028" unicode="x"/><glyph d="M256 -406q-80 0 -128 37t-48 97q0 45 29.5 74.5t76.5 29.5q43 0 63.5 -25.5t22.5 -55.5t14.5 -55.5t41.5 -25.5q61 0 116 140q47 121 -12 260l-248 620q-39 94 -68.5 128t-95.5 59v47h426v-47q-82 -25 -94 -59t29 -128l176 -436q39 -90 76 2l86 223q66 166 78 247 t-10.5 106.5t-92.5 44.5v47h371v-47q-90 -25 -127 -60t-72 -127l-338 -837q-53 -135 -110.5 -197t-161.5 -62z" glyph-name="y" horiz-adv-x="1085" unicode="y"/><glyph d="M31 0l565 817q10 16 5 27.5t-23 11.5h-263q-74 0 -115.5 -41t-68.5 -123h-47l37 232h762l-566 -818q-10 -16 -5 -27t24 -11h282q74 0 116 41t69 122h47l-37 -231h-782z" glyph-name="z" horiz-adv-x="913" unicode="z"/><glyph d="M463 -340q-98 39 -153.5 109.5t-71 142.5t-15.5 176v369q0 45 -24.5 66.5t-106.5 58.5v47q82 37 106.5 58.5t24.5 66.5v368q0 104 15.5 176t71 142.5t153.5 109.5l39 -55q-66 -35 -89.5 -123t-23.5 -250v-364q0 -102 -153 -150v-6q154 -47 153 -149v-365 q0 -162 23.5 -250t89.5 -123z" glyph-name="braceleft" horiz-adv-x="552" unicode="{"/><glyph d="M205 -440v2078h61v-2078h-61z" glyph-name="bar" horiz-adv-x="471" unicode="|"/><glyph d="M90 -340l-39 55q66 35 89.5 123t23.5 250v365q0 102 153 149v6q-154 47 -153 150v364q0 162 -23.5 250t-89.5 123l39 55q98 -39 153.5 -109.5t71 -142t15.5 -176.5v-368q0 -45 24.5 -66.5t106.5 -58.5v-47q-82 -37 -106.5 -58.5t-24.5 -66.5v-369q0 -104 -15.5 -176 t-71 -142.5t-153.5 -109.5z" glyph-name="braceright" horiz-adv-x="552" unicode="}"/><glyph d="M682 369q-98 0 -239.5 72.5t-186.5 72.5q-41 0 -69.5 -26.5t-28.5 -77.5h-56q0 117 63.5 181t162.5 64q96 0 237.5 -72.5t186.5 -72.5q41 0 70.5 26.5t29.5 77.5h53q0 -117 -62.5 -181t-160.5 -64z" glyph-name="asciitilde" horiz-adv-x="1007" unicode="~"/><glyph d="M219 934q47 0 83 -35t36 -86q0 -47 -36 -82t-83 -35q-49 0 -84 35t-35 82q0 51 35 86t84 35zM184 537h68q4 -193 49 -437.5t45 -328.5q0 -70 -33.5 -112t-93 -42t-93.5 42t-34 112q0 84 44 328.5t48 437.5z" glyph-name="exclamdown" horiz-adv-x="438" unicode="¡"/><glyph d="M895 233l39 -30q-33 -80 -135.5 -147.5t-251.5 -67.5q-76 0 -154 22l-37 -135h-47l41 150q-129 51 -209 165.5t-80 272.5q0 221 147.5 350t352.5 129q27 0 39 -2l33 123h47l-35 -127q127 -20 202 -90t75 -150q0 -45 -27 -74.5t-74 -29.5q-86 0 -96 98q-16 125 -100 168 l-189 -690q96 -59 217 -59q158 -1 242 124zM252 539q0 -221 145 -342l185 677q-29 6 -60 7q-127 0 -198.5 -91t-71.5 -251z" glyph-name="cent" horiz-adv-x="1005" unicode="¢"/><glyph d="M983 129q-18 -96 6 -129h-907v123q106 63 156.5 116.5t50.5 127.5q0 37 -15 90h-192v45h176q-12 33 -59 129t-72 172t-25 149q0 160 122 256.5t327 96.5q219 0 329.5 -104.5t110.5 -248.5q0 -82 -35.5 -132t-97.5 -50q-41 0 -71.5 23.5t-30.5 70.5q0 23 15 63t15 83 q0 100 -66.5 170.5t-174.5 70.5q-117 0 -173.5 -74.5t-56.5 -183.5q0 -94 75 -256t85 -235h356v-45h-352v-6q0 -109 -68.5 -172.5t-201.5 -118.5h428q158 0 229.5 31.5t108.5 117.5h41z" glyph-name="sterling" horiz-adv-x="1097" unicode="£"/><glyph d="M985 467q0 -152 -94 -268l131 -129l-68 -68l-131 129q-115 -92 -262 -92q-145 0 -262 90l-129 -127l-68 68l129 127q-94 117 -94 270q0 150 92 264l-127 125l68 70l125 -125q119 92 266 92q150 0 266 -94l127 127l68 -70l-127 -127q90 -117 90 -262zM559 131 q135 0 232.5 100.5t97.5 235.5q0 137 -97.5 235.5t-232.5 98.5q-137 0 -231.5 -98.5t-94.5 -235.5t94.5 -236.5t231.5 -99.5z" glyph-name="currency" horiz-adv-x="1124" unicode="¤"/><glyph d="M903 1272h387v-49q-72 -8 -119 -45t-104 -129l-270 -428q-16 -27 -23 -54h303v-45h-309q-2 -10 -2 -35v-90h311v-43h-311v-196q0 -55 36 -77t134 -32v-49h-549v49q98 10 134 31.5t36 77.5v196h-311v43h311v90q0 25 -2 35h-309v45h295l-27 45l-264 414q-63 100 -109.5 141 t-109.5 56v49h481v-49q-78 -14 -91 -47t32 -103l256 -403q14 -23 28 0l246 397q86 137 -80 156v49z" glyph-name="yen" horiz-adv-x="1320" unicode="¥"/><glyph d="M205 924v714h61v-714h-61zM205 -440v714h61v-714h-61z" glyph-name="brokenbar" horiz-adv-x="471" unicode="¦"/><glyph d="M770 184q174 -102 174 -270q0 -164 -136 -244t-327 -80q-207 0 -360 95q-39 96 -36 188t50 92q20 0 31 -28q49 -135 148.5 -208t228.5 -71q102 2 159.5 50t57.5 142q0 72 -45 122.5t-88 68.5t-146 53q-23 8 -35 12q-172 59 -268 144.5t-96 224.5q0 168 168 236 q-164 104 -164 276q0 141 113.5 229.5t306.5 88.5q203 0 342 -88q41 -96 38 -188.5t-50 -92.5q-25 0 -31 29q-45 133 -138.5 203.5t-207.5 70.5q-104 0 -154.5 -55.5t-50.5 -134.5q0 -100 68.5 -154.5t203.5 -99.5q74 -25 96.5 -33t90 -36t95.5 -50.5t67.5 -60t56 -85 t16.5 -104.5q0 -179 -178 -242zM252 537q0 -100 66.5 -153.5t203.5 -100.5q121 -39 180 -66q61 51 62 145q0 55 -21.5 96.5t-66.5 69t-87 44t-112 38.5q-18 6 -26 8q-96 35 -144 60q-55 -53 -55 -141z" glyph-name="section" horiz-adv-x="1019" unicode="§"/><glyph d="M215 1143q-47 0 -80 33.5t-33 80.5q0 45 33 79t80 34t80 -33.5t33 -79.5q0 -47 -33 -80.5t-80 -33.5zM608 1143q-47 0 -79.5 33.5t-32.5 80.5q0 45 32.5 79t79.5 34q45 0 79 -33.5t34 -79.5q0 -47 -34 -80.5t-79 -33.5z" glyph-name="dieresis" horiz-adv-x="823" unicode="¨"/><glyph d="M737.5 -20q-288.5 0 -482.5 189t-194 474q0 283 194 472.5t482.5 189.5t482 -189.5t193.5 -472.5q0 -285 -193.5 -474t-482 -189zM737 37q262 0 438.5 174t176.5 432q0 256 -176.5 430t-438.5 174t-438 -174t-176 -430q0 -258 176 -432t438 -174zM756 252 q-164 0 -281 101.5t-117 277.5q0 182 121 282.5t285 100.5q129 0 214 -62.5t85 -142.5q0 -43 -22.5 -72.5t-71.5 -29.5q-47 0 -73 28.5t-26 65.5q0 158 -131 157q-86 0 -134 -68.5t-48 -187.5q0 -154 85 -247t214 -93q104 0 172 84l37 -28q-31 -61 -109.5 -113.5 t-199.5 -52.5z" glyph-name="copyright" horiz-adv-x="1474" unicode="©"/><glyph d="M264 680q-80 -2 -132 35t-52 110q0 80 79 128t296 79v27q0 172 -119 172q-55 0 -70.5 -18.5t-15.5 -55.5q0 -41 -15.5 -61.5t-58.5 -20.5q-63 0 -63 55q0 63 75.5 102.5t178.5 39.5q215 0 215 -211v-248q0 -86 67 -55v-45q-57 -31 -121.5 -4.5t-66.5 96.5 q-23 -49 -77 -86t-120 -39zM295 745q61 0 110.5 52.5t49.5 115.5v76q-104 -16 -160.5 -47t-69 -55.5t-12.5 -59.5q0 -39 22.5 -60.5t59.5 -21.5zM111 489v64h510v-64h-510z" glyph-name="ordfeminine" horiz-adv-x="733" unicode="ª"/><glyph d="M102 596l295 260l33 -27l-164 -233l164 -234l-33 -26zM418 596l295 260l30 -27l-161 -233l161 -234l-30 -26z" glyph-name="guillemotleft" horiz-adv-x="845" unicode="«"/><glyph d="M922 293v407h-820v62h881v-469h-61z" glyph-name="logicalnot" horiz-adv-x="1085" unicode="¬"/><glyph d="M102 498v71h553v-71h-553z" glyph-name="uni00AD" horiz-adv-x="757" unicode="­"/><glyph d="M737.5 -20q-288.5 0 -482.5 189t-194 474q0 283 194 472.5t482.5 189.5t482 -189.5t193.5 -472.5q0 -285 -193.5 -474t-482 -189zM737 37q262 0 438.5 174t176.5 432q0 256 -176.5 430t-438.5 174t-438 -174t-176 -430q0 -258 176 -432t438 -174zM365 256v39q80 12 79 76 v542q0 63 -79 76v39h393q139 0 221 -55t82 -156q0 -143 -191 -192q-6 -2 -6 -7.5t6 -7.5q111 -27 148 -155q14 -53 24.5 -80t31 -53.5t46.5 -26.5v-39h-65q-88 0 -133 47t-84 164q-41 123 -148 123q-55 0 -75.5 -15.5t-20.5 -50.5v-153q0 -63 82 -76v-39h-311zM664 647h84 q160 0 159 168q0 156 -143 156h-115q-55 0 -55 -58v-200q0 -35 15.5 -50.5t54.5 -15.5z" glyph-name="registered" horiz-adv-x="1474" unicode="®"/><glyph d="M154 1200q-35 0 -35 31v29q0 31 35 30h591q35 0 35 -30v-29q0 -31 -35 -31h-591z" glyph-name="macron" horiz-adv-x="899" unicode="¯"/><glyph d="M291 860q-98 0 -164 64.5t-66 157t66 158t164 65.5t163.5 -65.5t65.5 -158t-65.5 -157t-163.5 -64.5zM290.5 930q61.5 0 103.5 44t42 107q0 66 -42 109t-103.5 43t-103.5 -43t-42 -109q0 -63 42 -107t103.5 -44z" glyph-name="degree" horiz-adv-x="581" unicode="°"/><glyph d="M512 752h348v-60h-348v-350h-59v350h-351v60h351v350h59v-350zM102 0v61h758v-61h-758z" glyph-name="plusminus" horiz-adv-x="962" unicode="±"/><glyph d="M82 776q14 66 51 118t67.5 76.5t82.5 55.5q35 20 52 32.5t31.5 37t14.5 55.5q0 39 -19.5 69.5t-60.5 30.5q-33 0 -55.5 -21.5t-22.5 -60.5q0 -12 5 -32.5t1 -34.5q-41 -37 -82 -21.5t-41 66.5q0 57 51.5 103t147.5 46q90 0 139.5 -41t49.5 -106q0 -35 -13.5 -63.5 t-40 -51t-47 -36t-53.5 -29.5q-145 -76 -174 -109h209q55 0 84 43h55l-20 -98q-6 -29 -43 -29h-369z" glyph-name="uni00B2" horiz-adv-x="595" unicode="²"/><glyph d="M272 766q-90 0 -145 44t-55 110q0 57 51 57q29 0 40 -11.5t14 -40t5 -36.5q27 -78 94 -78q45 0 72 34t27 89q0 70 -46 88t-100 -12l-20 39l33 12q98 35 98 106q0 84 -72 84q-51 0 -68.5 -46t-2.5 -87q-47 -25 -75 -7.5t-28 56.5q0 53 49.5 91t132.5 38q82 0 129.5 -35.5 t47.5 -89.5q0 -74 -97 -108q66 -2 101 -39t35 -90q0 -74 -64 -121t-156 -47z" glyph-name="uni00B3" horiz-adv-x="573" unicode="³"/><glyph d="M109 1092q-14 27 16 57l201 217q80 86 141 20q29 -29 15.5 -70.5t-68.5 -74.5l-244 -145q-45 -27 -61 -4z" glyph-name="acute" horiz-adv-x="587" unicode="´"/><glyph d="M594 -190v49q70 12 99.5 33.5t29.5 74.5v361q0 57 -25.5 82.5t-87.5 25.5h-78q-221 0 -346 117t-125 309q0 190 124 300t347 110h961v-49q-70 -12 -98.5 -34t-28.5 -75v-1147q0 -53 28.5 -74.5t98.5 -33.5v-49h-899zM1044.5 -141q112.5 0 112.5 108v1147 q0 109 -112.5 109t-112.5 -109v-1147q0 -108 112.5 -108z" glyph-name="paragraph" horiz-adv-x="1554" unicode="¶"/><glyph d="M221 489q-49 0 -84 36t-35 85q0 47 35 83t84 36q47 0 82 -36t35 -83q0 -49 -35 -85t-82 -36z" glyph-name="periodcentered" horiz-adv-x="440" unicode="·"/><glyph d="M254 -436q-102 0 -162.5 39t-60.5 94q0 53 44 71.5t85 -20.5q0 -135 90 -135q53 0 86 42t33 97q0 49 -25 78t-70 29q-23 0 -52 -9.5t-42 -9.5q-25 0 -32 17.5t6 42.5l49 100h121l-45 -96q80 18 148.5 -28t68.5 -128q0 -84 -72 -134t-170 -50z" glyph-name="cedilla" horiz-adv-x="526" unicode="¸"/><glyph d="M66 776v33q68 16 67 72v301h-72v39l132 65q25 12 36 1t11 -32v-374q0 -55 61 -72v-33h-235z" glyph-name="uni00B9" horiz-adv-x="362" unicode="¹"/><glyph d="M365 682q-117 0 -201 82t-84 213q0 133 83 213t201.5 82t201.5 -80t83 -215t-82.5 -214t-201.5 -81zM389 729q59 0 95 54.5t36 154.5q0 119 -52 204t-126 85q-59 0 -96 -56.5t-37 -158.5q0 -117 52 -200t128 -83zM111 489v64h510v-64h-510z" glyph-name="ordmasculine" horiz-adv-x="729" unicode="º"/><glyph d="M430 596l-297 -260l-31 26l162 234l-162 233l31 27zM743 596l-294 -260l-31 26l162 234l-162 233l31 27z" glyph-name="guillemotright" horiz-adv-x="845" unicode="»"/><glyph d="M45 -10l909 1313h99l-908 -1313h-100zM66 776v33q68 16 67 72v301h-72v39l132 65q25 12 36 1t11 -32v-374q0 -55 61 -72v-33h-235zM905 0v33q45 4 59.5 17t14.5 50v39h-215v64l252 315l71 -18v-312h76v-49h-76v-39q0 -37 16.5 -50t59.5 -17v-33h-258zM844 188h135v172z " glyph-name="onequarter" horiz-adv-x="1247" unicode="¼"/><glyph d="M45 -10l909 1313h99l-908 -1313h-100zM66 776v33q68 16 67 72v301h-72v39l132 65q25 12 36 1t11 -32v-374q0 -55 61 -72v-33h-235zM795 0q14 66 51 118t67.5 76.5t81.5 55.5q35 20 52.5 32.5t32 37t14.5 55.5q0 39 -19.5 69.5t-60.5 30.5q-33 0 -55.5 -21.5t-22.5 -60.5 q0 -12 5 -32.5t1 -34.5q-41 -37 -82 -22t-41 67q0 57 51.5 103t147.5 46q90 0 139 -41t49 -106q0 -35 -13 -63.5t-40 -51t-47.5 -36t-52.5 -29.5q-145 -76 -174 -109h208q55 0 84 43h56l-21 -98q-6 -29 -43 -29h-368z" glyph-name="onehalf" horiz-adv-x="1308" unicode="½"/><glyph d="M266 -10l910 1313h96l-907 -1313h-99zM272 766q-90 0 -145 44t-55 110q0 57 51 57q29 0 40 -11.5t14 -40t5 -36.5q27 -78 94 -78q45 0 72 34t27 89q0 70 -46 88t-100 -12l-20 39l33 12q98 35 98 106q0 84 -72 84q-51 0 -68.5 -46t-2.5 -87q-47 -25 -75 -7.5t-28 56.5 q0 53 49.5 91t132.5 38q82 0 129.5 -35.5t47.5 -89.5q0 -74 -97 -108q66 -2 101 -39t35 -90q0 -74 -64 -121t-156 -47zM1102 0v33q45 4 59.5 17t14.5 50v39h-213v64l251 315l72 -18v-312h76v-49h-76v-39q0 -37 16.5 -50t59.5 -17v-33h-260zM1042 188h134v172z" glyph-name="threequarters" unicode="¾"/><glyph d="M481 1145q47 0 83 -36t36 -85q0 -47 -36 -82t-83 -35t-83 35t-36 82q0 49 36 85t83 36zM518 768q10 -111 -11.5 -196t-60 -138t-77.5 -98t-68 -100.5t-29 -118.5q0 -96 62.5 -155.5t161.5 -59.5q92 0 140 53t48 131q0 35 -22.5 87t-22.5 83q0 37 33 64.5t76 27.5 q55 0 94 -51t39 -131q0 -147 -116 -242.5t-306 -95.5q-178 0 -282.5 85t-104.5 224q0 80 35.5 142.5t88 106.5t105.5 91t94 121t49 170h74z" glyph-name="questiondown" horiz-adv-x="952" unicode="¿"/><glyph d="M807 1440q-16 -23 -62 4l-241 145q-55 33 -69.5 75t14.5 71q63 66 143 -21l199 -217q32 -32 16 -57zM41 0v49q74 14 114 49t74 111l385 895q43 98 43 168l127 12l449 -1024q51 -121 85 -160t107 -51v-49h-481v49q88 14 104.5 48t-16.5 96l-51 118q-35 68 -119 68h-381 q-92 0 -116 -62l-52 -114q-55 -129 133 -154v-49h-405zM471 449h397q20 0 31.5 14t1.5 37l-211 485q-20 49 -41 -2l-207 -481q-10 -25 -0.5 -39t29.5 -14z" glyph-name="Agrave" horiz-adv-x="1466" unicode="À"/><glyph d="M649 1440q-14 27 17 57l200 217q80 86 142 21q29 -29 15.5 -71t-69.5 -75l-243 -145q-46 -27 -62 -4zM41 0v49q74 14 114 49t74 111l385 895q43 98 43 168l127 12l449 -1024q51 -121 85 -160t107 -51v-49h-481v49q88 14 104.5 48t-16.5 96l-51 118q-35 68 -119 68h-381 q-92 0 -116 -62l-52 -114q-55 -129 133 -154v-49h-405zM471 449h397q20 0 31.5 14t1.5 37l-211 485q-20 49 -41 -2l-207 -481q-10 -25 -0.5 -39t29.5 -14z" glyph-name="Aacute" horiz-adv-x="1466" unicode="Á"/><glyph d="M711 1776l260 -295l-27 -33l-233 164l-232 -164l-28 33zM41 0v49q74 14 114 49t74 111l385 895q43 98 43 168l127 12l449 -1024q51 -121 85 -160t107 -51v-49h-481v49q88 14 104.5 48t-16.5 96l-51 118q-35 68 -119 68h-381q-92 0 -116 -62l-52 -114q-55 -129 133 -154 v-49h-405zM471 449h397q20 0 31.5 14t1.5 37l-211 485q-20 49 -41 -2l-207 -481q-10 -25 -0.5 -39t29.5 -14z" glyph-name="Acircumflex" horiz-adv-x="1466" unicode="Â"/><glyph d="M872.5 1466q-90.5 0 -219.5 66.5t-168 66.5q-37 0 -62.5 -24.5t-25.5 -69.5h-51q0 104 57.5 162.5t147.5 58.5q88 0 217 -65.5t170 -65.5q37 0 63.5 25t26.5 70h49q0 -106 -57 -165t-147.5 -59zM41 0v49q74 14 114 49t74 111l385 895q43 98 43 168l127 12l449 -1024 q51 -121 85 -160t107 -51v-49h-481v49q88 14 104.5 48t-16.5 96l-51 118q-35 68 -119 68h-381q-92 0 -116 -62l-52 -114q-55 -129 133 -154v-49h-405zM471 449h397q20 0 31.5 14t1.5 37l-211 485q-20 49 -41 -2l-207 -481q-10 -25 -0.5 -39t29.5 -14z" glyph-name="Atilde" horiz-adv-x="1466" unicode="Ã"/><glyph d="M514 1491q-47 0 -80 34t-33 81q0 45 33 78.5t80 33.5t80 -33.5t33 -78.5q0 -47 -33 -81t-80 -34zM907 1491q-47 0 -79.5 34t-32.5 81q0 45 32.5 78.5t79.5 33.5q45 0 79 -33.5t34 -78.5q0 -47 -34 -81t-79 -34zM41 0v49q74 14 114 49t74 111l385 895q43 98 43 168l127 12 l449 -1024q51 -121 85 -160t107 -51v-49h-481v49q88 14 104.5 48t-16.5 96l-51 118q-35 68 -119 68h-381q-92 0 -116 -62l-52 -114q-55 -129 133 -154v-49h-405zM471 449h397q20 0 31.5 14t1.5 37l-211 485q-20 49 -41 -2l-207 -481q-10 -25 -0.5 -39t29.5 -14z" glyph-name="Adieresis" horiz-adv-x="1466" unicode="Ä"/><glyph d="M713 1470q-82 0 -135.5 54.5t-53.5 130.5t53.5 130t135.5 54q80 0 133 -54t53 -130t-53 -130.5t-133 -54.5zM713 1552q41 0 68.5 29t27.5 74t-27.5 73.5t-68.5 28.5t-70 -28.5t-29 -73.5t28 -74t71 -29zM41 0v49q74 14 114 49t74 111l385 895q43 98 43 168l127 12 l449 -1024q51 -121 85 -160t107 -51v-49h-481v49q88 14 104.5 48t-16.5 96l-51 118q-35 68 -119 68h-381q-92 0 -116 -62l-52 -114q-55 -129 133 -154v-49h-405zM471 449h397q20 0 31.5 14t1.5 37l-211 485q-20 49 -41 -2l-207 -481q-10 -25 -0.5 -39t29.5 -14z" glyph-name="Aring" horiz-adv-x="1466" unicode="Å"/><glyph d="M1858 254h43q-45 -88 -62 -225q-4 -29 -33 -29h-975v49q70 12 98.5 33.5t28.5 75.5v223h-434q-76 0 -106 -51l-82 -129q-80 -127 108 -152v-49h-403v49q74 14 117 47t90 109l553 872q27 41 38 75t8 51.5t-16 19.5v49h945q29 0 30 -25q12 -104 41 -231h-41 q-39 96 -100 143t-162 47h-248q-66 0 -96.5 -22.5t-30.5 -77.5v-330q0 -55 31 -76.5t96 -21.5h185q94 0 127.5 33.5t48.5 113.5h33v-360h-33q-14 80 -49 114.5t-127 34.5h-185q-66 0 -96.5 -21.5t-30.5 -76.5v-350q0 -57 38 -80t141 -20l233 2q100 2 148.5 29.5t78.5 80.5z M553 446h405v668q0 29 -10 53l-424 -667q-14 -27 -6 -40.5t35 -13.5z" glyph-name="AE" horiz-adv-x="1941" unicode="Æ"/><glyph d="M1247 260q-55 -100 -188 -190t-330 -90l-35 -76q80 18 148.5 -28t68.5 -128q0 -84 -71.5 -134t-169.5 -50q-102 0 -163 39t-61 94q0 53 44.5 71.5t84.5 -20.5q0 -135 91 -135q53 0 85.5 42t32.5 97q0 49 -24.5 78t-69.5 29q-23 0 -52.5 -9.5t-41.5 -9.5q-25 0 -32 17.5 t5 42.5l43 90q-236 37 -393.5 211t-157.5 440q0 303 201 483.5t483 180.5q217 0 353.5 -103.5t136.5 -226.5q0 -59 -34 -97t-93 -38q-113 0 -123 133q-6 106 -83 185t-224 79q-182 0 -292 -132t-110 -360q0 -283 167 -456.5t409 -173.5q209 0 362 172z" glyph-name="Ccedilla" horiz-adv-x="1318" unicode="Ç"/><glyph d="M688 1440q-16 -23 -61 4l-242 145q-55 33 -69.5 75t14.5 71q63 66 143 -21l199 -217q32 -32 16 -57zM61 0v49q70 12 98.5 33.5t28.5 75.5v956q0 53 -29.5 75.5t-97.5 33.5v49h947q29 0 30 -25q14 -123 41 -231h-43q-39 96 -100.5 143t-159.5 47h-250q-66 0 -96.5 -22.5 t-30.5 -77.5v-330q0 -55 31 -76.5t96 -21.5h185q94 0 127.5 33.5t48.5 113.5h33v-360h-33q-14 80 -49 114.5t-127 34.5h-185q-66 0 -96.5 -21.5t-30.5 -76.5v-350q0 -57 39 -80t142 -20l231 2q100 2 148.5 29.5t78.5 80.5l49 76h43q-45 -88 -61 -225q-4 -29 -33 -29h-975z " glyph-name="Egrave" horiz-adv-x="1171" unicode="È"/><glyph d="M530 1440q-14 27 17 57l201 217q80 86 141 21q29 -29 15.5 -71t-68.5 -75l-244 -145q-46 -27 -62 -4zM61 0v49q70 12 98.5 33.5t28.5 75.5v956q0 53 -29.5 75.5t-97.5 33.5v49h947q29 0 30 -25q14 -123 41 -231h-43q-39 96 -100.5 143t-159.5 47h-250q-66 0 -96.5 -22.5 t-30.5 -77.5v-330q0 -55 31 -76.5t96 -21.5h185q94 0 127.5 33.5t48.5 113.5h33v-360h-33q-14 80 -49 114.5t-127 34.5h-185q-66 0 -96.5 -21.5t-30.5 -76.5v-350q0 -57 39 -80t142 -20l231 2q100 2 148.5 29.5t78.5 80.5l49 76h43q-45 -88 -61 -225q-4 -29 -33 -29h-975z " glyph-name="Eacute" horiz-adv-x="1171" unicode="É"/><glyph d="M592 1776l260 -295l-27 -33l-233 164l-232 -164l-28 33zM61 0v49q70 12 98.5 33.5t28.5 75.5v956q0 53 -29.5 75.5t-97.5 33.5v49h947q29 0 30 -25q14 -123 41 -231h-43q-39 96 -100.5 143t-159.5 47h-250q-66 0 -96.5 -22.5t-30.5 -77.5v-330q0 -55 31 -76.5t96 -21.5 h185q94 0 127.5 33.5t48.5 113.5h33v-360h-33q-14 80 -49 114.5t-127 34.5h-185q-66 0 -96.5 -21.5t-30.5 -76.5v-350q0 -57 39 -80t142 -20l231 2q100 2 148.5 29.5t78.5 80.5l49 76h43q-45 -88 -61 -225q-4 -29 -33 -29h-975z" glyph-name="Ecircumflex" horiz-adv-x="1171" unicode="Ê"/><glyph d="M395 1491q-47 0 -79.5 34t-32.5 81q0 45 32.5 78.5t79.5 33.5t80 -33.5t33 -78.5q0 -47 -33 -81t-80 -34zM788 1491q-47 0 -79.5 34t-32.5 81q0 45 32.5 78.5t79.5 33.5q45 0 79 -33.5t34 -78.5q0 -47 -34 -81t-79 -34zM61 0v49q70 12 98.5 33.5t28.5 75.5v956 q0 53 -29.5 75.5t-97.5 33.5v49h947q29 0 30 -25q14 -123 41 -231h-43q-39 96 -100.5 143t-159.5 47h-250q-66 0 -96.5 -22.5t-30.5 -77.5v-330q0 -55 31 -76.5t96 -21.5h185q94 0 127.5 33.5t48.5 113.5h33v-360h-33q-14 80 -49 114.5t-127 34.5h-185q-66 0 -96.5 -21.5 t-30.5 -76.5v-350q0 -57 39 -80t142 -20l231 2q100 2 148.5 29.5t78.5 80.5l49 76h43q-45 -88 -61 -225q-4 -29 -33 -29h-975z" glyph-name="Edieresis" horiz-adv-x="1171" unicode="Ë"/><glyph d="M389 1440q-16 -23 -61 4l-242 145q-55 33 -69.5 75t14.5 71q63 66 143 -21l199 -217q32 -32 16 -57zM61 0v49q70 12 98.5 33.5t28.5 75.5v956q0 53 -29.5 75.5t-97.5 33.5v49h465v-49q-68 -10 -97.5 -33t-29.5 -76v-956q0 -53 29 -75t98 -34v-49h-465z" glyph-name="Igrave" horiz-adv-x="587" unicode="Ì"/><glyph d="M229 1440q-14 27 17 57l200 217q80 86 142 21q29 -29 15.5 -71t-68.5 -75l-244 -145q-46 -27 -62 -4zM61 0v49q70 12 98.5 33.5t28.5 75.5v956q0 53 -29.5 75.5t-97.5 33.5v49h465v-49q-68 -10 -97.5 -33t-29.5 -76v-956q0 -53 29 -75t98 -34v-49h-465z" glyph-name="Iacute" horiz-adv-x="587" unicode="Í"/><glyph d="M293 1776l260 -295l-27 -33l-233 164l-232 -164l-28 33zM61 0v49q70 12 98.5 33.5t28.5 75.5v956q0 53 -29.5 75.5t-97.5 33.5v49h465v-49q-68 -10 -97.5 -33t-29.5 -76v-956q0 -53 29 -75t98 -34v-49h-465z" glyph-name="Icircumflex" horiz-adv-x="587" unicode="Î"/><glyph d="M96 1491q-47 0 -79.5 34t-32.5 81q0 45 32.5 78.5t79.5 33.5t80 -33.5t33 -78.5q0 -47 -33 -81t-80 -34zM489 1491q-47 0 -79.5 34t-32.5 81q0 45 32.5 78.5t79.5 33.5q45 0 79 -33.5t34 -78.5q0 -47 -34 -81t-79 -34zM61 0v49q70 12 98.5 33.5t28.5 75.5v956 q0 53 -29.5 75.5t-97.5 33.5v49h465v-49q-68 -10 -97.5 -33t-29.5 -76v-956q0 -53 29 -75t98 -34v-49h-465z" glyph-name="Idieresis" horiz-adv-x="587" unicode="Ï"/><glyph d="M561 1272q147 0 268 -33t220.5 -102.5t155 -194.5t55.5 -295t-57.5 -299t-155 -201.5t-212 -107.5t-243.5 -35q-39 0 -149.5 5t-159.5 5q-100 0 -222 -14v49q70 12 98.5 33.5t28.5 75.5v452h-125v52h125v454q0 53 -29.5 74.5t-97.5 32.5v49h500zM571 66 q242 0 353.5 161.5t111.5 419.5t-113.5 409.5t-357.5 151.5h-39q-68 0 -97.5 -19.5t-29.5 -72.5v-454h242v-52h-242v-452q0 -92 172 -92z" glyph-name="Eth" horiz-adv-x="1341" unicode="Ð"/><glyph d="M844 1466q-88 0 -218 66.5t-171 66.5q-37 0 -62.5 -24.5t-25.5 -69.5h-50q0 104 57.5 162.5t145.5 58.5t218 -65.5t171 -65.5q37 0 62.5 25t25.5 70h52q0 -106 -57.5 -165t-147.5 -59zM61 0v49q70 12 102 33.5t32 75.5v956q0 53 -32 75.5t-102 33.5v49h289l740 -946v788 q0 53 -31 75.5t-101 33.5v49h340v-49q-70 -10 -100.5 -33t-30.5 -76v-1114h-77l-820 1047v-889q0 -53 31 -75t98 -34v-49h-338z" glyph-name="Ntilde" horiz-adv-x="1361" unicode="Ñ"/><glyph d="M801 1440q-16 -23 -62 4l-241 145q-55 33 -68.5 75t14.5 71q59 68 142 -21l200 -217q31 -32 15 -57zM711 -20q-276 0 -463 183t-187 468q0 291 195 482.5t477 191.5q276 0 462.5 -182.5t186.5 -467.5q0 -293 -194 -484t-477 -191zM764 53q160 0 273.5 127t113.5 393 q0 287 -137 472.5t-334 185.5q-160 0 -273.5 -127t-113.5 -389q0 -289 137 -475.5t334 -186.5z" glyph-name="Ograve" unicode="Ò"/><glyph d="M639 1440q-14 27 16 57l201 217q80 86 141 21q29 -29 15.5 -71t-68.5 -75l-244 -145q-45 -27 -61 -4zM711 -20q-276 0 -463 183t-187 468q0 291 195 482.5t477 191.5q276 0 462.5 -182.5t186.5 -467.5q0 -293 -194 -484t-477 -191zM764 53q160 0 273.5 127t113.5 393 q0 287 -137 472.5t-334 185.5q-160 0 -273.5 -127t-113.5 -389q0 -289 137 -475.5t334 -186.5z" glyph-name="Oacute" unicode="Ó"/><glyph d="M700 1776l261 -295l-27 -33l-234 164l-231 -164l-29 33zM711 -20q-276 0 -463 183t-187 468q0 291 195 482.5t477 191.5q276 0 462.5 -182.5t186.5 -467.5q0 -293 -194 -484t-477 -191zM764 53q160 0 273.5 127t113.5 393q0 287 -137 472.5t-334 185.5 q-160 0 -273.5 -127t-113.5 -389q0 -289 137 -475.5t334 -186.5z" glyph-name="Ocircumflex" unicode="Ô"/><glyph d="M866 1466q-88 0 -218 66.5t-169 66.5t-64.5 -24.5t-25.5 -69.5h-49q0 104 57.5 162.5t147.5 58.5q88 0 217 -65.5t170 -65.5q37 0 62.5 25t25.5 70h51q0 -106 -57.5 -165t-147.5 -59zM711 -20q-276 0 -463 183t-187 468q0 291 195 482.5t477 191.5q276 0 462.5 -182.5 t186.5 -467.5q0 -293 -194 -484t-477 -191zM764 53q160 0 273.5 127t113.5 393q0 287 -137 472.5t-334 185.5q-160 0 -273.5 -127t-113.5 -389q0 -289 137 -475.5t334 -186.5z" glyph-name="Otilde" unicode="Õ"/><glyph d="M506 1491q-47 0 -80 34t-33 81q0 45 33 78.5t80 33.5t79.5 -33.5t32.5 -78.5q0 -47 -32.5 -81t-79.5 -34zM899 1491q-47 0 -80 34t-33 81q0 45 33 78.5t80 33.5q45 0 79 -33.5t34 -78.5q0 -47 -34 -81t-79 -34zM711 -20q-276 0 -463 183t-187 468q0 291 195 482.5 t477 191.5q276 0 462.5 -182.5t186.5 -467.5q0 -293 -194 -484t-477 -191zM764 53q160 0 273.5 127t113.5 393q0 287 -137 472.5t-334 185.5q-160 0 -273.5 -127t-113.5 -389q0 -289 137 -475.5t334 -186.5z" glyph-name="Odieresis" unicode="Ö"/><glyph d="M682 764l-248 -248l248 -248l-43 -43l-248 248l-246 -246l-43 41l248 248l-248 246l43 43l248 -246l246 246z" glyph-name="multiply" horiz-adv-x="784" unicode="×"/><glyph d="M1171 1145q211 -184 211 -490q0 -293 -194.5 -484t-476.5 -191q-229 0 -398 126l-82 -100l-32 25l84 100q-221 184 -222 500q0 291 195 482.5t477 191.5q231 0 408 -134l73 91l33 -25zM293 715q0 -258 110 -436l621 751q-135 201 -344 201q-160 0 -273.5 -127 t-113.5 -389zM764 53q160 0 273.5 127t113.5 393q0 244 -104 420l-619 -749q135 -191 336 -191z" glyph-name="Oslash" unicode="Ø"/><glyph d="M815 1440q-16 -23 -61 4l-242 145q-55 33 -68.5 75t15.5 71q59 68 141 -21l201 -217q30 -32 14 -57zM690 -20q-231 0 -371.5 136t-140.5 406v592q0 53 -29.5 75.5t-97.5 33.5v49h465v-49q-68 -10 -97.5 -33t-29.5 -76v-557q0 -240 91 -359.5t255 -119.5 q160 0 262.5 110.5t102.5 356.5v569q0 53 -33 75.5t-102 33.5v49h352v-49q-68 -10 -100.5 -33t-32.5 -76v-588q0 -262 -128 -404t-366 -142z" glyph-name="Ugrave" horiz-adv-x="1368" unicode="Ù"/><glyph d="M653 1440q-14 27 17 57l200 217q80 86 142 21q29 -29 15.5 -71t-69.5 -75l-243 -145q-46 -27 -62 -4zM690 -20q-231 0 -371.5 136t-140.5 406v592q0 53 -29.5 75.5t-97.5 33.5v49h465v-49q-68 -10 -97.5 -33t-29.5 -76v-557q0 -240 91 -359.5t255 -119.5 q160 0 262.5 110.5t102.5 356.5v569q0 53 -33 75.5t-102 33.5v49h352v-49q-68 -10 -100.5 -33t-32.5 -76v-588q0 -262 -128 -404t-366 -142z" glyph-name="Uacute" horiz-adv-x="1368" unicode="Ú"/><glyph d="M715 1776l260 -295l-27 -33l-233 164l-232 -164l-28 33zM690 -20q-231 0 -371.5 136t-140.5 406v592q0 53 -29.5 75.5t-97.5 33.5v49h465v-49q-68 -10 -97.5 -33t-29.5 -76v-557q0 -240 91 -359.5t255 -119.5q160 0 262.5 110.5t102.5 356.5v569q0 53 -33 75.5t-102 33.5 v49h352v-49q-68 -10 -100.5 -33t-32.5 -76v-588q0 -262 -128 -404t-366 -142z" glyph-name="Ucircumflex" horiz-adv-x="1368" unicode="Û"/><glyph d="M520 1491q-47 0 -79.5 34t-32.5 81q0 45 33.5 78.5t78.5 33.5t79 -33.5t34 -78.5q0 -47 -33 -81t-80 -34zM913 1491q-47 0 -79.5 34t-32.5 81q0 45 33.5 78.5t78.5 33.5t79 -33.5t34 -78.5q0 -47 -34 -81t-79 -34zM690 -20q-231 0 -371.5 136t-140.5 406v592 q0 53 -29.5 75.5t-97.5 33.5v49h465v-49q-68 -10 -97.5 -33t-29.5 -76v-557q0 -240 91 -359.5t255 -119.5q160 0 262.5 110.5t102.5 356.5v569q0 53 -33 75.5t-102 33.5v49h352v-49q-68 -10 -100.5 -33t-32.5 -76v-588q0 -262 -128 -404t-366 -142z" glyph-name="Udieresis" horiz-adv-x="1368" unicode="Ü"/><glyph d="M602 1440q-14 27 16 57l201 217q80 86 142 21q29 -29 15.5 -71t-69.5 -75l-243 -145q-46 -27 -62 -4zM387 0v49q98 10 134 31.5t36 77.5v329q0 55 -43 125l-264 414q-63 100 -109.5 141t-109.5 56v49h481v-49q-78 -14 -91 -47t32 -103l256 -403q14 -23 28 0l246 397 q86 137 -80 156v49h387v-49q-72 -8 -119 -45t-104 -129l-270 -428q-31 -49 -31 -134v-329q0 -55 36 -77t134 -32v-49h-549z" glyph-name="Yacute" horiz-adv-x="1320" unicode="Ý"/><glyph d="M631 1030q254 0 392 -105.5t138 -287.5t-138 -287.5t-392 -105.5h-119q-59 0 -84 -22.5t-29 -74.5q2 -47 32 -66.5t95 -31.5v-49h-465v49q70 12 98.5 33.5t28.5 75.5v956q0 53 -29.5 75.5t-97.5 33.5v49h465v-49q-66 -10 -95.5 -31t-31.5 -68q4 -49 30 -71.5t83 -22.5 h119zM631 317q311 0 311 319.5t-311 319.5h-119q-61 0 -87 -25.5t-26 -82.5v-422q0 -57 26 -83t87 -26h119z" glyph-name="Thorn" horiz-adv-x="1212" unicode="Þ"/><glyph d="M205 -10q-86 0 -164 49v49q131 -37 131 70v776q0 170 120 270.5t304 100.5q182 0 282.5 -91.5t100.5 -224.5q0 -201 -219 -289q131 -16 223 -103t92 -226q0 -172 -147.5 -272.5t-395.5 -100.5v63q342 8 342 312q0 127 -72.5 206.5t-269.5 79.5v60q106 0 184.5 66.5 t78.5 203.5q0 104 -54.5 180t-185.5 76q-109 0 -154 -81t-45 -230v-784q1 -160 -151 -160z" glyph-name="germandbls" horiz-adv-x="1157" unicode="ß"/><glyph d="M606 1092q-16 -23 -61 4l-242 145q-55 33 -68.5 75t15.5 70q59 68 141 -20l201 -217q30 -30 14 -57zM328 -12q-113 0 -190 56t-77 169q0 129 128 211t444 119q29 4 42 16t13 43v45q0 236 -209 236q-164 0 -164 -148q0 -55 -27.5 -83.5t-72.5 -28.5q-92 0 -92 100 q0 109 122 164t290 55q180 0 258.5 -81t78.5 -265v-449q0 -92 101 -71v-29q-39 -59 -142 -59q-63 0 -102 37.5t-41 109.5q0 10 -5 14.5t-12 0t-14 -12.5q-55 -68 -143 -108.5t-186 -40.5zM432 92q106 0 181 69.5t75 172.5v84q0 39 -17.5 55t-64.5 10q-350 -37 -350 -231 q0 -68 45 -114t131 -46z" glyph-name="agrave" horiz-adv-x="1015" unicode="à"/><glyph d="M444 1092q-14 27 17 57l201 217q80 86 141 20q29 -29 15.5 -70.5t-68.5 -74.5l-244 -145q-46 -27 -62 -4zM328 -12q-113 0 -190 56t-77 169q0 129 128 211t444 119q29 4 42 16t13 43v45q0 236 -209 236q-164 0 -164 -148q0 -55 -27.5 -83.5t-72.5 -28.5q-92 0 -92 100 q0 109 122 164t290 55q180 0 258.5 -81t78.5 -265v-449q0 -92 101 -71v-29q-39 -59 -142 -59q-63 0 -102 37.5t-41 109.5q0 10 -5 14.5t-12 0t-14 -12.5q-55 -68 -143 -108.5t-186 -40.5zM432 92q106 0 181 69.5t75 172.5v84q0 39 -17.5 55t-64.5 10q-350 -37 -350 -231 q0 -68 45 -114t131 -46z" glyph-name="aacute" horiz-adv-x="1015" unicode="á"/><glyph d="M508 1427l260 -294l-27 -33l-233 164l-232 -164l-28 33zM328 -12q-113 0 -190 56t-77 169q0 129 128 211t444 119q29 4 42 16t13 43v45q0 236 -209 236q-164 0 -164 -148q0 -55 -27.5 -83.5t-72.5 -28.5q-92 0 -92 100q0 109 122 164t290 55q180 0 258.5 -81t78.5 -265 v-449q0 -92 101 -71v-29q-39 -59 -142 -59q-63 0 -102 37.5t-41 109.5q0 10 -5 14.5t-12 0t-14 -12.5q-55 -68 -143 -108.5t-186 -40.5zM432 92q106 0 181 69.5t75 172.5v84q0 39 -17.5 55t-64.5 10q-350 -37 -350 -231q0 -68 45 -114t131 -46z" glyph-name="acircumflex" horiz-adv-x="1015" unicode="â"/><glyph d="M672 1118q-90 0 -219 66.5t-168 66.5t-64.5 -24.5t-25.5 -69.5h-50q0 104 57.5 162.5t147.5 58.5q88 0 217 -65.5t170 -65.5q37 0 62.5 24.5t25.5 69.5h52q0 -106 -57.5 -164.5t-147.5 -58.5zM328 -12q-113 0 -190 56t-77 169q0 129 128 211t444 119q29 4 42 16t13 43v45 q0 236 -209 236q-164 0 -164 -148q0 -55 -27.5 -83.5t-72.5 -28.5q-92 0 -92 100q0 109 122 164t290 55q180 0 258.5 -81t78.5 -265v-449q0 -92 101 -71v-29q-39 -59 -142 -59q-63 0 -102 37.5t-41 109.5q0 10 -5 14.5t-12 0t-14 -12.5q-55 -68 -143 -108.5t-186 -40.5z M432 92q106 0 181 69.5t75 172.5v84q0 39 -17.5 55t-64.5 10q-350 -37 -350 -231q0 -68 45 -114t131 -46z" glyph-name="atilde" horiz-adv-x="1015" unicode="ã"/><glyph d="M311 1143q-47 0 -79.5 33.5t-32.5 80.5q0 45 33.5 79t78.5 34t79 -33.5t34 -79.5q0 -47 -33 -80.5t-80 -33.5zM705 1143q-47 0 -80 33.5t-33 80.5q0 45 33.5 79t79 34t79 -33.5t33.5 -79.5q0 -47 -33.5 -80.5t-78.5 -33.5zM328 -12q-113 0 -190 56t-77 169q0 129 128 211 t444 119q29 4 42 16t13 43v45q0 236 -209 236q-164 0 -164 -148q0 -55 -27.5 -83.5t-72.5 -28.5q-92 0 -92 100q0 109 122 164t290 55q180 0 258.5 -81t78.5 -265v-449q0 -92 101 -71v-29q-39 -59 -142 -59q-63 0 -102 37.5t-41 109.5q0 10 -5 14.5t-12 0t-14 -12.5 q-55 -68 -143 -108.5t-186 -40.5zM432 92q106 0 181 69.5t75 172.5v84q0 39 -17.5 55t-64.5 10q-350 -37 -350 -231q0 -68 45 -114t131 -46z" glyph-name="adieresis" horiz-adv-x="1015" unicode="ä"/><glyph d="M508 1122q-82 0 -135.5 54.5t-53.5 130t53.5 130t135.5 54.5q80 0 133 -54.5t53 -130t-53 -130t-133 -54.5zM508 1204q41 0 68.5 29t27.5 74t-27.5 73.5t-68.5 28.5t-69.5 -28.5t-28.5 -73.5t27.5 -74t70.5 -29zM328 -12q-113 0 -190 56t-77 169q0 129 128 211t444 119 q29 4 42 16t13 43v45q0 236 -209 236q-164 0 -164 -148q0 -55 -27.5 -83.5t-72.5 -28.5q-92 0 -92 100q0 109 122 164t290 55q180 0 258.5 -81t78.5 -265v-449q0 -92 101 -71v-29q-39 -59 -142 -59q-63 0 -102 37.5t-41 109.5q0 10 -5 14.5t-12 0t-14 -12.5 q-55 -68 -143 -108.5t-186 -40.5zM432 92q106 0 181 69.5t75 172.5v84q0 39 -17.5 55t-64.5 10q-350 -37 -350 -231q0 -68 45 -114t131 -46z" glyph-name="aring" horiz-adv-x="1015" unicode="å"/><glyph d="M1513 221l37 -33q-39 -72 -139 -136t-246 -64q-225 0 -362 155q-76 66 -133 -4q-57 -68 -150.5 -109.5t-191.5 -41.5q-113 0 -190 56t-77 169q0 129 128 211t446 119q57 6 57 59v41q0 111 -54 174.5t-161 63.5q-158 0 -158 -148q0 -55 -27.5 -83.5t-72.5 -28.5 t-68.5 27.5t-23.5 70.5q0 100 127 161.5t287 61.5q211 0 280 -137q133 137 350 137q156 0 250.5 -74.5t94.5 -193.5q0 -104 -86.5 -146.5t-299.5 -52.5l-180 -10q-63 -2 -51 -86q18 -125 120.5 -199t240.5 -74q165 0 253 115zM889 614q-6 -59 9 -77.5t56 -16.5l140 4 q139 4 189 35t50 113q0 90 -49 149.5t-149 59.5q-109 0 -172.5 -73t-73.5 -194zM690 309v109q0 39 -17.5 55t-64.5 10q-350 -37 -350 -219q0 -70 47 -117t129 -47q109 0 182.5 61.5t73.5 147.5z" glyph-name="ae" horiz-adv-x="1622" unicode="æ"/><glyph d="M934 203q-27 -70 -112 -132.5t-208 -78.5l-41 -88q80 18 149 -28t69 -128q0 -84 -72 -134t-170 -50q-102 0 -162.5 39t-60.5 94q0 53 44 71.5t85 -20.5q0 -135 90 -135q53 0 86 42t33 97q0 49 -25 78t-70 29q-23 0 -52.5 -9.5t-41.5 -9.5q-25 0 -32 17.5t6 42.5l45 90 q-184 18 -308.5 144t-124.5 329q0 221 147.5 350t352.5 129q162 0 261.5 -75.5t99.5 -170.5q0 -45 -27 -74.5t-74 -29.5q-86 0 -96 98q-23 190 -203 191q-127 0 -198.5 -91.5t-71.5 -250.5q0 -197 114.5 -313.5t286.5 -116.5q158 0 242 124z" glyph-name="ccedilla" horiz-adv-x="1005" unicode="ç"/><glyph d="M596 1092q-16 -23 -61 4l-242 145q-55 33 -69.5 75t14.5 70q63 66 143 -20l199 -217q32 -32 16 -57zM539 -12q-201 0 -339.5 130t-138.5 347q0 221 140.5 349t343.5 128q156 0 250 -74.5t94 -193.5q0 -104 -87 -146.5t-300 -52.5l-180 -10q-63 -2 -52 -86 q18 -125 122 -199t239 -74q166 0 254 115l39 -33q-39 -72 -139.5 -136t-245.5 -64zM326 520l139 4q139 4 189.5 35t50.5 113q0 90 -49.5 149.5t-147.5 59.5q-111 0 -173.5 -72t-74.5 -195q-6 -59 9.5 -77.5t56.5 -16.5z" glyph-name="egrave" horiz-adv-x="995" unicode="è"/><glyph d="M436 1092q-14 27 17 57l200 217q80 86 142 20q29 -29 15.5 -70.5t-69.5 -74.5l-243 -145q-46 -27 -62 -4zM539 -12q-201 0 -339.5 130t-138.5 347q0 221 140.5 349t343.5 128q156 0 250 -74.5t94 -193.5q0 -104 -87 -146.5t-300 -52.5l-180 -10q-63 -2 -52 -86 q18 -125 122 -199t239 -74q166 0 254 115l39 -33q-39 -72 -139.5 -136t-245.5 -64zM326 520l139 4q139 4 189.5 35t50.5 113q0 90 -49.5 149.5t-147.5 59.5q-111 0 -173.5 -72t-74.5 -195q-6 -59 9.5 -77.5t56.5 -16.5z" glyph-name="eacute" horiz-adv-x="995" unicode="é"/><glyph d="M498 1427l260 -294l-27 -33l-233 164l-232 -164l-28 33zM539 -12q-201 0 -339.5 130t-138.5 347q0 221 140.5 349t343.5 128q156 0 250 -74.5t94 -193.5q0 -104 -87 -146.5t-300 -52.5l-180 -10q-63 -2 -52 -86q18 -125 122 -199t239 -74q166 0 254 115l39 -33 q-39 -72 -139.5 -136t-245.5 -64zM326 520l139 4q139 4 189.5 35t50.5 113q0 90 -49.5 149.5t-147.5 59.5q-111 0 -173.5 -72t-74.5 -195q-6 -59 9.5 -77.5t56.5 -16.5z" glyph-name="ecircumflex" horiz-adv-x="995" unicode="ê"/><glyph d="M303 1143q-47 0 -80 33.5t-33 80.5q0 45 34 79t79 34t79 -33.5t34 -79.5q0 -47 -33 -80.5t-80 -33.5zM696 1143q-47 0 -79.5 33.5t-32.5 80.5q0 45 33.5 79t78.5 34t79 -33.5t34 -79.5q0 -47 -34 -80.5t-79 -33.5zM539 -12q-201 0 -339.5 130t-138.5 347q0 221 140.5 349 t343.5 128q156 0 250 -74.5t94 -193.5q0 -104 -87 -146.5t-300 -52.5l-180 -10q-63 -2 -52 -86q18 -125 122 -199t239 -74q166 0 254 115l39 -33q-39 -72 -139.5 -136t-245.5 -64zM326 520l139 4q139 4 189.5 35t50.5 113q0 90 -49.5 149.5t-147.5 59.5q-111 0 -173.5 -72 t-74.5 -195q-6 -59 9.5 -77.5t56.5 -16.5z" glyph-name="edieresis" horiz-adv-x="995" unicode="ë"/><glyph d="M350 1092q-16 -23 -61 4l-242 145q-55 33 -69.5 75t14.5 70q63 66 143 -20l199 -217q32 -32 16 -57zM53 0v49q74 6 102.5 30.5t28.5 82.5v563q0 72 -26.5 97.5t-106.5 17.5v47l242 51q76 16 76 -61v-715q0 -57 28.5 -82t102.5 -31v-49h-447z" glyph-name="igrave" horiz-adv-x="550" unicode="ì"/><glyph d="M193 1092q-14 27 16 57l201 217q80 86 141 20q29 -29 15.5 -70.5t-68.5 -74.5l-244 -145q-45 -27 -61 -4zM53 0v49q74 6 102.5 30.5t28.5 82.5v563q0 72 -26.5 97.5t-106.5 17.5v47l242 51q76 16 76 -61v-715q0 -57 28.5 -82t102.5 -31v-49h-447z" glyph-name="iacute" horiz-adv-x="550" unicode="í"/><glyph d="M254 1427l260 -294l-27 -33l-233 164l-231 -164l-29 33zM53 0v49q74 6 102.5 30.5t28.5 82.5v563q0 72 -26.5 97.5t-106.5 17.5v47l242 51q76 16 76 -61v-715q0 -57 28.5 -82t102.5 -31v-49h-447z" glyph-name="icircumflex" horiz-adv-x="550" unicode="î"/><glyph d="M57 1143q-47 0 -79.5 33.5t-32.5 80.5q0 45 33.5 79t78.5 34t79 -33.5t34 -79.5q0 -47 -33 -80.5t-80 -33.5zM451 1143q-47 0 -80 33.5t-33 80.5q0 45 34 79t79 34t78.5 -33.5t33.5 -79.5q0 -47 -33.5 -80.5t-78.5 -33.5zM53 0v49q74 6 102.5 30.5t28.5 82.5v563 q0 72 -26.5 97.5t-106.5 17.5v47l242 51q76 16 76 -61v-715q0 -57 28.5 -82t102.5 -31v-49h-447z" glyph-name="idieresis" horiz-adv-x="550" unicode="ï"/><glyph d="M467 -12q-172 0 -289 126t-117 332q0 229 131.5 362.5t315.5 133.5q53 0 105.5 -12t82 -24.5t53 -17.5t33 7t9.5 49v64q0 33 -9 86l-217 -62l-10 39l215 62q-55 139 -244 139v51q59 0 101.5 -4t99.5 -17.5t103.5 -46t78.5 -86.5l172 50l11 -39l-162 -47q45 -96 45 -254 v-721q0 -106 131 -70v-49q-78 -49 -164 -49q-76 0 -113.5 36.5t-37.5 120.5q-129 -159 -324 -159zM567 109q88 0 156 51t68 162v262q0 141 -90.5 218t-200.5 77q-117 0 -182.5 -94.5t-65.5 -252.5q0 -182 87 -302.5t228 -120.5z" glyph-name="eth" horiz-adv-x="1157" unicode="ð"/><glyph d="M741 1118q-90 0 -219 66.5t-168 66.5q-37 0 -62.5 -24.5t-25.5 -69.5h-51q0 104 57.5 162.5t147.5 58.5q88 0 217 -65.5t170 -65.5q37 0 63.5 24.5t26.5 69.5h49q0 -106 -57.5 -164.5t-147.5 -58.5zM971 -12q-66 0 -105 37.5t-39 117.5v410q0 125 -58 200.5t-165 75.5 q-109 0 -172 -76.5t-63 -199.5v-391q0 -57 28.5 -82t102.5 -31v-49h-447v49q74 6 102.5 30.5t28.5 82.5v563q0 72 -26.5 97.5t-106.5 17.5v47l242 51q76 16 76 -61q0 -92 30 -84q8 0 19 10q33 37 54.5 56.5t90 51t146.5 31.5q131 0 217 -82t86 -260v-453q0 -96 102 -71v-29 q-39 -59 -143 -59z" glyph-name="ntilde" horiz-adv-x="1155" unicode="ñ"/><glyph d="M635 1092q-16 -23 -62 4l-241 145q-55 33 -69.5 75t13.5 70q63 66 144 -20l198 -217q33 -32 17 -57zM537 -12q-197 0 -336.5 130t-139.5 345q0 217 139.5 348t338.5 131q197 0 336 -130t139 -345q0 -217 -139 -348t-338 -131zM584 51q104 0 167.5 85t63.5 253 q0 203 -91 347.5t-232 144.5q-106 0 -169 -86t-63 -254q0 -203 91.5 -346.5t232.5 -143.5z" glyph-name="ograve" horiz-adv-x="1075" unicode="ò"/><glyph d="M475 1092q-14 27 17 57l200 217q80 86 142 20q29 -29 15.5 -70.5t-69.5 -74.5l-243 -145q-46 -27 -62 -4zM537 -12q-197 0 -336.5 130t-139.5 345q0 217 139.5 348t338.5 131q197 0 336 -130t139 -345q0 -217 -139 -348t-338 -131zM584 51q104 0 167.5 85t63.5 253 q0 203 -91 347.5t-232 144.5q-106 0 -169 -86t-63 -254q0 -203 91.5 -346.5t232.5 -143.5z" glyph-name="oacute" horiz-adv-x="1075" unicode="ó"/><glyph d="M537 1427l260 -294l-27 -33l-233 164l-232 -164l-29 33zM537 -12q-197 0 -336.5 130t-139.5 345q0 217 139.5 348t338.5 131q197 0 336 -130t139 -345q0 -217 -139 -348t-338 -131zM584 51q104 0 167.5 85t63.5 253q0 203 -91 347.5t-232 144.5q-106 0 -169 -86t-63 -254 q0 -203 91.5 -346.5t232.5 -143.5z" glyph-name="ocircumflex" horiz-adv-x="1075" unicode="ô"/><glyph d="M700.5 1118q-90.5 0 -219.5 66.5t-168 66.5q-37 0 -62.5 -24.5t-25.5 -69.5h-51q0 104 57.5 162.5t147.5 58.5q88 0 217 -65.5t170 -65.5q37 0 63.5 24.5t26.5 69.5h49q0 -106 -57 -164.5t-147.5 -58.5zM537 -12q-197 0 -336.5 130t-139.5 345q0 217 139.5 348t338.5 131 q197 0 336 -130t139 -345q0 -217 -139 -348t-338 -131zM584 51q104 0 167.5 85t63.5 253q0 203 -91 347.5t-232 144.5q-106 0 -169 -86t-63 -254q0 -203 91.5 -346.5t232.5 -143.5z" glyph-name="otilde" horiz-adv-x="1075" unicode="õ"/><glyph d="M342 1143q-47 0 -80 33.5t-33 80.5q0 45 33 79t80 34t80 -33.5t33 -79.5q0 -47 -33 -80.5t-80 -33.5zM735 1143q-47 0 -79.5 33.5t-32.5 80.5q0 45 32.5 79t79.5 34q45 0 79 -33.5t34 -79.5q0 -47 -34 -80.5t-79 -33.5zM537 -12q-197 0 -336.5 130t-139.5 345 q0 217 139.5 348t338.5 131q197 0 336 -130t139 -345q0 -217 -139 -348t-338 -131zM584 51q104 0 167.5 85t63.5 253q0 203 -91 347.5t-232 144.5q-106 0 -169 -86t-63 -254q0 -203 91.5 -346.5t232.5 -143.5z" glyph-name="odieresis" horiz-adv-x="1075" unicode="ö"/><glyph d="M481 733q-37 0 -65.5 29t-28.5 67q0 37 28.5 66t65.5 29q39 0 66.5 -29t27.5 -66q0 -39 -27.5 -67.5t-66.5 -28.5zM102 485v60h758v-60h-758zM481 106q-37 0 -65.5 29t-28.5 68q0 37 28.5 65.5t65.5 28.5q39 0 66.5 -28.5t27.5 -65.5q0 -39 -27.5 -68t-66.5 -29z" glyph-name="divide" horiz-adv-x="962" unicode="÷"/><glyph d="M864 821q150 -135 150 -354q0 -217 -139.5 -348t-337.5 -131q-162 0 -287 88l-57 -70l-33 25l59 71q-158 131 -158 361q0 217 139.5 348t338.5 131q170 0 295 -94l63 76l31 -25zM260 541q0 -174 68 -305l403 487q-94 158 -239 158q-106 0 -169 -86t-63 -254zM584 51 q104 0 167.5 85t63.5 253q0 166 -63 297l-402 -489q93 -146 234 -146z" glyph-name="oslash" horiz-adv-x="1075" unicode="ø"/><glyph d="M717 1092q-16 -23 -62 4l-241 145q-55 33 -69.5 75t13.5 70q63 66 144 -20l198 -217q31 -30 17 -57zM483 -12q-129 0 -214 83t-85 257v397q0 72 -26.5 95.5t-106.5 19.5v47l242 51q76 16 76 -61v-504q0 -123 59 -199t164 -76q109 0 172 77t63 198v352q0 72 -25.5 95.5 t-107.5 19.5v47l242 51q76 16 76 -61v-730q0 -92 102 -71v-29q-39 -59 -143 -59q-63 0 -100 33.5t-46 91.5q-4 27 -20 26q-12 0 -27 -14q-76 -76 -139 -105q-72 -32 -156 -32z" glyph-name="ugrave" horiz-adv-x="1165" unicode="ù"/><glyph d="M487 1092q-14 27 17 57l201 217q82 88 141 20q29 -29 15.5 -70.5t-68.5 -74.5l-242 -145q-46 -27 -64 -4zM483 -12q-129 0 -214 83t-85 257v397q0 72 -26.5 95.5t-106.5 19.5v47l242 51q76 16 76 -61v-504q0 -123 59 -199t164 -76q109 0 172 77t63 198v352 q0 72 -25.5 95.5t-107.5 19.5v47l242 51q76 16 76 -61v-730q0 -92 102 -71v-29q-39 -59 -143 -59q-63 0 -100 33.5t-46 91.5q-4 27 -20 26q-12 0 -27 -14q-76 -76 -139 -105q-72 -32 -156 -32z" glyph-name="uacute" horiz-adv-x="1165" unicode="ú"/><glyph d="M545 1427l260 -294l-29 -33l-231 164l-234 -164l-28 33zM483 -12q-129 0 -214 83t-85 257v397q0 72 -26.5 95.5t-106.5 19.5v47l242 51q76 16 76 -61v-504q0 -123 59 -199t164 -76q109 0 172 77t63 198v352q0 72 -25.5 95.5t-107.5 19.5v47l242 51q76 16 76 -61v-730 q0 -92 102 -71v-29q-39 -59 -143 -59q-63 0 -100 33.5t-46 91.5q-4 27 -20 26q-12 0 -27 -14q-76 -76 -139 -105q-72 -32 -156 -32z" glyph-name="ucircumflex" horiz-adv-x="1165" unicode="û"/><glyph d="M321.5 1143q-47.5 0 -80 33.5t-32.5 80.5q0 45 32.5 79t80 34t80 -33.5t32.5 -79.5q0 -47 -32.5 -80.5t-80 -33.5zM715 1143q-47 0 -81 33.5t-34 80.5q0 45 34 79t81 34q45 0 78.5 -33.5t33.5 -79.5q0 -47 -33.5 -80.5t-78.5 -33.5zM483 -12q-129 0 -214 83t-85 257v397 q0 72 -26.5 95.5t-106.5 19.5v47l242 51q76 16 76 -61v-504q0 -123 59 -199t164 -76q109 0 172 77t63 198v352q0 72 -25.5 95.5t-107.5 19.5v47l242 51q76 16 76 -61v-730q0 -92 102 -71v-29q-39 -59 -143 -59q-63 0 -100 33.5t-46 91.5q-4 27 -20 26q-12 0 -27 -14 q-76 -76 -139 -105q-72 -32 -156 -32z" glyph-name="udieresis" horiz-adv-x="1165" unicode="ü"/><glyph d="M483 1092q-14 27 17 57l200 217q80 86 142 20q29 -29 15.5 -70.5t-69.5 -74.5l-243 -145q-46 -27 -62 -4zM256 -406q-80 0 -128 37t-48 97q0 45 29.5 74.5t76.5 29.5q43 0 63.5 -25.5t22.5 -55.5t14.5 -55.5t41.5 -25.5q61 0 116 140q47 121 -12 260l-248 620 q-39 94 -68.5 128t-95.5 59v47h426v-47q-82 -25 -94 -59t29 -128l176 -436q39 -90 76 2l86 223q66 166 78 247t-10.5 106.5t-92.5 44.5v47h371v-47q-90 -25 -127 -60t-72 -127l-338 -837q-53 -135 -110.5 -197t-161.5 -62z" glyph-name="yacute" horiz-adv-x="1085" unicode="ý"/><glyph d="M23 -389v47q74 8 102.5 32.5t28.5 82.5v1355q0 72 -27 97.5t-107 17.5v47l242 51q76 16 76 -61v-436q0 -18 11 -22.5t28 12.5q35 39 113.5 73.5t171.5 34.5q172 0 288.5 -127t116.5 -334q0 -227 -131 -360t-311 -133q-55 0 -107.5 13t-82 26.5t-54.5 21.5t-34 -1t-9 -44 v-231q0 -57 28.5 -82t102.5 -33v-47h-446zM625 47q119 0 187.5 95.5t68.5 252.5q0 180 -87 303t-225 123q-94 0 -162.5 -58t-68.5 -198v-198q0 -158 89 -239t198 -81z" glyph-name="thorn" horiz-adv-x="1128" unicode="þ"/><glyph d="M350 1143q-47 0 -79.5 33.5t-32.5 80.5q0 45 32.5 79t79.5 34t80 -33.5t33 -79.5q0 -47 -33 -80.5t-80 -33.5zM743 1143q-47 0 -79.5 33.5t-32.5 80.5q0 45 32.5 79t79.5 34q45 0 79 -33.5t34 -79.5q0 -47 -34 -80.5t-79 -33.5zM256 -406q-80 0 -128 37t-48 97 q0 45 29.5 74.5t76.5 29.5q43 0 63.5 -25.5t22.5 -55.5t14.5 -55.5t41.5 -25.5q61 0 116 140q47 121 -12 260l-248 620q-39 94 -68.5 128t-95.5 59v47h426v-47q-82 -25 -94 -59t29 -128l176 -436q39 -90 76 2l86 223q66 166 78 247t-10.5 106.5t-92.5 44.5v47h371v-47 q-90 -25 -127 -60t-72 -127l-338 -837q-53 -135 -110.5 -197t-161.5 -62z" glyph-name="ydieresis" horiz-adv-x="1085" unicode="ÿ"/><glyph d="M438 1548q-35 0 -35 31v29q0 31 35 30h592q35 0 35 -30v-29q0 -31 -35 -31h-592zM41 0v49q74 14 114 49t74 111l385 895q43 98 43 168l127 12l449 -1024q51 -121 85 -160t107 -51v-49h-481v49q88 14 104.5 48t-16.5 96l-51 118q-35 68 -119 68h-381q-92 0 -116 -62 l-52 -114q-55 -129 133 -154v-49h-405zM471 449h397q20 0 31.5 14t1.5 37l-211 485q-20 49 -41 -2l-207 -481q-10 -25 -0.5 -39t29.5 -14z" glyph-name="Amacron" horiz-adv-x="1466" unicode="Ā"/><glyph d="M236 1200q-35 0 -35 31v29q0 31 35 30h591q35 0 35 -30v-29q0 -31 -35 -31h-591zM328 -12q-113 0 -190 56t-77 169q0 129 128 211t444 119q29 4 42 16t13 43v45q0 236 -209 236q-164 0 -164 -148q0 -55 -27.5 -83.5t-72.5 -28.5q-92 0 -92 100q0 109 122 164t290 55 q180 0 258.5 -81t78.5 -265v-449q0 -92 101 -71v-29q-39 -59 -142 -59q-63 0 -102 37.5t-41 109.5q0 10 -5 14.5t-12 0t-14 -12.5q-55 -68 -143 -108.5t-186 -40.5zM432 92q106 0 181 69.5t75 172.5v84q0 39 -17.5 55t-64.5 10q-350 -37 -350 -231q0 -68 45 -114t131 -46z " glyph-name="amacron" horiz-adv-x="1015" unicode="ā"/><glyph d="M713 1489q-125 0 -201 70.5t-76 181.5q0 23 17 22h30q16 0 21 -18q12 -53 67.5 -91t141.5 -38t140 38t69 91q4 18 20 18h29q16 0 16 -22q0 -111 -74.5 -181.5t-199.5 -70.5zM41 0v49q74 14 114 49t74 111l385 895q43 98 43 168l127 12l449 -1024q51 -121 85 -160t107 -51 v-49h-481v49q88 14 104.5 48t-16.5 96l-51 118q-35 68 -119 68h-381q-92 0 -116 -62l-52 -114q-55 -129 133 -154v-49h-405zM471 449h397q20 0 31.5 14t1.5 37l-211 485q-20 49 -41 -2l-207 -481q-10 -25 -0.5 -39t29.5 -14z" glyph-name="Abreve" horiz-adv-x="1466" unicode="Ă"/><glyph d="M508 1141q-125 0 -201 70.5t-76 181.5q0 23 17 22h31q16 0 20 -18q12 -53 67.5 -91t141.5 -38t140 37.5t69 91.5q4 18 20 18h29q16 0 16 -22q0 -111 -74.5 -181.5t-199.5 -70.5zM328 -12q-113 0 -190 56t-77 169q0 129 128 211t444 119q29 4 42 16t13 43v45 q0 236 -209 236q-164 0 -164 -148q0 -55 -27.5 -83.5t-72.5 -28.5q-92 0 -92 100q0 109 122 164t290 55q180 0 258.5 -81t78.5 -265v-449q0 -92 101 -71v-29q-39 -59 -142 -59q-63 0 -102 37.5t-41 109.5q0 10 -5 14.5t-12 0t-14 -12.5q-55 -68 -143 -108.5t-186 -40.5z M432 92q106 0 181 69.5t75 172.5v84q0 39 -17.5 55t-64.5 10q-350 -37 -350 -231q0 -68 45 -114t131 -46z" glyph-name="abreve" horiz-adv-x="1015" unicode="ă"/><glyph d="M1227 0q-160 -106 -160 -229q0 -49 33 -80t80 -31q113 0 159 111h60q-70 -205 -277 -205q-90 0 -158.5 46t-68.5 134q0 90 72.5 155.5t167.5 98.5h-191v49q88 14 104.5 48t-16.5 96l-51 118q-35 68 -119 68h-381q-92 0 -116 -62l-52 -114q-55 -129 133 -154v-49h-405v49 q74 14 114 49t74 111l385 895q43 98 43 168l127 12l449 -1024q51 -121 85 -160t107 -51v-49h-198zM868 449q20 0 31.5 14t1.5 37l-211 485q-20 49 -41 -2l-207 -481q-10 -25 -0.5 -39t29.5 -14h397z" glyph-name="Aogonek" horiz-adv-x="1466" unicode="Ą"/><glyph d="M885 -6q-207 -61 -207 -201q0 -53 28.5 -81.5t75.5 -28.5q88 0 138 116h49q-20 -74 -84 -142.5t-178 -68.5q-84 0 -143.5 41t-59.5 127q0 90 70.5 153.5t179.5 96.5q-63 39 -66 129q0 10 -5 14.5t-12 0t-14 -12.5q-55 -68 -143 -108.5t-186 -40.5q-113 0 -190 56t-77 169 q0 129 128 211t444 119q29 4 42 16t13 43v45q0 236 -209 236q-164 0 -164 -148q0 -55 -27.5 -83.5t-72.5 -28.5q-92 0 -92 100q0 109 122 164t290 55q180 0 258.5 -81t78.5 -265v-449q0 -92 101 -71v-29q-27 -39 -88 -53zM688 334v84q0 39 -17.5 55t-64.5 10 q-350 -37 -350 -231q0 -68 45 -114t131 -46q106 0 181 70t75 172z" glyph-name="aogonek" horiz-adv-x="1015" unicode="ą"/><glyph d="M633 1440q-14 27 16 57l201 217q80 86 141 21q29 -29 15.5 -71t-68.5 -75l-244 -145q-45 -27 -61 -4zM729 -20q-272 0 -470 180t-198 481q0 303 201 483.5t483 180.5q217 0 353.5 -103.5t136.5 -226.5q0 -59 -34 -97t-93 -38q-113 0 -123 133q-6 106 -83 185t-224 79 q-182 0 -292 -132t-110 -360q0 -283 167 -456.5t409 -173.5q209 0 362 172l33 -27q-55 -100 -188 -190t-330 -90z" glyph-name="Cacute" horiz-adv-x="1318" unicode="Ć"/><glyph d="M496 1092q-14 27 16 57l201 217q80 86 141 20q29 -29 15.5 -70.5t-68.5 -74.5l-244 -145q-45 -27 -61 -4zM547 -12q-201 0 -343.5 129t-142.5 346q0 221 147.5 350t352.5 129q162 0 261.5 -75.5t99.5 -170.5q0 -45 -27 -74.5t-74 -29.5q-86 0 -96 98q-23 190 -203 191 q-127 0 -198.5 -91.5t-71.5 -250.5q0 -197 114.5 -313.5t286.5 -116.5q158 0 242 124l39 -30q-33 -80 -135 -147.5t-252 -67.5z" glyph-name="cacute" horiz-adv-x="1005" unicode="ć"/><glyph d="M694 1491q-47 0 -79.5 34t-32.5 81q0 45 32.5 78.5t79.5 33.5t80 -33.5t33 -78.5q0 -47 -33 -81t-80 -34zM729 -20q-272 0 -470 180t-198 481q0 303 201 483.5t483 180.5q217 0 353.5 -103.5t136.5 -226.5q0 -59 -34 -97t-93 -38q-113 0 -123 133q-6 106 -83 185t-224 79 q-182 0 -292 -132t-110 -360q0 -283 167 -456.5t409 -173.5q209 0 362 172l33 -27q-55 -100 -188 -190t-330 -90z" glyph-name="Cdotaccent" horiz-adv-x="1318" unicode="Ċ"/><glyph d="M557 1143q-47 0 -80 33.5t-33 80.5q0 45 34 79t79 34t79 -33.5t34 -79.5q0 -47 -33 -80.5t-80 -33.5zM547 -12q-201 0 -343.5 129t-142.5 346q0 221 147.5 350t352.5 129q162 0 261.5 -75.5t99.5 -170.5q0 -45 -27 -74.5t-74 -29.5q-86 0 -96 98q-23 190 -203 191 q-127 0 -198.5 -91.5t-71.5 -250.5q0 -197 114.5 -313.5t286.5 -116.5q158 0 242 124l39 -30q-33 -80 -135 -147.5t-252 -67.5z" glyph-name="cdotaccent" horiz-adv-x="1005" unicode="ċ"/><glyph d="M694 1432l-260 294l29 33l231 -164l234 164l26 -33zM729 -20q-272 0 -470 180t-198 481q0 303 201 483.5t483 180.5q217 0 353.5 -103.5t136.5 -226.5q0 -59 -34 -97t-93 -38q-113 0 -123 133q-6 106 -83 185t-224 79q-182 0 -292 -132t-110 -360q0 -283 167 -456.5 t409 -173.5q209 0 362 172l33 -27q-55 -100 -188 -190t-330 -90z" glyph-name="Ccaron" horiz-adv-x="1318" unicode="Č"/><glyph d="M557 1083l-260 295l29 33l231 -164l234 164l26 -33zM547 -12q-201 0 -343.5 129t-142.5 346q0 221 147.5 350t352.5 129q162 0 261.5 -75.5t99.5 -170.5q0 -45 -27 -74.5t-74 -29.5q-86 0 -96 98q-23 190 -203 191q-127 0 -198.5 -91.5t-71.5 -250.5q0 -197 114.5 -313.5 t286.5 -116.5q158 0 242 124l39 -30q-33 -80 -135 -147.5t-252 -67.5z" glyph-name="ccaron" horiz-adv-x="1005" unicode="č"/><glyph d="M649 1432l-260 294l29 33l231 -164l234 164l26 -33zM61 0v49q70 12 98.5 33.5t28.5 75.5v958q0 53 -29.5 74.5t-97.5 32.5v49h500q147 0 268 -33t220.5 -102.5t155 -194.5t55.5 -295t-57.5 -299t-155 -201.5t-212 -107.5t-243.5 -35q-39 0 -149.5 5t-159.5 5 q-101 0 -222 -14zM571 66q242 0 353.5 161.5t111.5 419.5t-113.5 409.5t-357.5 151.5h-39q-68 0 -97.5 -19.5t-29.5 -72.5v-958q0 -92 172 -92z" glyph-name="Dcaron" horiz-adv-x="1341" unicode="Ď"/><glyph d="M1096 989q-43 0 -43 41l6 232q4 90 78 90q45 0 66.5 -30t2.5 -85l-65 -207q-14 -41 -45 -41zM457 -12q-168 0 -282 129t-114 340q0 225 131.5 355t317.5 130q53 0 104.5 -12t80 -24.5t53 -17.5t34 7t9.5 49v184q0 72 -27 97.5t-107 17.5v47l242 51q76 16 76 -61v-1133 q0 -92 102 -71v-29q-39 -59 -141 -59q-109 0 -135 92q-14 35 -43 35q-20 0 -58 -32t-100.5 -63.5t-142.5 -31.5zM567 109q88 0 156 54t68 179v215q0 162 -88.5 244t-200.5 82q-119 0 -186.5 -95.5t-67.5 -252.5q0 -182 89 -304t230 -122z" glyph-name="dcaron" horiz-adv-x="1193" unicode="ď"/><glyph d="M561 1272q147 0 268 -33t220.5 -102.5t155 -194.5t55.5 -295t-57.5 -299t-155 -201.5t-212 -107.5t-243.5 -35q-39 0 -149.5 5t-159.5 5q-100 0 -222 -14v49q70 12 98.5 33.5t28.5 75.5v452h-125v52h125v454q0 53 -29.5 74.5t-97.5 32.5v49h500zM571 66 q242 0 353.5 161.5t111.5 419.5t-113.5 409.5t-357.5 151.5h-39q-68 0 -97.5 -19.5t-29.5 -72.5v-454h242v-52h-242v-452q0 -92 172 -92z" glyph-name="Dcroat" horiz-adv-x="1341" unicode="Đ"/><glyph d="M1106 1040h-131v-893q0 -92 102 -71v-29q-39 -59 -141 -59q-109 0 -135 92q-14 35 -43 35q-20 0 -58 -32t-100.5 -63.5t-142.5 -31.5q-168 0 -282 129t-114 340q0 225 131.5 355t317.5 130q53 0 104.5 -12t80 -24.5t53 -17.5t34 7t9.5 49v96h-263v52h263v36 q0 72 -27 97.5t-107 17.5v47l242 51q76 16 76 -61v-188h131v-52zM791 342v215q0 162 -88.5 244t-200.5 82q-119 0 -186.5 -95.5t-67.5 -252.5q0 -182 89 -304t230 -122q88 0 156 54t68 179z" glyph-name="dcroat" horiz-adv-x="1157" unicode="đ"/><glyph d="M319 1548q-35 0 -34 31v29q0 31 34 30h592q35 0 35 -30v-29q0 -31 -35 -31h-592zM61 0v49q70 12 98.5 33.5t28.5 75.5v956q0 53 -29.5 75.5t-97.5 33.5v49h947q29 0 30 -25q14 -123 41 -231h-43q-39 96 -100.5 143t-159.5 47h-250q-66 0 -96.5 -22.5t-30.5 -77.5v-330 q0 -55 31 -76.5t96 -21.5h185q94 0 127.5 33.5t48.5 113.5h33v-360h-33q-14 80 -49 114.5t-127 34.5h-185q-66 0 -96.5 -21.5t-30.5 -76.5v-350q0 -57 39 -80t142 -20l231 2q100 2 148.5 29.5t78.5 80.5l49 76h43q-45 -88 -61 -225q-4 -29 -33 -29h-975z" glyph-name="Emacron" horiz-adv-x="1171" unicode="Ē"/><glyph d="M227 1200q-35 0 -34 31v29q0 31 34 30h592q35 0 35 -30v-29q0 -31 -35 -31h-592zM539 -12q-201 0 -339.5 130t-138.5 347q0 221 140.5 349t343.5 128q156 0 250 -74.5t94 -193.5q0 -104 -87 -146.5t-300 -52.5l-180 -10q-63 -2 -52 -86q18 -125 122 -199t239 -74 q166 0 254 115l39 -33q-39 -72 -139.5 -136t-245.5 -64zM326 520l139 4q139 4 189.5 35t50.5 113q0 90 -49.5 149.5t-147.5 59.5q-111 0 -173.5 -72t-74.5 -195q-6 -59 9.5 -77.5t56.5 -16.5z" glyph-name="emacron" horiz-adv-x="995" unicode="ē"/><glyph d="M592 1491q-47 0 -80 34t-33 81q0 45 33 78.5t80 33.5t80 -33.5t33 -78.5q0 -47 -33 -81t-80 -34zM61 0v49q70 12 98.5 33.5t28.5 75.5v956q0 53 -29.5 75.5t-97.5 33.5v49h947q29 0 30 -25q14 -123 41 -231h-43q-39 96 -100.5 143t-159.5 47h-250q-66 0 -96.5 -22.5 t-30.5 -77.5v-330q0 -55 31 -76.5t96 -21.5h185q94 0 127.5 33.5t48.5 113.5h33v-360h-33q-14 80 -49 114.5t-127 34.5h-185q-66 0 -96.5 -21.5t-30.5 -76.5v-350q0 -57 39 -80t142 -20l231 2q100 2 148.5 29.5t78.5 80.5l49 76h43q-45 -88 -61 -225q-4 -29 -33 -29h-975z " glyph-name="Edotaccent" horiz-adv-x="1171" unicode="Ė"/><glyph d="M498 1143q-47 0 -80 33.5t-33 80.5q0 45 33 79t80 34t79.5 -33.5t32.5 -79.5q0 -47 -32.5 -80.5t-79.5 -33.5zM539 -12q-201 0 -339.5 130t-138.5 347q0 221 140.5 349t343.5 128q156 0 250 -74.5t94 -193.5q0 -104 -87 -146.5t-300 -52.5l-180 -10q-63 -2 -52 -86 q18 -125 122 -199t239 -74q166 0 254 115l39 -33q-39 -72 -139.5 -136t-245.5 -64zM326 520l139 4q139 4 189.5 35t50.5 113q0 90 -49.5 149.5t-147.5 59.5q-111 0 -173.5 -72t-74.5 -195q-6 -59 9.5 -77.5t56.5 -16.5z" glyph-name="edotaccent" horiz-adv-x="995" unicode="ė"/><glyph d="M1087 254h43q-45 -88 -61 -225q-4 -29 -33 -29h-172q-160 -106 -159 -229q0 -49 32.5 -80t79.5 -31q113 0 160 111h59q-70 -205 -276 -205q-90 0 -159 46t-69 134q0 90 73 155.5t167 98.5h-711v49q70 12 98.5 33.5t28.5 75.5v956q0 53 -29.5 75.5t-97.5 33.5v49h947 q29 0 30 -25q14 -123 41 -231h-43q-39 96 -100.5 143t-159.5 47h-250q-66 0 -96.5 -22.5t-30.5 -77.5v-330q0 -55 31 -76.5t96 -21.5h185q94 0 127.5 33.5t48.5 113.5h33v-360h-33q-14 80 -49 114.5t-127 34.5h-185q-66 0 -96.5 -21.5t-30.5 -76.5v-350q0 -57 39 -80 t142 -20l231 2q100 2 148.5 29.5t78.5 80.5z" glyph-name="Eogonek" horiz-adv-x="1171" unicode="Ę"/><glyph d="M702 14q-197 -96 -196 -219q0 -55 29.5 -83.5t76.5 -28.5q90 0 140 116h61q-10 -31 -28.5 -61.5t-50.5 -67.5t-84 -59.5t-115 -22.5q-80 0 -140.5 43t-60.5 133q0 133 178 224q-190 10 -320.5 139t-130.5 338q0 221 140.5 349t343.5 128q156 0 250 -74.5t94 -193.5 q0 -104 -87 -146.5t-300 -52.5l-180 -10q-63 -2 -52 -86q18 -125 122 -199t239 -74q166 0 254 115l39 -33q-27 -47 -83.5 -96t-138.5 -78zM260 614q-6 -59 9.5 -77.5t56.5 -16.5l139 4q139 4 189.5 35t50.5 113q0 90 -49.5 149.5t-147.5 59.5q-111 0 -173.5 -72t-74.5 -195z " glyph-name="eogonek" horiz-adv-x="995" unicode="ę"/><glyph d="M592 1432l-260 294l28 33l232 -164l233 164l27 -33zM61 0v49q70 12 98.5 33.5t28.5 75.5v956q0 53 -29.5 75.5t-97.5 33.5v49h947q29 0 30 -25q14 -123 41 -231h-43q-39 96 -100.5 143t-159.5 47h-250q-66 0 -96.5 -22.5t-30.5 -77.5v-330q0 -55 31 -76.5t96 -21.5h185 q94 0 127.5 33.5t48.5 113.5h33v-360h-33q-14 80 -49 114.5t-127 34.5h-185q-66 0 -96.5 -21.5t-30.5 -76.5v-350q0 -57 39 -80t142 -20l231 2q100 2 148.5 29.5t78.5 80.5l49 76h43q-45 -88 -61 -225q-4 -29 -33 -29h-975z" glyph-name="Ecaron" horiz-adv-x="1171" unicode="Ě"/><glyph d="M498 1083l-260 295l28 33l232 -164l233 164l27 -33zM539 -12q-201 0 -339.5 130t-138.5 347q0 221 140.5 349t343.5 128q156 0 250 -74.5t94 -193.5q0 -104 -87 -146.5t-300 -52.5l-180 -10q-63 -2 -52 -86q18 -125 122 -199t239 -74q166 0 254 115l39 -33 q-39 -72 -139.5 -136t-245.5 -64zM326 520l139 4q139 4 189.5 35t50.5 113q0 90 -49.5 149.5t-147.5 59.5q-111 0 -173.5 -72t-74.5 -195q-6 -59 9.5 -77.5t56.5 -16.5z" glyph-name="ecaron" horiz-adv-x="995" unicode="ě"/><glyph d="M694 1489q-125 0 -200.5 70.5t-75.5 181.5q0 23 16 22h31q18 0 20 -18q12 -53 67.5 -91t141.5 -38t140.5 38t68.5 91q2 18 21 18h28q16 0 17 -22q0 -111 -75 -181.5t-200 -70.5zM713 -20q-172 0 -318.5 75.5t-240 228t-93.5 353.5q0 305 200 486.5t484 181.5 q217 0 352.5 -102.5t135.5 -221.5q0 -55 -33 -92t-92 -37q-51 0 -83 30.5t-36 84.5q-8 106 -86 188t-225 82q-182 0 -292 -132t-110 -360q0 -295 173.5 -490.5t406.5 -195.5q82 0 123 32t41 106v143q0 115 -34 153.5t-148 47.5v41l499 2v-43q-82 -10 -105.5 -48t-23.5 -153 v-150q0 -127 11 -190q-49 39 -105.5 43t-107 -11.5t-133 -33.5t-160.5 -18z" glyph-name="Gbreve" horiz-adv-x="1388" unicode="Ğ"/><glyph d="M518 1141q-125 0 -200.5 70.5t-75.5 181.5q0 23 16 22h31q18 0 20 -18q12 -53 67.5 -91t141.5 -38t140.5 37.5t68.5 91.5q2 18 21 18h28q16 0 17 -22q0 -111 -75 -181.5t-200 -70.5zM420 -395q-170 0 -279.5 62.5t-109.5 174.5q0 129 174 195q37 14 38 17t-12 5 q-4 2 -8 2q-66 10 -107.5 52.5t-41.5 95.5q0 55 46 94t132 51q-160 92 -160 269q0 143 101.5 231t281.5 88q233 0 334 -143q-2 61 27.5 101t91.5 40q45 0 71.5 -21.5t26.5 -60.5q0 -43 -31.5 -62.5t-70.5 -7.5q-41 12 -63.5 -7t-12.5 -62q12 -39 12 -94q0 -141 -99 -229.5 t-272 -88.5q-39 0 -94 6t-73 6q-82 0 -82 -55q0 -49 98 -65l313 -56q158 -27 237 -73.5t79 -139.5q0 -139 -167 -232t-380 -93zM510 360q84 0 122 63.5t38 158.5q0 131 -61.5 219t-164.5 88q-160 0 -159 -221q0 -131 61.5 -219.5t163.5 -88.5zM496 -342q127 0 208.5 55.5 t81.5 147.5q0 57 -39.5 84.5t-136.5 46.5l-125 22q-139 27 -206.5 -18t-67.5 -131q0 -96 80 -151.5t205 -55.5z" glyph-name="gbreve" horiz-adv-x="1056" unicode="ğ"/><glyph d="M692 1491q-47 0 -79.5 34t-32.5 81q0 45 33.5 78.5t78.5 33.5t79 -33.5t34 -78.5q0 -47 -33 -81t-80 -34zM713 -20q-172 0 -318.5 75.5t-240 228t-93.5 353.5q0 305 200 486.5t484 181.5q217 0 352.5 -102.5t135.5 -221.5q0 -55 -33 -92t-92 -37q-51 0 -83 30.5t-36 84.5 q-8 106 -86 188t-225 82q-182 0 -292 -132t-110 -360q0 -295 173.5 -490.5t406.5 -195.5q82 0 123 32t41 106v143q0 115 -34 153.5t-148 47.5v41l499 2v-43q-82 -10 -105.5 -48t-23.5 -153v-150q0 -127 11 -190q-49 39 -105.5 43t-107 -11.5t-133 -33.5t-160.5 -18z" glyph-name="Gdotaccent" horiz-adv-x="1388" unicode="Ġ"/><glyph d="M518 1143q-47 0 -79.5 33.5t-32.5 80.5q0 45 32.5 79t79.5 34t80 -33.5t33 -79.5q0 -47 -33 -80.5t-80 -33.5zM420 -395q-170 0 -279.5 62.5t-109.5 174.5q0 129 174 195q37 14 38 17t-12 5q-4 2 -8 2q-66 10 -107.5 52.5t-41.5 95.5q0 55 46 94t132 51q-160 92 -160 269 q0 143 101.5 231t281.5 88q233 0 334 -143q-2 61 27.5 101t91.5 40q45 0 71.5 -21.5t26.5 -60.5q0 -43 -31.5 -62.5t-70.5 -7.5q-41 12 -63.5 -7t-12.5 -62q12 -39 12 -94q0 -141 -99 -229.5t-272 -88.5q-39 0 -94 6t-73 6q-82 0 -82 -55q0 -49 98 -65l313 -56 q158 -27 237 -73.5t79 -139.5q0 -139 -167 -232t-380 -93zM510 360q84 0 122 63.5t38 158.5q0 131 -61.5 219t-164.5 88q-160 0 -159 -221q0 -131 61.5 -219.5t163.5 -88.5zM496 -342q127 0 208.5 55.5t81.5 147.5q0 57 -39.5 84.5t-136.5 46.5l-125 22q-139 27 -206.5 -18 t-67.5 -131q0 -96 80 -151.5t205 -55.5z" glyph-name="gdotaccent" horiz-adv-x="1056" unicode="ġ"/><glyph d="M713 -20q-172 0 -318.5 75.5t-240 228t-93.5 353.5q0 305 200 486.5t484 181.5q217 0 352.5 -102.5t135.5 -221.5q0 -55 -33 -92t-92 -37q-51 0 -83 30.5t-36 84.5q-8 106 -86 188t-225 82q-182 0 -292 -132t-110 -360q0 -295 173.5 -490.5t406.5 -195.5q82 0 123 32 t41 106v143q0 115 -34 153.5t-148 47.5v41l499 2v-43q-82 -10 -105.5 -48t-23.5 -153v-150q0 -127 11 -190q-49 39 -105.5 43t-107 -11.5t-133 -33.5t-160.5 -18zM670 -602l-31 33q35 31 57.5 69.5t22.5 63.5q0 35 -33 35q-49 0 -81 31.5t-32 80.5q0 53 35 86t88 33 q63 0 97 -46t34 -114q0 -80 -43.5 -153.5t-113.5 -118.5z" glyph-name="Gcommaaccent" horiz-adv-x="1388" unicode="Ģ"/><glyph d="M563 1530l29 -33q-78 -72 -78 -133q0 -35 33 -35q47 0 79.5 -31.5t32.5 -83t-35.5 -84t-86.5 -32.5q-63 0 -97 45t-34 114q0 80 43.5 154t113.5 119zM420 -395q-170 0 -279.5 62.5t-109.5 174.5q0 129 174 195q37 14 38 17t-12 5q-4 2 -8 2q-66 10 -107.5 52.5 t-41.5 95.5q0 55 46 94t132 51q-160 92 -160 269q0 143 101.5 231t281.5 88q233 0 334 -143q-2 61 27.5 101t91.5 40q45 0 71.5 -21.5t26.5 -60.5q0 -43 -31.5 -62.5t-70.5 -7.5q-41 12 -63.5 -7t-12.5 -62q12 -39 12 -94q0 -141 -99 -229.5t-272 -88.5q-39 0 -94 6t-73 6 q-82 0 -82 -55q0 -49 98 -65l313 -56q158 -27 237 -73.5t79 -139.5q0 -139 -167 -232t-380 -93zM510 360q84 0 122 63.5t38 158.5q0 131 -61.5 219t-164.5 88q-160 0 -159 -221q0 -131 61.5 -219.5t163.5 -88.5zM496 -342q127 0 208.5 55.5t81.5 147.5q0 57 -39.5 84.5 t-136.5 46.5l-125 22q-139 27 -206.5 -18t-67.5 -131q0 -96 80 -151.5t205 -55.5z" glyph-name="gcommaaccent" horiz-adv-x="1056" unicode="ģ"/><glyph d="M1366 1223q-68 -10 -97.5 -33t-29.5 -76v-956q0 -53 28.5 -75t98.5 -34v-49h-465v49q70 12 99.5 33.5t29.5 75.5v372q0 70 -76 70h-481q-74 0 -74 -70v-372q0 -53 29 -75t98 -34v-49h-465v49q70 12 98.5 33.5t28.5 75.5v956q0 53 -29.5 75.5t-97.5 33.5v49h465v-49 q-68 -10 -97.5 -33t-29.5 -76v-119q0 -70 76 -69h488q51 0 67 28v160q0 53 -30.5 75.5t-98.5 33.5v49h465v-49zM952 662q78 0 78 69v92q-16 29 -65 29h-492q-74 0 -74 -70v-51q0 -70 76 -69h477z" glyph-name="Hbar" horiz-adv-x="1427" unicode="Ħ"/><glyph d="M991 147q0 -92 103 -71v-29q-39 -59 -144 -59q-66 0 -104.5 37.5t-38.5 117.5v410q0 125 -59.5 200.5t-163.5 75.5q-109 0 -172.5 -76.5t-63.5 -199.5v-391q0 -57 29 -82t102 -31v-49h-446v49q74 6 102.5 30.5t28.5 82.5v885h-133v61h133v20q0 72 -26.5 97.5t-106.5 17.5 v47l241 51q76 16 76 -61v-172h363v-61h-363v-170q0 -92 31 -84q8 0 18 10q2 2 13.5 14t18.5 17.5t21.5 19.5t26.5 21.5t31.5 19.5t38 19.5t42 14.5t49.5 10t54 3q129 0 214 -82t85 -260v-453z" glyph-name="hbar" horiz-adv-x="1134" unicode="ħ"/><glyph d="M20 1548q-35 0 -34 31v29q0 31 34 30h592q35 0 35 -30v-29q0 -31 -35 -31h-592zM61 0v49q70 12 98.5 33.5t28.5 75.5v956q0 53 -29.5 75.5t-97.5 33.5v49h465v-49q-68 -10 -97.5 -33t-29.5 -76v-956q0 -53 29 -75t98 -34v-49h-465z" glyph-name="Imacron" horiz-adv-x="587" unicode="Ī"/><glyph d="M-18 1200q-35 0 -35 31v29q0 31 35 30h591q35 0 35 -30v-29q0 -31 -35 -31h-591zM53 0v49q74 6 102.5 30.5t28.5 82.5v563q0 72 -26.5 97.5t-106.5 17.5v47l242 51q76 16 76 -61v-715q0 -57 28.5 -82t102.5 -31v-49h-447z" glyph-name="imacron" horiz-adv-x="550" unicode="ī"/><glyph d="M526 1223q-68 -10 -97.5 -33t-29.5 -76v-956q0 -53 29 -75t98 -34v-49h-180q-160 -106 -160 -229q0 -49 33 -80t80 -31q113 0 160 111h59q-70 -205 -276 -205q-90 0 -159 46t-69 134q0 90 73 155.5t167 98.5h-193v49q70 12 98.5 33.5t28.5 75.5v956q0 53 -29.5 75.5 t-97.5 33.5v49h465v-49z" glyph-name="Iogonek" horiz-adv-x="587" unicode="Į"/><glyph d="M254 1143q-47 0 -80 33.5t-33 80.5q0 45 34 79t79 34t79 -33.5t34 -79.5q0 -47 -33 -80.5t-80 -33.5zM305 0q-160 -106 -160 -229q0 -49 33 -80t80 -31q113 0 160 111h59q-70 -205 -276 -205q-90 0 -159 46t-69 134q0 90 73 155.5t167 98.5h-160v49q74 6 102.5 30.5 t28.5 82.5v563q0 72 -26.5 97.5t-106.5 17.5v47l242 51q76 16 76 -61v-715q0 -57 28.5 -82t102.5 -31v-49h-195z" glyph-name="iogonek" horiz-adv-x="550" unicode="į"/><glyph d="M293 1491q-47 0 -80 34t-33 81q0 45 33 78.5t80 33.5t80 -33.5t33 -78.5q0 -47 -33 -81t-80 -34zM61 0v49q70 12 98.5 33.5t28.5 75.5v956q0 53 -29.5 75.5t-97.5 33.5v49h465v-49q-68 -10 -97.5 -33t-29.5 -76v-956q0 -53 29 -75t98 -34v-49h-465z" glyph-name="Idotaccent" horiz-adv-x="587" unicode="İ"/><glyph d="M53 0v49q74 6 102.5 30.5t28.5 82.5v563q0 72 -26.5 97.5t-106.5 17.5v47l242 51q76 16 76 -61v-715q0 -57 28.5 -82t102.5 -31v-49h-447z" glyph-name="dotlessi" horiz-adv-x="550" unicode="ı"/><glyph d="M61 0v49q70 12 98.5 33.5t28.5 75.5v956q0 53 -29.5 75.5t-97.5 33.5v49h465v-49q-68 -10 -97.5 -33t-29.5 -76v-956q0 -53 29 -75t98 -34v-49h-465zM893 -20q-137 0 -216 57t-79 143q0 51 28.5 84t78.5 33q98 0 98 -121q0 -57 26.5 -99t79.5 -42q98 0 99 151v928 q0 55 -33 76.5t-117 32.5v49h485v-49q-68 -10 -97 -33t-29 -76v-815q0 -166 -87 -242.5t-237 -76.5z" glyph-name="IJ" horiz-adv-x="1406" unicode="Ĳ"/><glyph d="M256 1143q-47 0 -80 33.5t-33 80.5q0 45 33 79t80 34q45 0 79 -33.5t34 -79.5q0 -47 -34 -80.5t-79 -33.5zM801 1143q-47 0 -81 33.5t-34 80.5q0 45 34 79t81 34q45 0 78.5 -33.5t33.5 -79.5q0 -47 -33.5 -80.5t-78.5 -33.5zM53 0v49q74 6 102.5 30.5t28.5 82.5v563 q0 72 -26.5 97.5t-106.5 17.5v47l242 51q76 16 76 -61v-715q0 -57 28.5 -82t102.5 -31v-49h-447zM633 -410q-84 0 -145.5 35t-61.5 101q0 39 23.5 63.5t64.5 24.5q35 0 60.5 -26t37 -56.5t29.5 -56t39 -25.5q23 0 36 30.5t13 75.5v969q0 72 -26.5 97.5t-106.5 17.5v47 l240 51q78 16 77 -61v-996q0 -137 -77.5 -214t-202.5 -77z" glyph-name="ij" horiz-adv-x="1044" unicode="ĳ"/><glyph d="M1049 223q53 -68 102 -106.5t76.5 -48t75.5 -19.5v-49h-498v49q57 6 73.5 30.5t-24.5 86.5l-281 354q-57 74 -116 12q-55 -55 -58 -122v-252q0 -53 29 -75t98 -34v-49h-465v49q70 12 98.5 33.5t28.5 75.5v956q0 53 -29.5 75.5t-97.5 33.5v49h465v-49q-68 -10 -97.5 -33 t-29.5 -76v-551l519 531q41 41 34.5 68.5t-32 42t-64.5 18.5v49h404v-49q-139 -12 -263 -138l-288 -297q-33 -41 -30 -68.5t38 -70.5zM682 -170q63 0 97 -46t34 -114q0 -80 -44 -153.5t-114 -118.5l-30 33q35 31 57.5 69.5t22.5 63.5q0 35 -33 35q-49 0 -81 31.5t-32 80.5 q0 53 35 86t88 33z" glyph-name="Kcommaaccent" horiz-adv-x="1353" unicode="Ķ"/><glyph d="M33 0v49q74 6 102.5 30.5t28.5 82.5v966q0 72 -26.5 97.5t-106.5 17.5v47l241 51q76 16 76 -61v-731q0 -33 16.5 -43t38.5 8l304 272q18 18 19 37t-25.5 34t-75.5 20v47h360v-47q-45 -4 -81 -20.5t-48 -27t-59 -51.5l-213 -186l317 -445q41 -57 72 -73.5t98 -24.5v-49 h-414v49q55 8 63.5 26.5t-22.5 59.5l-221 311q-20 31 -55 3q-74 -61 -74 -125v-162q0 -57 29 -82t102 -31v-49h-446zM539 -602l-31 33q35 31 57.5 69.5t22.5 63.5q0 35 -33 35q-49 0 -81 31.5t-32 80.5q0 53 35 86t88 33q63 0 97 -46t34 -114q0 -80 -43.5 -153.5 t-113.5 -118.5z" glyph-name="kcommaaccent" horiz-adv-x="1071" unicode="ķ"/><glyph d="M238 1440q-14 27 16 57l201 217q80 86 141 21q29 -29 15.5 -71t-68.5 -75l-244 -145q-45 -27 -61 -4zM61 0v49q70 12 98.5 33.5t28.5 75.5v956q0 53 -29.5 75.5t-97.5 33.5v49h465v-49q-68 -10 -97.5 -33t-29.5 -76v-956q0 -106 125 -101l269 15q90 4 143 36.5t88 92.5 l37 63h49l-41 -129q-25 -78 -20 -135h-988z" glyph-name="Lacute" horiz-adv-x="1150" unicode="Ĺ"/><glyph d="M172 1440q-14 27 16 57l201 217q80 86 141 21q29 -29 15.5 -71t-68.5 -75l-244 -145q-45 -27 -61 -4zM297 -12q-66 0 -104.5 37.5t-38.5 117.5v985q0 72 -27 97.5t-107 17.5v47l242 51q76 16 76 -61v-1133q0 -92 102 -71v-29q-39 -59 -143 -59z" glyph-name="lacute" horiz-adv-x="491" unicode="ĺ"/><glyph d="M61 0v49q70 12 98.5 33.5t28.5 75.5v956q0 53 -29.5 75.5t-97.5 33.5v49h465v-49q-68 -10 -97.5 -33t-29.5 -76v-956q0 -106 125 -101l269 15q90 4 143 36.5t88 92.5l37 63h49l-41 -129q-25 -78 -20 -135h-988zM604 -602l-31 33q35 31 57.5 69.5t22.5 63.5q0 35 -32 35 q-49 0 -81 31.5t-32 80.5q0 53 35 86t88 33q63 0 97 -46t34 -114q0 -80 -44 -153.5t-114 -118.5z" glyph-name="Lcommaaccent" horiz-adv-x="1150" unicode="Ļ"/><glyph d="M297 -12q-66 0 -104.5 37.5t-38.5 117.5v985q0 72 -27 97.5t-107 17.5v47l242 51q76 16 76 -61v-1133q0 -92 102 -71v-29q-39 -59 -143 -59zM287 -602l-31 33q35 31 57.5 69.5t22.5 63.5q0 35 -33 35q-49 0 -81 31.5t-32 80.5q0 53 35 86t88 33q63 0 97 -46t34 -114 q0 -80 -43.5 -153.5t-113.5 -118.5z" glyph-name="lcommaaccent" horiz-adv-x="491" unicode="ļ"/><glyph d="M737 856l-28 35q33 29 56 67.5t23 63.5q0 35 -34 35q-47 0 -79 32.5t-32 81.5q0 53 36 86t87 33q63 0 96 -45t33 -115q0 -80 -44 -154.5t-114 -119.5zM61 0v49q70 12 98.5 33.5t28.5 75.5v956q0 53 -29.5 75.5t-97.5 33.5v49h465v-49q-68 -10 -97.5 -33t-29.5 -76v-956 q0 -106 125 -101l269 15q90 4 143 36.5t88 92.5l37 63h49l-41 -129q-25 -78 -20 -135h-988z" glyph-name="Lcaron" horiz-adv-x="1150" unicode="Ľ"/><glyph d="M459 989q-16 0 -28.5 11.5t-12.5 29.5v232q0 41 22.5 65.5t61.5 24.5q45 0 66.5 -30t2.5 -85l-65 -207q-14 -41 -47 -41zM297 -12q-66 0 -104.5 37.5t-38.5 117.5v985q0 72 -27 97.5t-107 17.5v47l242 51q76 16 76 -61v-1133q0 -92 102 -71v-29q-39 -59 -143 -59z" glyph-name="lcaron" horiz-adv-x="559" unicode="ľ"/><glyph d="M61 0v49q70 12 98.5 33.5t28.5 75.5v956q0 53 -29.5 75.5t-97.5 33.5v49h465v-49q-68 -10 -97.5 -33t-29.5 -76v-956q0 -106 125 -101l269 15q90 4 143 36.5t88 92.5l37 63h49l-41 -129q-25 -78 -20 -135h-988zM723 573q-47 0 -83 36t-36 85q0 47 36 83t83 36 q49 0 84 -36t35 -83q0 -49 -35 -85t-84 -36z" glyph-name="Ldot" horiz-adv-x="1150" unicode="Ŀ"/><glyph d="M297 -12q-66 0 -104.5 37.5t-38.5 117.5v985q0 72 -27 97.5t-107 17.5v47l242 51q76 16 76 -61v-1133q0 -92 102 -71v-29q-39 -59 -143 -59zM573 602q-49 0 -83.5 35t-34.5 84t34.5 84t83.5 35q47 0 82 -35t35 -84t-35 -84t-82 -35z" glyph-name="ldot" horiz-adv-x="628" unicode="ŀ"/><glyph d="M1120 264l-41 -129q-25 -78 -20 -135h-987v49q70 12 98.5 33.5t28.5 75.5v405l-138 -76v60l138 76v491q0 53 -30 75.5t-97 33.5v49h465v-49q-68 -10 -98.5 -33t-30.5 -76v-377l184 101v-60l-184 -100v-520q0 -106 124 -101l271 15q160 8 229 129l37 63h51z" glyph-name="Lslash" horiz-adv-x="1161" unicode="Ł"/><glyph d="M469 758l-131 -80v-531q0 -92 102 -71v-29q-39 -59 -143 -59q-66 0 -104.5 37.5t-38.5 117.5v424l-134 -80v60l134 80v501q0 72 -27 97.5t-107 17.5v47l242 51q76 16 76 -61v-543l131 80v-59z" glyph-name="lslash" horiz-adv-x="520" unicode="ł"/><glyph d="M616 1440q-14 27 17 57l201 217q80 86 141 21q29 -29 15.5 -71t-68.5 -75l-244 -145q-46 -27 -62 -4zM61 0v49q70 12 102 33.5t32 75.5v956q0 53 -32 75.5t-102 33.5v49h289l740 -946v788q0 53 -31 75.5t-101 33.5v49h340v-49q-70 -10 -100.5 -33t-30.5 -76v-1114h-77 l-820 1047v-889q0 -53 31 -75t98 -34v-49h-338z" glyph-name="Nacute" horiz-adv-x="1359" unicode="Ń"/><glyph d="M518 1092q-14 27 17 57l200 217q80 86 142 20q29 -29 15.5 -70.5t-69.5 -74.5l-243 -145q-46 -27 -62 -4zM971 -12q-66 0 -105 37.5t-39 117.5v410q0 125 -58 200.5t-165 75.5q-109 0 -172 -76.5t-63 -199.5v-391q0 -57 28.5 -82t102.5 -31v-49h-447v49q74 6 102.5 30.5 t28.5 82.5v563q0 72 -26.5 97.5t-106.5 17.5v47l242 51q76 16 76 -61q0 -92 30 -84q8 0 19 10q33 37 54.5 56.5t90 51t146.5 31.5q131 0 217 -82t86 -260v-453q0 -96 102 -71v-29q-39 -59 -143 -59z" glyph-name="nacute" horiz-adv-x="1155" unicode="ń"/><glyph d="M61 0v49q70 12 102 33.5t32 75.5v956q0 53 -32 75.5t-102 33.5v49h289l740 -946v788q0 53 -31 75.5t-101 33.5v49h340v-49q-70 -10 -100.5 -33t-30.5 -76v-1114h-77l-820 1047v-889q0 -53 31 -75t98 -34v-49h-338zM655 -602l-28 33q35 31 57.5 69.5t22.5 63.5 q0 35 -33 35q-49 0 -81 31.5t-32 80.5q0 53 35 86t88 33q63 0 97 -46t34 -114q0 -80 -44 -153.5t-116 -118.5z" glyph-name="Ncommaaccent" horiz-adv-x="1361" unicode="Ņ"/><glyph d="M971 -12q-66 0 -105 37.5t-39 117.5v410q0 125 -58 200.5t-165 75.5q-109 0 -172 -76.5t-63 -199.5v-391q0 -57 28.5 -82t102.5 -31v-49h-447v49q74 6 102.5 30.5t28.5 82.5v563q0 72 -26.5 97.5t-106.5 17.5v47l242 51q76 16 76 -61q0 -92 30 -84q8 0 19 10 q33 37 54.5 56.5t90 51t146.5 31.5q131 0 217 -82t86 -260v-453q0 -96 102 -71v-29q-39 -59 -143 -59zM555 -602l-31 33q35 31 57.5 69.5t22.5 63.5q0 35 -33 35q-49 0 -80.5 31.5t-31.5 80.5q0 53 34.5 86t88.5 33q63 0 97 -46t34 -114q0 -80 -44 -153.5t-114 -118.5z" glyph-name="ncommaaccent" horiz-adv-x="1155" unicode="ņ"/><glyph d="M678 1432l-260 294l28 33l232 -164l233 164l27 -33zM61 0v49q70 12 102 33.5t32 75.5v956q0 53 -32 75.5t-102 33.5v49h289l740 -946v788q0 53 -31 75.5t-101 33.5v49h340v-49q-70 -10 -100.5 -33t-30.5 -76v-1114h-77l-820 1047v-889q0 -53 31 -75t98 -34v-49h-338z" glyph-name="Ncaron" horiz-adv-x="1359" unicode="Ň"/><glyph d="M580 1083l-261 295l29 33l232 -164l233 164l27 -33zM971 -12q-66 0 -105 37.5t-39 117.5v410q0 125 -58 200.5t-165 75.5q-109 0 -172 -76.5t-63 -199.5v-391q0 -57 28.5 -82t102.5 -31v-49h-447v49q74 6 102.5 30.5t28.5 82.5v563q0 72 -26.5 97.5t-106.5 17.5v47 l242 51q76 16 76 -61q0 -92 30 -84q8 0 19 10q33 37 54.5 56.5t90 51t146.5 31.5q131 0 217 -82t86 -260v-453q0 -96 102 -71v-29q-39 -59 -143 -59z" glyph-name="ncaron" horiz-adv-x="1155" unicode="ň"/><glyph d="M958 1272h340v-49q-70 -10 -100.5 -33t-30.5 -76v-1227q0 -164 -87 -240.5t-236 -76.5q-137 0 -216 57.5t-79 143.5q0 51 28.5 82.5t77.5 31.5q98 0 99 -118q0 -57 26.5 -99.5t79.5 -42.5q98 0 98 152v391l-688 879v-889q0 -53 31 -75t98 -34v-49h-338v49q70 12 102 33.5 t32 75.5v956q0 53 -32 75.5t-102 33.5v49h289l740 -946v788q0 53 -31 75.5t-101 33.5v49z" glyph-name="Eng" horiz-adv-x="1359" unicode="Ŋ"/><glyph d="M731 -397q-84 0 -144.5 33.5t-60.5 99.5q0 41 22.5 65.5t63.5 24.5q35 0 60.5 -24.5t37 -54.5t30 -54.5t38.5 -24.5q23 0 36 31t13 76v782q0 121 -57 195.5t-163.5 74.5t-172 -76.5t-65.5 -193.5v-395q0 -57 28.5 -81t102.5 -32v-49h-447v49q74 8 102.5 31.5t28.5 81.5 v561q0 72 -27.5 98.5t-105.5 18.5v47l242 51q76 16 76 -61q0 -92 30 -84q8 0 19 10q33 35 54.5 55.5t92 52t148.5 31.5q129 0 214 -82t85 -258v-711q0 -135 -78 -211.5t-203 -76.5z" glyph-name="eng" horiz-adv-x="1144" unicode="ŋ"/><glyph d="M428 1548q-35 0 -35 31v29q0 31 35 30h592q35 0 35 -30v-29q0 -31 -35 -31h-592zM711 -20q-276 0 -463 183t-187 468q0 291 195 482.5t477 191.5q276 0 462.5 -182.5t186.5 -467.5q0 -293 -194 -484t-477 -191zM764 53q160 0 273.5 127t113.5 393q0 287 -137 472.5 t-334 185.5q-160 0 -273.5 -127t-113.5 -389q0 -289 137 -475.5t334 -186.5z" glyph-name="Omacron" unicode="Ō"/><glyph d="M266 1200q-35 0 -35 31v29q0 31 35 30h592q35 0 35 -30v-29q0 -31 -35 -31h-592zM537 -12q-197 0 -336.5 130t-139.5 345q0 217 139.5 348t338.5 131q197 0 336 -130t139 -345q0 -217 -139 -348t-338 -131zM584 51q104 0 167.5 85t63.5 253q0 203 -91 347.5t-232 144.5 q-106 0 -169 -86t-63 -254q0 -203 91.5 -346.5t232.5 -143.5z" glyph-name="omacron" horiz-adv-x="1075" unicode="ō"/><glyph d="M467 1440q-14 27 16 57l201 217q80 86 141 21q29 -29 15.5 -71t-68.5 -75l-242 -145q-45 -27 -63 -4zM838 1440q-14 27 16 57l201 217q80 86 141 21q29 -29 15.5 -71t-70.5 -75l-242 -145q-45 -27 -61 -4zM711 -20q-276 0 -463 183t-187 468q0 291 195 482.5t477 191.5 q276 0 462.5 -182.5t186.5 -467.5q0 -293 -194 -484t-477 -191zM764 53q160 0 273.5 127t113.5 393q0 287 -137 472.5t-334 185.5q-160 0 -273.5 -127t-113.5 -389q0 -289 137 -475.5t334 -186.5z" glyph-name="Ohungarumlaut" unicode="Ő"/><glyph d="M307 1092q-14 27 17 57l200 217q82 88 142 20q29 -29 15.5 -70.5t-69.5 -74.5l-241 -145q-46 -27 -64 -4zM678 1092q-14 27 16 57l201 217q80 86 141 20q29 -29 15.5 -70.5t-68.5 -74.5l-244 -145q-45 -27 -61 -4zM537 -12q-197 0 -336.5 130t-139.5 345q0 217 139.5 348 t338.5 131q197 0 336 -130t139 -345q0 -217 -139 -348t-338 -131zM584 51q104 0 167.5 85t63.5 253q0 203 -91 347.5t-232 144.5q-106 0 -169 -86t-63 -254q0 -203 91.5 -346.5t232.5 -143.5z" glyph-name="ohungarumlaut" horiz-adv-x="1075" unicode="ő"/><glyph d="M1909 254h41q-45 -88 -62 -225q-4 -29 -33 -29h-972q-80 -20 -174 -20q-274 0 -461 183t-187 468q0 291 195 482.5t479 191.5q117 0 213 -33h879q29 0 31 -25q12 -104 40 -231h-40q-41 98 -101.5 144t-161.5 46h-249q-66 0 -96.5 -22.5t-30.5 -77.5v-330 q0 -55 30.5 -76.5t96.5 -21.5h184q94 0 128 33.5t48 113.5h33v-360h-33q-14 80 -49 114.5t-127 34.5h-184q-66 0 -96.5 -21.5t-30.5 -76.5v-350q0 -57 38.5 -80t141.5 -20l233 2q98 2 146.5 29.5t81.5 80.5zM293 715q0 -289 136 -475.5t333 -186.5q147 0 248 101v4v893 q-131 180 -328 180q-160 0 -274.5 -127t-114.5 -389z" glyph-name="OE" horiz-adv-x="1990" unicode="Œ"/><glyph d="M1655 223l37 -33q-39 -72 -139.5 -136t-245.5 -64q-248 0 -385 182q-137 -184 -385 -184q-197 0 -336.5 130t-139.5 345q0 217 139.5 348t338.5 131q115 0 215 -47t166 -133q139 182 393 182q156 0 250 -74.5t94 -193.5q0 -104 -87 -146.5t-300 -52.5l-178 -10 q-63 -2 -52 -86q18 -125 121 -198.5t240 -73.5q162 -1 254 114zM1030 616q-6 -59 9.5 -77.5t56.5 -16.5l139 4q139 4 188.5 35t49.5 113q0 90 -48.5 149.5t-148.5 59.5q-109 0 -172.5 -73t-73.5 -194zM584 51q104 0 167.5 85t63.5 253q0 203 -91 347.5t-232 144.5 q-106 0 -169 -86t-63 -254q0 -203 91.5 -346.5t232.5 -143.5z" glyph-name="oe" horiz-adv-x="1763" unicode="œ"/><glyph d="M571 1440q-14 27 17 57l200 217q80 86 142 21q29 -29 15.5 -71t-68.5 -75l-244 -145q-46 -27 -62 -4zM61 0v49q70 12 98.5 33.5t28.5 75.5v956q0 53 -29.5 75.5t-97.5 33.5v49h586q233 0 359.5 -90t126.5 -254q0 -248 -297 -316q-6 -2 -9.5 -6t-0.5 -8t10 -6 q166 -47 227 -250q55 -166 91 -229.5t95 -63.5v-49h-67q-150 0 -212.5 65.5t-129.5 266.5q-45 135 -113 188t-186 53q-82 0 -112 -25.5t-30 -86.5v-303q0 -55 32 -76t116 -33v-49h-486zM512 641h131q145 0 211 77t66 206q0 283 -275 282h-119q-72 0 -99.5 -20.5t-27.5 -75.5 v-358q0 -59 26 -85t87 -26z" glyph-name="Racute" horiz-adv-x="1290" unicode="Ŕ"/><glyph d="M358 1092q-14 27 17 57l200 217q80 86 142 20q29 -29 15.5 -70.5t-68.5 -74.5l-244 -145q-46 -27 -62 -4zM53 0v49q74 6 102.5 30.5t28.5 82.5v563q0 72 -26.5 97.5t-106.5 17.5v47l242 51q76 16 76 -61v-56q0 -18 13 -23t32 13q123 131 268 131q102 0 148.5 -52 t46.5 -116q0 -49 -30 -79.5t-75 -30.5q-43 0 -68.5 22.5t-25.5 54.5q0 41 -27.5 70t-72.5 29q-88 0 -148.5 -86t-60.5 -228v-364q0 -57 29.5 -82t107.5 -31v-49h-453z" glyph-name="racute" horiz-adv-x="907" unicode="ŕ"/><glyph d="M61 0v49q70 12 98.5 33.5t28.5 75.5v956q0 53 -29.5 75.5t-97.5 33.5v49h586q233 0 359.5 -90t126.5 -254q0 -248 -297 -316q-6 -2 -9.5 -6t-0.5 -8t10 -6q166 -47 227 -250q55 -166 91 -229.5t95 -63.5v-49h-67q-150 0 -212.5 65.5t-129.5 266.5q-45 135 -113 188 t-186 53q-82 0 -112 -25.5t-30 -86.5v-303q0 -55 32 -76t116 -33v-49h-486zM512 641h131q145 0 211 77t66 206q0 283 -275 282h-119q-72 0 -99.5 -20.5t-27.5 -75.5v-358q0 -59 26 -85t87 -26zM662 -602l-31 33q35 31 57.5 69.5t22.5 63.5q0 35 -33 35q-49 0 -81 31.5 t-32 80.5q0 53 35 86t88 33q63 0 97 -45t34 -115q0 -80 -43.5 -153.5t-113.5 -118.5z" glyph-name="Rcommaaccent" horiz-adv-x="1290" unicode="Ŗ"/><glyph d="M53 0v49q74 6 102.5 30.5t28.5 82.5v563q0 72 -26.5 97.5t-106.5 17.5v47l242 51q76 16 76 -61v-56q0 -18 13 -23t32 13q123 131 268 131q102 0 148.5 -52t46.5 -116q0 -49 -30 -79.5t-75 -30.5q-43 0 -68.5 22.5t-25.5 54.5q0 41 -27.5 70t-72.5 29q-88 0 -148.5 -86 t-60.5 -228v-364q0 -57 29.5 -82t107.5 -31v-49h-453zM270 -602l-28 33q78 72 77 133q0 35 -32 35q-47 0 -79 31.5t-32 80.5q0 53 35 86t86 33q63 0 97 -45t34 -115q0 -80 -44 -153.5t-114 -118.5z" glyph-name="rcommaaccent" horiz-adv-x="907" unicode="ŗ"/><glyph d="M635 1432l-260 294l28 33l232 -164l233 164l27 -33zM61 0v49q70 12 98.5 33.5t28.5 75.5v956q0 53 -29.5 75.5t-97.5 33.5v49h586q233 0 359.5 -90t126.5 -254q0 -248 -297 -316q-6 -2 -9.5 -6t-0.5 -8t10 -6q166 -47 227 -250q55 -166 91 -229.5t95 -63.5v-49h-67 q-150 0 -212.5 65.5t-129.5 266.5q-45 135 -113 188t-186 53q-82 0 -112 -25.5t-30 -86.5v-303q0 -55 32 -76t116 -33v-49h-486zM512 641h131q145 0 211 77t66 206q0 283 -275 282h-119q-72 0 -99.5 -20.5t-27.5 -75.5v-358q0 -59 26 -85t87 -26z" glyph-name="Rcaron" horiz-adv-x="1290" unicode="Ř"/><glyph d="M414 1083l-260 295l28 33l232 -164l233 164l27 -33zM53 0v49q74 6 102.5 30.5t28.5 82.5v563q0 72 -26.5 97.5t-106.5 17.5v47l242 51q76 16 76 -61v-56q0 -18 13 -23t32 13q123 131 268 131q102 0 148.5 -52t46.5 -116q0 -49 -30 -79.5t-75 -30.5q-43 0 -68.5 22.5 t-25.5 54.5q0 41 -27.5 70t-72.5 29q-88 0 -148.5 -86t-60.5 -228v-364q0 -57 29.5 -82t107.5 -31v-49h-453z" glyph-name="rcaron" horiz-adv-x="907" unicode="ř"/><glyph d="M469 1440q-14 27 16 57l201 217q80 86 141 21q29 -29 15.5 -71t-68.5 -75l-244 -145q-45 -27 -61 -4zM526 -20q-217 0 -403 112q-43 109 -40 209t54 100q25 0 35 -30q51 -152 164 -238t258 -84q115 2 180.5 57.5t65.5 159.5q0 59 -22.5 103.5t-71 74t-92.5 47t-119 41.5 q-27 8 -39 13q-188 63 -294 159.5t-106 245.5q0 158 126 256.5t337 98.5q221 0 381 -97q43 -106 40 -207.5t-54 -101.5q-25 0 -35 31q-49 150 -152.5 228.5t-230.5 78.5q-115 0 -170 -63.5t-55 -153.5q0 -104 73.5 -161.5t221.5 -106.5q61 -20 88.5 -29.5t87 -34t90 -44 t75 -53.5t66 -69t38.5 -83t17 -103q0 -123 -78.5 -207t-190.5 -116.5t-245 -32.5z" glyph-name="Sacute" horiz-adv-x="1112" unicode="Ś"/><glyph d="M375 1092q-14 27 16 57l201 217q80 86 141 20q29 -29 15.5 -70.5t-68.5 -74.5l-244 -145q-45 -27 -61 -4zM428 -12q-152 0 -259.5 60.5t-107.5 172.5q0 49 24 76t65 27q37 0 59 -24t22 -52q0 -100 70 -152.5t164 -52.5q86 0 132 41t46 109q0 35 -15.5 63.5t-32.5 47 t-57 35.5t-63.5 25.5t-75.5 24.5q-137 41 -224 107.5t-87 183.5q0 119 101.5 190.5t261.5 71.5q141 0 242.5 -56.5t101.5 -152.5q0 -94 -90 -94q-76 0 -76 72q0 78 -58.5 127t-148.5 49q-158 0 -158 -139q0 -78 50.5 -117t158.5 -74q188 -59 254 -108q98 -72 98 -183 q0 -127 -113.5 -202.5t-283.5 -75.5z" glyph-name="sacute" horiz-adv-x="886" unicode="ś"/><glyph d="M1040 336q0 -160 -119.5 -247t-304.5 -105l-36 -80q80 18 148.5 -28t68.5 -128q0 -84 -72 -134t-170 -50q-102 0 -162.5 39t-60.5 94q0 53 44 71.5t85 -20.5q0 -135 90 -135q53 0 86 42t33 97q0 49 -24.5 78t-70.5 29q-23 0 -52 -9.5t-42 -9.5q-25 0 -32 17.5t6 42.5 l39 80q-197 8 -371 112q-43 109 -40 209t54 100q25 0 35 -30q51 -152 164 -238t258 -84q115 2 180.5 57.5t65.5 159.5q0 59 -22.5 103.5t-71 74t-92.5 47t-119 41.5q-27 8 -39 13q-188 63 -294 159.5t-106 245.5q0 158 126 256.5t337 98.5q221 0 381 -97q43 -106 40 -207.5 t-54 -101.5q-25 0 -35 31q-49 150 -152.5 228.5t-230.5 78.5q-115 0 -170 -63.5t-55 -153.5q0 -104 73.5 -161.5t221.5 -106.5q61 -20 88.5 -29.5t87 -34t90 -44t75 -53.5t66 -69t38.5 -83t17 -103z" glyph-name="Scedilla" horiz-adv-x="1112" unicode="Ş"/><glyph d="M825 266q0 -113 -90 -185.5t-235 -88.5l-41 -88q80 18 148.5 -28t68.5 -128q0 -84 -72 -134t-170 -50q-102 0 -162.5 39t-60.5 94q0 53 44 71.5t85 -20.5q0 -135 90 -135q53 0 86 42t33 97q0 49 -24.5 78t-69.5 29q-23 0 -52.5 -9.5t-42.5 -9.5q-25 0 -31.5 17.5 t5.5 42.5l43 90q-135 10 -225.5 69.5t-90.5 161.5q0 49 24 76t65 27q37 0 59 -24t22 -52q0 -100 70 -152.5t164 -52.5q86 0 132 41t46 109q0 35 -15.5 63.5t-32.5 47t-57 35.5t-63.5 25.5t-75.5 24.5q-137 41 -224 107.5t-87 183.5q0 119 101.5 190.5t261.5 71.5 q141 0 242.5 -56.5t101.5 -152.5q0 -94 -90 -94q-76 0 -76 72q0 78 -58.5 127t-148.5 49q-158 0 -158 -139q0 -78 50.5 -117t158.5 -74q188 -59 254 -108q98 -72 98 -183z" glyph-name="scedilla" horiz-adv-x="886" unicode="ş"/><glyph d="M532 1432l-260 294l29 33l231 -164l234 164l27 -33zM526 -20q-217 0 -403 112q-43 109 -40 209t54 100q25 0 35 -30q51 -152 164 -238t258 -84q115 2 180.5 57.5t65.5 159.5q0 59 -22.5 103.5t-71 74t-92.5 47t-119 41.5q-27 8 -39 13q-188 63 -294 159.5t-106 245.5 q0 158 126 256.5t337 98.5q221 0 381 -97q43 -106 40 -207.5t-54 -101.5q-25 0 -35 31q-49 150 -152.5 228.5t-230.5 78.5q-115 0 -170 -63.5t-55 -153.5q0 -104 73.5 -161.5t221.5 -106.5q61 -20 88.5 -29.5t87 -34t90 -44t75 -53.5t66 -69t38.5 -83t17 -103 q0 -123 -78.5 -207t-190.5 -116.5t-245 -32.5z" glyph-name="Scaron" horiz-adv-x="1112" unicode="Š"/><glyph d="M438 1083l-260 295l29 33l231 -164l234 164l26 -33zM428 -12q-152 0 -259.5 60.5t-107.5 172.5q0 49 24 76t65 27q37 0 59 -24t22 -52q0 -100 70 -152.5t164 -52.5q86 0 132 41t46 109q0 35 -15.5 63.5t-32.5 47t-57 35.5t-63.5 25.5t-75.5 24.5q-137 41 -224 107.5 t-87 183.5q0 119 101.5 190.5t261.5 71.5q141 0 242.5 -56.5t101.5 -152.5q0 -94 -90 -94q-76 0 -76 72q0 78 -58.5 127t-148.5 49q-158 0 -158 -139q0 -78 50.5 -117t158.5 -74q188 -59 254 -108q98 -72 98 -183q0 -127 -113.5 -202.5t-283.5 -75.5z" glyph-name="scaron" horiz-adv-x="886" unicode="š"/><glyph d="M1153 1255l35 -260h-53q-43 121 -92.5 162t-156 41t-135 -23.5t-28.5 -99.5v-917q0 -55 42 -77t169 -32v-49h-250l-45 -96q80 18 148.5 -28t68.5 -128q0 -84 -71.5 -134t-170.5 -50q-102 0 -162.5 39t-60.5 94q0 53 44 71.5t85 -20.5q0 -135 90 -135q53 0 86 42t33 97 q0 49 -24.5 78t-69.5 29q-23 0 -52.5 -9.5t-41.5 -9.5q-25 0 -32 17.5t5 42.5l49 100h-258v49q127 10 168 31.5t41 77.5v917q0 78 -27.5 100.5t-134 22.5t-156 -41t-92.5 -162h-53l33 260q2 20 29 21q57 -4 131 -4h749q72 0 133 4q25 -1 27 -21z" glyph-name="Tcommaaccent" horiz-adv-x="1239" unicode="Ţ"/><glyph d="M465 854q-68 2 -87.5 -11.5t-19.5 -56.5v-524q0 -98 26 -147t97 -49q57 0 115 36l22 -34q-70 -72 -178 -78l-41 -86q80 18 148.5 -28t68.5 -128q0 -84 -71.5 -134t-169.5 -50q-102 0 -162.5 39t-60.5 94q0 53 44 71.5t85 -20.5q0 -135 90 -135q53 0 85.5 42t32.5 97 q0 49 -24.5 78t-69.5 29q-23 0 -52.5 -9.5t-41.5 -9.5q-25 0 -32 17.5t5 42.5l50 100h10q-160 45 -160 240v551q0 39 -11 53t-36 14h-96v47q162 57 252 217q10 18 32 19h21q25 0 24 -25l-2 -139q0 -33 19.5 -43t87.5 -10h153v-78z" glyph-name="tcommaaccent" horiz-adv-x="679" unicode="ţ"/><glyph d="M618 1432l-260 294l29 33l231 -164l234 164l27 -33zM305 0v49q127 10 168 31.5t41 77.5v917q0 78 -27.5 100.5t-134 22.5t-156 -41t-92.5 -162h-53l33 260q2 20 29 21q57 -4 131 -4h749q72 0 133 4q25 0 27 -21l35 -260h-53q-43 121 -92.5 162t-156 41t-135 -23.5 t-28.5 -99.5v-917q0 -55 42 -77t169 -32v-49h-629z" glyph-name="Tcaron" horiz-adv-x="1239" unicode="Ť"/><glyph d="M483 1010q-18 0 -30.5 11t-12.5 30l6 231q4 90 80 90q45 0 66.5 -29.5t3.5 -85.5l-66 -206q-14 -41 -47 -41zM420 -10q-115 0 -180.5 62.5t-65.5 187.5v551q0 39 -11 53t-36 14h-96v47q162 57 252 217q10 18 32 19h21q25 0 24 -25l-2 -139q0 -33 19.5 -43t87.5 -10h153 v-78l-153 8q-68 2 -87.5 -11.5t-19.5 -56.5v-524q0 -98 26 -147t97 -49q57 0 115 36l22 -34q-73 -78 -198 -78z" glyph-name="tcaron" horiz-adv-x="659" unicode="ť"/><glyph d="M1153 1255l35 -260h-53q-43 121 -92.5 162t-156 41t-135 -23.5t-28.5 -99.5v-235h250v-54h-250v-628q0 -55 42 -77t169 -32v-49h-629v49q127 10 168 31.5t41 77.5v628h-248v54h248v235q0 78 -27.5 100.5t-134 22.5t-156 -41t-92.5 -162h-53l33 260q2 20 29 21 q57 -4 131 -4h749q72 0 133 4q25 -1 27 -21z" glyph-name="Tbar" horiz-adv-x="1239" unicode="Ŧ"/><glyph d="M465 854q-68 2 -87.5 -11.5t-19.5 -56.5v-71h217v-62h-217v-391q0 -98 26 -147t97 -49q57 0 115 36l22 -34q-74 -78 -198 -78q-115 0 -180.5 62.5t-65.5 187.5v413h-143v62h143v76q0 39 -11 53t-36 14h-96v47q162 57 252 217q10 18 32 19h21q25 0 24 -25l-2 -139 q0 -33 19.5 -43t87.5 -10h153v-78z" glyph-name="tbar" horiz-adv-x="679" unicode="ŧ"/><glyph d="M442 1548q-35 0 -34 31v29q0 31 34 30h592q35 0 35 -30v-29q0 -31 -35 -31h-592zM690 -20q-231 0 -371.5 136t-140.5 406v592q0 53 -29.5 75.5t-97.5 33.5v49h465v-49q-68 -10 -97.5 -33t-29.5 -76v-557q0 -240 91 -359.5t255 -119.5q160 0 262.5 110.5t102.5 356.5v569 q0 53 -33 75.5t-102 33.5v49h352v-49q-68 -10 -100.5 -33t-32.5 -76v-588q0 -262 -128 -404t-366 -142z" glyph-name="Umacron" horiz-adv-x="1368" unicode="Ū"/><glyph d="M281 1200q-35 0 -35 31v29q0 31 35 30h591q35 0 35 -30v-29q0 -31 -35 -31h-591zM483 -12q-129 0 -214 83t-85 257v397q0 72 -26.5 95.5t-106.5 19.5v47l242 51q76 16 76 -61v-504q0 -123 59 -199t164 -76q109 0 172 77t63 198v352q0 72 -25.5 95.5t-107.5 19.5v47 l242 51q76 16 76 -61v-730q0 -92 102 -71v-29q-39 -59 -143 -59q-63 0 -100 33.5t-46 91.5q-4 27 -20 26q-12 0 -27 -14q-76 -76 -139 -105q-72 -32 -156 -32z" glyph-name="umacron" horiz-adv-x="1165" unicode="ū"/><glyph d="M553 1141q-125 0 -201 70.5t-76 181.5q0 23 17 22h31q16 0 20 -18q12 -53 67.5 -91t141.5 -38t141.5 37.5t67.5 91.5q4 18 20 18h31q16 0 16 -22q0 -111 -75.5 -181.5t-200.5 -70.5zM483 -12q-129 0 -214 83t-85 257v397q0 72 -26.5 95.5t-106.5 19.5v47l242 51 q76 16 76 -61v-504q0 -123 59 -199t164 -76q109 0 172 77t63 198v352q0 72 -25.5 95.5t-107.5 19.5v47l242 51q76 16 76 -61v-730q0 -92 102 -71v-29q-39 -59 -143 -59q-63 0 -100 33.5t-46 91.5q-4 27 -20 26q-12 0 -27 -14q-76 -76 -139 -105q-72 -32 -156 -32z" glyph-name="ubreve" horiz-adv-x="1165" unicode="ŭ"/><glyph d="M711 1470q-80 0 -133.5 54.5t-53.5 130.5t53.5 130t133.5 54q82 0 135 -54t53 -130t-53 -130.5t-135 -54.5zM711 1552q43 0 70.5 29t27.5 74t-28.5 73.5t-69.5 28.5t-69 -28.5t-28 -73.5t28 -74t69 -29zM690 -20q-231 0 -371.5 136t-140.5 406v592q0 53 -29.5 75.5 t-97.5 33.5v49h465v-49q-68 -10 -97.5 -33t-29.5 -76v-557q0 -240 91 -359.5t255 -119.5q160 0 262.5 110.5t102.5 356.5v569q0 53 -33 75.5t-102 33.5v49h352v-49q-68 -10 -100.5 -33t-32.5 -76v-588q0 -262 -128 -404t-366 -142z" glyph-name="Uring" horiz-adv-x="1368" unicode="Ů"/><glyph d="M465 1122q-80 0 -134.5 54.5t-54.5 130t54.5 130t134.5 54.5t134 -54.5t54 -130t-54 -130t-134 -54.5zM465 1204q43 0 70.5 29t27.5 74t-28.5 73.5t-69.5 28.5t-69.5 -28.5t-28.5 -73.5t27.5 -74t70.5 -29zM483 -12q-129 0 -214 83t-85 257v397q0 72 -26.5 95.5 t-106.5 19.5v47l242 51q76 16 76 -61v-504q0 -123 59 -199t164 -76q109 0 172 77t63 198v352q0 72 -25.5 95.5t-107.5 19.5v47l242 51q76 16 76 -61v-730q0 -92 102 -71v-29q-39 -59 -143 -59q-63 0 -100 33.5t-46 91.5q-4 27 -20 26q-12 0 -27 -14q-76 -76 -139 -105 q-72 -32 -156 -32z" glyph-name="uring" horiz-adv-x="1165" unicode="ů"/><glyph d="M481 1440q-14 27 17 57l200 217q80 86 142 21q29 -29 15.5 -71t-69.5 -75l-241 -145q-46 -27 -64 -4zM852 1440q-14 27 16 57l201 217q80 86 141 21q29 -29 15.5 -71t-70.5 -75l-242 -145q-45 -27 -61 -4zM690 -20q-231 0 -371.5 136t-140.5 406v592q0 53 -29.5 75.5 t-97.5 33.5v49h465v-49q-68 -10 -97.5 -33t-29.5 -76v-557q0 -240 91 -359.5t255 -119.5q160 0 262.5 110.5t102.5 356.5v569q0 53 -33 75.5t-102 33.5v49h352v-49q-68 -10 -100.5 -33t-32.5 -76v-588q0 -262 -128 -404t-366 -142z" glyph-name="Uhungarumlaut" horiz-adv-x="1368" unicode="Ű"/><glyph d="M227 1092q-14 27 17 57l200 217q80 86 142 20q29 -29 15.5 -70.5t-69.5 -74.5l-243 -145q-46 -27 -62 -4zM598 1092q-14 27 16 57l199 217q80 86 143 20q29 -29 14.5 -70.5t-69.5 -74.5l-242 -145q-45 -27 -61 -4zM483 -12q-129 0 -214 83t-85 257v397q0 72 -26.5 95.5 t-106.5 19.5v47l242 51q76 16 76 -61v-504q0 -123 59 -199t164 -76q109 0 172 77t63 198v352q0 72 -25.5 95.5t-107.5 19.5v47l242 51q76 16 76 -61v-730q0 -92 102 -71v-29q-39 -59 -143 -59q-63 0 -100 33.5t-46 91.5q-4 27 -20 26q-12 0 -27 -14q-76 -76 -139 -105 q-72 -32 -156 -32z" glyph-name="uhungarumlaut" horiz-adv-x="1165" unicode="ű"/><glyph d="M965 1272h352v-49q-68 -10 -100.5 -33t-32.5 -76v-588q0 -209 -83 -343t-241 -181q-164 -106 -164 -231q0 -49 33 -80t80 -31q113 0 160 111h59q-70 -205 -276 -205q-90 0 -159 46t-69 134q0 76 55.5 136.5t135.5 97.5h-25q-231 0 -371.5 136t-140.5 406v592 q0 53 -29.5 75.5t-97.5 33.5v49h465v-49q-68 -10 -97.5 -33t-29.5 -76v-557q0 -240 91 -359.5t255 -119.5q160 0 262.5 110.5t102.5 356.5v569q0 53 -33 75.5t-102 33.5v49z" glyph-name="Uogonek" horiz-adv-x="1368" unicode="Ų"/><glyph d="M1012 147q0 -92 102 -71v-29q-27 -41 -100 -55q-258 -66 -258 -195q0 -57 29.5 -85.5t78.5 -28.5q88 0 137 116h62q-10 -31 -28.5 -61.5t-49.5 -67.5t-82 -59.5t-112 -22.5q-84 0 -145.5 43t-61.5 136q0 94 84 156.5t215 88.5q-47 29 -58 101q-4 27 -20 26q-12 0 -27 -14 q-76 -76 -139 -105q-72 -33 -156 -32q-129 0 -214 83t-85 257v397q0 72 -26.5 95.5t-106.5 19.5v47l242 51q76 16 76 -61v-504q0 -123 59 -199t164 -76q109 0 172 77t63 198v352q0 72 -25.5 95.5t-107.5 19.5v47l242 51q76 16 76 -61v-730z" glyph-name="uogonek" horiz-adv-x="1165" unicode="ų"/><glyph d="M1042 1776l261 -295l-27 -33l-234 164l-231 -164l-29 33zM633 0l-400 1012q-47 119 -81.5 158.5t-110.5 52.5v49h471v-49q-88 -12 -104.5 -47t14.5 -97l303 -780q20 -49 41 0l182 477q49 127 -2 250q-45 109 -78.5 146.5t-107.5 50.5v49h471v-49q-88 -12 -104.5 -47 t14.5 -97l301 -780q20 -49 41 0l295 770q27 68 -6 104.5t-125 49.5v49h403v-49q-76 -16 -117 -50t-69 -110l-346 -895q-45 -117 -45 -168h-121l-314 791l-239 -623q-43 -113 -43 -168h-123z" glyph-name="Wcircumflex" horiz-adv-x="2091" unicode="Ŵ"/><glyph d="M690 1427l260 -294l-28 -33l-232 164l-233 -164l-29 33zM449 0l-265 690q-37 92 -67.5 127t-96.5 60v47h422v-47q-82 -25 -93 -59t28 -128l162 -426q39 -102 73 0l64 180q57 162 10 285q-23 59 -53.5 92t-91.5 56v47h422v-47q-82 -25 -93.5 -59t27.5 -128l162 -426 q39 -102 74 0l75 215q59 172 70.5 250t-10 103.5t-88.5 44.5v47h372v-47q-88 -25 -125.5 -60t-74.5 -127l-265 -690h-118l-201 524l-201 -524h-118z" glyph-name="wcircumflex" horiz-adv-x="1572" unicode="ŵ"/><glyph d="M664 1776l260 -295l-27 -33l-233 164l-234 -164l-27 33zM387 0v49q98 10 134 31.5t36 77.5v329q0 55 -43 125l-264 414q-63 100 -109.5 141t-109.5 56v49h481v-49q-78 -14 -91 -47t32 -103l256 -403q14 -23 28 0l246 397q86 137 -80 156v49h387v-49q-72 -8 -119 -45 t-104 -129l-270 -428q-31 -49 -31 -134v-329q0 -55 36 -77t134 -32v-49h-549z" glyph-name="Ycircumflex" horiz-adv-x="1320" unicode="Ŷ"/><glyph d="M547 1427l260 -294l-27 -33l-233 164l-232 -164l-28 33zM256 -406q-80 0 -128 37t-48 97q0 45 29.5 74.5t76.5 29.5q43 0 63.5 -25.5t22.5 -55.5t14.5 -55.5t41.5 -25.5q61 0 116 140q47 121 -12 260l-248 620q-39 94 -68.5 128t-95.5 59v47h426v-47q-82 -25 -94 -59 t29 -128l176 -436q39 -90 76 2l86 223q66 166 78 247t-10.5 106.5t-92.5 44.5v47h371v-47q-90 -25 -127 -60t-72 -127l-338 -837q-53 -135 -110.5 -197t-161.5 -62z" glyph-name="ycircumflex" horiz-adv-x="1085" unicode="ŷ"/><glyph d="M467 1491q-45 0 -79 34t-34 81q0 45 34 78.5t79 33.5t79 -33.5t34 -78.5q0 -47 -33 -81t-80 -34zM860 1491q-47 0 -79.5 34t-32.5 81q0 45 33.5 78.5t78.5 33.5t79 -33.5t34 -78.5q0 -47 -34 -81t-79 -34zM387 0v49q98 10 134 31.5t36 77.5v329q0 55 -43 125l-264 414 q-63 100 -109.5 141t-109.5 56v49h481v-49q-78 -14 -91 -47t32 -103l256 -403q14 -23 28 0l246 397q86 137 -80 156v49h387v-49q-72 -8 -119 -45t-104 -129l-270 -428q-31 -49 -31 -134v-329q0 -55 36 -77t134 -32v-49h-549z" glyph-name="Ydieresis" horiz-adv-x="1320" unicode="Ÿ"/><glyph d="M541 1440q-14 27 16 57l201 217q80 86 141 21q29 -29 15.5 -71t-68.5 -75l-244 -145q-45 -27 -61 -4zM31 0l796 1178q20 35 -18 34l-360 -2q-139 0 -201 -49t-107 -155h-51l47 266h993l-798 -1178q-10 -14 -4 -24.5t22 -10.5l420 4q129 2 190.5 48.5t116.5 154.5h53 l-59 -266h-1040z" glyph-name="Zacute" horiz-adv-x="1181" unicode="Ź"/><glyph d="M395 1092q-14 27 17 57l200 217q80 86 142 20q29 -29 15.5 -70.5t-69.5 -74.5l-243 -145q-46 -27 -62 -4zM31 0l565 817q10 16 5 27.5t-23 11.5h-263q-74 0 -115.5 -41t-68.5 -123h-47l37 232h762l-566 -818q-10 -16 -5 -27t24 -11h282q74 0 116 41t69 122h47l-37 -231 h-782z" glyph-name="zacute" horiz-adv-x="913" unicode="ź"/><glyph d="M602 1491q-47 0 -80 34t-33 81q0 45 34 78.5t79 33.5t79 -33.5t34 -78.5q0 -47 -33 -81t-80 -34zM31 0l796 1178q20 35 -18 34l-360 -2q-139 0 -201 -49t-107 -155h-51l47 266h993l-798 -1178q-10 -14 -4 -24.5t22 -10.5l420 4q129 2 190.5 48.5t116.5 154.5h53l-59 -266 h-1040z" glyph-name="Zdotaccent" horiz-adv-x="1181" unicode="Ż"/><glyph d="M457 1143q-47 0 -80 33.5t-33 80.5q0 45 33 79t80 34t79.5 -33.5t32.5 -79.5q0 -47 -32.5 -80.5t-79.5 -33.5zM31 0l565 817q10 16 5 27.5t-23 11.5h-263q-74 0 -115.5 -41t-68.5 -123h-47l37 232h762l-566 -818q-10 -16 -5 -27t24 -11h282q74 0 116 41t69 122h47 l-37 -231h-782z" glyph-name="zdotaccent" horiz-adv-x="913" unicode="ż"/><glyph d="M602 1432l-260 294l29 33l231 -164l234 164l26 -33zM31 0l796 1178q20 35 -18 34l-360 -2q-139 0 -201 -49t-107 -155h-51l47 266h993l-798 -1178q-10 -14 -4 -24.5t22 -10.5l420 4q129 2 190.5 48.5t116.5 154.5h53l-59 -266h-1040z" glyph-name="Zcaron" horiz-adv-x="1181" unicode="Ž"/><glyph d="M457 1083l-260 295l28 33l232 -164l233 164l27 -33zM31 0l565 817q10 16 5 27.5t-23 11.5h-263q-74 0 -115.5 -41t-68.5 -123h-47l37 232h762l-566 -818q-10 -16 -5 -27t24 -11h282q74 0 116 41t69 122h47l-37 -231h-782z" glyph-name="zcaron" horiz-adv-x="913" unicode="ž"/><glyph d="M90 -440q-123 0 -198.5 56t-75.5 130q0 45 28.5 67.5t67.5 22.5q47 0 69.5 -34.5t27.5 -75.5t32 -76t80 -35q82 0 110.5 68.5t28.5 210.5v921q0 45 -47 45h-86v45q70 6 101.5 21.5t31.5 50.5v22q0 180 100.5 278.5t253.5 98.5q123 0 200 -56t77 -132q0 -45 -28.5 -66.5 t-67.5 -21.5q-47 0 -70 34.5t-28 75.5t-32.5 76t-80.5 35q-82 0 -111 -68.5t-29 -210.5v-65q0 -53 45 -53h218v-64h-218q-45 0 -45 -45v-878q0 -182 -99 -279.5t-255 -97.5z" glyph-name="florin" horiz-adv-x="870" unicode="ƒ"/><glyph d="M526 -20q-217 0 -403 112q-43 109 -40 209t54 100q25 0 35 -30q51 -152 164 -238t258 -84q115 2 180.5 57.5t65.5 159.5q0 59 -22.5 103.5t-71 74t-92.5 47t-119 41.5q-27 8 -39 13q-188 63 -294 159.5t-106 245.5q0 158 126 256.5t337 98.5q221 0 381 -97 q43 -106 40 -207.5t-54 -101.5q-25 0 -35 31q-49 150 -152.5 228.5t-230.5 78.5q-115 0 -170 -63.5t-55 -153.5q0 -104 73.5 -161.5t221.5 -106.5q61 -20 88.5 -29.5t87 -34t90 -44t75 -53.5t66 -69t38.5 -83t17 -103q0 -123 -78.5 -207t-190.5 -116.5t-245 -32.5zM537 -602 l-29 33q78 72 78 133q0 35 -33 35q-47 0 -79 31.5t-32 80.5q0 53 35 86t86 33q63 0 97 -45t34 -115q0 -80 -43.5 -153.5t-113.5 -118.5z" glyph-name="Scommaaccent" horiz-adv-x="1110" unicode="Ș"/><glyph d="M428 -12q-152 0 -259.5 60.5t-107.5 172.5q0 49 24 76t65 27q37 0 59 -24t22 -52q0 -100 70 -152.5t164 -52.5q86 0 132 41t46 109q0 35 -15.5 63.5t-32.5 47t-57 35.5t-63.5 25.5t-75.5 24.5q-137 41 -224 107.5t-87 183.5q0 119 101.5 190.5t261.5 71.5 q141 0 242.5 -56.5t101.5 -152.5q0 -94 -90 -94q-76 0 -76 72q0 78 -58.5 127t-148.5 49q-158 0 -158 -139q0 -78 50.5 -117t158.5 -74q188 -59 254 -108q98 -72 98 -183q0 -127 -113.5 -202.5t-283.5 -75.5zM414 -602l-31 33q35 31 57.5 69.5t22.5 63.5q0 35 -33 35 q-49 0 -81 31.5t-32 80.5q0 53 35 86t88 33q63 0 97 -46t34 -114q0 -80 -43.5 -153.5t-113.5 -118.5z" glyph-name="scommaaccent" horiz-adv-x="886" unicode="ș"/><glyph d="M305 0v49q127 10 168 31.5t41 77.5v917q0 78 -27.5 100.5t-134 22.5t-156 -41t-92.5 -162h-53l33 260q2 20 29 21q57 -4 131 -4h749q72 0 133 4q25 0 27 -21l35 -260h-53q-43 121 -92.5 162t-156 41t-135 -23.5t-28.5 -99.5v-917q0 -55 42 -77t169 -32v-49h-629z M596 -602l-29 33q78 72 78 133q0 35 -33 35q-47 0 -78.5 31.5t-31.5 80.5q0 53 34.5 86t88.5 33q63 0 96 -45t33 -115q0 -80 -44 -153.5t-114 -118.5z" glyph-name="uni021A" horiz-adv-x="1239" unicode="Ț"/><glyph d="M420 -10q-115 0 -180.5 62.5t-65.5 187.5v551q0 39 -11 53t-36 14h-96v47q162 57 252 217q10 18 32 19h21q25 0 24 -25l-2 -139q0 -33 19.5 -43t87.5 -10h153v-78l-153 8q-68 2 -87.5 -11.5t-19.5 -56.5v-524q0 -98 26 -147t97 -49q57 0 115 36l22 -34q-73 -78 -198 -78z M354 -602l-30 33q35 31 57 69.5t22 63.5q0 35 -32 35q-49 0 -81 31.5t-32 80.5q0 53 35 86t88 33q63 0 97 -46t34 -114q0 -80 -44 -153.5t-114 -118.5z" glyph-name="uni021B" horiz-adv-x="679" unicode="ț"/><glyph d="M82 -410q-84 0 -145.5 35t-61.5 101q0 39 23.5 63.5t64.5 24.5q35 0 60.5 -26t37 -56.5t30 -56t38.5 -25.5q23 0 36 30.5t13 75.5v969q0 72 -26.5 97.5t-106.5 17.5v47l240 51q78 16 77 -61v-996q0 -137 -77.5 -214t-202.5 -77z" glyph-name="uni0237" horiz-adv-x="495" unicode="ȷ"/><glyph d="M291 1427l260 -294l-27 -33l-233 164l-232 -164l-28 33z" glyph-name="circumflex" horiz-adv-x="581" unicode="ˆ"/><glyph d="M291 1083l-260 295l28 33l232 -164l233 164l27 -33z" glyph-name="caron" horiz-adv-x="581" unicode="ˇ"/><glyph d="M379 1141q-125 0 -201 70.5t-76 181.5q0 23 17 22h31q18 0 20 -18q12 -53 67.5 -91t141.5 -38t140 37.5t69 91.5q2 18 20 18h29q16 0 16 -22q0 -111 -74.5 -181.5t-199.5 -70.5z" glyph-name="breve" horiz-adv-x="755" unicode="˘"/><glyph d="M215 1143q-47 0 -80 33.5t-33 80.5q0 45 33 79t80 34t80 -33.5t33 -79.5q0 -47 -33 -80.5t-80 -33.5z" glyph-name="dotaccent" horiz-adv-x="430" unicode="˙"/><glyph d="M291 1122q-82 0 -135.5 54.5t-53.5 130t53.5 130t135.5 54.5q80 0 133 -54.5t53 -130t-53 -130t-133 -54.5zM291 1204q41 0 68.5 29t27.5 74t-27.5 73.5t-68.5 28.5t-69.5 -28.5t-28.5 -73.5t27.5 -74t70.5 -29z" glyph-name="ring" horiz-adv-x="579" unicode="˚"/><glyph d="M301 -399q-90 0 -158.5 46t-68.5 134q0 90 75.5 156.5t169.5 99.5h91q-164 -106 -164 -232q0 -49 32.5 -79.5t79.5 -30.5q113 0 160 110h60q-70 -204 -277 -204z" glyph-name="ogonek" horiz-adv-x="659" unicode="˛"/><glyph d="M629 1118q-88 0 -217 66.5t-170 66.5q-37 0 -62.5 -24.5t-25.5 -69.5h-52q0 104 57.5 162.5t147.5 58.5q88 0 217 -65.5t170 -65.5q37 0 63.5 24.5t26.5 69.5h50q0 -106 -57.5 -164.5t-147.5 -58.5z" glyph-name="tilde" horiz-adv-x="935" unicode="˜"/><glyph d="M98 1092q-14 27 17 57l200 217q82 88 142 20q29 -29 15.5 -70.5t-69.5 -74.5l-241 -145q-46 -27 -64 -4zM469 1092q-14 27 16 57l201 217q80 86 141 20q29 -29 15.5 -70.5t-68.5 -74.5l-244 -145q-45 -27 -61 -4z" glyph-name="hungarumlaut" horiz-adv-x="968" unicode="˝"/><glyph d="M-479 1092q-14 27 16 57l201 217q80 86 141 20q29 -29 15.5 -70.5t-68.5 -74.5l-244 -145q-45 -27 -61 -4z" glyph-name="acutecomb" horiz-adv-x="0" unicode="́"/><glyph d="M-260 -602l-31 33q35 31 57.5 69.5t22.5 63.5q0 35 -33 35q-49 0 -80.5 31.5t-31.5 80.5q0 53 34.5 86t88.5 33q63 0 97 -46t34 -114q0 -80 -44 -153.5t-114 -118.5z" glyph-name="uni0326" horiz-adv-x="0" unicode="̦"/><glyph d="M41 0l580 1298l581 -1298h-1161zM199 160h733l-361 839z" glyph-name="Delta" horiz-adv-x="1243" unicode="Δ"/><glyph d="M1274 242h74l-52 -195q-12 -47 -61 -47h-371v260q113 10 178.5 132t65.5 331q0 225 -107.5 355t-285.5 130t-285.5 -130t-107.5 -355q0 -209 65.5 -331t179.5 -132v-260h-372q-49 0 -62 47l-51 195h74l34 -56q43 -72 142 -77l131 -7q18 -2 24.5 10.5t4.5 47.5 q-168 47 -281 199.5t-113 342.5q0 238 178.5 420.5t438.5 182.5t438 -182.5t178 -420.5q0 -180 -114.5 -337.5t-278.5 -204.5q-4 -35 2 -47.5t27 -10.5l112 7q66 4 100.5 20t59.5 57z" glyph-name="Omega" horiz-adv-x="1429" unicode="Ω"/><glyph d="M1012 147q0 -92 102 -71v-29q-39 -59 -143 -59q-63 0 -100 33.5t-46 91.5q-4 27 -20 26q-12 0 -27 -14q-76 -76 -139 -105q-72 -33 -156 -32q-125 0 -204 73q4 -90 25.5 -154.5t43 -91t36.5 -49t13 -38.5q-12 -90 -84 -127q-70 -33 -106 18q-23 31 -23 84v1022 q0 72 -26.5 95.5t-106.5 19.5v47l242 51q76 16 76 -61v-504q0 -123 59 -199t164 -76q109 0 172 77t63 198v352q0 72 -25.5 95.5t-107.5 19.5v47l242 51q76 16 76 -61v-730z" glyph-name="mu" horiz-adv-x="1165" unicode="μ"/><glyph d="M1266 209q29 -14 39 -51t-2 -74q-23 -70 -109 -95.5t-186 15.5q-154 66 -154 262v518h-268v-546q0 -115 -68.5 -182.5t-152.5 -67.5q-86 0 -144 20l-26 76q82 -18 146.5 29t64.5 141v530h-109q-55 0 -79.5 -44t-6.5 -122l-74 29q-25 68 -24 119q0 70 47 114t123 44h956 v-140h-149q-31 0 -44.5 -14t-13.5 -49v-541q0 -82 49 -102q16 -6 30.5 14.5t28 56t17.5 41.5q14 20 43 27.5t66 -8.5z" glyph-name="pi" horiz-adv-x="1421" unicode="π"/><glyph d="M688 1440q-16 -23 -61 4l-242 145q-55 33 -69.5 75t14.5 71q63 66 143 -21l199 -217q32 -32 16 -57zM61 0v49q70 12 98.5 33.5t28.5 75.5v956q0 53 -29.5 75.5t-97.5 33.5v49h947q29 0 30 -25q14 -123 41 -231h-43q-39 96 -100.5 143t-159.5 47h-250q-66 0 -96.5 -22.5 t-30.5 -77.5v-330q0 -55 31 -76.5t96 -21.5h185q94 0 127.5 33.5t48.5 113.5h33v-360h-33q-14 80 -49 114.5t-127 34.5h-185q-66 0 -96.5 -21.5t-30.5 -76.5v-350q0 -57 39 -80t142 -20l231 2q100 2 148.5 29.5t78.5 80.5l49 76h43q-45 -88 -61 -225q-4 -29 -33 -29h-975z " glyph-name="uni0400" horiz-adv-x="1171" unicode="Ѐ"/><glyph d="M395 1491q-47 0 -79.5 34t-32.5 81q0 45 32.5 78.5t79.5 33.5t80 -33.5t33 -78.5q0 -47 -33 -81t-80 -34zM788 1491q-47 0 -79.5 34t-32.5 81q0 45 32.5 78.5t79.5 33.5q45 0 79 -33.5t34 -78.5q0 -47 -34 -81t-79 -34zM61 0v49q70 12 98.5 33.5t28.5 75.5v956 q0 53 -29.5 75.5t-97.5 33.5v49h947q29 0 30 -25q14 -123 41 -231h-43q-39 96 -100.5 143t-159.5 47h-250q-66 0 -96.5 -22.5t-30.5 -77.5v-330q0 -55 31 -76.5t96 -21.5h185q94 0 127.5 33.5t48.5 113.5h33v-360h-33q-14 80 -49 114.5t-127 34.5h-185q-66 0 -96.5 -21.5 t-30.5 -76.5v-350q0 -57 39 -80t142 -20l231 2q100 2 148.5 29.5t78.5 80.5l49 76h43q-45 -88 -61 -225q-4 -29 -33 -29h-975z" glyph-name="afii10023" horiz-adv-x="1171" unicode="Ё"/><glyph d="M471 1440q-14 27 16 57l201 217q80 86 141 21q29 -29 15.5 -71t-68.5 -75l-244 -145q-45 -27 -61 -4zM61 0v49q70 12 98.5 33.5t28.5 75.5v956q0 53 -28.5 74.5t-98.5 34.5v49h928l64 -242h-52q-55 109 -93 143.5t-105 34.5h-277q-68 0 -97.5 -19.5t-29.5 -74.5v-956 q0 -55 32 -76t116 -33v-49h-486z" glyph-name="afii10052" horiz-adv-x="1103" unicode="Ѓ"/><glyph d="M1214 287l33 -27q-55 -100 -188 -190t-330 -90q-272 0 -470 180t-198 481q0 303 201 483.5t483 180.5q217 0 353.5 -103.5t136.5 -226.5q0 -59 -34 -97t-93 -38q-113 0 -123 133q-6 106 -83 185t-224 79q-176 0 -284.5 -124t-117.5 -337l5 4q0 -115 71 -114h443v-74h-428 q-78 0 -45 -103l-3 3q63 -176 208 -276.5t325 -100.5q208 0 362 172z" glyph-name="afii10053" horiz-adv-x="1318" unicode="Є"/><glyph d="M526 -20q-217 0 -403 112q-43 109 -40 209t54 100q25 0 35 -30q51 -152 164 -238t258 -84q115 2 180.5 57.5t65.5 159.5q0 59 -22.5 103.5t-71 74t-92.5 47t-119 41.5q-27 8 -39 13q-188 63 -294 159.5t-106 245.5q0 158 126 256.5t337 98.5q221 0 381 -97 q43 -106 40 -207.5t-54 -101.5q-25 0 -35 31q-49 150 -152.5 228.5t-230.5 78.5q-115 0 -170 -63.5t-55 -153.5q0 -104 73.5 -161.5t221.5 -106.5q61 -20 88.5 -29.5t87 -34t90 -44t75 -53.5t66 -69t38.5 -83t17 -103q0 -123 -78.5 -207t-190.5 -116.5t-245 -32.5z" glyph-name="afii10054" horiz-adv-x="1112" unicode="Ѕ"/><glyph d="M61 0v49q70 12 98.5 33.5t28.5 75.5v956q0 53 -29.5 75.5t-97.5 33.5v49h465v-49q-68 -10 -97.5 -33t-29.5 -76v-956q0 -53 29 -75t98 -34v-49h-465z" glyph-name="afii10055" horiz-adv-x="587" unicode="І"/><glyph d="M96 1491q-47 0 -79.5 34t-32.5 81q0 45 32.5 78.5t79.5 33.5t80 -33.5t33 -78.5q0 -47 -33 -81t-80 -34zM489 1491q-47 0 -79.5 34t-32.5 81q0 45 32.5 78.5t79.5 33.5q45 0 79 -33.5t34 -78.5q0 -47 -34 -81t-79 -34zM61 0v49q70 12 98.5 33.5t28.5 75.5v956 q0 53 -29.5 75.5t-97.5 33.5v49h465v-49q-68 -10 -97.5 -33t-29.5 -76v-956q0 -53 29 -75t98 -34v-49h-465z" glyph-name="afii10056" horiz-adv-x="587" unicode="Ї"/><glyph d="M254 -20q-137 0 -216 57t-79 143q0 51 28.5 84t78.5 33q98 0 98 -121q0 -57 26.5 -99t79.5 -42q98 0 99 151v928q0 55 -33 76.5t-117 32.5v49h486v-49q-68 -10 -97.5 -33t-29.5 -76v-815q0 -166 -87 -242.5t-237 -76.5z" glyph-name="afii10057" horiz-adv-x="765" unicode="Ј"/><glyph d="M494 1589q-55 33 -69.5 75t13.5 71q63 66 144 -21l198 -217q33 -33 17 -57q-16 -23 -62 4zM1337 1223q-68 -10 -97.5 -33t-29.5 -76v-956q0 -53 29 -75t98 -34v-49h-465v49q70 12 98.5 33.5t28.5 75.5v784l-600 -704v-80q0 -53 29 -75t98 -34v-49h-465v49 q70 12 98.5 33.5t28.5 75.5v956q0 53 -29.5 75.5t-97.5 33.5v49h465v-49q-68 -10 -97.5 -33t-29.5 -76v-782l600 706v76q0 53 -29.5 75.5t-97.5 33.5v49h465v-49z" glyph-name="uni040D" horiz-adv-x="1398" unicode="Ѝ"/><glyph d="M704.5 1489q-124.5 0 -200.5 70.5t-76 181.5q0 23 16 22h31q16 0 21 -18q12 -53 67 -91t141.5 -38t140.5 38t68 91q4 18 21 18h29q16 0 16 -22q0 -111 -75 -181.5t-199.5 -70.5zM924 1272h379v-49q-66 -8 -101 -41t-67 -99l-377 -747q-104 -205 -187.5 -286t-199.5 -81 q-92 0 -151.5 42t-59.5 110q0 47 29.5 76.5t78.5 29.5q41 0 62.5 -24.5t25.5 -55t20.5 -55t49.5 -24.5q92 0 205 194l-412 770q-45 84 -60.5 109.5t-47 50.5t-80.5 31v49h471v-49q-141 -10 -68 -154l309 -584l297 598q29 59 -6 97.5t-110 42.5v49z" glyph-name="afii10062" horiz-adv-x="1333" unicode="Ў"/><glyph d="M41 0v49q74 14 114 49t74 111l385 895q43 98 43 168l127 12l449 -1024q51 -121 85 -160t107 -51v-49h-481v49q88 14 104.5 48t-16.5 96l-51 118q-35 68 -119 68h-381q-92 0 -116 -62l-52 -114q-55 -129 133 -154v-49h-405zM471 449h397q20 0 31.5 14t1.5 37l-211 485 q-20 49 -41 -2l-207 -481q-10 -25 -0.5 -39t29.5 -14z" glyph-name="afii10017" horiz-adv-x="1466" unicode="А"/><glyph d="M631 795q256 0 395 -107.5t139 -298.5q0 -188 -138 -288.5t-396 -100.5h-570v49q70 12 98.5 33.5t28.5 75.5v956q0 53 -28.5 74.5t-98.5 34.5v49h928l64 -242h-52q-55 109 -93 143.5t-105 34.5h-277q-68 0 -97.5 -19.5t-29.5 -74.5v-211q0 -57 26 -82.5t87 -25.5h119z M631 74q317 0 317 319q0 328 -317 328h-119q-61 0 -87 -25.5t-26 -83.5v-450q0 -49 20.5 -68.5t61.5 -19.5h150z" glyph-name="afii10018" horiz-adv-x="1247" unicode="Б"/><glyph d="M61 0v49q70 12 98.5 33.5t28.5 75.5v958q0 53 -29.5 74.5t-97.5 32.5v49h601q229 0 354 -75t125 -220q0 -227 -299 -293q373 -57 372 -334q0 -156 -119.5 -253t-314.5 -97q-31 0 -181 8t-295 8t-243 -16zM526 719h136q264 0 264 250q0 240 -264 239h-136 q-68 0 -97.5 -19.5t-29.5 -72.5v-303q0 -53 30.5 -73.5t96.5 -20.5zM475 70h227q297 0 297 274q0 160 -108.5 236.5t-366.5 76.5q-66 0 -95.5 -20.5t-29.5 -73.5v-405q0 -88 76 -88z" glyph-name="afii10019" horiz-adv-x="1296" unicode="В"/><glyph d="M61 0v49q70 12 98.5 33.5t28.5 75.5v956q0 53 -28.5 74.5t-98.5 34.5v49h928l64 -242h-52q-55 109 -93 143.5t-105 34.5h-277q-68 0 -97.5 -19.5t-29.5 -74.5v-956q0 -55 32 -76t116 -33v-49h-486z" glyph-name="afii10020" horiz-adv-x="1103" unicode="Г"/><glyph d="M51 -236v287q0 20 21 23q170 25 234.5 293t64.5 745q0 59 -35 83t-127 28v49h1153v-49q-82 -4 -122 -29t-40 -82v-952q0 -47 33 -66.5t113 -19.5q27 0 24 -27l-49 -283h-49q0 68 -9.5 106t-29 67.5t-69.5 41t-115.5 16.5t-182.5 5h-331q-264 0 -349.5 -48t-85.5 -188h-49 zM209 74h663q119 0 119 88v950q0 55 -28.5 75.5t-90.5 20.5h-313q-61 0 -90 -20.5t-29 -75.5q0 -927 -231 -1038z" glyph-name="afii10021" horiz-adv-x="1431" unicode="Д"/><glyph d="M61 0v49q70 12 98.5 33.5t28.5 75.5v956q0 53 -29.5 75.5t-97.5 33.5v49h947q29 0 30 -25q14 -123 41 -231h-43q-39 96 -100.5 143t-159.5 47h-250q-66 0 -96.5 -22.5t-30.5 -77.5v-330q0 -55 31 -76.5t96 -21.5h185q94 0 127.5 33.5t48.5 113.5h33v-360h-33 q-14 80 -49 114.5t-127 34.5h-185q-66 0 -96.5 -21.5t-30.5 -76.5v-350q0 -57 39 -80t142 -20l231 2q100 2 148.5 29.5t78.5 80.5l49 76h43q-45 -88 -61 -225q-4 -29 -33 -29h-975z" glyph-name="afii10022" horiz-adv-x="1171" unicode="Е"/><glyph d="M1737 223q51 -68 100 -105.5t78 -48t76 -20.5v-49h-498v49q57 6 73.5 30.5t-24.5 86.5l-272 344q-74 96 -142 96h-8v-448q0 -53 29 -75t98 -34v-49h-465v49q70 12 99.5 33.5t29.5 75.5v448h-8q-70 0 -143 -96l-271 -344q-41 -61 -24.5 -86t74.5 -31v-49h-498v49 q47 10 75.5 20.5t78 48.5t100.5 105l332 428q29 39 33 61.5t-21 65.5l-277 342q-20 31 -43.5 26t-38 -22.5t-45 -38t-63.5 -20.5q-43 0 -76 31.5t-33 77.5q0 49 37 80.5t103 31.5q35 0 62.5 -7t55 -30.5t38 -33t42 -50.5t37.5 -49l277 -340q84 -100 188 -100h8v438 q0 53 -29.5 75.5t-99.5 33.5v49h465v-49q-68 -10 -97.5 -33t-29.5 -76v-438h8q106 0 187 100l276 340q10 12 33 42t33 42t31.5 32.5t39 30t43 16.5t56.5 7q68 0 103.5 -31.5t35.5 -80.5q0 -45 -31.5 -77t-74.5 -32q-33 0 -64 20.5t-45 38t-37.5 22.5t-44.5 -26l-276 -342 q-25 -43 -21 -65.5t33 -61.5z" glyph-name="afii10024" horiz-adv-x="2041" unicode="Ж"/><glyph d="M549 -25q-201 0 -339 100.5t-138 258.5q0 131 108 131q39 0 58.5 -17.5t23.5 -41t14.5 -72.5t24.5 -90q80 -207 262 -207q133 0 217 106.5t84 257.5q0 131 -67.5 201t-169.5 70q-68 0 -162 -39l-23 57q197 66 279 127.5t82 186.5q0 102 -53.5 164.5t-169.5 62.5 q-125 0 -228.5 -78t-152.5 -223q-10 -31 -37 -31q-49 0 -52.5 101.5t40.5 207.5q160 96 387 97q207 0 329.5 -85t122.5 -212q0 -186 -274 -269q119 12 237.5 -78t118.5 -258q0 -186 -150.5 -307t-371.5 -121z" glyph-name="afii10025" horiz-adv-x="1153" unicode="З"/><glyph d="M1337 1223q-68 -10 -97.5 -33t-29.5 -76v-956q0 -53 29 -75t98 -34v-49h-465v49q70 12 98.5 33.5t28.5 75.5v784l-600 -704v-80q0 -53 29 -75t98 -34v-49h-465v49q70 12 98.5 33.5t28.5 75.5v956q0 53 -29.5 75.5t-97.5 33.5v49h465v-49q-68 -10 -97.5 -33t-29.5 -76 v-782l600 706v76q0 53 -29.5 75.5t-97.5 33.5v49h465v-49z" glyph-name="afii10026" horiz-adv-x="1398" unicode="И"/><glyph d="M700 1489q-125 0 -200.5 70.5t-75.5 181.5q0 23 16 22h31q16 0 21 -18q12 -53 67 -91t141 -38t140.5 38t68.5 91q4 18 21 18h28q16 0 17 -22q0 -111 -75 -181.5t-200 -70.5zM1337 1223q-68 -10 -97.5 -33t-29.5 -76v-956q0 -53 29 -75t98 -34v-49h-465v49 q70 12 98.5 33.5t28.5 75.5v784l-600 -704v-80q0 -53 29 -75t98 -34v-49h-465v49q70 12 98.5 33.5t28.5 75.5v956q0 53 -29.5 75.5t-97.5 33.5v49h465v-49q-68 -10 -97.5 -33t-29.5 -76v-782l600 706v76q0 53 -29.5 75.5t-97.5 33.5v49h465v-49z" glyph-name="afii10027" horiz-adv-x="1398" unicode="Й"/><glyph d="M1016 223q51 -68 100 -105.5t78 -48t74 -20.5v-49h-496v49q57 6 73.5 30.5t-24.5 86.5l-272 344q-74 96 -141 96h-9v-448q0 -53 29 -75t98 -34v-49h-465v49q70 12 98.5 33.5t28.5 75.5v956q0 53 -29.5 75.5t-97.5 33.5v49h465v-49q-68 -10 -97.5 -33t-29.5 -76v-438h9 q102 0 186 100l276 340q10 12 33 42t33 42t31.5 32.5t39 30t43 16.5t56.5 7q66 0 102.5 -31.5t36.5 -80.5q0 -45 -31.5 -77t-76.5 -32q-33 0 -63 20.5t-44 38t-38.5 22.5t-45.5 -26l-276 -342q-41 -55 14 -127z" glyph-name="afii10028" horiz-adv-x="1318" unicode="К"/><glyph d="M225 -23q-86 0 -140 38t-54 108q0 47 26.5 75.5t75.5 28.5q43 0 59.5 -26.5t12.5 -59t8 -59.5t51 -27q82 0 109.5 96.5t27.5 272.5v690q0 53 -35.5 74.5t-123.5 34.5v49h1165v-49q-70 -12 -98.5 -34t-28.5 -75v-956q0 -53 28.5 -75t98.5 -34v-49h-465v49q70 12 99.5 33.5 t29.5 75.5v956q0 53 -29.5 68.5t-99.5 15.5h-338q-61 0 -89 -15.5t-28 -68.5v-645v-25q0 -63 -1 -99t-7 -100.5t-23.5 -103.5t-45 -81t-75 -62.5t-110.5 -20.5z" glyph-name="afii10029" horiz-adv-x="1468" unicode="Л"/><glyph d="M61 0v49q70 12 102 33.5t32 75.5v956q0 53 -32 75.5t-102 33.5v49h347l438 -912l418 912h340v-49q-70 -10 -99.5 -33t-29.5 -76v-956q0 -53 29.5 -75t99.5 -34v-49h-467v49q70 12 99.5 33.5t29.5 75.5v940l-451 -979h-67l-478 983v-944q0 -53 31 -75t100 -34v-49h-340z " glyph-name="afii10030" horiz-adv-x="1665" unicode="М"/><glyph d="M1366 1223q-68 -10 -97.5 -33t-29.5 -76v-956q0 -53 28.5 -75t98.5 -34v-49h-465v49q70 12 99.5 33.5t29.5 75.5v372q0 70 -76 70h-481q-74 0 -74 -70v-372q0 -53 29 -75t98 -34v-49h-465v49q70 12 98.5 33.5t28.5 75.5v956q0 53 -29.5 75.5t-97.5 33.5v49h465v-49 q-68 -10 -97.5 -33t-29.5 -76v-383q0 -70 76 -69h477q78 0 78 69v383q0 53 -30.5 75.5t-98.5 33.5v49h465v-49z" glyph-name="afii10031" horiz-adv-x="1427" unicode="Н"/><glyph d="M711 -20q-276 0 -463 183t-187 468q0 291 195 482.5t477 191.5q276 0 462.5 -182.5t186.5 -467.5q0 -293 -194 -484t-477 -191zM764 53q160 0 273.5 127t113.5 393q0 287 -137 472.5t-334 185.5q-160 0 -273.5 -127t-113.5 -389q0 -289 137 -475.5t334 -186.5z" glyph-name="afii10032" unicode="О"/><glyph d="M1337 1223q-70 -10 -99.5 -33t-29.5 -76v-956q0 -53 30 -75t99 -34v-49h-467v49q70 12 99.5 33.5t29.5 75.5v956q0 47 -24 72q-18 12 -51 12h-451q-31 0 -49 -12q-25 -25 -25 -72v-956q0 -53 29 -75t98 -34v-49h-465v49q70 12 98.5 33.5t28.5 75.5v956q0 53 -29.5 75.5 t-97.5 33.5v49h1276v-49z" glyph-name="afii10033" horiz-adv-x="1398" unicode="П"/><glyph d="M61 0v49q70 12 98.5 33.5t28.5 75.5v956q0 53 -29.5 75.5t-97.5 33.5v49h570q258 0 396 -100.5t138 -289t-139 -294t-395 -105.5h-119q-61 0 -87 -26.5t-26 -87.5v-211q0 -55 32 -76t116 -33v-49h-486zM512 547h119q317 0 317 332q0 328 -317 327h-129q-55 0 -79 -20.5 t-24 -75.5v-451q0 -59 26 -85.5t87 -26.5z" glyph-name="afii10034" horiz-adv-x="1216" unicode="Р"/><glyph d="M729 -20q-272 0 -470 180t-198 481q0 303 201 483.5t483 180.5q217 0 353.5 -103.5t136.5 -226.5q0 -59 -34 -97t-93 -38q-113 0 -123 133q-6 106 -83 185t-224 79q-182 0 -292 -132t-110 -360q0 -283 167 -456.5t409 -173.5q209 0 362 172l33 -27q-55 -100 -188 -190 t-330 -90z" glyph-name="afii10035" horiz-adv-x="1318" unicode="С"/><glyph d="M305 0v49q127 10 168 31.5t41 77.5v917q0 78 -27.5 100.5t-134 22.5t-156 -41t-92.5 -162h-53l33 260q2 20 29 21q57 -4 131 -4h749q72 0 133 4q25 0 27 -21l35 -260h-53q-43 121 -92.5 162t-156 41t-135 -23.5t-28.5 -99.5v-917q0 -55 42 -77t169 -32v-49h-629z" glyph-name="afii10036" horiz-adv-x="1239" unicode="Т"/><glyph d="M924 1272h379v-49q-66 -8 -101 -41t-67 -99l-377 -747q-104 -205 -187.5 -286t-199.5 -81q-92 0 -151.5 42t-59.5 110q0 47 29.5 76.5t78.5 29.5q41 0 62.5 -24.5t25.5 -55t20.5 -55t49.5 -24.5q92 0 205 194l-412 770q-45 84 -60.5 109.5t-47 50.5t-80.5 31v49h471v-49 q-141 -10 -68 -154l309 -584l297 598q29 59 -6 97.5t-110 42.5v49z" glyph-name="afii10037" horiz-adv-x="1333" unicode="У"/><glyph d="M539 0v49q70 12 98.5 33.5t28.5 75.5q0 57 -26 81.5t-87 24.5h-43q-211 0 -330 97.5t-119 275.5t119 275.5t330 97.5h43q61 0 87 24.5t26 79.5q0 53 -29 74.5t-98 34.5v49h465v-49q-70 -12 -100 -34t-30 -75q0 -55 26 -79.5t87 -24.5h43q213 0 332 -97.5t119 -275.5 t-119 -275.5t-332 -97.5h-43q-61 0 -87 -25.5t-26 -80.5q0 -53 30 -75t100 -34v-49h-465zM510 338h43q61 0 87 25.5t26 82.5v381q0 57 -26 83t-87 26h-43q-119 0 -177.5 -79t-58.5 -220t58.5 -220t177.5 -79zM987 338h43q236 0 236 299t-236 299h-43q-61 0 -87 -25.5 t-26 -83.5v-381q0 -57 26 -82.5t87 -25.5z" glyph-name="afii10038" horiz-adv-x="1542" unicode="Ф"/><glyph d="M41 0v49q78 6 177 91t300 341l90 113l-297 428q-70 102 -125 147t-127 54v49h486v-49q-68 -8 -81 -35t25 -88l248 -355q283 354 256 439q-12 35 -71 39v49h407v-49q-78 -6 -175 -91t-298 -341l-80 -101l305 -440q70 -102 125.5 -147.5t126.5 -53.5v-49h-485v49 q68 8 81 35t-26 88l-256 367q-291 -360 -270 -447q10 -39 72 -43v-49h-408z" glyph-name="afii10039" horiz-adv-x="1374" unicode="Х"/><glyph d="M1397 74q25 0 22 -27l-49 -283h-49q0 68 -9 106t-28.5 67.5t-70 41t-115 16.5t-180.5 5h-857v49q70 12 98.5 33.5t28.5 75.5v956q0 53 -29.5 75.5t-97.5 33.5v49h465v-49q-68 -10 -97.5 -33t-29.5 -76v-954q0 -49 30 -67.5t93 -18.5h400q59 0 88.5 18.5t29.5 67.5v954 q0 53 -30.5 75.5t-98.5 33.5v49h465v-49q-68 -10 -97.5 -33t-29.5 -76v-954q0 -49 33 -67.5t115 -18.5z" glyph-name="afii10040" horiz-adv-x="1470" unicode="Ц"/><glyph d="M872 0v49q70 12 98.5 33.5t28.5 75.5v239q0 76 -34 76q-12 0 -25 -14q-39 -47 -142.5 -90t-228.5 -43q-154 0 -265 89t-111 279v420q0 53 -31 74.5t-101 34.5v49h482v-49q-76 -12 -108 -34t-32 -75v-377q0 -127 77 -204.5t237 -77.5q129 0 205.5 78.5t76.5 195.5v385 q0 53 -28.5 74.5t-98.5 34.5v49h465v-49q-70 -12 -98.5 -34t-28.5 -75v-956q0 -53 29 -75t98 -34v-49h-465z" glyph-name="afii10041" horiz-adv-x="1398" unicode="Ч"/><glyph d="M1774 1223q-70 -10 -99.5 -33t-29.5 -76v-956q0 -53 29.5 -75t99.5 -34v-49h-1713v49q70 12 98.5 33.5t28.5 75.5v956q0 53 -29.5 75.5t-97.5 33.5v49h465v-49q-68 -10 -97.5 -33t-29.5 -76v-954q0 -49 33 -67.5t113 -18.5h149q59 0 89 18.5t30 67.5v954q0 53 -29.5 75.5 t-99.5 33.5v49h465v-49q-68 -10 -97.5 -33t-29.5 -76v-954q0 -49 32.5 -67.5t112.5 -18.5h150q59 0 89 18.5t30 67.5v954q0 53 -30 75.5t-97 33.5v49h465v-49z" glyph-name="afii10042" horiz-adv-x="1835" unicode="Ш"/><glyph d="M1792 74q25 0 23 -27l-50 -283h-49q0 68 -9 106t-28.5 67.5t-69.5 41t-114.5 16.5t-181.5 5h-1252v49q70 12 98.5 33.5t28.5 75.5v956q0 53 -29.5 75.5t-97.5 33.5v49h465v-49q-68 -10 -98.5 -33t-30.5 -76v-954q0 -49 34 -67.5t114 -18.5h147q59 0 89 18.5t30 67.5v954 q0 53 -29.5 75.5t-97.5 33.5v49h465v-49q-68 -10 -97.5 -33t-29.5 -76v-954q0 -49 32.5 -67.5t112.5 -18.5h150q59 0 89 18.5t30 67.5v954q0 53 -31 75.5t-98 33.5v49h465v-49q-68 -10 -97.5 -33t-29.5 -76v-954q0 -49 32.5 -67.5t114.5 -18.5z" glyph-name="afii10043" horiz-adv-x="1865" unicode="Щ"/><glyph d="M262 0v49q70 12 98.5 33.5t28.5 75.5v956q0 94 -108 94q-68 0 -106 -34.5t-91 -143.5h-53l63 242h633v-49q-70 -12 -99.5 -34t-29.5 -75v-211q0 -57 25.5 -82.5t87.5 -25.5h120q256 0 395.5 -107.5t139.5 -298.5q0 -188 -138 -288.5t-397 -100.5h-569zM682 74h149 q315 0 316 319q0 328 -316 328h-120q-61 0 -87 -25.5t-26 -83.5v-450q0 -49 20.5 -68.5t63.5 -19.5z" glyph-name="afii10044" horiz-adv-x="1417" unicode="Ъ"/><glyph d="M631 795q256 0 395 -107.5t139 -298.5q0 -188 -138 -288.5t-396 -100.5h-570v49q70 12 98.5 33.5t28.5 75.5v956q0 53 -29.5 75.5t-97.5 33.5v49h465v-49q-68 -10 -97.5 -33t-29.5 -76v-211q0 -57 26 -82.5t87 -25.5h119zM1692 1223q-68 -10 -98.5 -33t-30.5 -76v-956 q0 -53 29.5 -75t99.5 -34v-49h-465v49q70 12 98.5 33.5t28.5 75.5v956q0 53 -30 75.5t-97 33.5v49h465v-49zM631 74q317 0 317 319q0 328 -317 328h-119q-61 0 -87 -25.5t-26 -83.5v-450q0 -49 20.5 -68.5t61.5 -19.5h150z" glyph-name="afii10045" horiz-adv-x="1753" unicode="Ы"/><glyph d="M631 795q256 0 395 -107.5t139 -298.5q0 -188 -138 -288.5t-396 -100.5h-570v49q70 12 98.5 33.5t28.5 75.5v956q0 53 -29.5 75.5t-97.5 33.5v49h465v-49q-68 -10 -97.5 -33t-29.5 -76v-211q0 -57 26 -82.5t87 -25.5h119zM631 74q317 0 317 319q0 328 -317 328h-119 q-61 0 -87 -25.5t-26 -83.5v-450q0 -49 20.5 -68.5t61.5 -19.5h150z" glyph-name="afii10046" horiz-adv-x="1218" unicode="Ь"/><glyph d="M573 1305q283 0 483.5 -180.5t200.5 -483.5q0 -301 -197.5 -481t-469.5 -180q-197 0 -330 90t-188 190l32 27q154 -172 363 -172q180 0 324.5 100t207.5 277l-2 -3q33 102 -45 103h-428v74h443q72 0 71 114l4 -4q-8 213 -116.5 337t-284.5 124q-147 0 -224 -79t-83 -185 q-10 -133 -123 -133q-59 0 -93 37.5t-34 97.5q0 123 136 226.5t353 103.5z" glyph-name="afii10047" horiz-adv-x="1318" unicode="Э"/><glyph d="M1308.5 1305q274.5 0 461 -182.5t186.5 -467.5q0 -293 -194.5 -484t-477.5 -191q-268 0 -452.5 172t-196.5 444h-236v-438q0 -53 29 -75t98 -34v-49h-465v49q70 12 98.5 33.5t28.5 75.5v956q0 53 -29.5 75.5t-97.5 33.5v49h465v-49q-68 -10 -97.5 -33t-29.5 -76v-444h236 q14 276 206.5 455.5t467 179.5zM1337 53q160 0 273.5 127t113.5 393q0 287 -137 472.5t-334 185.5q-160 0 -272.5 -127t-112.5 -389q0 -289 136 -475.5t333 -186.5z" glyph-name="afii10048" horiz-adv-x="2017" unicode="Ю"/><glyph d="M1229 0h-486v49q84 12 116 32.5t32 76.5v303q0 61 -30 86.5t-111 25.5q-119 0 -186.5 -53t-112.5 -188q-68 -201 -130.5 -266.5t-211.5 -65.5h-68v49q59 0 95 63.5t91 229.5q61 201 228 250q6 2 9 6t0 8t-9 6q-297 68 -297 316q0 164 126 254t359 90h586v-49 q-68 -10 -97.5 -33t-29.5 -76v-956q0 -53 28.5 -75t98.5 -34v-49zM778 641q61 0 87 25.5t26 85.5v358q0 55 -27.5 75.5t-99.5 20.5h-119q-274 0 -274 -282q0 -129 65.5 -206t210.5 -77h131z" glyph-name="afii10049" horiz-adv-x="1290" unicode="Я"/><glyph d="M328 -12q-113 0 -190 56t-77 169q0 129 128 211t444 119q29 4 42 16t13 43v45q0 236 -209 236q-164 0 -164 -148q0 -55 -27.5 -83.5t-72.5 -28.5q-92 0 -92 100q0 109 122 164t290 55q180 0 258.5 -81t78.5 -265v-449q0 -92 101 -71v-29q-39 -59 -142 -59 q-63 0 -102 37.5t-41 109.5q0 10 -5 14.5t-12 0t-14 -12.5q-55 -68 -143 -108.5t-186 -40.5zM432 92q106 0 181 69.5t75 172.5v84q0 39 -17.5 55t-64.5 10q-350 -37 -350 -231q0 -68 45 -114t131 -46z" glyph-name="afii10065" horiz-adv-x="1015" unicode="а"/><glyph d="M532 -12q-61 0 -120.5 16t-125 60.5t-113.5 115t-80 189t-32 272.5q-2 317 126 474t393 157h112q78 0 108.5 7t53.5 32h47q0 -127 -70.5 -169t-242.5 -42h-109q-154 0 -238.5 -59.5t-84.5 -172.5q0 -100 71 -100q23 0 60 27.5t73.5 59.5t103 59.5t142.5 27.5 q170 0 279.5 -123t109.5 -338q0 -233 -131 -363t-332 -130zM551 51q113 0 183.5 95.5t70.5 252.5q0 180 -88 300t-217 120q-109 0 -173.5 -92t-64.5 -250q0 -182 83 -304t206 -122z" glyph-name="afii10066" horiz-adv-x="1056" unicode="б"/><glyph d="M61 0v47q66 10 88.5 29.5t22.5 75.5v630q0 49 -25.5 68.5t-85.5 26.5v47h455q170 0 267.5 -54.5t97.5 -162.5q0 -160 -209 -205q119 -20 188.5 -84t69.5 -158q0 -260 -400 -260q-100 0 -179 4t-87 4q-113 0 -203 -8zM408 532h106q180 0 180 160q0 78 -45 122t-135 44 h-106q-51 0 -52 -51v-223q1 -52 52 -52zM422 70h104q219 0 219 188q0 209 -307 209h-30q-51 0 -52 -51v-269q0 -77 66 -77z" glyph-name="afii10067" horiz-adv-x="980" unicode="в"/><glyph d="M61 0v47q66 10 88.5 29.5t22.5 73.5v632q0 49 -25.5 68.5t-85.5 26.5v47h762l41 -224h-47q-37 94 -83 126t-161 32h-165q-51 0 -52 -53v-655q0 -53 22.5 -73t88.5 -30v-47h-406z" glyph-name="afii10068" horiz-adv-x="915" unicode="г"/><glyph d="M41 -225v272q0 20 20 23q289 41 289 727q0 72 -162 80v47h971v-47q-162 -10 -162 -78v-641q0 -49 34 -69.5t114 -20.5q27 0 22 -25l-49 -268h-47q0 158 -49 191.5t-272 33.5h-318q-221 0 -282.5 -42t-61.5 -183h-47zM207 68h487q119 0 119 90v635q0 35 -17.5 50t-56.5 15 h-258q-37 0 -50 -13.5t-13 -47.5q0 -283 -52.5 -476.5t-158.5 -252.5z" glyph-name="afii10069" horiz-adv-x="1210" unicode="д"/><glyph d="M539 -12q-201 0 -339.5 130t-138.5 347q0 221 140.5 349t343.5 128q156 0 250 -74.5t94 -193.5q0 -104 -87 -146.5t-300 -52.5l-180 -10q-63 -2 -52 -86q18 -125 122 -199t239 -74q166 0 254 115l39 -33q-39 -72 -139.5 -136t-245.5 -64zM326 520l139 4q139 4 189.5 35 t50.5 113q0 90 -49.5 149.5t-147.5 59.5q-111 0 -173.5 -72t-74.5 -195q-6 -59 9.5 -77.5t56.5 -16.5z" glyph-name="afii10070" horiz-adv-x="995" unicode="е"/><glyph d="M1378 186q113 -123 195 -139v-47h-387v47q86 18 35 76l-238 260q-25 29 -63 29h-21v-262q0 -53 22.5 -73t88.5 -30v-47h-406v47q66 10 88.5 29.5t22.5 73.5v262h-21q-39 0 -63 -29l-238 -260q-51 -57 37 -76v-47h-389v47q82 16 195 139l276 301q35 37 0 78l-203 232 q-18 23 -34.5 23.5t-26.5 -12.5t-34 -26.5t-50 -13.5q-37 0 -63.5 21.5t-26.5 60.5t28.5 62.5t77.5 23.5q37 0 72 -17.5t55.5 -38t54.5 -59.5l222 -260q51 -61 108 -61h23v274q0 53 -22.5 72.5t-88.5 30.5v47h406v-47q-66 -10 -88.5 -30t-22.5 -73v-274h23q57 0 108 61 l223 260q33 39 54.5 59.5t55.5 38t71 17.5q51 0 78.5 -23.5t27.5 -62.5t-26.5 -60.5t-63.5 -21.5q-27 0 -49.5 13.5t-33.5 26.5t-26.5 12t-35.5 -23l-203 -232q-35 -41 0 -78z" glyph-name="afii10072" horiz-adv-x="1624" unicode="ж"/><glyph d="M424 -16q-168 0 -265.5 81.5t-97.5 196.5q0 88 82 88q31 0 47.5 -13t21.5 -31.5t12 -54.5t18 -63q53 -145 207 -145q96 0 153 66.5t57 169.5q0 86 -45 134t-114 48q-37 0 -115 -31l-20 51q131 51 183 108.5t52 151.5q0 141 -141 142q-88 0 -152.5 -52.5t-91.5 -152.5 q-12 -47 -27 -53q-6 -2 -16 -2q-53 0 -55 89t26 150q156 80 320 80q147 0 226 -61.5t79 -153.5q0 -68 -41 -120t-109 -81q96 -4 164 -62t68 -159q0 -139 -125 -230t-301 -91z" glyph-name="afii10073" horiz-adv-x="901" unicode="з"/><glyph d="M1120 877q-66 -10 -88 -30t-22 -73v-624q0 -53 22.5 -73t87.5 -30v-47h-405v47q66 10 88 29.5t22 73.5v516l-469 -480v-36q0 -53 22.5 -73t88.5 -30v-47h-406v47q66 10 88.5 29.5t22.5 73.5v624q0 53 -22.5 72.5t-88.5 30.5v47h406v-47q-66 -10 -88.5 -30t-22.5 -73v-516 l469 481v35q0 53 -22.5 72.5t-87.5 30.5v47h405v-47z" glyph-name="afii10074" horiz-adv-x="1181" unicode="и"/><glyph d="M592 1141q-125 0 -201 70.5t-76 181.5q0 23 17 22h30q18 0 21 -18q12 -53 67.5 -91t141.5 -38t140 37.5t69 91.5q2 18 20 18h29q16 0 16 -22q0 -111 -74.5 -181.5t-199.5 -70.5zM1120 877q-66 -10 -88 -30t-22 -73v-624q0 -53 22.5 -73t87.5 -30v-47h-405v47 q66 10 88 29.5t22 73.5v516l-469 -480v-36q0 -53 22.5 -73t88.5 -30v-47h-406v47q66 10 88.5 29.5t22.5 73.5v624q0 53 -22.5 72.5t-88.5 30.5v47h406v-47q-66 -10 -88.5 -30t-22.5 -73v-516l469 481v35q0 53 -22.5 72.5t-87.5 30.5v47h405v-47z" glyph-name="afii10075" horiz-adv-x="1181" unicode="й"/><glyph d="M836 186q113 -123 194 -139v-47h-387v47q86 18 35 76l-238 260q-25 29 -63 29h-21v-262q0 -53 22.5 -73t88.5 -30v-47h-406v47q66 10 88.5 29.5t22.5 73.5v624q0 53 -22.5 72.5t-88.5 30.5v47h406v-47q-66 -10 -88.5 -30t-22.5 -73v-274h23q57 0 108 61l224 260 q33 39 54 59.5t55 38t71 17.5q51 0 78.5 -23.5t27.5 -62.5t-26.5 -60.5t-63.5 -21.5q-27 0 -49 13.5t-33.5 26.5t-27 12t-35.5 -23l-203 -232q-35 -41 0 -78z" glyph-name="afii10076" horiz-adv-x="1060" unicode="к"/><glyph d="M227 -23q-84 0 -135 36t-51 104q0 45 27.5 73.5t70.5 28.5t59.5 -26.5t13.5 -59.5t10.5 -59.5t51.5 -26.5q78 0 100.5 100.5t22.5 294.5v332q0 53 -37.5 72.5t-132.5 30.5v47h934v-47q-66 -10 -88 -30t-22 -73v-624q0 -53 22.5 -73t87.5 -30v-47h-405v47q66 10 88 29.5 t22 73.5v624q0 53 -22.5 68.5t-87.5 15.5h-183q-66 0 -88 -15.5t-22 -68.5v-321q0 -96 -2 -149.5t-14.5 -125.5t-36 -108.5t-69.5 -64.5t-114 -28z" glyph-name="afii10077" horiz-adv-x="1222" unicode="л"/><glyph d="M1243 877q-66 -10 -88 -30t-22 -73v-624q0 -53 22.5 -73t87.5 -30v-47h-405v47q66 10 88 29.5t22 73.5v624l-319 -696h-66l-325 678v-606q0 -53 22.5 -73t85.5 -30v-47h-285v47q66 10 88.5 29.5t22.5 73.5v624q0 53 -22.5 72.5t-88.5 30.5v47h287l305 -641l295 641h295 v-47z" glyph-name="afii10078" horiz-adv-x="1304" unicode="м"/><glyph d="M1151 877q-66 -10 -88.5 -30t-22.5 -73v-624q0 -53 22.5 -73t88.5 -30v-47h-406v47q66 10 88.5 29.5t22.5 73.5v276h-500v-276q0 -53 22.5 -73t88.5 -30v-47h-406v47q66 10 88.5 29.5t22.5 73.5v624q0 53 -22.5 72.5t-88.5 30.5v47h406v-47q-66 -10 -88.5 -30t-22.5 -73 v-282h500v282q0 53 -22.5 72.5t-88.5 30.5v47h406v-47z" glyph-name="afii10079" horiz-adv-x="1212" unicode="н"/><glyph d="M537 -12q-197 0 -336.5 130t-139.5 345q0 217 139.5 348t338.5 131q197 0 336 -130t139 -345q0 -217 -139 -348t-338 -131zM584 51q104 0 167.5 85t63.5 253q0 203 -91 347.5t-232 144.5q-106 0 -169 -86t-63 -254q0 -203 91.5 -346.5t232.5 -143.5z" glyph-name="afii10080" horiz-adv-x="1075" unicode="о"/><glyph d="M61 0v47q66 10 88.5 29.5t22.5 73.5v624q0 53 -22.5 72.5t-88.5 30.5v47h1100v-47q-66 -10 -88 -30t-22 -73v-624q0 -53 22.5 -73t87.5 -30v-47h-405v47q66 10 88 29.5t22 73.5v624q0 53 -22.5 68.5t-87.5 15.5h-289q-66 0 -88.5 -15.5t-22.5 -68.5v-624q0 -53 22.5 -73 t88.5 -30v-47h-406z" glyph-name="afii10081" horiz-adv-x="1222" unicode="п"/><glyph d="M43 -389v47q74 8 102.5 32.5t28.5 82.5v952q0 72 -26.5 97.5t-106.5 17.5v47l242 51q76 16 75 -66v-26q0 -20 11.5 -24.5t27.5 12.5q35 39 114 73.5t171 34.5q172 0 288.5 -128t116.5 -337q0 -225 -131 -357t-313 -132q-55 0 -107.5 13t-82 26.5t-53 21.5t-33 -1 t-9.5 -44v-231q0 -57 31 -82t111 -33v-47h-457zM645 47q119 0 187.5 95.5t68.5 252.5q0 180 -88 303t-225 123q-92 0 -161 -58t-69 -198v-198q0 -160 88 -240t199 -80z" glyph-name="afii10082" horiz-adv-x="1148" unicode="р"/><glyph d="M547 -12q-201 0 -343.5 129t-142.5 346q0 221 147.5 350t352.5 129q162 0 261.5 -75.5t99.5 -170.5q0 -45 -27 -74.5t-74 -29.5q-86 0 -96 98q-23 190 -203 191q-127 0 -198.5 -91.5t-71.5 -250.5q0 -197 114.5 -313.5t286.5 -116.5q158 0 242 124l39 -30 q-33 -80 -135 -147.5t-252 -67.5z" glyph-name="afii10083" horiz-adv-x="1005" unicode="с"/><glyph d="M266 0v47q72 10 96.5 29.5t24.5 73.5v620q0 53 -27.5 70.5t-97.5 17.5q-78 0 -110.5 -30.5t-63.5 -125.5h-47l25 222h825l27 -222h-48q-33 98 -64.5 127t-109.5 29q-70 0 -97.5 -17.5t-27.5 -70.5v-620q0 -53 25 -73t96 -30v-47h-426z" glyph-name="afii10084" horiz-adv-x="958" unicode="т"/><glyph d="M256 -406q-80 0 -128 37t-48 97q0 45 29.5 74.5t76.5 29.5q43 0 63.5 -25.5t22.5 -55.5t14.5 -55.5t41.5 -25.5q61 0 116 140q47 121 -12 260l-248 620q-39 94 -68.5 128t-95.5 59v47h426v-47q-82 -25 -94 -59t29 -128l176 -436q39 -90 76 2l86 223q66 166 78 247 t-10.5 106.5t-92.5 44.5v47h371v-47q-90 -25 -127 -60t-72 -127l-338 -837q-53 -135 -110.5 -197t-161.5 -62z" glyph-name="afii10085" horiz-adv-x="1085" unicode="у"/><glyph d="M659 -389v49q74 8 103 31.5t29 81.5v374q-129 -160 -324 -159q-172 0 -289 126t-117 332q0 229 131.5 362.5t315.5 133.5q53 0 105.5 -12t82 -24.5t53 -17.5t33 7t9.5 49v182q0 72 -28 98.5t-106 18.5v47l242 51q76 16 76 -61v-436q0 -18 11 -22.5t28 12.5 q35 39 113.5 73.5t170.5 34.5q172 0 289 -127t117 -334q0 -229 -131 -361t-313 -132q-55 0 -107.5 13t-82.5 26.5t-53.5 21.5t-32.5 -1t-9 -44v-231q0 -57 28.5 -81t102.5 -32v-49h-447zM567 109q88 0 156 51t68 162v262q0 141 -90.5 218t-200.5 77q-117 0 -182.5 -94.5 t-65.5 -252.5q0 -182 87 -302.5t228 -120.5zM1264 51q117 0 183 93.5t66 250.5q0 182 -86 304t-221 122q-92 0 -161.5 -55t-69.5 -182v-238q0 -143 89 -219t200 -76z" glyph-name="afii10086" horiz-adv-x="1765" unicode="ф"/><glyph d="M31 0v49q92 25 147 65t139 144l129 164l-192 266q-61 88 -106.5 127t-110.5 62v47h424v-47q-55 -14 -69.5 -38t1 -55.5t62.5 -95.5l98 -135q92 121 125 185.5t18.5 93t-73.5 45.5v47h370v-47q-94 -25 -149.5 -66t-136.5 -145l-123 -158l196 -272q61 -88 106.5 -127 t110.5 -60v-49h-426v49q55 12 69.5 36t0.5 55.5t-61 95.5l-103 139q-72 -94 -108.5 -150.5t-43 -93.5t12 -53.5t63.5 -28.5v-49h-370z" glyph-name="afii10087" horiz-adv-x="1028" unicode="х"/><glyph d="M1124 -225q0 57 -3 90t-17 61.5t-33.5 41t-68 21.5t-99.5 10t-145 1h-697v47q66 10 88.5 29.5t22.5 73.5v624q0 53 -22.5 72.5t-88.5 30.5v47h406v-47q-66 -10 -88.5 -30t-22.5 -73v-624q0 -51 22.5 -66.5t88.5 -15.5h291q57 0 82.5 15t25.5 58v633q0 53 -22.5 72.5 t-87.5 30.5v47h405v-47q-66 -10 -88 -30t-22 -73v-635q0 -47 29.5 -59t115.5 -12q29 0 25 -25l-50 -268h-47z" glyph-name="afii10088" horiz-adv-x="1263" unicode="ц"/><glyph d="M1096 879q-66 -10 -88.5 -30t-22.5 -75v-624q0 -55 22.5 -75t88.5 -30v-45h-404v45q66 10 88.5 29.5t22.5 75.5v217q0 31 -10 30q-6 0 -62 -51q-129 -117 -280 -117q-131 0 -215 87t-84 288v170q0 55 -23 74.5t-88 30.5v45h403v-45q-66 -10 -88 -30t-22 -75v-170 q0 -121 56 -198.5t155 -77.5q102 0 180 77.5t78 188.5v180q0 55 -22.5 74.5t-88.5 30.5v45h404v-45z" glyph-name="afii10089" horiz-adv-x="1157" unicode="ч"/><glyph d="M61 0v47q66 10 88.5 29.5t22.5 73.5v624q0 53 -22.5 72.5t-88.5 30.5v47h406v-47q-66 -10 -88.5 -30t-22.5 -73v-624q0 -51 22.5 -66.5t88.5 -15.5h115q66 0 88 15t22 67v624q0 53 -23.5 72.5t-86.5 30.5v47h403v-47q-63 -10 -85.5 -30t-22.5 -73v-624q0 -51 22.5 -66.5 t85.5 -15.5h115q66 0 88 15t22 67v624q0 53 -22.5 72.5t-87.5 30.5v47h405v-47q-66 -10 -88 -30t-22 -73v-624q0 -53 22.5 -73t87.5 -30v-47h-1444z" glyph-name="afii10090" horiz-adv-x="1566" unicode="ш"/><glyph d="M1540 68q29 0 25 -25l-49 -268h-48q0 57 -3 90t-17 61.5t-33.5 41t-68 21.5t-99.5 10t-145 1h-1041v47q66 10 88.5 29.5t22.5 73.5v624q0 53 -22.5 72.5t-88.5 30.5v47h406v-47q-66 -10 -88.5 -30t-22.5 -73v-624q0 -51 22.5 -66.5t88.5 -15.5h115q66 0 88 15t22 67v624 q0 53 -23.5 72.5t-86.5 30.5v47h403v-47q-63 -10 -85.5 -30t-22.5 -73v-624q0 -51 22.5 -66.5t85.5 -15.5h115h10q82 0 96 43q4 20 4 39v624q0 53 -22.5 72.5t-87.5 30.5v47h405v-47q-66 -10 -88 -30t-22 -73v-624q0 -20 4 -41q10 -27 39.5 -34t101.5 -7z" glyph-name="afii10091" horiz-adv-x="1607" unicode="щ"/><glyph d="M643 664q209 0 330 -88.5t121 -246t-122 -243.5t-329 -86h-434v47q63 10 86.5 29.5t23.5 73.5v622q0 47 -21.5 66.5t-70.5 19.5q-55 0 -89 -25.5t-60 -89.5h-47l28 181h555v-47q-66 -10 -88 -30t-22 -73v-69q0 -16 12 -28.5t29 -12.5h98zM641 66q254 0 254 264 q0 266 -252 266h-98q-16 0 -28.5 -12.5t-12.5 -28.5v-405q0 -51 27.5 -67.5t109.5 -16.5z" glyph-name="afii10092" horiz-adv-x="1144" unicode="ъ"/><glyph d="M61 0v47q66 10 88.5 29.5t22.5 73.5v624q0 53 -22.5 72.5t-88.5 30.5v47h406v-47q-66 -10 -88.5 -30t-22.5 -73v-69q0 -16 12.5 -28.5t28.5 -12.5h99q209 0 330.5 -88.5t121.5 -246t-121.5 -243.5t-330.5 -86h-435zM1006 0v47q66 10 88 29.5t22 73.5v624q0 53 -22.5 72.5 t-87.5 30.5v47h405v-47q-63 -10 -87 -30t-24 -73v-624q0 -53 24 -73t87 -30v-47h-405zM494 66q256 0 256 264q0 266 -254 266h-99q-16 0 -28.5 -12.5t-12.5 -28.5v-405q0 -51 28 -67.5t110 -16.5z" glyph-name="afii10093" horiz-adv-x="1472" unicode="ы"/><glyph d="M61 0v47q66 10 88.5 29.5t22.5 73.5v624q0 53 -22.5 72.5t-88.5 30.5v47h406v-47q-66 -10 -88.5 -30t-22.5 -73v-69q0 -16 12.5 -28.5t28.5 -12.5h99q209 0 330.5 -88.5t121.5 -246t-121.5 -243.5t-330.5 -86h-435zM494 66q256 0 256 264q0 266 -254 266h-99 q-16 0 -28.5 -12.5t-12.5 -28.5v-405q0 -51 28 -67.5t110 -16.5z" glyph-name="afii10094" horiz-adv-x="999" unicode="ь"/><glyph d="M444 942q205 0 352.5 -129t147.5 -350q0 -217 -142.5 -346t-342.5 -129q-150 0 -252.5 68.5t-134.5 146.5l39 30q84 -125 241 -124q147 0 256 88t137 241h-303v58h310q2 14 2 43q0 160 -72 251t-199 91q-180 0 -202 -191q-10 -98 -97 -98q-47 0 -73.5 29.5t-26.5 74.5 q0 94 99 170t261 76z" glyph-name="afii10095" horiz-adv-x="1005" unicode="э"/><glyph d="M1020 942q197 0 335 -129t138 -346t-139.5 -348t-337.5 -131q-188 0 -325.5 120.5t-149.5 323.5h-185v-282q0 -53 22.5 -73t88.5 -30v-47h-406v47q66 10 88.5 29.5t22.5 73.5v624q0 53 -22.5 72.5t-88.5 30.5v47h406v-47q-66 -10 -88.5 -30t-22.5 -73v-285h185 q10 207 148 330t331 123zM1063 51q106 0 168.5 85t62.5 253q0 203 -91 347.5t-232 144.5q-104 0 -168 -86t-64 -254q0 -203 92.5 -346.5t231.5 -143.5z" glyph-name="afii10096" horiz-adv-x="1554" unicode="ю"/><glyph d="M977 877q-66 -10 -88.5 -30t-22.5 -73v-624q0 -53 22.5 -73t88.5 -30v-47h-406v47q66 10 88.5 29.5t22.5 73.5v253h-141q-74 0 -108 -35.5t-58 -131.5q-31 -119 -95.5 -177.5t-197.5 -58.5h-51v47q55 10 90 55t59 142q18 74 58.5 120t123.5 58q-121 18 -187 81.5 t-66 155.5q0 119 92 192t250 73h526v-47zM494 469h188v305q0 53 -22.5 68.5t-88.5 15.5h-75q-197 0 -197 -196q0 -193 195 -193z" glyph-name="afii10097" horiz-adv-x="1038" unicode="я"/><glyph d="M596 1092q-16 -23 -61 4l-242 145q-55 33 -69.5 75t14.5 70q63 66 143 -20l199 -217q32 -32 16 -57zM539 -12q-201 0 -339.5 130t-138.5 347q0 221 140.5 349t343.5 128q156 0 250 -74.5t94 -193.5q0 -104 -87 -146.5t-300 -52.5l-180 -10q-63 -2 -52 -86 q18 -125 122 -199t239 -74q166 0 254 115l39 -33q-39 -72 -139.5 -136t-245.5 -64zM326 520l139 4q139 4 189.5 35t50.5 113q0 90 -49.5 149.5t-147.5 59.5q-111 0 -173.5 -72t-74.5 -195q-6 -59 9.5 -77.5t56.5 -16.5z" glyph-name="uni0450" horiz-adv-x="995" unicode="ѐ"/><glyph d="M303 1143q-47 0 -80 33.5t-33 80.5q0 45 34 79t79 34t79 -33.5t34 -79.5q0 -47 -33 -80.5t-80 -33.5zM696 1143q-47 0 -79.5 33.5t-32.5 80.5q0 45 33.5 79t78.5 34t79 -33.5t34 -79.5q0 -47 -34 -80.5t-79 -33.5zM539 -12q-201 0 -339.5 130t-138.5 347q0 221 140.5 349 t343.5 128q156 0 250 -74.5t94 -193.5q0 -104 -87 -146.5t-300 -52.5l-180 -10q-63 -2 -52 -86q18 -125 122 -199t239 -74q166 0 254 115l39 -33q-39 -72 -139.5 -136t-245.5 -64zM326 520l139 4q139 4 189.5 35t50.5 113q0 90 -49.5 149.5t-147.5 59.5q-111 0 -173.5 -72 t-74.5 -195q-6 -59 9.5 -77.5t56.5 -16.5z" glyph-name="afii10071" horiz-adv-x="995" unicode="ё"/><glyph d="M367 1092q-14 27 16 57l201 217q80 86 141 20q29 -29 15.5 -70.5t-68.5 -74.5l-244 -145q-45 -27 -61 -4zM61 0v47q66 10 88.5 29.5t22.5 73.5v632q0 49 -25.5 68.5t-85.5 26.5v47h762l41 -224h-47q-37 94 -83 126t-161 32h-165q-51 0 -52 -53v-655q0 -53 22.5 -73 t88.5 -30v-47h-406z" glyph-name="afii10100" horiz-adv-x="915" unicode="ѓ"/><glyph d="M895 233l39 -30q-33 -80 -135.5 -147.5t-251.5 -67.5q-201 0 -343.5 129t-142.5 346q0 221 147.5 350t352.5 129q162 0 261.5 -75.5t99.5 -170.5q0 -45 -27 -74.5t-74 -29.5q-86 0 -96 98q-23 190 -203 191q-127 0 -198.5 -91.5t-71.5 -250.5q0 -29 2 -43h309v-58h-303 q29 -154 137.5 -241.5t255.5 -87.5q158 -1 242 124z" glyph-name="afii10101" horiz-adv-x="1005" unicode="є"/><glyph d="M428 -12q-152 0 -259.5 60.5t-107.5 172.5q0 49 24 76t65 27q37 0 59 -24t22 -52q0 -100 70 -152.5t164 -52.5q86 0 132 41t46 109q0 35 -15.5 63.5t-32.5 47t-57 35.5t-63.5 25.5t-75.5 24.5q-137 41 -224 107.5t-87 183.5q0 119 101.5 190.5t261.5 71.5 q141 0 242.5 -56.5t101.5 -152.5q0 -94 -90 -94q-76 0 -76 72q0 78 -58.5 127t-148.5 49q-158 0 -158 -139q0 -78 50.5 -117t158.5 -74q188 -59 254 -108q98 -72 98 -183q0 -127 -113.5 -202.5t-283.5 -75.5z" glyph-name="afii10102" horiz-adv-x="886" unicode="ѕ"/><glyph d="M256 1143q-47 0 -80 33.5t-33 80.5q0 45 33 79t80 34q45 0 79 -33.5t34 -79.5q0 -47 -34 -80.5t-79 -33.5zM53 0v49q74 6 102.5 30.5t28.5 82.5v563q0 72 -26.5 97.5t-106.5 17.5v47l242 51q76 16 76 -61v-715q0 -57 28.5 -82t102.5 -31v-49h-447z" glyph-name="afii10103" horiz-adv-x="550" unicode="і"/><glyph d="M57 1143q-47 0 -79.5 33.5t-32.5 80.5q0 45 33.5 79t78.5 34t79 -33.5t34 -79.5q0 -47 -33 -80.5t-80 -33.5zM451 1143q-47 0 -80 33.5t-33 80.5q0 45 34 79t79 34t78.5 -33.5t33.5 -79.5q0 -47 -33.5 -80.5t-78.5 -33.5zM53 0v49q74 6 102.5 30.5t28.5 82.5v563 q0 72 -26.5 97.5t-106.5 17.5v47l242 51q76 16 76 -61v-715q0 -57 28.5 -82t102.5 -31v-49h-447z" glyph-name="afii10104" horiz-adv-x="550" unicode="ї"/><glyph d="M250 1143q-47 0 -81 33.5t-34 80.5q0 45 34 79t81 34q45 0 78.5 -33.5t33.5 -79.5q0 -47 -33.5 -80.5t-78.5 -33.5zM82 -410q-84 0 -145.5 35t-61.5 101q0 39 23.5 63.5t64.5 24.5q35 0 60.5 -26t37 -56.5t30 -56t38.5 -25.5q23 0 36 30.5t13 75.5v969q0 72 -26.5 97.5 t-106.5 17.5v47l240 51q78 16 77 -61v-996q0 -137 -77.5 -214t-202.5 -77z" glyph-name="afii10105" horiz-adv-x="495" unicode="ј"/><glyph d="M547 1141q-125 0 -201 70.5t-76 181.5q0 23 17 22h30q18 0 21 -18q12 -53 67.5 -91t141.5 -38t140 37.5t69 91.5q2 18 20 18h29q16 0 16 -22q0 -111 -74.5 -181.5t-199.5 -70.5zM256 -406q-80 0 -128 37t-48 97q0 45 29.5 74.5t76.5 29.5q43 0 63.5 -25.5t22.5 -55.5 t14.5 -55.5t41.5 -25.5q61 0 116 140q47 121 -12 260l-248 620q-39 94 -68.5 128t-95.5 59v47h426v-47q-82 -25 -94 -59t29 -128l176 -436q39 -90 76 2l86 223q66 166 78 247t-10.5 106.5t-92.5 44.5v47h371v-47q-90 -25 -127 -60t-72 -127l-338 -837q-53 -135 -110.5 -197 t-161.5 -62z" glyph-name="afii10110" horiz-adv-x="1085" unicode="ў"/><glyph d="M61 0v49q70 12 98.5 33.5t28.5 75.5v956q0 53 -28.5 74.5t-98.5 34.5v49h701q63 0 106 14t61.5 30.5t51.5 53.5h51l-43 -162h-463q-68 0 -97.5 -19.5t-29.5 -74.5v-956q0 -55 32 -76t116 -33v-49h-486z" glyph-name="afii10050" horiz-adv-x="1083" unicode="Ґ"/><glyph d="M61 0v47q66 10 88.5 29.5t22.5 73.5v632q0 49 -25.5 68.5t-85.5 26.5v47h512q115 0 160 23.5t74 88.5h47l-31 -178h-415q-51 0 -52 -53v-655q0 -53 22.5 -73t88.5 -30v-47h-406z" glyph-name="afii10098" horiz-adv-x="894" unicode="ґ"/><glyph d="M733 1305q276 0 462.5 -182.5t186.5 -467.5q0 -293 -194.5 -484t-476.5 -191q-276 0 -463 183t-187 468q0 291 194.5 482.5t477.5 191.5zM680 1231q-160 0 -273.5 -127t-113.5 -389v-39h852q-25 248 -156 401.5t-309 153.5zM764 53q160 0 273.5 127t113.5 393v35h-852 q27 -248 158 -401.5t307 -153.5z" glyph-name="uni04E8" unicode="Ө"/><glyph d="M539 942q197 0 336 -130t139 -345q0 -217 -139.5 -348t-337.5 -131q-197 0 -336.5 130t-139.5 345q0 217 139.5 348t338.5 131zM492 881q-106 0 -169 -86t-63 -254q0 -33 2 -49h547q-23 168 -108.5 278.5t-208.5 110.5zM584 51q104 0 167.5 85t63.5 253q0 31 -2 47h-547 q25 -168 111 -276.5t207 -108.5z" glyph-name="uni04E9" horiz-adv-x="1075" unicode="ө"/><glyph d="M1143 1440q-18 -23 -64 4l-241 145q-55 33 -68.5 75t14.5 71q61 66 142 -21l200 -217q31 -30 17 -57zM633 0l-400 1012q-47 119 -81.5 158.5t-110.5 52.5v49h471v-49q-88 -12 -104.5 -47t14.5 -97l303 -780q20 -49 41 0l182 477q49 127 -2 250q-45 109 -78.5 146.5 t-107.5 50.5v49h471v-49q-88 -12 -104.5 -47t14.5 -97l301 -780q20 -49 41 0l295 770q27 68 -6 104.5t-125 49.5v49h403v-49q-76 -16 -117 -50t-69 -110l-346 -895q-45 -117 -45 -168h-121l-314 791l-239 -623q-43 -113 -43 -168h-123z" glyph-name="Wgrave" horiz-adv-x="2091" unicode="Ẁ"/><glyph d="M967 1092q-18 -23 -64 4l-241 145q-55 33 -68.5 75t14.5 70q59 68 142 -20l200 -217q31 -30 17 -57zM449 0l-265 690q-37 92 -67.5 127t-96.5 60v47h422v-47q-82 -25 -93 -59t28 -128l162 -426q39 -102 73 0l64 180q57 162 10 285q-23 59 -53.5 92t-91.5 56v47h422v-47 q-82 -25 -93.5 -59t27.5 -128l162 -426q39 -102 74 0l75 215q59 172 70.5 250t-10 103.5t-88.5 44.5v47h372v-47q-88 -25 -125.5 -60t-74.5 -127l-265 -690h-118l-201 524l-201 -524h-118z" glyph-name="wgrave" horiz-adv-x="1572" unicode="ẁ"/><glyph d="M979 1440q-14 27 16 57l201 217q80 86 141 21q29 -29 15.5 -71t-68.5 -75l-244 -145q-45 -27 -61 -4zM633 0l-400 1012q-47 119 -81.5 158.5t-110.5 52.5v49h471v-49q-88 -12 -104.5 -47t14.5 -97l303 -780q20 -49 41 0l182 477q49 127 -2 250q-45 109 -78.5 146.5 t-107.5 50.5v49h471v-49q-88 -12 -104.5 -47t14.5 -97l301 -780q20 -49 41 0l295 770q27 68 -6 104.5t-125 49.5v49h403v-49q-76 -16 -117 -50t-69 -110l-346 -895q-45 -117 -45 -168h-121l-314 791l-239 -623q-43 -113 -43 -168h-123z" glyph-name="Wacute" horiz-adv-x="2091" unicode="Ẃ"/><glyph d="M737 1092q-14 27 17 57l198 217q80 86 144 20q29 -29 14.5 -70.5t-70.5 -74.5l-241 -145q-46 -27 -62 -4zM449 0l-265 690q-37 92 -67.5 127t-96.5 60v47h422v-47q-82 -25 -93 -59t28 -128l162 -426q39 -102 73 0l64 180q57 162 10 285q-23 59 -53.5 92t-91.5 56v47h422 v-47q-82 -25 -93.5 -59t27.5 -128l162 -426q39 -102 74 0l75 215q59 172 70.5 250t-10 103.5t-88.5 44.5v47h372v-47q-88 -25 -125.5 -60t-74.5 -127l-265 -690h-118l-201 524l-201 -524h-118z" glyph-name="wacute" horiz-adv-x="1572" unicode="ẃ"/><glyph d="M846 1491q-47 0 -80 34t-33 81q0 45 33 78.5t80 33.5t79.5 -33.5t32.5 -78.5q0 -47 -32.5 -81t-79.5 -34zM1239 1491q-47 0 -80 34t-33 81q0 45 33 78.5t80 33.5q45 0 79 -33.5t34 -78.5q0 -47 -34 -81t-79 -34zM633 0l-400 1012q-47 119 -81.5 158.5t-110.5 52.5v49h471 v-49q-88 -12 -104.5 -47t14.5 -97l303 -780q20 -49 41 0l182 477q49 127 -2 250q-45 109 -78.5 146.5t-107.5 50.5v49h471v-49q-88 -12 -104.5 -47t14.5 -97l301 -780q20 -49 41 0l295 770q27 68 -6 104.5t-125 49.5v49h403v-49q-76 -16 -117 -50t-69 -110l-346 -895 q-45 -117 -45 -168h-121l-314 791l-239 -623q-43 -113 -43 -168h-123z" glyph-name="Wdieresis" horiz-adv-x="2091" unicode="Ẅ"/><glyph d="M569 1143q-45 0 -78.5 33.5t-33.5 80.5q0 45 33.5 79t78.5 34t79 -33.5t34 -79.5q0 -47 -33 -80.5t-80 -33.5zM962.5 1143q-47.5 0 -80 33.5t-32.5 80.5q0 45 34 79t79 34t78.5 -33.5t33.5 -79.5q0 -47 -32.5 -80.5t-80 -33.5zM449 0l-265 690q-37 92 -67.5 127t-96.5 60 v47h422v-47q-82 -25 -93 -59t28 -128l162 -426q39 -102 73 0l64 180q57 162 10 285q-23 59 -53.5 92t-91.5 56v47h422v-47q-82 -25 -93.5 -59t27.5 -128l162 -426q39 -102 74 0l75 215q59 172 70.5 250t-10 103.5t-88.5 44.5v47h372v-47q-88 -25 -125.5 -60t-74.5 -127 l-265 -690h-118l-201 524l-201 -524h-118z" glyph-name="wdieresis" horiz-adv-x="1572" unicode="ẅ"/><glyph d="M754 1466q-90 0 -219 66.5t-168 66.5q-37 0 -62.5 -24.5t-25.5 -69.5h-52q0 104 57.5 162.5t147.5 58.5q88 0 217 -65.5t170 -65.5q37 0 63.5 25t26.5 70h49q0 -106 -57 -165t-147 -59zM61 0v49q70 12 98.5 33.5t28.5 75.5v956q0 53 -29.5 75.5t-97.5 33.5v49h947 q29 0 30 -25q14 -123 41 -231h-43q-39 96 -100.5 143t-159.5 47h-250q-66 0 -96.5 -22.5t-30.5 -77.5v-330q0 -55 31 -76.5t96 -21.5h185q94 0 127.5 33.5t48.5 113.5h33v-360h-33q-14 80 -49 114.5t-127 34.5h-185q-66 0 -96.5 -21.5t-30.5 -76.5v-350q0 -57 39 -80 t142 -20l231 2q100 2 148.5 29.5t78.5 80.5l49 76h43q-45 -88 -61 -225q-4 -29 -33 -29h-975z" glyph-name="uni1EBC" horiz-adv-x="1171" unicode="Ẽ"/><glyph d="M662 1118q-88 0 -217.5 66.5t-170.5 66.5q-37 0 -62.5 -24.5t-25.5 -69.5h-51q0 104 57.5 162.5t147.5 58.5q88 0 217 -65.5t170 -65.5q37 0 63.5 24.5t26.5 69.5h49q0 -106 -57 -164.5t-147 -58.5zM539 -12q-201 0 -339.5 130t-138.5 347q0 221 140.5 349t343.5 128 q156 0 250 -74.5t94 -193.5q0 -104 -87 -146.5t-300 -52.5l-180 -10q-63 -2 -52 -86q18 -125 122 -199t239 -74q166 0 254 115l39 -33q-39 -72 -139.5 -136t-245.5 -64zM326 520l139 4q139 4 189.5 35t50.5 113q0 90 -49.5 149.5t-147.5 59.5q-111 0 -173.5 -72t-74.5 -195 q-6 -59 9.5 -77.5t56.5 -16.5z" glyph-name="uni1EBD" horiz-adv-x="995" unicode="ẽ"/><glyph d="M764 1440q-16 -23 -62 4l-241 145q-57 33 -70.5 75t15.5 71q61 66 141 -21l201 -217q30 -30 16 -57zM387 0v49q98 10 134 31.5t36 77.5v329q0 55 -43 125l-264 414q-63 100 -109.5 141t-109.5 56v49h481v-49q-78 -14 -91 -47t32 -103l256 -403q14 -23 28 0l246 397 q86 137 -80 156v49h387v-49q-72 -8 -119 -45t-104 -129l-270 -428q-31 -49 -31 -134v-329q0 -55 36 -77t134 -32v-49h-549z" glyph-name="Ygrave" horiz-adv-x="1320" unicode="Ỳ"/><glyph d="M647 1092q-18 -23 -63 4l-242 145q-55 33 -68.5 75t15.5 70q59 68 141 -20l201 -217q30 -30 16 -57zM256 -406q-80 0 -128 37t-48 97q0 45 29.5 74.5t76.5 29.5q43 0 63.5 -25.5t22.5 -55.5t14.5 -55.5t41.5 -25.5q61 0 116 140q47 121 -12 260l-248 620 q-39 94 -68.5 128t-95.5 59v47h426v-47q-82 -25 -94 -59t29 -128l176 -436q39 -90 76 2l86 223q66 166 78 247t-10.5 106.5t-92.5 44.5v47h371v-47q-90 -25 -127 -60t-72 -127l-338 -837q-53 -135 -110.5 -197t-161.5 -62z" glyph-name="ygrave" horiz-adv-x="1085" unicode="ỳ"/><glyph d="M102 498v71h1192v-71h-1192z" glyph-name="endash" horiz-adv-x="1396" unicode="–"/><glyph d="M102 498v71h1678v-71h-1678z" glyph-name="emdash" horiz-adv-x="1882" unicode="—"/><glyph d="M102 498v71h1678v-71h-1678z" glyph-name="afii00208" horiz-adv-x="1882" unicode="―"/><glyph d="M219 1307l29 -33q-78 -72 -78 -133q0 -35 33 -35q47 0 79.5 -33t32.5 -82q0 -53 -35.5 -86t-86.5 -33q-63 0 -97.5 46.5t-34.5 113.5q0 80 44 155t114 120z" glyph-name="quoteleft" horiz-adv-x="376" unicode="‘"/><glyph d="M158 870l-31 35q35 29 57.5 68t22.5 63q0 35 -33 35q-49 0 -81 33t-32 82q0 53 35 86t88 33q63 0 97 -46.5t34 -113.5q0 -80 -43.5 -154t-113.5 -121z" glyph-name="quoteright" horiz-adv-x="376" unicode="’"/><glyph d="M158 -207l-31 33q35 31 57.5 69.5t22.5 63.5q0 35 -33 35q-49 0 -81 31.5t-32 83.5q0 53 36 84.5t87 31.5q63 0 97 -46t34 -113q0 -80 -43.5 -154t-113.5 -119z" glyph-name="quotesinglbase" horiz-adv-x="376" unicode="‚"/><glyph d="M219 1305l29 -33q-78 -72 -78 -133q0 -35 33 -35q47 0 79.5 -32t32.5 -83q0 -53 -35.5 -86t-86.5 -33q-63 0 -97.5 46.5t-34.5 113.5q0 80 44 155t114 120zM547 1305l28 -33q-78 -72 -77 -133q0 -35 32 -35q47 0 80 -32t33 -83q0 -53 -36 -86t-87 -33q-63 0 -97 46.5 t-34 113.5q0 80 44 155t114 120z" glyph-name="quotedblleft" horiz-adv-x="704" unicode="“"/><glyph d="M158 870l-31 35q35 29 57.5 68t22.5 63q0 35 -33 35q-49 0 -81 33t-32 82q0 53 35 86t88 33q63 0 97 -46.5t34 -113.5q0 -80 -43.5 -154t-113.5 -121zM483 870l-28 35q35 29 57.5 68t22.5 63q0 35 -33 35q-49 0 -81 33t-32 82q0 53 35 86t88 33q63 0 97 -46.5t34 -113.5 q0 -80 -44 -154t-116 -121z" glyph-name="quotedblright" horiz-adv-x="704" unicode="”"/><glyph d="M158 -207l-31 33q35 31 57.5 69.5t22.5 63.5q0 35 -33 35q-49 0 -81 31.5t-32 83.5q0 53 36 84.5t87 31.5q63 0 97 -46t34 -113q0 -80 -43.5 -154t-113.5 -119zM481 -207l-30 33q35 31 57 69.5t22 63.5q0 35 -32 35q-49 0 -81 31.5t-32 83.5q0 53 36 84.5t87 31.5 q63 0 97 -46t34 -113q0 -80 -44 -154t-114 -119z" glyph-name="quotedblbase" horiz-adv-x="700" unicode="„"/><glyph d="M469 272l-129 430l102 103l4 82q-59 -2 -129.5 -41t-95.5 -39q-49 0 -84 35t-35 82t35 81.5t84 34.5q25 0 97.5 -38.5t132.5 -40.5q4 59 -38 131.5t-42 95.5q0 47 34.5 82t83.5 35q47 0 82 -35t35 -82q0 -23 -42 -95.5t-38 -131.5q59 2 133 40.5t99 38.5q47 0 81.5 -34.5 t34.5 -81.5t-34.5 -82t-81.5 -35q-27 0 -98.5 39t-129.5 41l5 -82l102 -103l-129 -430h-39z" glyph-name="dagger" horiz-adv-x="976" unicode="†"/><glyph d="M489 -72q-49 0 -83.5 35t-34.5 82q0 25 42 98.5t42 132.5q-59 -2 -134 -42.5t-100 -40.5q-49 0 -84 34.5t-35 81.5t35 82t84 35q25 0 99.5 -41t134.5 -43v76l-113 200l113 197v76q-59 -2 -134 -43t-100 -41q-49 0 -84 35t-35 82t35 81.5t84 34.5q25 0 99.5 -41t134.5 -43 q0 59 -42 133t-42 99q0 47 34.5 82t83.5 35q47 0 82 -35t35 -82q0 -25 -42 -98.5t-42 -133.5q61 2 136 43t100 41q47 0 81.5 -34.5t34.5 -81.5t-34.5 -82t-81.5 -35q-25 0 -99.5 41t-136.5 43v-76l113 -199l-113 -198v-76q61 2 136 43t100 41q47 0 81.5 -35t34.5 -82 t-34.5 -81.5t-81.5 -34.5q-25 0 -99.5 40.5t-136.5 42.5q0 -59 42 -132.5t42 -98.5q0 -47 -35 -82t-82 -35z" glyph-name="daggerdbl" horiz-adv-x="976" unicode="‡"/><glyph d="M317.5 406q-79.5 0 -137 57t-57.5 137t57.5 137.5t137 57.5t137 -57.5t57.5 -137.5t-57.5 -137t-137 -57z" glyph-name="bullet" horiz-adv-x="634" unicode="•"/><glyph d="M201 -12q-49 0 -84 34.5t-35 86.5q0 47 35 81.5t84 34.5q47 0 81.5 -34.5t34.5 -81.5q0 -51 -34.5 -86t-81.5 -35zM561 -12q-49 0 -84 34.5t-35 86.5q0 47 36 81.5t83 34.5t83 -34.5t36 -81.5q0 -51 -35 -86t-84 -35zM922 -12q-47 0 -82 34.5t-35 86.5q0 47 34.5 81.5 t82.5 34.5q49 0 83.5 -34.5t34.5 -81.5q0 -51 -34.5 -86t-83.5 -35z" glyph-name="ellipsis" horiz-adv-x="1122" unicode="…"/><glyph d="M1055 1272h75l-831 -1272h-172l885 1214q-47 -41 -98.5 -58t-111 -11t-94 14t-104.5 31q35 -59 35 -137q0 -133 -96.5 -232.5t-223.5 -99.5q-104 0 -160.5 67.5t-56.5 167.5q0 131 97.5 230.5t224.5 99.5q94 0 186 -23.5t145.5 -42t131.5 -10t168 61.5zM360 778 q66 0 99 72t33 180q0 199 -109 199q-68 0 -100.5 -72t-32.5 -180q-1 -199 110 -199zM1006 543q104 0 160.5 -67.5t56.5 -168.5q0 -131 -97.5 -230.5t-224.5 -99.5q-104 0 -160.5 68t-56.5 166q0 133 97.5 232.5t224.5 99.5zM1614 543q104 0 160.5 -67.5t56.5 -168.5 q0 -131 -97.5 -230.5t-224.5 -99.5q-102 0 -158.5 68t-56.5 166q0 133 96.5 232.5t223.5 99.5zM942 35q68 0 100.5 71.5t32.5 180.5q0 199 -110 198q-68 0 -101 -71.5t-33 -180.5q0 -198 111 -198zM1550 35q68 0 100.5 71.5t32.5 180.5q0 199 -110 198q-68 0 -100.5 -71.5 t-32.5 -180.5q-1 -198 110 -198z" glyph-name="perthousand" horiz-adv-x="1933" unicode="‰"/><glyph d="M102 596l295 260l33 -27l-164 -233l164 -234l-33 -26z" glyph-name="guilsinglleft" horiz-adv-x="532" unicode="‹"/><glyph d="M430 596l-297 -260l-31 26l162 234l-162 233l31 27z" glyph-name="guilsinglright" horiz-adv-x="532" unicode="›"/><glyph d="M-317 -10l909 1313h98l-907 -1313h-100z" glyph-name="fraction" horiz-adv-x="352" unicode="⁄"/><glyph d="M1339 287l33 -27q-55 -100 -188 -190t-330 -90q-240 0 -427 144t-230 390h-136v43h129q-4 53 -4 84q0 27 2 41h-127v43h129q31 268 224.5 424t455.5 156q217 0 354.5 -103.5t137.5 -226.5q0 -59 -34 -97t-93 -38q-113 0 -123 133q-6 104 -84 184t-225 80 q-182 0 -292 -132t-110 -360v-20h492v-43h-490q6 -74 21 -125h469v-43h-457q61 -184 209 -291.5t334 -107.5q206 0 360 172z" glyph-name="Euro" unicode="€"/><glyph d="M78 1272h448l17 -125h-35q-12 27 -18.5 37t-26 24.5t-45.5 14.5q-57 0 -58 -54v-251q0 -41 17.5 -56.5t56.5 -19.5v-35h-264v35q39 4 56.5 19.5t17.5 56.5v251q0 53 -58 54q-27 0 -46 -14.5t-25 -24.5t-19 -37h-35zM1171 1237q-35 -4 -44 -20.5t-9 -61.5v-231 q0 -45 9.5 -61.5t43.5 -20.5v-35h-227v35q33 4 44 21.5t11 60.5v211l-133 -279h-35l-135 262v-194q0 -43 11.5 -60.5t44.5 -21.5v-35h-166v35q35 4 45 20.5t10 61.5v231q0 43 -11.5 60.5t-43.5 21.5v35h155l142 -271l129 271h159v-35z" glyph-name="trademark" horiz-adv-x="1232" unicode="™"/><glyph d="M45 -10l909 1313h99l-908 -1313h-100zM66 776v33q68 16 67 72v301h-72v39l132 65q25 12 36 1t11 -32v-374q0 -55 61 -72v-33h-235zM983 -10q-88 0 -143.5 42t-55.5 109q0 100 99 125q-70 35 -70 115q0 59 47 99t131 40q80 0 127 -38t47 -95q0 -72 -69 -102 q104 -43 104 -135q0 -70 -61.5 -115t-155.5 -45zM997 309q33 -8 53.5 17.5t20.5 64.5q0 86 -80 86q-74 0 -73 -80q-1 -68 79 -88zM987 35q92 0 92 96q0 86 -86 105l-20 4q-39 8 -64.5 -19.5t-25.5 -75t26.5 -79t77.5 -31.5z" glyph-name="oneeighth" horiz-adv-x="1271" unicode="⅛"/><glyph d="M276 -10l910 1313h98l-907 -1313h-101zM272 766q-90 0 -145 44t-55 110q0 57 51 57q29 0 40 -11.5t14 -40t5 -36.5q27 -78 94 -78q45 0 72 34t27 89q0 70 -46 88t-100 -12l-20 39l33 12q98 35 98 106q0 84 -72 84q-51 0 -68.5 -46t-2.5 -87q-47 -25 -75 -7.5t-28 56.5 q0 53 49.5 91t132.5 38q82 0 129.5 -35.5t47.5 -89.5q0 -74 -97 -108q66 -2 101 -39t35 -90q0 -74 -64 -121t-156 -47zM1194 -10q-90 0 -145.5 42t-55.5 109q0 45 27 79t74 46q-72 37 -72 115q0 59 48 99t132 40q78 0 125 -38t47 -95q0 -72 -67 -102q102 -43 102 -135 q0 -70 -60.5 -115t-154.5 -45zM1208 309q33 -8 53.5 17.5t20.5 64.5q0 86 -80 86q-74 0 -74 -80q0 -68 80 -88zM1198 35q45 0 68.5 26.5t23.5 69.5q0 86 -86 105l-20 4q-39 8 -65.5 -19.5t-26.5 -75t27.5 -79t78.5 -31.5z" glyph-name="threeeighths" horiz-adv-x="1490" unicode="⅜"/><glyph d="M258 -10l909 1313h99l-908 -1313h-100zM272 754q-90 0 -145 44t-55 109q0 53 51 54q29 0 40 -11.5t14 -38t5 -34.5q27 -78 94 -78q45 0 72 33.5t27 89.5q0 59 -32 97t-83 38q-53 0 -98 -41h-62l21 256h291l39 10l-21 -100h-246l-8 -115q39 47 123 47q76 0 134.5 -47 t58.5 -129q0 -84 -63 -134t-157 -50zM1174 -10q-88 0 -143.5 42t-55.5 109q0 100 98 125q-70 35 -69 115q0 59 47 99t131 40q80 0 127 -38t47 -95q0 -72 -70 -102q104 -43 105 -135q0 -70 -61.5 -115t-155.5 -45zM1188 309q33 -8 53.5 17.5t20.5 64.5q0 86 -80 86 q-74 0 -74 -80q0 -68 80 -88zM1178 35q92 0 92 96q0 86 -86 105l-21 4q-39 8 -64.5 -19.5t-25.5 -75t27 -79t78 -31.5z" glyph-name="fiveeighths" horiz-adv-x="1462" unicode="⅝"/><glyph d="M207 -10l909 1313h98l-907 -1313h-100zM133 776l258 406h-264l-55 -35l32 125h381l-235 -496h-117zM1122 -10q-88 0 -143 42t-55 109q0 100 98 125q-70 35 -70 115q0 59 47.5 99t130.5 40q80 0 127.5 -38t47.5 -95q0 -72 -70 -102q104 -43 104 -135q0 -70 -61.5 -115 t-155.5 -45zM1137 309q33 -8 53 17.5t20 64.5q0 86 -80 86q-74 0 -73 -80q0 -68 80 -88zM1126 35q92 0 93 96q0 86 -86 105l-21 4q-39 8 -64.5 -19.5t-25.5 -75t26.5 -79t77.5 -31.5z" glyph-name="seveneighths" horiz-adv-x="1390" unicode="⅞"/><glyph d="M539 -20q-211 0 -339 126.5t-128 309.5q0 176 116.5 288.5t284.5 112.5q123 0 221.5 -58.5t122.5 -115.5q0 104 -19.5 202.5t-61.5 188.5t-121.5 145.5t-188.5 55.5q-76 0 -164 -45l-29 45q84 70 236 70q141 0 249.5 -60.5t172 -163t96.5 -226.5t33 -261 q2 -266 -115.5 -440t-365.5 -174zM522 39q135 0 215 115.5t80 259.5q0 139 -81 229t-199 90q-123 0 -194 -96t-71 -250q0 -139 61.5 -243.5t188.5 -104.5z" glyph-name="partialdiff" horiz-adv-x="1081" unicode="∂"/><glyph d="M874 821q150 -135 150 -354q0 -217 -139.5 -348t-337.5 -131q-162 0 -287 88l-57 -70l-33 25l59 71q-158 131 -157 361q0 217 139 348t338 131q170 0 295 -94l63 76l31 -25zM270 541q0 -174 68 -305l403 487q-94 158 -239 158q-106 0 -169 -86t-63 -254zM594 51 q104 0 167.5 85t63.5 253q0 166 -63 297l-402 -489q93 -146 234 -146z" glyph-name="emptyset" horiz-adv-x="1095" unicode="∅"/><glyph d="M102 -410v2048h945v-2048h-62v1987h-821v-1987h-62z" glyph-name="product" horiz-adv-x="1148" unicode="∏"/><glyph d="M983 1638v-61h-801l649 -965l-649 -960h801v-62h-881v62l648 962l-648 963v61h881z" glyph-name="summation" horiz-adv-x="1085" unicode="∑"/><glyph d="M102 485v60h758v-60h-758z" glyph-name="minus" horiz-adv-x="962" unicode="−"/><glyph d="M508 -410l-285 680q-37 88 -73.5 128t-108.5 67v49l274 -4l275 -672l635 1800h205v-49q-94 -25 -131 -63.5t-72 -136.5l-647 -1799h-72z" glyph-name="radical" horiz-adv-x="1470" unicode="√"/><glyph d="M432 127q-143 0 -236.5 112.5t-93.5 303.5q0 180 85 284.5t212 104.5q166 0 285 -189q113 188 305 189q141 0 234.5 -112.5t93.5 -303.5q0 -180 -85 -284.5t-210 -104.5q-166 0 -287 188q-113 -188 -303 -188zM369 309q162 0 229 187l59 166q-96 129 -249 129 q-96 0 -168 -59.5t-72 -186.5q0 -121 58.5 -178.5t142.5 -57.5zM1014 268q94 0 166.5 59.5t72.5 186.5q0 121 -59 178.5t-143 57.5q-160 0 -228 -187l-61 -166q96 -129 252 -129z" glyph-name="infinity" horiz-adv-x="1419" unicode="∞"/><glyph d="M90 -440q-123 0 -198.5 56t-75.5 130q0 45 28.5 67.5t67.5 22.5q47 0 69.5 -34.5t27.5 -75.5t32 -76t80 -35q82 0 110.5 68.5t28.5 210.5v1105q0 180 100.5 278.5t253.5 98.5q123 0 200 -56t77 -132q0 -45 -28.5 -66.5t-67.5 -21.5q-47 0 -70 34.5t-28 75.5t-32.5 76 t-80.5 35q-82 0 -111 -68.5t-29 -210.5v-1105q0 -182 -99 -279.5t-255 -97.5z" glyph-name="integral" horiz-adv-x="870" unicode="∫"/><glyph d="M729.5 551q-106.5 0 -260.5 72.5t-201 72.5q-45 0 -75.5 -26.5t-30.5 -77.5h-60q0 117 69 181.5t175 64.5q104 0 257 -73t204 -73q45 0 75.5 26.5t30.5 78.5h58q0 -117 -67.5 -181.5t-174 -64.5zM729.5 203q-106.5 0 -260.5 72.5t-201 72.5q-45 0 -75.5 -26.5 t-30.5 -77.5h-60q0 117 69 181t175 64q104 0 257 -72.5t204 -72.5q45 0 75.5 26.5t30.5 78.5h58q0 -117 -67.5 -181.5t-174 -64.5z" glyph-name="approxequal" horiz-adv-x="1073" unicode="≈"/><glyph d="M860 670h-266l-129 -310h395v-59h-420l-127 -303h-67l127 303h-271v59h295l129 310h-424v59h449l119 285h67l-119 -285h242v-59z" glyph-name="notequal" horiz-adv-x="962" unicode="≠"/><glyph d="M860 250l-758 352v80l758 354v-73l-678 -320l678 -321v-72zM860 0h-758v61h758v-61z" glyph-name="lessequal" horiz-adv-x="962" unicode="≤"/><glyph d="M102 250v72l678 321l-678 320v73l758 -354v-80zM102 0v61h758v-61h-758z" glyph-name="greaterequal" horiz-adv-x="962" unicode="≥"/><glyph d="M362 0l-290 635l290 637h119l291 -637l-291 -635h-119zM422 92l237 543l-237 543l-238 -543z" glyph-name="lozenge" horiz-adv-x="843" unicode="◊"/><glyph d="M256 1143q-47 0 -80 33.5t-33 80.5q0 45 33 79t80 34q45 0 79 -33.5t34 -79.5q0 -47 -34 -80.5t-79 -33.5zM53 0v49q74 6 102.5 30.5t28.5 82.5v563q0 72 -26.5 97.5t-106.5 17.5v47l242 51q76 16 76 -61v-715q0 -57 28.5 -82t102.5 -31v-49h-447z" glyph-name="i.aalt" horiz-adv-x="550"/><glyph d="M539 -12q-201 0 -339.5 130t-138.5 347q0 221 142.5 349t347.5 128q160 0 260 -81t100 -204q0 -106 -85 -146t-291 -46l-213 -8q-63 -2 -52 -80q18 -127 121 -199t240 -72q164 0 252 115l37 -33q-39 -72 -137.5 -136t-243.5 -64zM326 512l159 2q135 2 189.5 39t54.5 119 q0 90 -54 149.5t-157 59.5q-115 0 -181.5 -73t-76.5 -194q-6 -61 9.5 -81.5t56.5 -20.5z" glyph-name="glyph452" horiz-adv-x="991"/><glyph d="M43 0v49q80 8 110.5 31.5t30.5 81.5v653q0 45 -47 45h-96v45q78 8 110.5 24.5t32.5 55.5v12q0 190 98.5 295t256.5 105q119 0 187.5 -56.5t68.5 -138.5q0 -96 -93 -96q-45 0 -66.5 37t-26.5 82t-31.5 81.5t-79.5 36.5q-80 0 -104.5 -78.5t-24.5 -263.5v-24q0 -53 45 -53 h217v-64h-217q-45 0 -45 -45v-653q0 -57 30.5 -81t114.5 -32v-49h-471z" glyph-name="glyph453" horiz-adv-x="774"/><glyph d="M428 -12q-152 0 -259.5 60.5t-107.5 172.5q0 49 24 76t65 27q37 0 59 -24t22 -52q0 -100 70 -152.5t164 -52.5q86 0 132 41t46 109q0 35 -15.5 63.5t-32.5 47t-57 35.5t-63.5 25.5t-75.5 24.5q-137 41 -224 107.5t-87 183.5q0 119 101.5 190.5t261.5 71.5 q141 0 242.5 -56.5t101.5 -152.5q0 -94 -90 -94q-76 0 -76 72q0 78 -58.5 127t-148.5 49q-158 0 -158 -139q0 -78 50.5 -117t158.5 -74q188 -59 254 -108q98 -72 98 -183q0 -127 -113.5 -202.5t-283.5 -75.5z" glyph-name="s.aalt" horiz-adv-x="886"/><glyph d="M862 -12q-29 0 -28 30v924q0 182 -73 286.5t-210 104.5q-104 0 -136 -62.5t-32 -207.5v-86q0 -39 21.5 -51.5t89.5 -12.5h141v-73l-141 4q-68 2 -89.5 -11.5t-21.5 -56.5v-614q0 -59 37 -83t145 -30v-49h-512v49q84 6 115 30.5t31 82.5v618q0 63 -47 64h-111v47 q86 14 122 34.5t36 67.5v27q0 182 115.5 279.5t299.5 97.5q176 0 290 -93.5t114 -302.5v-157q0 -18 11 -22.5t28 12.5q35 39 113.5 73.5t170.5 34.5q172 0 289 -127t117 -334q0 -227 -131 -360t-311 -133q-76 0 -145.5 24.5t-116 50t-66.5 25.5q-29 0 -62 -50t-53 -50z M1305 47q119 0 187.5 95.5t68.5 252.5q0 180 -88.5 303t-225.5 123q-92 0 -160.5 -58t-68.5 -198v-198q0 -160 88 -240t199 -80z" glyph-name="f_b.dlig" horiz-adv-x="1808"/><glyph d="M1620 -12q-143 0 -143 155v410q0 125 -59.5 200.5t-164.5 75.5q-109 0 -172 -76.5t-63 -199.5v-391q0 -57 28.5 -82t102.5 -31v-49h-447v49q74 6 103 30.5t29 82.5v780q0 182 -73 286.5t-210 104.5q-104 0 -136 -62.5t-32 -207.5v-86q0 -39 21.5 -51.5t89.5 -12.5h141 v-73l-141 4q-68 2 -89.5 -11.5t-21.5 -56.5v-614q0 -59 37 -83t145 -30v-49h-512v49q84 6 115 30.5t31 82.5v618q0 63 -47 64h-111v47q86 14 122 34.5t36 67.5v27q0 182 115.5 279.5t299.5 97.5q176 0 290 -93.5t114 -302.5v-124q0 -92 31 -84q8 0 18 10q33 35 54.5 55.5 t92 52t148.5 31.5q129 0 214 -82t85 -260v-453q0 -92 102 -71v-29q-39 -59 -143 -59z" glyph-name="f_h.dlig" horiz-adv-x="1804"/><glyph d="M53 0v49q84 6 115 30.5t31 82.5v618q0 63 -47 64h-111v47q86 14 122 34.5t36 67.5q0 199 101 301.5t278 102.5q121 0 198.5 -46t77.5 -120q0 -82 -88 -82q-43 0 -78 28.5t-54.5 63.5t-58 63.5t-88.5 28.5q-68 0 -86 -48t-18 -167v-141q0 -39 21.5 -51.5t89.5 -12.5h141 v-73l-141 4q-68 2 -89.5 -11.5t-21.5 -56.5v-614q0 -59 37 -83t145 -30v-49h-512zM766 -410q-84 0 -144.5 35t-60.5 101q0 39 22.5 63.5t63.5 24.5q35 0 60.5 -26t37 -56.5t30 -56t38.5 -25.5q23 0 36 30.5t13 75.5v969q0 72 -26.5 97.5t-106.5 17.5v47l240 51q78 16 78 -61 v-996q0 -137 -78 -214t-203 -77z" glyph-name="f_j.dlig" horiz-adv-x="1179"/><glyph d="M53 0v49q84 6 115 30.5t31 82.5v618q0 63 -47 64h-111v47q86 14 122 34.5t36 67.5v27q0 182 115.5 279.5t299.5 97.5q176 0 290 -93.5t114 -302.5v-452q0 -33 16.5 -43t36.5 8l305 272q18 18 19.5 37t-25.5 34t-76 20v47h361v-47q-45 -4 -81 -20.5t-48.5 -27t-59.5 -51.5 l-213 -186l318 -445q41 -57 71.5 -73.5t98.5 -24.5v-49h-414v49q55 8 62.5 26.5t-21.5 59.5l-221 311q-20 31 -55 3q-74 -59 -74 -125v-162q0 -57 28.5 -82t102.5 -31v-49h-447v49q74 6 103 30.5t29 82.5v780q0 182 -73 286.5t-210 104.5q-104 0 -136 -62.5t-32 -207.5v-86 q0 -39 21.5 -51.5t89.5 -12.5h141v-73l-141 4q-68 2 -89.5 -11.5t-21.5 -56.5v-614q0 -59 37 -83t145 -30v-49h-512z" glyph-name="f_k.dlig" horiz-adv-x="1740"/><glyph d="M537 -12q-197 0 -336.5 130t-139.5 345q0 217 139.5 348t338.5 131q197 0 336 -130t139 -345q0 -217 -139 -348t-338 -131zM584 51q104 0 167.5 85t63.5 253q0 203 -91 347.5t-232 144.5q-106 0 -169 -86t-63 -254q0 -203 91.5 -346.5t232.5 -143.5z" glyph-name="zero.oldstyle" horiz-adv-x="1075"/><glyph d="M74 0v49q90 8 123.5 31.5t33.5 81.5v526q0 49 -17 65.5t-67 12.5l-86 -6v47l287 127q35 12 51.5 2t16.5 -35v-739q0 -57 33.5 -81t123.5 -32v-49h-499z" glyph-name="one.oldstyle" horiz-adv-x="634"/><glyph d="M82 0q395 315 516 439t121 237q0 86 -54.5 145.5t-150.5 59.5q-109 0 -163 -56.5t-54 -130.5q0 -37 14.5 -72.5t14.5 -58.5q0 -49 -32 -73.5t-73 -24.5q-59 0 -93 46t-34 116q0 125 110.5 220t321.5 95q193 0 294.5 -78t101.5 -192q0 -78 -47.5 -150.5t-122 -129 t-149.5 -99.5t-152.5 -85t-106.5 -65l305 9q109 4 153 22.5t95 89.5h49l-14 -61q-35 -141 -19 -203h-831z" glyph-name="two.oldstyle" horiz-adv-x="1028"/><glyph d="M537 -383q-197 0 -331 100.5t-134 257.5q0 131 108 131q39 0 57.5 -17t22.5 -41.5t14.5 -77t28.5 -99.5q76 -195 256 -195q135 0 214 97.5t79 251.5q0 139 -66.5 211.5t-171.5 72.5q-68 0 -161 -39l-23 58q188 63 261 120.5t73 174t-61.5 189.5t-170.5 73 q-102 0 -154 -66.5t-52 -177.5q0 -121 -95 -121q-55 0 -81.5 34t-26.5 85q0 119 111.5 211t320.5 92q197 0 300 -81t103 -208q0 -190 -256 -276q119 12 238 -78t119 -256q0 -184 -151.5 -305t-370.5 -121z" glyph-name="three.oldstyle" horiz-adv-x="1140"/><glyph d="M508 -342v49q90 8 124 31.5t34 81.5v180h-580l-35 111l611 852l188 -33v-780h209v-150h-209v-180q0 -57 35 -81t125 -32v-49h-502zM207 150h459v724l-484 -673q-14 -23 -8 -37t33 -14z" glyph-name="four.oldstyle" horiz-adv-x="1140"/><glyph d="M537 -369q-197 0 -331 100.5t-134 258.5q0 131 108 131q39 0 57.5 -17.5t22.5 -42t14.5 -77t28.5 -99.5q80 -195 254 -194q127 0 208 98t81 254q0 168 -93.5 287t-252.5 119q-190 0 -283 -146h-49l49 621h592l145 28l-22 -202h-672l-29 -355q57 59 149.5 94t192.5 35 q186 0 334 -113.5t148 -322.5q0 -201 -147.5 -329t-370.5 -128z" glyph-name="five.oldstyle" horiz-adv-x="1126"/><glyph d="M553 -20q-248 0 -365.5 174t-115.5 440q0 137 32.5 261t96 226.5t172 163t250.5 60.5q152 0 235 -70l-31 -45q-86 45 -161 45q-109 0 -189 -54.5t-122 -145.5t-61.5 -189t-19.5 -203q25 57 123.5 115.5t220.5 58.5q168 0 285 -112.5t117 -288.5q0 -182 -128 -309 t-339 -127zM569 39q127 0 188.5 104.5t61.5 243.5q0 152 -70.5 249t-193.5 97q-119 0 -200 -90t-81 -229q0 -143 80 -259t215 -116z" glyph-name="six.oldstyle" horiz-adv-x="1081"/><glyph d="M203 -348l635 1096h-426q-121 0 -183.5 -24t-103.5 -103h-53l98 319l156 -16h661l-645 -1272h-139z" glyph-name="seven.oldstyle" horiz-adv-x="1038"/><glyph d="M547 -20q-217 0 -346 102t-129 268q0 231 266 328q-186 106 -186 297q0 147 116.5 238.5t298.5 91.5q176 0 287 -87.5t111 -220.5q0 -188 -211 -276q143 -47 224 -136t81 -212q0 -170 -144.5 -281.5t-367.5 -111.5zM578 780q117 -33 176 40t59 181q0 102 -59.5 173 t-192.5 71q-117 0 -171 -61.5t-54 -149.5q0 -188 223 -250zM567 39q143 0 215 80t72 198q0 104 -62.5 165t-213.5 106l-33 8q-133 41 -221 -21.5t-88 -203.5q0 -137 86.5 -234.5t244.5 -97.5z" glyph-name="eight.oldstyle" horiz-adv-x="1130"/><glyph d="M528 938q248 0 366 -174t116 -440q0 -137 -33 -261t-96.5 -226.5t-172 -163t-249.5 -60.5q-152 0 -236 70l29 45q88 -45 164 -45q109 0 188.5 55t121.5 145t61.5 188.5t19.5 202.5q-25 -57 -123 -115.5t-221 -58.5q-168 0 -285 113t-117 289q0 182 128 309t339 127z M512 879q-127 0 -188.5 -104.5t-61.5 -244.5q0 -154 70.5 -250t193.5 -96q119 0 200 90.5t81 229.5q0 143 -80 259t-215 116z" glyph-name="nine.oldstyle" horiz-adv-x="1081"/><glyph d="M614.5 -20q-245.5 0 -382 193.5t-136.5 469.5q0 274 136.5 468t382 194t382 -193.5t136.5 -468.5q0 -276 -136.5 -469.5t-382 -193.5zM633 43q283 0 282 547q0 127 -16 237.5t-51 206.5t-99.5 151.5t-152.5 55.5q-285 0 -285 -545q0 -129 16.5 -239.5t51.5 -206.5 t100.5 -151.5t153.5 -55.5z" glyph-name="zero.tnum" horiz-adv-x="1228"/><glyph d="M344 0v49q102 8 140 31.5t38 81.5v858q0 63 -15 77.5t-69 10.5l-86 -6v45l287 133q35 12 51.5 2t16.5 -35v-1085q0 -57 37.5 -81t140.5 -32v-49h-541z" glyph-name="one.tnum" horiz-adv-x="1228"/><glyph d="M141 0q0 129 75 244.5t181.5 201.5t212 168t180 178.5t74.5 196.5q0 102 -62.5 179t-178.5 77q-109 0 -175.5 -68.5t-66.5 -170.5q0 -43 15.5 -81t15.5 -59q0 -49 -31 -72.5t-72 -23.5q-61 0 -97 51t-36 131q0 143 118 248t337 105q207 0 323.5 -96.5t116.5 -256.5 q0 -113 -65.5 -201.5t-170 -153.5t-214 -124t-216 -140t-157.5 -173h522q125 0 179.5 30.5t88.5 118.5h49l-32 -180q-18 -96 6 -129h-920z" glyph-name="two.tnum" horiz-adv-x="1228"/><glyph d="M586 -20q-197 0 -331 100t-134 258q0 131 108 131q39 0 57.5 -17.5t22.5 -42t14.5 -76.5t28.5 -100q76 -195 256 -194q135 0 214 97t79 251q0 139 -66.5 212t-170.5 73q-68 0 -162 -39l-23 57q188 63 261 120.5t73 174.5t-60.5 189.5t-170.5 72.5q-102 0 -154.5 -66.5 t-52.5 -176.5q0 -121 -94 -121q-55 0 -82 33.5t-27 84.5q0 119 111.5 211.5t320.5 92.5q197 0 300.5 -81t103.5 -208q0 -190 -254 -277q72 8 150.5 -24.5t141 -114.5t62.5 -194q0 -184 -150.5 -305t-371.5 -121z" glyph-name="three.tnum" horiz-adv-x="1228"/><glyph d="M569 0v49q90 8 124 31.5t34 81.5v180h-582l-34 111l610 852l190 -33v-780h207v-150h-207v-180q0 -57 34 -81t124 -32v-49h-500zM266 492h461v725l-483 -674q-14 -23 -8.5 -37t30.5 -14z" glyph-name="four.tnum" horiz-adv-x="1228"/><glyph d="M588 -20q-197 0 -331 100t-134 258q0 131 108 131q49 0 65.5 -21.5t27 -91t32.5 -123.5q76 -195 252 -194q127 0 209 98.5t82 253.5q0 168 -94 287t-254 119q-190 0 -283 -146h-49l49 621h592l146 28l-23 -202h-672l-28 -355q59 59 151 94t191 35q186 0 334.5 -113.5 t148.5 -322.5q0 -201 -147.5 -328.5t-372.5 -127.5z" glyph-name="five.tnum" horiz-adv-x="1228"/><glyph d="M623 -20q-248 0 -366 174t-116 440q0 137 33 261t96.5 226.5t172 163t249.5 60.5q152 0 236 -70l-31 -45q-86 45 -162 45q-109 0 -188.5 -55.5t-121.5 -145.5t-61.5 -188t-19.5 -203q25 57 123 115.5t221 58.5q168 0 285 -112.5t117 -288.5q0 -182 -128 -309t-339 -127z M639 39q127 0 188.5 104.5t61.5 243.5q0 154 -70.5 250t-193.5 96q-119 0 -200 -90t-81 -229q0 -143 80 -259t215 -116z" glyph-name="six.tnum" horiz-adv-x="1228"/><glyph d="M287 0l637 1096h-428q-119 0 -181.5 -23.5t-103.5 -103.5h-55l98 319l156 -16h661l-645 -1272h-139z" glyph-name="seven.tnum" horiz-adv-x="1228"/><glyph d="M596 -20q-217 0 -346 102t-129 268q0 231 266 328q-186 106 -186 297q0 147 116.5 238.5t298.5 91.5q178 0 288 -87.5t110 -220.5q0 -188 -211 -276q143 -47 224 -136t81 -212q0 -170 -144.5 -281.5t-367.5 -111.5zM627 780q117 -33 177 40t60 181q0 102 -60.5 173 t-193.5 71q-115 0 -170 -61.5t-55 -149.5q0 -186 223 -250zM616 39q143 0 215 80t72 198q0 104 -62.5 165t-213.5 106l-33 8q-133 41 -220 -21.5t-87 -203.5q0 -137 85.5 -234.5t243.5 -97.5z" glyph-name="eight.tnum" horiz-adv-x="1228"/><glyph d="M606 1298q248 0 366 -174t115 -440q0 -137 -32.5 -261t-96 -226.5t-172 -163t-249.5 -60.5q-152 0 -236 70l31 45q86 -45 162 -45q109 0 188.5 55.5t121.5 145.5t61.5 188t19.5 203q-25 -57 -123 -115.5t-221 -58.5q-168 0 -285 112.5t-117 288.5q0 182 128 309t339 127z M590 1239q-127 0 -188.5 -104.5t-61.5 -243.5q0 -152 70.5 -249t193.5 -97q119 0 200 90t81 229q0 143 -80 259t-215 116z" glyph-name="nine.tnum" horiz-adv-x="1228"/><glyph d="M293 -10q-106 0 -163.5 77.5t-57.5 188.5t57 187.5t164 76.5q104 0 161.5 -77.5t57.5 -186.5q0 -111 -57.5 -188.5t-161.5 -77.5zM301 35q102 0 102 196q0 100 -28.5 172t-89.5 72q-102 0 -103 -194q0 -102 29 -174t90 -72z" glyph-name="zero.dnom" horiz-adv-x="583"/><glyph d="M66 0v33q68 16 67 71v302h-72v38l132 66q25 12 36 1t11 -32v-375q0 -55 61 -71v-33h-235z" glyph-name="one.dnom" horiz-adv-x="362"/><glyph d="M82 0q14 66 51 118t67.5 76.5t82.5 55.5q35 20 52 32.5t31.5 37t14.5 55.5q0 39 -19.5 69.5t-60.5 30.5q-33 0 -55.5 -21.5t-22.5 -60.5q0 -12 5 -32.5t1 -34.5q-41 -37 -82 -22t-41 67q0 57 51.5 103t147.5 46q90 0 139.5 -41t49.5 -106q0 -35 -13.5 -63.5t-40 -51 t-47 -36t-53.5 -29.5q-145 -76 -174 -109h209q55 0 84 43h55l-20 -98q-6 -29 -43 -29h-369z" glyph-name="two.dnom" horiz-adv-x="595"/><glyph d="M272 -10q-90 0 -145 44t-55 109q0 57 51 58q29 0 40 -11.5t14 -40t5 -36.5q27 -78 94 -78q45 0 72 33.5t27 89.5q0 70 -46 88t-100 -13l-20 39l33 13q98 35 98 106q0 84 -72 84q-51 0 -68.5 -46t-2.5 -87q-47 -25 -75 -7.5t-28 56.5q0 53 49.5 91t132.5 38 q82 0 129.5 -35.5t47.5 -89.5q0 -74 -97 -108q66 -2 101 -39t35 -90q0 -74 -64 -121t-156 -47z" glyph-name="three.dnom" horiz-adv-x="573"/><glyph d="M193 0v33q45 4 59 17t14 50v39h-215v64l252 315l72 -18v-312h76v-49h-76v-39q0 -37 16.5 -50t59.5 -17v-33h-258zM131 188h135v172z" glyph-name="four.dnom" horiz-adv-x="532"/><glyph d="M272 -10q-90 0 -145 44t-55 109q0 53 51 54q29 0 40 -11.5t14 -38t5 -34.5q27 -78 94 -78q45 0 72 33.5t27 89.5q0 59 -32 96t-83 37q-55 0 -98 -39h-62l21 256h291l39 10l-21 -102h-246l-8 -113q39 47 123 47q76 0 134.5 -47t58.5 -129q0 -84 -63 -134t-157 -50z" glyph-name="five.dnom" horiz-adv-x="563"/><glyph d="M276 -10q-104 0 -154 70.5t-50 175.5q0 117 56 200.5t169 83.5q72 0 117 -31q16 -12 0 -43q-14 -12 -22.5 -7t-36 18.5t-54.5 13.5q-94 0 -108 -180q35 39 104 39q74 0 125 -43t51 -121t-52.5 -127t-144.5 -49zM276 35q82 0 82 115q0 55 -23.5 95t-64.5 40 q-80 0 -80 -115q0 -55 23.5 -95t62.5 -40z" glyph-name="six.dnom" horiz-adv-x="534"/><glyph d="M133 0l258 406h-264l-55 -35l32 125h381l-235 -496h-117z" glyph-name="seven.dnom" horiz-adv-x="536"/><glyph d="M270 -10q-88 0 -143 42t-55 109q0 100 98 125q-70 35 -70 115q0 59 47.5 99t131.5 40q80 0 127 -38t47 -95q0 -72 -70 -102q104 -43 104 -135q0 -70 -61.5 -115t-155.5 -45zM285 309q33 -8 53 17.5t20 64.5q0 86 -79 86q-74 0 -74 -80q0 -68 80 -88zM274 35q92 0 93 96 q0 86 -86 105l-21 4q-39 8 -64.5 -19.5t-25.5 -75t26.5 -79t77.5 -31.5z" glyph-name="eight.dnom" horiz-adv-x="559"/><glyph d="M256 520q106 0 156.5 -70.5t50.5 -175.5q0 -117 -57.5 -200.5t-169.5 -83.5q-70 0 -115 30q-16 12 0 43q14 12 22.5 7.5t36 -18t53.5 -13.5q94 0 109 180q-35 -39 -106 -39q-74 0 -124.5 42t-50.5 122q0 78 52.5 127t142.5 49zM256 475q-80 0 -80 -115q0 -57 23.5 -96 t62.5 -39q82 0 82 115q0 55 -23.5 95t-64.5 40z" glyph-name="nine.dnom" horiz-adv-x="534"/><glyph d="M293 766q-106 0 -163.5 78t-57.5 188.5t57 187t164 76.5q104 0 161.5 -77.5t57.5 -186.5q0 -111 -57.5 -188.5t-161.5 -77.5zM301 811q102 0 102 197q0 100 -28.5 171.5t-89.5 71.5q-102 0 -103 -194q0 -102 29 -174t90 -72z" glyph-name="zero.numr" horiz-adv-x="583"/><glyph d="M66 776v33q68 16 67 72v301h-72v39l132 65q25 12 36 1t11 -32v-374q0 -55 61 -72v-33h-235z" glyph-name="one.numr" horiz-adv-x="362"/><glyph d="M82 776q14 66 51 118t67.5 76.5t82.5 55.5q35 20 52 32.5t31.5 37t14.5 55.5q0 39 -19.5 69.5t-60.5 30.5q-33 0 -55.5 -21.5t-22.5 -60.5q0 -12 5 -32.5t1 -34.5q-41 -37 -82 -21.5t-41 66.5q0 57 51.5 103t147.5 46q90 0 139.5 -41t49.5 -106q0 -35 -13.5 -63.5 t-40 -51t-47 -36t-53.5 -29.5q-145 -76 -174 -109h209q55 0 84 43h55l-20 -98q-6 -29 -43 -29h-369z" glyph-name="two.numr" horiz-adv-x="595"/><glyph d="M272 766q-90 0 -145 44t-55 110q0 57 51 57q29 0 40 -11.5t14 -40t5 -36.5q27 -78 94 -78q45 0 72 34t27 89q0 70 -46 88t-100 -12l-20 39l33 12q98 35 98 106q0 84 -72 84q-51 0 -68.5 -46t-2.5 -87q-47 -25 -75 -7.5t-28 56.5q0 53 49.5 91t132.5 38q82 0 129.5 -35.5 t47.5 -89.5q0 -74 -97 -108q66 -2 101 -39t35 -90q0 -74 -64 -121t-156 -47z" glyph-name="three.numr" horiz-adv-x="573"/><glyph d="M193 776v33q45 4 59 17.5t14 50.5v38h-215v64l252 315l72 -18v-311h76v-50h-76v-38q0 -37 16.5 -50.5t59.5 -17.5v-33h-258zM131 965h135v172z" glyph-name="four.numr" horiz-adv-x="532"/><glyph d="M272 754q-90 0 -145 44t-55 109q0 53 51 54q29 0 40 -11.5t14 -38t5 -34.5q27 -78 94 -78q45 0 72 33.5t27 89.5q0 59 -32 97t-83 38q-53 0 -98 -41h-62l21 256h291l39 10l-21 -100h-246l-8 -115q39 47 123 47q76 0 134.5 -47t58.5 -129q0 -84 -63 -134t-157 -50z" glyph-name="five.numr" horiz-adv-x="563"/></font>
</defs>
</svg>
