<svg width="25" height="28" viewBox="0 0 25 28" fill="none" xmlns="http://www.w3.org/2000/svg">
<path d="M9.716 11.746C8.918 11.746 8.288 12.446 8.288 13.3C8.288 14.154 8.932 14.854 9.716 14.854C10.514 14.854 11.144 14.154 11.144 13.3C11.158 12.446 10.514 11.746 9.716 11.746ZM14.826 11.746C14.028 11.746 13.398 12.446 13.398 13.3C13.398 14.154 14.042 14.854 14.826 14.854C15.624 14.854 16.254 14.154 16.254 13.3C16.254 12.446 15.624 11.746 14.826 11.746Z" fill="#FAF8F1"/>
<path d="M21.63 0H2.87C1.288 0 0 1.288 0 2.884V21.812C0 23.408 1.288 24.696 2.87 24.696H18.746L18.004 22.106L19.796 23.772L21.49 25.34L24.5 28V2.884C24.5 1.288 23.212 0 21.63 0ZM16.226 18.284C16.226 18.284 15.722 17.682 15.302 17.15C17.136 16.632 17.836 15.484 17.836 15.484C17.262 15.862 16.716 16.128 16.226 16.31C15.526 16.604 14.854 16.8 14.196 16.912C12.852 17.164 11.62 17.094 10.57 16.898C9.772 16.744 9.086 16.52 8.512 16.296C8.19 16.17 7.84 16.016 7.49 15.82C7.448 15.792 7.406 15.778 7.364 15.75C7.336 15.736 7.322 15.722 7.308 15.708C7.056 15.568 6.916 15.47 6.916 15.47C6.916 15.47 7.588 16.59 9.366 17.122C8.946 17.654 8.428 18.284 8.428 18.284C5.334 18.186 4.158 16.156 4.158 16.156C4.158 11.648 6.174 7.994 6.174 7.994C8.19 6.482 10.108 6.524 10.108 6.524L10.248 6.692C7.728 7.42 6.566 8.526 6.566 8.526C6.566 8.526 6.874 8.358 7.392 8.12C8.89 7.462 10.08 7.28 10.57 7.238C10.654 7.224 10.724 7.21 10.808 7.21C11.662 7.098 12.628 7.07 13.636 7.182C14.966 7.336 16.394 7.728 17.85 8.526C17.85 8.526 16.744 7.476 14.364 6.748L14.56 6.524C14.56 6.524 16.478 6.482 18.494 7.994C18.494 7.994 20.51 11.648 20.51 16.156C20.51 16.156 19.32 18.186 16.226 18.284Z" fill="#FAF8F1"/>
</svg>
