<svg width="300" height="300" viewBox="0 0 300 300" fill="none" xmlns="http://www.w3.org/2000/svg">
  <circle cx="150" cy="150" r="150" fill="#D08E39" />
  <path fill-rule="evenodd" clip-rule="evenodd"
    d="M244.64 150.314C246.79 152.06 248.243 154.519 248.733 157.245C248.828 158.038 248.838 158.839 248.762 159.634C248.553 160.262 248.553 160.769 248.553 161.337C248.379 162.438 248.129 163.526 247.807 164.593C247.148 166.819 246.14 168.927 244.819 170.836C244.572 171.196 244.257 171.607 244.04 171.89C243.969 171.983 243.908 172.062 243.864 172.121C243.871 172.164 243.889 172.227 243.912 172.308C243.983 172.559 244.102 172.982 244.102 173.525C244.454 175.707 244.554 177.922 244.401 180.126C244.105 184.387 243.096 188.568 241.414 192.493C239.738 196.598 237.106 200.244 233.737 203.128L233.349 203.456L232.811 203.665C228.646 205.212 224.372 206.45 220.026 207.37C215.554 208.413 210.964 208.865 206.374 208.714H206.016H205.598C196.107 205.659 186.31 203.656 176.383 202.739C173.681 202.554 170.995 202.175 168.347 201.604C165.662 200.895 163.028 200.007 160.461 198.946C156.458 197.512 152.367 196.334 148.214 195.421C146.261 198.149 145.359 201.49 145.674 204.831C145.971 208.507 149.283 214.833 151.656 219.365C152.156 220.319 152.614 221.194 152.993 221.947C155.663 227.869 156.633 234.417 155.794 240.858C154.955 247.299 152.341 253.38 148.244 258.421C141.778 244.902 129.656 238.486 118.8 232.741C103.173 224.47 90.1721 217.589 100.449 192.912C103.355 185.694 105.153 177.762 106.625 171.264C107.877 165.74 108.894 161.254 110.157 159.127V159.306C109.317 164.249 109.317 169.298 110.157 174.242C110.55 176.558 111.425 178.767 112.726 180.724C114.079 182.507 115.898 183.882 117.983 184.697C122.489 186.481 127.247 187.55 132.083 187.863C134.562 188.222 137.041 188.222 139.55 188.222H139.551C140.877 188.212 142.204 188.271 143.524 188.401C144.838 188.52 146.182 188.67 147.497 188.879C152.707 189.72 157.842 190.979 162.851 192.643C167.348 194.428 172.116 195.438 176.95 195.63C187.226 196.435 197.372 198.44 207.181 201.604C211.105 201.74 215.032 201.439 218.891 200.708C219.859 200.523 220.814 200.309 221.764 200.096C222.191 200 222.617 199.905 223.043 199.812C229.764 197.841 237.441 187.415 228.659 188.401C226.22 188.515 223.793 188.815 221.4 189.297C219.232 189.739 217.53 190.145 216.094 190.488C211.711 191.534 209.801 191.989 204.672 191.089C201.05 189.835 197.288 189.032 193.47 188.7C196.669 186.641 200.466 185.716 204.253 186.071C207.052 186.425 209.89 186.303 212.647 185.712C214.04 185.315 215.46 184.549 216.994 183.721C218.225 183.058 219.529 182.354 220.952 181.769C225.005 180.491 229.252 179.935 233.498 180.126C234.558 179.011 235.34 177.662 235.781 176.188C236.222 174.714 236.31 173.157 236.037 171.643C235.178 170.337 233.871 169.392 232.363 168.984C231.768 168.853 231.012 168.706 230.148 168.538C225.716 167.678 218.445 166.267 215.545 163.518C213.544 161.606 212.468 155.781 219.518 154.168C223.245 153.512 227.046 153.381 230.809 153.779C232.423 153.959 236.814 154.377 237.829 153.54C237.145 151.169 229.405 146.932 221.699 142.713C214.942 139.014 208.211 135.329 206.285 132.929C197.707 124.188 190.506 114.197 184.926 103.296C183.117 98.7376 179.693 95.0051 175.308 92.8107C180.519 92.4293 185.687 93.9821 189.825 97.1721C190.423 97.6673 191.183 99.025 192.158 100.765C194.888 105.636 199.296 113.503 206.494 113.811C207.252 113.884 208.016 113.749 208.704 113.422C205.142 110.062 202.737 106.008 200.484 102.212C197.068 96.4566 194.004 91.2926 187.794 90.0327C187.701 89.9961 187.608 89.9596 187.515 89.9234C186.098 89.3683 184.769 88.8481 183.283 88.091L179.071 86L170.707 81.9374C165.187 79.2698 159.5 76.9648 153.68 75.037C147.924 73.1464 141.988 71.855 135.966 71.1835C134.652 71.0341 132.889 70.855 131.665 70.855C130.511 70.8588 129.375 71.1351 128.349 71.6615C127.636 71.9599 126.822 72.3781 126.003 72.7983C125.347 73.1352 124.688 73.4734 124.077 73.7525C123.812 73.8735 123.546 73.9945 123.28 74.1156C122.164 74.6229 121.04 75.1338 119.955 75.6643C114.497 78.3051 109.348 81.541 104.601 85.313C101.039 87.8263 97.9112 90.9036 95.3403 94.4239C99.8308 94.0981 104.341 94.6771 108.603 96.1266C102.127 96.4364 95.7816 98.0607 89.9529 100.901C84.1242 103.74 78.9343 107.737 74.6989 112.646C67.0218 120.861 61.0474 162.771 69.7401 173.853C73.9838 171.867 79.7218 162.159 86.2421 151.128C96.2907 134.127 108.198 113.983 119.357 114.109C112.636 120.114 107.438 136.245 102.241 154.317C98.0587 168.984 83.8694 202.441 74.9079 203.247C71.4129 203.456 70.1285 201.783 67.7686 198.378L65.797 195.69C62.3508 190.9 59.7261 185.569 58.0303 179.917C56.465 174.384 55.5232 168.693 55.2224 162.95C54.9183 157.303 55.0481 151.64 55.6107 146.013C56.2166 140.436 57.1543 134.899 58.4187 129.434C59.6771 123.963 61.3039 118.584 63.2878 113.333C63.8255 111.989 64.3631 110.674 65.0502 109.33C65.3988 108.577 65.7981 107.848 66.2451 107.149C66.7588 106.447 67.3282 105.788 67.9478 105.178C70.1274 103.105 72.5919 101.355 75.2665 99.9801C79.1798 97.9388 83.3492 96.4318 87.6632 95.4993C89.0269 92.441 90.8951 89.6337 93.1897 87.1949C95.4589 84.8178 97.9273 82.6391 100.568 80.6828C105.632 76.6684 111.121 73.2224 116.938 70.4068C118.312 69.6899 120.104 68.8834 121.299 68.3755C121.93 68.1074 122.594 67.7643 123.327 67.3858C123.982 67.0475 124.692 66.6809 125.481 66.3144C127.265 65.466 129.212 65.0175 131.187 65C132.876 65.0045 134.562 65.1244 136.235 65.3585C142.663 66.0602 149.001 67.4318 155.144 69.451C161.193 71.4677 167.109 73.8621 172.858 76.6202L181.342 80.7426L185.554 82.8335C186.582 83.3897 187.896 83.8941 189.326 84.4431C189.432 84.4839 189.539 84.5249 189.646 84.5662C191.199 85.1636 192.633 85.7909 194.187 86.5675C195.027 86.998 195.835 87.4872 196.606 88.0313C197.341 88.6259 198.039 89.2643 198.697 89.9431C200.985 92.4315 202.989 95.1667 204.672 98.0981C204.857 98.4226 205.042 98.746 205.226 99.0679C208.174 104.23 210.913 109.027 215.186 111.839L218.174 113.811C218.122 113.977 218.052 114.138 217.965 114.289L217.337 115.454L214.35 116.977C213.758 117.264 213.298 117.766 213.066 118.381C212.954 118.657 212.894 118.95 212.886 119.247V121.159C212.902 122.169 212.771 123.175 212.498 124.146C212.376 124.538 212.234 124.884 212.108 125.189C211.927 125.629 211.781 125.985 211.781 126.267C211.695 126.57 211.695 126.891 211.781 127.193C212.623 130.981 223.639 137.345 232.738 142.602C238.494 145.927 243.483 148.809 244.64 150.314ZM170.946 124.057C171.274 128.209 166.226 131.465 160.252 132.152C152.574 132.899 148.691 128.687 149.557 123.37C150.424 118.052 146.69 118.052 144.18 121.04C144.125 121.112 144.047 121.163 143.96 121.187C143.872 121.211 143.779 121.206 143.694 121.172C143.61 121.138 143.539 121.078 143.492 121C143.445 120.922 143.424 120.831 143.434 120.741C144.688 111.869 149.886 111.481 152.216 111.481C159.225 111.978 166.168 113.159 172.947 115.006C173.136 115.051 173.308 115.149 173.444 115.287C173.58 115.425 173.675 115.598 173.719 115.788C173.762 115.977 173.752 116.174 173.69 116.358C173.627 116.541 173.515 116.704 173.365 116.828C172.355 117.708 171.598 118.842 171.173 120.113C170.748 121.384 170.669 122.745 170.946 124.057Z"
    fill="#002522" />
</svg>