<svg width="30" height="30" viewBox="0 0 30 30" fill="none" xmlns="http://www.w3.org/2000/svg">
  <path fill-rule="evenodd" clip-rule="evenodd"
    d="M17.9882 7.65848C17.8364 6.47434 16.8126 5.54565 15.5902 5.54565H9.14392C7.81843 5.54565 6.72656 6.63752 6.72656 7.96301V19.1282L8.33813 17.4868V12.7977H12.9422L14.5245 11.1862H8.33813V7.96301C8.33813 7.50772 8.68862 7.15722 9.14392 7.15722H15.5902C16.0455 7.15722 16.396 7.50772 16.396 7.96301V9.28008L17.9882 7.65848ZM18.0076 10.4934L15.7451 12.7977H16.396V21.6614H8.33813V20.3415L6.72656 21.9829V23.2729H18.0076V22.4671V17.6324H19.6191V20.8556C19.6191 22.1811 20.711 23.2729 22.0365 23.2729C23.362 23.2729 24.4538 22.1811 24.4538 20.8556V12.7914V12.6592C24.4538 12.0183 24.1987 11.4032 23.7456 10.9501L20.6241 7.82853L19.4951 8.97839L21.0891 10.5724C20.229 10.9444 19.6191 11.8018 19.6191 12.7914C19.6191 14.1169 20.711 15.2088 22.0365 15.2088C22.32 15.2088 22.5885 15.1492 22.8423 15.0577V20.8556C22.8423 21.3109 22.4918 21.6614 22.0365 21.6614C21.5812 21.6614 21.2307 21.3109 21.2307 20.8556V17.6324C21.2307 16.7517 20.4999 16.0209 19.6191 16.0209H18.0076V12.7977V11.1862V10.4934ZM22.8423 12.7914C22.8423 12.3361 22.4918 11.9856 22.0365 11.9856C21.5812 11.9856 21.2307 12.3361 21.2307 12.7914C21.2307 13.2467 21.5812 13.5972 22.0365 13.5972C22.4918 13.5972 22.8423 13.2467 22.8423 12.7914Z"
    fill="#476565" />
  <circle cx="15" cy="15" r="14" stroke="#E7296D" stroke-width="2" />
  <path d="M5.18311 25.1831L25 5" stroke="#E7296D" stroke-width="2" />
</svg>