<svg width="1440" height="583" viewBox="0 0 1440 583" fill="none" xmlns="http://www.w3.org/2000/svg">
  <path
    d="M1685.68 154.072C1670.88 158.057 1658.17 165.459 1644.7 171.153C1637.68 174 1628.95 174.379 1621.55 175.138C1594.99 178.365 1568.62 182.35 1541.87 183.679C1523.66 184.628 1501.65 183.869 1484.39 188.424C1459.53 194.877 1439.99 198.483 1414.57 197.344C1398.63 196.585 1382.5 196.205 1366.95 193.928C1355.56 192.22 1345.7 186.905 1336.21 180.453C1327.67 174.759 1320.84 173.24 1310.03 171.722C1289.16 168.875 1270 161.473 1249.51 157.867C1236.23 155.4 1224.85 152.363 1211.19 151.414C1187.85 149.706 1170.58 131.107 1147.06 129.588C1132.64 128.639 1118.41 128.26 1103.99 127.121C1083.31 125.413 1063.39 120.668 1044.04 113.266C1036.07 110.23 1026.78 108.901 1019.57 104.916C1014.44 102.069 1007.99 100.171 1003.25 96.7545C997.178 92.3893 992.246 87.265 985.226 85.1773C973.084 81.3815 960.941 78.155 948.989 74.1694C934.191 69.2348 921.1 59.935 906.301 55.38C899.282 53.2923 892.641 52.1535 885.811 49.3067C878.792 46.4598 872.151 43.2334 865.701 39.2478C854.697 32.7948 842.745 27.8603 831.172 22.3563C814.855 14.7647 815.235 -1.74719 795.314 0.150722C784.5 1.09968 773.116 0.909887 762.492 2.99759C749.97 5.46488 738.208 9.0709 725.496 10.3994C713.733 11.5382 701.781 12.677 691.156 18.5605C681.86 23.6849 674.081 30.7071 663.457 33.554C650.935 36.9703 636.327 34.3132 623.426 36.5907C618.493 37.5396 613.939 39.4375 609.196 40.9559C574.667 52.1536 538.62 55.5698 502.383 55.0004C488.343 54.8106 477.719 48.5475 464.249 52.3433C442.241 58.6065 421.182 69.6143 398.794 74.9285C376.028 80.2427 350.795 88.0241 329.546 98.0831C314.747 105.105 299.38 108.711 283.254 112.128C269.404 115.164 259.159 119.15 246.258 124.844C234.116 130.158 221.214 133.384 208.883 138.888C200.724 142.684 191.618 146.1 183.08 148.947C163.918 155.21 139.634 153.882 122.938 164.89C107.95 174.759 104.346 186.336 85.7528 187.854C71.7133 188.993 58.4328 192.599 44.5831 195.256C31.3025 197.724 17.8322 197.154 4.17224 197.154C-35.1003 197.154 -43.8275 193.548 -81.9617 187.285C-114.404 181.971 -152.538 201.899 -185.36 198.673C-212.111 196.015 -261.249 203.607 -288 203.038V583H1761V147.429C1748.86 148.568 1736.72 150.086 1724.38 150.655C1710.91 151.225 1698.58 150.465 1685.68 154.072Z"
    fill="url(#paint0_linear_2333_77901)" />
  <defs>
    <linearGradient id="paint0_linear_2333_77901" x1="736.5" y1="17.8001" x2="736.5" y2="514.818"
      gradientUnits="userSpaceOnUse">
      <stop stop-color="#F5DAB7" />
      <stop offset="1" stop-color="#FDF6ED" />
    </linearGradient>
  </defs>
</svg>