<svg width="46" height="65" viewBox="0 0 46 65" fill="none" xmlns="http://www.w3.org/2000/svg">
  <path d="M44.2529 14.5281L42.5869 16.1853L44.2529 17.8425L45.9189 16.1853L44.2529 14.5281Z" fill="#002825" />
  <path d="M36.1957 7.3742L35.3936 8.17212L36.1957 8.97003L36.9979 8.17211L36.1957 7.3742Z" fill="#002825" />
  <path
    d="M44.0969 2.3726C44.7556 2.3726 45.2895 1.84147 45.2895 1.1863C45.2895 0.531124 44.7556 0 44.0969 0C43.4382 0 42.9043 0.531124 42.9043 1.1863C42.9043 1.84147 43.4382 2.3726 44.0969 2.3726Z"
    fill="#002825" />
  <path
    d="M39.6464 41.4636C39.6464 37.76 38.4248 34.2879 36.1559 31.4523L41.3626 26.5914L39.85 25.0868C35.6033 20.8625 30.0184 18.4899 24.0555 18.3162V15.0467C24.0555 14.2076 23.3574 13.5132 22.5138 13.5132C21.6703 13.5132 20.9722 14.2076 20.9722 15.0467V18.3741C19.5469 18.5188 18.1507 18.8081 16.7836 19.1843V15.0467C16.7836 14.2076 16.0855 13.5132 15.2419 13.5132C14.3984 13.5132 13.7294 14.2076 13.7294 15.0467V20.3127C5.643 23.9584 0 32.06 0 41.4636C0 54.1367 10.2679 64.4662 22.9501 64.6687H41.1008V54.6865L36.3886 51.1565C38.4829 48.3499 39.6464 44.9935 39.6464 41.4636ZM28.8549 45.5143C29.6985 44.3859 30.193 42.9681 30.193 41.4636C30.193 40.1326 29.7857 38.8595 29.1167 37.8179L33.0145 34.23C34.5852 36.3133 35.4287 38.8306 35.4287 41.4636C35.4287 44.0966 34.5852 46.5849 33.0145 48.6682L28.8549 45.5143ZM26.0334 41.4636C26.0334 42.9392 24.8117 44.1544 23.3283 44.1544C21.8448 44.1544 20.6231 42.9392 20.6231 41.4636C20.6231 39.9879 21.8448 38.7727 23.3283 38.7727C24.8408 38.7437 26.0334 39.959 26.0334 41.4636ZM36.9413 60.5022H23.3283C12.7695 60.5022 4.15953 51.9666 4.15953 41.4346C4.15953 34.4036 7.99909 28.2696 13.7003 24.9422V31.1919C13.7003 32.031 14.3984 32.7254 15.2419 32.7254C16.0855 32.7254 16.7836 32.031 16.7836 31.1919V23.5533C18.8197 22.801 21.0304 22.396 23.3283 22.396C27.7205 22.396 31.88 23.8427 35.2542 26.5335L25.9171 35.098C25.1026 34.7798 24.23 34.6062 23.3283 34.6062C19.5469 34.6062 16.4345 37.6732 16.4345 41.4636C16.4345 45.2539 19.5178 48.3209 23.3283 48.3209C23.9973 48.3209 24.6663 48.2341 25.2772 48.0316L36.9413 56.7697V60.5022Z"
    fill="#002825" />
</svg>