<svg width="82" height="82" viewBox="0 0 82 82" fill="none" xmlns="http://www.w3.org/2000/svg">
    <rect x="3.1582" y="36.0889" width="54.7367" height="54.7367" rx="4" transform="rotate(-30 3.1582 36.0889)"
        fill="#06462B" />
    <path d="M6.25992 28.8294L4.85979 36.9306L76.0367 56.0024L77.4368 47.9012L6.25992 28.8294Z" fill="#06462B" />
    <rect x="4.55859" y="27.9873" width="54.7367" height="54.7367" rx="4" transform="rotate(-30 4.55859 27.9873)"
        fill="#22C480" />
    <path fill-rule="evenodd" clip-rule="evenodd"
        d="M50.3551 31.8048C50.3725 31.1812 50.0513 30.597 49.5155 30.2775C48.9798 29.958 48.3131 29.9532 47.7728 30.2649L42.7032 33.1918L35.127 20.0695L34.4661 43.6669C34.4483 44.2904 34.7693 44.8747 35.3051 45.194C35.841 45.5133 36.5076 45.5176 37.0475 45.2053L42.1171 42.2784L49.6933 55.4008L50.3551 31.8048Z"
        stroke="#002522" stroke-width="3" stroke-linecap="round" stroke-linejoin="round" />
    <rect x="4.55811" y="27.9873" width="54.7367" height="54.7367" rx="4" transform="rotate(-30 4.55811 27.9873)"
        fill="url(#paint0_linear_821_25823)" />
    <defs>
        <linearGradient id="paint0_linear_821_25823" x1="60.7539" y1="21.0138" x2="6.93796" y2="81.5341"
            gradientUnits="userSpaceOnUse">
            <stop stop-color="#CCFFEA" stop-opacity="0.58" />
            <stop offset="1" stop-color="#3FCA90" stop-opacity="0" />
        </linearGradient>
    </defs>
</svg>