<svg width="82" height="82" viewBox="0 0 82 82" fill="none" xmlns="http://www.w3.org/2000/svg">
  <path fill-rule="evenodd" clip-rule="evenodd"
    d="M6.76219 26.0958C6.0877 26.4853 5.63485 27.1111 5.44789 27.8083L5.44167 27.8315L5.44753 27.8093L3.6224 34.6207C3.43534 35.3183 3.51446 36.0872 3.90409 36.7621L4.93664 32.9085L4.93676 32.9085L6.76219 26.0958ZM49.5185 1.41046L6.76234 26.0958L5.72968 29.9497L4.9369 32.9084L3.90424 36.7623L28.5895 79.5185C29.3686 80.8679 31.094 81.3302 32.4433 80.5512L34.2688 73.7385C32.9194 74.5176 31.194 74.0553 30.415 72.706L6.81263 31.8254L47.6932 8.22305C49.0425 7.44404 50.7679 7.90636 51.5469 9.25571L53.3723 2.44308C52.5933 1.09373 50.8679 0.631409 49.5185 1.41046ZM53.3725 2.44312L78.0578 45.1994L78.0576 45.2004C78.4466 45.8748 78.5257 46.6429 78.3391 47.3399L78.3241 47.396C78.3294 47.3776 78.3345 47.3593 78.3395 47.3409L76.5143 54.1523C76.3276 54.85 75.8746 55.4763 75.1997 55.866L75.1998 55.8659L32.4435 80.5512L34.2689 73.7386L75.1494 50.1362L51.5471 9.25575L53.3725 2.44312ZM49.5618 24.6582C50.3841 24.1835 51.4355 24.4652 51.9102 25.2875L51.91 25.2882C52.147 25.6992 52.1951 26.1675 52.0812 26.5923L52.0726 26.6242C52.0757 26.6135 52.0787 26.6027 52.0816 26.592L50.2562 33.4046C50.1423 33.8294 49.8663 34.2108 49.4553 34.4481L49.4552 34.4483L28.5917 46.4939L29.8501 41.7975L29.8499 41.7976L28.5915 46.4941C27.5024 47.1203 26.3047 46.7705 25.5732 46.1291L25.5733 46.1287C24.8476 45.4923 24.4265 44.4799 24.5918 43.4605L26.4172 36.6478C26.2519 37.6674 26.6731 38.6798 27.3989 39.3162L27.3988 39.3165C27.736 39.6122 28.1723 39.8459 28.6513 39.9506L29.1657 36.8138L30.9911 30.0012L30.915 30.4653L30.9163 30.4605L30.9162 30.4609L30.9164 30.4604L30.0927 35.4834L30.0926 35.4839L30.0174 35.9422L49.5617 24.6583L49.5618 24.6582ZM26.6868 35.005C27.002 34.8437 27.3698 34.778 27.7461 34.8395L27.746 34.8397C28.683 34.9934 29.318 35.8775 29.1643 36.8144L30.9898 30.0018C31.1434 29.0651 30.5088 28.1813 29.5723 28.0272L29.5724 28.027C28.6354 27.8734 27.7513 28.5084 27.5977 29.4454L25.8613 35.9256C25.8213 36.0312 25.7912 36.1423 25.7723 36.258L25.8613 35.9256L25.8635 35.92L25.7731 36.2573L25.6834 36.8039L25.6807 36.8142L24.5908 43.4608L26.4163 36.6481L26.5059 36.1015L26.5086 36.0913L26.6868 35.005ZM56.3904 35.8351L56.3903 35.8355L52.5276 38.6145L53.3692 35.4735C54.4582 34.8445 55.6583 35.1934 56.3904 35.8351ZM52.5274 38.6146L52.5276 38.6145L52.1106 40.1706L52.1104 40.1707L52.5274 38.6146ZM52.5274 38.6146L33.8016 52.0866L32.4026 57.3076C31.5803 57.7824 30.5289 57.5006 30.0542 56.6784L30.6834 54.3299L31.8796 49.8657L32.5089 47.5172L32.5089 47.5172L53.369 35.4736L52.5274 38.6146ZM57.2762 39.0835L57.371 38.5064L55.5456 45.319L55.4515 45.8917L55.451 45.8934L55.2767 46.9539C54.9604 47.1165 54.591 47.1828 54.213 47.1206L54.2129 47.121C53.2763 46.9668 52.6419 46.0826 52.7959 45.1459L50.9704 51.9585C50.8165 52.8954 51.4511 53.7797 52.388 53.9337L52.3881 53.9334C53.3248 54.087 54.2088 53.4524 54.3628 52.5157L56.0995 46.0342C56.1393 45.929 56.1693 45.8183 56.1882 45.7031L56.0995 46.0342L56.0991 46.0352L56.188 45.7035L56.2818 45.133L56.283 45.1284L57.277 39.0805L57.2762 39.0835ZM31.7075 48.5612C31.5938 48.9861 31.6421 49.4544 31.8794 49.8654L30.0539 56.678C29.8165 56.2668 29.7683 55.7982 29.8823 55.3731L31.7075 48.5612Z"
    fill="#0E4974" />
  <path fill-rule="evenodd" clip-rule="evenodd"
    d="M6.76219 26.0958C6.0877 26.4853 5.63485 27.1111 5.44789 27.8083L5.44167 27.8315L5.44753 27.8093L3.6224 34.6207C3.43534 35.3183 3.51446 36.0872 3.90409 36.7621L4.93664 32.9085L4.93676 32.9085L6.76219 26.0958ZM49.5185 1.41046L6.76234 26.0958L5.72968 29.9497L4.9369 32.9084L3.90424 36.7623L28.5895 79.5185C29.3686 80.8679 31.094 81.3302 32.4433 80.5512L34.2688 73.7385C32.9194 74.5176 31.194 74.0553 30.415 72.706L6.81263 31.8254L47.6932 8.22305C49.0425 7.44404 50.7679 7.90636 51.5469 9.25571L53.3723 2.44308C52.5933 1.09373 50.8679 0.631409 49.5185 1.41046ZM53.3725 2.44312L78.0578 45.1994L78.0576 45.2004C78.4466 45.8748 78.5257 46.6429 78.3391 47.3399L78.3241 47.396C78.3294 47.3776 78.3345 47.3593 78.3395 47.3409L76.5143 54.1523C76.3276 54.85 75.8746 55.4763 75.1997 55.866L75.1998 55.8659L32.4435 80.5512L34.2689 73.7386L75.1494 50.1362L51.5471 9.25575L53.3725 2.44312ZM49.5618 24.6582C50.3841 24.1835 51.4355 24.4652 51.9102 25.2875L51.91 25.2882C52.147 25.6992 52.1951 26.1675 52.0812 26.5923L52.0726 26.6242C52.0757 26.6135 52.0787 26.6027 52.0816 26.592L50.2562 33.4046C50.1423 33.8294 49.8663 34.2108 49.4553 34.4481L49.4552 34.4483L28.5917 46.4939L29.8501 41.7975L29.8499 41.7976L28.5915 46.4941C27.5024 47.1203 26.3047 46.7705 25.5732 46.1291L25.5733 46.1287C24.8476 45.4923 24.4265 44.4799 24.5918 43.4605L26.4172 36.6478C26.2519 37.6674 26.6731 38.6798 27.3989 39.3162L27.3988 39.3165C27.736 39.6122 28.1723 39.8459 28.6513 39.9506L29.1657 36.8138L30.9911 30.0012L30.915 30.4653L30.9163 30.4605L30.9162 30.4609L30.9164 30.4604L30.0927 35.4834L30.0926 35.4839L30.0174 35.9422L49.5617 24.6583L49.5618 24.6582ZM26.6868 35.005C27.002 34.8437 27.3698 34.778 27.7461 34.8395L27.746 34.8397C28.683 34.9934 29.318 35.8775 29.1643 36.8144L30.9898 30.0018C31.1434 29.0651 30.5088 28.1813 29.5723 28.0272L29.5724 28.027C28.6354 27.8734 27.7513 28.5084 27.5977 29.4454L25.8613 35.9256C25.8213 36.0312 25.7912 36.1423 25.7723 36.258L25.8613 35.9256L25.8635 35.92L25.7731 36.2573L25.6834 36.8039L25.6807 36.8142L24.5908 43.4608L26.4163 36.6481L26.5059 36.1015L26.5086 36.0913L26.6868 35.005ZM56.3904 35.8351L56.3903 35.8355L52.5276 38.6145L53.3692 35.4735C54.4582 34.8445 55.6583 35.1934 56.3904 35.8351ZM52.5274 38.6146L52.5276 38.6145L52.1106 40.1706L52.1104 40.1707L52.5274 38.6146ZM52.5274 38.6146L33.8016 52.0866L32.4026 57.3076C31.5803 57.7824 30.5289 57.5006 30.0542 56.6784L30.6834 54.3299L31.8796 49.8657L32.5089 47.5172L32.5089 47.5172L53.369 35.4736L52.5274 38.6146ZM57.2762 39.0835L57.371 38.5064L55.5456 45.319L55.4515 45.8917L55.451 45.8934L55.2767 46.9539C54.9604 47.1165 54.591 47.1828 54.213 47.1206L54.2129 47.121C53.2763 46.9668 52.6419 46.0826 52.7959 45.1459L50.9704 51.9585C50.8165 52.8954 51.4511 53.7797 52.388 53.9337L52.3881 53.9334C53.3248 54.087 54.2088 53.4524 54.3628 52.5157L56.0995 46.0342C56.1393 45.929 56.1693 45.8183 56.1882 45.7031L56.0995 46.0342L56.0991 46.0352L56.188 45.7035L56.2818 45.133L56.283 45.1284L57.277 39.0805L57.2762 39.0835ZM31.7075 48.5612C31.5938 48.9861 31.6421 49.4544 31.8794 49.8654L30.0539 56.678C29.8165 56.2668 29.7683 55.7982 29.8823 55.3731L31.7075 48.5612Z"
    fill="url(#paint0_linear_821_25836)" fill-opacity="0.42" />
  <rect x="4.3186" y="27.5068" width="55.013" height="55.013" rx="2" transform="rotate(-30 4.3186 27.5068)"
    fill="#2280C4" />
  <rect x="4.3186" y="27.5068" width="55.013" height="55.013" rx="2" transform="rotate(-30 4.3186 27.5068)"
    fill="url(#paint1_linear_821_25836)" fill-opacity="0.38" />
  <path fill-rule="evenodd" clip-rule="evenodd"
    d="M51.909 25.2875C52.3837 26.1098 52.102 27.1612 51.2797 27.6359L30.4162 39.6815C29.3271 40.3078 28.1294 39.9579 27.3979 39.3165C26.6722 38.6801 26.251 37.6677 26.4163 36.6481L27.5973 29.4454C27.751 28.5084 28.6351 27.8734 29.572 28.0271C30.509 28.1807 31.144 29.0648 30.9904 30.0017L30.0163 35.9422L49.5606 24.6583C50.3828 24.1835 51.4342 24.4653 51.909 25.2875Z"
    fill="#FAF8F1" />
  <path fill-rule="evenodd" clip-rule="evenodd"
    d="M54.2127 47.121C53.2758 46.967 52.6411 46.0826 52.7951 45.1457L53.7703 39.2118L34.2276 50.4948C33.4053 50.9695 32.3539 50.6878 31.8792 49.8655C31.4045 49.0432 31.6862 47.9918 32.5084 47.5171L53.3686 35.4735C53.3688 35.4733 53.3683 35.4737 53.3686 35.4735C54.4575 34.8445 55.6577 35.1934 56.3898 35.835C57.1162 36.4717 57.5376 37.4854 57.3708 38.5059L56.1879 45.7034C56.0339 46.6403 55.1496 47.2749 54.2127 47.121Z"
    fill="#FAF8F1" />
  <defs>
    <linearGradient id="paint0_linear_821_25836" x1="-21.5836" y1="43.616" x2="84.0776" y2="53.6266"
      gradientUnits="userSpaceOnUse">
      <stop stop-color="#186BA7" />
      <stop offset="0.473958" />
      <stop offset="1" stop-color="#06263E" />
    </linearGradient>
    <linearGradient id="paint1_linear_821_25836" x1="59.3318" y1="22.0068" x2="9.33178" y2="81.0068"
      gradientUnits="userSpaceOnUse">
      <stop stop-color="#DEEDF2" />
      <stop offset="1" stop-color="#2280C4" />
    </linearGradient>
  </defs>
</svg>