<svg width="82" height="82" viewBox="13 13 82 82" fill="none" xmlns="http://www.w3.org/2000/svg">
  <path fill-rule="evenodd" clip-rule="evenodd"
    d="M17.8782 41.314C17.9092 39.9434 18.6445 38.6245 19.9282 37.9079L59.7356 15.6859C61.6645 14.6091 64.1012 15.2998 65.178 17.2288L87.4 57.0362C88.0291 58.1631 88.0549 59.4633 87.583 60.5644L86.4455 66.1235C86.4359 67.5165 85.6978 68.8648 84.3946 69.5923L44.5872 91.8144C42.6582 92.8912 40.2216 92.2004 39.1448 90.2715L16.9227 50.4641C16.3042 49.356 16.2689 48.0805 16.7164 46.9914L17.8782 41.314Z"
    fill="#D08E39" />
  <path fill-rule="evenodd" clip-rule="evenodd"
    d="M82.9827 58.8576L87.681 60.0834L86.4452 66.1226C86.4359 67.516 85.6978 68.8647 84.3943 69.5924L44.5869 91.8145C42.6579 92.8913 40.2213 92.2005 39.1445 90.2716L16.9224 50.4642C16.3041 49.3565 16.2686 48.0814 16.7158 46.9925L17.9229 41.0936L23.009 42.4853L58.2727 22.7997C60.2017 21.7229 62.6383 22.4137 63.7151 24.3427L82.9827 58.8576Z"
    fill="#5C390D" />
  <mask id="mask0_820_20957" style="mask-type:alpha" maskUnits="userSpaceOnUse" x="16" y="22" width="72" height="71">
    <path fill-rule="evenodd" clip-rule="evenodd"
      d="M82.9827 58.8576L87.681 60.0834L86.4452 66.1226C86.4359 67.516 85.6978 68.8647 84.3943 69.5924L44.5869 91.8145C42.6579 92.8913 40.2213 92.2005 39.1445 90.2716L16.9224 50.4642C16.3041 49.3565 16.2686 48.0814 16.7158 46.9925L17.9229 41.0936L23.009 42.4853L58.2727 22.7997C60.2017 21.7229 62.6383 22.4137 63.7151 24.3427L82.9827 58.8576Z"
      fill="url(#paint0_radial_820_20957)" />
  </mask>
  <g mask="url(#mask0_820_20957)">
    <path d="M12.1693 45.6903L17.911 35.7452L41.1839 76.586L36.6143 89.8598L12.1693 45.6903Z"
      fill="url(#paint1_linear_820_20957)" />
    <path d="M88.9828 68.8233L90.4526 58.6218L48.0431 82.315L47.8993 93.282L88.9828 68.8233Z"
      fill="url(#paint2_linear_820_20957)" />
  </g>
  <rect x="89.3499" y="60.5264" width="53.59" height="53.59" rx="4" transform="rotate(150.828 89.3499 60.5264)"
    fill="#D08E39" />
  <rect x="89.3499" y="60.5264" width="53.59" height="53.59" rx="4" transform="rotate(150.828 89.3499 60.5264)"
    fill="url(#paint3_linear_820_20957)" />
  <path fill-rule="evenodd" clip-rule="evenodd"
    d="M71.5803 56.1901L64.8957 59.9218C64.4342 60.1794 63.8512 60.0141 63.5936 59.5526L59.862 52.868C59.6043 52.4065 59.7696 51.8236 60.2311 51.5659L66.9158 47.8343C67.3772 47.5767 67.9602 47.7419 68.2178 48.2034L71.9494 54.8881C72.2071 55.3496 72.0418 55.9325 71.5803 56.1901ZM74.4562 53.4887C75.4867 55.3346 74.8256 57.6664 72.9797 58.6969L66.295 62.4285C64.4491 63.459 62.1173 62.7979 61.0869 60.952L57.3552 54.2673C56.3247 52.4214 56.9858 50.0897 58.8317 49.0592L65.5164 45.3275C67.3623 44.2971 69.6941 44.9581 70.7246 46.8041L74.4562 53.4887ZM62.2512 39.4785L55.5665 43.2101C55.1051 43.4677 54.5221 43.3025 54.2645 42.841L50.5328 36.1563C50.2752 35.6948 50.4405 35.1119 50.902 34.8543L57.5866 31.1226C58.0481 30.865 58.6311 31.0303 58.8887 31.4917L62.6203 38.1764C62.8779 38.6379 62.7127 39.2208 62.2512 39.4785ZM65.1271 36.777C66.1575 38.623 65.4965 40.9547 63.6506 41.9852L56.9659 45.7169C55.12 46.7473 52.7882 46.0863 51.7577 44.2403L48.0261 37.5557C46.9956 35.7098 47.6567 33.378 49.5026 32.3475L56.1873 28.6159C58.0332 27.5854 60.365 28.2465 61.3954 30.0924L65.1271 36.777ZM48.184 69.2509L54.8686 65.5192C55.3301 65.2616 55.4954 64.6787 55.2378 64.2172L51.5061 57.5325C51.2485 57.0711 50.6656 56.9058 50.2041 57.1634L43.5194 60.8951C43.0579 61.1527 42.8927 61.7356 43.1503 62.1971L46.8819 68.8818C47.1396 69.3432 47.7225 69.5085 48.184 69.2509ZM56.268 68.026C58.1139 66.9955 58.775 64.6638 57.7445 62.8178L54.0129 56.1332C52.9824 54.2872 50.6506 53.6262 48.8047 54.6567L42.1201 58.3883C40.2741 59.4188 39.6131 61.7505 40.6435 63.5965L44.3752 70.2811C45.4057 72.1271 47.7374 72.7881 49.5833 71.7576L56.268 68.026ZM45.5395 48.8076L38.8549 52.5392C38.3934 52.7968 37.8104 52.6316 37.5528 52.1701L33.8212 45.4854C33.5636 45.0239 33.7288 44.441 34.1903 44.1834L40.875 40.4517C41.3365 40.1941 41.9194 40.3594 42.177 40.8209L45.9087 47.5055C46.1663 47.967 46.001 48.55 45.5395 48.8076ZM48.4154 46.1062C49.4459 47.9521 48.7848 50.2839 46.9389 51.3143L40.2542 55.046C38.4083 56.0764 36.0765 55.4154 35.0461 53.5695L31.3144 46.8848C30.284 45.0389 30.945 42.7071 32.7909 41.6766L39.4756 37.945C41.3215 36.9145 43.6533 37.5756 44.6838 39.4215L48.4154 46.1062Z"
    fill="#FAF8F1" />
  <defs>
    <radialGradient id="paint0_radial_820_20957" cx="0" cy="0" r="1" gradientUnits="userSpaceOnUse"
      gradientTransform="translate(46.0581 102.351) rotate(-77.0235) scale(55.4981 53.6279)">
      <stop stop-color="#B4721F" />
      <stop offset="1" stop-color="#5C390D" />
    </radialGradient>
    <linearGradient id="paint1_linear_820_20957" x1="14.4422" y1="36.3945" x2="33.8765" y2="82.2733"
      gradientUnits="userSpaceOnUse">
      <stop stop-color="#B4721F" />
      <stop offset="1" stop-color="#5C390D" />
    </linearGradient>
    <linearGradient id="paint2_linear_820_20957" x1="96.9425" y1="61.9267" x2="48.3155" y2="81.2898"
      gradientUnits="userSpaceOnUse">
      <stop stop-color="#B4721F" />
      <stop offset="1" stop-color="#5C390D" />
    </linearGradient>
    <linearGradient id="paint3_linear_820_20957" x1="89.9873" y1="114.336" x2="140.845" y2="68.8905"
      gradientUnits="userSpaceOnUse">
      <stop stop-color="#FFEBD1" stop-opacity="0.5" />
      <stop offset="1" stop-color="#D08E39" stop-opacity="0" />
    </linearGradient>
  </defs>
</svg>