<svg width="82" height="82" viewBox="0 0 82 82" fill="none" xmlns="http://www.w3.org/2000/svg">
  <path fill-rule="evenodd" clip-rule="evenodd"
    d="M6.50023 28.4998L4.30772 34.8438L4.39209 34.8664C3.73289 35.7935 3.63254 37.0571 4.23853 38.1067L28.9308 80.875C29.7593 82.3099 31.594 82.8015 33.0289 81.9731L75.7973 57.2808C76.6382 56.7953 77.1552 55.9641 77.2723 55.0703L77.2737 55.0707L79.697 49.1264L73.554 47.3953L52.203 10.4144C51.3746 8.9795 49.5398 8.48787 48.105 9.3163L12.1302 30.0863L6.50023 28.4998Z"
    fill="url(#paint0_radial_820_24301)" />
  <rect x="5.30469" y="28.5742" width="55.3846" height="55.3846" rx="3" transform="rotate(-30 5.30469 28.5742)"
    fill="#EEB218" />
  <path fill-rule="evenodd" clip-rule="evenodd"
    d="M23.2253 48.6292C24.9224 40.8158 29.4393 31.5355 36.6701 27.5219C43.7613 23.2666 54.0568 23.9951 61.6773 26.4289C63.3384 26.9683 64.3238 28.6751 63.9604 30.3833C62.2984 38.032 57.8677 47.4165 50.5133 51.4991C43.3005 55.8268 32.9597 54.9706 25.5084 52.5836C23.8473 52.0443 22.8618 50.3374 23.2253 48.6292ZM38.9855 31.3805C44.1961 28.2537 52.4006 28.4173 59.3329 30.4192C57.6343 37.3032 53.7409 44.5605 48.3292 47.5646C48.2851 47.5891 48.2413 47.6144 48.1981 47.6404C42.8903 50.8251 34.6596 50.5671 27.8524 48.5943C29.5798 41.594 33.5404 34.4058 38.854 31.4564C38.8983 31.4318 38.9421 31.4065 38.9855 31.3805ZM42.383 37.4108L42.3841 37.4102C42.9404 37.0889 43.6016 37.0018 44.2222 37.1681C44.8428 37.3345 45.3718 37.7407 45.6927 38.2973L49.5911 36.0494L45.6933 38.2983C46.3621 39.4574 45.9647 40.9391 44.8057 41.608C43.6467 42.2768 42.165 41.8796 41.496 40.7207C40.827 39.5617 41.2242 38.0799 42.383 37.4108ZM47.055 45.5055C50.3664 43.5944 51.5018 39.3609 49.5911 36.0494C48.6736 34.4583 47.1614 33.2972 45.3875 32.8216C43.6135 32.346 41.7233 32.595 40.133 33.5137C36.822 35.4254 35.6874 39.6591 37.5987 42.9703C39.51 46.2815 43.7436 47.4165 47.055 45.5055Z"
    fill="#002522" />
  <rect x="5.30469" y="28.5742" width="55.3846" height="55.3846" rx="3" transform="rotate(-30 5.30469 28.5742)"
    fill="url(#paint1_linear_820_24301)" />
  <defs>
    <radialGradient id="paint0_radial_820_24301" cx="0" cy="0" r="1" gradientUnits="userSpaceOnUse"
      gradientTransform="translate(45.5 19.5) rotate(106.28) scale(58.86 58.6724)">
      <stop stop-color="#C69B2D" />
      <stop offset="1" stop-color="#3C2C03" />
    </radialGradient>
    <linearGradient id="paint1_linear_820_24301" x1="58.8432" y1="28.5742" x2="7.15084" y2="82.1127"
      gradientUnits="userSpaceOnUse">
      <stop stop-color="white" stop-opacity="0.36" />
      <stop offset="1" stop-color="white" stop-opacity="0" />
    </linearGradient>
  </defs>
</svg>