<svg width="30" height="30" viewBox="0 0 30 30" fill="none" xmlns="http://www.w3.org/2000/svg">
  <path fill-rule="evenodd" clip-rule="evenodd"
    d="M9.38501 2.02042C8.83272 2.02042 8.38501 1.5727 8.38501 1.02042C8.38501 0.468132 8.83272 0.020416 9.38501 0.0204163L28.385 0.0204151C28.4302 0.0204164 28.4747 0.0234139 28.5183 0.0292234C28.8018 0.00502572 29.0909 0.0993881 29.3049 0.313311C29.4436 0.452012 29.532 0.622319 29.5704 0.802218C29.7043 0.972315 29.7842 1.18691 29.7842 1.42017L29.7842 20.4202C29.7842 20.9725 29.3365 21.4202 28.7842 21.4202C28.2319 21.4202 27.7842 20.9724 27.7842 20.4202L27.7842 3.2482L1.74537 29.287C1.34508 29.6873 0.703999 29.6952 0.313475 29.3047C-0.077048 28.9142 -0.069133 28.2731 0.331155 27.8728L26.1835 2.02042L9.38501 2.02042Z"
    fill="#00211E" />
</svg>