<svg width="46" height="48" viewBox="0 0 46 48" fill="none" xmlns="http://www.w3.org/2000/svg">
  <path fill-rule="evenodd" clip-rule="evenodd"
    d="M29.4477 0.109121L2.88797 2.0707C0.745591 2.2563 0 3.65628 0 5.33466V34.4511C0 35.7583 0.463995 36.8767 1.58398 38.3711L7.82711 46.4894C8.8527 47.7966 9.78549 48.0766 11.7439 47.9838L42.5867 46.1166C45.1947 45.931 45.9419 44.7166 45.9419 42.6638V9.90741C45.9419 8.84662 45.5227 8.54102 44.2891 7.63543C44.2181 7.5843 44.1472 7.5331 44.0763 7.48184L35.5996 1.5091C33.5484 0.0179217 32.71 -0.170876 29.4477 0.109121ZM12.4415 9.37141C9.92309 9.54101 9.35189 9.57941 7.92151 8.41622L4.28475 5.52346C3.91515 5.14906 4.10075 4.68187 5.03194 4.58907L30.5644 2.72349C32.7084 2.53629 33.8252 3.28348 34.6636 3.93628L39.0427 7.10904C39.2299 7.20344 39.6955 7.76183 39.1355 7.76183L12.7679 9.34901L12.4415 9.37141ZM9.50549 42.3838V14.5762C9.50549 13.3618 9.87829 12.8018 10.9951 12.7074L41.2795 10.9346C42.3067 10.8418 42.7707 11.4946 42.7707 12.7074V40.3295C42.7707 41.5438 42.5835 42.571 40.9067 42.6638L11.9263 44.3438C10.2495 44.4366 9.50549 43.8782 9.50549 42.3838ZM38.1132 16.0673C38.2988 16.9073 38.1132 17.7473 37.2732 17.8433L35.8764 18.1201V38.6511C34.6636 39.3039 33.5468 39.6767 32.614 39.6767C31.1228 39.6767 30.75 39.2095 29.6333 37.8111L20.499 23.4401V37.3439L23.3885 37.9983C23.3885 37.9983 23.3885 39.6783 21.0574 39.6783L14.6302 40.0511C14.443 39.6767 14.6302 38.7439 15.2814 38.5583L16.9598 38.0927V19.7089L14.6302 19.5201C14.443 18.6801 14.9086 17.4673 16.2142 17.3729L23.1101 16.9089L32.614 31.4656V18.5873L30.1917 18.3089C30.0045 17.2801 30.75 16.5329 31.6812 16.4417L38.1132 16.0673Z"
    fill="#002825" />
</svg>