<svg width="64" height="64" viewBox="-2 -1 64 64" fill="none" xmlns="http://www.w3.org/2000/svg">
  <g filter="url(#filter0_ddd_1042_24560)">
    <path
      d="M18.1058 19.1058C16.7813 14.1625 16.119 11.6909 16.9693 9.63815C17.0842 9.36085 17.2178 9.09207 17.3693 8.83367C17.5064 8.59961 17.6582 8.37405 17.8237 8.15836C19.1762 6.39563 21.6479 5.73336 26.5911 4.40882C31.5343 3.08428 34.006 2.42201 36.0587 3.27229C36.5872 3.49119 37.0847 3.77842 37.5385 4.12664C39.3012 5.47924 39.9635 7.95086 41.288 12.8941C42.6126 17.8373 43.2749 20.309 42.4246 22.3617C42.3205 22.6129 42.2011 22.8571 42.0669 23.0929C41.9189 23.3532 41.7529 23.6034 41.5702 23.8415C40.2176 25.6042 37.746 26.2665 32.8028 27.591C27.8595 28.9156 25.3879 29.5778 23.3352 28.7276C22.8067 28.5087 22.3092 28.2214 21.8554 27.8732C20.0926 26.5206 19.4304 24.049 18.1058 19.1058Z"
      fill="url(#paint0_linear_1042_24560)" />
    <path fill-rule="evenodd" clip-rule="evenodd"
      d="M38.2472 12.9723C38.4906 13.081 38.6868 13.2734 38.8003 13.5146C38.8289 13.5859 38.8498 13.6602 38.8626 13.736C38.8588 13.7995 38.8714 13.8467 38.8856 13.8995C38.8968 14.0062 38.9007 14.1135 38.8972 14.2207C38.8915 14.4441 38.8502 14.6651 38.7751 14.8755C38.761 14.9151 38.742 14.9611 38.7289 14.9928C38.7245 15.0032 38.7209 15.0121 38.7182 15.0187C38.72 15.0226 38.7232 15.028 38.7273 15.0349C38.7402 15.0565 38.7619 15.0928 38.7754 15.1433C38.8624 15.3373 38.9269 15.5407 38.9676 15.7495C39.0462 16.1529 39.0565 16.5667 38.998 16.9735C38.9443 17.3969 38.7905 17.8013 38.5492 18.1533L38.5213 18.1935L38.4765 18.2263C38.1278 18.4738 37.7614 18.6953 37.3803 18.8891C36.9906 19.0975 36.5752 19.2538 36.1448 19.3541L36.1114 19.363L36.0726 19.3734C35.1143 19.3258 34.1537 19.3836 33.208 19.5457C32.9522 19.5958 32.6931 19.6274 32.4328 19.6404C32.1655 19.6413 31.8985 19.6244 31.6335 19.5896C31.2256 19.5561 30.816 19.5485 30.4072 19.567C30.2937 19.8693 30.2931 20.2024 30.4055 20.505C30.5246 20.8394 30.9902 21.3449 31.3236 21.707C31.3938 21.7833 31.4582 21.8532 31.5122 21.9138C31.9079 22.3978 32.1611 22.9823 32.2436 23.6019C32.3261 24.2216 32.2345 24.852 31.9792 25.4226C31.0415 24.327 29.7548 24.0325 28.6025 23.7688C26.944 23.3892 25.564 23.0734 25.9046 20.5235C25.995 19.7802 25.9645 18.998 25.9396 18.3574C25.9184 17.8127 25.9012 17.3704 25.9655 17.1411L25.97 17.1578C26.0151 17.6382 26.1409 18.1076 26.342 18.5462C26.4363 18.7518 26.5726 18.9352 26.7423 19.0848C26.9125 19.2168 27.1159 19.2993 27.33 19.3231C27.7933 19.3768 28.2621 19.3576 28.7195 19.2663C28.9589 19.2379 29.1893 19.1761 29.4226 19.1136L29.4226 19.1136C29.5457 19.0796 29.6704 19.0521 29.7964 19.0313C29.9216 19.0097 30.0502 18.9901 30.1776 18.9768C30.6829 18.9252 31.1916 18.9143 31.6986 18.9442C32.1612 18.9981 32.6295 18.9733 33.0837 18.8707C34.0589 18.6896 35.052 18.6233 36.0427 18.6731C36.4108 18.5879 36.7684 18.4622 37.1088 18.2981C37.1943 18.2568 37.2777 18.2131 37.3607 18.1696C37.398 18.1501 37.4352 18.1306 37.4725 18.1114C38.0482 17.7607 38.5021 16.6004 37.7103 16.9108C37.4865 16.9822 37.2684 17.0705 37.0579 17.1749C36.8674 17.27 36.7193 17.3501 36.5943 17.4177C36.213 17.6241 36.0468 17.714 35.5475 17.7582C35.1796 17.7317 34.8099 17.7508 34.4467 17.815C34.6928 17.544 35.0227 17.3634 35.3836 17.3021C35.6526 17.2652 35.9133 17.1833 36.155 17.0597C36.2745 16.988 36.3874 16.8815 36.5095 16.7663C36.6073 16.674 36.711 16.5761 36.8287 16.4863C37.1737 16.2665 37.5546 16.1091 37.9541 16.0211C38.0248 15.891 38.0639 15.7461 38.0681 15.5981C38.0724 15.4501 38.0418 15.3032 37.9788 15.1692C37.8664 15.0692 37.7214 15.0139 37.571 15.0136C37.5125 15.0162 37.4385 15.0214 37.354 15.0273C36.9206 15.0578 36.2095 15.1077 35.8715 14.9243C35.6378 14.7965 35.3928 14.2818 36.0079 13.9562C36.3381 13.8024 36.6881 13.6956 37.0479 13.6389C37.2023 13.6154 37.6209 13.5449 37.6945 13.4418C37.5718 13.2384 36.7468 13.0373 35.9253 12.8371C35.2051 12.6616 34.4876 12.4867 34.2488 12.3115C33.2338 11.7127 32.3155 10.9633 31.5253 10.0889C31.2436 9.71026 30.8323 9.44858 30.37 9.35384C30.8449 9.18859 31.364 9.20419 31.8281 9.39766C31.896 9.42881 32.0005 9.53607 32.1345 9.67349C32.5096 10.0583 33.1153 10.6798 33.792 10.5292C33.8644 10.517 33.932 10.4855 33.9879 10.438C33.5731 10.2144 33.2484 9.89747 32.9444 9.60066C32.4836 9.15074 32.0701 8.74704 31.4615 8.78459C31.4519 8.78351 31.4424 8.78244 31.4329 8.78138C31.2873 8.76508 31.1508 8.74981 30.9938 8.71645L30.5502 8.62698L29.6715 8.45767C29.092 8.34718 28.5059 8.27458 27.9169 8.24033C27.3347 8.20796 26.7507 8.23578 26.1742 8.32334C26.0483 8.3422 25.88 8.36944 25.7662 8.39994C25.6591 8.42903 25.5603 8.48301 25.478 8.5575C25.4192 8.60301 25.3539 8.66216 25.2883 8.72161C25.2357 8.76926 25.1829 8.81711 25.1331 8.85828C25.1114 8.87612 25.0897 8.89399 25.068 8.91189C24.9769 8.98683 24.8851 9.06233 24.7975 9.13867C24.3559 9.52009 23.9578 9.94915 23.6105 10.418C23.342 10.7404 23.1279 11.1043 22.9766 11.4956C23.3859 11.3535 23.8196 11.295 24.252 11.3235C23.6576 11.5136 23.1082 11.8227 22.6372 12.2318C22.1661 12.641 21.7832 13.1417 21.5117 13.7036C21.0027 14.6584 21.4912 18.7031 22.5753 19.5168C22.9203 19.2264 23.2119 18.1811 23.5433 16.9932C24.0539 15.1626 24.659 12.9935 25.6995 12.7273C25.2243 13.4529 25.1429 15.0818 25.1099 16.8912C25.0865 18.3588 24.6008 21.8223 23.7878 22.1205C23.4682 22.2269 23.3071 22.1034 23.0029 21.8457L22.7527 21.6449C22.313 21.2854 21.9363 20.8553 21.6379 20.3721C21.3545 19.8968 21.1252 19.3912 20.9542 18.8649C20.7853 18.3475 20.6563 17.8179 20.5684 17.2807C20.4859 16.7472 20.4351 16.2092 20.4165 15.6697C20.3972 15.1298 20.4145 14.5892 20.4681 14.0517C20.4846 13.9133 20.5018 13.7778 20.5322 13.6357C20.5459 13.557 20.5648 13.4793 20.589 13.4032C20.6193 13.3252 20.6558 13.2497 20.6982 13.1775C20.8492 12.9306 21.0346 12.7065 21.249 12.5121C21.5619 12.2249 21.912 11.9809 22.2898 11.7868C22.3404 11.4685 22.4441 11.161 22.5967 10.8772C22.7484 10.5997 22.9236 10.3357 23.1203 10.0881C23.4911 9.58876 23.9155 9.1317 24.3861 8.7251C24.4959 8.62423 24.6425 8.50461 24.7409 8.42764C24.7928 8.387 24.8461 8.33857 24.9047 8.28513C24.9572 8.23737 25.014 8.18562 25.0783 8.13188C25.223 8.0086 25.3928 7.9184 25.5759 7.86758C25.733 7.82594 25.8928 7.79506 26.0541 7.77517C26.6692 7.68028 27.2925 7.64993 27.9138 7.68461C28.5263 7.72141 29.1359 7.79663 29.739 7.90983L30.6303 8.08172L31.0739 8.17118C31.1834 8.19725 31.3181 8.21142 31.4647 8.22684C31.4755 8.22799 31.4865 8.22914 31.4975 8.23031C31.6568 8.24715 31.8057 8.26974 31.9694 8.30325C32.0582 8.32235 32.1456 8.34768 32.2308 8.37905C32.3139 8.41602 32.3947 8.45797 32.4728 8.50469C32.7474 8.67902 33.0018 8.88337 33.2313 9.11395C33.2566 9.13948 33.2819 9.16494 33.307 9.1903C33.7096 9.59677 34.0837 9.97446 34.551 10.1294L34.8778 10.2382C34.8772 10.255 34.8746 10.2717 34.8702 10.2879L34.841 10.4118L34.6012 10.6278C34.5533 10.6692 34.5231 10.7274 34.5168 10.7903C34.5133 10.8187 34.515 10.8475 34.5217 10.8753L34.5693 11.053C34.5959 11.1465 34.6088 11.2433 34.6076 11.3404C34.606 11.3798 34.6014 11.4155 34.5973 11.447C34.5915 11.4925 34.5868 11.5291 34.5938 11.5554C34.5934 11.5857 34.6014 11.6155 34.6169 11.6415C34.7894 11.9726 35.972 12.2898 36.9487 12.5518C37.5666 12.7176 38.1022 12.8612 38.2472 12.9723ZM30.7428 12.3677C30.8768 12.7455 30.4886 13.1739 29.9503 13.3866C29.2553 13.6473 28.7894 13.3525 28.7375 12.8366C28.6856 12.3208 28.3385 12.4138 28.1796 12.7539C28.1762 12.762 28.1703 12.7688 28.1628 12.7732C28.1552 12.7776 28.1464 12.7794 28.1377 12.7784C28.129 12.7773 28.1209 12.7735 28.1146 12.7674C28.1083 12.7614 28.1041 12.7534 28.1028 12.7448C27.9984 11.8888 28.4719 11.7233 28.6885 11.6652C29.3524 11.5369 30.0272 11.4737 30.7034 11.4765C30.7221 11.4761 30.7405 11.4809 30.7566 11.4903C30.7727 11.4997 30.7859 11.5135 30.7946 11.53C30.8034 11.5465 30.8073 11.5651 30.8061 11.5837C30.8049 11.6024 30.7985 11.6203 30.7877 11.6355C30.7157 11.7425 30.6736 11.8668 30.6657 11.9955C30.6578 12.1242 30.6844 12.2527 30.7428 12.3677Z"
      fill="#001413" />
  </g>
  <defs>
    <filter id="filter0_ddd_1042_24560" x="0.589233" y="0.89209" width="58.2153" height="60.2153"
      filterUnits="userSpaceOnUse" color-interpolation-filters="sRGB">
      <feFlood flood-opacity="0" result="BackgroundImageFix" />
      <feColorMatrix in="SourceAlpha" type="matrix" values="0 0 0 0 0 0 0 0 0 0 0 0 0 0 0 0 0 0 127 0"
        result="hardAlpha" />
      <feOffset dy="2" />
      <feGaussianBlur stdDeviation="2" />
      <feColorMatrix type="matrix" values="0 0 0 0 0 0 0 0 0 0.0784314 0 0 0 0 0.0745098 0 0 0 0.34 0" />
      <feBlend mode="normal" in2="BackgroundImageFix" result="effect1_dropShadow_1042_24560" />
      <feColorMatrix in="SourceAlpha" type="matrix" values="0 0 0 0 0 0 0 0 0 0 0 0 0 0 0 0 0 0 127 0"
        result="hardAlpha" />
      <feOffset dy="6" />
      <feGaussianBlur stdDeviation="4" />
      <feColorMatrix type="matrix" values="0 0 0 0 0 0 0 0 0 0.0784314 0 0 0 0 0.0745098 0 0 0 0.24 0" />
      <feBlend mode="normal" in2="effect1_dropShadow_1042_24560" result="effect2_dropShadow_1042_24560" />
      <feColorMatrix in="SourceAlpha" type="matrix" values="0 0 0 0 0 0 0 0 0 0 0 0 0 0 0 0 0 0 127 0"
        result="hardAlpha" />
      <feOffset dy="16" />
      <feGaussianBlur stdDeviation="8" />
      <feColorMatrix type="matrix" values="0 0 0 0 0 0 0 0 0 0.0784314 0 0 0 0 0.0745098 0 0 0 0.14 0" />
      <feBlend mode="normal" in2="effect2_dropShadow_1042_24560" result="effect3_dropShadow_1042_24560" />
      <feBlend mode="normal" in="SourceGraphic" in2="effect3_dropShadow_1042_24560" result="shape" />
    </filter>
    <linearGradient id="paint0_linear_1042_24560" x1="28.475" y1="28.5033" x2="35.0759" y2="2.13532"
      gradientUnits="userSpaceOnUse">
      <stop stop-color="#D08E39" />
      <stop offset="1" stop-color="#E3BB88" />
    </linearGradient>
  </defs>
</svg>