<svg width="111" height="114" viewBox="0 0 111 114" fill="none" xmlns="http://www.w3.org/2000/svg">
<g filter="url(#filter0_ddd_17719_334494)">
<path d="M86.0795 12.2516L86.5411 7.53566C86.5553 7.45697 86.597 7.38575 86.6588 7.33444C86.7206 7.28313 86.7987 7.255 86.8793 7.255C86.9599 7.255 87.038 7.28313 87.0998 7.33444C87.1616 7.38575 87.2033 7.45697 87.2175 7.53566L87.6684 12.2409C87.699 12.605 87.8616 12.9458 88.126 13.2003C88.3905 13.4547 88.739 13.6055 89.1069 13.6248L94.2492 13.9335C94.3286 13.9476 94.4004 13.9889 94.4522 14.0502C94.5039 14.1115 94.5323 14.1889 94.5323 14.2689C94.5323 14.3488 94.5039 14.4262 94.4522 14.4875C94.4004 14.5488 94.3286 14.5901 94.2492 14.6042L89.0962 14.9129C88.7304 14.9386 88.3855 15.0916 88.1224 15.3447C87.8592 15.5979 87.6946 15.9351 87.6576 16.2968L87.2067 21.0127C87.1925 21.0914 87.1509 21.1626 87.0891 21.2139C87.0272 21.2653 86.9492 21.2934 86.8686 21.2934C86.7879 21.2934 86.7099 21.2653 86.6481 21.2139C86.5862 21.1626 86.5446 21.0914 86.5304 21.0127L86.0795 16.3075C86.0446 15.9449 85.8806 15.6066 85.617 15.353C85.3535 15.0994 85.0074 14.9472 84.6409 14.9235L79.4986 14.6148C79.4193 14.6008 79.3475 14.5595 79.2957 14.4982C79.244 14.4369 79.2156 14.3595 79.2156 14.2795C79.2156 14.1996 79.244 14.1222 79.2957 14.0608C79.3475 13.9995 79.4193 13.9583 79.4986 13.9442L84.6409 13.6248C85.0072 13.6058 85.3543 13.4565 85.6186 13.2043C85.8828 12.952 86.0464 12.6138 86.0795 12.2516Z" fill="#ED9A26"/>
<path d="M77.8993 34.2556C79.1933 34.0325 80.5126 33.9931 81.8177 34.1385C82.2639 34.221 82.7244 34.1804 83.1489 34.0214L82.988 33.883C79.9074 31.2501 76.5906 28.9019 73.079 26.8677C68.4091 24.1637 65.2636 17.372 64.3404 15.3175C63.6102 13.7246 62.3094 12.4575 60.6903 11.7619C61.4823 11.7135 62.275 11.8468 63.0068 12.1515C63.7385 12.4561 64.3895 12.9238 64.9093 13.5184C65.7252 14.189 68.6775 19.4372 70.2019 19.5862C70.7464 19.5664 71.2868 19.4842 71.8122 19.3414H71.9304L72.6496 19.1711H72.7248L73.2937 19.0327L74.3673 18.724L74.2707 18.6601C72.6389 17.5956 71.5975 15.7752 70.4596 13.8165C69.8606 12.768 69.14 11.7927 68.3125 10.9103C68.0814 10.663 67.8301 10.4351 67.561 10.229C67.2855 10.0295 66.9947 9.85158 66.6914 9.6967C66.1332 9.41992 65.6179 9.19639 65.0704 8.98348C64.5229 8.77057 63.9968 8.57894 63.5996 8.36603L62.0859 7.62088L59.037 6.15181C56.9714 5.17627 54.8491 4.32315 52.6816 3.59693C50.4767 2.87787 48.2032 2.38559 45.8968 2.12787C45.3017 2.05537 44.7033 2.01274 44.1039 2.00013C43.3918 1.99497 42.6876 2.14771 42.0427 2.44721C41.4415 2.71335 40.9691 3.00077 40.5397 3.18175C40.1103 3.36272 39.4662 3.65013 38.9724 3.90562C36.8826 4.90154 34.9097 6.12247 33.0892 7.54635C32.1416 8.24544 31.2514 9.01788 30.4269 9.85641C29.7328 10.5889 29.144 11.4128 28.677 12.3048C29.1691 12.2156 29.6691 12.1764 30.1692 12.1877C31.8768 12.287 33.5614 12.6276 35.1719 13.199C33.669 13.199 25.875 12.7839 21.7204 15.5516C20.9218 16.0847 20.2601 16.7956 19.788 17.6275C19.6162 17.9575 19.3907 18.4366 19.1438 19.0327C19.1126 19.1197 19.0768 19.205 19.0365 19.2882C18.3171 21.1574 17.7324 23.0748 17.2866 25.026C16.4844 28.4142 16.0774 31.8824 16.0735 35.3627C16.0735 35.8949 16.0735 36.4272 16.0735 36.9701C16.0735 37.5131 16.1486 37.875 16.1916 38.3327V38.6202C16.2345 39.0176 16.2882 39.4114 16.3526 39.8018L16.417 40.1744C16.5753 41.1335 16.7904 42.0826 17.0611 43.0167C17.5715 44.6359 18.2933 46.182 19.2082 47.6155C19.6377 48.1371 20.0671 48.35 20.4428 47.8603L20.7112 47.4877C21.0226 47.0513 21.4842 46.4232 22.0424 45.529L22.7295 44.4645V44.4006L23.3844 43.336L23.5347 43.1018C24.0178 42.3247 24.6082 41.4731 25.102 40.5576L25.3275 40.185L25.9931 39.0566L26.1863 38.7372L27.0345 37.2788L27.2384 36.9275C27.4639 36.523 27.6893 36.1185 27.9255 35.714C28.0006 35.5649 28.0865 35.4159 28.1724 35.2669L29.042 33.6701C30.0082 31.871 30.9529 30.0187 31.8117 28.1771C32.2304 27.3041 32.6599 26.4419 33.1215 25.5902C33.7876 24.2971 34.5671 23.0646 35.4511 21.9069C35.9072 21.3109 36.4375 20.7744 37.0292 20.3101C37.6132 19.832 38.3346 19.5488 39.0904 19.5011C36.6857 21.6302 34.646 27.4425 32.9497 33.8297C31.8762 37.9495 32.3915 39.9508 29.2245 49.6594C26.079 59.1763 28.9669 62.6467 32.8102 65.4039C40.7867 70.833 49.2999 70.8863 50.2231 78.1783L50.717 82L52.7138 78.6999C53.4299 77.4911 53.9959 76.2007 54.3993 74.857V74.676L56.0203 75.8683C57.0351 74.0103 57.4562 71.8903 57.2281 69.7895C56.9999 67.6887 56.1332 65.7063 54.7428 64.1051C54.8716 64.3819 55.0004 64.6587 55.1185 64.9461C55.6109 66.0467 55.9712 67.2007 56.1921 68.3846C56.4249 69.6756 56.3289 71.0039 55.913 72.2488L55.3869 73.7286L54.1094 72.7918C53.9172 72.6556 53.7122 72.538 53.4975 72.4405C53.4007 73.1586 53.2573 73.8697 53.0681 74.5695C52.7031 75.7916 52.1875 76.9643 51.5329 78.0612C50.2661 68.012 40.6256 68.3526 35.0539 64.2222C29.4821 60.0918 29.042 55.1737 32.4774 46.668C33.5261 44.0525 34.2891 41.3331 34.7533 38.5563C34.8499 37.9282 34.968 37.3108 35.1075 36.6933C35.1014 36.6047 35.1014 36.5158 35.1075 36.4272L35.2042 35.9801C35.2042 36.9382 35.2042 37.8856 35.3545 38.8224C35.4062 39.7267 35.5869 40.6191 35.8913 41.4731C36.0268 41.8402 36.2348 42.1768 36.5032 42.4631C36.632 42.6015 36.7823 42.7186 36.9862 42.9209C37.1316 43.0817 37.2857 43.2345 37.4479 43.3786C38.1315 43.8937 38.8922 44.2996 39.7024 44.5816C41.4159 45.1751 43.1974 45.5542 45.0057 45.71C46.7449 45.9122 48.5162 45.9548 50.2983 45.9974H50.5667C52.4164 46.008 54.2517 46.3209 55.9989 46.9235C57.561 47.4434 59.1932 47.7269 60.8406 47.7645C64.3065 48.0955 67.7282 48.7841 71.0501 49.8191C72.4664 49.8615 73.8827 49.7364 75.2691 49.4465C76.246 49.2549 77.2123 48.9994 78.1677 48.712C80.3148 47.8071 81.7963 45.348 78.8655 45.678C78.1762 45.7217 77.491 45.8142 76.815 45.9548C75.8381 46.1464 74.8612 46.6574 73.5944 47.0193C72.4029 47.2881 71.1625 47.2552 69.9873 46.9235C68.959 46.5117 67.8725 46.2603 66.7666 46.1784C67.2835 45.8867 67.859 45.7122 68.452 45.6674C69.0532 45.6674 69.6222 45.6674 70.159 45.6674C71.1646 45.7934 72.1845 45.7502 73.1757 45.5396C74.0775 45.2842 75.0115 44.6029 76.1602 44.1451C77.2798 43.6788 78.478 43.426 79.6921 43.3999H79.6062C79.8746 43.3999 80.143 43.3999 80.4221 43.3999C81.2702 42.2289 81.9895 40.9728 81.7104 39.8656C81.3822 39.4265 80.9245 39.0992 80.4007 38.9289C79.7565 38.7053 76.2675 38.0027 75.0973 36.9382C74.6679 36.2356 75.0866 34.841 77.8993 34.2556ZM59.4235 20.2143C59.1176 20.4812 58.8887 20.824 58.7604 21.2075C58.6322 21.5909 58.6091 22.0014 58.6935 22.3966C58.7901 23.6421 57.2871 24.6322 55.4728 24.8238C53.1432 25.0793 51.8979 23.7592 52.2522 22.1837C52.8641 19.5863 51.5221 20.4379 50.6204 21.4811C50.6025 21.5015 50.5785 21.5158 50.5519 21.5218C50.5253 21.5278 50.4975 21.5253 50.4724 21.5147C50.4473 21.504 50.4264 21.4858 50.4124 21.4625C50.3985 21.4393 50.3924 21.4122 50.395 21.3853C50.7814 18.7133 52.3595 18.6069 53.0681 18.6069C55.1986 18.7571 57.3093 19.1137 59.3698 19.6714C59.4221 19.6927 59.4676 19.7278 59.5013 19.7728C59.5351 19.8178 59.5558 19.871 59.5613 19.9268C59.5669 19.9827 59.5569 20.0389 59.5326 20.0896C59.5084 20.1402 59.4706 20.1833 59.4235 20.2143Z" fill="#ED9A26"/>
</g>
<defs>
<filter id="filter0_ddd_17719_334494" x="0.0734863" y="0" width="110.459" height="114" filterUnits="userSpaceOnUse" color-interpolation-filters="sRGB">
<feFlood flood-opacity="0" result="BackgroundImageFix"/>
<feColorMatrix in="SourceAlpha" type="matrix" values="0 0 0 0 0 0 0 0 0 0 0 0 0 0 0 0 0 0 127 0" result="hardAlpha"/>
<feOffset dy="2"/>
<feGaussianBlur stdDeviation="2"/>
<feColorMatrix type="matrix" values="0 0 0 0 0.027451 0 0 0 0 0.0666667 0 0 0 0 0.0666667 0 0 0 0.34 0"/>
<feBlend mode="normal" in2="BackgroundImageFix" result="effect1_dropShadow_17719_334494"/>
<feColorMatrix in="SourceAlpha" type="matrix" values="0 0 0 0 0 0 0 0 0 0 0 0 0 0 0 0 0 0 127 0" result="hardAlpha"/>
<feOffset dy="6"/>
<feGaussianBlur stdDeviation="4"/>
<feColorMatrix type="matrix" values="0 0 0 0 0.027451 0 0 0 0 0.0666667 0 0 0 0 0.0666667 0 0 0 0.24 0"/>
<feBlend mode="normal" in2="effect1_dropShadow_17719_334494" result="effect2_dropShadow_17719_334494"/>
<feColorMatrix in="SourceAlpha" type="matrix" values="0 0 0 0 0 0 0 0 0 0 0 0 0 0 0 0 0 0 127 0" result="hardAlpha"/>
<feOffset dy="16"/>
<feGaussianBlur stdDeviation="8"/>
<feColorMatrix type="matrix" values="0 0 0 0 0.027451 0 0 0 0 0.0666667 0 0 0 0 0.0666667 0 0 0 0.3 0"/>
<feBlend mode="normal" in2="effect2_dropShadow_17719_334494" result="effect3_dropShadow_17719_334494"/>
<feBlend mode="normal" in="SourceGraphic" in2="effect3_dropShadow_17719_334494" result="shape"/>
</filter>
</defs>
</svg>
