<svg width="956" height="380" viewBox="0 0 956 380" fill="none" xmlns="http://www.w3.org/2000/svg">
<path d="M294.804 89.0113L296.393 72.7154C296.442 72.4435 296.586 72.1974 296.799 72.0201C297.011 71.8428 297.28 71.7456 297.558 71.7456C297.835 71.7456 298.104 71.8428 298.317 72.0201C298.529 72.1974 298.673 72.4435 298.722 72.7154L300.274 88.9745C300.379 90.2327 300.939 91.4104 301.849 92.2895C302.76 93.1687 303.959 93.6898 305.226 93.7565L322.928 94.8233C323.201 94.872 323.448 95.0147 323.626 95.2266C323.804 95.4384 323.902 95.7058 323.902 95.9821C323.902 96.2583 323.804 96.5258 323.626 96.7376C323.448 96.9494 323.201 97.0922 322.928 97.1408L305.189 98.2076C303.93 98.2965 302.743 98.8249 301.837 99.6998C300.931 100.575 300.364 101.74 300.237 102.99L298.685 119.285C298.636 119.557 298.492 119.804 298.28 119.981C298.067 120.158 297.798 120.255 297.521 120.255C297.243 120.255 296.974 120.158 296.762 119.981C296.549 119.804 296.405 119.557 296.356 119.285L294.804 103.026C294.684 101.774 294.12 100.605 293.212 99.7284C292.305 98.8522 291.114 98.326 289.852 98.2443L272.15 97.1776C271.877 97.129 271.63 96.9862 271.452 96.7744C271.274 96.5626 271.176 96.2952 271.176 96.0189C271.176 95.7427 271.274 95.4751 271.452 95.2633C271.63 95.0515 271.877 94.9088 272.15 94.8602L289.852 93.7565C291.113 93.6909 292.308 93.1749 293.218 92.3033C294.127 91.4317 294.69 90.263 294.804 89.0113V89.0113Z" fill="#DBEDEC"/>
<path d="M266.645 165.046C271.099 164.275 275.641 164.139 280.134 164.642C281.67 164.927 283.255 164.787 284.716 164.237L284.162 163.759C273.558 154.661 262.14 146.547 250.052 139.517C233.976 130.174 223.148 106.705 219.97 99.6054C217.456 94.1013 212.978 89.7227 207.405 87.3192C210.131 87.152 212.86 87.6127 215.379 88.6653C217.898 89.7179 220.139 91.3342 221.928 93.3887C224.737 95.7062 234.9 113.841 240.147 114.356C242.022 114.288 243.882 114.004 245.691 113.51H246.097L248.573 112.922H248.832L250.791 112.444L254.486 111.377L254.154 111.156C248.537 107.478 244.952 101.187 241.034 94.4188C238.973 90.7959 236.492 87.4254 233.643 84.3764C232.848 83.5219 231.983 82.7343 231.056 82.0221C230.108 81.333 229.107 80.718 228.063 80.1828C226.141 79.2264 224.367 78.454 222.483 77.7183C220.598 76.9826 218.787 76.3204 217.42 75.5847L212.209 73.0098L201.713 67.9334C194.603 64.5624 187.297 61.6145 179.835 59.105C172.245 56.6203 164.419 54.9192 156.479 54.0286C154.431 53.7781 152.371 53.6308 150.308 53.5872C147.856 53.5694 145.432 54.0972 143.212 55.1321C141.143 56.0518 139.516 57.045 138.038 57.6703C136.56 58.2957 134.343 59.2889 132.643 60.1717C125.449 63.6131 118.657 67.8321 112.391 72.7523C109.129 75.168 106.064 77.8372 103.226 80.7347C100.837 83.2659 98.8096 86.1129 97.2019 89.1953C98.8959 88.8871 100.617 88.7514 102.339 88.7906C108.217 89.1337 114.016 90.3105 119.56 92.2852C114.386 92.2852 87.5565 90.8505 73.2545 100.415C70.5056 102.257 68.2276 104.713 66.6025 107.588C66.0112 108.728 65.235 110.384 64.385 112.444C64.2777 112.744 64.1544 113.039 64.0155 113.326C61.5392 119.785 59.5262 126.411 57.9917 133.154C55.2303 144.861 53.8291 156.846 53.8157 168.872C53.8157 170.711 53.8157 172.551 53.8157 174.427C53.8157 176.303 54.0743 177.553 54.2221 179.135V180.128C54.37 181.502 54.5548 182.863 54.7766 184.211L54.9983 185.499C55.5433 188.813 56.2836 192.093 57.2156 195.321C58.9725 200.916 61.4573 206.258 64.6067 211.212C66.085 213.014 67.5633 213.75 68.8568 212.058L69.7807 210.77C70.8524 209.262 72.4415 207.092 74.3632 204.002L76.7284 200.323V200.103L78.9827 196.424L79.5001 195.615C81.1631 192.929 83.1955 189.987 84.8955 186.823L85.6717 185.536L87.9629 181.636L88.6281 180.533L91.5478 175.493L92.2499 174.279C93.026 172.882 93.8019 171.484 94.6149 170.086C94.8736 169.571 95.1694 169.056 95.4651 168.541L98.4585 163.023C101.785 156.806 105.036 150.406 107.993 144.042C109.434 141.026 110.913 138.046 112.502 135.103C114.795 130.635 117.478 126.376 120.521 122.375C122.091 120.316 123.917 118.462 125.954 116.858C127.964 115.205 130.447 114.227 133.049 114.062C124.771 121.419 117.75 141.504 111.911 163.575C108.215 177.811 109.989 184.726 99.0867 218.274C88.2586 251.16 98.1998 263.152 111.43 272.68C138.888 291.44 168.194 291.624 171.372 316.822L173.073 330.028L179.946 318.624C182.412 314.447 184.36 309.988 185.748 305.345V304.72L191.329 308.84C194.822 302.419 196.272 295.094 195.486 287.834C194.701 280.575 191.717 273.725 186.931 268.192C187.374 269.148 187.818 270.105 188.224 271.098C189.919 274.901 191.159 278.889 191.92 282.98C192.721 287.441 192.391 292.031 190.959 296.333L189.148 301.446L184.751 298.209C184.089 297.738 183.383 297.332 182.644 296.995C182.311 299.476 181.817 301.934 181.166 304.352C179.909 308.575 178.134 312.627 175.881 316.417C171.52 281.692 138.334 282.869 119.154 268.597C99.9736 254.324 98.4585 237.329 110.284 207.938C113.895 198.9 116.521 189.503 118.119 179.908C118.452 177.737 118.858 175.604 119.338 173.47C119.318 173.164 119.318 172.857 119.338 172.55L119.671 171.005C119.671 174.316 119.671 177.59 120.189 180.827C120.366 183.952 120.989 187.036 122.036 189.987C122.503 191.255 123.219 192.418 124.143 193.408C124.586 193.886 125.104 194.291 125.806 194.989C126.306 195.545 126.837 196.073 127.395 196.571C129.748 198.351 132.367 199.754 135.156 200.728C141.054 202.779 147.187 204.089 153.412 204.627C159.399 205.326 165.497 205.473 171.631 205.62H172.555C178.923 205.657 185.241 206.738 191.255 208.821C196.632 210.617 202.251 211.597 207.922 211.727C219.853 212.87 231.632 215.25 243.067 218.826C247.942 218.973 252.818 218.541 257.591 217.539C260.954 216.877 264.28 215.994 267.569 215.001C274.96 211.874 280.06 203.376 269.971 204.517C267.598 204.668 265.239 204.987 262.912 205.473C259.549 206.135 256.186 207.901 251.826 209.152C247.724 210.081 243.454 209.967 239.408 208.821C235.869 207.397 232.129 206.529 228.322 206.246C230.101 205.238 232.082 204.635 234.124 204.48C236.193 204.48 238.152 204.48 240 204.48C243.461 204.916 246.972 204.766 250.384 204.039C253.489 203.156 256.704 200.802 260.658 199.22C264.512 197.609 268.637 196.735 272.817 196.645H272.521C273.445 196.645 274.369 196.645 275.33 196.645C278.249 192.598 280.725 188.258 279.764 184.432C278.634 182.914 277.059 181.783 275.256 181.195C273.038 180.423 261.027 177.995 256.999 174.316C255.521 171.888 256.963 167.069 266.645 165.046ZM203.044 116.527C201.991 117.449 201.203 118.633 200.761 119.958C200.32 121.284 200.24 122.702 200.531 124.068C200.863 128.372 195.69 131.793 189.444 132.455C181.425 133.338 177.138 128.776 178.357 123.332C180.464 114.356 175.844 117.299 172.74 120.904C172.678 120.975 172.596 121.024 172.504 121.045C172.413 121.065 172.317 121.057 172.231 121.02C172.144 120.983 172.072 120.92 172.024 120.84C171.976 120.759 171.955 120.666 171.964 120.573C173.294 111.34 178.727 110.972 181.166 110.972C188.5 111.491 195.766 112.723 202.859 114.651C203.039 114.724 203.196 114.845 203.312 115.001C203.428 115.156 203.499 115.34 203.518 115.533C203.537 115.726 203.503 115.921 203.42 116.096C203.336 116.271 203.206 116.42 203.044 116.527Z" fill="#EF9C32"/>
<path d="M409.535 273.365H493.373V266.169C472.606 264.627 466.709 261.286 466.709 251.52V139.982C466.709 126.875 469.016 124.048 486.194 124.048C504.397 124.048 510.038 130.216 517.473 150.519H524.908L520.549 116.595C520.293 114.282 518.755 112.997 516.447 113.254C512.858 113.511 506.705 113.768 500.551 113.768H402.613C396.46 113.768 390.05 113.511 386.461 113.254C384.153 112.997 382.615 114.282 382.359 116.595L378 150.519H385.435C392.87 130.216 398.511 124.048 416.714 124.048C433.892 124.048 436.199 126.875 436.199 139.982V251.52C436.199 261.286 430.302 264.627 409.535 266.169V273.365Z" fill="#DBEDEC"/>
<path d="M542.838 274.907C560.272 274.907 574.63 266.169 582.834 256.403C584.885 253.576 586.936 254.09 586.936 256.917C587.705 267.454 594.628 274.907 607.19 274.907C614.882 274.907 622.83 272.337 625.906 266.426V262.571C618.471 264.37 613.6 261.8 613.6 252.805V200.12C613.6 167.224 601.037 155.145 571.04 155.145C544.376 155.145 516.687 163.883 516.687 183.672C516.687 191.125 521.302 196.779 529.763 196.779C537.71 196.779 544.376 192.153 544.376 182.13C544.376 170.822 549.504 163.626 563.605 163.626C579.757 163.626 586.68 173.906 586.68 192.41V197.036C586.68 203.204 584.629 205.003 578.732 205.774C525.917 212.713 509.252 226.077 509.252 246.637C509.252 266.683 525.404 274.907 542.838 274.907ZM557.196 259.744C543.351 259.744 537.198 251.006 537.198 240.983C537.198 230.189 544.376 217.082 576.424 213.741C584.885 212.97 586.68 216.054 586.68 221.965V230.446C586.68 247.408 573.861 259.744 557.196 259.744Z" fill="#DBEDEC"/>
<path d="M751.526 274.907C758.961 274.907 766.909 272.337 770.242 266.426V262.571C762.806 264.37 757.935 261.8 757.935 252.805V198.321C757.935 165.168 739.475 154.888 720.759 154.888C699.736 154.888 688.968 166.71 684.097 171.85C680.764 175.705 677.174 172.878 677.174 163.626V113.511C677.174 107.086 673.585 104.002 666.919 105.287L633.845 111.712V118.651C646.408 117.366 650.254 121.221 650.254 132.786V251.006C650.254 261.8 645.895 265.141 633.845 266.426V273.365H693.583V266.426C681.533 265.141 677.174 261.8 677.174 251.006V204.232C677.174 185.214 687.686 171.079 704.607 171.079C721.785 171.079 731.015 185.214 731.015 204.232V253.062C731.015 268.225 739.732 274.907 751.526 274.907Z" fill="#DBEDEC"/>
<path d="M841.913 274.907C873.448 274.907 902.419 253.576 902.419 215.026C902.419 176.476 873.448 155.145 841.913 155.145C810.378 155.145 781.406 176.476 781.406 215.026C781.406 253.576 810.378 274.907 841.913 274.907ZM847.297 266.169C825.504 266.169 810.378 237.642 810.378 204.746C810.378 176.733 821.146 163.883 836.529 163.883C858.321 163.883 873.448 192.41 873.448 225.306C873.448 253.319 862.423 266.169 847.297 266.169Z" fill="#DBEDEC"/>
</svg>
