<svg width="206" height="46" viewBox="0 0 206 46" fill="none" xmlns="http://www.w3.org/2000/svg">
<path fill-rule="evenodd" clip-rule="evenodd" d="M48.074 31.7564V7.85952C48.074 5.62495 47.4746 4.82814 44.8395 5.07603V3.93573L50.7091 2.69273C51.8547 2.44484 52.5498 2.9902 52.5498 4.18362V31.6501C52.5498 33.3889 53.596 33.6864 55.0324 33.3889V34.0972C54.4366 34.9896 52.9435 35.5385 51.5497 35.5385C49.5777 35.5456 48.074 34.4407 48.074 31.7564ZM11.2498 31.4093C11.2498 33.2473 10.2071 33.6899 6.17461 34.0441V35.234H21.4604V34.0441C17.4279 33.6935 16.3356 33.2473 16.3356 31.4093V9.15211C16.3356 6.76526 16.7328 6.17031 20.3149 6.17031C23.8047 6.17031 24.9503 7.215 26.3441 11.0892H27.635L26.7909 4.77857C26.7818 4.70309 26.7576 4.6302 26.7199 4.56419C26.6821 4.49817 26.6315 4.44037 26.571 4.39418C26.5105 4.34798 26.4414 4.31432 26.3677 4.29519C26.294 4.27607 26.2173 4.27185 26.1419 4.28279C25.39 4.33237 24.1523 4.38194 22.9074 4.38194H4.69569C3.44375 4.38194 2.21308 4.33237 1.50376 4.28279C1.09236 4.28279 0.844096 4.42444 0.794443 4.77857L0 11.0892H1.29096C2.69187 7.215 3.83742 6.17031 7.32017 6.17031C10.8951 6.17031 11.2498 6.76526 11.2498 9.15211V31.4093ZM37.5229 22.0673C26.7271 23.3599 23.6415 26.1929 23.6415 30.0672C23.6415 33.9449 26.8264 35.5385 30.1105 35.5385C33.3947 35.5385 36.3809 34.0334 38.1223 31.9087C38.4698 31.4624 38.867 31.4624 38.867 31.9582C38.9663 34.2955 40.3105 35.5385 42.3498 35.5385C43.7436 35.5385 45.1871 34.9896 45.7829 34.0972V33.3889C44.3394 33.6864 43.3464 33.3889 43.3464 31.6501V20.7818C43.3464 14.8643 41.0056 12.3853 35.136 12.3853C30.3091 12.3853 25.1346 13.9223 25.1346 17.6973C25.1346 19.1386 25.8794 20.1302 27.3726 20.1302C28.7664 20.1302 29.8126 19.2378 29.8126 17.3998C29.8126 15.1617 30.9546 13.8196 33.7919 13.8196C37.3243 13.8196 38.867 15.9939 38.867 19.5353V20.6295C38.867 21.6707 38.4202 21.9682 37.5229 22.0673ZM38.867 25.0987V27.1385C38.867 30.5169 36.0298 32.9994 32.6428 32.9994C29.7098 32.9994 28.3656 31.1614 28.3656 29.1252C28.3656 26.8375 29.9119 24.2558 36.8774 23.5086C38.5124 23.3103 38.867 23.9584 38.867 25.0987ZM58.0257 7.85952V31.7564C58.0257 34.4407 59.5082 35.5456 61.5014 35.5385C62.8952 35.5385 64.3848 34.9896 64.9842 34.0972V33.3889C63.5478 33.6864 62.5015 33.3889 62.5015 31.6501V4.18362C62.5015 2.9902 61.8064 2.44484 60.6609 2.69273L54.7913 3.93573V5.07603C57.4264 4.82814 58.0257 5.62495 58.0257 7.85952ZM66.683 41.8421C66.6754 41.5033 66.7375 41.1665 66.8654 40.8526C66.9933 40.5387 67.1843 40.2543 67.4266 40.017C67.6689 39.7797 67.9573 39.5945 68.2741 39.4729C68.5909 39.3513 68.9293 39.2959 69.2684 39.31C70.9612 39.31 71.2011 40.4909 71.4178 41.5571C71.5961 42.4343 71.7586 43.2338 72.7015 43.2338C73.8471 43.2338 74.8295 41.5942 75.5388 39.8554C76.5354 37.2738 75.936 35.1844 75.2409 33.5447L69.2117 18.4906C67.9668 15.4592 67.371 14.7651 65.2324 13.9718V12.828H75.5814V13.9718C72.893 14.7651 72.6944 15.4096 73.9889 18.4906L78.2697 29.0756C78.9151 30.6161 79.4613 30.6161 80.1103 29.026L82.1993 23.6078C85.4338 15.4627 84.5365 14.7545 81.6035 13.9718V12.828H90.6083V13.9718C87.7213 14.7651 86.9269 15.5088 85.7813 18.4906L77.5958 38.8142C76.053 42.6884 74.6592 45.0717 70.9779 45.0717C68.325 45.0717 66.683 43.7331 66.683 41.8421ZM123.457 31.4093V8.20657C123.457 6.36862 124.503 5.87284 126.539 5.57537V4.38194H115.246V5.57537C117.286 5.87284 118.382 6.36862 118.382 8.20657V17.4848C118.382 18.6747 117.686 19.1741 116.491 19.1741H104.897C103.702 19.1741 103.057 18.6747 103.057 17.4848V8.20657C103.057 6.36862 104.099 5.87284 106.142 5.57537V4.38194H94.8464V5.57537C96.868 5.87284 97.932 6.36862 97.932 8.20657V31.4093C97.932 33.2473 96.8857 33.6899 94.8464 34.0441V35.234H106.132V34.0441C104.089 33.6935 103.046 33.2473 103.046 31.4093V22.3683C103.046 21.1749 103.692 20.6791 104.837 20.6791H116.541C117.672 20.6791 118.382 21.1749 118.382 22.3683V31.4093C118.382 33.2473 117.286 33.6899 115.246 34.0441V35.234H126.542V34.0441C124.521 33.6935 123.457 33.2473 123.457 31.4093ZM128.021 24.008C128.021 16.7022 133.494 12.3818 139.615 12.3818C145.736 12.3818 151.159 16.6526 151.159 23.9088C151.159 31.165 145.69 35.5456 139.565 35.5456C133.44 35.5456 128.021 31.2606 128.021 24.008ZM146.332 25.7963C146.332 19.3865 143.14 13.8727 138.469 13.8727C135.185 13.8727 132.845 16.5039 132.845 22.1169C132.845 28.5267 136.037 33.9945 140.707 33.9945C143.942 33.9945 146.332 31.4093 146.332 25.7963ZM156.781 3.58515C154.89 3.58515 153.695 5.02646 153.695 7.31416C153.695 9.41425 154.101 11.6216 154.567 14.1606C155.159 17.3844 155.85 21.1429 155.933 25.8955H157.575C157.666 21.151 158.37 17.3972 158.974 14.177C159.451 11.6311 159.866 9.41878 159.866 7.31416C159.866 5.02646 158.671 3.58515 156.781 3.58515ZM154.755 30.5944C154.214 31.1247 153.905 31.8463 153.894 32.6028C153.884 33.1749 154.045 33.737 154.356 34.2175C154.667 34.6981 155.114 35.0752 155.641 35.3011C156.168 35.5269 156.749 35.5911 157.313 35.4855C157.876 35.3799 158.395 35.1094 158.804 34.7083C159.212 34.3072 159.492 33.7937 159.608 33.2332C159.723 32.6727 159.669 32.0906 159.452 31.561C159.235 31.0313 158.865 30.5782 158.39 30.2592C157.914 29.9402 157.354 29.7698 156.781 29.7697C156.023 29.7678 155.295 30.064 154.755 30.5944Z" fill="#B8D1D0"/>
<path d="M205 19.1564C205 29.1311 196.902 37.2172 186.912 37.2172C176.923 37.2172 168.825 29.1311 168.825 19.1564C168.825 9.18172 176.923 1.09564 186.912 1.09564C196.902 1.09564 205 9.18172 205 19.1564Z" fill="#002825"/>
<path fill-rule="evenodd" clip-rule="evenodd" d="M205.479 19.1564C205.479 29.3952 197.166 37.6954 186.912 37.6954C176.658 37.6954 168.346 29.3952 168.346 19.1564C168.346 8.9176 176.658 0.617401 186.912 0.617401C197.166 0.617401 205.479 8.9176 205.479 19.1564ZM186.912 37.2172C196.902 37.2172 205 29.1311 205 19.1564C205 9.18174 196.902 1.09566 186.912 1.09566C176.923 1.09566 168.825 9.18174 168.825 19.1564C168.825 29.1311 176.923 37.2172 186.912 37.2172Z" fill="#B8D1D0"/>
<path d="M196.617 11.5618L196.759 10.1089C196.763 10.0847 196.776 10.0627 196.795 10.0469C196.813 10.0311 196.837 10.0225 196.862 10.0225C196.887 10.0225 196.911 10.0311 196.929 10.0469C196.948 10.0627 196.961 10.0847 196.965 10.1089L197.103 11.5585C197.113 11.6707 197.163 11.7757 197.243 11.8541C197.324 11.9324 197.431 11.9789 197.544 11.9848L199.117 12.08C199.141 12.0843 199.163 12.097 199.179 12.1159C199.195 12.1348 199.203 12.1586 199.203 12.1833C199.203 12.2079 199.195 12.2317 199.179 12.2506C199.163 12.2695 199.141 12.2822 199.117 12.2866L197.54 12.3817C197.428 12.3896 197.323 12.4367 197.242 12.5147C197.162 12.5927 197.111 12.6966 197.1 12.808L196.962 14.2609C196.958 14.2851 196.945 14.3071 196.926 14.3229C196.907 14.3387 196.883 14.3473 196.859 14.3473C196.834 14.3473 196.81 14.3387 196.791 14.3229C196.772 14.3071 196.76 14.2851 196.755 14.2609L196.617 12.8113C196.607 12.6996 196.556 12.5954 196.476 12.5173C196.395 12.4391 196.289 12.3922 196.177 12.385L194.604 12.2899C194.58 12.2855 194.558 12.2728 194.542 12.2539C194.526 12.235 194.517 12.2112 194.517 12.1865C194.517 12.1619 194.526 12.1381 194.542 12.1192C194.558 12.1003 194.58 12.0876 194.604 12.0832L196.177 11.9848C196.289 11.979 196.395 11.933 196.476 11.8553C196.557 11.7776 196.607 11.6734 196.617 11.5618Z" fill="#B8D1D0"/>
<path d="M194.115 18.3407C194.511 18.2719 194.914 18.2598 195.313 18.3046C195.45 18.33 195.591 18.3175 195.721 18.2685L195.671 18.2259C194.729 17.4147 193.714 16.6913 192.64 16.0646C191.211 15.2316 190.249 13.1392 189.966 12.5063C189.743 12.0156 189.345 11.6252 188.85 11.4109C189.092 11.396 189.335 11.4371 189.558 11.5309C189.782 11.6248 189.981 11.7689 190.14 11.952C190.39 12.1587 191.293 13.7755 191.76 13.8214C191.926 13.8153 192.092 13.79 192.252 13.746H192.288L192.509 13.6935H192.532L192.706 13.6509L193.034 13.5558L193.005 13.5361C192.505 13.2081 192.187 12.6473 191.839 12.0439C191.655 11.7209 191.435 11.4204 191.182 11.1485C191.111 11.0724 191.034 11.0022 190.952 10.9387C190.867 10.8772 190.778 10.8224 190.686 10.7747C190.515 10.6894 190.357 10.6205 190.19 10.5549C190.022 10.4894 189.861 10.4303 189.74 10.3647L189.277 10.1352L188.344 9.68258C187.712 9.38204 187.063 9.11921 186.399 8.89548C185.725 8.67396 185.029 8.5223 184.324 8.4429C184.142 8.42056 183.959 8.40743 183.775 8.40354C183.557 8.40195 183.342 8.44901 183.145 8.54128C182.961 8.62327 182.816 8.71182 182.685 8.76757C182.553 8.82332 182.356 8.91187 182.205 8.99058C181.566 9.2974 180.962 9.67354 180.405 10.1122C180.115 10.3276 179.843 10.5655 179.591 10.8239C179.378 11.0495 179.198 11.3034 179.055 11.5782C179.206 11.5507 179.359 11.5386 179.512 11.5421C180.034 11.5727 180.55 11.6776 181.043 11.8537C180.583 11.8537 178.198 11.7257 176.927 12.5784C176.683 12.7427 176.48 12.9617 176.336 13.218C176.283 13.3196 176.214 13.4672 176.139 13.6509C176.129 13.6777 176.118 13.7039 176.106 13.7296C175.886 14.3054 175.707 14.8961 175.571 15.4973C175.325 16.5411 175.201 17.6096 175.199 18.6817C175.199 18.8457 175.199 19.0097 175.199 19.177C175.199 19.3442 175.222 19.4557 175.236 19.5967V19.6853C175.249 19.8077 175.265 19.9291 175.285 20.0493L175.305 20.1641C175.353 20.4596 175.419 20.752 175.502 21.0398C175.658 21.5386 175.879 22.0149 176.159 22.4565C176.29 22.6172 176.421 22.6828 176.536 22.532L176.618 22.4172C176.714 22.2827 176.855 22.0892 177.026 21.8137L177.236 21.4858V21.4661L177.436 21.1381L177.482 21.066C177.63 20.8266 177.811 20.5642 177.962 20.2822L178.031 20.1674L178.234 19.8198L178.293 19.7214L178.553 19.2721L178.615 19.1638C178.684 19.0392 178.753 18.9146 178.825 18.79C178.848 18.7441 178.875 18.6981 178.901 18.6522L179.167 18.1603C179.463 17.606 179.752 17.0354 180.014 16.468C180.143 16.1991 180.274 15.9335 180.415 15.6711C180.619 15.2727 180.857 14.893 181.128 14.5363C181.267 14.3527 181.43 14.1874 181.611 14.0444C181.789 13.8971 182.01 13.8099 182.241 13.7952C181.506 14.4511 180.882 16.2417 180.363 18.2095C180.034 19.4787 180.192 20.0952 179.223 23.0862C178.261 26.0182 179.144 27.0873 180.32 27.9367C182.76 29.6093 185.365 29.6257 185.647 31.8722L185.798 33.0496L186.409 32.0329C186.628 31.6605 186.802 31.263 186.925 30.849V30.7932L187.421 31.1605C187.731 30.5881 187.86 29.935 187.79 29.2878C187.721 28.6406 187.455 28.0299 187.03 27.5366C187.069 27.6219 187.109 27.7071 187.145 27.7957C187.296 28.1347 187.406 28.4903 187.473 28.855C187.545 29.2527 187.515 29.6619 187.388 30.0455L187.227 30.5014L186.836 30.2127C186.777 30.1708 186.715 30.1346 186.649 30.1045C186.619 30.3257 186.576 30.5448 186.518 30.7604C186.406 31.1369 186.248 31.4982 186.048 31.8361C185.66 28.7402 182.711 28.8452 181.006 27.5727C179.302 26.3002 179.167 24.785 180.218 22.1647C180.539 21.3589 180.772 20.5211 180.914 19.6656C180.944 19.4721 180.98 19.2819 181.023 19.0917C181.021 19.0644 181.021 19.037 181.023 19.0097L181.052 18.872C181.052 19.1671 181.052 19.459 181.098 19.7476C181.114 20.0262 181.169 20.3011 181.263 20.5642C181.304 20.6773 181.368 20.781 181.45 20.8692C181.489 20.9119 181.535 20.9479 181.598 21.0102C181.642 21.0598 181.689 21.1069 181.739 21.1513C181.948 21.3099 182.181 21.435 182.429 21.5219C182.953 21.7047 183.498 21.8215 184.051 21.8695C184.583 21.9318 185.125 21.9449 185.67 21.958H185.752C186.318 21.9613 186.88 22.0577 187.414 22.2434C187.892 22.4035 188.392 22.4909 188.896 22.5025C189.956 22.6044 191.003 22.8165 192.019 23.1354C192.452 23.1485 192.886 23.11 193.31 23.0206C193.609 22.9616 193.904 22.8829 194.197 22.7943C194.854 22.5156 195.307 21.758 194.41 21.8597C194.199 21.8731 193.99 21.9016 193.783 21.9449C193.484 22.004 193.185 22.1614 192.798 22.2729C192.433 22.3557 192.054 22.3455 191.694 22.2434C191.379 22.1165 191.047 22.039 190.709 22.0138C190.867 21.9239 191.043 21.8702 191.224 21.8564C191.408 21.8564 191.582 21.8564 191.747 21.8564C192.054 21.8952 192.366 21.8819 192.669 21.817C192.945 21.7383 193.231 21.5284 193.583 21.3874C193.925 21.2437 194.292 21.1659 194.663 21.1578H194.637C194.719 21.1578 194.801 21.1578 194.886 21.1578C195.146 20.7971 195.366 20.4101 195.281 20.069C195.18 19.9337 195.04 19.8329 194.88 19.7804C194.683 19.7115 193.615 19.4951 193.257 19.1671C193.126 18.9507 193.254 18.521 194.115 18.3407ZM188.462 14.0149C188.369 14.0971 188.298 14.2027 188.259 14.3209C188.22 14.439 188.213 14.5654 188.239 14.6872C188.268 15.0709 187.808 15.3759 187.253 15.435C186.541 15.5137 186.16 15.107 186.268 14.6216C186.455 13.8214 186.045 14.0838 185.769 14.4052C185.763 14.4115 185.756 14.4158 185.748 14.4177C185.74 14.4196 185.731 14.4188 185.724 14.4155C185.716 14.4122 185.709 14.4066 185.705 14.3994C185.701 14.3923 185.699 14.3839 185.7 14.3757C185.818 13.5525 186.301 13.5197 186.518 13.5197C187.17 13.566 187.815 13.6758 188.446 13.8476C188.462 13.8542 188.476 13.865 188.486 13.8789C188.496 13.8927 188.503 13.9091 188.504 13.9263C188.506 13.9435 188.503 13.9609 188.495 13.9765C188.488 13.9921 188.477 14.0054 188.462 14.0149Z" fill="#EF9C32"/>
</svg>
