<svg width="30" height="24" viewBox="0 0 30 24" fill="none" xmlns="http://www.w3.org/2000/svg">
    <path
        d="M13.722 9.61631L14.6415 0.13173C14.6671 -0.0439101 14.8969 -0.0439101 14.9225 0.13173L15.842 9.61631C15.9186 10.4443 16.6082 11.0967 17.4511 11.1469L29.4044 11.8495C29.5832 11.8495 29.5832 12.1255 29.4044 12.1255L17.4255 12.8531C16.5827 12.9033 15.893 13.5557 15.8164 14.3837L14.8969 23.8683C14.8714 24.0439 14.6415 24.0439 14.616 23.8683L13.6965 14.3837C13.6199 13.5557 12.9303 12.9033 12.0874 12.8531L0.134092 12.1505C-0.0446972 12.1505 -0.0446972 11.8745 0.134092 11.8745L12.1129 11.1469C12.9558 11.0967 13.6199 10.4443 13.722 9.61631Z"
        fill="#D08E39" />
</svg>