<svg width="226" height="84" viewBox="0 0 226 84" fill="none" xmlns="http://www.w3.org/2000/svg">
<path fill-rule="evenodd" clip-rule="evenodd" d="M53.9835 17C68.3338 17 79.967 28.6406 79.967 43C79.967 57.3594 68.3338 69 53.9835 69C39.6332 69 28 57.3594 28 43C28 28.6406 39.6332 17 53.9835 17ZM62.3608 36.4479L44.0406 36.5383L39.6402 43.0619L49.9557 43.0658L45.5002 49.6338L63.9392 49.5157L68.3259 43.0122L57.9746 43.0624L62.3608 36.4479Z" fill="#0D2321"/>
<path d="M98.0884 53.2844V48.4958L108.985 35.0683H98.3471V30.3767H115.905V34.8094L104.749 48.4958H116.131V53.2844H98.0884ZM128.55 46.2633H127.871C127.289 46.2633 126.696 46.2956 126.092 46.3604C125.51 46.4036 124.982 46.5006 124.508 46.6516C124.055 46.8025 123.678 47.029 123.376 47.331C123.074 47.6114 122.923 47.989 122.923 48.4635C122.923 48.7655 122.988 49.0244 123.117 49.24C123.268 49.4556 123.451 49.6283 123.667 49.7577C123.882 49.8871 124.13 49.9842 124.411 50.0489C124.691 50.0921 124.96 50.1136 125.219 50.1136C126.297 50.1136 127.116 49.8224 127.677 49.24C128.259 48.6361 128.55 47.8272 128.55 46.8133V46.2633ZM118.817 39.3716C119.765 38.4656 120.864 37.7861 122.115 37.3332C123.387 36.8802 124.68 36.6537 125.995 36.6537C127.353 36.6537 128.496 36.8263 129.423 37.1714C130.371 37.4949 131.136 38.0126 131.718 38.7244C132.3 39.4147 132.721 40.299 132.979 41.3776C133.26 42.4345 133.4 43.6963 133.4 45.1632V53.2844H128.55V51.5696H128.453C128.043 52.2382 127.418 52.7559 126.577 53.1227C125.758 53.4894 124.863 53.6727 123.893 53.6727C123.247 53.6727 122.578 53.5865 121.889 53.4139C121.199 53.2412 120.563 52.9609 119.981 52.5726C119.42 52.1844 118.957 51.6667 118.59 51.0196C118.224 50.3724 118.041 49.5744 118.041 48.6252C118.041 47.4604 118.353 46.5221 118.978 45.8103C119.625 45.0985 120.444 44.5484 121.436 44.1602C122.449 43.7719 123.57 43.5131 124.799 43.3836C126.027 43.2542 127.224 43.1895 128.388 43.1895V42.9307C128.388 42.1326 128.108 41.5502 127.547 41.1835C126.987 40.7952 126.297 40.6011 125.478 40.6011C124.723 40.6011 123.99 40.7628 123.279 41.0864C122.589 41.41 121.996 41.7982 121.501 42.2512L118.817 39.3716ZM155.271 45.1632C155.271 46.2848 155.099 47.3634 154.754 48.3988C154.409 49.4341 153.903 50.3509 153.234 51.149C152.587 51.9255 151.79 52.5511 150.841 53.0256C149.893 53.5001 148.815 53.7374 147.608 53.7374C146.616 53.7374 145.679 53.5433 144.795 53.155C143.911 52.7453 143.221 52.1952 142.725 51.5049H142.661V61.0498H137.358V37.1714H142.402V39.1451H142.499C142.995 38.498 143.674 37.9371 144.536 37.4626C145.42 36.9664 146.455 36.7184 147.64 36.7184C148.804 36.7184 149.861 36.9449 150.809 37.3979C151.758 37.8508 152.555 38.4656 153.202 39.2421C153.87 40.0187 154.377 40.9246 154.722 41.96C155.088 42.9739 155.271 44.0416 155.271 45.1632ZM150.13 45.1632C150.13 44.6455 150.044 44.1387 149.871 43.6425C149.72 43.1463 149.483 42.715 149.16 42.3483C148.858 41.96 148.47 41.6473 147.996 41.41C147.522 41.1726 146.972 41.054 146.347 41.054C145.743 41.054 145.204 41.1726 144.73 41.41C144.256 41.6473 143.846 41.96 143.501 42.3483C143.178 42.7365 142.919 43.1786 142.725 43.6748C142.553 44.171 142.467 44.6779 142.467 45.1956C142.467 45.7132 142.553 46.2201 142.725 46.7163C142.919 47.2125 143.178 47.6546 143.501 48.0428C143.846 48.4311 144.256 48.7438 144.73 48.9812C145.204 49.2185 145.743 49.3371 146.347 49.3371C146.972 49.3371 147.522 49.2185 147.996 48.9812C148.47 48.7438 148.858 48.4311 149.16 48.0428C149.483 47.6546 149.72 47.2125 149.871 46.7163C150.044 46.1986 150.13 45.6809 150.13 45.1632ZM176.523 45.1632C176.523 46.2848 176.35 47.3634 176.005 48.3988C175.661 49.4341 175.154 50.3509 174.486 51.149C173.839 51.9255 173.041 52.5511 172.093 53.0256C171.144 53.5001 170.067 53.7374 168.859 53.7374C167.868 53.7374 166.93 53.5433 166.046 53.155C165.162 52.7453 164.473 52.1952 163.977 51.5049H163.912V61.0498H158.609V37.1714H163.653V39.1451H163.75C164.246 38.498 164.925 37.9371 165.788 37.4626C166.671 36.9664 167.706 36.7184 168.892 36.7184C170.056 36.7184 171.112 36.9449 172.061 37.3979C173.009 37.8508 173.807 38.4656 174.453 39.2421C175.121 40.0187 175.628 40.9246 175.973 41.96C176.34 42.9739 176.523 44.0416 176.523 45.1632ZM171.381 45.1632C171.381 44.6455 171.295 44.1387 171.123 43.6425C170.972 43.1463 170.735 42.715 170.411 42.3483C170.11 41.96 169.722 41.6473 169.247 41.41C168.773 41.1726 168.224 41.054 167.598 41.054C166.995 41.054 166.456 41.1726 165.982 41.41C165.507 41.6473 165.098 41.96 164.753 42.3483C164.429 42.7365 164.171 43.1786 163.977 43.6748C163.804 44.171 163.718 44.6779 163.718 45.1956C163.718 45.7132 163.804 46.2201 163.977 46.7163C164.171 47.2125 164.429 47.6546 164.753 48.0428C165.098 48.4311 165.507 48.7438 165.982 48.9812C166.456 49.2185 166.995 49.3371 167.598 49.3371C168.224 49.3371 168.773 49.2185 169.247 48.9812C169.722 48.7438 170.11 48.4311 170.411 48.0428C170.735 47.6546 170.972 47.2125 171.123 46.7163C171.295 46.1986 171.381 45.6809 171.381 45.1632ZM190.952 43.3836C190.952 42.5424 190.682 41.8197 190.143 41.2158C189.626 40.6119 188.839 40.3099 187.783 40.3099C187.265 40.3099 186.791 40.3961 186.36 40.5687C185.929 40.7196 185.552 40.9355 185.228 41.2158C184.905 41.4962 184.646 41.8306 184.452 42.2188C184.258 42.5856 184.15 42.9739 184.129 43.3836H190.952ZM195.834 45.422C195.834 45.6377 195.834 45.8535 195.834 46.0692C195.834 46.2848 195.823 46.4898 195.802 46.6839H184.129C184.172 47.1369 184.301 47.5466 184.517 47.9134C184.754 48.2802 185.045 48.6038 185.39 48.8841C185.756 49.1429 186.155 49.3479 186.586 49.4988C187.039 49.6498 187.503 49.7253 187.977 49.7253C188.817 49.7253 189.529 49.5744 190.111 49.2724C190.693 48.9488 191.167 48.539 191.534 48.0428L195.22 50.3724C194.465 51.4725 193.463 52.3246 192.213 52.9285C190.984 53.5109 189.55 53.8021 187.912 53.8021C186.705 53.8021 185.562 53.6189 184.485 53.2521C183.407 52.8638 182.458 52.3138 181.639 51.602C180.842 50.8686 180.205 49.9733 179.731 48.9164C179.279 47.8596 179.052 46.6516 179.052 45.2926C179.052 43.9769 179.279 42.7904 179.731 41.7335C180.184 40.6549 180.798 39.749 181.574 39.0156C182.35 38.2607 183.267 37.6783 184.323 37.2684C185.379 36.8586 186.522 36.6537 187.75 36.6537C188.936 36.6537 190.025 36.8586 191.016 37.2684C192.008 37.6567 192.859 38.2283 193.571 38.9833C194.282 39.7383 194.832 40.6549 195.22 41.7335C195.629 42.8121 195.834 44.0416 195.834 45.422ZM209.567 41.507C209.33 41.4423 209.093 41.3991 208.855 41.3776C208.64 41.3561 208.424 41.3452 208.209 41.3452C207.497 41.3452 206.894 41.4747 206.398 41.7335C205.924 41.9924 205.536 42.305 205.234 42.6718C204.954 43.0386 204.749 43.4375 204.62 43.869C204.49 44.3005 204.426 44.6779 204.426 45.0014V53.2844H199.123V37.1714H204.232V39.501H204.296C204.706 38.6813 205.288 38.0126 206.042 37.4949C206.797 36.9772 207.67 36.7184 208.661 36.7184C208.877 36.7184 209.082 36.7292 209.276 36.7508C209.492 36.7723 209.664 36.8047 209.793 36.8478L209.567 41.507Z" fill="#0D2321"/>
</svg>
