<svg width="226" height="84" viewBox="0 0 226 84" fill="none" xmlns="http://www.w3.org/2000/svg">
<path fill-rule="evenodd" clip-rule="evenodd" d="M84.1016 47.8534C84.205 48.1026 84.3008 48.3336 84.3871 48.5474C84.4511 48.6962 84.5083 48.8308 84.5595 48.9514L84.5596 48.9516L84.5598 48.952L84.5598 48.952L84.5598 48.9521L84.5599 48.9524C84.6868 49.251 84.7774 49.4642 84.8468 49.5973L85 49.9856H82.2139L82.1443 49.8274C82.0746 49.6836 81.9771 49.4535 81.8517 49.1514C81.7264 48.8638 81.5871 48.5186 81.4338 48.1303C81.2667 47.742 81.0995 47.3249 80.9184 46.8646C80.7512 46.4619 80.5841 46.0448 80.4169 45.6134H75.5413L73.7861 50H71L78.007 33L78.2577 33.5897C78.2778 33.6381 78.3019 33.6956 78.3299 33.7623C78.4182 33.973 78.5448 34.2751 78.7035 34.6684L79.4557 36.5381C79.5582 36.7901 79.6642 37.0527 79.7742 37.3253L79.7752 37.3278L79.7755 37.3285L79.7756 37.329L79.7758 37.3293L79.7758 37.3294L79.7759 37.3296L79.776 37.3298C79.9792 37.8337 80.1963 38.3718 80.4308 38.9399C80.793 39.8316 81.1552 40.709 81.5313 41.6151C81.9072 42.5205 82.2691 43.3972 82.6311 44.2739L82.6312 44.2742L82.6316 44.2753L82.6318 44.2758C82.8284 44.7441 83.0127 45.1955 83.1891 45.6277L83.1891 45.6278L83.1893 45.6282L83.1894 45.6286L83.1895 45.6287L83.1895 45.6288C83.338 45.9925 83.4809 46.3426 83.6209 46.6777C83.7926 47.1082 83.9547 47.499 84.1015 47.8532L84.1016 47.8533L84.1016 47.8534ZM77.993 39.4865L76.5443 43.1108H79.4418C79.3025 42.7801 79.1771 42.4637 79.0518 42.1473L79.0517 42.1472L78.5781 40.9679C78.4643 40.6742 78.3598 40.4188 78.2646 40.1862L78.202 40.033C78.156 39.9142 78.1142 39.8042 78.0766 39.7052C78.0459 39.6245 78.0181 39.5511 77.993 39.4865ZM90 34H93.022V47.2269H101V50H90V34ZM116.779 45.8937L116.506 46.2632C116.506 46.2632 116.449 46.32 116.204 46.4479C116.003 46.5473 115.73 46.661 115.414 46.7605C115.098 46.8741 114.739 46.9594 114.337 47.0446C113.949 47.1299 113.547 47.1583 113.13 47.1583C112.355 47.1583 111.636 47.0162 111.004 46.7178C110.358 46.4337 109.798 46.0358 109.338 45.5527C108.878 45.0696 108.519 44.5013 108.246 43.8761C107.988 43.2652 107.859 42.6116 107.859 41.9438C107.859 41.2618 108.002 40.594 108.275 39.9688C108.548 39.3436 108.936 38.7753 109.41 38.2922C109.884 37.8091 110.459 37.4255 111.119 37.1413C111.78 36.8571 112.498 36.715 113.274 36.715C113.489 36.715 113.734 36.7293 113.992 36.7577C114.251 36.7861 114.524 36.8287 114.768 36.8713C115.027 36.9282 115.271 36.985 115.501 37.0703C115.716 37.1413 115.917 37.2408 116.075 37.3544L116.319 37.5249L116.463 37.255C116.526 37.143 116.583 37.0419 116.635 36.9505L116.635 36.9501C116.702 36.833 116.759 36.7318 116.808 36.644C116.894 36.4877 116.966 36.3598 117.038 36.2462C117.109 36.1325 117.181 36.0046 117.239 35.891C117.296 35.7773 117.382 35.6494 117.497 35.4931L117.627 35.2942L117.454 35.1379C117.282 34.9816 117.038 34.8253 116.722 34.6832C116.42 34.5411 116.075 34.4275 115.687 34.328C115.299 34.2286 114.897 34.1433 114.466 34.0865C112.886 33.8733 111.378 34.0581 110.013 34.598C109.022 34.9958 108.146 35.5642 107.399 36.2888C106.666 36.9992 106.063 37.8659 105.646 38.8605C105.215 39.8551 105 40.9492 105 42.1143C105 43.1657 105.187 44.1887 105.546 45.1265C105.905 46.0785 106.436 46.9168 107.126 47.6414C107.815 48.366 108.649 48.9344 109.625 49.3606C110.602 49.7869 111.723 50 112.944 50C113.518 50 114.064 49.9574 114.581 49.8721C115.084 49.7869 115.558 49.6732 115.975 49.5453C116.391 49.4174 116.765 49.2754 117.081 49.1191C117.397 48.9628 117.641 48.8207 117.828 48.6786L118 48.5507L116.937 46.2916L116.779 45.8937ZM125.886 40.5712H133.085V34H136V39.4252C136 39.8309 135.996 40.247 135.993 40.6702L135.993 40.6725C135.989 41.1111 135.985 41.5573 135.985 42.0073C135.971 42.8486 135.971 43.7189 135.971 44.5748V50H133.085V43.3418H125.886V50H123V34.0145H125.886V40.5712ZM145.906 43.3358H152.852V40.6207H145.906V36.657H153.709V34H143V50H154V47.2849H145.906V43.3358ZM174.349 35.318C174.564 35.0257 174.758 34.7613 174.928 34.5209C175.188 34.1371 175.377 33.8813 175.507 33.7391L176 33.1279V50H172.971V41.5853C172.971 41.5995 172.957 41.6137 172.942 41.6279L172.942 41.6279C172.667 42.0259 172.348 42.4808 171.985 42.9925C171.804 43.26 171.61 43.5313 171.411 43.8106C171.229 44.0657 171.042 44.3273 170.855 44.5987C170.466 45.1302 170.104 45.6487 169.768 46.129L169.767 46.1294L169.725 46.1906C169.502 46.4957 169.302 46.7793 169.117 47.0416L169.116 47.0422L169.116 47.0433C168.999 47.2082 168.889 47.3646 168.783 47.5125C168.608 47.7555 168.475 47.9529 168.374 48.1012L168.374 48.1014C168.316 48.1872 168.269 48.2564 168.232 48.3085L168.014 48.6355L167.768 48.3227C167.725 48.263 167.665 48.1832 167.588 48.0812L167.587 48.0807C167.48 47.94 167.342 47.7572 167.174 47.5268C167.082 47.4008 166.986 47.2676 166.885 47.1278C166.667 46.8261 166.427 46.4932 166.159 46.1338L166.061 46.0001C165.71 45.5237 165.325 45.0008 164.928 44.4423L164.741 44.1862C164.376 43.686 164.035 43.217 163.725 42.7793C163.575 42.5727 163.432 42.3754 163.297 42.189C163.144 41.9779 163 41.7807 162.87 41.5995V49.9858H160V33L160.507 33.7818C160.623 33.9808 160.884 34.3503 161.29 34.8905L162.696 36.7952C163.232 37.5201 163.797 38.2876 164.391 39.0978L166.072 41.3863C166.405 41.8268 166.704 42.2346 166.976 42.6062L166.976 42.6065L166.98 42.6116C167.146 42.8375 167.302 43.05 167.449 43.2483C167.667 43.561 167.841 43.8027 167.986 43.9875C168.026 43.9376 168.067 43.8807 168.113 43.8169C168.132 43.7897 168.152 43.7613 168.174 43.7316C168.304 43.5565 168.447 43.3592 168.607 43.1396L168.61 43.1358L168.611 43.1344L168.612 43.1321L168.615 43.1285C168.738 42.959 168.871 42.7762 169.014 42.5803C169.145 42.4017 169.285 42.2144 169.432 42.0175L169.432 42.0172C169.66 41.7126 169.904 41.3849 170.159 41.0309L171.464 39.2542C171.623 39.035 171.785 38.8157 171.947 38.5958L171.948 38.5949L171.948 38.5948C172.227 38.2162 172.508 37.8354 172.783 37.449C172.923 37.2578 173.058 37.0735 173.188 36.8957L173.195 36.8867L173.197 36.8836C173.479 36.4979 173.739 36.143 173.986 35.8144C174.112 35.6406 174.233 35.4756 174.349 35.3186L174.349 35.318ZM186 34H183V50H186V34ZM200.094 41.5245C199.985 41.6986 199.899 41.8359 199.836 41.942L205 49.971H201.471L198.158 44.5942C198.086 44.5072 198.029 44.4058 197.971 44.2899C197.964 44.2826 197.961 44.2754 197.957 44.2681C197.953 44.2609 197.95 44.2536 197.943 44.2464C197.921 44.2843 197.906 44.3141 197.893 44.3381C197.873 44.3783 197.86 44.4021 197.842 44.4203L197.211 45.4638C196.895 45.9855 196.566 46.5362 196.221 47.1304C195.877 47.7391 195.547 48.3043 195.232 48.8116L194.514 50H191L196.164 41.8261L191.215 34.0145H194.686L194.773 34.1449C194.828 34.2234 194.909 34.3538 195.023 34.5362C195.056 34.5897 195.092 34.6477 195.131 34.7101C195.244 34.89 195.362 35.0822 195.491 35.2908C195.559 35.4016 195.63 35.517 195.705 35.6377C195.8 35.7917 195.895 35.9485 195.993 36.1094C196.116 36.312 196.243 36.521 196.379 36.7391C196.515 36.9572 196.642 37.1664 196.765 37.369C196.863 37.5299 196.958 37.6866 197.053 37.8406C197.268 38.1884 197.455 38.4928 197.613 38.7681C197.77 39.029 197.885 39.2174 197.957 39.3333L197.971 39.3623C197.971 39.3686 197.979 39.3831 197.992 39.4058C198.009 39.4354 198.033 39.4788 198.057 39.5362C198.074 39.503 198.088 39.4719 198.1 39.4454C198.12 39.4024 198.135 39.3713 198.143 39.3623L198.158 39.3333C198.206 39.2657 198.273 39.153 198.359 39.008C198.402 38.9355 198.449 38.8551 198.502 38.7681C198.581 38.6305 198.667 38.4856 198.758 38.3316C198.85 38.1776 198.947 38.0145 199.047 37.8406C199.184 37.6037 199.327 37.3601 199.477 37.1052C199.548 36.9858 199.619 36.8639 199.693 36.7391C199.766 36.6143 199.838 36.4924 199.908 36.373C200.058 36.1182 200.201 35.8746 200.338 35.6377C200.438 35.4639 200.535 35.3009 200.627 35.147C200.718 34.9929 200.804 34.8479 200.883 34.7101C201.041 34.4348 201.156 34.2464 201.227 34.1304L201.314 34H204.799L204.512 34.4348C204.473 34.506 204.404 34.6163 204.312 34.763C204.235 34.8849 204.143 35.032 204.039 35.2029C203.984 35.2912 203.927 35.3832 203.867 35.4788C203.663 35.8065 203.434 36.1757 203.178 36.5797C203 36.8612 202.818 37.1553 202.63 37.4599C202.469 37.7198 202.303 37.9873 202.131 38.2609C201.983 38.4962 201.84 38.7292 201.701 38.9564C201.488 39.3029 201.283 39.6357 201.084 39.942L200.223 41.3188C200.177 41.3925 200.134 41.4609 200.094 41.5245Z" fill="#0D2321"/>
<path fill-rule="evenodd" clip-rule="evenodd" d="M21.9532 42C21.9532 30.5594 30.8833 21.2531 42 20.9814V25.468C42 25.5279 42.0093 25.5855 42.0265 25.6392L28.8112 36.129C28.7251 36.0489 28.6093 35.9999 28.482 35.9999C28.2158 35.9999 28 36.2144 28 36.4789V37.0069V37.0072V47.1164C28 47.2628 28.0673 47.4011 28.1828 47.492L30.5175 49.3295L28.0655 53.3116C27.9781 53.4536 27.9782 53.6285 28.0657 53.7705C28.1533 53.9124 28.315 53.9999 28.4901 53.9999H36.4519L42 58.3663V63.0186C30.8833 62.7469 21.9532 53.4406 21.9532 42ZM29.3384 53.0819L31.2797 49.9293L35.2855 53.0819H29.3384ZM43 58.9991C43.0965 58.9937 43.1916 58.9596 43.2717 58.8967L49.5057 53.9999H57.5162C57.689 53.9999 57.8487 53.9078 57.9352 53.7584C58.0216 53.6089 58.0216 53.4248 57.9352 53.2753L55.7023 49.413L57.7719 48.0449C57.916 47.9496 58 47.8049 58 47.6518V37.0073V37.0068V36.502C58 36.2247 57.7297 35.9999 57.3962 35.9999C57.2905 35.9999 57.1911 36.0225 57.1046 36.0622L43.2998 25.1045C43.212 25.0347 43.106 24.9999 43 24.9999V20.9814C54.1167 21.2531 63.0468 30.5594 63.0468 42C63.0468 53.4406 54.1167 62.7469 43 63.0186V58.9991ZM54.3573 49.0192L54.2281 49.1046C53.9671 49.2772 53.9237 49.5931 54.1312 49.8102C54.3159 50.0034 54.6372 50.0533 54.8897 49.9401L56.6782 53.0337H49.8515C49.6806 52.8704 49.4103 52.8535 49.219 53.0038L49.1809 53.0337H43.0432C43.0286 53.0337 43.0142 53.0344 43 53.0356V48.9999C43.1425 48.9998 43.2835 48.9368 43.3788 48.8161C43.5442 48.6064 43.5088 48.302 43.2996 48.1362L35.6091 42.0394C35.7288 42.0073 35.8363 41.9297 35.9031 41.814L43.0434 29.4497L54.3573 49.0192ZM55.1657 48.4849L56.7924 47.4095V38.198L51.5975 42.3131L55.1657 48.4849ZM51.1082 41.4667L43.4622 28.2415C43.3758 28.0919 43.216 27.9998 43.043 27.9999C42.8701 27.9999 42.7104 28.0921 42.624 28.2417L35.0648 41.3314C35.0237 41.4026 35.0027 41.4799 35.0003 41.5567L29.2611 37.0068L43 26.1014L56.7387 37.0067L51.1082 41.4667ZM43 53.998C43.0142 53.9992 43.0286 53.9999 43.0432 53.9999H47.9509L43 57.8888V53.998ZM42 57.1441L28.9641 46.8847V38.0057L42.0173 48.3539C42.006 48.394 42 48.4361 42 48.4795V57.1441ZM21 42C21 29.8497 30.6259 20 42.5 20C54.3741 20 64 29.8497 64 42C64 54.1503 54.3741 64 42.5 64C30.6259 64 21 54.1503 21 42Z" fill="#0D2321"/>
</svg>
