<svg width="226" height="84" viewBox="0 0 226 84" fill="none" xmlns="http://www.w3.org/2000/svg">
<path d="M77.2917 54.1862C77.2917 53.332 76.9829 52.6545 76.3641 52.1538C75.7751 51.653 74.6702 51.0345 73.0501 50.2981L70.0461 48.8843C67.189 47.5293 65.7602 45.438 65.7602 42.6103C65.7602 40.4895 66.5702 38.7958 68.1903 37.5293C69.8104 36.2626 72.0195 35.6294 74.8176 35.6294C77.4098 35.6294 80.002 36.0271 82.5936 36.8223L80.1196 43.2288H80.0313L76.5851 37.0874C76.3196 36.6456 75.981 36.4247 75.5686 36.4247H74.9504C73.9192 36.4247 73.0653 36.6898 72.3874 37.22C71.7101 37.7502 71.3715 38.516 71.3715 39.5175C71.3715 40.4306 71.6809 41.167 72.2991 41.7266C72.9472 42.2862 73.9929 42.8901 75.4364 43.5381L78.2638 44.7752C79.8546 45.4527 81.0624 46.248 81.8871 47.1611C82.741 48.0743 83.168 49.3113 83.168 50.8725C83.168 53.1994 82.2696 55.0109 80.4729 56.307C78.6761 57.5735 76.2757 58.2068 73.2712 58.2068C70.4433 58.2068 67.7335 57.7503 65.1416 56.8372L67.5715 49.9888H67.6598L71.1949 56.8372C71.3715 57.2201 71.6809 57.4115 72.1225 57.4115H73.139C74.4053 57.4115 75.4066 57.117 76.143 56.5279C76.9092 55.9388 77.2917 55.1582 77.2917 54.1862Z" fill="#002825"/>
<path d="M104.994 44.5543C104.994 44.7311 104.979 45.0403 104.949 45.4822C104.949 45.8946 104.949 46.1155 104.949 46.1449L104.684 52.4189C104.596 54.1273 104.994 54.9815 105.877 54.9815C106.437 54.9815 106.849 54.7164 107.115 54.1862H107.203C107.203 54.7753 107.085 55.3055 106.849 55.7768C106.054 57.3968 104.611 58.2068 102.519 58.2068C101.194 58.2068 100.074 57.8387 99.1613 57.1023C98.2483 56.3364 97.7622 55.276 97.7031 53.9211C97.2616 55.2171 96.4954 56.2628 95.4057 57.0581C94.3453 57.8239 93.1083 58.2068 91.6946 58.2068C89.9862 58.2068 88.5573 57.6619 87.4086 56.5721C86.2599 55.4527 85.6855 53.9211 85.6855 51.9771C85.6855 49.9152 86.4219 48.2952 87.8946 47.1169C89.3972 45.9093 91.1349 45.3054 93.1083 45.3054C95.1115 45.3054 96.6726 45.7031 97.7915 46.4983L97.8798 41.7708V41.5499C97.8798 38.1625 96.8048 36.4689 94.6547 36.4689C94.2131 36.4689 93.933 36.4983 93.8154 36.5573C93.7271 36.6162 93.609 36.7634 93.4616 36.9991L89.8827 43.6265H89.7943L87.0109 37.3084C90.1336 36.189 93.1083 35.6294 95.9362 35.6294C99.0583 35.6294 101.341 36.3069 102.785 37.6618C104.257 39.0462 104.994 41.3437 104.994 44.5543ZM96.1567 46.6751C95.0378 46.6751 94.1541 47.1022 93.506 47.9564C92.8872 48.8106 92.5778 49.9004 92.5778 51.226C92.5778 52.4041 92.8135 53.332 93.2849 54.0095C93.7856 54.6575 94.419 54.9815 95.1846 54.9815C96.1865 54.9815 97.0259 54.466 97.7031 53.4351V53.3909L97.7915 46.9402C97.2616 46.7635 96.7164 46.6751 96.1567 46.6751Z" fill="#002825"/>
<path d="M131.358 25.6442V54.5397C131.358 55.011 131.49 55.3645 131.756 55.6001L133.965 57.7651V57.8535H124.156V53.7003C122.86 56.7047 120.695 58.2069 117.661 58.2069C115.069 58.2069 112.963 57.2202 111.343 55.2466C109.752 53.2731 108.957 50.5191 108.957 46.9845C108.957 43.5971 109.841 40.8577 111.608 38.7664C113.405 36.6751 115.688 35.6295 118.457 35.6295C121.196 35.6295 123.096 36.8077 124.156 39.1641V30.0182C124.156 29.547 124.009 29.1788 123.714 28.9137L121.593 26.8813V26.7929L131.358 25.6442ZM121.064 54.8932C122.271 54.8932 123.302 54.3335 124.156 53.2142V39.5618C123.449 38.6486 122.492 38.1921 121.284 38.1921C119.929 38.1921 118.81 38.8843 117.926 40.2687C117.042 41.6236 116.601 43.7885 116.601 46.7635C116.601 49.5912 116.999 51.6531 117.794 52.9492C118.619 54.2452 119.708 54.8932 121.064 54.8932Z" fill="#002825"/>
<path d="M157.817 25.6442V54.5397C157.817 55.011 157.95 55.3645 158.215 55.6001L160.424 57.7651V57.8535H150.616V53.7003C149.32 56.7047 147.154 58.2069 144.121 58.2069C141.528 58.2069 139.423 57.2202 137.803 55.2466C136.212 53.2731 135.417 50.5191 135.417 46.9845C135.417 43.5971 136.3 40.8577 138.068 38.7664C139.864 36.6751 142.147 35.6295 144.916 35.6295C147.655 35.6295 149.555 36.8077 150.616 39.1641V30.0182C150.616 29.547 150.468 29.1788 150.174 28.9137L148.053 26.8813V26.7929L157.817 25.6442ZM147.523 54.8932C148.731 54.8932 149.761 54.3335 150.616 53.2142V39.5618C149.909 38.6486 148.951 38.1921 147.744 38.1921C146.389 38.1921 145.269 38.8843 144.386 40.2687C143.502 41.6236 143.06 43.7885 143.06 46.7635C143.06 49.5912 143.458 51.6531 144.253 52.9492C145.078 54.2452 146.168 54.8932 147.523 54.8932Z" fill="#002825"/>
<path d="M171.367 25.6442V54.6723C171.367 55.1141 171.514 55.4676 171.808 55.7327L173.974 57.7651V57.8535H161.602V57.7651L163.767 55.7327C164.032 55.4676 164.165 55.1141 164.165 54.6723V30.0182C164.165 29.547 164.032 29.1788 163.767 28.9137L161.602 26.8813V26.7929L171.367 25.6442Z" fill="#002825"/>
<path d="M196.111 45.924H182.856V46.0124C182.856 48.7222 183.445 50.7547 184.623 52.1096C185.802 53.4351 187.318 54.0978 189.174 54.0978C192.296 54.0978 194.535 52.7429 195.89 50.033H195.978C194.859 55.4822 191.604 58.2068 186.214 58.2068C183.18 58.2068 180.617 57.2642 178.526 55.3791C176.435 53.494 175.389 50.7252 175.389 47.0728C175.389 43.2141 176.435 40.3422 178.526 38.4571C180.617 36.5719 183.269 35.6294 186.479 35.6294C187.716 35.6294 188.879 35.7914 189.97 36.1154C191.059 36.4394 192.076 36.9401 193.018 37.6176C193.99 38.2951 194.756 39.2671 195.316 40.5337C195.875 41.7708 196.155 43.2436 196.155 44.952C196.155 45.2465 196.14 45.5705 196.111 45.924ZM186.391 36.4689C185.242 36.4689 184.373 37.1463 183.784 38.5013C183.195 39.8268 182.886 42.0359 182.856 45.1287H189.351C189.381 44.7458 189.395 44.304 189.395 43.8032C189.395 41.0639 189.13 39.164 188.6 38.1036C188.099 37.0138 187.363 36.4689 186.391 36.4689Z" fill="#002825"/>
<path d="M51.2654 32.3582C51.2654 32.3582 52.6648 28.884 52.4839 28.0878C52.315 27.3157 52.3029 27.0745 51.0363 26.1336C50.5296 26.3627 49.6248 26.6884 48.889 26.5437C47.8033 26.3386 47.2484 25.9646 46.7296 25.5063C46.2109 25.0478 45.9335 24.3723 45.8852 23.9742C45.8731 23.8777 45.9817 23.8053 46.0661 23.8656C46.5125 24.1913 46.8744 24.7824 48.1411 25.2046C48.8649 25.4459 49.456 25.3736 49.8179 25.2529C48.2134 24.1431 45.8852 22.6231 44.4979 22.1647C42.7246 21.5856 41.9284 22.7196 41.9284 22.7196L40.2637 25.3494C40.2637 25.3494 43.0623 25.7596 45.9214 27.364C48.7683 28.9564 51.2654 32.3582 51.2654 32.3582Z" fill="#002825"/>
<path d="M55.7286 36.3034C55.3787 36.3517 54.8479 36.3517 54.1362 36.1708C51.3496 35.3866 49.6366 30.7905 44.8112 27.8953C37.1027 23.9143 32.9649 27.5092 32.9649 27.5092C32.4341 27.8712 32.977 28.1003 32.977 28.1003L35.5103 29.379L36.7046 30.0063C36.7046 30.0063 35.9446 30.9835 34.4005 30.2356C33.8938 30.0184 32.8805 29.9581 32.0964 30.6578C31.2399 31.1283 31.6138 32.4914 30.9866 33.36C30.3713 34.2286 29.1408 34.0838 29.0081 35.3384C28.8996 36.6171 29.9129 36.8584 29.937 37.8114C29.9611 38.7644 29.6113 39.3072 29.5148 39.5606C29.4786 39.6691 29.4545 39.8018 29.4545 39.9346C29.4666 40.1155 29.551 40.2964 29.6716 40.4412C29.7681 40.5497 29.8526 40.6221 29.9491 40.6825C30.3593 40.9599 30.7091 41.3218 30.9383 41.7561C30.9745 41.8285 31.0107 41.9009 31.0589 41.9732C31.0951 42.0335 31.1313 42.1059 31.1796 42.1904C31.4449 42.6609 31.5535 43.2158 31.457 43.7586C31.4329 43.9034 31.4449 44.0723 31.4932 44.2291C31.5897 44.5186 31.8431 44.7358 32.1446 44.8202C32.591 44.9288 32.977 45.1942 33.2424 45.5682C33.2665 45.5923 33.2786 45.6285 33.3027 45.6526C33.6646 46.1592 33.5922 46.9554 33.737 47.5345C33.8817 48.1135 34.3643 48.2945 35.064 48.6925C35.7637 49.0906 35.9084 49.718 35.6189 50.0195C35.3294 50.3211 33.6164 49.5853 32.9287 50.4056C32.4221 50.876 32.6392 51.1776 32.3859 52.0703C32.1326 52.9751 31.3605 52.3116 30.9504 52.9389C30.5402 53.5661 30.4799 54.2417 30.6849 55.5808C30.8901 56.9198 32.1929 58.7655 32.1929 58.7655C32.1929 58.7655 31.4932 56.3287 33.0132 54.2417C34.304 52.7218 35.2932 52.5166 36.7529 52.4925C38.2246 52.4563 40.396 53.7833 40.8423 56.389C41.0715 58.1141 40.1306 59.1153 40.0582 59.2119C39.8893 59.4049 38.502 60.9369 36.6564 59.9115C36.1497 59.5617 35.7034 59.1997 35.4017 58.5001C35.1846 57.8607 35.1243 57.0042 35.4862 56.4252C35.7878 55.9426 36.2703 55.7979 36.4151 55.7858C36.6322 55.7617 37.1027 55.7738 37.4043 56.0029C37.7059 56.2322 38.0315 56.5699 37.9712 57.149C37.9109 57.7281 37.3077 57.8969 37.0785 57.8487C36.8855 57.8125 37.0182 57.8366 37.0665 57.8487C36.6925 57.8246 36.5237 57.5351 36.4512 57.3299C36.4392 57.2817 36.3668 57.2937 36.3547 57.342C36.2462 58.1382 36.8494 58.6449 37.2112 58.7293C37.6094 58.8137 38.2005 58.8017 38.683 58.3071C39.1052 57.8849 39.3344 57.5229 39.3344 56.5941C39.3344 55.8341 39.0208 55.3033 38.502 54.8449C37.8265 54.2176 36.9338 53.9763 36.3185 54.0246C35.7395 54.0728 34.7262 54.3141 34.0627 55.3636C33.4475 56.3287 33.1821 57.6557 33.7008 59.1394L33.7249 59.1877C34.9072 61.9502 37.6697 62.6499 39.5757 62.6499C39.9617 62.6499 40.3115 62.6258 40.6011 62.5775C40.6614 62.5655 42.0245 62.3604 43.3515 61.5401C44.9921 60.4544 45.9693 58.8861 45.9693 56.4614C45.9693 53.2404 44.5578 51.0931 41.6627 47.7395C41.1077 47.0519 38.8519 44.2653 38.4417 43.7224C36.4271 41.1167 34.1713 38.0526 35.2932 35.7244C35.3294 35.652 35.3656 35.5917 35.4017 35.5193C37.0785 32.4431 41.8074 33.2031 40.77 33.3961C38.9725 33.6978 37.8989 34.4939 37.5732 34.8438C37.2474 35.1936 37.0665 35.4952 36.8494 36.0622C36.4754 36.9911 36.777 38.4266 37.5732 39.6812C41.0353 44.591 46.1503 50.7071 46.7775 52.1789C47.5858 54.0366 47.7064 55.5084 47.6943 56.4131C47.6823 57.3179 47.4651 58.7655 47.4651 58.7655C47.4651 58.7655 48.6594 57.8125 49.2264 56.6544C49.7934 55.4963 49.8899 54.9414 49.721 54.5071C49.5401 54.0728 49.0937 54.0608 48.9128 53.349C48.7318 52.6373 49.2384 52.01 48.7077 50.876C48.4784 50.3815 47.2601 49.6576 46.6328 48.8615C46.0055 48.0653 44.8595 46.6418 44.003 45.4957C42.4588 43.445 41.9522 42.7453 41.0595 41.5872C42.0245 41.8767 43.2309 42.2749 46.0055 40.9841C48.575 42.299 50.3362 42.2266 50.9514 42.1904C51.5667 42.1542 52.1457 41.8767 52.5921 41.5269C52.8816 41.2977 53.0987 40.8393 53.2314 40.5377C53.2797 40.4291 53.1711 40.3326 53.0626 40.3688C50.9032 41.2615 48.9128 40.5377 46.4639 39.1746L46.0296 38.9333L45.5953 39.1625C43.0258 40.5377 40.3236 39.4641 40.0823 39.3676C39.9858 39.3193 39.25 38.9332 38.9243 38.2819C38.5985 37.6304 38.5262 36.9428 38.7674 36.3638C38.9605 35.8933 39.4189 35.5796 40.1668 35.4228C40.782 35.3504 41.5782 35.5796 42.2176 35.8329C42.3623 35.8933 42.495 35.7485 42.4347 35.6158C42.3623 35.4228 42.3141 35.2178 42.3141 35.0006C42.3141 34.6387 42.4347 34.313 42.6277 34.0476L43.4842 34.4457C43.3395 34.5904 43.255 34.8076 43.2791 35.0489C43.3153 35.3625 43.5807 35.6279 43.8944 35.6641C44.3166 35.7244 44.6665 35.4108 44.7026 35.0126L45.5109 35.3866C45.3661 35.9778 44.9077 36.4361 44.3166 36.5809C44.196 36.6051 44.1839 36.7619 44.3045 36.7981C45.4023 37.3168 48.6112 38.8126 48.6112 38.8126C48.6112 38.8126 50.4689 39.8501 52.0975 39.645C53.6657 39.5606 54.3654 38.3181 53.4365 38.4387C52.5076 38.5593 50.3121 37.6063 50.3121 37.6063L48.8404 36.9187L49.4556 35.9657C49.4556 35.9657 51.5546 37.1599 53.4124 37.5701C54.6429 37.8355 55.4752 37.1358 55.8975 36.6291C56.0302 36.4964 55.9095 36.2793 55.7286 36.3034ZM38.5503 32.1175C37.7662 32.214 36.5719 32.5758 35.8964 32.9016C35.643 33.0222 35.4259 33.1428 35.2449 33.2514C34.6538 33.6374 34.123 34.2165 33.7008 35.0126C32.0481 38.2216 35.076 42.1542 37.5129 45.3148C37.923 45.8456 38.297 46.3402 38.6347 46.7986C39.1535 47.5103 39.7205 48.21 40.2753 48.8735C41.6988 50.6227 43.2671 52.4805 43.9426 54.5433C44.1236 55.2671 44.1477 55.9426 44.0633 56.4855C43.7738 58.1744 42.302 58.7534 42.302 58.7534C42.5192 58.0537 42.6398 57.149 42.5071 56.1116V56.0874C42.0607 53.6627 40.0944 51.5154 40.0944 51.5154C39.6239 50.8881 39.1173 50.2367 38.7071 49.7059C34.5694 44.3859 34.1592 43.7827 33.1821 42.0094L33.17 41.9853C33.1459 41.937 33.1097 41.8767 33.0735 41.8164C32.5066 40.8634 30.9866 38.3181 31.6501 35.652C31.8069 35.0368 32.0843 34.4819 32.4824 33.9993C34.9072 30.8508 39.5515 31.9245 38.5503 32.1175Z" fill="#002825"/>
</svg>
