<svg width="226" height="84" viewBox="0 0 226 84" fill="none" xmlns="http://www.w3.org/2000/svg">
<path d="M175.22 51.541H177.336V38.9037H175.22V51.541Z" fill="#0E182D"/>
<path d="M177.336 35.1152H175.22V37.2347H177.336V35.1152Z" fill="#0E182D"/>
<path d="M77.3028 35.0092C75.0017 35.0092 72.5419 35.91 72.5419 38.1354C72.5419 40.0959 74.7901 40.6788 77.4615 41.1292C81.0851 41.712 84.6558 42.4273 84.6558 46.5338C84.6294 50.6137 80.7413 51.9384 77.2764 51.9384C74.076 51.9384 71.0078 50.7727 69.606 47.726L71.4839 46.6397C72.6477 48.7857 75.081 49.8189 77.3028 49.8189C79.4981 49.8189 82.434 49.1301 82.434 46.4543C82.4605 44.2024 79.9213 43.54 77.197 43.1426C73.7057 42.5863 70.2936 41.7915 70.2936 38.1089C70.2408 34.3204 74.1024 33.0222 77.2235 33.0222C79.9213 33.0222 82.4869 33.5786 84.1004 36.3074L82.3811 37.3671C81.4289 35.751 79.3394 35.0357 77.3028 35.0092Z" fill="#0E182D"/>
<path d="M88.4909 33.4196V40.8642C89.5753 39.1686 91.2945 38.6122 92.908 38.5857C96.5051 38.5857 98.2773 40.9701 98.2773 44.4937V51.5409H96.1877V44.5202C96.1877 42.0034 94.8917 40.5727 92.5641 40.5727C90.2366 40.5727 88.5173 42.4273 88.5173 44.7587V51.5674H86.4014V33.3931L88.4909 33.4196Z" fill="#0E182D"/>
<path d="M111.397 51.594L111.344 49.2626C110.339 51.0376 108.381 51.8589 106.636 51.8589C102.959 51.8589 100.076 49.3156 100.076 45.1296C100.076 40.9702 103.012 38.4798 106.662 38.5063C108.567 38.5063 110.471 39.3806 111.397 41.0497L111.423 38.7183H113.486V51.541H111.45L111.397 51.594ZM106.741 40.5463C104.202 40.5463 102.166 42.3743 102.166 45.2091C102.166 48.0439 104.202 49.8984 106.741 49.8984C112.904 49.8984 112.904 40.5198 106.741 40.5463Z" fill="#0E182D"/>
<path d="M115.47 38.7713H117.48L117.586 41.2352C118.591 39.5131 120.495 38.5328 122.505 38.5328C126.182 38.6123 128.88 41.2087 128.88 45.1562C128.88 49.2096 126.208 51.8325 122.373 51.8325C120.548 51.8325 118.538 51.0641 117.533 49.2361V57.5815H115.47V38.7713ZM126.764 45.2091C126.764 42.3214 124.859 40.6258 122.267 40.6258C119.596 40.6258 117.797 42.5863 117.797 45.2091C117.797 47.832 119.702 49.7925 122.267 49.819C124.806 49.819 126.764 48.0969 126.764 45.2091Z" fill="#0E182D"/>
<path d="M142.528 49.4746C141.231 51.0112 139.01 51.753 137 51.753C133.032 51.753 130.255 49.1302 130.255 45.0502C130.255 41.1822 133.032 38.4004 136.894 38.4004C140.808 38.4004 143.797 40.8113 143.295 45.9245H132.424C132.662 48.2824 134.593 49.766 137.052 49.766C138.507 49.766 140.253 49.1831 141.126 48.1499L142.528 49.4746ZM141.284 44.2024C141.179 41.712 139.459 40.3609 136.947 40.3609C134.725 40.3609 132.768 41.712 132.424 44.1759L141.284 44.2024Z" fill="#0E182D"/>
<path d="M152.182 35.0092C149.881 35.0092 147.421 35.91 147.421 38.1354C147.421 40.0959 149.669 40.6788 152.34 41.1292C155.964 41.712 159.535 42.4273 159.535 46.5338C159.508 50.6137 155.62 51.9384 152.155 51.9384C148.955 51.9384 145.887 50.7727 144.485 47.726L146.363 46.6397C147.527 48.7857 149.96 49.8189 152.182 49.8189C154.377 49.8189 157.313 49.1301 157.313 46.4543C157.339 44.2024 154.8 43.54 152.076 43.1426C148.585 42.5863 145.173 41.7915 145.173 38.1089C145.12 34.3204 148.981 33.0222 152.102 33.0222C154.8 33.0222 157.366 33.5786 158.979 36.3074L157.26 37.3671C156.281 35.751 154.192 35.0357 152.182 35.0092Z" fill="#0E182D"/>
<path d="M163.317 33.3931V40.8377C164.402 39.1421 166.121 38.5857 167.734 38.5593C171.331 38.5593 173.103 40.9436 173.103 44.4673V51.5145H171.014V44.4937C171.014 41.9769 169.718 40.5462 167.39 40.5462C165.063 40.5462 163.344 42.4008 163.344 44.7322V51.5409H161.228V33.3666L163.317 33.3931Z" fill="#0E182D"/>
<path d="M181.408 51.5935V51.5675H181.382L181.408 51.5935Z" fill="#0E182D"/>
<path d="M183.922 37.8705C183.922 35.9629 184.794 35.0887 186.17 35.0887C186.196 35.0887 186.223 35.0887 186.249 35.0887L186.725 33.2606C186.514 33.2341 186.328 33.2076 186.117 33.2076C183.419 33.2076 181.832 34.9297 181.832 37.8705V38.8772H179.319V40.7582H181.832V51.541H183.922V40.7582H186.461V38.8772H183.922V37.8705Z" fill="#0E182D"/>
<path d="M194.739 49.7659C194.58 49.7924 194.395 49.8189 194.237 49.8189C192.703 49.8189 192.226 48.8651 192.226 47.355V40.7582H194.951V38.9037H192.253V34.9827L190.137 35.2211V38.8772H187.571V40.7317H190.137V47.3285C190.137 50.1633 191.433 51.7529 194.184 51.7264C194.528 51.7264 194.845 51.6734 195.162 51.6204L194.739 49.7659Z" fill="#0E182D"/>
<path d="M58.4708 24.2L47.5206 28.5713H37.2846L26.8105 24.147L29.191 38.5328L26.9163 46.3218L32.8675 49.8984C35.6976 51.594 38.2103 53.6869 40.3792 56.1773L42.7068 58.8266L45.1402 56.0184C47.2297 53.6075 49.663 51.5675 52.3609 49.8984L58.2063 46.3218L56.0903 38.5328L58.4708 24.2ZM51.2236 48.4943C49.2398 49.7395 47.3884 51.1701 45.722 52.7862L43.6854 50.5607L51.2236 48.4943ZM41.5959 50.5607L39.6122 52.7597C37.9194 51.1436 36.0679 49.7395 34.0842 48.5208L41.5959 50.5607ZM39.6386 48.1499L29.1117 45.2886L30.5399 40.3608L39.6386 48.1499ZM35.6712 29.843L30.6722 36.3869L29.1381 27.0877L35.6712 29.843ZM52.7576 39.5131L42.6274 48.3618L32.3121 39.5131H52.7576ZM31.9418 37.685L37.5491 30.3729H47.2561L53.4718 37.685H31.9418ZM54.662 40.2284L56.0374 45.2886L45.5898 48.1764L54.662 40.2284ZM56.1697 27.0612L54.6356 36.2809L49.1869 29.843L56.1697 27.0612Z" fill="#0E182D"/>
</svg>
