<svg width="226" height="84" viewBox="0 0 226 84" fill="none" xmlns="http://www.w3.org/2000/svg">
<path d="M189.771 49.8645C190.679 49.8645 191.554 49.6876 192.386 49.3226C193.219 48.9686 193.945 48.469 194.553 47.8227C195.172 47.1458 195.663 46.375 196.036 45.4791C196.399 44.5727 196.581 43.5728 196.581 42.4998C196.581 41.4165 196.399 40.4376 196.036 39.5521C195.695 38.6873 195.193 37.8959 194.553 37.2186C193.336 35.8852 191.597 35.1351 189.771 35.1351C188.843 35.1351 187.957 35.3126 187.125 35.677C186.313 36.0312 185.598 36.5415 184.979 37.2186C184.37 37.8644 183.88 38.6459 183.517 39.5521C183.133 40.4896 182.948 41.4892 182.962 42.4998C182.962 43.5831 183.143 44.5727 183.517 45.4791C183.88 46.375 184.37 47.1458 184.979 47.8227C185.598 48.469 186.313 48.9686 187.125 49.3226C187.957 49.6876 188.843 49.8645 189.771 49.8645ZM189.771 53.9997C188.256 53.9997 186.804 53.7082 185.427 53.1352C184.093 52.5521 182.876 51.7188 181.851 50.698C180.838 49.6147 180.016 48.3748 179.429 47.0313C178.82 45.5936 178.522 44.0521 178.543 42.4999C178.543 40.8958 178.831 39.3959 179.429 38.0106C179.994 36.6561 180.827 35.4065 181.851 34.3439C182.866 33.3018 184.083 32.4688 185.427 31.8958C186.804 31.302 188.255 31 189.771 31C191.297 31 192.728 31.3021 194.084 31.9061C195.45 32.479 196.645 33.2916 197.648 34.3439C198.694 35.3956 199.526 36.6458 200.082 38.0106C200.701 39.3959 201 40.8958 201 42.4999C201 44.1352 200.701 45.6458 200.082 47.0313C199.516 48.3854 198.684 49.6355 197.648 50.698C196.634 51.729 195.429 52.5624 194.084 53.1352C192.717 53.7191 191.254 54.0105 189.771 53.9997ZM148.529 49.6876C149.437 49.6876 150.312 49.4971 151.145 49.1147C152.009 48.7292 152.757 48.2186 153.397 47.5729C154.059 46.9163 154.571 46.1639 154.942 45.3018C155.329 44.4168 155.531 43.4793 155.531 42.4999C155.531 41.552 155.339 40.6042 154.942 39.7293C154.592 38.8748 154.059 38.0937 153.397 37.4269C152.757 36.781 151.988 36.2601 151.145 35.8853C150.333 35.5102 149.437 35.3126 148.529 35.3126H145.584V49.6876H148.529V49.6876ZM141.165 31.177H148.529C150.056 31.177 151.507 31.4892 152.874 32.1147C154.251 32.7186 155.467 33.5313 156.524 34.5627C157.581 35.5936 158.435 36.8121 159.032 38.156C159.64 39.5207 159.95 40.9689 159.95 42.4998C159.95 44.0314 159.64 45.4791 159.032 46.8436C158.435 48.1875 157.581 49.4062 156.524 50.4376C155.467 51.4688 154.229 52.3125 152.874 52.9272C151.507 53.5209 150.056 53.8228 148.529 53.8228H141.165V31.177ZM115.603 31.177H120.011V53.8228H115.603V31.177ZM81 31.177H85.4189V49.6876H96.2842V53.8228H81V31.177Z" fill="#0D2321"/>
<path fill-rule="evenodd" clip-rule="evenodd" d="M33.0608 37.274L39.9949 26.1499L46.9382 37.274L39.9949 41.4238L33.0608 37.274ZM39.9949 22L50 38.0391L39.9949 44L30 38.0391L39.9949 22Z" fill="#002825"/>
<path d="M40.0004 46.9848L28.509 40L28.1965 40.5114C24.6653 46.2996 25.4568 53.8717 30.1029 58.7244C35.562 64.4252 44.4278 64.4252 49.8971 58.7244C54.5432 53.8718 55.3347 46.2996 51.8035 40.5114L51.4808 40L40.0004 46.9848Z" fill="#002825"/>
</svg>
