<svg width="226" height="84" viewBox="0 0 226 84" fill="none" xmlns="http://www.w3.org/2000/svg">
<path d="M43.4034 26C34.3601 26 27 33.3316 27 42.4034C27 51.4466 34.3316 58.8067 43.4034 58.8067C52.4752 58.8067 59.8068 51.4752 59.8068 42.4034C59.8068 33.3601 52.4466 26 43.4034 26ZM55.4135 43.2877H47.7966C47.2831 45.7982 44.8583 47.4242 42.3479 46.9107C39.8374 46.3972 38.2113 43.9724 38.7248 41.462C39.2383 38.9515 41.6632 37.3255 44.1736 37.839C46.085 38.2098 47.5399 39.7503 47.8537 41.6902H55.4135C55.8699 41.6902 56.2123 42.061 56.2123 42.489C56.2123 42.9454 55.8414 43.2877 55.4135 43.2877ZM191.861 42.5175C193.088 42.5175 193.944 43.3163 194.2 44.5715H189.408C189.636 43.2592 190.577 42.5175 191.861 42.5175ZM198.166 45.7696C198.166 41.9755 195.513 39.2653 191.89 39.2653C188.01 39.2653 185.271 42.0325 185.271 45.9123C185.271 49.9061 188.095 52.5877 191.975 52.5877C194.885 52.5877 196.682 51.6178 197.738 50.277L195.37 47.8521C194.628 48.708 193.516 49.2215 192.375 49.25C190.806 49.25 189.579 48.4797 189.294 47.0248H198.023C198.109 46.7396 198.166 46.112 198.166 45.7696ZM178.425 52.331H182.533V42.8028H184.986V39.4936H182.533V37.6393C182.533 36.6123 183.017 36.2414 183.731 36.2414C184.102 36.2414 184.786 36.4126 185.328 36.7264L186.098 33.7595C185.642 33.4457 184.33 32.761 182.647 32.761C180.079 32.761 178.425 34.3015 178.425 37.4966V39.5221H177.198V42.8028H178.425V52.331ZM169.096 48.9362C167.47 48.9362 166.329 47.738 166.329 45.9123C166.329 44.0865 167.498 42.8598 169.096 42.8598C170.637 42.8598 171.806 44.1436 171.806 45.9123C171.806 47.7666 170.579 48.9362 169.096 48.9362ZM168.24 52.5592C169.781 52.5592 170.95 52.0457 171.778 50.9617L171.835 50.9902V52.331H175.743V39.4936H171.635V40.8344L171.578 40.8629C170.694 39.8359 169.381 39.2368 168.04 39.2653C164.731 39.2653 162.192 42.004 162.192 45.9408C162.164 49.8776 164.731 52.5592 168.24 52.5592ZM154.347 52.5592C157.457 52.5592 161.194 50.9902 161.194 46.5969C161.194 43.0024 158.683 42.1751 155.403 40.8914C153.377 40.0926 152.693 39.6362 152.721 38.7518C152.721 37.8675 153.377 37.2969 154.461 37.2969C155.517 37.2969 156.658 37.7819 158.256 39.0656L160.709 35.8706C158.94 34.3301 156.687 33.4172 154.262 33.4457C150.81 33.5028 148.157 35.842 148.157 38.923C148.157 42.6031 150.981 43.9439 153.834 44.9138C155.945 45.627 156.601 46.0549 156.601 47.0819C156.601 47.9092 155.973 48.6509 154.49 48.6509C153.206 48.6509 151.494 47.9948 150.097 46.4543L147.529 49.5638C149.498 51.6463 151.979 52.5592 154.347 52.5592ZM136.061 52.5592C139.57 52.5592 141.282 50.819 141.282 48.4512C141.282 45.9408 139.741 45.1991 136.888 44.2291C135.605 43.7727 135.12 43.4874 135.12 43.088C135.12 42.6031 135.662 42.3748 136.147 42.3748C137.002 42.3748 138.115 42.8313 138.999 43.7156L140.939 40.8629C139.456 39.7503 138.029 39.2653 136.09 39.2653C133.408 39.2653 131.297 40.7488 131.297 43.3733C131.297 45.8267 133.18 46.8822 135.348 47.5383C136.945 48.0233 137.345 48.3086 137.345 48.708C137.345 49.1929 136.917 49.4782 136.118 49.4782C134.948 49.4782 133.836 48.9932 132.752 48.0233L130.84 50.6764C132.267 51.9316 134.036 52.5592 136.061 52.5592ZM125.306 52.331H129.386V39.4936H125.278L125.306 52.331ZM127.36 37.896C128.787 37.896 129.813 36.869 129.813 35.5282C129.813 34.2445 128.758 33.2175 127.36 33.2175C125.934 33.2175 124.907 34.273 124.907 35.5282C124.907 36.869 125.934 37.896 127.36 37.896ZM118.374 52.5592C121.883 52.5592 123.594 50.819 123.594 48.4512C123.594 45.9408 122.054 45.1991 119.201 44.2291C117.917 43.7727 117.433 43.4874 117.433 43.088C117.433 42.6031 117.975 42.3748 118.46 42.3748C119.315 42.3748 120.428 42.8313 121.312 43.7156L123.252 40.8629C121.769 39.7503 120.342 39.2653 118.402 39.2653C115.721 39.2653 113.61 40.7488 113.61 43.3733C113.61 45.8267 115.493 46.8822 117.661 47.5383C119.258 48.0233 119.658 48.3086 119.658 48.708C119.658 49.1929 119.23 49.4782 118.431 49.4782C117.261 49.4782 116.149 48.9932 115.065 48.0233L113.153 50.6764C114.58 51.9316 116.377 52.5592 118.374 52.5592ZM105.565 48.9362C103.939 48.9362 102.769 47.6239 102.769 45.9123C102.769 44.1436 103.91 42.8883 105.565 42.8883C107.163 42.8883 108.332 44.115 108.332 45.9123C108.332 47.681 107.106 48.9362 105.565 48.9362ZM105.565 52.5592C109.616 52.5592 112.497 49.8491 112.497 45.9123C112.497 41.9469 109.616 39.2368 105.565 39.2368C101.429 39.2368 98.6043 42.004 98.6043 45.9123C98.6043 49.792 101.4 52.5592 105.565 52.5592ZM84.4831 52.331H88.5626V45.8837C88.5626 43.8868 89.504 42.9169 90.9304 42.9169C92.2712 42.9169 92.9844 43.5159 92.9844 45.6555V52.3595H97.0638V44.6571C97.0638 40.5776 95.1239 39.2653 92.4709 39.2653C90.9874 39.2368 89.5896 39.8644 88.6196 41.0055H88.5626V39.5221H84.4831V52.331ZM74.8979 52.5307C77.7791 52.5307 80.6034 51.5607 82.315 50.2485V41.8899H74.4985V45.5129H78.1215V47.7095C77.123 48.2515 76.0104 48.5368 74.8979 48.5368C71.7313 48.5368 69.8485 46.0834 69.8485 43.0595C69.8485 39.6077 72.0451 37.5822 74.6982 37.5822C76.3813 37.5822 77.9788 38.2383 79.1485 39.408L82.2295 36.7834C80.3181 34.5868 77.3798 33.4457 74.6696 33.4457C68.7074 33.4457 65.227 37.6393 65.227 43.0595C65.2555 49.1074 69.5061 52.5307 74.8979 52.5307Z" fill="black"/>
</svg>
