<svg width="226" height="84" viewBox="0 0 226 84" fill="none" xmlns="http://www.w3.org/2000/svg">
<path d="M85.6895 33.4279V26.3826H113.829V37.9027H105.924V33.3374H98.2893V38.7111H104.839V45.2138H98.2893V51.0424H106.058V45.8934H113.964V58H85.6895V50.9547H89.0326V33.4279H85.6895Z" fill="#293330"/>
<path d="M115.638 33.4279V26.3826H143.778V37.9027H135.872V33.3374H128.238V38.7111H134.787V45.2138H128.238V51.0424H136.009V45.8934H143.915V58H115.638V50.9547H118.981V33.4279H115.638Z" fill="#293330"/>
<path d="M162.072 40.2018C163.382 40.2018 163.878 40.1114 164.149 39.8401C164.554 39.388 164.645 38.7111 164.645 36.7683C164.645 34.8254 164.554 34.1485 164.149 33.6964C163.878 33.4251 163.382 33.3347 162.072 33.3347H158.189V40.1991H162.072V40.2018ZM172.279 45.17C171.06 46.436 169.161 46.8854 166.363 46.8854H158.186V50.952H161.754V58H145.583V50.9547H148.924V33.4279H145.583V26.3826H166.363C169.164 26.3826 171.06 26.8347 172.279 28.1007C173.723 29.5915 174.31 31.1726 174.31 36.6367C174.313 42.0981 173.723 43.682 172.279 45.17Z" fill="#293330"/>
<path d="M84.0177 33.4279V26.3826H68.072V33.3374H70.5547L65.6331 39.0728H63.6026V33.3374H66.4031V26.3798H62.6161V28.9886H60.5691V26.3798H56.8313V28.9886H54.7843V26.3798H51V33.4251H54.3431V50.952H51V58H66.4031V51.0424H63.6026V45.307H65.6331L70.5574 51.0424H68.0747V58H84.0204V50.9547H81.5323L74.0266 42.1885L81.5323 33.4279H84.0177Z" fill="#293330"/>
</svg>
