<svg width="226" height="84" viewBox="0 0 226 84" fill="none" xmlns="http://www.w3.org/2000/svg">
<path d="M94.8573 53.9998C94.678 53.9998 94.5614 53.9098 94.5076 53.7298L93.7005 51.0838C93.6647 51.0118 93.6198 50.9758 93.566 50.9758H86.9481C86.8943 50.9758 86.8494 51.0118 86.8136 51.0838L86.0334 53.7298C85.9796 53.9098 85.863 53.9998 85.6837 53.9998H82.2671C82.1595 53.9998 82.0788 53.9728 82.025 53.9188C81.9712 53.8468 81.9622 53.7478 81.9981 53.6218L87.809 35.3698C87.8628 35.1898 87.9793 35.0998 88.1587 35.0998H92.3823C92.5617 35.0998 92.6782 35.1898 92.7321 35.3698L98.5429 53.6218C98.5609 53.6578 98.5698 53.7028 98.5698 53.7568C98.5698 53.9188 98.4712 53.9998 98.2739 53.9998H94.8573ZM87.782 47.8708C87.7641 47.9788 87.8 48.0328 87.8897 48.0328H92.6244C92.7321 48.0328 92.7679 47.9788 92.7321 47.8708L90.3109 39.8518C90.2929 39.7798 90.266 39.7528 90.2301 39.7708C90.1943 39.7708 90.1674 39.7978 90.1494 39.8518L87.782 47.8708ZM109.665 54.2158C108.266 54.2158 107.037 53.9458 105.979 53.4058C104.921 52.8478 104.105 52.0738 103.531 51.0838C102.957 50.0938 102.67 48.9508 102.67 47.6548V41.4178C102.67 40.1218 102.957 38.9788 103.531 37.9888C104.105 36.9988 104.921 36.2338 105.979 35.6938C107.037 35.1538 108.266 34.8838 109.665 34.8838C111.046 34.8838 112.256 35.1448 113.297 35.6668C114.355 36.1708 115.171 36.8998 115.745 37.8538C116.336 38.7898 116.632 39.8788 116.632 41.1208C116.632 41.2828 116.525 41.3818 116.31 41.4178L113.162 41.6068H113.108C112.929 41.6068 112.839 41.5078 112.839 41.3098C112.839 40.3558 112.543 39.5908 111.951 39.0148C111.377 38.4388 110.615 38.1508 109.665 38.1508C108.696 38.1508 107.916 38.4388 107.324 39.0148C106.75 39.5908 106.463 40.3558 106.463 41.3098V47.8168C106.463 48.7528 106.75 49.5088 107.324 50.0848C107.916 50.6608 108.696 50.9488 109.665 50.9488C110.615 50.9488 111.377 50.6608 111.951 50.0848C112.543 49.5088 112.839 48.7528 112.839 47.8168C112.839 47.6188 112.947 47.5198 113.162 47.5198L116.31 47.6548C116.399 47.6548 116.471 47.6818 116.525 47.7358C116.597 47.7898 116.632 47.8528 116.632 47.9248C116.632 49.1668 116.336 50.2648 115.745 51.2188C115.171 52.1728 114.355 52.9108 113.297 53.4328C112.256 53.9548 111.046 54.2158 109.665 54.2158ZM132.435 53.9998C132.255 53.9998 132.13 53.9188 132.058 53.7568L128.695 46.2778C128.659 46.2058 128.605 46.1698 128.534 46.1698H126.032C125.942 46.1698 125.897 46.2148 125.897 46.3048V53.6758C125.897 53.7658 125.861 53.8468 125.79 53.9188C125.736 53.9728 125.664 53.9998 125.574 53.9998H122.427C122.337 53.9998 122.257 53.9728 122.185 53.9188C122.131 53.8468 122.104 53.7658 122.104 53.6758V35.4238C122.104 35.3338 122.131 35.2618 122.185 35.2078C122.257 35.1358 122.337 35.0998 122.427 35.0998H130.121C131.269 35.0998 132.273 35.3338 133.134 35.8018C134.013 36.2698 134.685 36.9358 135.152 37.7998C135.636 38.6638 135.878 39.6628 135.878 40.7968C135.878 42.0208 135.573 43.0738 134.963 43.9558C134.354 44.8198 133.502 45.4318 132.408 45.7918C132.318 45.8278 132.291 45.8908 132.327 45.9808L135.986 53.6218C136.022 53.6938 136.039 53.7478 136.039 53.7838C136.039 53.9278 135.941 53.9998 135.744 53.9998H132.435ZM126.032 38.3668C125.942 38.3668 125.897 38.4118 125.897 38.5018V43.1188C125.897 43.2088 125.942 43.2538 126.032 43.2538H129.556C130.309 43.2538 130.919 43.0288 131.385 42.5788C131.87 42.1288 132.112 41.5438 132.112 40.8238C132.112 40.1038 131.87 39.5188 131.385 39.0688C130.919 38.6008 130.309 38.3668 129.556 38.3668H126.032ZM148.018 54.2968C146.619 54.2968 145.382 54.0088 144.306 53.4328C143.247 52.8568 142.422 52.0558 141.831 51.0298C141.239 49.9858 140.943 48.7888 140.943 47.4388V41.6608C140.943 40.3288 141.239 39.1498 141.831 38.1238C142.422 37.0978 143.247 36.3058 144.306 35.7478C145.382 35.1718 146.619 34.8838 148.018 34.8838C149.435 34.8838 150.672 35.1718 151.731 35.7478C152.807 36.3058 153.641 37.0978 154.232 38.1238C154.824 39.1498 155.12 40.3288 155.12 41.6608V47.4388C155.12 48.7888 154.824 49.9858 154.232 51.0298C153.641 52.0738 152.807 52.8838 151.731 53.4598C150.672 54.0178 149.435 54.2968 148.018 54.2968ZM148.018 51.0298C149.005 51.0298 149.803 50.7148 150.412 50.0848C151.022 49.4548 151.327 48.6178 151.327 47.5738V41.6338C151.327 40.5898 151.022 39.7528 150.412 39.1228C149.821 38.4748 149.022 38.1508 148.018 38.1508C147.032 38.1508 146.234 38.4748 145.624 39.1228C145.032 39.7528 144.736 40.5898 144.736 41.6338V47.5738C144.736 48.6178 145.032 49.4548 145.624 50.0848C146.234 50.7148 147.032 51.0298 148.018 51.0298ZM167.175 54.2158C165.74 54.2158 164.485 53.9908 163.409 53.5408C162.333 53.0728 161.499 52.4158 160.907 51.5698C160.333 50.7058 160.046 49.7068 160.046 48.5728V47.9788C160.046 47.8888 160.073 47.8168 160.127 47.7628C160.198 47.6908 160.279 47.6548 160.369 47.6548H163.436C163.525 47.6548 163.597 47.6908 163.651 47.7628C163.723 47.8168 163.759 47.8888 163.759 47.9788V48.3838C163.759 49.1038 164.09 49.7158 164.754 50.2198C165.418 50.7058 166.314 50.9488 167.444 50.9488C168.395 50.9488 169.103 50.7508 169.569 50.3548C170.036 49.9408 170.269 49.4368 170.269 48.8428C170.269 48.4108 170.125 48.0508 169.838 47.7628C169.551 47.4568 169.157 47.1958 168.655 46.9798C168.17 46.7458 167.39 46.4308 166.314 46.0348C165.113 45.6208 164.09 45.1978 163.247 44.7658C162.422 44.3338 161.723 43.7488 161.149 43.0108C160.593 42.2548 160.315 41.3278 160.315 40.2298C160.315 39.1498 160.593 38.2048 161.149 37.3948C161.705 36.5848 162.476 35.9638 163.463 35.5318C164.449 35.0998 165.588 34.8838 166.879 34.8838C168.242 34.8838 169.453 35.1268 170.511 35.6128C171.587 36.0988 172.421 36.7828 173.013 37.6648C173.623 38.5288 173.928 39.5368 173.928 40.6888V41.0938C173.928 41.1838 173.892 41.2648 173.82 41.3368C173.766 41.3908 173.694 41.4178 173.605 41.4178H170.511C170.421 41.4178 170.341 41.3908 170.269 41.3368C170.215 41.2648 170.188 41.1838 170.188 41.0938V40.8778C170.188 40.1218 169.874 39.4828 169.247 38.9608C168.637 38.4208 167.794 38.1508 166.718 38.1508C165.875 38.1508 165.211 38.3308 164.727 38.6908C164.261 39.0508 164.028 39.5458 164.028 40.1758C164.028 40.6258 164.162 41.0038 164.431 41.3098C164.718 41.6158 165.131 41.8948 165.669 42.1468C166.225 42.3808 167.076 42.7048 168.224 43.1188C169.498 43.5868 170.493 44.0008 171.21 44.3608C171.946 44.7208 172.6 45.2608 173.174 45.9808C173.766 46.6828 174.062 47.6008 174.062 48.7348C174.062 50.4268 173.443 51.7678 172.206 52.7578C170.968 53.7298 169.291 54.2158 167.175 54.2158ZM185.864 54.2158C184.429 54.2158 183.174 53.9908 182.098 53.5408C181.022 53.0728 180.188 52.4158 179.596 51.5698C179.022 50.7058 178.735 49.7068 178.735 48.5728V47.9788C178.735 47.8888 178.762 47.8168 178.816 47.7628C178.887 47.6908 178.968 47.6548 179.058 47.6548H182.125C182.214 47.6548 182.286 47.6908 182.34 47.7628C182.412 47.8168 182.447 47.8888 182.447 47.9788V48.3838C182.447 49.1038 182.779 49.7158 183.443 50.2198C184.106 50.7058 185.003 50.9488 186.133 50.9488C187.084 50.9488 187.792 50.7508 188.258 50.3548C188.725 49.9408 188.958 49.4368 188.958 48.8428C188.958 48.4108 188.814 48.0508 188.527 47.7628C188.24 47.4568 187.846 47.1958 187.344 46.9798C186.859 46.7458 186.079 46.4308 185.003 46.0348C183.802 45.6208 182.779 45.1978 181.936 44.7658C181.111 44.3338 180.412 43.7488 179.838 43.0108C179.282 42.2548 179.004 41.3278 179.004 40.2298C179.004 39.1498 179.282 38.2048 179.838 37.3948C180.394 36.5848 181.165 35.9638 182.152 35.5318C183.138 35.0998 184.277 34.8838 185.568 34.8838C186.931 34.8838 188.142 35.1268 189.2 35.6128C190.276 36.0988 191.11 36.7828 191.702 37.6648C192.312 38.5288 192.617 39.5368 192.617 40.6888V41.0938C192.617 41.1838 192.581 41.2648 192.509 41.3368C192.455 41.3908 192.383 41.4178 192.294 41.4178H189.2C189.11 41.4178 189.03 41.3908 188.958 41.3368C188.904 41.2648 188.877 41.1838 188.877 41.0938V40.8778C188.877 40.1218 188.563 39.4828 187.936 38.9608C187.326 38.4208 186.483 38.1508 185.407 38.1508C184.564 38.1508 183.9 38.3308 183.416 38.6908C182.95 39.0508 182.717 39.5458 182.717 40.1758C182.717 40.6258 182.851 41.0038 183.12 41.3098C183.407 41.6158 183.819 41.8948 184.358 42.1468C184.914 42.3808 185.765 42.7048 186.913 43.1188C188.187 43.5868 189.182 44.0008 189.899 44.3608C190.635 44.7208 191.289 45.2608 191.863 45.9808C192.455 46.6828 192.751 47.6008 192.751 48.7348C192.751 50.4268 192.132 51.7678 190.895 52.7578C189.657 53.7298 187.98 54.2158 185.864 54.2158Z" fill="#0D2321"/>
<path fill-rule="evenodd" clip-rule="evenodd" d="M61.257 27L64.8696 30.6257L52.7969 42.7424C52.1605 41.079 50.8416 39.7552 49.1843 39.1166L61.257 27ZM44.6853 39.1166L32.6126 27L29 30.6257L41.0727 42.7424C41.709 41.079 43.028 39.7552 44.6853 39.1166ZM41.0727 47.2576L29 59.3743L32.6126 63L44.6853 50.8834C43.028 50.2447 41.709 48.921 41.0727 47.2576ZM49.1843 50.8834L61.257 63L64.8696 59.3743L52.7969 47.2576C52.1605 48.921 50.8416 50.2447 49.1843 50.8834Z" fill="#0D2321"/>
</svg>
