<svg width="176" height="66" viewBox="0 0 176 66" fill="none" xmlns="http://www.w3.org/2000/svg">
<path d="M86.3799 46.247C85.9501 46.3227 85.5144 46.3595 85.078 46.357C84.1492 46.357 83.4954 46.1861 83.1168 45.8444C82.7381 45.5027 82.5488 44.9287 82.5488 44.1223V23.8649C82.7441 23.8153 83.0556 23.7538 83.4833 23.6805C83.9013 23.6086 84.3246 23.5721 84.7488 23.5714C85.6279 23.5714 86.2755 23.7301 86.6914 24.0476C87.1073 24.3651 87.3144 24.9513 87.3126 25.8062V33.023H96.4753V23.8649C96.6706 23.8153 96.9824 23.7538 97.4107 23.6805C97.8284 23.6086 98.2514 23.5721 98.6753 23.5714C99.555 23.5714 100.203 23.7361 100.618 24.0654C101.033 24.3947 101.24 24.9859 101.239 25.839V46.0582C101.019 46.1069 100.707 46.169 100.304 46.2417C99.8743 46.3175 99.4388 46.3543 99.0028 46.3517C98.0733 46.3517 97.4196 46.1808 97.0415 45.8391C96.6635 45.4974 96.4739 44.9233 96.4727 44.1169V36.8274H87.3108V46.0635C87.0898 46.114 86.7792 46.1743 86.3799 46.247Z" fill="#0D2321"/>
<path d="M122.266 37.6911C122.266 39.1431 122.052 40.4493 121.626 41.6097C121.23 42.7221 120.614 43.7381 119.816 44.5936C119.024 45.4271 118.063 46.0732 117.002 46.4867C115.905 46.9229 114.674 47.1416 113.31 47.1428C111.945 47.144 110.715 46.9253 109.618 46.4867C108.56 46.0752 107.6 45.4359 106.803 44.6117C106.003 43.7667 105.386 42.7575 104.994 41.6505C104.567 40.4883 104.354 39.1697 104.354 37.6947C104.354 36.2463 104.567 34.9407 104.994 33.7779C105.388 32.6672 106.012 31.6568 106.822 30.8158C107.627 29.9947 108.592 29.3563 109.653 28.9418C110.751 28.5044 111.969 28.2856 113.309 28.2856C114.649 28.2856 115.867 28.5044 116.964 28.9418C118.029 29.3586 118.994 30.004 119.796 30.8348C120.603 31.6852 121.225 32.7008 121.623 33.8151C122.05 34.9755 122.264 36.2675 122.266 37.6911ZM113.31 32.0309C111.994 32.0309 110.959 32.5243 110.203 33.5111C109.447 34.4978 109.069 35.8912 109.069 37.6911C109.069 39.5164 109.441 40.9161 110.184 41.8901C110.928 42.8642 111.969 43.3515 113.31 43.3521C114.649 43.3521 115.691 42.8584 116.435 41.8711C117.179 40.8837 117.551 39.4904 117.55 37.6911C117.55 35.8924 117.172 34.4991 116.417 33.5111C115.661 32.5231 114.625 32.0297 113.31 32.0309Z" fill="#0D2321"/>
<path d="M133.7 46.984C133.035 46.9892 132.371 46.9205 131.72 46.7794C131.159 46.6559 130.609 46.4879 130.074 46.2771V53.1298C129.852 53.1791 129.556 53.2413 129.186 53.3164C128.773 53.3945 128.353 53.4319 127.932 53.4283C127.069 53.4283 126.427 53.2669 126.008 52.9441C125.589 52.6213 125.38 52.0502 125.381 51.2309V32.3464C125.381 31.7507 125.498 31.2665 125.732 30.8938C125.966 30.5211 126.342 30.1734 126.861 29.8506C127.577 29.4298 128.466 29.0634 129.526 28.7514C130.586 28.4395 131.782 28.2844 133.115 28.2862C134.387 28.2743 135.653 28.4567 136.871 28.8272C137.973 29.1623 138.989 29.7342 139.85 30.5034C140.686 31.2608 141.339 32.2226 141.81 33.3887C142.282 34.5549 142.516 35.9455 142.514 37.5607C142.514 39.1236 142.292 40.4893 141.848 41.6579C141.404 42.8265 140.794 43.8072 140.016 44.6C139.235 45.3975 138.286 46.0085 137.239 46.388C136.104 46.7959 134.905 46.9977 133.7 46.984ZM132.998 43.2223C134.478 43.2223 135.637 42.7627 136.476 41.8436C137.315 40.9245 137.733 39.4969 137.73 37.5607C137.73 35.55 137.298 34.1224 136.435 33.2778C135.571 32.4333 134.461 32.011 133.105 32.011C132.509 32.0005 131.915 32.0886 131.347 32.2716C130.895 32.4227 130.456 32.6097 130.034 32.8306V42.4027C130.443 42.6585 130.885 42.8589 131.347 42.9987C131.883 43.1555 132.439 43.2309 132.998 43.2223Z" fill="#0D2321"/>
<path d="M70.0914 26.9458L61.0306 13.663C59.6075 11.5812 56.3896 12.6863 56.4948 15.2157C56.5911 17.5213 57.4462 19.9616 59.4925 22.9564C59.4934 22.9581 59.4938 22.96 59.4936 22.9619C59.4934 22.9638 59.4926 22.9656 59.4913 22.967C59.49 22.9684 59.4883 22.9693 59.4864 22.9697C59.4845 22.9701 59.4826 22.9698 59.4809 22.969C58.6436 22.34 46.0225 12.7888 31.0197 17.8744H31.0028C29.347 18.4997 28.5017 19.8646 28.9208 21.4649C29.3087 22.9465 30.8164 23.836 32.3153 23.5854C35.502 23.0507 38.6646 22.7965 41.7747 23.0714C44.8847 23.3463 47.927 24.1496 50.7598 25.5522C53.5925 26.9548 56.1586 28.9396 58.517 31.2129C61.1697 33.7674 64.4607 39.2151 64.4607 39.2151C64.6536 39.5603 64.9613 39.8258 65.3295 39.9647C65.6977 40.1036 66.1027 40.107 66.4731 39.9743C67.3648 39.6526 67.7803 38.6167 67.445 37.728C66.7458 35.8705 65.89 34.0768 64.8869 32.3666C64.8855 32.3649 64.8846 32.3628 64.8846 32.3606C64.8846 32.3584 64.8854 32.3563 64.8868 32.3547C64.8882 32.353 64.8902 32.3519 64.8924 32.3516C64.8945 32.3514 64.8967 32.3519 64.8985 32.3531C66.0077 32.7736 67.034 33.2974 68.2484 33.0108C69.239 32.7763 70.1084 32.097 70.5123 31.1464C70.8047 30.4684 70.9196 29.7262 70.8459 28.9907C70.7722 28.2553 70.5124 27.5512 70.0914 26.9458Z" fill="#0D2321"/>
<path d="M28.0437 41.3772L37.3252 54.7038C38.7784 56.7871 41.9955 55.645 41.8965 53.1189C41.8056 50.8078 40.9364 48.3632 38.842 45.3601C38.8356 45.3512 38.842 45.3395 38.8529 45.3458C39.7076 45.9733 52.5676 55.5016 67.8435 50.4286C67.8496 50.429 67.8557 50.429 67.8617 50.4286C69.5483 49.8065 70.4048 48.4475 69.9816 46.8491C69.5874 45.3718 68.0515 44.4843 66.5257 44.7353C63.2786 45.2732 60.058 45.5215 56.8891 45.2472C53.7201 44.9729 50.6221 44.1714 47.7375 42.773C44.8528 41.3745 42.238 39.3925 39.8356 37.1254C37.1345 34.5768 33.7812 29.1417 33.7812 29.1417C33.5778 28.7837 33.2485 28.5119 32.8556 28.3777C32.4626 28.2436 32.0335 28.2564 31.6495 28.4138C30.7848 28.7723 30.4152 29.7808 30.7467 30.645C31.4577 32.4922 32.3274 34.276 33.3461 35.9771C33.3472 35.9788 33.3476 35.9808 33.3475 35.9828C33.3473 35.9848 33.3466 35.9867 33.3453 35.9883C33.344 35.9898 33.3423 35.991 33.3403 35.9915C33.3383 35.9921 33.3363 35.992 33.3343 35.9914C32.2045 35.5719 31.1545 35.0492 29.922 35.3352C28.9129 35.5647 28.0265 36.246 27.6187 37.1917C27.3213 37.8671 27.2042 38.6064 27.2786 39.3392C27.353 40.0719 27.6164 40.7736 28.0437 41.3772Z" fill="#0D2321"/>
</svg>
