<?xml version="1.0" encoding="utf-8"?>
<!-- Generator: Adobe Illustrator 26.5.0, SVG Export Plug-In . SVG Version: 6.00 Build 0)  -->
<svg version="1.1" id="Layer_1" xmlns="http://www.w3.org/2000/svg" xmlns:xlink="http://www.w3.org/1999/xlink" x="0px" y="0px"
	 viewBox="0 0 226 84" style="enable-background:new 0 0 226 84;" xml:space="preserve">
<style type="text/css">
	.st0{clip-path:url(#SVGID_00000145053941016475796470000003269592781659865495_);}
	.st1{fill-rule:evenodd;clip-rule:evenodd;fill:#0E2321;}
	.st2{fill:#0E2321;}
</style>
<g>
	<defs>
		<rect id="SVGID_1_" x="18" y="15" width="190" height="54"/>
	</defs>
	<clipPath id="SVGID_00000033367368567480163750000015571971110582739093_">
		<use xlink:href="#SVGID_1_"  style="overflow:visible;"/>
	</clipPath>
	<g style="clip-path:url(#SVGID_00000033367368567480163750000015571971110582739093_);">
		<path class="st1" d="M71.9,42c0,14.9-12.1,27-26.9,27C30.1,69,18,56.9,18,42s12.1-27,26.9-27C59.8,15,71.9,27.1,71.9,42z
			 M58.7,31.3L56,28.5l-9.2,9.2c1.3,0.5,2.3,1.5,2.7,2.8L58.7,31.3z M34.2,28.5l9.2,9.2c-1.3,0.5-2.3,1.5-2.7,2.8l-9.2-9.2
			L34.2,28.5z M31.5,53.1l9.2-9.2c0.5,1.3,1.5,2.3,2.7,2.8l-9.2,9.2L31.5,53.1z M56,55.9l-9.2-9.2c1.3-0.5,2.3-1.5,2.7-2.8l9.2,9.2
			L56,55.9z"/>
		<path class="st2" d="M100.6,52.5c-0.2,0-0.3-0.1-0.4-0.3l-0.9-2.9c0-0.1-0.1-0.1-0.1-0.1H92c-0.1,0-0.1,0-0.1,0.1L91,52.3
			c-0.1,0.2-0.2,0.3-0.4,0.3h-3.7c-0.1,0-0.2,0-0.3-0.1c-0.1-0.1-0.1-0.2,0-0.3l6.3-19.9c0.1-0.2,0.2-0.3,0.4-0.3h4.6
			c0.2,0,0.3,0.1,0.4,0.3l6.3,19.9c0,0,0,0.1,0,0.1c0,0.2-0.1,0.3-0.3,0.3H100.6z M92.9,45.9c0,0.1,0,0.2,0.1,0.2h5.2
			c0.1,0,0.2-0.1,0.1-0.2l-2.6-8.7c0-0.1,0-0.1-0.1-0.1c0,0-0.1,0-0.1,0.1L92.9,45.9z M116.8,52.8c-1.5,0-2.9-0.3-4-0.9
			c-1.2-0.6-2-1.5-2.7-2.5c-0.6-1.1-0.9-2.3-0.9-3.7v-6.8c0-1.4,0.3-2.7,0.9-3.7c0.6-1.1,1.5-1.9,2.7-2.5c1.2-0.6,2.5-0.9,4-0.9
			c1.5,0,2.8,0.3,4,0.9c1.2,0.5,2,1.3,2.7,2.4c0.6,1,1,2.2,1,3.6c0,0.2-0.1,0.3-0.4,0.3l-3.4,0.2h-0.1c-0.2,0-0.3-0.1-0.3-0.3
			c0-1-0.3-1.9-1-2.5c-0.6-0.6-1.5-0.9-2.5-0.9c-1.1,0-1.9,0.3-2.6,0.9c-0.6,0.6-0.9,1.5-0.9,2.5v7.1c0,1,0.3,1.8,0.9,2.5
			c0.6,0.6,1.5,0.9,2.6,0.9c1,0,1.9-0.3,2.5-0.9c0.6-0.6,1-1.5,1-2.5c0-0.2,0.1-0.3,0.4-0.3l3.4,0.1c0.1,0,0.2,0,0.2,0.1
			c0.1,0.1,0.1,0.1,0.1,0.2c0,1.4-0.3,2.6-1,3.6c-0.6,1-1.5,1.8-2.7,2.4C119.6,52.5,118.3,52.8,116.8,52.8z M141.7,52.5
			c-0.2,0-0.3-0.1-0.4-0.3l-3.7-8.2c0-0.1-0.1-0.1-0.2-0.1h-2.7c-0.1,0-0.1,0-0.1,0.1v8c0,0.1,0,0.2-0.1,0.3
			c-0.1,0.1-0.1,0.1-0.2,0.1h-3.4c-0.1,0-0.2,0-0.3-0.1c-0.1-0.1-0.1-0.2-0.1-0.3V32.3c0-0.1,0-0.2,0.1-0.2c0.1-0.1,0.2-0.1,0.3-0.1
			h8.4c1.3,0,2.4,0.3,3.3,0.8c1,0.5,1.7,1.2,2.2,2.2c0.5,0.9,0.8,2,0.8,3.3c0,1.3-0.3,2.5-1,3.4c-0.7,0.9-1.6,1.6-2.8,2
			c-0.1,0-0.1,0.1-0.1,0.2l4,8.3c0,0.1,0.1,0.1,0.1,0.2c0,0.2-0.1,0.2-0.3,0.2H141.7z M134.7,35.5c-0.1,0-0.1,0-0.1,0.1v5
			c0,0.1,0,0.1,0.1,0.1h3.8c0.8,0,1.5-0.2,2-0.7c0.5-0.5,0.8-1.1,0.8-1.9c0-0.8-0.3-1.4-0.8-1.9c-0.5-0.5-1.2-0.8-2-0.8H134.7z
			 M158.7,52.9c-1.5,0-2.9-0.3-4.1-0.9c-1.2-0.6-2.1-1.5-2.7-2.6c-0.6-1.1-1-2.4-1-3.9v-6.3c0-1.5,0.3-2.7,1-3.9
			c0.6-1.1,1.5-2,2.7-2.6c1.2-0.6,2.5-0.9,4.1-0.9c1.5,0,2.9,0.3,4.1,0.9c1.2,0.6,2.1,1.5,2.7,2.6c0.6,1.1,1,2.4,1,3.9v6.3
			c0,1.5-0.3,2.8-1,3.9c-0.6,1.1-1.6,2-2.7,2.7C161.6,52.6,160.2,52.9,158.7,52.9z M158.7,49.3c1.1,0,1.9-0.3,2.6-1
			c0.7-0.7,1-1.6,1-2.7v-6.5c0-1.1-0.3-2.1-1-2.7c-0.6-0.7-1.5-1.1-2.6-1.1c-1.1,0-1.9,0.4-2.6,1.1c-0.6,0.7-1,1.6-1,2.7v6.5
			c0,1.1,0.3,2.1,1,2.7C156.7,49,157.6,49.3,158.7,49.3z M179.6,52.8c-1.6,0-2.9-0.2-4.1-0.7c-1.2-0.5-2.1-1.2-2.7-2.2
			c-0.6-0.9-0.9-2-0.9-3.3V46c0-0.1,0-0.2,0.1-0.2c0.1-0.1,0.2-0.1,0.3-0.1h3.3c0.1,0,0.2,0,0.2,0.1c0.1,0.1,0.1,0.1,0.1,0.2v0.4
			c0,0.8,0.4,1.5,1.1,2c0.7,0.5,1.7,0.8,2.9,0.8c1,0,1.8-0.2,2.3-0.6c0.5-0.5,0.8-1,0.8-1.6c0-0.5-0.2-0.9-0.5-1.2
			c-0.3-0.3-0.7-0.6-1.3-0.9c-0.5-0.3-1.4-0.6-2.6-1c-1.3-0.5-2.4-0.9-3.3-1.4c-0.9-0.5-1.7-1.1-2.3-1.9c-0.6-0.8-0.9-1.8-0.9-3
			c0-1.2,0.3-2.2,0.9-3.1c0.6-0.9,1.5-1.6,2.5-2c1.1-0.5,2.3-0.7,3.7-0.7c1.5,0,2.8,0.3,4,0.8c1.2,0.5,2.1,1.3,2.7,2.2
			c0.7,0.9,1,2,1,3.3v0.4c0,0.1,0,0.2-0.1,0.3c-0.1,0.1-0.1,0.1-0.2,0.1h-3.4c-0.1,0-0.2,0-0.3-0.1c-0.1-0.1-0.1-0.2-0.1-0.3v-0.2
			c0-0.8-0.3-1.5-1-2.1c-0.7-0.6-1.6-0.9-2.8-0.9c-0.9,0-1.6,0.2-2.2,0.6c-0.5,0.4-0.8,0.9-0.8,1.6c0,0.5,0.1,0.9,0.4,1.2
			c0.3,0.3,0.8,0.6,1.4,0.9c0.6,0.3,1.5,0.6,2.8,1.1c1.4,0.5,2.5,1,3.3,1.4c0.8,0.4,1.5,1,2.1,1.8c0.6,0.8,1,1.8,1,3
			c0,1.8-0.7,3.3-2,4.4C183.7,52.3,181.9,52.8,179.6,52.8z M200,52.8c-1.6,0-2.9-0.2-4.1-0.7c-1.2-0.5-2.1-1.2-2.7-2.2
			c-0.6-0.9-0.9-2-0.9-3.3V46c0-0.1,0-0.2,0.1-0.2c0.1-0.1,0.2-0.1,0.3-0.1h3.4c0.1,0,0.2,0,0.2,0.1c0.1,0.1,0.1,0.1,0.1,0.2v0.4
			c0,0.8,0.4,1.5,1.1,2c0.7,0.5,1.7,0.8,2.9,0.8c1,0,1.8-0.2,2.3-0.6c0.5-0.5,0.8-1,0.8-1.6c0-0.5-0.2-0.9-0.5-1.2
			c-0.3-0.3-0.7-0.6-1.3-0.9c-0.5-0.3-1.4-0.6-2.6-1c-1.3-0.5-2.4-0.9-3.4-1.4c-0.9-0.5-1.7-1.1-2.3-1.9c-0.6-0.8-0.9-1.8-0.9-3
			c0-1.2,0.3-2.2,0.9-3.1c0.6-0.9,1.4-1.6,2.5-2c1.1-0.5,2.3-0.7,3.7-0.7c1.5,0,2.8,0.3,4,0.8c1.2,0.5,2.1,1.3,2.7,2.2
			c0.7,0.9,1,2,1,3.3v0.4c0,0.1,0,0.2-0.1,0.3c-0.1,0.1-0.1,0.1-0.2,0.1h-3.4c-0.1,0-0.2,0-0.3-0.1c-0.1-0.1-0.1-0.2-0.1-0.3v-0.2
			c0-0.8-0.3-1.5-1-2.1c-0.7-0.6-1.6-0.9-2.8-0.9c-0.9,0-1.6,0.2-2.2,0.6c-0.5,0.4-0.8,0.9-0.8,1.6c0,0.5,0.1,0.9,0.4,1.2
			c0.3,0.3,0.8,0.6,1.4,0.9c0.6,0.3,1.5,0.6,2.8,1.1c1.4,0.5,2.5,1,3.3,1.4c0.8,0.4,1.5,1,2.1,1.8c0.6,0.8,1,1.8,1,3
			c0,1.8-0.7,3.3-2,4.4C204.2,52.3,202.3,52.8,200,52.8z"/>
	</g>
</g>
</svg>
