<svg width="226" height="80" viewBox="0 0 226 80" fill="none" xmlns="http://www.w3.org/2000/svg">
    <path
        d="M208.993 17.3812C208.993 17.3812 208.628 16.8648 208.511 16.7674C208.394 16.67 208.044 16.4605 207.805 16.3144C207.571 16.1683 207.196 15.764 207.074 15.613C206.952 15.462 206.646 15.2282 206.646 15.2282L205.749 14.858C205.749 14.858 204.975 14.5511 204.834 14.3952C204.692 14.2393 204.381 13.8058 204.381 13.8058L204.507 13.0849L204.648 12.3299L204.994 12.0863C204.994 12.0863 204.911 12.023 204.809 11.9353C205.072 11.9353 205.399 11.984 205.774 12.1643L205.097 11.7161C204.536 11.3459 204.186 10.703 203.786 10.021C203.582 9.68003 203.358 9.32445 203.041 9.02244C202.997 8.98347 202.973 8.94937 202.914 8.90553C202.861 8.85682 202.807 8.82273 202.758 8.7935C202.656 8.73018 202.564 8.68147 202.466 8.63763C202.276 8.54995 202.091 8.47688 201.911 8.40382L201.653 8.29665C201.575 8.26256 201.497 8.22359 201.409 8.17975L200.888 7.92158C200.542 7.7511 200.191 7.58061 199.836 7.41499C199.125 7.08376 198.394 6.78176 197.629 6.55282C196.869 6.31901 196.075 6.16801 195.281 6.09981C195.082 6.0852 194.843 6.07059 194.585 6.13391C194.336 6.20211 194.146 6.31414 193.981 6.39695C193.893 6.44566 193.84 6.47001 193.737 6.51385L193.465 6.63563C193.284 6.71844 193.104 6.80612 192.929 6.89866C192.578 7.08376 192.232 7.28835 191.896 7.51729C191.56 7.7511 191.263 7.98004 190.946 8.2382C190.634 8.49637 190.332 8.78376 190.079 9.13447C189.826 9.48032 189.636 9.88461 189.534 10.2987L189.996 10.4156L189.982 10.4545L189.309 10.7419L187.985 11.4531L187.259 12.4176L186.781 13.684C186.781 13.684 186.138 15.686 186.124 15.7396C186.104 15.7932 185.32 17.8147 185.32 17.8147C185.32 17.8147 185.286 17.8098 185.232 17.8098L185.184 17.3909C184.434 17.4834 183.679 17.6491 182.958 17.9413C182.237 18.2238 181.584 18.6574 180.98 19.0324C180.376 19.4124 179.757 19.6754 179.075 19.7631C178.739 19.8118 178.384 19.8215 178.043 19.8118L176.952 19.7485C175.49 19.6608 174.044 19.5049 172.587 19.3247L168.213 18.7986L150.731 16.6067L141.992 15.4863L139.81 15.2038L139.776 15.1989C139.766 15.1989 139.713 15.1941 139.683 15.1941C139.615 15.1941 139.542 15.2135 139.479 15.2428C139.347 15.3012 139.25 15.4084 139.201 15.5399C139.177 15.6032 139.162 15.6763 139.167 15.7445C139.167 15.7737 139.172 15.7981 139.177 15.8273L139.42 16.3144C140.102 16.8697 141.374 17.2448 141.374 17.2448L144.817 17.9462L155.894 19.8216L159.26 20.3379L161.423 20.7714L162.046 21.3462C161.939 21.4046 161.89 21.5264 161.788 21.5897C160.463 22.374 159.265 23.3872 158.257 24.5708C157.575 25.394 156.961 26.2806 156.459 27.2304C156.211 27.7078 155.972 28.1851 155.792 28.7112C155.612 29.2275 155.475 29.739 155.344 30.2505C155.081 31.2734 154.881 32.306 154.657 33.3241C154.55 33.8404 154.428 34.3129 154.257 34.8C154.097 35.2823 153.921 35.7742 153.731 36.2516C152.976 38.1805 152.09 40.0705 151.159 41.9312C150.692 42.8616 150.214 43.7871 149.713 44.7029C149.464 45.1559 149.211 45.6137 148.948 46.0473C148.88 46.1642 148.821 46.247 148.753 46.3493L148.519 46.6513C148.363 46.851 148.198 47.041 148.027 47.2212C147.686 47.5865 147.306 47.9177 146.907 48.2051L146.756 48.2977L146.683 48.3464C146.663 48.3561 146.576 48.4097 146.537 48.4536C146.439 48.5461 146.371 48.663 146.337 48.7848L146.284 48.9748C146.215 49.2134 146.133 49.457 146.045 49.6957C145.694 50.665 145.29 51.6246 144.861 52.5647C144.004 54.4498 142.947 56.2765 142.25 58.3077C141.904 59.3209 141.661 60.3779 141.588 61.4641C141.515 62.5455 141.622 63.6366 141.88 64.6839L141.948 64.9615H142.153H142.231H147.652C147.652 64.9615 147.565 63.8607 147.506 63.5879C147.448 63.3151 147.19 62.7793 147.126 62.677C147.058 62.5747 146.556 62.2873 146.556 62.2873L146.04 62.2971L145.509 62.2045L144.954 62.185L144.963 61.6979L145.071 60.5045L145.738 57.8108L148.388 52.9641L149.82 50.9086L151.359 49.3352L152.791 47.7278L154.54 46.2178L156.216 44.9026L158.719 42.5693L160.38 41.3272L161.968 38.9745L164.555 35.7547C164.555 35.7547 164.998 35.3797 165.407 35.1946C165.549 35.4089 165.763 35.6622 166.026 35.9691C166.591 36.6315 167.365 37.5375 167.75 38.502C168.189 39.9877 167.848 44.0355 167.848 44.0599C167.765 44.7077 167.063 46.8997 165.042 48.3951C164.823 48.5559 164.706 48.7507 164.701 48.9748C164.457 55.6237 165.524 60.7968 167.955 64.7813L168.062 64.9518H174.243C174.243 64.9518 174.482 64.7764 174.502 64.6303C174.54 64.2942 173.971 63.1982 173.576 62.755C173.186 62.3117 172.236 62.1607 172.236 62.1607L171.345 62.4627C171.345 62.4627 169.879 62.7696 169.85 62.6673C169.816 62.5601 169.036 59.5157 168.851 58.9458C168.666 58.3759 168.515 55.0441 168.398 54.4596C168.281 53.875 168.53 52.2676 168.554 51.8292C168.573 51.3908 169.416 50.7283 169.416 50.7283L170.522 49.8321L171.891 48.1321L173.255 45.945C173.255 45.945 174.691 42.4622 174.935 41.9751C175.183 41.4928 174.935 41.147 174.935 41.147L175.958 41.1567C175.836 41.4003 175.973 41.7754 175.973 41.7754C175.89 42.1456 175.763 42.4914 175.563 42.7934C175.52 42.8519 175.481 42.9152 175.437 42.9736L175.369 43.0564L175.334 43.1003C175.315 43.1246 175.286 43.1587 175.266 43.188C175.183 43.3146 175.135 43.4559 175.115 43.5971C175.101 43.7627 175.12 43.8261 175.12 43.9137L175.188 44.9221C175.291 46.2665 175.437 47.606 175.602 48.9455C175.938 51.6149 176.348 54.2745 176.849 56.9194L177.039 57.9131L177.137 58.41L177.185 58.6584L177.2 58.7217L177.205 58.751C177.21 58.7704 177.215 58.7997 177.224 58.8191C177.254 58.9117 177.298 58.9945 177.346 59.0627C177.673 59.4816 177.824 60.1441 177.984 60.7724C178.286 62.0584 178.53 63.3931 178.895 64.7082L178.983 65.0297H179.314H184.745C184.745 64.9518 184.74 64.869 184.736 64.791H185.257C185.257 64.791 185.086 64.0068 185.047 63.7389C185.013 63.471 184.731 62.716 184.638 62.487C184.546 62.2581 184.039 62.2532 184.039 62.2532L183.625 62.3896L183.23 62.2143L182.729 61.9756L182.32 62.0681L181.979 61.9756L180.342 53.3197C180.342 53.3197 179.743 49.4424 179.699 49.0527C179.655 48.663 179.743 47.5719 179.85 47.0215C179.962 46.471 180.736 45.19 180.961 44.849C181.185 44.508 182.909 42.6083 183.031 42.4281C183.152 42.2478 183.795 41.6828 184.054 41.3321C184.307 40.9862 186.304 39.5785 187.303 39.0768C188.301 38.5751 189.3 38.4046 189.3 38.4046C189.3 38.4046 189.319 38.4825 189.348 38.6043C189.217 38.6481 189.085 38.6871 188.954 38.7309C189.236 40.2946 189.699 41.751 189.967 42.5158C190.177 43.1003 190.42 43.9235 190.464 44.698C190.123 44.8149 189.914 45.039 189.801 45.1802C189.714 45.2971 189.665 45.4384 189.66 45.5894C189.66 45.7014 189.641 45.9986 189.548 46.247C189.085 47.3381 187.346 48.2003 186.694 48.5218L186.635 48.551C186.436 48.6484 186.231 48.7556 186.031 48.7702C185.885 48.7848 185.72 48.7556 185.544 48.7263L185.432 48.7069C184.677 48.5705 184.093 48.551 183.688 48.8968C183.313 49.2232 183.274 49.5593 183.235 49.8808C183.23 49.9295 183.226 49.9782 183.216 50.0318C183.396 50.1536 183.435 50.2802 183.503 50.3971L183.211 50.4848L183.391 51.0498L182.938 51.3421L183.284 52.1263L183.834 52.9106L183.61 53.0908C183.61 53.0908 183.971 53.5 184.297 53.763C184.624 54.026 185.33 53.8361 185.33 53.8361L186.265 53.5048L187.532 53.4415L188.204 53.3782L188.847 52.9203L189.724 52.2043C189.724 52.2043 190.508 51.4687 190.941 51.0547C191.38 50.6407 191.253 50.6163 191.701 50.3776C192.144 50.1389 193.055 49.2086 193.401 48.7751C193.752 48.3415 194.078 47.2553 194.156 46.8169C194.234 46.3785 194.224 45.2922 194.215 44.5616C194.205 43.8309 194.254 43.1539 194.297 42.7496C194.341 42.3404 194.643 41.0739 194.643 41.0739C194.643 41.0739 195.262 38.9745 195.213 38.6433C195.164 38.312 195.467 37.104 195.467 37.104L195.33 36.198C195.33 36.198 195.734 35.9447 195.978 35.7694C196.222 35.594 196.713 35.0972 197.025 34.7367C197.337 34.3762 197.897 33.2803 197.999 33.0367C198.102 32.7931 198.287 31.6728 198.287 31.6728L198.482 30.0751H198.92C198.92 30.0751 198.857 28.9012 198.823 28.755C198.793 28.6089 198.706 28.0341 198.599 27.6591C198.491 27.284 197.522 25.7788 197.522 25.7788C197.522 25.7788 196.967 24.5416 196.791 23.9522C196.616 23.3628 196.709 22.4519 196.709 22.4519L197.006 21.7456L196.713 21.429L197.717 21.5313L199.222 21.994C199.222 21.994 200.362 21.9405 200.415 21.9599C200.469 21.9794 202.018 22.2278 202.534 22.335C203.051 22.4422 203.996 22.7442 203.996 22.7442C203.996 22.7442 206.772 22.447 206.933 22.3935C207.089 22.3399 207.517 22.0671 207.62 21.8723C207.722 21.6725 208.048 20.9906 208.131 20.8006C208.214 20.6107 208.268 19.9287 208.268 19.6511C208.268 19.3734 208.107 18.9155 208.107 18.9155L208.764 18.0582L208.993 17.3812Z"
        fill="#D08E39" />
    <path
        d="M198.789 27.6054C198.487 26.8601 198.111 26.1733 197.741 25.4914C197.551 25.1601 197.415 24.8289 197.279 24.4831C197.142 24.1372 197.035 23.7865 196.972 23.4358C196.85 22.822 196.879 22.1888 197.22 21.7309C197.186 21.7261 197.147 21.7212 197.113 21.7163C196.933 21.7017 196.733 21.7455 196.528 21.8137C196.45 21.9599 196.382 22.1109 196.348 22.2667C196.241 22.6954 196.241 23.1289 196.304 23.5381C196.431 24.3613 196.723 25.1163 197.103 25.8226C197.468 26.5045 197.829 27.1816 198.107 27.8684C198.316 28.3799 198.448 28.8962 198.477 29.4174C198.472 29.4174 198.467 29.4126 198.462 29.4126L197.99 29.3151L198.024 29.8023C198.146 31.4438 197.688 33.134 196.665 34.42C196.163 35.063 195.525 35.5842 194.794 35.9495C194.059 36.3197 193.24 36.5584 192.412 36.8312C192.203 36.8994 191.998 36.9724 191.789 37.0455L191.185 37.2598C190.781 37.4011 190.371 37.5277 189.957 37.6592C189.134 37.9174 188.296 38.1756 187.473 38.5068C186.65 38.838 185.856 39.2667 185.125 39.783C184.39 40.2896 183.722 40.9131 183.216 41.6438L183.659 42.0237C184.283 41.444 184.867 40.8498 185.539 40.3578C186.202 39.8512 186.957 39.4713 187.736 39.1547C188.136 38.9939 188.55 38.8526 188.964 38.7163C189.193 38.6432 189.426 38.5701 189.655 38.4971C189.826 38.4435 189.996 38.3899 190.167 38.3412C190.581 38.2145 190.995 38.083 191.414 37.9466L192.407 37.6057L192.641 37.5277C193.27 37.3183 193.918 37.1186 194.56 36.8506C194.711 36.7873 194.867 36.724 195.018 36.6509C195.052 36.6363 195.087 36.6217 195.121 36.6022C195.335 36.4951 195.54 36.3733 195.744 36.2418C196.309 35.8716 196.821 35.4039 197.235 34.873C198.238 33.6114 198.754 32.0137 198.779 30.4209L199.164 30.7131L199.222 30.0312C199.285 29.1982 199.1 28.3409 198.789 27.6054Z"
        fill="#D08E39" />
    <path
        d="M197.858 11.5359C197.731 11.6236 197.351 11.8574 197.303 12.2665C198.253 11.682 198.676 12.0327 199.134 12.0717C197.731 11.8135 197.683 13.2359 197.936 13.421C198.253 13.6304 199.042 13.533 199.465 13.494C199.724 13.4697 199.875 13.3236 199.87 13.0508C199.865 12.6513 199.914 12.1642 200.211 12.1058C200.42 12.0766 200.454 11.8622 200.454 11.8622C199.125 11.8817 198.569 11.0488 197.858 11.5359Z"
        fill="#002522" />
    <path
        d="M192.807 12.851C192.787 12.661 192.734 12.4759 192.593 12.3493C192.7 12.6172 192.607 12.8802 192.515 13.1238C192.417 13.3722 192.281 13.606 192.149 13.8447C191.877 14.3172 191.584 14.7848 191.307 15.2573C190.737 16.2071 190.162 17.157 189.548 18.0776C188.934 18.9982 188.296 19.8994 187.59 20.7226C187.239 21.1318 186.869 21.5263 186.47 21.8283C186.275 21.9745 186.065 22.0962 185.905 22.1352C185.861 22.1449 185.763 22.1449 185.676 22.1206C185.583 22.106 185.496 22.067 185.413 22.0232C185.077 21.8381 184.794 21.4094 184.692 20.9808C184.59 20.6739 184.779 20.1137 184.95 19.6217C185.32 18.6037 185.788 17.5808 186.182 16.5189C186.387 15.9928 186.548 15.4229 186.699 14.9017C186.859 14.3708 187.025 13.8447 187.2 13.3235C187.288 13.0653 187.385 12.8071 187.483 12.5587C187.532 12.4369 187.585 12.3103 187.639 12.2129C187.683 12.1203 187.751 12.0375 187.829 11.945C188.15 11.5894 188.608 11.2728 189.061 11.0195L189.076 11.0097L189.09 11C189.212 10.9172 189.417 10.8295 189.597 10.7759C189.782 10.7175 189.982 10.6882 190.181 10.6785C190.381 10.6785 190.596 10.6834 190.805 10.7369C191.024 10.7759 191.234 10.8539 191.463 10.9269C191.321 10.7369 191.141 10.5665 190.936 10.4301C190.732 10.2888 190.488 10.1963 190.235 10.1427C189.982 10.0794 189.714 10.0891 189.456 10.1232C189.188 10.167 188.954 10.2401 188.686 10.396L188.715 10.3765C188.199 10.6639 187.712 10.9708 187.269 11.4335C187.161 11.5504 187.054 11.6868 186.967 11.8427C186.889 11.9839 186.83 12.1155 186.767 12.2518C186.65 12.5198 186.548 12.7828 186.445 13.0458C186.246 13.5768 186.065 14.1077 185.89 14.6435C185.715 15.1891 185.559 15.6859 185.354 16.2023C184.965 17.2301 184.492 18.2335 184.093 19.3051C183.995 19.5779 183.898 19.8507 183.825 20.1527C183.786 20.3037 183.757 20.4596 183.742 20.6349C183.737 20.7226 183.732 20.8151 183.742 20.9223C183.752 21.0295 183.771 21.1025 183.791 21.1902C183.873 21.5214 184.015 21.8137 184.205 22.0914C184.297 22.2229 184.409 22.3544 184.531 22.4713C184.419 23.4455 184.429 24.0008 186.065 24.8289C187.006 25.1991 189.032 22.4469 190.113 20.1478C191.321 17.6636 193.148 14.4487 192.807 12.851Z"
        fill="#002522" />
    <path
        d="M156.971 19.047C152.543 18.3943 150.093 17.9511 147.136 17.537C143.483 17.0256 141.651 16.7576 140.516 16.4605C139.649 16.2364 139.742 15.1599 139.742 15.1599C139.742 15.1648 138.768 15.0187 138.768 15.0236C138.777 15.0577 139.186 15.9052 139.191 15.9101C139.211 15.9588 139.225 16.0075 139.245 16.0611C139.328 16.2608 139.445 16.4605 139.591 16.631C139.888 16.972 140.268 17.1814 140.633 17.3324C141.378 17.6393 142.138 17.7172 142.85 17.8488L145.022 18.219L153.707 19.7095L158.057 20.4158C158.778 20.5327 159.523 20.635 160.215 20.7616C160.556 20.8298 160.868 20.9273 161.145 21.0831C161.374 21.2098 161.584 21.3851 161.778 21.58C161.993 21.4533 162.202 21.3267 162.421 21.2098C162.796 21.0198 163.259 20.8298 163.318 20.7909C163.824 20.1966 161.481 19.7095 156.971 19.047Z"
        fill="#002522" />
    <path
        d="M203.908 22.2376C203.893 22.2328 203.874 22.2279 203.859 22.223C203.845 22.223 203.83 22.223 203.82 22.223L203.908 22.2376Z"
        fill="#002522" />
    <path
        d="M208.481 18.9981C208.481 18.9981 208.481 18.9938 208.481 18.9981C208.481 18.9938 208.477 18.9981 208.481 18.9981Z"
        fill="#002522" />
    <path
        d="M206.943 21.7699C206.924 21.7748 206.904 21.7796 206.88 21.7894C206.865 21.804 206.851 21.8186 206.836 21.8283L206.943 21.7699Z"
        fill="#002522" />
    <path
        d="M203.908 22.2376C203.893 22.2328 203.874 22.2279 203.859 22.223C203.845 22.223 203.83 22.223 203.82 22.223L203.908 22.2376Z"
        fill="#002522" />
    <path
        d="M191.613 45.3847C192.963 45.297 193.084 46.1348 192.86 47.752C193.688 46.5781 193.274 45.185 193.323 43.1196C193.411 40.7718 194.492 39.0913 194.555 36.8506C193.917 37.1185 193.265 37.3182 192.636 37.5277L192.402 37.6056C190.698 39.7196 192.846 43.0466 191.613 45.3847Z"
        fill="#002522" />
    <path
        d="M209.101 16.9038C208.76 16.3874 208.253 16.1731 207.903 15.9393C207.717 15.8175 207.591 15.7152 207.454 15.5545C207.318 15.3937 207.172 15.1843 206.943 14.9894C206.704 14.7946 206.436 14.6972 206.217 14.6192C205.998 14.5413 205.813 14.4682 205.623 14.3708C205.258 14.1808 204.922 13.9275 204.634 13.6304C204.624 13.6061 204.615 13.5622 204.644 13.4697C204.663 13.4063 204.702 13.3284 204.736 13.2164C204.775 13.1043 204.79 12.9533 204.79 12.8608C204.79 12.7585 204.79 12.6806 204.795 12.627C204.8 12.5783 204.809 12.5539 204.829 12.5149C204.863 12.4467 204.941 12.3883 205.004 12.3688L205.784 12.1691C205.384 11.9743 205.038 11.9353 204.771 11.9353C204.59 11.9353 204.171 12.0571 204.166 12.0571C204.128 12.0668 204.089 12.0717 204.05 12.0619C203.601 11.9743 202.656 9.96739 202.428 9.7628C202.179 9.50951 201.375 9.14418 200.732 9.23673C201.273 9.44618 201.775 9.88945 202.023 10.4058C202.33 11.1023 203.27 13.4356 204.322 14.3221C204.322 14.3221 204.322 14.3172 204.317 14.3172C204.61 14.59 204.941 14.8238 205.297 15.0089C205.516 15.1258 205.764 15.2232 205.983 15.3012C206.198 15.3791 206.378 15.4473 206.495 15.5496C206.626 15.6519 206.753 15.8273 206.914 16.0221C207.075 16.2218 207.313 16.4166 207.518 16.5433C207.693 16.6553 207.859 16.7528 208.01 16.8502C208.029 16.9817 207.771 16.9963 207.518 16.972C207.274 16.9476 206.69 16.9086 206.203 17.0109C205.258 17.2106 205.121 17.6783 205.355 17.9121C205.75 18.2725 206.919 18.5063 207.133 18.5843C207.323 18.6525 207.469 18.7645 207.571 18.9058C207.688 19.3636 207.562 19.8069 207.362 20.2209C207.352 20.2161 207.338 20.2112 207.328 20.2063C207.152 20.1479 207.001 20.143 206.846 20.1527C206.699 20.1625 206.583 20.182 206.451 20.1966C206.198 20.2404 205.944 20.2891 205.696 20.3866C205.194 20.557 204.78 20.9029 204.43 21.2C204.074 21.502 203.679 21.7358 203.222 21.9014C203.699 21.882 204.196 21.7358 204.629 21.4972C205.063 21.2585 205.443 21.0393 205.866 20.9565C206.076 20.9078 206.295 20.8834 206.514 20.8785C206.622 20.8785 206.743 20.8737 206.831 20.8785C206.919 20.8883 207.006 20.9126 207.055 20.937C207.109 20.9662 207.109 20.9808 207.109 20.9759C207.109 20.9759 207.123 21.0003 207.113 21.0636C207.099 21.1903 207.011 21.3705 206.894 21.5264L206.914 21.5069C206.846 21.6092 206.753 21.7066 206.646 21.7943C206.607 21.8284 206.568 21.8576 206.524 21.8868C206.164 21.9794 205.784 22.0476 205.409 22.1012C204.892 22.1694 204.366 22.2132 203.855 22.2181C203.869 22.2229 203.889 22.2278 203.903 22.2327L203.811 22.2229C203.826 22.2229 203.84 22.2229 203.85 22.2229C202.778 21.9453 201.682 21.5848 200.499 21.5069C200.206 21.4874 199.899 21.4777 199.617 21.4874C199.334 21.4923 199.091 21.4777 198.828 21.4338C198.57 21.3949 198.326 21.3218 198.068 21.2292C197.829 21.1464 197.537 21.0295 197.206 21.0003V20.9954C197.196 20.9954 197.181 20.9954 197.172 20.9954C197.162 20.9954 197.152 20.9906 197.142 20.9906C197.113 20.9906 197.089 20.9906 197.06 20.9906C196.48 20.976 195.91 20.9613 195.345 20.898C194.731 20.8347 194.127 20.7227 193.567 20.5181C193.289 20.4158 193.017 20.2745 192.812 20.1089C192.759 20.0651 192.749 20.0505 192.656 19.953C192.588 19.8848 192.539 19.8459 192.495 19.7972C192.413 19.7046 192.34 19.5974 192.286 19.4659C192.179 19.198 192.135 18.8814 192.106 18.5697C192.067 18.253 192.072 17.9315 192.057 17.6052C191.969 17.9754 191.891 18.3505 191.857 18.7401C191.731 19.388 191.536 20.2404 191.141 21.2098C189.592 24.7997 188.599 25.1845 189.953 27.0063C191.356 28.7453 188.91 32.6811 187.766 35.3066C186.412 37.9174 185.077 38.3315 185.242 39.1303C186.304 38.312 188.009 37.9564 189.042 37.6057C194.663 35.6329 195.598 35.6816 196.85 32.7103C197.099 32.116 197.269 31.5559 197.371 31.0152C197.542 30.1774 197.357 29.3298 196.914 28.5358C196.914 28.5358 197.172 28.6138 197.435 28.8037C197.269 27.4739 196.758 26.1636 196.12 24.6828C195.793 23.7281 195.74 22.7344 196.095 21.9843C196.202 21.9355 196.305 21.882 196.412 21.843C196.446 21.8284 196.48 21.8186 196.514 21.8089C196.597 21.7797 196.68 21.7602 196.763 21.7407C196.899 21.7358 197.03 21.7261 197.167 21.7163C197.181 21.7163 197.191 21.7212 197.206 21.7212C197.391 21.7504 197.586 21.8186 197.82 21.9014C198.097 21.9989 198.399 22.0914 198.706 22.1353C199.003 22.184 199.334 22.2035 199.617 22.1986C199.899 22.1888 200.167 22.1986 200.44 22.2132C201.526 22.2814 202.593 22.6321 203.709 22.9195L203.757 22.9292H203.801C204.376 22.9244 204.931 22.8757 205.491 22.8026C206.052 22.7247 206.607 22.6272 207.172 22.4324L207.23 22.4129L207.279 22.3739C208.088 21.7066 208.56 20.6886 208.541 19.6364C208.536 19.5049 208.531 19.3734 208.507 19.2467C208.487 19.1201 208.463 18.9983 208.468 18.9837C208.468 18.9837 208.468 18.9837 208.473 18.9788C208.482 18.9593 208.516 18.9204 208.555 18.8668C208.633 18.7645 208.706 18.6622 208.775 18.555C208.911 18.3407 209.023 18.1118 209.12 17.878L209.189 17.6977L209.223 17.6003C209.232 17.5565 209.252 17.4834 209.252 17.4298C209.266 17.2155 209.184 17.0353 209.101 16.9038Z"
        fill="#002522" />
    <path
        d="M176.372 36.646C176.26 35.5549 175.885 34.2787 175.778 33.0901C175.602 34.2543 175.68 35.4477 175.817 36.6168C175.817 36.6168 175.817 36.6168 175.817 36.6216C174.589 36.6655 172.943 35.9738 171.998 35.097C171.189 34.3468 170.575 33.6405 168.978 32.5933C168.963 32.5787 168.944 32.5592 168.929 32.5446C167.935 31.6191 166.727 31.0832 166.001 29.9726C165.505 29.1494 165.052 28.1168 164.603 26.787C166.021 33.6308 163.844 30.3769 161.827 34.4638C156.693 43.8405 154.053 44.3179 151.067 47.562C149.703 49.1061 148.086 51.0497 146.975 52.7789C145.114 55.6772 143.517 59.7006 143.595 62.3164C143.575 62.331 143.546 62.3456 143.531 62.3554C143.259 62.5551 142.991 62.7645 142.737 62.9935C143.015 62.9302 143.283 62.8571 143.546 62.7791V62.784C144.189 62.5453 144.413 63.9385 144.423 64.9468H145.392C145.426 64.5912 145.377 63.8556 145.285 63.5098C145.202 63.2127 145.08 62.9155 144.866 62.6379C145.533 62.4089 145.918 62.711 146.064 64.5814L146.074 64.9468H146.97L146.965 64.5766C146.961 64.2161 146.873 63.3929 146.561 62.7304C146.965 62.8717 147.165 64.1382 147.126 64.9419H147.189H147.53H147.896L147.891 64.5766C147.886 63.9872 147.813 63.4026 147.574 62.8181C147.448 62.5356 147.282 62.219 146.917 62.0047C146.732 61.9024 146.503 61.8634 146.298 61.8877C146.181 61.9024 146.079 61.9365 145.986 61.9754C145.752 61.8049 145.489 61.7367 145.212 61.766C145.509 56.325 149.196 51.7608 151.418 49.4861C153.468 47.3038 154.988 46.1299 156.454 44.995C157.199 44.4202 157.901 43.8746 158.627 43.2316C159.966 42.0723 161.004 40.6695 162.002 39.3153C163.059 37.8832 164.15 36.4024 165.583 35.2626C165.958 34.9655 167.224 34.5417 168.383 34.5855C170.2 36.2368 171.014 42.3792 170.283 45.0437C169.577 46.919 168.802 47.9371 167.224 50.017C166.596 51.2689 167.161 55.307 167.321 56.213C167.546 57.4989 168.471 62.9983 169.518 63.0617V63.0665H169.533L169.801 63.0519C169.811 63.0519 169.825 63.0471 169.835 63.0471H169.84C170.064 63.0276 170.288 62.9789 170.512 62.9155C170.6 62.8961 170.683 62.8717 170.78 62.8473C171.33 62.7061 171.764 62.7353 172.066 62.935C172.538 63.2419 172.738 63.9969 172.836 64.9321H173.576C173.474 64.0066 173.274 63.2175 172.855 62.7012C172.865 62.7061 172.87 62.7109 172.879 62.7158C173.269 62.9594 173.61 63.4075 173.79 64.2161C173.839 64.4304 173.878 64.6642 173.902 64.937H174.399H174.799L174.76 64.5425C174.594 62.8425 173.42 62.068 172.753 61.8731C172.071 61.6783 171.374 61.8975 170.76 62.0923C170.614 62.141 170.468 62.1849 170.332 62.2239C170.244 62.2433 170.152 62.2628 170.03 62.2872C169.148 59.3938 168.676 56.3786 168.622 53.3196C168.612 52.7545 168.622 52.209 168.841 51.7462C169.08 51.2445 169.577 50.8646 170.054 50.4992L170.147 50.4262C172.003 48.999 174.808 44.2351 175.154 41.5511C175.529 41.6778 175.675 41.7265 175.963 41.7703C176.304 40.4844 176.45 38.4921 176.372 36.646Z"
        fill="#002522" />
    <path
        d="M195.116 40.1435C195.427 38.955 195.744 37.7226 195.739 36.2369C195.54 36.3685 195.33 36.4902 195.116 36.5974C195.082 36.6169 195.048 36.6266 195.013 36.6461C194.97 37.8541 194.702 38.8819 194.419 39.9633C194.127 41.0836 193.825 42.2478 193.776 43.6458C193.762 44.0501 193.771 44.4495 193.776 44.8392C193.796 46.0424 193.815 47.1724 193.221 48.1759C192.797 48.8968 192.373 49.2329 191.794 49.6908C191.57 49.871 191.326 50.061 191.058 50.2948C190.858 50.4701 190.571 50.7429 190.264 51.0352C189.806 51.4736 189.285 51.9704 188.978 52.2091L188.886 52.2822C188.418 52.6524 187.97 53.0031 187.478 53.0031C187.473 53.0031 187.468 53.0031 187.458 53.0031C187.01 52.9739 186.426 52.9592 185.88 53.1297C185.797 53.1541 185.705 53.1882 185.612 53.2223H185.607C185.676 53.1833 185.739 53.1492 185.793 53.1297C186.173 52.9836 186.694 52.9544 186.981 52.8716C187.541 52.706 187.634 52.4039 188.077 51.8048C188.121 51.761 188.17 51.7123 188.213 51.6684C187.897 51.8925 187.585 52.1263 187.249 52.2919C186.913 52.4575 186.548 52.5306 186.177 52.5452L185.023 52.6085C184.833 52.6183 184.648 52.6183 184.487 52.6037C184.336 52.5842 184.229 52.5452 184.122 52.477C183.834 52.2237 183.615 51.9704 183.45 51.7512C183.859 51.9899 184.336 52.136 184.697 52.1653C185.476 52.2335 186.518 51.6928 187.785 51.0644C187.868 51.0303 187.95 51.0011 188.033 50.967C187.259 51.157 186.465 51.3177 185.695 51.2885C185.315 51.269 184.93 51.2057 184.604 51.0644C184.395 50.9767 184.185 50.8647 183.966 50.7478C183.883 50.704 183.795 50.6698 183.727 50.6114C183.615 50.5237 183.523 50.2315 183.226 50.0269L182.724 49.7931L182.734 50.363C182.738 50.514 182.773 50.6504 182.831 50.7624L182.393 50.6504V51.118C182.393 51.5369 182.773 52.1166 183.226 52.6037L182.967 52.628L183.089 53.0469C183.25 53.6071 184.18 54.0845 184.877 54.1186C184.896 54.1186 184.916 54.1186 184.94 54.1186C185.252 54.1186 185.578 54.0016 185.866 53.8994C185.948 53.8701 186.031 53.8409 186.109 53.8165C186.543 53.6802 187.04 53.6948 187.444 53.7191C188.204 53.724 188.817 53.2612 189.344 52.8472L189.436 52.7741C189.772 52.5111 190.303 52.0045 190.776 51.5515C191.073 51.269 191.355 51.0011 191.545 50.8306C191.803 50.6065 192.037 50.4214 192.252 50.2461C192.846 49.7736 193.357 49.3693 193.849 48.5315C194.546 47.3527 194.521 46.0618 194.502 44.8149C194.497 44.4349 194.487 44.0452 194.502 43.6604C194.541 42.3501 194.833 41.2298 195.116 40.1435Z"
        fill="#002522" />
    <path d="M183.723 50.6113C183.81 50.6698 183.908 50.7185 184.005 50.7672L183.723 50.6113Z" fill="#002522" />
    <path
        d="M185.238 62.9448C185.121 62.6818 184.975 62.4236 184.746 62.1849C184.629 62.068 184.483 61.9609 184.298 61.8878C184.113 61.8147 183.889 61.805 183.694 61.8635L183.674 61.8683L183.665 61.8732L183.445 61.9609C183.353 61.8537 183.255 61.7612 183.143 61.693C182.875 61.5225 182.573 61.4884 182.267 61.5955C182.252 61.6004 182.232 61.6102 182.213 61.615C181.843 59.7153 181.477 57.8107 181.136 55.9062C180.771 53.8506 180.411 51.7901 180.143 49.7297C180.079 49.2182 180.016 48.697 179.992 48.2002C179.963 47.7228 180.05 47.2503 180.196 46.7876C180.498 45.8669 181.107 45.0437 181.779 44.2692C182.12 43.8796 182.481 43.5045 182.807 43.1002C183.138 42.6861 183.46 42.3013 183.811 41.9117C184.498 41.1372 185.628 40.538 186.387 39.8025C180.922 42.6374 177.654 44.5177 177.97 46.8412C178 48.8772 179.495 56.6173 180.576 62.219C180.274 62.4139 180.006 62.6087 179.724 62.8231C180.045 62.7451 180.381 62.6428 180.688 62.5503L180.674 62.56C181.512 62.3554 181.75 64.0847 181.789 65.0248H182.783C182.763 64.3672 182.569 63.6609 182.481 63.4076C182.364 63.091 182.218 62.7695 181.974 62.4821C182.096 62.4334 182.228 62.3847 182.335 62.3408C182.871 62.1947 183.402 62.8718 183.514 65.0248H184.308C184.249 63.7583 184.074 63.1397 183.84 62.6087C184.225 62.4626 184.561 63.2761 184.697 64.1918C184.736 64.4695 184.761 64.7569 184.761 65.0248H185.199H185.228H185.652L185.623 64.562C185.569 64.0116 185.467 63.4709 185.238 62.9448Z"
        fill="#002522" />
    <path
        d="M217.035 5.1694L217.527 0.0694124C217.537 -0.0231375 217.669 -0.0231375 217.678 0.0694124L218.161 5.16453C218.205 5.60779 218.56 5.95851 219.008 5.98286L225.321 6.3628C225.414 6.36767 225.414 6.50407 225.321 6.51381L219.003 6.90349C218.56 6.93272 218.2 7.27856 218.156 7.72183L217.664 12.8218C217.654 12.9144 217.523 12.9144 217.513 12.8218L217.031 7.7267C216.987 7.28343 216.631 6.93272 216.183 6.90836L209.87 6.52842C209.778 6.52355 209.778 6.38716 209.87 6.37742L216.188 5.98773C216.636 5.96338 216.992 5.61266 217.035 5.1694Z"
        fill="#FAF8F1" />
    <path
        d="M9.56804 62.849C15.8149 62.3066 17.4349 61.6123 17.4349 58.7537V24.1529C17.4349 20.4481 16.8931 19.5206 11.3397 19.5206C5.93804 19.5206 4.16638 21.1424 2.00463 27.1687H0L1.23529 17.3618C1.31114 16.8194 1.69581 16.5916 2.31345 16.5916C3.39162 16.6675 5.3204 16.7434 7.24917 16.7434H35.4874C37.4161 16.7434 39.3449 16.6675 40.4989 16.5916C41.0407 16.5916 41.4254 16.8248 41.5013 17.3618L42.8124 27.1687H40.8078C38.646 21.1424 36.8744 19.5206 31.4727 19.5206C25.9193 19.5206 25.3017 20.4481 25.3017 24.1529V58.7537C25.3017 61.6123 26.9975 62.3066 33.2498 62.849V64.7041H9.56804V62.849Z"
        fill="#FAF8F1" />
    <path
        d="M36.6416 56.6707C36.6416 50.6445 41.4256 46.2455 58.1616 44.2385C59.5486 44.0866 60.2421 43.6201 60.2421 41.9983V40.3005C60.2421 34.8167 57.8528 31.4211 52.3752 31.4211C47.9759 31.4211 46.2042 33.504 46.2042 36.9809C46.2042 39.8395 44.5843 41.2281 42.4225 41.2281C40.1091 41.2281 38.9496 39.6822 38.9496 37.442C38.9496 31.573 46.9736 29.1755 54.4557 29.1755C63.5578 29.1755 67.1824 33.0376 67.1824 42.2261V59.1387C67.1824 61.84 68.7265 62.3065 70.9641 61.84C70.9641 61.84 71.0725 61.8183 71.1863 61.7912C71.3 62.2468 71.1483 62.6211 70.9641 62.9194C70.0377 64.308 67.8001 65.1596 65.6437 65.1596C62.4797 65.1596 60.3992 63.2286 60.2421 59.5998C60.2421 58.8296 59.6244 58.8296 59.0826 59.5239C56.3845 62.8435 51.7522 65.1596 46.6648 65.1596C41.5015 65.165 36.6416 62.6916 36.6416 56.6707ZM60.2475 52.1144V48.9467C60.2475 47.173 59.7057 46.1641 57.1647 46.4733C46.3668 47.634 43.972 51.6479 43.972 55.2008C43.972 58.3685 46.0525 61.2271 50.6036 61.2271C55.8535 61.2271 60.2475 57.365 60.2475 52.1144Z"
        fill="#FAF8F1" />
    <path
        d="M74.5184 59.2961V22.1459C74.5184 18.669 73.5919 17.4322 69.5068 17.8228V16.0491L78.6089 14.1181C80.3806 13.7329 81.4642 14.5791 81.4642 16.4342V59.1442C81.4642 61.8455 83.0841 62.312 85.3217 61.8455C85.3217 61.8455 85.4897 61.8129 85.6956 61.7641C85.7281 62.2197 85.5656 62.5615 85.3217 62.9303C84.3953 64.3189 82.0818 65.1705 79.9201 65.1705C76.8373 65.1651 74.5184 63.4673 74.5184 59.2961Z"
        fill="#FAF8F1" />
    <path
        d="M89.9481 59.2961V22.1459C89.9481 18.669 89.0216 17.4322 84.9365 17.8228V16.0491L94.0386 14.1181C95.8103 13.7329 96.8939 14.5791 96.8939 16.4342V59.1442C96.8939 61.8455 98.5138 62.312 100.751 61.8455C100.751 61.8455 100.919 61.8129 101.125 61.7641C101.158 62.2197 100.995 62.5615 100.751 62.9303C99.825 64.3189 97.5115 65.1705 95.3498 65.1705C92.2616 65.1651 89.9481 63.4673 89.9481 59.2961Z"
        fill="#FAF8F1" />
    <path
        d="M103.368 74.972C103.368 72.6559 105.064 71.0341 107.378 71.0341C112.162 71.0341 109.458 77.1363 112.698 77.1363C114.47 77.1363 116.014 74.5869 117.097 71.8857C118.642 67.8718 117.715 64.6281 116.637 62.0788L107.302 38.6788C105.373 33.9652 104.447 32.8858 101.131 31.6491V29.8754H117.179V31.6491C113.012 32.8858 112.704 33.8893 114.708 38.6788L121.345 55.1304C122.347 57.5224 123.198 57.5224 124.2 55.0544L127.44 46.6361C132.452 33.9706 131.065 32.8912 126.514 31.6545V29.8808H140.476V31.6545C136.001 32.8912 134.765 34.0466 132.994 38.6842L120.267 70.2693C117.878 76.2955 115.716 80.0003 110.005 80.0003C105.915 79.9948 103.368 77.9065 103.368 74.972Z"
        fill="#FAF8F1" />
</svg>