<svg width="87" height="65" viewBox="0 0 87 65" fill="none" xmlns="http://www.w3.org/2000/svg">
  <path
    d="M78.806 4.67057L79.2409 0.145277C79.2469 0.104905 79.2672 0.06802 79.2981 0.0413475C79.329 0.014675 79.3686 0 79.4094 0C79.4503 0 79.4898 0.014675 79.5208 0.0413475C79.5517 0.06802 79.572 0.104905 79.578 0.145277L80.0056 4.65972C80.0329 4.91205 80.1479 5.14685 80.3306 5.32331C80.5134 5.49976 80.7523 5.60671 81.0059 5.62555L86.3297 5.94388C86.3748 5.94388 86.4182 5.96179 86.4501 5.99367C86.482 6.02556 86.5 6.0688 86.5 6.11389C86.5 6.15898 86.482 6.20223 86.4501 6.23411C86.4182 6.266 86.3748 6.2839 86.3297 6.2839L81.0022 6.61308C80.7492 6.63179 80.5107 6.73822 80.3281 6.91394C80.1454 7.08967 80.03 7.32362 80.002 7.5753L79.5671 12.097C79.5611 12.1373 79.5408 12.1742 79.5099 12.2009C79.479 12.2276 79.4395 12.2423 79.3986 12.2423C79.3577 12.2423 79.3182 12.2276 79.2872 12.2009C79.2563 12.1742 79.236 12.1373 79.23 12.097L78.806 7.58253C78.7794 7.32899 78.6643 7.09287 78.4807 6.91561C78.2971 6.73834 78.0569 6.63124 77.8021 6.61308L72.482 6.29476C72.4415 6.28882 72.4046 6.26856 72.3779 6.23768C72.3511 6.2068 72.3364 6.16736 72.3364 6.12655C72.3364 6.08575 72.3511 6.0463 72.3779 6.01542C72.4046 5.98454 72.4415 5.96428 72.482 5.95835L77.8058 5.62917C78.0582 5.6106 78.2963 5.50469 78.4789 5.32969C78.6615 5.1547 78.7772 4.9216 78.806 4.67057Z"
    fill="#99A8A7" />
  <path fill-rule="evenodd" clip-rule="evenodd"
    d="M68.0713 16.7628C68.5094 16.6872 68.9559 16.6738 69.3978 16.723C69.5485 16.7493 69.7034 16.7356 69.8472 16.6832L69.7892 16.6362L69.5174 16.4409L69.2347 16.2311L68.1475 15.4027L68.0727 15.3474L68.0727 15.3473C67.9164 15.2315 67.7606 15.116 67.6075 15.0193L67.5241 14.9686L67.3538 14.8999C67.2378 14.8493 67.1255 14.795 67.0167 14.7371C66.6687 14.554 66.3459 14.3266 66.0563 14.0607C64.9981 13.1708 63.8058 11.0221 63.4977 10.3203C63.2499 9.78084 62.8111 9.35182 62.2655 9.11576C62.5329 9.09987 62.8003 9.14542 63.0472 9.24889C63.2941 9.35237 63.514 9.51102 63.6898 9.71263C63.7809 9.788 63.9505 10.0335 64.1554 10.3302L64.1554 10.3302L64.1555 10.3304L64.1556 10.3304C64.5703 10.9308 65.1297 11.7406 65.4765 11.7745C65.6603 11.7678 65.8427 11.7398 66.0201 11.6913C66.2983 11.6299 66.57 11.5427 66.8319 11.4309C66.2985 11.0735 65.9525 10.4691 65.5809 9.81986L65.5671 9.79582C65.3627 9.44212 65.1196 9.11213 64.8423 8.8119C64.7617 8.72932 64.6771 8.65085 64.5886 8.57678C64.495 8.51089 64.3969 8.45166 64.295 8.39953C64.1066 8.30548 63.9326 8.22951 63.7442 8.15717L63.7051 8.14217C63.5317 8.07573 63.3724 8.01468 63.2477 7.94737L62.7403 7.69415L61.7111 7.19495C61.0139 6.86038 60.296 6.57041 59.562 6.32679C58.8189 6.08245 58.0526 5.91517 57.2752 5.8276C57.2264 5.82317 57.1798 5.81832 57.1337 5.8135C56.9911 5.79864 56.8525 5.78419 56.6663 5.78419C56.426 5.78328 56.1884 5.83515 55.9705 5.93612C55.8668 5.98232 55.7745 6.0304 55.6897 6.07458C55.6084 6.1169 55.534 6.15564 55.4631 6.18572L54.934 6.42808C54.2296 6.76779 53.5648 7.18388 52.9516 7.66882C52.63 7.90424 52.3293 8.16687 52.0528 8.45379C51.769 8.7505 51.5374 9.09293 51.3679 9.46664C51.6242 9.41943 51.8832 9.38803 52.1434 9.3726C52.6564 9.34957 53.169 9.42321 53.6547 9.58964C53.0012 9.57828 52.3501 9.67233 51.7267 9.86817C51.4194 9.95569 51.1189 10.0657 50.8279 10.1974C50.5374 10.3178 50.2584 10.4643 49.9943 10.635C49.7312 10.7853 49.4877 10.9676 49.2695 11.1776C49.1823 11.2686 49.1134 11.3755 49.0666 11.4924C49.005 11.626 48.9508 11.7741 48.8965 11.9222L48.8965 11.9222L48.8965 11.9223L48.8964 11.9224L48.8962 11.9228C48.6856 12.5315 48.5173 13.1539 48.3925 13.7857C48.1338 15.0453 48.0364 16.3325 48.1026 17.6165C48.1583 18.6506 48.4286 19.6619 48.8962 20.5864C49.342 20.004 49.7769 19.4071 50.1973 18.803C50.7414 18.0266 51.2446 17.2225 51.7049 16.3939C51.9385 15.9723 52.1471 15.5305 52.3579 15.0839L52.3579 15.0838C52.5559 14.6644 52.7559 14.2407 52.9806 13.8255C53.205 13.387 53.4682 12.9694 53.767 12.5776C53.9191 12.3733 54.0983 12.1908 54.2998 12.035C54.4968 11.8718 54.7402 11.7744 54.9956 11.7564C54.1802 12.4799 53.546 14.4369 52.919 16.629C52.4116 18.4015 50.6757 22.4529 49.6029 22.5542C49.1789 22.5759 49.0231 22.3733 48.7368 21.9609L48.4976 21.6354C48.0795 21.0553 47.7611 20.4099 47.5553 19.7254C47.3654 19.0554 47.2512 18.3662 47.2147 17.6708V17.0812C46.463 17.2018 45.7259 17.3994 45.0148 17.6708C44.3127 17.9583 43.632 18.2955 42.9781 18.68C42.3725 19.0448 41.7097 19.3053 41.0174 19.4505C40.3148 19.5702 39.599 19.5933 38.8901 19.5192C37.4151 19.436 35.9473 19.295 34.4759 19.1141L30.0509 18.5823L12.3689 16.3722L3.52975 15.2399L1.31906 14.9542L1.18134 14.9361H1.11248C1.04783 14.9238 0.981449 14.9238 0.916791 14.9361C0.797646 14.9639 0.691506 15.0314 0.615785 15.1273C0.540065 15.2233 0.499246 15.3421 0.500011 15.4642C0.554372 15.6451 1.02914 16.2419 2.86656 16.5964C4.76196 16.9582 6.54502 17.2439 9.10001 17.602C10.6065 17.8129 11.9827 18.0313 13.5542 18.2806L13.5542 18.2806L13.5544 18.2806H13.5544C15.0828 18.5231 16.796 18.7949 18.9938 19.1177C19.4282 19.1813 19.862 19.2425 20.286 19.3024C23.0453 19.6917 25.387 20.0222 24.7525 20.5647C24.2469 20.7859 23.7544 21.0359 23.2775 21.3134L23.0492 21.4545C22.7085 21.6643 22.3715 21.885 22.0525 22.1237C20.3276 23.4226 18.9108 25.085 17.9029 26.9927C17.6431 27.4724 17.419 27.9705 17.2325 28.483C17.0513 29.0003 16.9136 29.5139 16.7831 30.0312C16.5921 30.7629 16.436 31.4982 16.2808 32.2294L16.2808 32.2295C16.2181 32.525 16.1555 32.8197 16.0909 33.1132C15.991 33.6158 15.8578 34.1113 15.6922 34.5963C15.5328 35.081 15.3516 35.573 15.1595 36.0432C14.4021 37.9785 13.5105 39.8776 12.5755 41.7478C12.1044 42.6847 11.6224 43.6143 11.1259 44.5295L11.0271 44.7072C10.8062 45.1049 10.5842 45.5046 10.3539 45.8824C10.2971 45.978 10.2452 46.0538 10.1901 46.1343L10.1901 46.1343L10.19 46.1344L10.1546 46.1863L9.92267 46.4865C9.76321 46.6855 9.60013 46.8772 9.42617 47.0617C9.0846 47.4277 8.707 47.7586 8.29908 48.0492L8.15048 48.1433L8.07439 48.1903C8.02087 48.2192 7.97098 48.2545 7.92579 48.2952C7.83025 48.3859 7.76133 48.501 7.72647 48.628L7.67212 48.8161C7.60326 49.0548 7.51989 49.2972 7.43291 49.5395C7.0705 50.5126 6.67186 51.4748 6.24059 52.4334C5.95516 53.0595 5.6479 53.6796 5.33903 54.303C4.71456 55.5633 4.08353 56.8368 3.61312 58.1995C3.25173 59.2215 3.02869 60.2872 2.94991 61.3682C2.88219 62.4548 2.98118 63.5454 3.24346 64.6021L3.30869 64.9639H5.80207C5.80207 63.5712 5.47589 62.5113 4.91053 62.7211C4.64597 62.8007 4.37779 62.8731 4.09874 62.9346C4.35243 62.7067 4.62061 62.4969 4.89604 62.2943L4.96128 62.2545C4.88155 59.6283 6.49428 55.5841 8.36431 52.6758C9.60853 50.832 10.9844 49.0803 12.4813 47.4343C13.2849 46.5634 14.0636 45.8909 14.8721 45.1926C17.0862 43.2803 19.5235 41.1753 23.3065 34.278C24.0359 32.8022 24.7008 32.0046 25.2316 31.3679C26.1774 30.2332 26.6973 29.6095 26.3978 26.5694C26.6148 27.655 26.9717 28.708 27.4597 29.702C27.9202 30.4398 28.5913 30.9264 29.2808 31.4262C29.6765 31.7131 30.0782 32.0043 30.4496 32.3499L30.5003 32.397C31.6032 33.128 32.6228 33.9771 33.5409 34.9291C34.4904 35.8081 36.143 36.5027 37.3825 36.4556C37.2098 35.2835 37.1964 34.0935 37.3426 32.9179C37.4842 34.2579 37.7143 35.5871 38.0312 36.8969C38.1936 37.5946 38.3147 38.3012 38.3936 39.0131C38.3961 39.1183 38.39 39.2236 38.3755 39.3278C38.3618 39.4107 38.3436 39.4928 38.3211 39.5738C38.3211 39.6136 38.3211 39.6461 38.2994 39.6859C38.2667 39.8053 38.2269 39.9283 38.1798 40.0476C38.1339 40.1851 38.0795 40.3226 38.0167 40.46C37.7704 41.0351 37.4733 41.5871 37.1288 42.1095L37.1177 42.1264L37.1103 42.1378C37.0945 42.1622 37.0781 42.1874 37.0599 42.2108C36.9802 42.3302 36.9005 42.4351 36.8316 42.5219C36.7627 42.6087 36.7301 42.6449 36.6758 42.7028C36.6682 42.7154 36.6597 42.7275 36.6504 42.7389C36.5661 42.8606 36.5127 43.0009 36.4946 43.1477C36.4893 43.2127 36.4893 43.278 36.4946 43.343V43.4696V43.7229C36.505 43.8605 36.5147 43.9974 36.5243 44.1338C36.5346 44.2805 36.5449 44.4267 36.5562 44.5729V44.743C36.5562 44.8008 36.5562 44.931 36.5852 45.0287C36.6014 45.0835 36.5994 45.1099 36.5978 45.132C36.5965 45.1493 36.5953 45.1641 36.6033 45.1879C36.712 46.3937 36.8497 47.5994 37.0164 48.8052C37.3885 51.4941 37.8439 54.1661 38.3827 56.8212L38.5857 57.816L38.6871 58.3116L38.7415 58.5612L38.7705 58.6987C38.7924 58.7902 38.8304 58.8772 38.8829 58.9555L39.0206 59.1436L39.1148 59.3281C39.1775 59.4662 39.2331 59.6075 39.2815 59.7513C39.383 60.0515 39.4663 60.3699 39.5424 60.6918C39.6525 61.1589 39.7555 61.633 39.8595 62.1115C40.0429 62.9561 40.2293 63.8142 40.463 64.6709L40.5536 64.9928H43.3369C43.3369 63.6616 43.0723 62.316 42.2496 62.5222C41.9416 62.6199 41.6082 62.7175 41.282 62.7971C41.5756 62.5728 41.8582 62.3666 42.1772 62.1641L42.2388 62.1351C41.1515 56.5282 39.9773 49.5106 39.7019 47.4921C39.4917 45.9548 40.5101 44.9094 41.1805 44.2365C42.7074 42.7423 44.348 41.3684 46.0876 40.1272L46.3268 39.9464C47.051 39.3795 47.8436 38.9055 48.686 38.5356C49.5202 38.1859 50.3732 37.8828 51.241 37.6276C52.0999 37.3636 52.9226 37.0995 53.7779 36.792C54.0678 36.6878 54.3574 36.5931 54.6435 36.4996C55.2015 36.3171 55.7465 36.1389 56.2568 35.9022C57.0207 35.5612 57.6935 35.0457 58.221 34.3974C58.7397 33.7351 59.1183 32.9745 59.3336 32.1618C59.5478 31.3359 59.6261 30.4807 59.5656 29.6297L59.5366 29.1884L59.9715 29.239C60.0335 29.239 60.0795 29.251 60.1258 29.2631L60.1258 29.2632C60.1418 29.2673 60.1577 29.2715 60.1744 29.2752C60.1451 28.728 60.0225 28.1897 59.812 27.6836C59.5527 27.0497 59.2293 26.428 58.9006 25.7962L58.8118 25.6253C58.4202 24.911 58.153 24.1355 58.0217 23.3319C57.9502 22.9104 57.9625 22.479 58.058 22.0622C58.082 21.9738 58.1111 21.8869 58.1449 21.8018C56.9671 22.5469 56.8403 23.4875 57.199 24.5365C57.4179 25.0436 57.6835 25.5104 57.9402 25.9615C58.4362 26.833 58.8991 27.6464 58.9277 28.5807C58.7869 28.4322 58.6075 28.3258 58.4095 28.2732C58.7529 33.223 56.2944 34.5153 55.4067 34.9818C55.3577 35.0076 55.3134 35.0309 55.2747 35.0521C56.2897 32.8984 54.7577 30.535 54.1585 29.6106C54.0944 29.5119 54.0411 29.4295 54.0026 29.3656C54.2476 29.3948 54.49 29.4432 54.7274 29.5103C54.7274 29.5103 54.568 28.9713 52.5312 26.9565C50.9967 25.4377 51.5356 24.103 52.4357 21.8735L52.4359 21.873C52.5455 21.6015 52.6604 21.3168 52.7776 21.0168C53.1255 20.1477 53.3806 19.2444 53.5387 18.3219C53.5823 18.0042 53.6428 17.6891 53.7199 17.3778C53.7199 17.7033 53.7199 18.0253 53.767 18.3436C53.786 18.6507 53.847 18.9537 53.9482 19.2443C53.997 19.3684 54.0683 19.4824 54.1584 19.5807C54.1814 19.6056 54.2064 19.6284 54.2349 19.6545L54.2351 19.6546C54.2606 19.6779 54.289 19.7039 54.3215 19.7363C54.3696 19.7918 54.4217 19.8438 54.4773 19.8918C54.7085 20.0663 54.9652 20.2041 55.2384 20.3006C55.8169 20.5023 56.4183 20.6311 57.0287 20.684C57.6158 20.7527 58.2102 20.7672 58.8118 20.7781H58.906C59.5301 20.7826 60.1493 20.8876 60.7398 21.0892C61.2658 21.2667 61.8156 21.3643 62.3706 21.3786C63.5407 21.4907 64.6959 21.7246 65.8172 22.0767C66.2953 22.0911 66.7734 22.0486 67.2414 21.9501C67.5749 21.885 67.9083 21.7945 68.2344 21.6969C68.9593 21.3858 69.4449 20.5574 68.4591 20.6659C68.2265 20.6838 67.9953 20.7164 67.7669 20.7636C67.5977 20.797 67.4275 20.859 67.2447 20.9256C67.0711 20.9888 66.8861 21.0562 66.6797 21.1073C66.2779 21.2014 65.8588 21.1914 65.462 21.0783C65.1161 20.9344 64.7487 20.8488 64.3748 20.8251C64.5481 20.7233 64.743 20.6638 64.9437 20.6515H65.5236C65.8619 20.6942 66.205 20.6796 66.5384 20.6081C66.7117 20.5592 66.8873 20.4646 67.0761 20.3628L67.0762 20.3627C67.223 20.2836 67.3778 20.2002 67.5458 20.1306C67.9243 19.9743 68.3287 19.8896 68.7382 19.881H68.9846C69.2709 19.4831 69.5174 19.0562 69.4231 18.68C69.3101 18.5307 69.1548 18.4185 68.9774 18.3581C68.9306 18.3415 68.8375 18.3172 68.7165 18.2857C68.2843 18.1732 67.4957 17.9679 67.1871 17.6852C66.9841 17.432 67.1182 16.9618 68.0713 16.7628ZM61.8379 11.9879C61.734 12.0781 61.6563 12.1946 61.613 12.325C61.5696 12.4555 61.5622 12.5952 61.5915 12.7295C61.6241 13.1563 61.1131 13.4891 60.5042 13.5579C59.7178 13.6447 59.301 13.1961 59.417 12.6608C59.6236 11.7781 59.1669 12.0675 58.8661 12.422C58.8601 12.4289 58.852 12.4338 58.843 12.4358C58.8341 12.4379 58.8247 12.437 58.8162 12.4334C58.8077 12.4298 58.8006 12.4236 58.7959 12.4157C58.7912 12.4078 58.7892 12.3986 58.79 12.3895C58.9205 11.4815 59.4532 11.4453 59.6888 11.4417C60.4078 11.4948 61.1201 11.6159 61.8161 11.8035C61.8338 11.8107 61.8492 11.8226 61.8606 11.8379C61.872 11.8532 61.879 11.8713 61.8808 11.8903C61.8827 11.9092 61.8793 11.9283 61.8711 11.9455C61.8629 11.9627 61.8502 11.9774 61.8343 11.9879H61.8379ZM54.5286 40.8603L54.5286 40.8603C54.4267 40.1528 54.3279 39.4665 54.2926 38.8829C53.1075 39.0565 51.5492 40.3479 51.1143 40.7241C51.3027 41.4041 51.4767 41.9829 51.6325 42.3736C51.8991 43.0792 52.0674 43.818 52.1326 44.5693C51.8666 44.6621 51.6343 44.8322 51.4658 45.0577C51.3788 45.1751 51.3306 45.3167 51.3281 45.4628C51.325 45.6882 51.2858 45.9117 51.2121 46.1248C50.7482 47.21 48.9978 48.0854 48.3382 48.4109L48.2766 48.4399C48.0891 48.5485 47.8844 48.6243 47.6714 48.6641C47.5069 48.6707 47.3423 48.6549 47.1821 48.6171L47.0661 48.599C46.3087 48.458 45.718 48.4399 45.3121 48.7908C45.1698 48.9135 45.0552 49.065 44.9758 49.2352C44.8965 49.4055 44.8542 49.5905 44.8518 49.7783V49.9302C44.9125 50.0211 44.9803 50.107 45.0548 50.187C45.1164 50.2522 45.178 50.3137 45.2432 50.3715L45.3773 50.4909C45.6469 50.6864 45.9389 50.8491 46.2471 50.9756C46.5942 51.1112 46.9618 51.1871 47.3343 51.1999C48.1296 51.1999 48.9211 51.0903 49.6864 50.8743L49.3675 51.0009C48.3715 51.4796 47.28 51.7269 46.1746 51.7244C45.6954 51.7434 45.2217 51.6173 44.8156 51.3627C45.0413 51.7264 45.3325 52.0453 45.6745 52.3032C45.7737 52.3733 45.8823 52.4294 45.997 52.4696C46.1446 52.506 46.2989 52.506 46.4464 52.4696C46.8396 52.3917 47.2382 52.3445 47.6387 52.3285C48.016 52.3274 48.391 52.2701 48.7514 52.1585C49.102 51.9989 49.4318 51.7973 49.7335 51.558C49.467 51.8534 49.1637 52.1135 48.8311 52.3321C48.4693 52.5115 48.0817 52.6336 47.6822 52.6939C47.3127 52.7662 46.9492 52.8666 46.595 52.9941C46.3707 53.0778 46.1301 53.1087 45.8919 53.0845H45.8484C46.0668 53.1991 46.3058 53.2692 46.5515 53.2907C46.8006 53.2679 47.0449 53.2082 47.2763 53.1135L47.5445 53.0194C48.0617 52.8825 48.5994 52.8396 49.1319 52.8928C49.6356 52.8928 50.0886 52.5492 50.5815 52.1693L50.6721 52.097C50.9802 51.8546 51.5057 51.3735 51.9659 50.9178C52.0406 50.8476 52.1139 50.7783 52.1851 50.711C52.4112 50.4974 52.6153 50.3046 52.7669 50.1726C52.9724 49.9924 53.163 49.8356 53.3371 49.6923C53.3902 49.6487 53.4417 49.6063 53.4917 49.5649C54.0758 49.162 54.5695 48.6421 54.9413 48.0383C55.2161 47.5554 55.3876 47.0208 55.445 46.4684C55.4461 46.2971 55.4111 46.1275 55.3425 45.9705C55.2738 45.8135 55.173 45.6726 55.0464 45.5569C54.911 45.4567 54.8067 45.3203 54.7458 45.1635C54.6848 45.0066 54.6697 44.8357 54.7021 44.6706C54.9427 43.7365 54.7297 42.2572 54.5286 40.8603ZM44.6053 62.5005C44.533 62.3938 44.4269 62.3144 44.304 62.2751C44.1812 62.2357 44.0486 62.2387 43.9276 62.2835L43.5652 62.4209C43.7893 62.6976 43.9613 63.0126 44.0726 63.3506C44.2216 63.8785 44.3044 64.4228 44.319 64.9711H45.1489C45.1615 64.3115 45.061 63.6545 44.8517 63.0286C44.7883 62.8445 44.7057 62.6675 44.6053 62.5005ZM45.4461 62.5511C45.7804 63.316 45.9566 64.1403 45.9643 64.9748H46.3992C46.3594 63.0757 45.8701 62.4209 45.4461 62.5511ZM33.6134 62.8911C33.418 62.7887 33.2034 62.7278 32.9832 62.7122C32.763 62.6966 32.542 62.7267 32.3341 62.8007C32.0206 62.9013 31.6976 62.9692 31.3701 63.0032H31.3338L31.0511 63.0213C30.0291 62.9547 29.1229 57.7653 28.8633 56.279L28.8405 56.1484C28.681 55.2368 28.1156 51.1818 28.7426 49.9229C28.9494 49.4793 29.5103 48.9598 30.1629 48.3554C31.2716 47.3285 32.6446 46.0568 32.9937 44.4969C33.3401 42.2005 33.188 39.8566 32.5479 37.624C32.2435 36.6654 31.236 35.4536 29.6957 34.4154C28.9992 34.4293 28.3102 34.5626 27.659 34.8097C27.5349 34.855 27.4139 34.9081 27.2966 34.9689L27.1806 35.034L27.09 35.0991L27.0139 35.1606C27.1435 35.3342 27.3053 35.5239 27.4961 35.7476L27.5322 35.79C28.24 36.5382 28.8258 37.3926 29.2681 38.3221C29.7066 39.8125 29.366 43.8784 29.3623 43.9037C28.979 45.6441 27.9758 47.1865 26.5392 48.2445C26.4402 48.308 26.3576 48.3938 26.2978 48.4949C26.238 48.596 26.2027 48.7097 26.1949 48.8269C25.9521 55.5081 27.0212 60.699 29.4566 64.6998L29.5616 64.9494H34.3201C34.3382 63.5061 34.0048 63.1371 33.6134 62.8911ZM35.1646 64.9747C35.1856 64.1116 34.9035 63.2684 34.3673 62.5909C35.0269 62.8043 35.5813 63.3904 35.6248 64.9747H35.1646ZM8.54562 63.1082C8.47286 62.9351 8.34565 62.7903 8.18321 62.6958C8.11123 62.6653 8.03221 62.6553 7.95489 62.6668C8.25153 63.399 8.4041 64.1813 8.40427 64.9711H8.86817L8.82831 64.1717C8.80169 63.8026 8.70579 63.4418 8.54562 63.1082ZM6.6611 63.4554C6.5791 63.1428 6.43895 62.8483 6.24795 62.5873C6.89666 62.4426 7.52727 63.4771 7.44029 64.9711H6.77345C6.7931 64.4633 6.75541 63.9548 6.6611 63.4554Z"
    fill="#99A8A7" />
  <path fill-rule="evenodd" clip-rule="evenodd"
    d="M70.7786 16.7487C70.6632 16.4726 70.4723 16.2344 70.2278 16.0614L69.9415 15.8589L69.6733 15.6563L68.5861 14.8243L68.5282 14.7809L68.5281 14.7808L68.528 14.7808C68.3611 14.6555 68.2008 14.5352 68.0026 14.4119C67.9361 14.3661 67.8658 14.3261 67.7924 14.2926L67.6402 14.2347C67.5459 14.1949 67.4517 14.1479 67.3575 14.0972C66.9973 13.9091 66.6694 13.6649 66.3862 13.3738C66.3862 13.3672 66.3848 13.3593 66.383 13.3495C66.3779 13.3213 66.3701 13.2781 66.3862 13.211C66.3985 13.16 66.4142 13.1205 66.4321 13.0757L66.4322 13.0754L66.4322 13.0753L66.4322 13.0752C66.446 13.0407 66.4611 13.0029 66.4768 12.9541C66.5126 12.837 66.5297 12.7149 66.5276 12.5924V12.3573C66.5319 12.3183 66.5429 12.2804 66.5602 12.2451C66.5999 12.1771 66.663 12.1256 66.7378 12.1004L67.14 11.9992L67.256 11.7857C67.259 11.7702 67.259 11.7543 67.256 11.7387L66.8247 11.453C66.5629 11.5648 66.2911 11.652 66.0129 11.7134C65.8356 11.7619 65.6531 11.7898 65.4693 11.7966C65.1225 11.7627 64.563 10.9527 64.1483 10.3523L64.1482 10.3523C63.9433 10.0556 63.7737 9.81008 63.6827 9.73471C63.5068 9.53311 63.287 9.37446 63.0401 9.27099C62.7931 9.16751 62.5257 9.12197 62.2584 9.13786C62.8039 9.37391 63.2428 9.80293 63.4906 10.3424C63.7986 11.0442 64.9909 13.1929 66.0492 14.0864C66.3387 14.3523 66.6615 14.5797 67.0096 14.7628C67.1183 14.8207 67.2306 14.875 67.3466 14.9256L67.5169 14.9943L67.6003 15.045C67.7743 15.1571 67.9627 15.2946 68.1403 15.4284L69.2275 16.2568L69.5102 16.4666L69.782 16.6619L69.84 16.7089C69.6963 16.7613 69.5413 16.775 69.3906 16.7487C68.9488 16.6995 68.5022 16.7129 68.0642 16.7885C67.1147 16.9875 66.977 17.4577 67.2089 17.6929C67.5175 17.9755 68.3062 18.1808 68.7384 18.2933C68.8594 18.3248 68.9524 18.3491 68.9992 18.3657C69.1767 18.4261 69.3319 18.5383 69.445 18.6876C69.5392 19.0494 69.2928 19.4907 69.0065 19.8886H68.76C68.3505 19.8972 67.9462 19.9819 67.5677 20.1382C67.3997 20.2078 67.2449 20.2912 67.098 20.3704L67.0979 20.3704C66.9091 20.4722 66.7335 20.5668 66.5602 20.6157C66.2268 20.6872 65.8837 20.7018 65.5454 20.6591C65.4863 20.6591 65.4272 20.6568 65.3668 20.6544C65.2421 20.6495 65.1121 20.6445 64.9656 20.6591C64.7649 20.6714 64.5699 20.7309 64.3966 20.8327C64.7706 20.8564 65.138 20.942 65.4838 21.0859C65.8806 21.199 66.2998 21.209 66.7015 21.1149C66.9036 21.0644 67.0855 20.9982 67.257 20.9357C67.4424 20.8681 67.6156 20.805 67.7887 20.7712C68.0172 20.724 68.2484 20.6914 68.481 20.6735C69.4667 20.565 68.9811 21.397 68.2563 21.7045C67.9301 21.8022 67.5967 21.8926 67.2633 21.9577C66.7952 22.0562 66.3171 22.0987 65.839 22.0843C64.7177 21.7323 63.5626 21.4983 62.3925 21.3862C61.8374 21.3719 61.2876 21.2744 60.7616 21.0968C60.1711 20.8953 59.5519 20.7902 58.9278 20.7857H58.8336C58.232 20.7857 57.6377 20.7604 57.0506 20.6916C56.4401 20.6387 55.8387 20.5099 55.2603 20.3082C54.9871 20.2117 54.7303 20.0739 54.4992 19.8994C54.4435 19.8514 54.3915 19.7994 54.3433 19.7439C54.3109 19.7115 54.2824 19.6855 54.2569 19.6622L54.2568 19.6621C54.2282 19.636 54.2032 19.6132 54.1803 19.5883C54.0901 19.49 54.0189 19.376 53.9701 19.2519C53.8688 18.9613 53.8079 18.6583 53.7889 18.3512C53.7609 18.1057 53.7545 17.858 53.7481 17.6082C53.7462 17.5341 53.7442 17.4599 53.7418 17.3854C53.6647 17.6967 53.6042 18.0118 53.5606 18.3295C53.4025 19.252 53.1474 20.1553 52.7995 21.0244C52.6851 21.3152 52.573 21.5917 52.4659 21.8557C51.5557 24.1005 51.0127 25.4396 52.553 26.9641C54.5898 28.979 54.7492 29.518 54.7492 29.518C54.5118 29.4508 54.2695 29.4025 54.0244 29.3733C54.0629 29.4371 54.1163 29.5195 54.1803 29.6182C54.7795 30.5426 56.3115 32.906 55.2965 35.0597C55.3372 35.0369 55.3844 35.0118 55.437 34.9838C56.3221 34.5125 58.7666 33.2108 58.4313 28.2808C58.6293 28.3334 58.8087 28.4398 58.9496 28.5883C58.9209 27.654 58.458 26.8406 57.9621 25.9692C57.7053 25.518 57.4397 25.0513 57.2209 24.5441C56.8585 23.4951 56.9889 22.5546 58.1668 21.8094C58.1329 21.8945 58.1039 21.9815 58.0798 22.0698C57.9843 22.4866 57.972 22.918 58.0436 23.3395C58.1749 24.1431 58.442 24.9186 58.8336 25.6329L58.9145 25.7869C59.2495 26.4246 59.5789 27.0517 59.8339 27.6912C60.0443 28.1973 60.1669 28.7356 60.1963 29.2828C60.1594 29.2828 60.126 29.2747 60.0889 29.2657C60.0603 29.2588 60.0296 29.2514 59.9933 29.2467L59.5584 29.196L59.5874 29.6373C59.648 30.4883 59.5696 31.3435 59.3555 32.1695C59.1401 32.9821 58.7616 33.7427 58.2429 34.405C57.7153 35.0533 57.0425 35.5688 56.2786 35.9098C55.731 36.1664 55.1432 36.3575 54.5424 36.5528C54.2964 36.6328 54.0482 36.7135 53.7997 36.7997C52.9444 37.0963 52.1326 37.3712 51.2629 37.6353C50.395 37.8904 49.542 38.1936 48.7079 38.5432C47.8654 38.9132 47.0728 39.3871 46.3486 39.954L46.1094 40.1348C44.3699 41.376 42.7292 42.7499 41.2024 44.2441C40.5319 44.9097 39.5135 45.9551 39.7237 47.4997C40.0028 49.5182 41.1734 56.5431 42.2606 62.1428L42.199 62.1717C41.8801 62.3743 41.5974 62.5804 41.3038 62.8047C41.63 62.7251 41.9634 62.6275 42.2715 62.5298C43.1086 62.3236 43.3587 63.6693 43.3587 65.0005H44.3263C44.3117 64.4522 44.2289 63.9078 44.0799 63.3799C43.9686 63.0419 43.7967 62.7269 43.5725 62.4502L43.9349 62.3128C44.0559 62.268 44.1885 62.265 44.3114 62.3044C44.4343 62.3437 44.5404 62.4231 44.6127 62.5298C44.7143 62.6966 44.7981 62.8736 44.8627 63.0579C45.072 63.6838 45.1725 64.3408 45.1599 65.0005H45.9644C45.9586 64.1677 45.7848 63.3447 45.4534 62.5804C45.8775 62.4502 46.3667 63.105 46.3993 65.0005H47.2727L47.2401 64.5374C47.2116 63.9807 47.0891 63.4328 46.8777 62.9169C46.7598 62.6346 46.5915 62.376 46.3812 62.1536C46.2525 62.0243 46.0982 61.9233 45.9282 61.857C45.7329 61.7853 45.52 61.7764 45.3193 61.8317H45.2976L45.0802 61.9185C44.9922 61.815 44.8896 61.7249 44.7757 61.6508C44.6462 61.5667 44.4988 61.5141 44.3452 61.4971C44.1916 61.4802 44.0363 61.4994 43.8915 61.5531L43.79 61.5893C43.6217 60.4395 43.398 59.2989 43.1742 58.1583C43.0847 57.7021 42.9953 57.2459 42.9093 56.7891C42.5868 55.0419 42.2823 53.2911 42.0142 51.5403C41.8801 50.6649 41.7532 49.7859 41.6517 48.9141C41.5902 48.4963 41.5708 48.0734 41.5938 47.6517C41.6394 47.24 41.7393 46.8362 41.8909 46.4507C42.1953 45.6484 42.6061 44.8905 43.1123 44.1971C43.6197 43.4924 44.1859 42.8317 44.8047 42.222C45.4248 41.6044 46.0912 41.0349 46.798 40.5183C47.4762 39.9832 48.2204 39.537 49.0123 39.1907C49.5305 38.9628 50.0742 38.7711 50.6286 38.5866C50.7664 39.3499 50.9476 40.0842 51.1288 40.7281C51.6808 40.2492 52.2738 39.8195 52.901 39.4439L53.209 39.2775L53.2924 39.2377C53.3974 39.1835 53.5025 39.1328 53.6113 39.0894C53.7118 39.0474 53.8147 39.0112 53.9193 38.9809L53.9991 38.9556C54.099 38.9262 54.2006 38.9033 54.3035 38.8869C54.339 39.4787 54.4379 40.1727 54.5396 40.8859L54.5396 40.886C54.7386 42.2825 54.9481 43.7527 54.713 44.6746C54.6721 44.8383 54.6787 45.0102 54.7319 45.1703C54.7852 45.3305 54.8829 45.4722 55.0138 45.5789C55.1404 45.6947 55.2412 45.8356 55.3099 45.9926C55.3786 46.1496 55.4135 46.3192 55.4125 46.4905C55.355 47.0429 55.1835 47.5775 54.9087 48.0604C54.5369 48.6642 54.0432 49.1841 53.4591 49.587L53.4109 49.6243C53.1967 49.7903 52.9702 49.9659 52.7342 50.1947C52.5349 50.3683 52.245 50.6432 51.9333 50.9398C51.4731 51.3812 50.9476 51.8767 50.6395 52.1191L50.5489 52.1914L50.485 52.2399C50.0299 52.5848 49.5944 52.9149 49.0993 52.9149C48.5668 52.8617 48.0291 52.9046 47.5119 53.0415L47.2438 53.1356C47.0123 53.2303 46.768 53.29 46.5189 53.3128C46.2732 53.2913 46.0342 53.2212 45.8159 53.1066H45.8593C46.0975 53.1308 46.3381 53.0998 46.5624 53.0162C46.9167 52.8887 47.2801 52.7883 47.6496 52.716C48.0491 52.6557 48.4367 52.5336 48.7985 52.3542C49.1311 52.1356 49.4344 51.8755 49.7009 51.5801C49.3992 51.8194 49.0694 52.021 48.7187 52.1806C48.3584 52.2922 47.9834 52.3495 47.6062 52.3506C47.2056 52.3666 46.807 52.4138 46.4138 52.4917C46.2663 52.5281 46.112 52.5281 45.9644 52.4917C45.8497 52.4514 45.7411 52.3954 45.6419 52.3253C45.2999 52.0674 45.0087 51.7485 44.783 51.3848C45.1891 51.6394 45.6628 51.7655 46.142 51.7465C47.2474 51.749 48.3389 51.5017 49.3348 51.023L49.6538 50.8964C48.8885 51.1124 48.097 51.222 47.3017 51.222C46.9292 51.2092 46.5616 51.1333 46.2145 50.9977C45.9063 50.8712 45.6143 50.7085 45.3447 50.513L45.2106 50.3936C45.1454 50.3357 45.0838 50.2742 45.0222 50.2091C44.9478 50.1291 44.8799 50.0432 44.8192 49.9523L44.3118 49.7208V50.296C44.3137 50.4343 44.3471 50.5704 44.4097 50.6939L43.9712 50.5781V51.0484C43.9712 51.6561 44.3082 52.101 44.7757 52.5459H44.551L44.6706 52.9692C44.8337 53.5299 45.7579 54.0073 46.4827 54.0544H46.5443C46.865 54.0339 47.1799 53.9593 47.4757 53.8337L47.7185 53.7505C48.1575 53.6394 48.6128 53.6075 49.063 53.6565C49.8495 53.6565 50.4438 53.1971 50.9729 52.7811L51.0672 52.7087C51.4006 52.4483 51.9152 51.9599 52.4117 51.4861C52.7125 51.1967 52.9952 50.929 53.1909 50.7626C53.4482 50.5347 53.6838 50.3502 53.9157 50.1766C54.5652 49.7195 55.1131 49.1332 55.5248 48.4547C56.2243 47.2719 56.2025 45.9769 56.1808 44.7216V43.5605C56.2533 42.3602 56.4625 41.1721 56.8041 40.0191C57.1891 38.7474 57.4 37.4296 57.4311 36.1015C57.9573 35.769 58.426 35.3537 58.8191 34.8716C59.4017 34.127 59.826 33.2715 60.0658 32.3576C60.2518 31.6285 60.3395 30.8779 60.3267 30.1257L60.8595 30.5091L60.9138 29.858C60.9655 29.0242 60.819 28.19 60.4862 27.4235C60.1766 26.6975 59.8232 25.9908 59.428 25.3074C59.0616 24.6627 58.7952 23.9662 58.6379 23.2419C58.5583 22.9512 58.5417 22.647 58.5892 22.3495C58.6367 22.052 58.7472 21.7679 58.9133 21.5164H58.9387C59.4767 21.5234 60.0101 21.6162 60.5188 21.7913C60.8127 21.8972 61.1161 21.9748 61.4248 22.0228C61.6561 22.0604 61.8814 22.0781 62.0978 22.095C62.173 22.1009 62.2471 22.1067 62.32 22.1133C63.4584 22.2247 64.582 22.455 65.6723 22.8005H65.7121H65.752C66.3029 22.82 66.8542 22.7726 67.3937 22.6595C67.9215 22.5557 68.441 22.4143 68.9485 22.2362L69.0065 22.2145L69.0536 22.1747C69.4488 21.8472 69.7672 21.4371 69.9864 20.9733C70.2056 20.5095 70.3201 20.0034 70.322 19.4907C70.3239 19.3613 70.3166 19.232 70.3003 19.1036L70.2495 18.7817C70.2575 18.7601 70.2698 18.7404 70.2858 18.7238C70.3698 18.6201 70.4438 18.5086 70.5068 18.391C70.6312 18.1635 70.7238 17.9201 70.7823 17.6675C70.8095 17.5398 70.8288 17.4106 70.8403 17.2805C70.8645 17.1009 70.8433 16.9181 70.7786 16.7487ZM44.754 50.3394C44.7517 50.3274 44.7517 50.3151 44.754 50.3032V50.3394ZM58.841 12.4224C59.1418 12.0607 59.5984 11.7786 59.3918 12.6612C59.2831 13.1929 59.6998 13.6451 60.479 13.5583C61.1024 13.4896 61.6134 13.1568 61.5663 12.7299C61.537 12.5956 61.5444 12.4559 61.5878 12.3255C61.6311 12.195 61.7088 12.0786 61.8127 11.9884C61.8282 11.976 61.8399 11.9594 61.8464 11.9407C61.8529 11.9219 61.8539 11.9017 61.8494 11.8824C61.8448 11.8631 61.8349 11.8455 61.8207 11.8316C61.8065 11.8177 61.7886 11.8081 61.7692 11.8039C61.0732 11.6164 60.3609 11.4952 59.6419 11.4421C59.4063 11.4421 58.8736 11.4819 58.7431 12.3899C58.7388 12.4028 58.7398 12.417 58.7459 12.4292C58.752 12.4414 58.7627 12.4507 58.7757 12.455C58.7887 12.4593 58.8028 12.4583 58.8151 12.4522C58.8273 12.4461 58.8366 12.4354 58.841 12.4224ZM48.5195 21.6394C48.1021 21.0602 47.7837 20.4161 47.5772 19.7331C47.384 19.0573 47.2673 18.3621 47.2293 17.6603V17.0707C47.2261 16.5876 47.2479 16.1047 47.2945 15.6238C47.368 14.9484 47.4818 14.278 47.6352 13.6161C47.7878 12.9537 47.9852 12.3023 48.2259 11.6664C48.2911 11.5036 48.3564 11.3445 48.4397 11.1817C48.482 11.0905 48.5305 11.0023 48.5847 10.9176C48.6479 10.8334 48.717 10.7536 48.7913 10.6789C49.0557 10.4279 49.3547 10.216 49.6792 10.0495C50.2166 9.77099 50.7934 9.57583 51.3897 9.47068C51.6461 9.42347 51.9051 9.39206 52.1653 9.37663C52.6782 9.3536 53.1909 9.42723 53.6766 9.59367C53.0231 9.5823 52.372 9.67637 51.7485 9.87221C51.4412 9.95973 51.1408 10.0697 50.8497 10.2014C50.5592 10.3218 50.2802 10.4684 50.0162 10.6391C49.7531 10.7894 49.5096 10.9716 49.2914 11.1817C49.2042 11.2727 49.1353 11.3795 49.0884 11.4964C49.0269 11.6301 48.9726 11.7783 48.9182 11.9265L48.9182 11.9266L48.9181 11.9269C48.7075 12.5355 48.5391 13.158 48.4144 13.7898C48.1557 15.0493 48.0583 16.3365 48.1244 17.6205C48.1802 18.6547 48.4505 19.6659 48.9181 20.5904C49.3639 20.008 49.7988 19.4111 50.2192 18.807C50.7632 18.0306 51.2665 17.2265 51.7268 16.3979C51.9604 15.9763 52.1689 15.5345 52.3798 15.0879C52.5778 14.6685 52.7778 14.2448 53.0025 13.8296C53.2269 13.391 53.4901 12.9734 53.7889 12.5816C53.9409 12.3774 54.1202 12.1948 54.3216 12.039C54.5187 11.8758 54.7621 11.7784 55.0175 11.7605C54.202 12.4912 53.5714 14.4409 52.9409 16.633C52.4335 18.4055 50.712 22.4569 49.6248 22.5582C49.2008 22.5799 49.045 22.3774 48.7587 21.965L48.5195 21.6394ZM15.0508 19.4473L19.4541 20.1708L20.5413 20.3444C20.6621 20.3649 20.7829 20.3838 20.9037 20.4027C21.1453 20.4405 21.3869 20.4783 21.6285 20.5289C21.9474 20.5912 22.2513 20.714 22.5237 20.8906C22.7392 21.0513 22.9193 21.2545 23.0528 21.4875L23.2811 21.3464C23.7581 21.0689 24.2506 20.8189 24.7561 20.5976C25.3933 20.0348 22.9752 19.7012 20.1703 19.3142L20.1703 19.3142L20.1701 19.3142C19.7842 19.2609 19.391 19.2067 18.9975 19.1507C16.6401 18.8044 14.8402 18.5209 13.2279 18.2669L13.2278 18.2669L13.2278 18.2669C11.7913 18.0406 10.5038 17.8378 9.10365 17.635C6.56678 17.2733 4.75475 16.9911 2.87022 16.6294C1.0328 16.2677 0.558033 15.678 0.503672 15.4972C0.500241 15.5224 0.500241 15.5479 0.503672 15.5731C0.623267 16.1483 1.81922 17.1756 4.06254 17.5808L6.25874 17.9425L15.0508 19.4473ZM37.3826 36.4451C37.2099 35.273 37.1965 34.0831 37.3427 32.9074C37.4965 34.2556 37.7398 35.5921 38.0711 36.9082C38.2336 37.6058 38.3546 38.3124 38.4335 39.0243C38.436 39.1295 38.43 39.2348 38.4154 39.339C38.4017 39.4219 38.3836 39.504 38.3611 39.585C38.3393 39.6248 38.3393 39.6573 38.3393 39.6971C38.3067 39.8056 38.2668 39.9286 38.2197 40.0589C38.1738 40.1963 38.1195 40.3338 38.0566 40.4712C37.8104 41.0463 37.5132 41.5983 37.1687 42.1207C37.1626 42.1299 37.1565 42.1394 37.1503 42.149C37.1344 42.1734 37.1181 42.1987 37.0999 42.222C37.0201 42.3414 36.9223 42.4716 36.8716 42.5331C36.8208 42.5946 36.7701 42.6561 36.7157 42.714C36.7081 42.7266 36.6997 42.7387 36.6904 42.7502C36.6061 42.8718 36.5526 43.0121 36.5345 43.1589C36.5293 43.2239 36.5293 43.2893 36.5345 43.3543V43.4809V43.7341C36.545 43.8717 36.5546 44.0086 36.5642 44.1449C36.5746 44.2917 36.5849 44.4379 36.5961 44.5842C36.5961 44.6036 36.5953 44.6185 36.5945 44.6334C36.5929 44.6627 36.5913 44.6917 36.5961 44.7542C36.599 44.7913 36.6041 44.8284 36.6093 44.8657C36.6172 44.923 36.6251 44.9808 36.6251 45.0399C35.2431 47.0215 33.5888 48.7994 31.7108 50.3213L31.613 50.3936C31.116 50.7144 30.6984 51.1436 30.3917 51.6488C30.1976 52.1519 30.1219 52.6927 30.1706 53.2296C30.2181 56.2819 30.6939 59.3126 31.584 62.2332C31.7771 62.2001 31.9682 62.1566 32.1566 62.1029L32.3378 62.0523C32.9594 61.8087 33.6328 61.7266 34.2948 61.8136C35.0088 61.9836 36.2301 62.5262 36.3388 64.5157L36.3569 64.9715H35.6321C35.5886 63.3907 35.0341 62.8156 34.3637 62.5913C34.903 63.2663 35.1889 64.1083 35.1719 64.9715H34.3456C34.3456 63.5065 34.0013 63.1375 33.6208 62.8915C33.4253 62.7891 33.2108 62.7282 32.9906 62.7126C32.7704 62.697 32.5494 62.7272 32.3414 62.8011C32.028 62.9017 31.7049 62.9696 31.3774 63.0037H31.3412L31.0585 63.0217C30.0324 62.9619 29.1229 57.7308 28.8675 56.2622C28.8605 56.2214 28.8539 56.1836 28.8478 56.1488C28.6884 55.2372 28.1194 51.1822 28.75 49.9234C28.9558 49.4843 29.5129 48.969 30.1618 48.3687C31.2719 47.3416 32.6511 46.0657 33.001 44.4973C33.3474 42.2009 33.1954 39.8571 32.5553 37.6244C32.24 36.6658 31.2433 35.4431 29.7031 34.4158C29.0066 34.4297 28.3176 34.563 27.6664 34.8101C27.5423 34.8554 27.4212 34.9085 27.304 34.9693L27.188 35.0344C27.156 35.0535 27.1257 35.0752 27.0974 35.0995L27.0213 35.161C25.6187 36.2968 24.5388 37.7546 23.495 39.169C22.5164 40.5999 21.3798 41.9164 20.1065 43.0938C19.3817 43.7413 18.6822 44.2875 17.932 44.8627C16.1118 46.2152 14.4141 47.7246 12.8583 49.3735C10.6258 51.6561 6.91113 56.2392 6.61396 61.705C6.89271 61.6727 7.17321 61.7491 7.39677 61.9184C7.42568 61.9401 7.45298 61.9665 7.47975 61.9924C7.49325 62.0055 7.50662 62.0185 7.51998 62.0306C7.63645 61.9845 7.75817 61.9529 7.88239 61.9365C8.07985 61.9188 8.27871 61.9485 8.46226 62.0234C8.78341 62.1817 9.03958 62.4463 9.18708 62.7721C9.43991 63.3219 9.56385 63.9219 9.54949 64.5266V64.9643H8.84279L8.80293 64.1648C8.78087 63.7967 8.68989 63.436 8.53473 63.1013C8.46197 62.9282 8.33476 62.7835 8.17232 62.6889C8.10034 62.6585 8.02134 62.6485 7.94402 62.66C8.24066 63.3922 8.39324 64.1745 8.3934 64.9643H7.44389C7.53087 63.4703 6.90026 62.4466 6.25155 62.5804C6.44188 62.8418 6.58198 63.1362 6.6647 63.4486C6.75901 63.948 6.7967 64.4564 6.77705 64.9643H5.80216C5.80579 63.5716 5.47599 62.5117 4.91063 62.7215C4.64607 62.8011 4.37789 62.8734 4.09883 62.9349C4.35252 62.707 4.62071 62.4972 4.89614 62.2947L4.96137 62.2549C4.88164 59.6287 6.49437 55.57 8.3644 52.6761C9.6082 50.8287 10.9841 49.0733 12.4814 47.4238C13.2859 46.551 14.0655 45.8767 14.8749 45.1765C17.0883 43.2619 19.5251 41.1541 23.3066 34.2675C24.0339 32.8013 24.6969 32.0055 25.2269 31.3695C26.1758 30.2307 26.6979 29.6041 26.3979 26.5589C26.6149 27.6445 26.9718 28.6975 27.4598 29.6916C27.9203 30.4293 28.5914 30.9159 29.2809 31.4157C29.6766 31.7026 30.0783 31.9938 30.4497 32.3395L30.5004 32.3865C31.6033 33.1175 32.6229 33.9666 33.541 34.9186C34.4833 35.7976 36.1431 36.4922 37.3826 36.4451Z"
    fill="#002522" />
</svg>