<svg width="227" height="80" viewBox="0 0 227 80" fill="none" xmlns="http://www.w3.org/2000/svg">
  <path
    d="M9.64073 62.7836C15.9373 62.237 17.5695 61.542 17.5695 58.6714V23.9206C17.5695 20.1957 17.0254 19.2654 11.4289 19.2654C5.98828 19.2654 4.20014 20.8944 2.02028 26.9468H0L1.24409 17.0935C1.32388 16.5505 1.71198 16.3188 2.3322 16.3188C3.42032 16.3949 5.36443 16.4745 7.30853 16.4745H35.7592C37.7033 16.4745 39.6438 16.3949 40.8117 16.3188C41.3558 16.3188 41.7439 16.5505 41.82 17.0935L43.1439 26.9468H41.1236C38.9474 20.8944 37.1593 19.2654 31.715 19.2654C26.1185 19.2654 25.4982 20.1957 25.4982 23.9206V58.6714C25.4982 61.542 27.2066 62.237 33.5032 62.7836V64.6442H9.64073V62.7836Z"
    fill="#CCD3D3" />
  <path
    d="M36.9233 56.5718C36.9233 50.5194 41.7437 46.0995 58.6132 44.0796C60.0132 43.9276 60.7132 43.4606 60.7132 41.8317V40.1231C60.7132 34.6173 58.3012 31.2037 52.7845 31.2037C48.3522 31.2037 46.5641 33.296 46.5641 36.7892C46.5641 39.6597 44.9319 41.057 42.7557 41.057C40.4235 41.057 39.2555 39.5041 39.2555 37.2525C39.2555 31.3594 47.3403 28.9521 54.8809 28.9521C64.0538 28.9521 67.7062 32.8327 67.7062 42.0634V59.0551C67.7062 61.77 69.2622 62.2333 71.5182 61.77L71.7431 61.7229C71.7869 61.917 71.7895 62.118 71.7507 62.3132C71.712 62.5083 71.6328 62.6932 71.5182 62.8559C70.5825 64.2532 68.3301 65.1039 66.1538 65.1039C62.9656 65.1039 60.8656 63.1673 60.7132 59.5184C60.7132 58.7438 60.0894 58.7437 59.5453 59.4424C56.825 62.7799 52.1606 65.1039 47.032 65.1039C41.8235 65.1039 36.9233 62.6243 36.9233 56.5718ZM60.7132 51.9927V48.8144C60.7132 47.0298 60.1692 46.0199 57.6012 46.3312C46.72 47.4932 44.308 51.5293 44.308 55.0985C44.308 58.2768 46.4081 61.1474 50.9963 61.1474C56.281 61.1474 60.7132 57.2705 60.7132 51.9927Z"
    fill="#CCD3D3" />
  <path
    d="M75.0911 59.2108V21.879C75.0911 18.3894 74.1589 17.1478 70.0386 17.5351V15.7505L79.2114 13.8103C80.9996 13.423 82.0877 14.2773 82.0877 16.1379V59.0552C82.0877 61.7701 83.7199 62.2334 85.9759 61.7701L86.3386 61.6868C86.3574 62.1068 86.2292 62.5202 85.9759 62.856C85.0437 64.2533 82.7115 65.104 80.5353 65.104C77.4233 65.104 75.0911 63.399 75.0911 59.2108Z"
    fill="#CCD3D3" />
  <path
    d="M90.6404 59.2109V21.8791C90.6404 18.3895 89.7082 17.1479 85.5879 17.5353V15.7507L94.7535 13.8249C96.567 13.4376 97.6551 14.2774 97.6551 16.1525V59.0553C97.6551 61.7702 99.2873 62.2335 101.54 61.7702L101.902 61.6869C101.924 62.1072 101.795 62.5216 101.54 62.8562C100.608 64.2534 98.2753 65.1041 96.0991 65.1041C92.9726 65.1041 90.6404 63.3991 90.6404 59.2109Z"
    fill="#CCD3D3" />
  <path
    d="M104.184 74.9573C104.184 72.6297 105.892 71.0008 108.224 71.0008C113.045 71.0008 110.324 77.1292 113.589 77.1292C115.377 77.1292 116.933 74.57 118.021 71.855C119.573 67.8225 118.641 64.561 117.553 62.0017L108.13 38.4942C106.186 33.7631 105.254 32.6771 101.909 31.4355V29.6509H118.079V31.4355C113.882 32.6771 113.57 33.687 115.591 38.4942L122.275 55.019C123.287 57.4262 124.143 57.4262 125.152 54.943L128.416 46.4869C133.472 33.7631 132.072 32.6771 127.484 31.4355V29.6509H141.542V31.4355C137.034 32.6771 135.79 33.8391 134.005 38.4942L121.176 70.2261C118.768 76.2785 116.592 79.9998 110.839 79.9998C106.723 79.9998 104.184 77.9075 104.184 74.9573Z"
    fill="#CCD3D3" />
  <path
    d="M218.614 4.67023L219.049 0.145378C219.055 0.104979 219.076 0.0680622 219.107 0.041371C219.138 0.0146798 219.177 0 219.218 0C219.259 0 219.298 0.0146798 219.329 0.041371C219.36 0.0680622 219.381 0.104979 219.387 0.145378L219.815 4.66662C219.842 4.91912 219.957 5.15408 220.14 5.33066C220.323 5.50724 220.562 5.61427 220.816 5.63312L226.14 5.95167C226.181 5.95761 226.218 5.97788 226.244 6.00878C226.271 6.03969 226.286 6.07916 226.286 6.11999C226.286 6.16083 226.271 6.2003 226.244 6.2312C226.218 6.26211 226.181 6.28237 226.14 6.28832L220.812 6.61773C220.558 6.63658 220.319 6.7436 220.136 6.92018C219.953 7.09676 219.838 7.33174 219.811 7.58424L219.376 12.1091C219.37 12.1495 219.349 12.1864 219.319 12.2131C219.288 12.2398 219.248 12.2545 219.207 12.2545C219.166 12.2545 219.127 12.2398 219.096 12.2131C219.065 12.1864 219.044 12.1495 219.038 12.1091L218.61 7.58785C218.583 7.33535 218.468 7.10039 218.285 6.9238C218.102 6.74722 217.863 6.6402 217.609 6.62135L212.27 6.31366C212.225 6.31366 212.182 6.29573 212.15 6.26382C212.118 6.23192 212.1 6.18864 212.1 6.14352C212.1 6.0984 212.118 6.05513 212.15 6.02322C212.182 5.99131 212.225 5.97339 212.27 5.97339L217.602 5.6476C217.859 5.63082 218.103 5.52334 218.288 5.34433C218.473 5.16532 218.589 4.92641 218.614 4.67023Z"
    fill="#CCD3D3" />
  <path fill-rule="evenodd" clip-rule="evenodd"
    d="M208.05 16.6864C208.488 16.6107 208.935 16.5973 209.377 16.6466C209.528 16.6728 209.683 16.6591 209.827 16.6068L209.769 16.5597L209.497 16.3642L209.214 16.1542L208.126 15.3252L208.051 15.2699C207.895 15.154 207.739 15.0383 207.586 14.9415L207.502 14.8908L207.332 14.822C207.216 14.7713 207.103 14.717 206.994 14.6591C206.646 14.4758 206.323 14.2483 206.033 13.9821C204.974 13.0916 203.781 10.9412 203.472 10.2389C203.224 9.69899 202.785 9.26963 202.239 9.03339C202.507 9.01749 202.774 9.06307 203.022 9.16662C203.269 9.27018 203.489 9.42896 203.665 9.63072C203.756 9.70613 203.925 9.95168 204.13 10.2485L204.131 10.2485L204.131 10.2487L204.131 10.2488L204.131 10.2488C204.546 10.8497 205.106 11.6603 205.453 11.6942C205.637 11.6875 205.819 11.6595 205.997 11.6109C206.275 11.5495 206.547 11.4623 206.809 11.3503C206.276 10.9927 205.929 10.3878 205.557 9.73803L205.544 9.71398C205.339 9.36 205.096 9.02975 204.818 8.7293C204.738 8.64665 204.653 8.56812 204.564 8.49399C204.471 8.42805 204.372 8.36878 204.27 8.3166C204.082 8.22248 203.908 8.14645 203.719 8.07405L203.68 8.05904C203.506 7.99254 203.347 7.93145 203.222 7.86409L202.714 7.61067L201.684 7.11109C200.987 6.77625 200.268 6.48606 199.534 6.24225C198.79 5.99772 198.023 5.83031 197.245 5.74267C197.196 5.73824 197.149 5.73338 197.103 5.72857L197.103 5.72857C196.961 5.71369 196.822 5.69923 196.636 5.69923C196.395 5.69832 196.157 5.75023 195.939 5.85128C195.835 5.89751 195.743 5.94563 195.658 5.98984C195.577 6.03219 195.502 6.07097 195.431 6.10107L194.902 6.34362C194.197 6.68359 193.532 7.1 192.918 7.58533C192.596 7.82093 192.295 8.08376 192.018 8.3709C191.734 8.66785 191.503 9.01054 191.333 9.38454C191.589 9.3373 191.849 9.30587 192.109 9.29043C192.622 9.26738 193.135 9.34107 193.622 9.50764C192.967 9.49627 192.316 9.59039 191.692 9.78639C191.384 9.87397 191.084 9.98408 190.792 10.1158C190.502 10.2364 190.222 10.383 189.958 10.5539C189.695 10.7042 189.451 10.8866 189.233 11.0969C189.146 11.1879 189.077 11.2948 189.03 11.4118C188.968 11.5457 188.914 11.6939 188.859 11.8422L188.859 11.8426C188.648 12.4518 188.48 13.0747 188.355 13.707C188.096 14.9675 187.999 16.2557 188.065 17.5407C188.121 18.5757 188.391 19.5877 188.859 20.5129C189.305 19.9301 189.741 19.3327 190.161 18.7282C190.706 17.9511 191.209 17.1464 191.67 16.3171C191.904 15.8952 192.113 15.4531 192.324 15.0062C192.522 14.5864 192.722 14.1624 192.947 13.7468C193.171 13.308 193.435 12.89 193.734 12.4979C193.886 12.2935 194.065 12.1108 194.267 11.9549C194.464 11.7916 194.708 11.6941 194.964 11.6761C194.147 12.4001 193.513 14.3586 192.885 16.5525C192.377 18.3263 190.64 22.3809 189.567 22.4823C189.142 22.504 188.986 22.3012 188.7 21.8886L188.46 21.5627C188.042 20.9822 187.723 20.3363 187.517 19.6513C187.327 18.9807 187.213 18.291 187.176 17.5951V17.005C186.424 17.1257 185.686 17.3234 184.975 17.5951C184.272 17.8828 183.591 18.2203 182.936 18.6051C182.33 18.9702 181.667 19.2309 180.974 19.3762C180.271 19.4959 179.555 19.5191 178.845 19.4449C177.369 19.3617 175.9 19.2205 174.427 19.0395L169.999 18.5073L152.303 16.2954L143.456 15.1623L141.244 14.8763L141.106 14.8582H141.037C140.972 14.846 140.906 14.846 140.841 14.8582C140.722 14.8861 140.616 14.9536 140.54 15.0496C140.464 15.1457 140.423 15.2645 140.424 15.3868C140.478 15.5678 140.954 16.1651 142.793 16.5199C144.689 16.8819 146.474 17.1679 149.031 17.5263C150.539 17.7373 151.916 17.9558 153.489 18.2054C155.019 18.448 156.733 18.7201 158.933 19.0431C159.368 19.1068 159.802 19.168 160.226 19.2279L160.226 19.2279C162.988 19.6176 165.331 19.9483 164.696 20.4912C164.19 20.7126 163.697 20.9628 163.22 21.2405L162.991 21.3817C162.65 21.5917 162.313 21.8125 161.994 22.0515C160.268 23.3513 158.85 25.015 157.841 26.9242C157.581 27.4043 157.357 27.9028 157.17 28.4157C156.989 28.9334 156.851 29.4474 156.72 29.9651C156.529 30.6973 156.373 31.4332 156.218 32.1649L156.218 32.165C156.155 32.4607 156.092 32.7557 156.028 33.0495C155.928 33.5525 155.794 34.0483 155.629 34.5337C155.469 35.0188 155.288 35.5112 155.095 35.9818C154.337 37.9186 153.445 39.8192 152.509 41.6908C152.038 42.6284 151.555 43.5588 151.058 44.4747L150.96 44.6524C150.739 45.0505 150.516 45.4505 150.286 45.8286C150.229 45.9243 150.177 46.0002 150.122 46.0808L150.086 46.1327L149.854 46.4332C149.695 46.6323 149.532 46.8242 149.357 47.0088C149.016 47.3751 148.638 47.7062 148.229 47.9971L148.081 48.0912L148.005 48.1383C147.951 48.1673 147.901 48.2025 147.856 48.2433C147.76 48.3341 147.691 48.4492 147.656 48.5763L147.602 48.7646C147.533 49.0035 147.45 49.246 147.363 49.4886C147 50.4624 146.601 51.4254 146.169 52.3847C145.884 53.0113 145.576 53.6319 145.267 54.2557C144.642 55.517 144.01 56.7916 143.54 58.1552C143.178 59.1781 142.955 60.2446 142.876 61.3265C142.808 62.4139 142.907 63.5053 143.17 64.5629L143.235 64.9249H145.73C145.73 63.5312 145.404 62.4705 144.838 62.6804C144.573 62.7601 144.305 62.8325 144.026 62.894C144.28 62.6659 144.548 62.456 144.824 62.2532L144.889 62.2134C144.809 59.5852 146.423 55.5379 148.295 52.6273C149.54 50.7821 150.917 49.029 152.415 47.3817C153.219 46.5102 153.999 45.8371 154.808 45.1382C157.024 43.2245 159.463 41.1178 163.249 34.2152C163.979 32.7383 164.644 31.94 165.176 31.3028C166.122 30.1672 166.642 29.5431 166.343 26.5006C166.56 27.5871 166.917 28.6408 167.405 29.6357C167.866 30.374 168.538 30.8609 169.228 31.3612C169.624 31.6483 170.026 31.9397 170.398 32.2856L170.449 32.3327C171.552 33.0643 172.573 33.914 173.492 34.8668C174.442 35.7465 176.096 36.4416 177.336 36.3945C177.163 35.2215 177.15 34.0306 177.296 32.854C177.438 34.1951 177.668 35.5253 177.985 36.8362C178.148 37.5343 178.269 38.2415 178.348 38.954C178.351 39.0593 178.345 39.1646 178.33 39.2689C178.316 39.3519 178.298 39.4341 178.276 39.5151C178.276 39.5549 178.276 39.5875 178.254 39.6273C178.221 39.7468 178.181 39.8698 178.134 39.9893C178.088 40.1269 178.034 40.2645 177.971 40.402C177.724 40.9775 177.427 41.53 177.082 42.0528C177.076 42.0619 177.07 42.0712 177.064 42.0807L177.064 42.0811L177.064 42.0811C177.048 42.1055 177.032 42.1308 177.013 42.1542C176.934 42.2736 176.854 42.3786 176.785 42.4655C176.716 42.5524 176.683 42.5886 176.629 42.6465C176.621 42.6592 176.613 42.6713 176.604 42.6827C176.519 42.8045 176.466 42.9448 176.448 43.0918C176.442 43.1568 176.442 43.2222 176.448 43.2873V43.414V43.6674C176.458 43.8051 176.468 43.942 176.477 44.0785V44.0785V44.0786V44.0786V44.0787C176.488 44.2255 176.498 44.3718 176.509 44.5181V44.6883C176.509 44.7462 176.509 44.8765 176.538 44.9743C176.555 45.0291 176.553 45.0555 176.551 45.0776C176.55 45.095 176.548 45.1097 176.556 45.1335C176.665 46.3403 176.803 47.547 176.97 48.7537C177.342 51.4447 177.798 54.1188 178.337 56.776L178.54 57.7715L178.642 58.2675L178.696 58.5172L178.725 58.6548C178.747 58.7465 178.785 58.8335 178.838 58.9118L178.976 59.1001L179.07 59.2847C179.133 59.423 179.188 59.5644 179.237 59.7083C179.338 60.0088 179.422 60.3273 179.498 60.6495C179.608 61.1169 179.711 61.5914 179.815 62.0703C179.999 62.9155 180.185 63.7743 180.419 64.6317L180.51 64.9539H183.295C183.295 63.6217 183.031 62.275 182.207 62.4813C181.899 62.5791 181.565 62.6768 181.239 62.7565C181.533 62.532 181.816 62.3257 182.135 62.1229L182.196 62.094C181.108 56.4827 179.933 49.4596 179.657 47.4396C179.447 45.901 180.466 44.8548 181.137 44.1815C182.665 42.6861 184.307 41.3111 186.048 40.069L186.288 39.8879C187.013 39.3206 187.806 38.8463 188.649 38.4761C189.484 38.1262 190.337 37.8228 191.206 37.5674C192.066 37.3032 192.889 37.0389 193.745 36.7312C194.035 36.6269 194.325 36.5321 194.611 36.4385L194.611 36.4384C195.17 36.2559 195.715 36.0775 196.226 35.8406C196.99 35.4993 197.664 34.9835 198.192 34.3346C198.711 33.6718 199.089 32.9107 199.305 32.0974C199.519 31.2708 199.598 30.415 199.537 29.5633L199.508 29.1216L199.943 29.1723C200.005 29.1723 200.051 29.1843 200.098 29.1964L200.098 29.1964C200.114 29.2006 200.13 29.2048 200.147 29.2085C200.117 28.6608 199.994 28.1222 199.784 27.6156C199.524 26.9813 199.201 26.3591 198.872 25.7268L198.783 25.5558C198.391 24.8409 198.123 24.0648 197.992 23.2606C197.92 22.8388 197.933 22.407 198.028 21.9899C198.052 21.9015 198.081 21.8144 198.115 21.7293C196.937 22.475 196.81 23.4163 197.169 24.4661C197.388 24.9736 197.654 25.4407 197.911 25.8923C198.407 26.7644 198.87 27.5784 198.899 28.5134C198.758 28.3649 198.578 28.2583 198.38 28.2057C198.724 33.1594 196.263 34.4526 195.375 34.9195C195.326 34.9454 195.282 34.9686 195.243 34.9899C196.259 32.8345 194.725 30.4693 194.126 29.5442L194.126 29.5441L194.125 29.5438L194.125 29.5429C194.061 29.4446 194.008 29.3627 193.97 29.299C194.215 29.3282 194.457 29.3766 194.695 29.4438C194.695 29.4438 194.536 28.9044 192.497 26.888C190.961 25.3681 191.501 24.0322 192.402 21.801C192.511 21.5292 192.626 21.2441 192.744 20.9437C193.092 20.0739 193.347 19.1699 193.505 18.2467C193.549 17.9287 193.61 17.6134 193.687 17.3018C193.687 17.6276 193.687 17.9498 193.734 18.2684C193.753 18.5757 193.814 18.879 193.915 19.1698C193.964 19.294 194.035 19.4081 194.126 19.5065C194.149 19.5313 194.174 19.5541 194.202 19.5803L194.202 19.5803L194.202 19.5804C194.228 19.6037 194.256 19.6297 194.289 19.6622C194.337 19.7177 194.389 19.7698 194.445 19.8178C194.676 19.9924 194.933 20.1304 195.207 20.2269C195.785 20.4288 196.387 20.5577 196.998 20.6106C197.586 20.6794 198.181 20.6939 198.783 20.7048H198.877C199.502 20.7093 200.121 20.8144 200.712 21.0161C201.239 21.1938 201.789 21.2915 202.344 21.3057C203.516 21.4179 204.672 21.6521 205.794 22.0044C206.272 22.0188 206.751 21.9763 207.219 21.8777C207.553 21.8125 207.887 21.722 208.213 21.6243C208.938 21.3129 209.424 20.4839 208.438 20.5925C208.205 20.6104 207.974 20.643 207.745 20.6903C207.576 20.7237 207.405 20.7857 207.222 20.8524C207.049 20.9157 206.864 20.9831 206.657 21.0342C206.255 21.1284 205.835 21.1184 205.438 21.0052C205.092 20.8612 204.724 20.7755 204.35 20.7518C204.524 20.6499 204.719 20.5904 204.92 20.5781H205.5C205.839 20.6209 206.182 20.6062 206.516 20.5346C206.689 20.4857 206.865 20.391 207.054 20.2892C207.201 20.21 207.356 20.1264 207.524 20.0568C207.903 19.9003 208.307 19.8156 208.717 19.807H208.964C209.25 19.4087 209.497 18.9816 209.403 18.6051C209.29 18.4556 209.134 18.3434 208.957 18.2829C208.91 18.2663 208.817 18.242 208.695 18.2105C208.263 18.0979 207.474 17.8924 207.165 17.6095C206.962 17.3561 207.096 16.8855 208.05 16.6864ZM201.811 11.9078C201.707 11.9981 201.63 12.1146 201.586 12.2452C201.543 12.3757 201.535 12.5155 201.565 12.6499C201.597 13.0771 201.086 13.4102 200.477 13.4789C199.69 13.5658 199.272 13.1169 199.388 12.5811C199.595 11.6978 199.138 11.9874 198.837 12.3422C198.831 12.3491 198.823 12.354 198.814 12.356C198.805 12.3581 198.796 12.3572 198.787 12.3536C198.779 12.35 198.772 12.3438 198.767 12.3359C198.762 12.328 198.76 12.3188 198.761 12.3096C198.892 11.401 199.425 11.3648 199.66 11.3612C200.38 11.4143 201.093 11.5355 201.79 11.7232C201.807 11.7304 201.823 11.7423 201.834 11.7576C201.845 11.7729 201.852 11.7911 201.854 11.81C201.856 11.829 201.853 11.8481 201.845 11.8654C201.836 11.8826 201.824 11.8973 201.808 11.9078H201.811ZM194.67 44.6158C194.911 43.681 194.697 42.2006 194.496 40.8025C194.394 40.0946 194.295 39.4077 194.26 38.8236C193.074 38.9974 191.514 40.2898 191.079 40.6663C191.268 41.3468 191.442 41.9261 191.598 42.317C191.865 43.0232 192.033 43.7626 192.098 44.5145C191.832 44.6073 191.6 44.7775 191.431 45.0032C191.344 45.1207 191.296 45.2625 191.293 45.4087C191.29 45.6342 191.251 45.8579 191.177 46.0712C190.713 47.1572 188.961 48.0333 188.301 48.3591L188.239 48.388C188.052 48.4968 187.847 48.5727 187.633 48.6125C187.469 48.6191 187.304 48.6032 187.144 48.5654L187.028 48.5473C186.27 48.4061 185.679 48.388 185.272 48.7392C185.13 48.8621 185.015 49.0137 184.936 49.184C184.856 49.3544 184.814 49.5396 184.812 49.7275V49.8795C184.872 49.9705 184.94 50.0564 185.015 50.1366C185.076 50.2017 185.138 50.2633 185.203 50.3212L185.338 50.4407C185.607 50.6363 185.9 50.7992 186.208 50.9258C186.555 51.0615 186.923 51.1374 187.296 51.1502C188.092 51.1502 188.884 51.0406 189.65 50.8244L189.331 50.9511C188.334 51.4301 187.242 51.6777 186.136 51.6751C185.656 51.6942 185.182 51.568 184.775 51.3131C185.001 51.6771 185.293 51.9963 185.635 52.2544C185.734 52.3246 185.843 52.3806 185.958 52.4209C186.105 52.4574 186.26 52.4574 186.408 52.4209C186.801 52.3429 187.2 52.2957 187.601 52.2797C187.978 52.2786 188.354 52.2212 188.714 52.1096C189.065 51.9499 189.395 51.7481 189.697 51.5086C189.431 51.8042 189.127 52.0646 188.794 52.2833C188.432 52.4629 188.044 52.585 187.644 52.6453C187.275 52.7177 186.911 52.8182 186.556 52.9458C186.332 53.0295 186.091 53.0605 185.853 53.0363H185.809C186.028 53.151 186.267 53.2212 186.513 53.2427C186.762 53.2199 187.007 53.1601 187.238 53.0653L187.507 52.9712C188.024 52.8341 188.562 52.7912 189.095 52.8445C189.599 52.8445 190.053 52.5005 190.546 52.1204L190.637 52.048C190.945 51.8055 191.471 51.324 191.931 50.8679C192.006 50.7976 192.08 50.7282 192.151 50.6609L192.151 50.6608C192.377 50.4471 192.581 50.2542 192.733 50.1221C192.939 49.9418 193.129 49.7849 193.304 49.6416L193.304 49.6416L193.304 49.6415C193.357 49.5978 193.408 49.5554 193.458 49.5139C194.043 49.1107 194.537 48.5904 194.909 47.9862C195.184 47.5029 195.356 46.9679 195.413 46.4151C195.414 46.2436 195.379 46.0739 195.311 45.9167C195.242 45.7596 195.141 45.6186 195.014 45.5028C194.879 45.4026 194.775 45.2661 194.714 45.1091C194.653 44.9521 194.637 44.7811 194.67 44.6158ZM184.565 62.4596C184.493 62.3528 184.386 62.2733 184.263 62.234C184.14 62.1946 184.008 62.1975 183.887 62.2424L183.524 62.3799C183.748 62.6568 183.92 62.9721 184.032 63.3103C184.181 63.8387 184.264 64.3834 184.278 64.9321H185.109C185.122 64.272 185.021 63.6145 184.812 62.9881C184.748 62.8038 184.665 62.6267 184.565 62.4596ZM185.406 62.5103C185.741 63.2757 185.917 64.1007 185.925 64.9358H186.36C186.32 63.0352 185.831 62.3799 185.406 62.5103ZM173.564 62.8505C173.369 62.748 173.154 62.6871 172.933 62.6715C172.713 62.6559 172.492 62.6861 172.284 62.76C171.97 62.8607 171.647 62.9287 171.319 62.9628H171.283L171 62.9809C169.977 62.9142 169.07 57.7207 168.81 56.2333L168.787 56.1026C168.628 55.1903 168.062 51.1321 168.689 49.8723C168.896 49.4283 169.458 48.9084 170.111 48.3035C171.22 47.2758 172.595 46.0031 172.944 44.4421C173.291 42.1439 173.138 39.7982 172.498 37.5638C172.193 36.6044 171.185 35.3917 169.643 34.3527C168.946 34.3666 168.257 34.5001 167.605 34.7473C167.481 34.7926 167.36 34.8458 167.242 34.9066L167.126 34.9718L167.036 35.0369L166.959 35.0984C167.089 35.2722 167.251 35.462 167.442 35.6859L167.478 35.7284C168.186 36.4771 168.773 37.3322 169.215 38.2625C169.654 39.754 169.313 43.823 169.31 43.8484C168.926 45.5902 167.922 47.1338 166.484 48.1925C166.385 48.2561 166.302 48.3419 166.243 48.4432C166.183 48.5444 166.148 48.6581 166.14 48.7754C165.897 55.4618 166.967 60.6567 169.404 64.6606L169.509 64.9104H174.271C174.29 63.466 173.956 63.0967 173.564 62.8505ZM175.117 64.9358C175.138 64.072 174.855 63.2281 174.319 62.5501C174.979 62.7637 175.534 63.3502 175.577 64.9358H175.117ZM148.476 63.0677C148.403 62.8945 148.276 62.7497 148.113 62.6551C148.041 62.6246 147.962 62.6145 147.885 62.6261C148.182 63.3588 148.335 64.1418 148.335 64.9321H148.799L148.759 64.1321C148.732 63.7627 148.636 63.4017 148.476 63.0677ZM146.59 63.4153C146.508 63.1024 146.368 62.8076 146.177 62.5465C146.826 62.4016 147.457 63.437 147.37 64.9321H146.703C146.722 64.4239 146.685 63.9151 146.59 63.4153Z"
    fill="#D08E39" />
  <path fill-rule="evenodd" clip-rule="evenodd"
    d="M210.759 16.6721C210.644 16.3958 210.453 16.1574 210.208 15.9843L209.921 15.7816L209.653 15.5788L208.565 14.7462L208.507 14.7028L208.507 14.7027L208.507 14.7026C208.34 14.5773 208.179 14.4569 207.981 14.3335C207.914 14.2876 207.844 14.2477 207.771 14.2141L207.618 14.1561C207.524 14.1163 207.43 14.0692 207.335 14.0186C206.975 13.8303 206.647 13.5859 206.363 13.2945C206.363 13.288 206.362 13.28 206.36 13.2703C206.355 13.2421 206.347 13.1988 206.363 13.1316C206.376 13.0805 206.391 13.0409 206.409 12.9958C206.423 12.9612 206.438 12.9234 206.454 12.8746C206.49 12.7573 206.507 12.6352 206.505 12.5126V12.2773C206.509 12.2383 206.52 12.2003 206.537 12.165C206.577 12.0969 206.64 12.0454 206.715 12.0202L207.118 11.9189L207.234 11.7053C207.237 11.6897 207.237 11.6738 207.234 11.6582L206.802 11.3722C206.54 11.4842 206.268 11.5715 205.99 11.6329C205.812 11.6815 205.63 11.7094 205.446 11.7161C205.098 11.6822 204.539 10.8716 204.123 10.2707C203.918 9.9738 203.749 9.72809 203.657 9.65266C203.481 9.4509 203.261 9.29213 203.014 9.18857C202.767 9.08502 202.5 9.03944 202.232 9.05534C202.778 9.29158 203.217 9.72093 203.465 10.2608C203.774 10.9632 204.967 13.1135 206.026 14.0077C206.316 14.2738 206.639 14.5014 206.987 14.6847C207.096 14.7426 207.208 14.7969 207.324 14.8476L207.495 14.9164L207.578 14.967C207.752 15.0793 207.941 15.2168 208.119 15.3508L209.207 16.1798L209.49 16.3898L209.762 16.5853L209.82 16.6323C209.676 16.6847 209.521 16.6984 209.37 16.6721C208.928 16.6228 208.481 16.6362 208.043 16.712C207.092 16.9111 206.954 17.3817 207.187 17.617C207.495 17.8998 208.285 18.1053 208.717 18.2179C208.838 18.2495 208.931 18.2737 208.978 18.2903C209.156 18.3508 209.311 18.4631 209.424 18.6125C209.519 18.9746 209.272 19.4162 208.986 19.8144H208.739C208.329 19.8231 207.924 19.9078 207.546 20.0642C207.377 20.1339 207.223 20.2174 207.076 20.2966L207.076 20.2966C206.887 20.3985 206.711 20.4932 206.537 20.5421C206.204 20.6136 205.86 20.6283 205.522 20.5855C205.463 20.5855 205.403 20.5832 205.343 20.5808C205.218 20.576 205.088 20.5709 204.941 20.5855C204.741 20.5978 204.545 20.6574 204.372 20.7593C204.746 20.783 205.114 20.8686 205.46 21.0127C205.857 21.1259 206.277 21.1358 206.679 21.0417C206.881 20.9912 207.063 20.9249 207.235 20.8623C207.42 20.7947 207.594 20.7316 207.767 20.6977C207.995 20.6505 208.227 20.6178 208.46 20.6C209.446 20.4914 208.96 21.324 208.235 21.6317C207.908 21.7295 207.575 21.82 207.241 21.8851C206.773 21.9838 206.294 22.0263 205.816 22.0119C204.693 21.6595 203.537 21.4254 202.366 21.3132C201.811 21.2989 201.261 21.2013 200.734 21.0236C200.143 20.8219 199.523 20.7168 198.899 20.7122H198.805C198.202 20.7122 197.608 20.6869 197.02 20.6181C196.409 20.5651 195.807 20.4362 195.228 20.2344C194.955 20.1378 194.698 19.9999 194.467 19.8253C194.411 19.7772 194.359 19.7252 194.311 19.6696C194.278 19.6371 194.25 19.6111 194.224 19.5877C194.195 19.5616 194.17 19.5388 194.147 19.514C194.057 19.4156 193.986 19.3014 193.937 19.1773C193.836 18.8865 193.775 18.5832 193.756 18.2759C193.728 18.0302 193.721 17.7824 193.715 17.5324V17.5324L193.715 17.5319C193.713 17.4579 193.711 17.3837 193.709 17.3093C193.631 17.6208 193.571 17.9362 193.527 18.2541C193.369 19.1774 193.114 20.0814 192.766 20.9512C192.652 21.2406 192.54 21.5159 192.433 21.7788L192.433 21.78L192.432 21.7826L192.432 21.7831C191.521 24.0296 190.977 25.3698 192.519 26.8954C194.557 28.9119 194.717 29.4513 194.717 29.4513C194.479 29.3841 194.237 29.3357 193.991 29.3065C194.03 29.3703 194.083 29.4526 194.147 29.5513L194.147 29.5515L194.147 29.5516C194.747 30.4767 196.28 32.8419 195.265 34.9973C195.305 34.9746 195.352 34.9494 195.405 34.9214C196.291 34.4497 198.737 33.147 198.402 28.2132C198.6 28.2658 198.78 28.3723 198.921 28.5209C198.892 27.5859 198.429 26.7719 197.932 25.8997C197.675 25.4482 197.409 24.9811 197.19 24.4736C196.828 23.4237 196.958 22.4825 198.137 21.7367C198.103 21.8219 198.074 21.9089 198.05 21.9974C197.955 22.4145 197.942 22.8462 198.014 23.268C198.145 24.0723 198.413 24.8484 198.805 25.5632L198.885 25.7174C199.221 26.3555 199.55 26.9831 199.806 27.6231C200.016 28.1296 200.139 28.6683 200.168 29.216C200.131 29.216 200.098 29.2079 200.061 29.1989C200.032 29.1919 200.001 29.1845 199.965 29.1798L199.53 29.1291L199.559 29.5707C199.62 30.4224 199.541 31.2783 199.327 32.1048C199.111 32.9182 198.732 33.6793 198.213 34.3421C197.685 34.9909 197.012 35.5068 196.247 35.8481C195.699 36.1049 195.111 36.2962 194.51 36.4916L194.51 36.4917L194.51 36.4917L194.509 36.4918C194.263 36.5718 194.015 36.6524 193.767 36.7386C192.911 37.0355 192.098 37.3106 191.228 37.5749C190.359 37.8303 189.505 38.1336 188.671 38.4835C187.828 38.8538 187.034 39.3281 186.309 39.8954L186.07 40.0764C184.329 41.3186 182.687 42.6935 181.159 44.1889C180.488 44.855 179.469 45.9012 179.679 47.447C179.959 49.4671 181.13 56.4974 182.218 62.1014L182.156 62.1304C181.837 62.3331 181.554 62.5395 181.261 62.7639C181.587 62.6843 181.921 62.5865 182.229 62.4888C183.067 62.2824 183.317 63.6291 183.317 64.9614H184.286C184.271 64.4126 184.188 63.8679 184.039 63.3395C183.928 63.0013 183.755 62.686 183.531 62.4091L183.894 62.2716C184.015 62.2267 184.148 62.2238 184.271 62.2632C184.394 62.3026 184.5 62.382 184.572 62.4888C184.674 62.6557 184.758 62.8329 184.822 63.0173C185.032 63.6437 185.132 64.3012 185.12 64.9614H185.925C185.919 64.128 185.745 63.3043 185.414 62.5395C185.838 62.4091 186.328 63.0644 186.36 64.9614H187.234L187.202 64.498C187.173 63.9408 187.051 63.3925 186.839 62.8761C186.721 62.5937 186.553 62.3349 186.342 62.1123C186.213 61.9829 186.059 61.8818 185.889 61.8154C185.693 61.7437 185.48 61.7348 185.279 61.7901H185.258L185.04 61.877C184.952 61.7734 184.849 61.6832 184.735 61.6091C184.606 61.525 184.458 61.4723 184.304 61.4553C184.151 61.4384 183.995 61.4575 183.85 61.5113L183.749 61.5476C183.58 60.3968 183.356 59.2553 183.133 58.1138C183.043 57.6573 182.953 57.2007 182.867 56.7436C182.545 54.9951 182.24 53.2429 181.972 51.4908C181.837 50.6147 181.71 49.735 181.609 48.8625C181.547 48.4444 181.528 48.0211 181.551 47.5991C181.596 47.1871 181.696 46.783 181.848 46.3972C182.153 45.5943 182.564 44.8357 183.071 44.1418C183.578 43.4366 184.145 42.7753 184.764 42.1652C185.385 41.5472 186.052 40.9771 186.759 40.4602C187.438 39.9246 188.183 39.4781 188.975 39.1316C189.494 38.9035 190.038 38.7116 190.593 38.527C190.731 39.2908 190.912 40.0257 191.093 40.6701C191.646 40.1909 192.239 39.7608 192.867 39.385L193.175 39.2184L193.259 39.1786C193.364 39.1243 193.469 39.0736 193.578 39.0302C193.679 38.9882 193.782 38.9519 193.886 38.9216L193.966 38.8963C194.066 38.8668 194.168 38.8439 194.271 38.8275C194.306 39.4198 194.405 40.1143 194.507 40.8281L194.507 40.8281C194.706 42.2257 194.916 43.6971 194.681 44.6197C194.64 44.7835 194.646 44.9556 194.7 45.1158C194.753 45.2761 194.851 45.4179 194.982 45.5247C195.108 45.6406 195.209 45.7816 195.278 45.9387C195.347 46.0958 195.382 46.2656 195.381 46.437C195.323 46.9899 195.151 47.5248 194.876 48.0082C194.504 48.6124 194.01 49.1327 193.426 49.5359L193.377 49.5733C193.163 49.7394 192.936 49.9151 192.7 50.1441C192.501 50.3178 192.211 50.593 191.899 50.8898C191.438 51.3315 190.912 51.8274 190.604 52.07L190.513 52.1424L190.449 52.1909C189.994 52.536 189.558 52.8664 189.062 52.8664C188.529 52.8131 187.991 52.8561 187.474 52.9931L187.205 53.0872C186.974 53.182 186.729 53.2418 186.48 53.2646C186.234 53.2431 185.995 53.173 185.776 53.0583H185.82C186.058 53.0825 186.299 53.0515 186.523 52.9678C186.878 52.8402 187.242 52.7397 187.612 52.6673C188.011 52.607 188.399 52.4848 188.761 52.3053C189.094 52.0865 189.398 51.8262 189.664 51.5306C189.362 51.77 189.032 51.9718 188.681 52.1315C188.321 52.2432 187.946 52.3005 187.568 52.3017C187.167 52.3177 186.768 52.3649 186.375 52.4429C186.227 52.4793 186.073 52.4793 185.925 52.4429C185.81 52.4026 185.701 52.3465 185.602 52.2763C185.26 52.0182 184.968 51.6991 184.743 51.3351C185.149 51.5899 185.623 51.7161 186.103 51.6971C187.209 51.6996 188.301 51.4521 189.298 50.9731L189.617 50.8464C188.851 51.0625 188.059 51.1722 187.263 51.1722C186.891 51.1594 186.523 51.0835 186.175 50.9477C185.867 50.8212 185.575 50.6583 185.305 50.4626L185.171 50.3432C185.105 50.2852 185.044 50.2237 184.982 50.1585C184.907 50.0784 184.84 49.9925 184.779 49.9015L184.271 49.6698V50.2454C184.273 50.3839 184.306 50.5201 184.369 50.6436L183.93 50.5278V50.9984C183.93 51.6066 184.267 52.0519 184.735 52.4972H184.51L184.63 52.9207C184.793 53.4818 185.718 53.9597 186.444 54.0068H186.505C186.826 53.9862 187.141 53.9116 187.437 53.7859L187.68 53.7027C188.12 53.5915 188.575 53.5596 189.026 53.6085C189.813 53.6085 190.408 53.1488 190.938 52.7325L191.032 52.6601C191.366 52.3994 191.881 51.9107 192.377 51.4365C192.678 51.1468 192.961 50.8789 193.157 50.7124C193.415 50.4844 193.651 50.2997 193.883 50.126C194.533 49.6685 195.081 49.0818 195.493 48.4028C196.193 47.219 196.171 45.923 196.15 44.6668V43.5047C196.222 42.3035 196.431 41.1145 196.773 39.9606C197.159 38.6879 197.37 37.3691 197.401 36.0399C197.927 35.7072 198.397 35.2916 198.79 34.8091C199.373 34.0639 199.798 33.2078 200.038 32.2931C200.224 31.5634 200.312 30.8123 200.299 30.0595L200.832 30.4432L200.886 29.7916C200.938 28.9571 200.792 28.1223 200.458 27.3552C200.149 26.6286 199.795 25.9214 199.399 25.2374C199.033 24.5922 198.766 23.8953 198.609 23.1703C198.529 22.8795 198.512 22.575 198.56 22.2772C198.607 21.9795 198.718 21.6952 198.884 21.4435H198.91C199.448 21.4505 199.982 21.5434 200.491 21.7186C200.785 21.8246 201.089 21.9022 201.398 21.9503C201.629 21.9879 201.855 22.0056 202.071 22.0226L202.071 22.0226L202.071 22.0226C202.147 22.0285 202.221 22.0343 202.294 22.0408C203.433 22.1523 204.558 22.3829 205.649 22.7287H205.689H205.728C206.28 22.7481 206.832 22.7007 207.372 22.5875C207.9 22.4836 208.42 22.3421 208.928 22.1639L208.986 22.1422L209.033 22.1024C209.428 21.7746 209.747 21.3641 209.966 20.9C210.186 20.4359 210.3 19.9294 210.302 19.4162C210.304 19.2867 210.297 19.1573 210.28 19.0289L210.23 18.7067C210.238 18.6851 210.25 18.6653 210.266 18.6487C210.35 18.5449 210.424 18.4334 210.487 18.3157C210.612 18.088 210.704 17.8444 210.763 17.5917C210.79 17.4638 210.809 17.3345 210.821 17.2043C210.845 17.0246 210.824 16.8416 210.759 16.6721ZM184.714 50.2889C184.711 50.2769 184.711 50.2646 184.714 50.2527V50.2889ZM198.812 12.3425C199.113 11.9805 199.57 11.6981 199.363 12.5814C199.254 13.1136 199.671 13.5661 200.451 13.4792C201.075 13.4104 201.586 13.0774 201.539 12.6502C201.51 12.5158 201.517 12.376 201.561 12.2454C201.604 12.1149 201.682 11.9984 201.786 11.9081C201.801 11.8957 201.813 11.8791 201.82 11.8604C201.826 11.8416 201.827 11.8214 201.823 11.802C201.818 11.7827 201.808 11.7651 201.794 11.7511C201.78 11.7372 201.762 11.7276 201.742 11.7234C201.046 11.5358 200.333 11.4146 199.613 11.3614C199.378 11.3614 198.844 11.4013 198.714 12.3099C198.709 12.3229 198.71 12.337 198.717 12.3492C198.723 12.3615 198.733 12.3707 198.746 12.3751C198.759 12.3794 198.774 12.3784 198.786 12.3723C198.798 12.3662 198.807 12.3555 198.812 12.3425ZM188.482 21.5666C188.064 20.987 187.746 20.3423 187.539 19.6588C187.346 18.9825 187.229 18.2867 187.191 17.5845V16.9944C187.188 16.5109 187.209 16.0276 187.256 15.5463C187.33 14.8704 187.443 14.1995 187.597 13.5371C187.75 12.8741 187.947 12.2222 188.188 11.5859C188.253 11.423 188.319 11.2637 188.402 11.1008C188.445 11.0095 188.493 10.9212 188.547 10.8365C188.611 10.7522 188.68 10.6723 188.754 10.5976C189.019 10.3464 189.318 10.1343 189.643 9.96766C190.181 9.68897 190.758 9.49366 191.355 9.38843C191.611 9.34118 191.87 9.30974 192.131 9.2943C192.644 9.27126 193.157 9.34495 193.643 9.51151C192.989 9.50014 192.338 9.59428 191.714 9.79027C191.406 9.87786 191.105 9.98796 190.814 10.1197C190.523 10.2403 190.244 10.3869 189.98 10.5577C189.717 10.7081 189.473 10.8905 189.255 11.1008C189.167 11.1918 189.098 11.2987 189.051 11.4157C188.99 11.5495 188.935 11.6978 188.881 11.8461L188.881 11.8465C188.67 12.4557 188.502 13.0786 188.377 13.7109C188.118 14.9714 188.02 16.2596 188.087 17.5446C188.142 18.5795 188.413 19.5916 188.881 20.5168C189.327 19.9339 189.762 19.3366 190.183 18.732C190.728 17.955 191.231 17.1503 191.692 16.321C191.926 15.8991 192.134 15.4571 192.345 15.0101L192.345 15.01L192.345 15.0099C192.544 14.5902 192.744 14.1662 192.969 13.7507C193.193 13.3118 193.457 12.8939 193.756 12.5018C193.908 12.2974 194.087 12.1147 194.289 11.9587C194.486 11.7955 194.73 11.698 194.985 11.68C194.169 12.4113 193.538 14.3625 192.907 16.5563C192.399 18.3302 190.676 22.3848 189.588 22.4861C189.164 22.5079 189.008 22.3051 188.721 21.8924L188.482 21.5666ZM154.986 19.3728L159.393 20.0968L160.481 20.2706C160.602 20.2911 160.723 20.31 160.844 20.3289L160.844 20.3289C161.086 20.3667 161.328 20.4045 161.569 20.4552C161.889 20.5175 162.193 20.6404 162.465 20.8172C162.681 20.9781 162.861 21.1814 162.995 21.4146L163.223 21.2734C163.701 20.9957 164.194 20.7455 164.7 20.524C165.337 19.9607 162.917 19.6269 160.11 19.2396L160.11 19.2396C159.724 19.1863 159.33 19.132 158.936 19.076C156.577 18.7294 154.776 18.4457 153.162 18.1915C151.724 17.9651 150.436 17.7621 149.035 17.5591C146.496 17.1971 144.682 16.9147 142.796 16.5527C140.957 16.1907 140.482 15.6006 140.428 15.4196C140.424 15.4448 140.424 15.4704 140.428 15.4956C140.547 16.0712 141.744 17.0993 143.989 17.5048L146.187 17.8668L154.986 19.3728ZM177.336 36.3838C177.163 35.2108 177.15 34.0199 177.296 32.8433C177.45 34.1926 177.694 35.5302 178.025 36.8472C178.188 37.5454 178.309 38.2526 178.388 38.965C178.391 39.0703 178.385 39.1756 178.37 39.28C178.356 39.3629 178.338 39.4451 178.316 39.5261C178.294 39.5659 178.294 39.5985 178.294 39.6383C178.261 39.747 178.221 39.87 178.174 40.0004C178.128 40.1379 178.074 40.2755 178.011 40.4131C177.764 40.9886 177.467 41.541 177.122 42.0639C177.116 42.073 177.11 42.0825 177.104 42.0921C177.088 42.1166 177.072 42.1418 177.053 42.1652C176.974 42.2847 176.876 42.415 176.825 42.4765C176.774 42.5381 176.723 42.5996 176.669 42.6576C176.661 42.6702 176.653 42.6823 176.643 42.6938C176.559 42.8155 176.506 42.9559 176.488 43.1028C176.482 43.1679 176.482 43.2333 176.488 43.2983V43.425V43.6784C176.498 43.8162 176.508 43.9531 176.517 44.0896C176.528 44.2365 176.538 44.3828 176.549 44.5292C176.549 44.5486 176.548 44.5636 176.548 44.5784C176.546 44.6078 176.544 44.6368 176.549 44.6993C176.552 44.7365 176.557 44.7736 176.562 44.8109C176.57 44.8683 176.578 44.9261 176.578 44.9853C175.195 46.9685 173.539 48.7477 171.66 50.2707L171.562 50.3431C171.065 50.6642 170.647 51.0937 170.34 51.5993C170.145 52.1028 170.07 52.644 170.118 53.1813C170.166 56.2361 170.642 59.2691 171.533 62.1919C171.726 62.1588 171.918 62.1153 172.106 62.0616L172.287 62.0109C172.91 61.7672 173.583 61.6849 174.246 61.772C174.961 61.9421 176.183 62.4851 176.292 64.4762L176.31 64.9324H175.584C175.541 63.3503 174.986 62.7747 174.315 62.5503C174.855 63.2258 175.141 64.0685 175.124 64.9324H174.297C174.297 63.4662 173.952 63.0969 173.571 62.8508C173.376 62.7482 173.161 62.6873 172.941 62.6717C172.72 62.6561 172.499 62.6863 172.291 62.7603C171.977 62.8609 171.654 62.9289 171.326 62.963H171.29L171.007 62.9811C169.98 62.9212 169.07 57.686 168.814 56.2162C168.807 56.1755 168.801 56.1376 168.795 56.1028C168.635 55.1905 168.066 51.1323 168.697 49.8725C168.903 49.4332 169.46 48.9175 170.11 48.3167C171.221 47.2888 172.601 46.0119 172.951 44.4423C173.298 42.1441 173.146 39.7984 172.505 37.564C172.19 36.6047 171.192 35.381 169.651 34.3529C168.954 34.3668 168.264 34.5003 167.612 34.7475C167.488 34.7928 167.367 34.846 167.25 34.9068L167.133 34.972C167.101 34.9911 167.071 35.0129 167.043 35.0371L166.967 35.0987C165.563 36.2354 164.482 37.6943 163.438 39.1098C162.458 40.5418 161.321 41.8594 160.046 43.0377C159.321 43.6857 158.621 44.2323 157.87 44.8079C156.048 46.1615 154.349 47.6721 152.792 49.3223C150.558 51.6066 146.84 56.1933 146.543 61.6634C146.822 61.631 147.103 61.7075 147.326 61.8769C147.355 61.8986 147.383 61.9251 147.409 61.951C147.423 61.9641 147.436 61.977 147.45 61.9892C147.566 61.943 147.688 61.9114 147.812 61.8951C148.01 61.8773 148.209 61.9071 148.393 61.9819C148.714 62.1404 148.97 62.4052 149.118 62.7313C149.371 63.2814 149.495 63.8819 149.481 64.4871V64.9251H148.773L148.734 64.1251C148.712 63.7567 148.62 63.3957 148.465 63.0607C148.392 62.8875 148.265 62.7427 148.102 62.648C148.03 62.6175 147.951 62.6075 147.874 62.6191C148.171 63.3518 148.324 64.1347 148.324 64.9251H147.373C147.461 63.43 146.829 62.4055 146.18 62.5394C146.371 62.801 146.511 63.0956 146.594 63.4083C146.688 63.9081 146.726 64.4169 146.706 64.9251H145.73C145.734 63.5314 145.404 62.4706 144.838 62.6806C144.573 62.7603 144.305 62.8327 144.026 62.8942C144.28 62.6661 144.548 62.4562 144.824 62.2534L144.889 62.2136C144.809 59.5854 146.423 55.5236 148.295 52.6275C149.54 50.7785 150.917 49.0218 152.415 47.371C153.22 46.4976 154 45.8227 154.81 45.122C157.026 43.2059 159.464 41.0964 163.249 34.2045C163.977 32.7372 164.64 31.9408 165.171 31.3043C166.12 30.1646 166.643 29.5375 166.343 26.49C166.56 27.5764 166.917 28.6302 167.405 29.625C167.866 30.3633 168.538 30.8503 169.228 31.3505C169.624 31.6376 170.026 31.9291 170.398 32.275L170.449 32.322C171.552 33.0536 172.573 33.9034 173.492 34.8561C174.435 35.7358 176.096 36.4309 177.336 36.3838Z"
    fill="#002522" />
</svg>