<svg width="234" height="58" viewBox="0 0 234 58" fill="none" xmlns="http://www.w3.org/2000/svg">
  <g clip-path="url(#clip0_723_15724)">
    <path
      d="M93.9045 58.0228C92.8659 58.0772 91.8249 58.0772 90.7863 58.0228V51.7167C91.4783 51.7645 92.1729 51.7645 92.865 51.7167C94.0779 51.791 95.2871 51.5214 96.3458 50.9404C96.7687 50.6435 97.1271 50.2683 97.4009 49.8363C97.6746 49.4043 97.8581 48.9239 97.9408 48.4227L98.086 47.7403C98.1154 47.5058 98.1154 47.2688 98.086 47.0344L87.7407 17.505H96.8291L103.283 40.6109H103.428L109.881 17.505H118.607L108.165 47.7403C107.311 50.8356 105.517 53.6077 103.017 55.6932C100.322 57.4173 97.1217 58.2356 93.9045 58.0228ZM134.294 22.7286C133.459 22.712 132.629 22.862 131.856 23.1695C131.083 23.4771 130.383 23.9356 129.798 24.5168C128.581 25.7613 127.861 27.3887 127.768 29.105H140.675C140.679 27.3566 139.996 25.6729 138.766 24.3991C138.174 23.8486 137.47 23.4241 136.7 23.1527C135.931 22.8813 135.111 22.7689 134.294 22.8227V22.7286ZM140.772 37.9285H148.362C148.162 39.3433 147.661 40.7019 146.891 41.9174C146.121 43.1329 145.099 44.1785 143.89 44.9874C141.134 46.8204 137.847 47.7441 134.512 47.6227C132.492 47.7265 130.473 47.4181 128.583 46.717C126.693 46.016 124.975 44.9379 123.538 43.5521C120.753 40.4727 119.329 36.4479 119.574 32.3521C119.347 28.2302 120.768 24.1829 123.538 21.058C124.888 19.6336 126.541 18.5142 128.383 17.7785C130.224 17.0427 132.209 16.7084 134.197 16.7992C136.142 16.7099 138.085 17.0223 139.897 17.7157C141.709 18.4092 143.35 19.4679 144.712 20.8226C147.424 23.7729 148.831 27.6452 148.627 31.5991V33.9521H127.696V34.4462C127.611 36.3373 128.287 38.1859 129.581 39.5992C130.241 40.2499 131.034 40.7595 131.907 41.0958C132.781 41.432 133.718 41.5875 134.657 41.5522C136.032 41.591 137.39 41.2481 138.573 40.5638C139.583 39.9864 140.359 39.0896 140.772 38.0228V37.9285ZM164.629 41.6227C166.319 41.6728 167.969 41.1206 169.27 40.0698C169.88 39.6035 170.373 39.0064 170.708 38.3249C171.043 37.6435 171.213 36.8959 171.203 36.1403V33.9756L164.798 34.3756C163.511 34.4071 162.261 34.7994 161.197 35.5051C160.807 35.8186 160.492 36.212 160.277 36.6574C160.061 37.1028 159.95 37.5891 159.95 38.0815C159.95 38.5739 160.061 39.0601 160.277 39.5056C160.492 39.951 160.807 40.3446 161.197 40.658C162.186 41.3768 163.395 41.7497 164.629 41.7167V41.6227ZM161.922 47.4345C159.268 47.5197 156.68 46.6291 154.67 44.9403C153.734 44.1321 152.991 43.1339 152.494 42.0159C151.997 40.8979 151.758 39.6874 151.794 38.4697C151.742 37.2575 151.992 36.0511 152.522 34.9532C153.052 33.8553 153.848 32.8983 154.84 32.1638C157.431 30.4602 160.487 29.5506 163.614 29.5521L171.252 29.105V27.152C171.284 26.5522 171.176 25.9531 170.938 25.3991C170.699 24.8451 170.336 24.3505 169.874 23.9521C168.822 23.1343 167.496 22.7237 166.151 22.7992C164.835 22.7436 163.534 23.0891 162.429 23.7873C161.975 24.1015 161.589 24.5005 161.295 24.9609C161 25.4214 160.802 25.9342 160.713 26.4697H153.003C153.034 25.0856 153.396 23.7277 154.059 22.5027C154.721 21.2778 155.667 20.2194 156.821 19.4109C159.644 17.4856 163.049 16.5407 166.49 16.7285C169.835 16.5516 173.141 17.5077 175.844 19.4345C176.956 20.261 177.853 21.3306 178.462 22.5569C179.071 23.7831 179.375 25.1316 179.349 26.4933V46.7992H171.373V42.5404H171.203C170.347 44.1077 169.024 45.3869 167.408 46.2109C165.723 47.0931 163.835 47.5463 161.922 47.5286V47.4345ZM184.691 46.9639V17.505H192.667V22.8227H192.836C193.251 21.157 194.178 19.6544 195.495 18.5168C196.791 17.5148 198.409 16.9899 200.064 17.0344C200.88 17.0258 201.694 17.1288 202.481 17.3403V24.3991C201.522 24.0575 200.504 23.8977 199.483 23.9285C198.597 23.8711 197.709 23.9965 196.875 24.2966C196.042 24.5966 195.284 25.0647 194.649 25.6698C193.451 27.0054 192.843 28.7473 192.957 30.5169V46.9875L184.691 46.9639ZM205.816 46.9639V17.505H213.793V22.7756H213.962C214.697 21.0172 215.961 19.5162 217.588 18.4697C219.353 17.4226 221.395 16.8994 223.461 16.9639C224.898 16.8736 226.338 17.0876 227.682 17.5913C229.025 18.095 230.241 18.8764 231.244 19.8815C233.197 22.1533 234.183 25.0661 234 28.0228V47.058H225.733V29.6933C225.838 28.076 225.33 26.4775 224.307 25.1992C223.775 24.6564 223.127 24.2338 222.408 23.9614C221.69 23.689 220.919 23.5734 220.15 23.6226C219.324 23.5939 218.501 23.7388 217.738 24.0474C216.974 24.356 216.288 24.821 215.726 25.4109C214.594 26.7249 214.008 28.4034 214.083 30.1168V47.058L205.816 46.9639Z"
      fill="#CCD3D3" />
    <path
      d="M29.0053 56.4706C45.0244 56.4706 58.0105 43.8292 58.0105 28.2353C58.0105 12.6414 45.0244 0 29.0053 0C12.9861 0 0 12.6414 0 28.2353C0 43.8292 12.9861 56.4706 29.0053 56.4706Z"
      fill="#CCD3D3" />
    <path fill-rule="evenodd" clip-rule="evenodd" d="M27.313 16.1885H30.3102V41.6944H27.313V16.1885Z" fill="#33514E" />
    <path fill-rule="evenodd" clip-rule="evenodd"
      d="M25.6219 28.1175V25.0823C24.1424 24.3848 22.9501 23.2184 22.2408 21.7748C21.5316 20.3311 21.3471 18.6957 21.718 17.1367C22.0889 15.5776 22.993 14.1876 24.282 13.1944C25.571 12.2012 27.1684 11.6639 28.8123 11.6705C29.8024 11.6198 30.7928 11.764 31.7243 12.0944C32.6558 12.4249 33.5094 12.9349 34.2337 13.5939C34.9581 14.2529 35.5384 15.0474 35.94 15.9298C36.3417 16.8121 36.5563 17.7643 36.5712 18.7293C36.555 19.7773 36.3166 20.8107 35.8704 21.7646L34.5893 17.7176L32.148 18.541L34.4199 26.9646L43.2424 23.8116L42.179 21.3411L38.8918 22.4469C39.4222 21.2951 39.6623 20.0367 39.5925 18.7763C39.5773 17.4397 39.2876 16.1196 38.7404 14.8936C38.1933 13.6676 37.3997 12.5606 36.4065 11.6376C35.4133 10.7146 34.2404 9.99426 32.957 9.51905C31.6736 9.04384 30.3056 8.82335 28.9333 8.8705C26.5244 8.88328 24.1981 9.72758 22.3686 11.2532C20.5391 12.7787 19.325 14.8866 18.9421 17.2019C18.5592 19.5171 19.0325 21.8895 20.2778 23.8969C21.5231 25.9043 23.4594 27.4166 25.7426 28.1646L25.6219 28.1175Z"
      fill="#33514E" />
    <path fill-rule="evenodd" clip-rule="evenodd"
      d="M32.1473 29.6235V32.6587C33.6288 33.3571 34.822 34.5254 35.531 35.9715C36.24 37.4175 36.4226 39.0554 36.0485 40.6159C35.6745 42.1763 34.7662 43.5664 33.473 44.5577C32.1798 45.549 30.5787 46.0826 28.9327 46.0705C27.9434 46.118 26.9543 45.9714 26.0243 45.6397C25.0943 45.308 24.242 44.7979 23.5184 44.1395C22.7947 43.4812 22.2143 42.6881 21.8115 41.8073C21.4087 40.9264 21.1918 39.9757 21.1736 39.0117C21.1893 37.9611 21.4367 36.9259 21.8988 35.9763L23.1799 40.047L25.7419 39.247L23.47 30.8234L14.6233 33.9999L15.7109 36.3529L18.9984 35.2705C18.4486 36.4084 18.1992 37.662 18.2731 38.9175C18.2884 40.2541 18.5781 41.5744 19.1253 42.8004C19.6724 44.0263 20.4659 45.1333 21.4592 46.0563C22.4524 46.9793 23.6252 47.6997 24.9087 48.1749C26.1921 48.6501 27.5604 48.8706 28.9327 48.8234C31.3437 48.8162 33.6736 47.9758 35.5074 46.4521C37.3412 44.9284 38.5597 42.8203 38.9457 40.5036C39.3317 38.1868 38.8601 35.812 37.615 33.8022C36.3699 31.7924 34.4323 30.278 32.1473 29.5293V29.6235Z"
      fill="#33514E" />
  </g>
  <defs>
    <clipPath id="clip0_723_15724">
      <rect width="234" height="58" fill="white" />
    </clipPath>
  </defs>
</svg>