<svg width="162" height="42" viewBox="0 0 162 42" fill="none" xmlns="http://www.w3.org/2000/svg">
  <path
    d="M45.5684 9.3559V0H82.5399V15.2998H72.1622V9.23404H62.1326V16.3694H70.7428V25.0077H62.1326V32.7524H72.3363V25.9149H82.714V42H45.5684V32.6441H49.9605V9.3559H45.5684Z"
    fill="#CCD3D3" />
  <path
    d="M84.9102 9.3559V0H121.882V15.2998H111.504V9.23404H101.474V16.3694H110.085V25.0077H101.474V32.7524H111.678V25.9149H122.056V42H84.9102V32.6441H89.3023V9.3559H84.9102Z"
    fill="#CCD3D3" />
  <path
    d="M159.322 24.9671C157.715 26.646 155.225 27.2418 151.542 27.2418H140.803V32.6441H145.49V42H124.252V32.6441H128.644V9.3559H124.252V0H151.542C155.225 0 157.715 0.595745 159.322 2.27466C161.224 4.25145 161.987 6.3501 161.987 13.6209C162 20.8781 161.224 22.9768 159.322 24.9671ZM145.918 18.3598C147.632 18.3598 148.288 18.2379 148.65 17.8859C149.185 17.2901 149.306 16.383 149.306 13.8104C149.306 11.2244 149.185 10.3308 148.65 9.73501C148.288 9.36944 147.645 9.26112 145.918 9.26112H140.816V18.3868H145.918V18.3598Z"
    fill="#CCD3D3" />
  <path
    d="M43.3723 9.3559V0H22.4293V9.23404H25.6966L19.229 16.8569H16.5508V9.23404H20.2333V0H15.2653V3.46615H12.5738V0H7.65945V3.46615H4.96793V0H0V9.3559H4.39213V21V32.6441H0V42H20.2333V32.766H16.5508V25.1431H19.229L25.6966 32.766H22.4293V42H43.3723V32.6441H40.1184L30.2495 21L40.1184 9.3559H43.3723Z"
    fill="#CCD3D3" />
</svg>