<svg width="212" height="52" viewBox="0 0 212 52" fill="none" xmlns="http://www.w3.org/2000/svg">
  <g clip-path="url(#clip0_723_15748)">
    <path
      d="M77.7209 39.2861C77.739 38.855 77.654 38.4257 77.4728 38.0328C77.2917 37.6399 77.0194 37.2944 76.6778 37.0241C75.5185 36.1869 74.2593 35.4926 72.9285 34.957L69.5356 33.384C66.3143 31.876 64.6904 29.484 64.6904 26.403C64.657 25.315 64.8888 24.2349 65.3666 23.2532C65.8444 22.2716 66.5541 21.417 67.4363 20.7611C69.6189 19.2466 72.2559 18.5002 74.922 18.6421C77.9023 18.6413 80.866 19.0795 83.7147 19.9421L80.9158 27.066H80.8233L76.9288 20.241C76.8248 20.0257 76.6625 19.8427 76.46 19.712C76.2574 19.5813 76.0222 19.5079 75.7802 19.5H75.0804C74.0425 19.4615 73.0223 19.7734 72.1891 20.384C71.7993 20.6944 71.4915 21.0929 71.2916 21.5456C71.0916 21.9982 71.0054 22.4916 71.0405 22.984C71.0222 23.4436 71.1061 23.9017 71.2863 24.3261C71.4664 24.7505 71.7385 25.131 72.0835 25.441C73.1658 26.2659 74.356 26.9436 75.6218 27.456L78.8166 28.834C80.3539 29.4026 81.7494 30.2892 82.9092 31.434C83.9196 32.5692 84.4407 34.0476 84.3616 35.5551C84.4088 36.7337 84.1541 37.905 83.6212 38.9614C83.0883 40.0177 82.2942 40.9251 81.3118 41.6C78.8918 43.1244 76.0482 43.8653 73.1792 43.719C70.0331 43.7361 66.9073 43.2216 63.9377 42.1981L66.6839 34.5801H66.7895L70.7501 42.1981C70.8373 42.399 70.9858 42.5683 71.1751 42.6825C71.3643 42.7966 71.5849 42.8499 71.8063 42.835H72.9549C74.1676 42.8997 75.3658 42.5507 76.3478 41.847C76.769 41.5604 77.1139 41.178 77.3529 40.7321C77.592 40.2863 77.7182 39.7902 77.7209 39.2861Z"
      fill="#CCD3D3" />
    <path
      d="M109.063 28.5476C109.063 28.7426 109.063 29.0805 109.063 29.5745V30.3155L108.759 37.2965C108.671 39.1945 109.111 40.1435 110.08 40.1435C110.376 40.1496 110.667 40.0687 110.916 39.9113C111.165 39.7539 111.361 39.527 111.479 39.2596H111.585C111.596 39.8729 111.456 40.4798 111.175 41.0275C110.735 41.9126 110.033 42.6452 109.16 43.1281C108.288 43.6109 107.287 43.8214 106.291 43.7316C104.911 43.754 103.568 43.2933 102.502 42.4316C101.981 41.9966 101.563 41.4547 101.278 40.8438C100.993 40.2329 100.847 39.5679 100.851 38.8956C100.367 40.3059 99.4429 41.5297 98.2109 42.3926C96.9935 43.2566 95.5262 43.7124 94.0257 43.6926C93.1362 43.7182 92.2503 43.5706 91.4188 43.2583C90.5874 42.9459 89.8267 42.4751 89.1805 41.8726C88.5159 41.1988 87.9995 40.3974 87.6634 39.5184C87.3272 38.6394 87.1785 37.7016 87.2266 36.7636C87.1762 35.7318 87.3762 34.703 87.8102 33.7625C88.2441 32.822 88.8994 31.9969 89.7218 31.3555C91.3918 30.0298 93.4782 29.3174 95.6232 29.3405C97.4776 29.2253 99.3228 29.6795 100.904 30.6405L101.01 25.4406V25.1935C101.01 21.4235 99.7951 19.5386 97.3659 19.5386C97.0461 19.5145 96.7245 19.5453 96.4154 19.6296C96.2551 19.7702 96.1209 19.9374 96.0193 20.1236L91.9795 27.4946H91.9002L88.7581 20.4745C91.9851 19.2813 95.3978 18.6479 98.8446 18.6025C102.365 18.6025 104.944 19.3566 106.581 20.8646C108.218 22.3726 109.045 24.9336 109.063 28.5476ZM99.0691 30.9006C98.4911 30.8817 97.917 31.0021 97.397 31.2514C96.877 31.5006 96.4269 31.871 96.0854 32.3305C95.3457 33.4008 94.9754 34.6771 95.0291 35.9706C94.9675 37.059 95.2487 38.1396 95.8344 39.0646C96.0788 39.3982 96.4001 39.6699 96.7719 39.8575C97.1437 40.0451 97.5554 40.1431 97.9732 40.1435C98.5594 40.128 99.1313 39.9614 99.6317 39.6603C100.132 39.3592 100.543 38.9341 100.825 38.4275L100.917 31.2516C100.31 31.0415 99.6726 30.9317 99.0294 30.9266L99.0691 30.9006Z"
      fill="#CCD3D3" />
    <path
      d="M138.794 7.54004V39.676C138.78 39.8933 138.812 40.1112 138.889 40.3151C138.967 40.5191 139.087 40.7044 139.243 40.859L141.752 43.264V43.368H130.662V38.74C130.141 40.2379 129.149 41.5326 127.828 42.4354C126.507 43.3382 124.928 43.8016 123.321 43.758C121.955 43.7941 120.599 43.5155 119.361 42.9445C118.124 42.3735 117.038 41.5258 116.192 40.469C114.268 37.7939 113.336 34.5491 113.552 31.278C113.404 27.9881 114.469 24.7566 116.549 22.178C117.488 21.0604 118.672 20.1666 120.011 19.5633C121.351 18.96 122.812 18.6628 124.285 18.694C125.637 18.5992 126.984 18.9247 128.138 19.6244C129.291 20.3241 130.193 21.3628 130.715 22.594V12.428C130.739 12.1878 130.706 11.9455 130.619 11.7199C130.532 11.4943 130.393 11.2917 130.213 11.128L127.823 8.86599V8.77498L138.794 7.54004ZM127.176 40.04C127.867 40.0323 128.545 39.8589 129.153 39.535C129.76 39.2111 130.278 38.7463 130.662 38.181V23.023C130.288 22.5263 129.797 22.1269 129.231 21.8596C128.665 21.5922 128.041 21.465 127.414 21.489C126.631 21.5111 125.868 21.7368 125.203 22.1432C124.537 22.5497 123.993 23.1223 123.625 23.803C122.639 25.311 122.142 27.7203 122.133 31.031C121.957 33.3974 122.412 35.7682 123.453 37.908C123.818 38.5653 124.357 39.1129 125.012 39.4929C125.668 39.8728 126.416 40.0709 127.176 40.066V40.04Z"
      fill="#CCD3D3" />
    <path
      d="M168.697 7.54004V39.676C168.68 39.8935 168.711 40.1121 168.788 40.3165C168.866 40.5208 168.988 40.706 169.146 40.859L171.641 43.264V43.368H160.551V38.74C160.032 40.2357 159.041 41.5289 157.723 42.4315C156.405 43.3341 154.829 43.7988 153.224 43.758C151.856 43.7941 150.498 43.5156 149.258 42.9446C148.018 42.3737 146.931 41.5261 146.082 40.469C144.158 37.7939 143.226 34.5491 143.441 31.278C143.294 27.9881 144.358 24.7566 146.438 22.178C147.378 21.0604 148.561 20.1666 149.901 19.5633C151.241 18.96 152.702 18.6628 154.175 18.694C155.526 18.5992 156.874 18.9247 158.027 19.6244C159.181 20.3241 160.082 21.3628 160.604 22.594V12.428C160.627 12.1891 160.595 11.9482 160.51 11.7231C160.426 11.4981 160.291 11.2947 160.116 11.128L157.713 8.86599V8.77498L168.697 7.54004ZM157.066 40.04C157.757 40.0323 158.435 39.8589 159.042 39.535C159.649 39.2111 160.167 38.7463 160.551 38.181V23.023C160.18 22.5273 159.691 22.1284 159.127 21.8611C158.563 21.5937 157.942 21.466 157.317 21.489C156.532 21.5088 155.766 21.7334 155.098 22.14C154.43 22.5465 153.884 23.1204 153.515 23.803C152.529 25.311 152.032 27.7203 152.023 31.031C151.847 33.3974 152.302 35.7682 153.343 37.908C153.708 38.5653 154.247 39.1129 154.902 39.4929C155.558 39.8728 156.305 40.0709 157.066 40.066V40.04Z"
      fill="#CCD3D3" />
    <path
      d="M183.998 7.54004V39.819C183.989 40.0404 184.028 40.2612 184.115 40.4656C184.202 40.6701 184.333 40.8532 184.5 41.002L186.942 43.264V43.368H172.975V43.264L175.417 41.002C175.568 40.8443 175.686 40.6583 175.763 40.4552C175.84 40.252 175.875 40.0357 175.866 39.819V12.402C175.885 12.1666 175.855 11.9298 175.778 11.7062C175.701 11.4827 175.578 11.277 175.417 11.102L172.975 8.84004V8.74903L183.998 7.54004Z"
      fill="#CCD3D3" />
    <path
      d="M211.947 30.0947H196.976V30.1857C196.795 32.6097 197.502 35.0171 198.969 36.9717C199.61 37.6902 200.403 38.2609 201.293 38.6429C202.183 39.0249 203.148 39.2088 204.118 39.1817C205.696 39.2691 207.263 38.8852 208.616 38.0802C209.968 37.2753 211.042 36.0869 211.696 34.6708H211.802C210.534 40.7374 206.855 43.7708 200.765 43.7708C197.571 43.8517 194.468 42.726 192.091 40.6247C189.723 38.536 188.54 35.4551 188.54 31.3817C188.54 27.0917 189.723 23.8981 192.091 21.8007C194.567 19.6633 197.778 18.5379 201.068 18.6547C202.409 18.6443 203.743 18.8283 205.029 19.2007C206.265 19.5581 207.431 20.1209 208.475 20.8648C209.647 21.6827 210.562 22.8089 211.115 24.1148C211.784 25.6674 212.108 27.3428 212.066 29.0287C212.039 29.3407 212.039 29.7047 211.947 30.0947ZM200.976 19.5777C200.306 19.6011 199.66 19.8325 199.132 20.2387C198.603 20.645 198.218 21.2053 198.032 21.8398C197.217 24.2106 196.859 26.7104 196.976 29.2107H204.316C204.316 28.7817 204.316 28.2877 204.316 27.7287C204.461 25.5801 204.155 23.4252 203.418 21.3977C203.254 20.882 202.93 20.4296 202.493 20.1034C202.055 19.7772 201.525 19.5934 200.976 19.5777Z"
      fill="#CCD3D3" />
    <path
      d="M26.4043 52C40.987 52 52.8086 40.3594 52.8086 26C52.8086 11.6406 40.987 0 26.4043 0C11.8216 0 0 11.6406 0 26C0 40.3594 11.8216 52 26.4043 52Z"
      fill="#CCD3D3" />
    <path
      d="M38.537 15.0023C38.537 15.0023 40.1212 11.1022 39.8572 10.2572C39.5931 9.41222 39.6592 9.12623 38.2333 8.07323C37.4842 8.45033 36.6425 8.61248 35.8042 8.54121C34.8951 8.40367 34.0489 8.0006 33.375 7.38419C32.868 6.93978 32.5282 6.33963 32.4112 5.6812C32.4085 5.65596 32.4133 5.63058 32.4252 5.60804C32.437 5.5855 32.4554 5.56684 32.4779 5.5544C32.5003 5.54196 32.526 5.53623 32.5517 5.53798C32.5774 5.53973 32.6019 5.54888 32.6224 5.56424C33.2769 6.22659 34.0761 6.73343 34.9592 7.04626C35.5765 7.24756 36.2432 7.24756 36.8604 7.04626C34.9919 5.68898 32.9774 4.53805 30.8534 3.61424C30.3657 3.3956 29.8193 3.33824 29.2958 3.45071C28.7723 3.56318 28.2998 3.83942 27.949 4.23822L26.0742 7.1502C28.3116 7.54681 30.4665 8.30688 32.4508 9.39926C34.8074 10.8885 36.8696 12.787 38.537 15.0023Z"
      fill="#33514E" />
    <path
      d="M43.5802 19.4478C42.9779 19.5104 42.369 19.4619 41.7847 19.3048C38.6294 18.4338 36.7019 13.3247 31.223 10.1007C22.5228 5.68075 17.8492 9.67172 17.8492 9.67172C17.2419 10.0747 17.8492 10.3347 17.8492 10.3347L20.7008 11.7518L22.021 12.4537C21.6838 12.7993 21.2319 13.0143 20.7473 13.0596C20.2628 13.105 19.7778 12.9776 19.3806 12.7007C18.9381 12.5393 18.4599 12.4976 17.9956 12.5799C17.5312 12.6622 17.0976 12.8655 16.7401 13.1687C15.7632 13.7017 16.1856 15.2097 15.4199 16.1717C14.6542 17.1337 13.334 16.9777 13.1888 18.3687C13.0436 19.7597 14.2054 20.0587 14.2318 21.1247C14.2412 21.7994 14.0777 22.4657 13.7566 23.0618C13.7365 23.1998 13.7365 23.3398 13.7566 23.4777C13.7759 23.6875 13.8586 23.8868 13.9941 24.0497C14.089 24.1483 14.1954 24.2356 14.311 24.3097C14.7761 24.6151 15.1607 25.0251 15.4331 25.5057L15.5653 25.7527L15.6973 25.9868C16.0065 26.5131 16.1186 27.1295 16.0141 27.7287C15.9749 27.8999 15.9749 28.0776 16.0141 28.2488C16.0721 28.4108 16.17 28.5562 16.299 28.6718C16.428 28.7875 16.5841 28.87 16.7533 28.9118C17.2555 29.0323 17.6965 29.3278 17.9944 29.7437V29.8347C18.4037 30.3937 18.3113 31.2907 18.4829 31.9277C18.6545 32.5647 19.1826 32.7727 19.9747 33.2277C20.7669 33.6827 20.9253 34.3717 20.6084 34.6967C20.2916 35.0217 18.3508 34.2157 17.5719 35.1257C16.991 35.6587 17.2419 35.9837 16.9514 36.9847C16.661 37.9857 15.8029 37.2447 15.3408 37.9467C15.0948 38.3921 14.9412 38.8813 14.8891 39.3857C14.8369 39.8901 14.8873 40.3997 15.0372 40.8847C15.3843 42.1547 15.9611 43.3526 16.7401 44.4208C16.5272 43.5653 16.4995 42.6752 16.6587 41.8084C16.818 40.9416 17.1606 40.1176 17.6644 39.3898C18.1404 38.7369 18.779 38.2157 19.519 37.8764C20.2589 37.5372 21.0752 37.3912 21.889 37.4527C23.0446 37.5448 24.133 38.0251 24.9718 38.8133C25.8106 39.6014 26.3489 40.6494 26.4965 41.7817C26.5867 42.3359 26.5544 42.9027 26.4018 43.4434C26.2491 43.9841 25.9798 44.486 25.6121 44.9148C25.1656 45.4669 24.5365 45.8472 23.8345 45.9898C23.1325 46.1323 22.4021 46.0279 21.7702 45.6948C21.1485 45.3234 20.6559 44.7748 20.3577 44.1217C20.2118 43.7525 20.1447 43.3576 20.1606 42.9618C20.1765 42.5659 20.275 42.1775 20.45 41.8208C20.5658 41.6357 20.7195 41.4765 20.9014 41.3534C21.0833 41.2302 21.2893 41.1459 21.5062 41.1057C21.8938 41.0583 22.286 41.1457 22.6152 41.3527C22.8417 41.4818 23.0242 41.6744 23.1394 41.9059C23.2546 42.1374 23.2973 42.3973 23.2621 42.6527C23.2291 42.885 23.1064 43.0958 22.9194 43.2411C22.7325 43.3865 22.4958 43.4551 22.2587 43.4328C22.1795 43.4328 22.0343 43.4328 22.2587 43.4328C22.0972 43.4163 21.9447 43.3513 21.822 43.2467C21.6992 43.1421 21.6119 43.0028 21.5722 42.8477C21.5722 42.8477 21.4798 42.8477 21.4666 42.8477C21.4126 43.1765 21.4801 43.5135 21.6569 43.7974C21.8338 44.0812 22.1082 44.2932 22.4303 44.3948C22.7251 44.4635 23.0328 44.4565 23.3241 44.3746C23.6154 44.2927 23.8804 44.1385 24.0938 43.9268C24.3574 43.6885 24.5603 43.3926 24.6864 43.0629C24.8125 42.7333 24.8582 42.379 24.8198 42.0287C24.8265 41.6546 24.7455 41.284 24.5829 40.9458C24.4203 40.6075 24.1806 40.3108 23.8825 40.0787C23.2187 39.4672 22.3356 39.1399 21.427 39.1687C20.9134 39.1994 20.4145 39.3497 19.9715 39.6073C19.5285 39.865 19.154 40.2226 18.8789 40.6507C18.4836 41.271 18.2408 41.9736 18.1698 42.7025C18.0987 43.4315 18.2014 44.1667 18.4697 44.8497C19.0496 46.0738 19.988 47.0993 21.1643 47.7942C22.3405 48.4892 23.701 48.8219 25.0708 48.7497C25.4595 48.7533 25.8479 48.7272 26.2325 48.6717C27.3291 48.4735 28.3802 48.0816 29.335 47.5148C30.2946 46.92 31.0749 46.083 31.595 45.0909C32.115 44.0987 32.3558 42.9875 32.2923 41.8727C32.2923 38.2977 30.6949 35.9057 27.4208 32.1877C26.8003 31.4207 24.2523 28.2877 23.7902 27.7157C21.5194 24.8167 18.9713 21.4108 20.2387 18.8238L20.3577 18.6027C22.2588 15.1837 27.5924 16.0028 26.4174 16.2368C25.0784 16.404 23.8221 16.9659 22.8132 17.8488C22.449 18.2194 22.1699 18.6627 21.9947 19.1488C21.8231 19.8385 21.8075 20.557 21.9489 21.2533C22.0904 21.9497 22.3854 22.607 22.8132 23.1787C26.7739 28.6257 32.4904 35.4247 33.2033 37.0627C33.8852 38.5406 34.2362 40.1455 34.233 41.7687C34.1919 42.6394 34.1038 43.5073 33.969 44.3687C34.7807 43.7228 35.4577 42.9282 35.9625 42.0287C36.5962 40.7287 36.7151 40.1178 36.5171 39.6368C36.319 39.1558 35.8173 39.1428 35.606 38.3368C35.3948 37.5308 35.9756 36.8547 35.3815 35.5937C35.1175 35.0347 33.7446 34.2938 33.0317 33.3448C32.3188 32.3958 31.0382 30.8878 30.0612 29.6138C28.3185 27.3258 27.7508 26.5587 26.7475 25.2717C27.83 25.5837 29.1898 26.0258 32.3319 24.5958C34.0321 25.526 35.96 25.9758 37.9032 25.8958C38.5854 25.8394 39.2344 25.581 39.7647 25.1548C40.0811 24.8468 40.3245 24.4739 40.4777 24.0627C40.4905 24.0368 40.4948 24.0076 40.4904 23.9791C40.4861 23.9506 40.4731 23.9239 40.4531 23.9029C40.4331 23.8818 40.407 23.8671 40.3784 23.8609C40.3498 23.8546 40.3201 23.857 40.2929 23.8678C37.8505 24.8688 35.6061 24.0628 32.8468 22.5678L32.3584 22.3078L31.8699 22.5548C30.9036 23.0143 29.8513 23.2723 28.779 23.3126C27.7067 23.3529 26.6375 23.1745 25.6385 22.7888C25.0888 22.5201 24.6302 22.1002 24.3183 21.5798C24.1378 21.2567 24.0291 20.8995 23.9995 20.5319C23.9699 20.1644 24.0201 19.7948 24.1467 19.4478C24.2987 19.1557 24.524 18.9069 24.8013 18.7249C25.0786 18.5429 25.3986 18.4337 25.7309 18.4078C26.5265 18.3796 27.3178 18.5354 28.0412 18.8627C28.0758 18.8769 28.114 18.8805 28.1507 18.8728C28.1873 18.8652 28.2208 18.8468 28.2466 18.82C28.2723 18.7932 28.2893 18.7592 28.2951 18.7228C28.3008 18.6863 28.2952 18.649 28.2789 18.6157C28.1946 18.3999 28.1497 18.171 28.1468 17.9398C28.1458 17.5559 28.2709 17.182 28.5033 16.8738L29.467 17.3157C29.382 17.4056 29.3179 17.5126 29.2791 17.6294C29.2403 17.7461 29.2279 17.8698 29.2427 17.9918C29.2677 18.1829 29.3626 18.3586 29.5096 18.4859C29.6566 18.6132 29.8456 18.6834 30.0414 18.6834C30.2371 18.6834 30.4262 18.6132 30.5732 18.4859C30.7202 18.3586 30.8151 18.1829 30.8401 17.9918L31.751 18.4078C31.6692 18.721 31.5036 19.0068 31.2713 19.2354C31.0391 19.4641 30.7488 19.6272 30.4307 19.7078C30.3992 19.7078 30.3691 19.7201 30.3468 19.742C30.3245 19.764 30.312 19.7937 30.312 19.8247C30.312 19.8558 30.3245 19.8855 30.3468 19.9075C30.3691 19.9294 30.3992 19.9418 30.4307 19.9418C31.6717 20.5268 35.2892 22.1777 35.2892 22.1777C36.5001 22.8343 37.8682 23.1576 39.2498 23.1138C41.0189 23.0098 41.8111 21.6318 40.7681 21.8138C39.5471 21.7126 38.3538 21.4001 37.2431 20.8907L35.5796 20.1368L36.2794 19.0708C37.685 19.8465 39.1842 20.4449 40.7417 20.8518C41.2603 20.9569 41.7987 20.9149 42.2941 20.7308C42.7896 20.5468 43.2217 20.2281 43.5405 19.8118C43.5758 19.7976 43.6066 19.7742 43.6295 19.7442C43.6524 19.7142 43.6665 19.6787 43.6706 19.6414C43.6747 19.604 43.6685 19.5663 43.6525 19.5323C43.6366 19.4982 43.6116 19.469 43.5802 19.4478ZM24.1862 14.7937C23.1513 14.9472 22.1428 15.2403 21.1892 15.6648C20.912 15.7948 20.6613 15.9378 20.4632 16.0548C19.7225 16.5528 19.1226 17.2283 18.7204 18.0178C16.8457 21.5798 20.2651 25.9478 23.0244 29.4578L24.3446 31.1087C24.9255 31.9017 25.5592 32.6817 26.1929 33.4227C27.9387 35.2619 29.338 37.3925 30.3252 39.7148C30.5182 40.4176 30.5675 41.151 30.4704 41.8727C30.3719 42.4212 30.1387 42.9377 29.7913 43.3772C29.4438 43.8168 28.9926 44.1661 28.4768 44.3948C28.7687 43.4435 28.8498 42.4415 28.7146 41.4567C28.2047 39.5544 27.2354 37.8017 25.8893 36.3477L24.3314 34.3458C19.6578 28.4308 19.1957 27.7548 18.0868 25.7918L17.9812 25.5967C17.3475 24.5437 15.6313 21.6968 16.3706 18.7458C16.5494 18.0744 16.8737 17.449 17.3211 16.9127C20.0804 13.3247 25.3215 14.5207 24.1862 14.7287V14.7937Z"
      fill="#33514E" />
  </g>
  <defs>
    <clipPath id="clip0_723_15748">
      <rect width="212" height="52" fill="white" />
    </clipPath>
  </defs>
</svg>