<svg xmlns="http://www.w3.org/2000/svg" width="280" height="58" viewBox="0 0 280 58" fill="none">
  <path fill-rule="evenodd" clip-rule="evenodd" d="M21.5302 0H279.158H279.161C279.324 0 279.455 0.134073 279.455 0.300919V2.45503C279.455 2.62187 279.324 2.75595 279.161 2.75595C276.443 2.75972 256.292 2.75602 227.928 2.75082C166.75 2.73958 67.357 2.72134 22.2376 2.75595C21.0207 2.75595 19.2884 2.75595 17.201 3.3995C14.1732 4.33503 11.9402 7.31741 11.9169 10.556V10.6275C11.9169 16.5148 16.7701 19.2737 24.4095 21.6662C33.5773 24.4251 45.4411 28.1047 45.4411 41.1664C45.4411 54.2281 32.5875 58 22.1619 58H21.9436H0.885807C0.396701 58 0.000757328 57.5948 0.000757328 57.0943V41.7205C-0.00215402 41.5358 0.00366868 41.3541 0.0124027 41.1783C0.137591 38.9586 1.15365 37.3974 3.19742 37.3974C4.45512 37.3974 4.81613 37.9516 5.44498 39.7899C8.67949 48.8056 16.1384 53.4028 23.5099 53.4951C30.0721 53.4951 32.5875 50.182 32.5875 46.0437C32.5875 39.2357 25.8477 36.9386 17.9376 34.5462C8.76974 31.6949 0.230754 26.2694 0.230754 15.3231C0.230754 4.37674 9.75669 0 21.5302 0ZM166.581 16.2051C157.256 16.2051 149.835 22 149.835 31.8827H149.838C149.838 42.0097 157.591 47.7063 166.203 47.7063C173.671 47.7063 177.572 43.3713 178.809 41.0354L177.382 39.8168C174.908 42.6413 172.101 43.2253 170.104 43.2253C164.634 43.2253 158.831 38.6966 158.735 28.7662C158.639 22.438 160.829 18.2013 165.015 18.2013C168.678 18.2013 170.058 21.4161 170.247 24.8722C170.389 27.1097 171.484 29.2042 174.623 29.2042C177.761 29.2042 178.998 26.916 178.998 24.7262C178.998 20.4895 174.526 16.2051 166.581 16.2051ZM52.0403 21.5739V33.5928L52.0433 33.5958C52.0433 43.5202 57.7466 47.7092 65.7382 47.7092C74.4606 47.7092 78.6035 42.4238 78.6035 34.6922V21.5739C78.6035 19.6284 80.164 18.4813 82.5513 18.231V16.2348H71.2436V18.231C73.6309 18.4813 75.1419 19.6284 75.1419 21.5739V33.3455C75.1419 40.4276 71.8288 43.6185 67.5404 43.6185C63.2519 43.6185 60.2795 40.7255 60.2795 33.0446V21.5739C60.2795 19.6284 61.5954 18.4813 63.9827 18.231V16.2348H48.3371V18.231C50.7244 18.4813 52.0403 19.6284 52.0403 21.5739ZM88.9329 41.8696C88.9329 43.8151 87.617 44.9145 85.2297 45.2125V47.2057C90.3031 46.3093 96.0055 46.7002 100.261 46.9919H100.261C101.932 47.1064 103.38 47.2057 104.479 47.2057C111.304 47.2057 116.323 44.0654 116.323 38.2794C116.323 34.0397 113.644 31.0454 107.405 30.1486C112.963 29.2518 114.57 26.4571 114.57 23.6148C114.57 18.5796 109.842 16.2348 100.29 16.2348H85.2297V18.231C87.617 18.4783 88.9329 19.6254 88.9329 21.6216V41.8696ZM105.795 24.1153C105.795 26.4095 104.919 29.1029 101.557 29.1029V29.0999H100.29C98.0978 29.0999 97.172 28.1048 97.172 26.1086V21.7199C97.172 19.7267 98.0978 18.6779 100.29 18.6779H100.776C103.944 18.6779 105.795 20.6235 105.795 24.1153ZM107.551 38.2317C107.551 43.0703 104.774 44.5153 101.07 44.5153H99.3643C97.9523 44.5153 97.172 43.9164 97.172 42.6204V34.4896C97.172 32.4964 98.0978 31.4983 99.3643 31.4983C104.724 31.4983 107.551 33.3932 107.551 38.2317ZM121.633 44.7597C120.218 41.2828 119.886 36.5991 122.623 36.5991C123.33 36.5991 123.52 36.9865 123.898 37.9995C125.645 42.7308 129.654 45.0487 133.334 45.0964C136.778 45.1441 137.771 43.3594 137.771 41.6194C137.771 38.2378 134.373 36.9358 130.222 35.7292C125.502 34.3288 120.833 31.0455 120.833 25.4919C120.833 19.408 126.163 16.4614 132.251 16.4614C136.027 16.4614 140.932 17.6204 142.915 19.0207C144.33 22.4976 144.662 27.1813 141.925 27.1813C141.218 27.1813 141.029 26.7939 140.65 25.7809C138.999 21.1927 135.177 18.9253 131.922 18.9253C128.667 18.9253 127.581 20.9543 127.581 22.6913C127.581 25.6379 130.035 27.1336 134.094 28.3402C139.002 29.7882 145.23 32.0585 145.23 38.7235C145.23 45.8204 138.295 47.7063 132.915 47.7063C128.431 47.7063 123.619 46.16 121.636 44.7597H121.633ZM180.396 45.7097C183.467 45.0125 184.489 42.9657 185.659 40.2246L193.456 22.518C194.577 19.9736 194.868 17.6795 194.868 16.732L199.156 16.3328L209.489 39.0746C209.778 39.7065 210.032 40.2911 210.267 40.8302C211.458 43.5678 212.14 45.1326 214.217 45.7574V47.7029H199.692V45.7067C202.519 45.2091 202.568 43.4126 201.544 41.2167L201.203 40.6179C200.862 39.5691 199.742 39.5691 198.667 39.5691H191.648C190.332 39.5691 189.456 39.7688 188.871 41.0648L189.016 40.8652C187.895 43.5079 189.066 45.1049 192.379 45.7037V47.6999H180.39V45.7037L180.396 45.7097ZM198.329 36.98C198.816 36.98 199.255 36.5808 198.915 35.7317L195.453 28.1997C195.112 27.3506 194.917 27.3506 194.577 28.1491L191.115 36.0803C190.97 36.6791 191.555 36.9771 191.895 36.9771H198.329V36.98ZM220.642 42.316C220.642 44.2824 219.314 45.3907 216.901 45.6916L216.898 45.6946V47.7087H233.193V45.6946C230.287 45.3907 228.96 44.2824 228.96 42.319V39.5481C228.96 37.4298 229.65 36.5747 231.667 36.5747H232.75C242.398 36.5747 247.074 32.6449 247.074 26.4983C247.074 20.3518 242.398 16.422 232.75 16.422H216.901V18.4361C219.314 18.6893 220.642 19.8483 220.642 21.8117V42.316ZM239.001 26.5967C239.001 30.7797 237.525 33.9528 232.75 33.9528H231.667C229.65 33.9528 228.96 33.0947 228.96 30.9794V22.214C228.96 20.2505 229.6 18.9396 231.816 18.9396H232.75C237.525 18.9396 239.001 22.1127 239.001 26.5967ZM249.784 45.6916C252.198 45.3907 253.525 44.2824 253.525 42.316V21.8117C253.525 19.8483 252.198 18.6893 249.784 18.4361V16.422H274.79C275.232 16.422 275.43 16.574 275.48 16.9255C275.493 17.064 275.507 17.2024 275.52 17.3426L275.521 17.3525C275.653 18.7391 275.801 20.2945 276.513 23.6262H275.282C273.558 20.5544 272.082 18.9426 269.177 18.9426H264.993C262.778 18.9426 261.843 20.2029 261.843 22.2169V27.5054C261.843 29.5195 262.778 30.6278 264.993 30.6278H266.961C270.95 30.6278 271.686 29.6714 272.082 26.9006H273.165V36.8756H272.082C271.689 34.2567 270.95 33.199 266.961 33.199H264.993C262.778 33.199 261.843 34.3074 261.843 36.3214V42.0151C261.843 43.9785 262.728 45.2388 264.452 45.2894L269.768 45.2388C272.819 45.1881 274.199 44.0798 275.427 42.4173L276.609 40.6535H277.841C277.2 42.1134 276.659 44.3301 276.365 46.9996C276.315 47.4525 276.021 47.7057 275.576 47.7057H249.781V45.6916H249.784Z" fill="#E4EEEE"/>
</svg>